<?xml version="1.0" encoding="utf-8"?>
<svg viewBox="131.906005859375 143.72500610351562 82.76100158691406 93.97799682617188" width="82.76100158691406" height="93.97799682617188" xmlns="http://www.w3.org/2000/svg">
  <g transform="matrix(0.12500000186264515, 0, 0, -0.12500000186264515, 0, 526.1375122070312)">
    <path id="path62" style="fill:#ddd8bf;fill-opacity:1;fill-rule:nonzero;stroke:none" d="M 1552.48 2334.62 C 1552.48 2319.64 1441.17 2307.48 1303.87 2307.48 C 1166.56 2307.48 1055.25 2319.64 1055.25 2334.62 C 1055.25 2349.61 1166.56 2361.77 1303.87 2361.77 C 1441.17 2361.77 1552.48 2349.61 1552.48 2334.62"/>
    <path id="path4232" style="fill:#c9a88b;fill-opacity:1;fill-rule:nonzero;stroke:none" d="M 1118.31 2425.82 C 1118.31 2413.41 1128.34 2403.36 1140.75 2403.36 L 1170.42 2403.36 C 1182.8 2403.36 1192.84 2413.41 1192.84 2425.82 L 1192.84 2455.46 C 1192.84 2467.86 1182.8 2477.89 1170.42 2477.89 L 1140.75 2477.89 C 1128.34 2477.89 1118.31 2467.86 1118.31 2455.46 L 1118.31 2425.82"/>
    <path id="path4234" style="fill:#000000;fill-opacity:1;fill-rule:nonzero;stroke:none" d="M 1140.75 2475.39 C 1129.76 2475.39 1120.81 2466.45 1120.81 2455.46 L 1120.81 2425.82 C 1120.81 2414.81 1129.76 2405.86 1140.75 2405.86 L 1170.42 2405.86 C 1181.41 2405.86 1190.34 2414.81 1190.34 2425.82 L 1190.34 2455.46 C 1190.34 2466.45 1181.41 2475.39 1170.42 2475.39 L 1140.75 2475.39 Z M 1170.42 2400.86 L 1140.75 2400.86 C 1127 2400.86 1115.81 2412.05 1115.81 2425.82 L 1115.81 2455.46 C 1115.81 2469.2 1127 2480.39 1140.75 2480.39 L 1170.42 2480.39 C 1184.16 2480.39 1195.34 2469.2 1195.34 2455.46 L 1195.34 2425.82 C 1195.34 2412.05 1184.16 2400.86 1170.42 2400.86"/>
    <path id="path4236" style="fill:#f4d9bd;fill-opacity:1;fill-rule:nonzero;stroke:none" d="M 1118.31 2462.93 C 1118.31 2454.68 1125 2447.99 1133.27 2447.99 L 1146.32 2447.99 C 1154.59 2447.99 1161.29 2454.68 1161.29 2462.93 L 1161.29 2462.93 C 1161.29 2471.18 1154.59 2477.89 1146.32 2477.89 L 1133.27 2477.89 C 1125 2477.89 1118.31 2471.18 1118.31 2462.93 L 1118.31 2462.93"/>
    <path id="path4238" style="fill:#000000;fill-opacity:1;fill-rule:nonzero;stroke:none" d="M 1133.27 2475.39 C 1126.4 2475.39 1120.81 2469.8 1120.81 2462.93 C 1120.81 2456.07 1126.4 2450.49 1133.27 2450.49 L 1146.32 2450.49 C 1153.2 2450.49 1158.79 2456.07 1158.79 2462.93 C 1158.79 2469.8 1153.2 2475.39 1146.32 2475.39 L 1133.27 2475.39 Z M 1146.32 2445.49 L 1133.27 2445.49 C 1123.64 2445.49 1115.81 2453.31 1115.81 2462.93 C 1115.81 2472.56 1123.64 2480.39 1133.27 2480.39 L 1146.32 2480.39 C 1155.95 2480.39 1163.79 2472.56 1163.79 2462.93 C 1163.79 2453.31 1155.95 2445.49 1146.32 2445.49"/>
    <path id="path4240" style="fill:#d33200;fill-opacity:1;fill-rule:nonzero;stroke:none" d="M 1154.68 2608.63 L 1104.68 2461.09 L 1206.46 2461.09 L 1206.46 2607.23 C 1206.46 2621.95 1196.79 2633.86 1184.85 2633.86 C 1172.91 2633.86 1159.4 2622.57 1154.68 2608.63"/>
    <path id="path4242" style="fill:#000000;fill-opacity:1;fill-rule:nonzero;stroke:none" d="M 1108.17 2463.59 L 1203.96 2463.59 L 1203.96 2607.23 C 1203.96 2620.54 1195.39 2631.36 1184.85 2631.36 C 1173.91 2631.36 1161.44 2620.8 1157.05 2607.83 L 1108.17 2463.59 Z M 1206.46 2458.59 L 1104.68 2458.59 C 1103.88 2458.59 1103.12 2458.98 1102.65 2459.64 C 1102.18 2460.29 1102.06 2461.13 1102.31 2461.89 L 1152.31 2609.43 C 1157.34 2624.28 1171.94 2636.36 1184.85 2636.36 C 1198.14 2636.36 1208.96 2623.29 1208.96 2607.23 L 1208.96 2461.09 C 1208.96 2459.71 1207.85 2458.59 1206.46 2458.59"/>
    <path id="path4244" style="fill:#ffde73;fill-opacity:1;fill-rule:nonzero;stroke:none" d="M 1128.52 2529.75 C 1126.11 2523.32 1123.75 2517 1121.51 2510.97 L 1206.46 2510.97 C 1206.55 2517 1206.39 2523.32 1206.46 2529.75 L 1128.52 2529.75"/>
    <path id="path4246" style="fill:#000000;fill-opacity:1;fill-rule:nonzero;stroke:none" d="M 1125.12 2513.47 L 1203.99 2513.47 C 1204 2515.76 1203.98 2518.08 1203.97 2520.43 C 1203.96 2522.68 1203.94 2524.96 1203.95 2527.25 L 1130.25 2527.25 L 1125.12 2513.47 Z M 1206.46 2508.47 L 1121.51 2508.47 C 1120.69 2508.47 1119.93 2508.88 1119.46 2509.55 C 1118.99 2510.22 1118.89 2511.08 1119.17 2511.85 L 1126.18 2530.63 C 1126.54 2531.6 1127.48 2532.25 1128.52 2532.25 L 1206.46 2532.25 C 1207.13 2532.25 1207.77 2531.99 1208.24 2531.51 C 1208.71 2531.04 1208.97 2530.39 1208.96 2529.72 C 1208.93 2526.6 1208.95 2523.51 1208.97 2520.46 C 1208.99 2517.22 1209.01 2514.04 1208.96 2510.94 C 1208.95 2509.57 1207.83 2508.47 1206.46 2508.47"/>
    <path id="path4248" style="fill:#c9a88b;fill-opacity:1;fill-rule:nonzero;stroke:none" d="M 1647.61 2615.14 C 1660 2615.14 1670.06 2605.1 1670.06 2592.71 L 1670.06 2563.03 C 1670.06 2550.66 1660 2540.6 1647.61 2540.6 L 1617.97 2540.6 C 1605.58 2540.6 1595.52 2550.66 1595.52 2563.03 L 1595.52 2592.71 C 1595.52 2605.1 1605.58 2615.14 1617.97 2615.14 L 1647.61 2615.14"/>
    <path id="path4250" style="fill:#000000;fill-opacity:1;fill-rule:nonzero;stroke:none" d="M 1617.97 2612.64 C 1606.97 2612.64 1598.02 2603.7 1598.02 2592.71 L 1598.02 2563.03 C 1598.02 2552.04 1606.97 2543.1 1617.97 2543.1 L 1647.61 2543.1 C 1658.61 2543.1 1667.56 2552.04 1667.56 2563.03 L 1667.56 2592.71 C 1667.56 2603.7 1658.61 2612.64 1647.61 2612.64 L 1617.97 2612.64 Z M 1647.61 2538.1 L 1617.97 2538.1 C 1604.21 2538.1 1593.02 2549.29 1593.02 2563.03 L 1593.02 2592.71 C 1593.02 2606.46 1604.21 2617.64 1617.97 2617.64 L 1647.61 2617.64 C 1661.37 2617.64 1672.56 2606.46 1672.56 2592.71 L 1672.56 2563.03 C 1672.56 2549.29 1661.37 2538.1 1647.61 2538.1"/>
    <path id="path4252" style="fill:#f4d9bd;fill-opacity:1;fill-rule:nonzero;stroke:none" d="M 1610.49 2615.14 C 1618.75 2615.14 1625.44 2608.46 1625.44 2600.16 L 1625.44 2587.13 C 1625.44 2578.86 1618.75 2572.16 1610.49 2572.16 L 1610.49 2572.16 C 1602.23 2572.16 1595.52 2578.86 1595.52 2587.13 L 1595.52 2600.16 C 1595.52 2608.46 1602.23 2615.14 1610.49 2615.14 L 1610.49 2615.14"/>
    <path id="path4254" style="fill:#000000;fill-opacity:1;fill-rule:nonzero;stroke:none" d="M 1610.49 2612.64 C 1603.61 2612.64 1598.02 2607.04 1598.02 2600.16 L 1598.02 2587.13 C 1598.02 2580.25 1603.61 2574.66 1610.49 2574.66 C 1617.36 2574.66 1622.94 2580.25 1622.94 2587.13 L 1622.94 2600.16 C 1622.94 2607.04 1617.36 2612.64 1610.49 2612.64 Z M 1610.49 2569.66 C 1600.86 2569.66 1593.02 2577.49 1593.02 2587.13 L 1593.02 2600.16 C 1593.02 2609.8 1600.86 2617.64 1610.49 2617.64 C 1620.11 2617.64 1627.94 2609.8 1627.94 2600.16 L 1627.94 2587.13 C 1627.94 2577.49 1620.11 2569.66 1610.49 2569.66"/>
    <path id="path4256" style="fill:#d33200;fill-opacity:1;fill-rule:nonzero;stroke:none" d="M 1436.8 2603.14 C 1436.8 2591.22 1448.08 2577.71 1462.01 2572.99 L 1609.57 2522.98 L 1609.57 2624.76 L 1463.42 2624.76 C 1448.72 2624.76 1436.8 2615.08 1436.8 2603.14"/>
    <path id="path4258" style="fill:#000000;fill-opacity:1;fill-rule:nonzero;stroke:none" d="M 1463.42 2622.26 C 1450.12 2622.26 1439.3 2613.68 1439.3 2603.14 C 1439.3 2592.22 1449.84 2579.75 1462.81 2575.35 L 1607.07 2526.46 L 1607.07 2622.26 L 1463.42 2622.26 Z M 1609.57 2520.48 C 1609.3 2520.48 1609.03 2520.52 1608.77 2520.61 L 1461.21 2570.62 C 1446.37 2575.65 1434.3 2590.24 1434.3 2603.14 C 1434.3 2616.44 1447.36 2627.26 1463.42 2627.26 L 1609.57 2627.26 C 1610.95 2627.26 1612.07 2626.15 1612.07 2624.76 L 1612.07 2522.98 C 1612.07 2522.17 1611.68 2521.41 1611.03 2520.95 C 1610.6 2520.64 1610.09 2520.48 1609.57 2520.48"/>
    <path id="path4260" style="fill:#ffde73;fill-opacity:1;fill-rule:nonzero;stroke:none" d="M 1540.91 2546.82 C 1547.34 2544.41 1553.65 2542.04 1559.67 2539.81 L 1559.67 2624.76 C 1553.65 2624.84 1547.34 2624.69 1540.91 2624.76 L 1540.91 2546.82"/>
    <path id="path4262" style="fill:#000000;fill-opacity:1;fill-rule:nonzero;stroke:none" d="M 1543.41 2548.56 L 1545.45 2547.79 C 1549.43 2546.3 1553.35 2544.83 1557.17 2543.41 L 1557.17 2622.28 L 1555.82 2622.29 L 1544.97 2622.24 L 1543.41 2622.25 L 1543.41 2548.56 Z M 1559.67 2537.31 C 1559.38 2537.31 1559.08 2537.36 1558.8 2537.47 C 1553.93 2539.27 1548.86 2541.17 1543.69 2543.11 L 1540.03 2544.49 C 1539.05 2544.85 1538.41 2545.78 1538.41 2546.82 L 1538.41 2624.76 C 1538.41 2625.43 1538.68 2626.07 1539.15 2626.54 C 1539.62 2627.01 1540.31 2627.32 1540.94 2627.26 L 1544.97 2627.24 L 1555.82 2627.29 L 1559.7 2627.26 C 1561.07 2627.24 1562.17 2626.13 1562.17 2624.76 L 1562.17 2539.81 C 1562.17 2538.99 1561.77 2538.23 1561.1 2537.76 C 1560.67 2537.46 1560.17 2537.31 1559.67 2537.31"/>
    <path id="path4264" style="fill:#f15a24;fill-opacity:1;fill-rule:nonzero;stroke:none" d="M 1481.4 2342.97 C 1481.51 2360.68 1463.06 2621.44 1458.79 2637.14 L 1208.14 2637.14 C 1203.79 2621.33 1172.71 2358.96 1172.77 2342.97 L 1481.4 2342.97"/>
    <path id="path4266" style="fill:#000000;fill-opacity:1;fill-rule:nonzero;stroke:none" d="M 1175.36 2345.47 L 1478.86 2345.47 C 1477.94 2377.98 1461.09 2608.48 1456.75 2634.64 L 1210.15 2634.64 C 1204.95 2608.1 1177.13 2376.77 1175.36 2345.47 Z M 1481.4 2340.47 L 1172.77 2340.47 C 1171.4 2340.47 1170.28 2341.58 1170.27 2342.96 C 1170.21 2361.33 1201.69 2623.1 1205.73 2637.8 C 1206.03 2638.89 1207.02 2639.64 1208.14 2639.64 L 1458.79 2639.64 C 1459.92 2639.64 1460.91 2638.88 1461.21 2637.79 C 1465.93 2620.41 1483.99 2357.23 1483.9 2342.95 C 1483.89 2341.58 1482.78 2340.47 1481.4 2340.47"/>
    <path id="path4268" style="fill:#d33200;fill-opacity:1;fill-rule:nonzero;stroke:none" d="M 1458.79 2637.14 L 1208.14 2637.14 C 1207.64 2635.3 1206.76 2630.02 1205.62 2622.29 C 1233.07 2600.49 1267.73 2587.38 1305.51 2587.38 L 1380.6 2587.38 C 1410.38 2587.38 1438.17 2595.62 1462.09 2609.72 C 1460.68 2624.4 1459.53 2634.44 1458.79 2637.14"/>
    <path id="path4270" style="fill:#f2f1e7;fill-opacity:1;fill-rule:nonzero;stroke:none" d="M 1185.68 2645.32 L 1185.68 2441.12 L 1227.5 2411.75 L 1269.33 2441.12 L 1269.33 2645.32 L 1185.68 2645.32"/>
    <path id="path4272" style="fill:#000000;fill-opacity:1;fill-rule:nonzero;stroke:none" d="M 1188.18 2442.42 L 1227.5 2414.8 L 1266.83 2442.42 L 1266.83 2642.82 L 1188.18 2642.82 L 1188.18 2442.42 Z M 1227.5 2409.25 C 1227 2409.25 1226.5 2409.4 1226.07 2409.7 L 1184.25 2439.08 C 1183.58 2439.54 1183.18 2440.31 1183.18 2441.12 L 1183.18 2645.32 C 1183.18 2646.7 1184.3 2647.82 1185.68 2647.82 L 1269.33 2647.82 C 1270.71 2647.82 1271.83 2646.7 1271.83 2645.32 L 1271.83 2441.12 C 1271.83 2440.31 1271.44 2439.54 1270.77 2439.08 L 1228.94 2409.7 C 1228.51 2409.4 1228.01 2409.25 1227.5 2409.25"/>
    <path id="path4274" style="fill:#ffde73;fill-opacity:1;fill-rule:nonzero;stroke:none" d="M 1251.88 2450.18 L 1251.88 2627.9 L 1203.12 2627.9 L 1203.12 2450.18 L 1227.5 2433.06 L 1251.88 2450.18"/>
    <path id="path4276" style="fill:#000000;fill-opacity:1;fill-rule:nonzero;stroke:none" d="M 1205.62 2451.48 L 1227.5 2436.11 L 1249.38 2451.48 L 1249.38 2625.4 L 1205.62 2625.4 L 1205.62 2451.48 Z M 1227.5 2430.56 C 1227 2430.56 1226.5 2430.71 1226.07 2431.01 L 1201.68 2448.14 C 1201.02 2448.61 1200.62 2449.37 1200.62 2450.18 L 1200.62 2627.9 C 1200.62 2629.28 1201.74 2630.4 1203.12 2630.4 L 1251.88 2630.4 C 1253.26 2630.4 1254.38 2629.28 1254.38 2627.9 L 1254.38 2450.18 C 1254.38 2449.37 1253.98 2448.61 1253.32 2448.14 L 1228.94 2431.01 C 1228.51 2430.71 1228.01 2430.56 1227.5 2430.56"/>
    <path id="path4278" style="fill:#f2f1e7;fill-opacity:1;fill-rule:nonzero;stroke:none" d="M 1394.96 2645.32 L 1394.96 2441.12 L 1436.8 2411.75 L 1478.62 2441.12 L 1478.62 2645.32 L 1394.96 2645.32"/>
    <path id="path4280" style="fill:#000000;fill-opacity:1;fill-rule:nonzero;stroke:none" d="M 1397.46 2442.42 L 1436.8 2414.8 L 1476.12 2442.42 L 1476.12 2642.82 L 1397.46 2642.82 L 1397.46 2442.42 Z M 1436.8 2409.25 C 1436.29 2409.25 1435.79 2409.4 1435.36 2409.7 L 1393.53 2439.08 C 1392.86 2439.54 1392.46 2440.31 1392.46 2441.12 L 1392.46 2645.32 C 1392.46 2646.7 1393.58 2647.82 1394.96 2647.82 L 1478.62 2647.82 C 1480 2647.82 1481.12 2646.7 1481.12 2645.32 L 1481.12 2441.12 C 1481.12 2440.31 1480.72 2439.54 1480.05 2439.08 L 1438.23 2409.7 C 1437.8 2409.4 1437.3 2409.25 1436.8 2409.25"/>
    <path id="path4282" style="fill:#ffde73;fill-opacity:1;fill-rule:nonzero;stroke:none" d="M 1461.17 2450.18 L 1461.17 2627.9 L 1412.41 2627.9 L 1412.41 2450.18 L 1436.8 2433.06 L 1461.17 2450.18"/>
    <path id="path4284" style="fill:#000000;fill-opacity:1;fill-rule:nonzero;stroke:none" d="M 1414.91 2451.48 L 1436.8 2436.11 L 1458.67 2451.48 L 1458.67 2625.4 L 1414.91 2625.4 L 1414.91 2451.48 Z M 1436.8 2430.56 C 1436.29 2430.56 1435.79 2430.71 1435.36 2431.01 L 1410.97 2448.14 C 1410.3 2448.61 1409.91 2449.37 1409.91 2450.18 L 1409.91 2627.9 C 1409.91 2629.28 1411.03 2630.4 1412.41 2630.4 L 1461.17 2630.4 C 1462.55 2630.4 1463.67 2629.28 1463.67 2627.9 L 1463.67 2450.18 C 1463.67 2449.37 1463.28 2448.61 1462.61 2448.14 L 1438.23 2431.01 C 1437.8 2430.71 1437.3 2430.56 1436.8 2430.56"/>
    <path id="path4286" style="fill:#f4d9bd;fill-opacity:1;fill-rule:nonzero;stroke:none" d="M 1541.41 2778.18 C 1541.41 2689.36 1469.42 2617.38 1380.6 2617.38 L 1305.51 2617.38 C 1216.68 2617.38 1144.68 2689.36 1144.68 2778.18 L 1144.68 2778.18 C 1144.68 2866.99 1216.68 2939 1305.51 2939 L 1380.6 2939 C 1469.42 2939 1541.41 2866.99 1541.41 2778.18 L 1541.41 2778.18"/>
    <path id="path4288" style="fill:#000000;fill-opacity:1;fill-rule:nonzero;stroke:none" d="M 1305.51 2936.5 C 1218.21 2936.5 1147.18 2865.48 1147.18 2778.18 C 1147.18 2690.9 1218.21 2619.88 1305.51 2619.88 L 1380.6 2619.88 C 1467.9 2619.88 1538.91 2690.9 1538.91 2778.18 C 1538.91 2865.48 1467.9 2936.5 1380.6 2936.5 L 1305.51 2936.5 Z M 1380.6 2614.88 L 1305.51 2614.88 C 1215.45 2614.88 1142.18 2688.14 1142.18 2778.18 C 1142.18 2868.24 1215.45 2941.5 1305.51 2941.5 L 1380.6 2941.5 C 1470.65 2941.5 1543.91 2868.24 1543.91 2778.18 C 1543.91 2688.14 1470.65 2614.88 1380.6 2614.88"/>
    <path id="path4290" style="fill:#ffde73;fill-opacity:1;fill-rule:nonzero;stroke:none" d="M 1341.77 2835.94 C 1397.65 2835.94 1446.82 2864.45 1475.64 2907.69 C 1448.99 2927.29 1416.21 2939 1380.6 2939 L 1305.51 2939 C 1237.09 2939 1178.78 2896.18 1155.56 2835.94 L 1341.77 2835.94"/>
    <path id="path4292" style="fill:#000000;fill-opacity:1;fill-rule:nonzero;stroke:none" d="M 1159.25 2838.44 L 1341.77 2838.44 C 1394.01 2838.44 1442.59 2864.05 1472.21 2907.09 C 1445.22 2926.34 1413.6 2936.5 1380.6 2936.5 L 1305.51 2936.5 C 1241.83 2936.5 1183.52 2897.24 1159.25 2838.44 Z M 1341.77 2833.44 L 1155.56 2833.44 C 1154.73 2833.44 1153.96 2833.84 1153.5 2834.52 C 1153.03 2835.2 1152.93 2836.07 1153.22 2836.83 C 1177.36 2899.44 1238.56 2941.5 1305.51 2941.5 L 1380.6 2941.5 C 1415.47 2941.5 1448.84 2930.51 1477.12 2909.71 C 1478.2 2908.91 1478.46 2907.42 1477.72 2906.31 C 1447.31 2860.68 1396.49 2833.44 1341.77 2833.44"/>
    <path id="path4294" style="fill:#f15a24;fill-opacity:1;fill-rule:nonzero;stroke:none" d="M 1181.59 2880.31 L 1315.14 2880.31 C 1361.11 2880.31 1402.5 2899.66 1431.81 2930.57 C 1415.74 2936.02 1398.53 2939 1380.6 2939 L 1305.51 2939 C 1255.53 2939 1211.04 2916.1 1181.59 2880.31"/>
    <path id="path4296" style="fill:#000000;fill-opacity:1;fill-rule:nonzero;stroke:none" d="M 1187 2882.81 L 1315.14 2882.81 C 1357.64 2882.81 1397.28 2899.34 1427.22 2929.44 C 1412.14 2934.13 1396.48 2936.5 1380.6 2936.5 L 1305.51 2936.5 C 1259.98 2936.5 1217.09 2917 1187 2882.81 Z M 1315.14 2877.81 L 1181.59 2877.81 C 1180.63 2877.81 1179.75 2878.37 1179.33 2879.24 C 1178.92 2880.12 1179.05 2881.15 1179.66 2881.9 C 1210.83 2919.78 1256.69 2941.5 1305.51 2941.5 L 1380.6 2941.5 C 1398.36 2941.5 1415.86 2938.62 1432.61 2932.94 C 1433.42 2932.67 1434.03 2932 1434.23 2931.18 C 1434.44 2930.35 1434.21 2929.48 1433.62 2928.86 C 1402.43 2895.94 1360.35 2877.81 1315.14 2877.81"/>
    <path id="path4298" style="fill:#2a5b6a;fill-opacity:1;fill-rule:nonzero;stroke:none" d="M 1278.31 2785.65 C 1263.8 2785.65 1252.1 2773.91 1252.1 2759.42 L 1304.34 2759.42 C 1304.34 2773.91 1292.69 2785.65 1278.31 2785.65"/>
    <path id="path4300" style="fill:#000000;fill-opacity:1;fill-rule:nonzero;stroke:none" d="M 1254.74 2761.92 L 1301.71 2761.92 C 1300.47 2773.84 1290.45 2783.15 1278.31 2783.15 C 1266.08 2783.15 1255.99 2773.84 1254.74 2761.92 Z M 1304.34 2756.92 L 1252.1 2756.92 C 1250.72 2756.92 1249.6 2758.04 1249.6 2759.42 C 1249.6 2775.26 1262.48 2788.15 1278.31 2788.15 C 1294.04 2788.15 1306.84 2775.26 1306.84 2759.42 C 1306.84 2758.04 1305.72 2756.92 1304.34 2756.92"/>
    <path id="path4302" style="fill:#2a5b6a;fill-opacity:1;fill-rule:nonzero;stroke:none" d="M 1489.25 2785.65 C 1474.74 2785.65 1463.08 2773.91 1463.08 2759.42 L 1515.31 2759.42 C 1515.31 2773.91 1503.61 2785.65 1489.25 2785.65"/>
    <path id="path4304" style="fill:#000000;fill-opacity:1;fill-rule:nonzero;stroke:none" d="M 1465.71 2761.92 L 1512.68 2761.92 C 1511.44 2773.84 1501.4 2783.15 1489.25 2783.15 C 1477.04 2783.15 1466.96 2773.84 1465.71 2761.92 Z M 1515.31 2756.92 L 1463.08 2756.92 C 1461.69 2756.92 1460.58 2758.04 1460.58 2759.42 C 1460.58 2775.26 1473.44 2788.15 1489.25 2788.15 C 1505 2788.15 1517.81 2775.26 1517.81 2759.42 C 1517.81 2758.04 1516.69 2756.92 1515.31 2756.92"/>
    <path id="path4306" style="fill:#f2f1e7;fill-opacity:1;fill-rule:nonzero;stroke:none" d="M 1329.91 2805.11 L 1226.57 2790.67 L 1226.57 2819.41 L 1329.91 2851.82 L 1329.91 2805.11"/>
    <path id="path4308" style="fill:#000000;fill-opacity:1;fill-rule:nonzero;stroke:none" d="M 1229.07 2817.58 L 1229.07 2793.54 L 1327.41 2807.28 L 1327.41 2848.42 L 1229.07 2817.58 Z M 1226.57 2788.17 C 1225.97 2788.17 1225.39 2788.39 1224.93 2788.79 C 1224.38 2789.26 1224.07 2789.95 1224.07 2790.67 L 1224.07 2819.41 C 1224.07 2820.51 1224.78 2821.47 1225.83 2821.8 L 1329.16 2854.21 C 1329.92 2854.44 1330.75 2854.31 1331.39 2853.84 C 1332.03 2853.37 1332.41 2852.62 1332.41 2851.82 L 1332.41 2805.11 C 1332.41 2803.86 1331.49 2802.8 1330.25 2802.63 L 1226.92 2788.2 C 1226.8 2788.18 1226.69 2788.17 1226.57 2788.17"/>
    <path id="path4310" style="fill:#f2f1e7;fill-opacity:1;fill-rule:nonzero;stroke:none" d="M 1447.49 2805.09 L 1530.91 2790.67 L 1530.91 2819.49 L 1447.49 2851.81 L 1447.49 2805.09"/>
    <path id="path4312" style="fill:#000000;fill-opacity:1;fill-rule:nonzero;stroke:none" d="M 1449.99 2807.19 L 1528.41 2793.64 L 1528.41 2817.78 L 1449.99 2848.16 L 1449.99 2807.19 Z M 1530.91 2788.17 C 1530.77 2788.17 1530.63 2788.18 1530.48 2788.21 L 1447.06 2802.62 C 1445.86 2802.83 1444.99 2803.87 1444.99 2805.09 L 1444.99 2851.81 C 1444.99 2852.63 1445.39 2853.4 1446.07 2853.87 C 1446.75 2854.33 1447.62 2854.45 1448.39 2854.13 L 1531.81 2821.82 C 1532.77 2821.45 1533.41 2820.52 1533.41 2819.49 L 1533.41 2790.67 C 1533.41 2789.93 1533.08 2789.24 1532.52 2788.76 C 1532.07 2788.38 1531.49 2788.17 1530.91 2788.17"/>
    <path id="path4314" style="fill:#f2f1e7;fill-opacity:1;fill-rule:nonzero;stroke:none" d="M 1446.28 2667.75 C 1446.28 2583.54 1461.92 2540.26 1461.92 2540.26 C 1444.93 2549.62 1437.6 2571.5 1437.6 2571.5 C 1433 2550.38 1444.12 2521.31 1444.12 2521.31 C 1422.83 2521.31 1396.53 2569.79 1396.53 2569.79 L 1395.99 2544.31 C 1332.05 2599.12 1345.68 2617.32 1345.68 2667.75 C 1345.68 2720.25 1446.28 2725.14 1446.28 2667.75"/>
    <path id="path4316" style="fill:#000000;fill-opacity:1;fill-rule:nonzero;stroke:none" d="M 1396.53 2572.29 C 1397.43 2572.29 1398.28 2571.81 1398.73 2570.98 C 1405.32 2558.84 1424.69 2528.76 1440.41 2524.35 C 1437.51 2533.15 1431.42 2554.87 1435.16 2572.03 C 1435.4 2573.13 1436.34 2573.93 1437.47 2574 C 1438.58 2574.01 1439.62 2573.36 1439.97 2572.3 C 1440.03 2572.11 1445.5 2556.2 1457.46 2546.33 C 1453.16 2561.79 1443.78 2602.93 1443.78 2667.75 C 1443.78 2694.51 1420.62 2706.48 1397.66 2706.48 C 1373.07 2706.48 1348.18 2693.18 1348.18 2667.75 C 1348.18 2659.59 1347.82 2652.12 1347.5 2645.53 C 1345.86 2611.55 1344.93 2592.43 1393.6 2549.7 L 1394.03 2569.85 C 1394.05 2570.98 1394.84 2571.96 1395.94 2572.22 C 1396.14 2572.27 1396.33 2572.29 1396.53 2572.29 Z M 1444.12 2518.81 C 1426.86 2518.81 1407.46 2546.86 1398.84 2560.88 L 1398.49 2544.26 C 1398.47 2543.29 1397.9 2542.43 1397.01 2542.03 C 1396.13 2541.64 1395.09 2541.79 1394.37 2542.42 C 1339.77 2589.21 1340.8 2610.5 1342.51 2645.77 C 1342.84 2652.63 1343.18 2659.71 1343.18 2667.75 C 1343.18 2696.16 1371.25 2711.48 1397.66 2711.48 C 1423.1 2711.48 1448.78 2697.96 1448.78 2667.75 C 1448.78 2585.06 1464.12 2541.54 1464.27 2541.11 C 1464.62 2540.13 1464.33 2539.04 1463.54 2538.36 C 1462.75 2537.68 1461.61 2537.57 1460.71 2538.07 C 1449.91 2544.02 1442.9 2554.57 1439.02 2562.07 C 1438.46 2543.41 1446.36 2522.44 1446.46 2522.2 C 1446.75 2521.43 1446.65 2520.56 1446.18 2519.89 C 1445.71 2519.21 1444.94 2518.81 1444.12 2518.81"/>
    <path id="path4318" style="fill:#ffa364;fill-opacity:1;fill-rule:nonzero;stroke:none" d="M 1420.7 2728.52 L 1420.98 2729.7 C 1420.98 2746.88 1407.08 2760.78 1389.9 2760.78 L 1389.9 2738.41 C 1378.9 2738.41 1369.98 2729.49 1369.98 2718.49 C 1369.98 2707.5 1378.9 2698.59 1389.9 2698.59 L 1413.53 2698.59 C 1422.29 2698.59 1429.39 2705.69 1429.39 2714.45 C 1429.39 2720.6 1425.84 2725.9 1420.7 2728.52"/>
    <path id="path4320" style="fill:#000000;fill-opacity:1;fill-rule:nonzero;stroke:none" d="M 1392.4 2758.18 L 1392.4 2738.41 C 1392.4 2737.02 1391.28 2735.91 1389.9 2735.91 C 1380.29 2735.91 1372.48 2728.09 1372.48 2718.49 C 1372.48 2708.89 1380.29 2701.09 1389.9 2701.09 L 1413.53 2701.09 C 1420.9 2701.09 1426.89 2707.08 1426.89 2714.45 C 1426.89 2719.45 1424.09 2723.98 1419.57 2726.29 C 1418.54 2726.81 1418.01 2727.97 1418.27 2729.09 L 1418.55 2730.27 C 1418.49 2744.65 1406.99 2756.91 1392.4 2758.18 Z M 1413.53 2696.09 L 1389.9 2696.09 C 1377.54 2696.09 1367.48 2706.14 1367.48 2718.49 C 1367.48 2730 1376.21 2739.52 1387.4 2740.77 L 1387.4 2760.78 C 1387.4 2762.17 1388.52 2763.28 1389.9 2763.28 C 1408.38 2763.28 1423.43 2748.27 1423.48 2729.8 C 1428.72 2726.43 1431.89 2720.71 1431.89 2714.45 C 1431.89 2704.32 1423.66 2696.09 1413.53 2696.09"/>
    <path id="path4322" style="fill:#f4d9bd;fill-opacity:1;fill-rule:nonzero;stroke:none" d="M 1421.47 2713.91 C 1421.47 2709.1 1417.55 2705.17 1412.72 2705.17 C 1407.89 2705.17 1403.98 2709.1 1403.98 2713.91 C 1403.98 2718.75 1407.89 2722.66 1412.72 2722.66 C 1417.55 2722.66 1421.47 2718.75 1421.47 2713.91"/>
    <path id="path4324" style="fill:#f4d9bd;fill-opacity:1;fill-rule:nonzero;stroke:none" d="M 1107.75 2768.19 C 1107.75 2739.86 1130.7 2716.91 1159 2716.91 L 1159 2819.45 C 1130.7 2819.45 1107.75 2796.51 1107.75 2768.19"/>
    <path id="path4326" style="fill:#000000;fill-opacity:1;fill-rule:nonzero;stroke:none" d="M 1159 2714.41 C 1129.37 2714.41 1105.25 2738.54 1105.25 2768.19 C 1105.25 2797.84 1129.37 2821.95 1159 2821.95 C 1160.38 2821.95 1161.5 2820.83 1161.5 2819.45 C 1161.5 2818.07 1160.38 2816.95 1159 2816.95 C 1132.12 2816.95 1110.25 2795.08 1110.25 2768.19 C 1110.25 2741.3 1132.12 2719.41 1159 2719.41 C 1160.38 2719.41 1161.5 2718.29 1161.5 2716.91 C 1161.5 2715.53 1160.38 2714.41 1159 2714.41"/>
    <path id="path4328" style="fill:#ffac83;fill-opacity:1;fill-rule:nonzero;stroke:none" d="M 1129.69 2768.19 C 1129.69 2752.01 1142.81 2738.89 1159 2738.89 L 1159 2797.48 C 1142.81 2797.48 1129.69 2784.36 1129.69 2768.19"/>
    <path id="path4330" style="fill:#000000;fill-opacity:1;fill-rule:nonzero;stroke:none" d="M 1156.5 2794.86 C 1142.88 2793.6 1132.19 2782.12 1132.19 2768.19 C 1132.19 2754.25 1142.88 2742.77 1156.5 2741.5 L 1156.5 2794.86 Z M 1159 2736.39 C 1141.46 2736.39 1127.19 2750.65 1127.19 2768.19 C 1127.19 2785.72 1141.46 2799.98 1159 2799.98 C 1160.38 2799.98 1161.5 2798.86 1161.5 2797.48 L 1161.5 2738.89 C 1161.5 2737.5 1160.38 2736.39 1159 2736.39"/>
    <path id="path4332" style="fill:#b39471;fill-opacity:1;fill-rule:nonzero;stroke:none" d="M 1658.71 2922.45 C 1649.01 2910.52 1639.97 2897.44 1632.79 2883.18 C 1625.61 2897.44 1616.57 2910.52 1606.88 2922.45 C 1590.44 2942.64 1567.16 2954.48 1557.69 2951.46 C 1548.24 2948.44 1567.51 2924.4 1591.57 2890.24 C 1606.17 2869.54 1616.96 2846 1616.96 2820.25 L 1616.96 2342.97 L 1648.61 2342.97 L 1648.61 2820.25 C 1648.61 2846 1659.41 2869.54 1674 2890.24 C 1698.07 2924.4 1717.34 2948.44 1707.9 2951.46 C 1698.44 2954.48 1675.14 2942.64 1658.71 2922.45"/>
    <path id="path4334" style="fill:#000000;fill-opacity:1;fill-rule:nonzero;stroke:none" d="M 1619.46 2345.47 L 1646.11 2345.47 L 1646.11 2820.25 C 1646.11 2843.64 1654.57 2867 1671.96 2891.68 C 1675.61 2896.86 1679.16 2901.81 1682.5 2906.5 C 1696.28 2925.76 1709.3 2943.95 1707.76 2948.6 C 1707.71 2948.74 1707.65 2948.91 1707.13 2949.08 C 1706.41 2949.31 1705.53 2949.43 1704.52 2949.43 C 1694.6 2949.43 1675.01 2938.51 1660.65 2920.87 C 1649.9 2907.65 1641.52 2894.95 1635.02 2882.06 C 1634.59 2881.21 1633.73 2880.68 1632.79 2880.68 L 1632.79 2880.68 C 1631.85 2880.68 1630.98 2881.21 1630.56 2882.06 C 1624.07 2894.94 1615.69 2907.64 1604.94 2920.87 C 1590.57 2938.51 1570.98 2949.43 1561.06 2949.43 C 1560.05 2949.43 1559.17 2949.31 1558.45 2949.08 C 1557.93 2948.91 1557.87 2948.74 1557.83 2948.6 C 1556.28 2943.95 1569.3 2925.77 1583.07 2906.51 C 1586.42 2901.82 1589.96 2896.87 1593.62 2891.68 C 1611.01 2867.01 1619.46 2843.65 1619.46 2820.25 L 1619.46 2345.47 Z M 1648.61 2340.47 L 1616.96 2340.47 C 1615.58 2340.47 1614.46 2341.59 1614.46 2342.97 L 1614.46 2820.25 C 1614.46 2842.58 1606.31 2865 1589.53 2888.8 C 1585.88 2893.98 1582.34 2898.92 1579 2903.6 C 1559.92 2930.28 1550.84 2943.41 1553.08 2950.17 C 1553.49 2951.41 1554.5 2953.06 1556.93 2953.85 C 1558.15 2954.23 1559.54 2954.43 1561.06 2954.43 C 1572.37 2954.43 1593.32 2943.06 1608.81 2924.03 C 1618.61 2911.98 1626.48 2900.34 1632.79 2888.6 C 1639.1 2900.35 1646.98 2911.99 1656.77 2924.03 C 1672.26 2943.06 1693.21 2954.43 1704.52 2954.43 C 1706.05 2954.43 1707.44 2954.23 1708.66 2953.85 C 1711.09 2953.06 1712.09 2951.41 1712.5 2950.17 C 1714.74 2943.41 1705.66 2930.28 1686.57 2903.59 C 1683.23 2898.91 1679.69 2893.98 1676.05 2888.8 C 1659.27 2864.99 1651.11 2842.57 1651.11 2820.25 L 1651.11 2342.97 C 1651.11 2341.59 1650 2340.47 1648.61 2340.47"/>
    <path id="path4336" style="fill:#ffde73;fill-opacity:1;fill-rule:nonzero;stroke:none" d="M 1567.33 2991.35 C 1567.33 2955.19 1596.64 2925.88 1632.79 2925.88 C 1668.95 2925.88 1698.25 2955.19 1698.25 2991.35 C 1698.25 3027.5 1668.95 3056.8 1632.79 3056.8 C 1596.64 3056.8 1567.33 3027.5 1567.33 2991.35"/>
    <path id="path4338" style="fill:#000000;fill-opacity:1;fill-rule:nonzero;stroke:none" d="M 1632.79 3054.3 C 1598.08 3054.3 1569.83 3026.06 1569.83 2991.35 C 1569.83 2956.62 1598.08 2928.38 1632.79 2928.38 C 1667.5 2928.38 1695.75 2956.62 1695.75 2991.35 C 1695.75 3026.06 1667.5 3054.3 1632.79 3054.3 Z M 1632.79 2923.38 C 1595.32 2923.38 1564.83 2953.87 1564.83 2991.35 C 1564.83 3028.81 1595.32 3059.3 1632.79 3059.3 C 1670.26 3059.3 1700.75 3028.81 1700.75 2991.35 C 1700.75 2953.87 1670.26 2923.38 1632.79 2923.38"/>
    <path id="path4340" style="fill:#e0b846;fill-opacity:1;fill-rule:nonzero;stroke:none" d="M 1583.89 3034.74 C 1583 3029.99 1582.48 3025.09 1582.48 3020.07 C 1582.48 2976.39 1617.87 2941.01 1661.51 2941.01 C 1666.54 2941.01 1671.44 2941.55 1676.2 2942.42 C 1664.63 2932.17 1649.47 2925.88 1632.79 2925.88 C 1596.64 2925.88 1567.33 2955.19 1567.33 2991.35 C 1567.33 3008.01 1573.62 3023.19 1583.89 3034.74"/>
    <path id="path4342" style="fill:#000000;fill-opacity:1;fill-rule:nonzero;stroke:none" d="M 1632.79 3054.3 C 1598.08 3054.3 1569.83 3026.06 1569.83 2991.35 C 1569.83 2956.62 1598.08 2928.38 1632.79 2928.38 C 1667.5 2928.38 1695.75 2956.62 1695.75 2991.35 C 1695.75 3026.06 1667.5 3054.3 1632.79 3054.3 Z M 1632.79 2923.38 C 1595.32 2923.38 1564.83 2953.87 1564.83 2991.35 C 1564.83 3028.81 1595.32 3059.3 1632.79 3059.3 C 1670.26 3059.3 1700.75 3028.81 1700.75 2991.35 C 1700.75 2953.87 1670.26 2923.38 1632.79 2923.38"/>
    <path id="path4344" style="fill:#f2f1e7;fill-opacity:1;fill-rule:nonzero;stroke:none" d="M 1640.14 3017.96 C 1640.14 3006.32 1649.57 2996.88 1661.22 2996.88 C 1672.86 2996.88 1682.3 3006.32 1682.3 3017.96 C 1682.3 3029.6 1672.86 3039.05 1661.22 3039.05 C 1649.57 3039.05 1640.14 3029.6 1640.14 3017.96"/>
    <path id="path4346" style="fill:#000000;fill-opacity:1;fill-rule:nonzero;stroke:none" d="M 1661.22 3036.55 C 1650.97 3036.55 1642.64 3028.21 1642.64 3017.96 C 1642.64 3007.71 1650.97 2999.38 1661.22 2999.38 C 1671.46 2999.38 1679.8 3007.71 1679.8 3017.96 C 1679.8 3028.21 1671.46 3036.55 1661.22 3036.55 Z M 1661.22 2994.38 C 1648.22 2994.38 1637.64 3004.96 1637.64 3017.96 C 1637.64 3030.97 1648.22 3041.55 1661.22 3041.55 C 1674.22 3041.55 1684.8 3030.97 1684.8 3017.96 C 1684.8 3004.96 1674.22 2994.38 1661.22 2994.38"/>
  </g>
</svg>