<?xml version="1.0" encoding="utf-8"?>
<svg viewBox="552.3909912109375 12.729999542236328 79.30899810791016 80.43099975585938" width="79.30899810791016" height="80.43099975585938" xmlns="http://www.w3.org/2000/svg">
  <g transform="matrix(0.12500000186264515, 0, 0, -0.12500000186264515, 0, 526.1375122070312)">
    <path id="path48" style="fill:#ddd8bf;fill-opacity:1;fill-rule:nonzero;stroke:none" d="M 4948.34 3490.96 C 4948.34 3475.97 4837.03 3463.81 4699.74 3463.81 C 4562.43 3463.81 4451.12 3475.97 4451.12 3490.96 C 4451.12 3505.95 4562.43 3518.11 4699.74 3518.11 C 4837.03 3518.11 4948.34 3505.95 4948.34 3490.96"/>
    <path id="path3772" style="fill:#41996b;fill-opacity:1;fill-rule:nonzero;stroke:none" d="M 4817.08 3747.68 L 4903.697 3747.68 L 4903.697 3783.735 L 4817.08 3783.735 L 4817.08 3747.68 Z"/>
    <path id="path3774" style="fill:#000000;fill-opacity:1;fill-rule:nonzero;stroke:none" d="M 4819.58 3750.18 L 4901.2 3750.18 L 4901.2 3781.23 L 4819.58 3781.23 L 4819.58 3750.18 Z M 4903.7 3745.18 L 4817.08 3745.18 C 4815.7 3745.18 4814.58 3746.3 4814.58 3747.68 L 4814.58 3783.73 C 4814.58 3785.12 4815.7 3786.23 4817.08 3786.23 L 4903.7 3786.23 C 4905.08 3786.23 4906.2 3785.12 4906.2 3783.73 L 4906.2 3747.68 C 4906.2 3746.3 4905.08 3745.18 4903.7 3745.18"/>
    <path id="path3776" style="fill:#41996b;fill-opacity:1;fill-rule:nonzero;stroke:none" d="M 4980.29 3709.23 C 4992.7 3709.2 5002.71 3719.27 5002.76 3731.64 L 5002.76 3761.34 C 5002.76 3773.7 4992.71 3783.76 4980.3 3783.73 L 4950.64 3783.73 C 4938.25 3783.73 4928.19 3773.69 4928.21 3761.34 L 4928.21 3731.64 C 4928.17 3719.27 4938.27 3709.23 4950.67 3709.23 L 4980.29 3709.23"/>
    <path id="path3778" style="fill:#000000;fill-opacity:1;fill-rule:nonzero;stroke:none" d="M 4980.36 3781.23 L 4950.64 3781.23 C 4945.3 3781.23 4940.29 3779.15 4936.52 3775.38 C 4932.76 3771.62 4930.7 3766.63 4930.71 3761.34 L 4930.71 3731.64 C 4930.69 3726.35 4932.75 3721.37 4936.5 3717.61 C 4940.28 3713.82 4945.31 3711.73 4950.67 3711.73 L 4980.34 3711.73 C 4991.28 3711.73 5000.22 3720.67 5000.26 3731.65 L 5000.26 3761.34 C 5000.26 3772.31 4991.34 3781.23 4980.36 3781.23 Z M 4980.34 3706.73 L 4980.34 3706.73 C 4980.33 3706.73 4980.29 3706.73 4980.28 3706.73 L 4950.67 3706.73 C 4943.97 3706.73 4937.69 3709.34 4932.96 3714.08 C 4928.26 3718.79 4925.69 3725.03 4925.71 3731.65 L 4925.71 3761.34 C 4925.7 3767.96 4928.28 3774.21 4932.98 3778.91 C 4937.7 3783.63 4943.96 3786.23 4950.64 3786.23 L 4980.3 3786.23 C 4994.09 3786.23 5005.26 3775.07 5005.26 3761.34 L 5005.26 3731.64 C 5005.21 3717.9 4994.03 3706.73 4980.34 3706.73"/>
    <path id="path3780" style="fill:#59b587;fill-opacity:1;fill-rule:nonzero;stroke:none" d="M 4943.19 3740.78 C 4951.46 3740.78 4958.15 3747.47 4958.13 3755.73 L 4958.15 3768.79 C 4958.13 3777.05 4951.45 3783.76 4943.19 3783.73 L 4943.19 3783.73 C 4934.92 3783.76 4928.19 3777.05 4928.19 3768.79 L 4928.17 3755.75 C 4928.19 3747.47 4934.9 3740.78 4943.19 3740.78 L 4943.19 3740.78"/>
    <path id="path3782" style="fill:#000000;fill-opacity:1;fill-rule:nonzero;stroke:none" d="M 4943.25 3781.23 C 4936.28 3781.23 4930.69 3775.65 4930.69 3768.79 L 4930.67 3755.74 C 4930.69 3748.88 4936.31 3743.28 4943.19 3743.28 C 4946.53 3743.28 4949.66 3744.58 4952.01 3746.94 C 4954.36 3749.29 4955.63 3752.41 4955.63 3755.71 L 4955.65 3768.79 C 4955.63 3775.65 4950.07 3781.23 4943.25 3781.23 Z M 4943.19 3738.28 C 4933.55 3738.28 4925.69 3746.11 4925.67 3755.74 L 4925.69 3768.79 C 4925.69 3778.41 4933.52 3786.23 4943.13 3786.23 C 4952.81 3786.23 4960.63 3778.41 4960.65 3768.8 L 4960.63 3755.72 C 4960.64 3751.08 4958.84 3746.71 4955.56 3743.41 C 4952.26 3740.1 4947.87 3738.28 4943.19 3738.28"/>
    <path id="path3784" style="fill:#c63800;fill-opacity:1;fill-rule:nonzero;stroke:none" d="M 4882.91 3783.73 L 4871.75 3756.52 L 4860.59 3783.73 L 4796.85 3783.73 C 4782.14 3783.73 4770.22 3774.06 4770.22 3762.12 C 4770.22 3750.19 4781.5 3736.68 4795.43 3731.96 L 4943 3681.96 L 4943 3783.73 L 4882.91 3783.73"/>
    <path id="path3786" style="fill:#000000;fill-opacity:1;fill-rule:nonzero;stroke:none" d="M 4796.85 3781.23 C 4783.54 3781.23 4772.72 3772.66 4772.72 3762.12 C 4772.72 3751.19 4783.27 3738.72 4796.23 3734.34 L 4940.5 3685.45 L 4940.5 3781.23 L 4884.59 3781.23 L 4874.06 3755.57 C 4873.28 3753.7 4870.21 3753.7 4869.43 3755.57 L 4858.91 3781.23 L 4796.85 3781.23 Z M 4943 3679.46 C 4942.72 3679.46 4942.46 3679.51 4942.2 3679.6 L 4794.63 3729.6 C 4779.79 3734.62 4767.72 3749.21 4767.72 3762.12 C 4767.72 3775.42 4780.79 3786.23 4796.85 3786.23 L 4860.59 3786.23 C 4861.6 3786.23 4862.51 3785.62 4862.9 3784.68 L 4871.75 3763.11 L 4880.6 3784.68 C 4880.99 3785.62 4881.89 3786.23 4882.91 3786.23 L 4943 3786.23 C 4944.38 3786.23 4945.5 3785.12 4945.5 3783.73 L 4945.5 3681.96 C 4945.5 3681.16 4945.11 3680.4 4944.45 3679.93 C 4944.02 3679.63 4943.52 3679.46 4943 3679.46"/>
    <path id="path3788" style="fill:#41996b;fill-opacity:1;fill-rule:nonzero;stroke:none" d="M 4541.77 3783.73 C 4529.83 3783.73 4516.34 3772.45 4511.61 3758.53 L 4479.5 3610.76 L 4563.39 3610.96 L 4563.39 3757.1 C 4563.39 3771.82 4553.72 3783.73 4541.77 3783.73"/>
    <path id="path3790" style="fill:#000000;fill-opacity:1;fill-rule:nonzero;stroke:none" d="M 4541.77 3781.23 C 4530.85 3781.23 4518.38 3770.69 4513.97 3757.72 L 4482.61 3613.27 L 4560.89 3613.46 L 4560.89 3757.1 C 4560.89 3770.41 4552.31 3781.23 4541.77 3781.23 Z M 4479.5 3608.26 C 4478.75 3608.26 4478.03 3608.6 4477.56 3609.19 C 4477.08 3609.78 4476.89 3610.55 4477.06 3611.29 L 4509.17 3759.06 C 4514.37 3774.42 4528.65 3786.23 4541.77 3786.23 C 4555.07 3786.23 4565.89 3773.17 4565.89 3757.1 L 4565.89 3610.96 C 4565.89 3609.59 4564.78 3608.47 4563.4 3608.46 L 4479.51 3608.26 C 4479.5 3608.26 4479.5 3608.26 4479.5 3608.26"/>
    <path id="path3792" style="fill:#41996b;fill-opacity:1;fill-rule:nonzero;stroke:none" d="M 4479.5 3573.67 C 4479.48 3561.26 4489.56 3551.25 4501.92 3551.2 L 4531.61 3551.2 C 4543.98 3551.2 4554.05 3561.26 4554.02 3573.66 L 4554.02 3603.31 C 4554.02 3615.71 4543.97 3625.76 4531.61 3625.75 L 4501.92 3625.75 C 4489.56 3625.78 4479.5 3615.69 4479.5 3603.28 L 4479.5 3573.67"/>
    <path id="path3794" style="fill:#000000;fill-opacity:1;fill-rule:nonzero;stroke:none" d="M 4501.92 3623.25 C 4490.91 3623.25 4482 3614.29 4482 3603.28 L 4482 3573.67 C 4481.98 3562.7 4490.93 3553.74 4501.93 3553.7 L 4531.61 3553.7 C 4536.93 3553.7 4541.94 3555.79 4545.71 3559.56 C 4549.47 3563.33 4551.53 3568.33 4551.52 3573.65 L 4551.52 3603.31 C 4551.52 3614.3 4542.61 3623.25 4531.64 3623.25 L 4501.92 3623.25 Z M 4531.61 3548.7 L 4501.92 3548.7 C 4488.15 3548.75 4476.98 3559.95 4477 3573.68 L 4477 3603.28 C 4477 3617.04 4488.15 3628.25 4501.87 3628.25 L 4531.61 3628.25 C 4545.36 3628.25 4556.52 3617.06 4556.52 3603.31 L 4556.52 3573.66 C 4556.54 3567 4553.96 3560.75 4549.25 3556.03 C 4544.54 3551.31 4538.27 3548.7 4531.61 3548.7"/>
    <path id="path3796" style="fill:#59b587;fill-opacity:1;fill-rule:nonzero;stroke:none" d="M 4479.5 3610.76 C 4479.5 3602.5 4486.2 3595.82 4494.44 3595.83 L 4507.51 3595.82 C 4515.77 3595.83 4522.49 3602.52 4522.47 3610.76 L 4522.47 3610.76 C 4522.49 3619.04 4515.77 3625.76 4507.51 3625.76 L 4494.46 3625.78 C 4486.2 3625.76 4479.5 3619.05 4479.5 3610.76 L 4479.5 3610.76"/>
    <path id="path3798" style="fill:#000000;fill-opacity:1;fill-rule:nonzero;stroke:none" d="M 4494.46 3623.28 C 4487.6 3623.27 4482 3617.64 4482 3610.76 C 4482 3603.91 4487.57 3598.33 4494.41 3598.33 L 4507.51 3598.32 C 4510.84 3598.32 4513.97 3599.62 4516.33 3601.98 C 4518.68 3604.32 4519.98 3607.44 4519.97 3610.75 C 4519.98 3614.1 4518.68 3617.23 4516.33 3619.6 C 4513.97 3621.96 4510.84 3623.26 4507.51 3623.26 L 4494.46 3623.28 Z M 4507.51 3593.32 L 4507.51 3593.32 L 4494.44 3593.33 C 4484.81 3593.33 4477 3601.15 4477 3610.76 C 4477 3620.4 4484.83 3628.25 4494.45 3628.28 L 4507.51 3628.26 C 4512.18 3628.26 4516.56 3626.44 4519.86 3623.13 C 4523.17 3619.82 4524.98 3615.42 4524.97 3610.75 C 4524.98 3606.11 4523.16 3601.73 4519.86 3598.44 C 4516.56 3595.14 4512.18 3593.33 4507.51 3593.32"/>
    <path id="path3800" style="fill:#c63800;fill-opacity:1;fill-rule:nonzero;stroke:none" d="M 4541.77 3783.73 C 4529.83 3783.73 4516.34 3772.45 4511.61 3758.53 L 4487.84 3688.38 L 4512.51 3719.99 L 4529.09 3684.49 L 4546.19 3719.99 L 4563.39 3688.55 L 4563.39 3757.1 C 4563.39 3771.82 4553.72 3783.73 4541.77 3783.73"/>
    <path id="path3802" style="fill:#000000;fill-opacity:1;fill-rule:nonzero;stroke:none" d="M 4512.51 3722.49 C 4512.61 3722.49 4512.7 3722.48 4512.79 3722.47 C 4513.65 3722.38 4514.4 3721.84 4514.78 3721.05 L 4529.13 3690.33 L 4543.94 3721.07 C 4544.35 3721.92 4545.19 3722.46 4546.12 3722.49 C 4546.15 3722.49 4546.17 3722.49 4546.19 3722.49 C 4547.1 3722.49 4547.95 3721.99 4548.39 3721.19 L 4560.89 3698.33 L 4560.89 3757.1 C 4560.89 3770.41 4552.31 3781.23 4541.77 3781.23 C 4530.85 3781.23 4518.38 3770.69 4513.97 3757.72 L 4494.94 3701.54 L 4510.54 3721.53 C 4511.02 3722.14 4511.75 3722.49 4512.51 3722.49 Z M 4529.09 3681.99 C 4529.08 3681.99 4529.08 3681.99 4529.07 3681.99 C 4528.12 3682 4527.24 3682.56 4526.83 3683.43 L 4511.97 3715.23 L 4489.81 3686.84 C 4489.06 3685.88 4487.75 3685.61 4486.65 3686.18 C 4485.59 3686.76 4485.08 3688.03 4485.48 3689.18 L 4509.25 3759.33 C 4514.37 3774.42 4528.65 3786.23 4541.77 3786.23 C 4555.07 3786.23 4565.89 3773.17 4565.89 3757.1 L 4565.89 3688.55 C 4565.89 3687.41 4565.12 3686.41 4564 3686.13 C 4562.92 3685.83 4561.75 3686.34 4561.19 3687.35 L 4546.33 3714.52 L 4531.35 3683.41 C 4530.93 3682.54 4530.05 3681.99 4529.09 3681.99"/>
    <path id="path3804" style="fill:#41996b;fill-opacity:1;fill-rule:nonzero;stroke:none" d="M 4558.55 3779.67 C 4542.1 3750.67 4532.33 3715.28 4532.33 3677.02 C 4532.33 3638.74 4542.1 3603.35 4558.55 3574.33 C 4591.4 3559.79 4631.38 3551.16 4674.7 3551.16 C 4718.02 3551.16 4758.03 3559.79 4790.85 3574.33 C 4807.31 3603.35 4817.08 3638.72 4817.08 3677.02 C 4817.08 3715.28 4807.29 3750.67 4790.83 3779.69 C 4758 3794.24 4718 3802.86 4674.7 3802.86 C 4631.42 3802.86 4591.4 3794.24 4558.55 3779.67"/>
    <path id="path3806" style="fill:#000000;fill-opacity:1;fill-rule:nonzero;stroke:none" d="M 4560.32 3576.29 C 4594.07 3561.48 4633.6 3553.66 4674.7 3553.66 C 4715.82 3553.66 4755.35 3561.48 4789.08 3576.29 C 4805.76 3606 4814.58 3640.81 4814.58 3677.02 C 4814.58 3713.2 4805.76 3748.01 4789.06 3777.74 C 4755.33 3792.54 4715.8 3800.36 4674.7 3800.36 C 4633.57 3800.36 4594.04 3792.54 4560.32 3777.72 C 4543.64 3748.02 4534.83 3713.22 4534.83 3677.02 C 4534.83 3640.82 4543.64 3606 4560.32 3576.29 Z M 4674.7 3548.66 C 4632.61 3548.66 4592.09 3556.75 4557.54 3572.04 C 4557.05 3572.26 4556.64 3572.63 4556.38 3573.09 C 4539.01 3603.73 4529.83 3639.66 4529.83 3677.02 C 4529.83 3714.38 4539.01 3750.3 4556.38 3780.91 C 4556.64 3781.37 4557.05 3781.74 4557.54 3781.96 C 4592.06 3797.27 4632.58 3805.36 4674.7 3805.36 C 4716.81 3805.36 4757.31 3797.27 4791.85 3781.98 C 4792.33 3781.76 4792.74 3781.39 4793.01 3780.93 C 4810.39 3750.28 4819.58 3714.35 4819.58 3677.02 C 4819.58 3639.66 4810.4 3603.72 4793.03 3573.09 C 4792.76 3572.63 4792.35 3572.26 4791.87 3572.04 C 4757.33 3556.75 4716.82 3548.66 4674.7 3548.66"/>
    <path id="path3808" style="fill:#b39471;fill-opacity:1;fill-rule:nonzero;stroke:none" d="M 4587.47 3492.51 L 4553.77 3492.51 L 4553.77 3584.46 L 4621.18 3584.46 L 4587.47 3492.51"/>
    <path id="path3810" style="fill:#000000;fill-opacity:1;fill-rule:nonzero;stroke:none" d="M 4556.27 3495.01 L 4585.72 3495.01 L 4617.6 3581.96 L 4556.27 3581.96 L 4556.27 3495.01 Z M 4587.47 3490.01 L 4553.77 3490.01 C 4552.39 3490.01 4551.27 3491.13 4551.27 3492.51 L 4551.27 3584.46 C 4551.27 3585.84 4552.39 3586.96 4553.77 3586.96 L 4621.18 3586.96 C 4622 3586.96 4622.76 3586.55 4623.23 3585.89 C 4623.7 3585.22 4623.81 3584.36 4623.53 3583.6 L 4589.81 3491.65 C 4589.45 3490.66 4588.52 3490.01 4587.47 3490.01"/>
    <path id="path3812" style="fill:#b39471;fill-opacity:1;fill-rule:nonzero;stroke:none" d="M 4761.91 3492.51 L 4795.63 3492.51 L 4795.63 3584.46 L 4728.22 3584.46 L 4761.91 3492.51"/>
    <path id="path3814" style="fill:#000000;fill-opacity:1;fill-rule:nonzero;stroke:none" d="M 4763.66 3495.01 L 4793.13 3495.01 L 4793.13 3581.96 L 4731.8 3581.96 L 4763.66 3495.01 Z M 4795.63 3490.01 L 4761.91 3490.01 C 4760.87 3490.01 4759.93 3490.66 4759.57 3491.65 L 4725.88 3583.6 C 4725.6 3584.36 4725.7 3585.22 4726.17 3585.89 C 4726.64 3586.55 4727.4 3586.96 4728.22 3586.96 L 4795.63 3586.96 C 4797.01 3586.96 4798.13 3585.84 4798.13 3584.46 L 4798.13 3492.51 C 4798.13 3491.13 4797.01 3490.01 4795.63 3490.01"/>
    <path id="path3816" style="fill:#b39471;fill-opacity:1;fill-rule:nonzero;stroke:none" d="M 4554.09 3584.46 C 4555.53 3581.57 4556.98 3578.68 4558.55 3575.91 C 4591.4 3561.37 4631.38 3542.74 4674.7 3542.74 C 4718.02 3542.74 4758.03 3561.37 4790.85 3575.91 C 4792.43 3578.68 4793.88 3581.57 4795.33 3584.46 L 4554.09 3584.46"/>
    <path id="path3818" style="fill:#000000;fill-opacity:1;fill-rule:nonzero;stroke:none" d="M 4560.32 3577.86 L 4563.91 3576.27 C 4595.05 3562.45 4633.8 3545.24 4674.7 3545.24 C 4715.64 3545.24 4754.43 3562.47 4785.61 3576.32 L 4789.08 3577.86 C 4789.83 3579.2 4790.56 3580.57 4791.26 3581.96 L 4558.14 3581.96 C 4558.86 3580.57 4559.58 3579.2 4560.32 3577.86 Z M 4674.7 3540.24 C 4632.73 3540.24 4593.45 3557.68 4561.88 3571.7 L 4557.54 3573.63 C 4557.05 3573.84 4556.64 3574.21 4556.38 3574.68 C 4554.79 3577.48 4553.31 3580.42 4551.86 3583.34 C 4551.46 3584.12 4551.51 3585.04 4551.96 3585.77 C 4552.42 3586.51 4553.22 3586.96 4554.09 3586.96 L 4795.33 3586.96 C 4796.2 3586.96 4797 3586.51 4797.46 3585.77 C 4797.92 3585.03 4797.96 3584.11 4797.57 3583.33 C 4795.92 3580.07 4794.53 3577.32 4793.02 3574.67 C 4792.75 3574.21 4792.35 3573.84 4791.87 3573.63 L 4787.63 3571.75 C 4756.04 3557.71 4716.7 3540.24 4674.7 3540.24"/>
    <path id="path3820" style="fill:#eb4900;fill-opacity:1;fill-rule:nonzero;stroke:none" d="M 4749.28 3681.96 L 4733.15 3714.22 L 4749.28 3746.49 L 4765.41 3714.22 L 4749.28 3681.96 Z M 4629.21 3616.5 L 4617.35 3640.2 L 4629.21 3663.89 L 4641.05 3640.2 L 4629.21 3616.5 Z M 4581.46 3673.66 L 4569.62 3697.36 L 4581.46 3721.05 L 4593.31 3697.36 L 4581.46 3673.66 Z M 4817.08 3677.02 C 4817.08 3715.28 4807.29 3750.67 4790.83 3779.69 C 4758 3794.24 4718 3802.86 4674.7 3802.86 C 4631.42 3802.86 4591.4 3794.24 4558.55 3779.67 C 4542.1 3750.67 4532.33 3715.28 4532.33 3677.02 L 4532.33 3569.6 L 4547.27 3608.35 L 4547.27 3625.69 L 4563.39 3657.95 L 4579.52 3625.69 L 4579.52 3610.42 L 4603.51 3578.47 L 4639.11 3612.84 L 4674.7 3605.1 L 4710.28 3630.59 L 4729.85 3608.59 L 4741.98 3632.88 L 4754.89 3571.55 L 4781.49 3612.84 L 4817.08 3569.6 L 4817.08 3631.33 L 4807.89 3649.7 L 4817.08 3668.08 L 4817.08 3677.02"/>
    <path id="path3822" style="fill:#000000;fill-opacity:1;fill-rule:nonzero;stroke:none" d="M 4735.95 3714.22 L 4749.28 3687.56 L 4762.62 3714.22 L 4749.28 3740.9 L 4735.95 3714.22 Z M 4749.28 3679.46 L 4749.28 3679.46 C 4748.33 3679.46 4747.46 3680 4747.04 3680.85 L 4730.92 3713.11 C 4730.57 3713.81 4730.57 3714.64 4730.92 3715.34 L 4747.04 3747.61 C 4747.88 3749.3 4750.67 3749.3 4751.51 3747.61 L 4767.65 3715.34 C 4768 3714.64 4768 3713.81 4767.65 3713.11 L 4751.51 3680.85 C 4751.09 3680 4750.22 3679.46 4749.28 3679.46 Z M 4572.41 3697.36 L 4581.46 3679.26 L 4590.52 3697.36 L 4581.46 3715.46 L 4572.41 3697.36 Z M 4581.46 3671.16 C 4580.52 3671.16 4579.65 3671.7 4579.23 3672.55 L 4567.38 3696.24 C 4567.03 3696.94 4567.03 3697.77 4567.38 3698.48 L 4579.23 3722.17 C 4580.07 3723.86 4582.86 3723.86 4583.7 3722.17 L 4595.55 3698.48 C 4595.9 3697.77 4595.9 3696.94 4595.55 3696.24 L 4583.7 3672.55 C 4583.28 3671.7 4582.41 3671.16 4581.46 3671.16 Z M 4620.15 3640.2 L 4629.21 3622.09 L 4638.26 3640.2 L 4629.21 3658.3 L 4620.15 3640.2 Z M 4629.21 3614 C 4628.26 3614 4627.39 3614.53 4626.97 3615.38 L 4615.12 3639.08 C 4614.77 3639.78 4614.77 3640.61 4615.12 3641.31 L 4626.97 3665.01 C 4627.39 3665.86 4628.26 3666.39 4629.21 3666.39 L 4629.21 3666.39 C 4630.16 3666.39 4631.03 3665.86 4631.45 3665.01 L 4643.29 3641.31 C 4643.64 3640.61 4643.64 3639.78 4643.29 3639.08 L 4631.45 3615.38 C 4631.03 3614.54 4630.16 3614 4629.21 3614 Z M 4781.49 3615.34 C 4782.24 3615.34 4782.95 3615.01 4783.43 3614.43 L 4814.58 3576.58 L 4814.58 3630.73 L 4805.65 3648.58 C 4805.3 3649.29 4805.3 3650.12 4805.65 3650.82 L 4814.58 3668.67 L 4814.58 3677.02 C 4814.58 3713.2 4805.76 3748.01 4789.06 3777.74 C 4755.33 3792.54 4715.8 3800.36 4674.7 3800.36 C 4633.57 3800.36 4594.04 3792.54 4560.32 3777.72 C 4543.64 3748.02 4534.83 3713.22 4534.83 3677.02 L 4534.83 3583.04 L 4544.77 3608.81 L 4544.77 3625.69 C 4544.77 3626.07 4544.85 3626.46 4545.03 3626.8 L 4561.15 3659.07 C 4561.99 3660.75 4564.79 3660.75 4565.63 3659.07 L 4581.76 3626.8 C 4581.93 3626.46 4582.02 3626.07 4582.02 3625.69 L 4582.02 3611.26 L 4603.81 3582.23 L 4637.37 3614.64 C 4637.97 3615.21 4638.84 3615.45 4639.64 3615.28 L 4674.14 3607.78 L 4708.83 3632.62 C 4709.87 3633.37 4711.31 3633.2 4712.15 3632.25 L 4729.27 3613.01 L 4739.75 3633.99 C 4740.22 3634.95 4741.25 3635.53 4742.3 3635.36 C 4743.36 3635.22 4744.21 3634.43 4744.43 3633.39 L 4756.08 3578.03 L 4779.39 3614.19 C 4779.82 3614.87 4780.56 3615.29 4781.35 3615.34 C 4781.4 3615.34 4781.45 3615.34 4781.49 3615.34 Z M 4532.33 3567.1 C 4532.19 3567.1 4532.03 3567.12 4531.88 3567.15 C 4530.69 3567.37 4529.83 3568.4 4529.83 3569.6 L 4529.83 3677.02 C 4529.83 3714.38 4539.01 3750.3 4556.38 3780.91 C 4556.64 3781.37 4557.05 3781.74 4557.54 3781.96 C 4592.06 3797.27 4632.58 3805.36 4674.7 3805.36 C 4716.81 3805.36 4757.31 3797.27 4791.85 3781.98 C 4792.33 3781.76 4792.74 3781.39 4793.01 3780.93 C 4810.39 3750.28 4819.58 3714.35 4819.58 3677.02 L 4819.58 3668.08 C 4819.58 3667.7 4819.49 3667.31 4819.32 3666.96 L 4810.68 3649.7 L 4819.32 3632.45 C 4819.49 3632.1 4819.58 3631.72 4819.58 3631.33 L 4819.58 3569.6 C 4819.58 3568.55 4818.92 3567.61 4817.92 3567.25 C 4816.93 3566.9 4815.82 3567.2 4815.15 3568.02 L 4781.74 3608.61 L 4756.99 3570.2 C 4756.46 3569.36 4755.45 3568.88 4754.44 3569.1 C 4753.44 3569.28 4752.66 3570.05 4752.44 3571.04 L 4741.02 3625.34 L 4732.09 3607.47 C 4731.72 3606.73 4731.01 3606.22 4730.19 3606.11 C 4729.27 3606.03 4728.54 3606.31 4727.99 3606.93 L 4709.91 3627.25 L 4676.15 3603.07 C 4675.58 3602.66 4674.87 3602.5 4674.17 3602.66 L 4639.88 3610.12 L 4605.24 3576.67 C 4604.73 3576.17 4603.95 3575.91 4603.31 3575.98 C 4602.59 3576.04 4601.93 3576.39 4601.5 3576.97 L 4577.52 3608.93 C 4577.2 3609.36 4577.02 3609.88 4577.02 3610.42 L 4577.02 3625.1 L 4563.39 3652.36 L 4549.77 3625.1 L 4549.77 3608.35 C 4549.77 3608.04 4549.71 3607.74 4549.6 3607.45 L 4534.67 3568.7 C 4534.29 3567.73 4533.35 3567.1 4532.33 3567.1"/>
    <path id="path3824" style="fill:#c63800;fill-opacity:1;fill-rule:nonzero;stroke:none" d="M 4790.83 3779.69 C 4758 3794.24 4718 3802.86 4674.7 3802.86 C 4631.42 3802.86 4591.4 3794.24 4558.55 3779.67 C 4553.95 3771.55 4549.93 3762.88 4546.44 3753.84 C 4566.79 3744.53 4589.34 3739.2 4613.17 3739.2 L 4738.27 3739.2 C 4740.82 3739.2 4743.31 3739.46 4745.83 3739.58 L 4749.28 3746.49 L 4752.56 3739.93 C 4770.48 3741.5 4787.53 3746.02 4803.27 3753 C 4799.71 3762.35 4795.59 3771.31 4790.83 3779.69"/>
    <path id="path3826" style="fill:#000000;fill-opacity:1;fill-rule:nonzero;stroke:none" d="M 4735.95 3714.22 L 4749.28 3687.56 L 4762.62 3714.22 L 4749.28 3740.9 L 4735.95 3714.22 Z M 4749.28 3679.46 L 4749.28 3679.46 C 4748.33 3679.46 4747.46 3680 4747.04 3680.85 L 4730.92 3713.11 C 4730.57 3713.81 4730.57 3714.64 4730.92 3715.34 L 4747.04 3747.61 C 4747.88 3749.3 4750.67 3749.3 4751.51 3747.61 L 4767.65 3715.34 C 4768 3714.64 4768 3713.81 4767.65 3713.11 L 4751.51 3680.85 C 4751.09 3680 4750.22 3679.46 4749.28 3679.46 Z M 4572.41 3697.36 L 4581.46 3679.26 L 4590.52 3697.36 L 4581.46 3715.46 L 4572.41 3697.36 Z M 4581.46 3671.16 C 4580.52 3671.16 4579.65 3671.7 4579.23 3672.55 L 4567.38 3696.24 C 4567.03 3696.94 4567.03 3697.77 4567.38 3698.48 L 4579.23 3722.17 C 4580.07 3723.86 4582.86 3723.86 4583.7 3722.17 L 4595.55 3698.48 C 4595.9 3697.77 4595.9 3696.94 4595.55 3696.24 L 4583.7 3672.55 C 4583.28 3671.7 4582.41 3671.16 4581.46 3671.16 Z M 4620.15 3640.2 L 4629.21 3622.09 L 4638.26 3640.2 L 4629.21 3658.3 L 4620.15 3640.2 Z M 4629.21 3614 C 4628.26 3614 4627.39 3614.53 4626.97 3615.38 L 4615.12 3639.08 C 4614.77 3639.78 4614.77 3640.61 4615.12 3641.31 L 4626.97 3665.01 C 4627.39 3665.86 4628.26 3666.39 4629.21 3666.39 L 4629.21 3666.39 C 4630.16 3666.39 4631.03 3665.86 4631.45 3665.01 L 4643.29 3641.31 C 4643.64 3640.61 4643.64 3639.78 4643.29 3639.08 L 4631.45 3615.38 C 4631.03 3614.54 4630.16 3614 4629.21 3614 Z M 4781.49 3615.34 C 4782.24 3615.34 4782.95 3615.01 4783.43 3614.43 L 4814.58 3576.58 L 4814.58 3630.73 L 4805.65 3648.58 C 4805.3 3649.29 4805.3 3650.12 4805.65 3650.82 L 4814.58 3668.67 L 4814.58 3677.02 C 4814.58 3713.2 4805.76 3748.01 4789.06 3777.74 C 4755.33 3792.54 4715.8 3800.36 4674.7 3800.36 C 4633.57 3800.36 4594.04 3792.54 4560.32 3777.72 C 4543.64 3748.02 4534.83 3713.22 4534.83 3677.02 L 4534.83 3583.04 L 4544.77 3608.81 L 4544.77 3625.69 C 4544.77 3626.07 4544.85 3626.46 4545.03 3626.8 L 4561.15 3659.07 C 4561.99 3660.75 4564.79 3660.75 4565.63 3659.07 L 4581.76 3626.8 C 4581.93 3626.46 4582.02 3626.07 4582.02 3625.69 L 4582.02 3611.26 L 4603.81 3582.23 L 4637.37 3614.64 C 4637.97 3615.21 4638.84 3615.45 4639.64 3615.28 L 4674.14 3607.78 L 4708.83 3632.62 C 4709.87 3633.37 4711.31 3633.2 4712.15 3632.25 L 4729.27 3613.01 L 4739.75 3633.99 C 4740.22 3634.95 4741.25 3635.53 4742.3 3635.36 C 4743.36 3635.22 4744.21 3634.43 4744.43 3633.39 L 4756.08 3578.03 L 4779.39 3614.19 C 4779.82 3614.87 4780.56 3615.29 4781.35 3615.34 C 4781.4 3615.34 4781.45 3615.34 4781.49 3615.34 Z M 4532.33 3567.1 C 4532.19 3567.1 4532.03 3567.12 4531.88 3567.15 C 4530.69 3567.37 4529.83 3568.4 4529.83 3569.6 L 4529.83 3677.02 C 4529.83 3714.38 4539.01 3750.3 4556.38 3780.91 C 4556.64 3781.37 4557.05 3781.74 4557.54 3781.96 C 4592.06 3797.27 4632.58 3805.36 4674.7 3805.36 C 4716.81 3805.36 4757.31 3797.27 4791.85 3781.98 C 4792.33 3781.76 4792.74 3781.39 4793.01 3780.93 C 4810.39 3750.28 4819.58 3714.35 4819.58 3677.02 L 4819.58 3668.08 C 4819.58 3667.7 4819.49 3667.31 4819.32 3666.96 L 4810.68 3649.7 L 4819.32 3632.45 C 4819.49 3632.1 4819.58 3631.72 4819.58 3631.33 L 4819.58 3569.6 C 4819.58 3568.55 4818.92 3567.61 4817.92 3567.25 C 4816.93 3566.9 4815.82 3567.2 4815.15 3568.02 L 4781.74 3608.61 L 4756.99 3570.2 C 4756.46 3569.36 4755.45 3568.88 4754.44 3569.1 C 4753.44 3569.28 4752.66 3570.05 4752.44 3571.04 L 4741.02 3625.34 L 4732.09 3607.47 C 4731.72 3606.73 4731.01 3606.22 4730.19 3606.11 C 4729.27 3606.03 4728.54 3606.31 4727.99 3606.93 L 4709.91 3627.25 L 4676.15 3603.07 C 4675.58 3602.66 4674.87 3602.5 4674.17 3602.66 L 4639.88 3610.12 L 4605.24 3576.67 C 4604.73 3576.17 4603.95 3575.91 4603.31 3575.98 C 4602.59 3576.04 4601.93 3576.39 4601.5 3576.97 L 4577.52 3608.93 C 4577.2 3609.36 4577.02 3609.88 4577.02 3610.42 L 4577.02 3625.1 L 4563.39 3652.36 L 4549.77 3625.1 L 4549.77 3608.35 C 4549.77 3608.04 4549.71 3607.74 4549.6 3607.45 L 4534.67 3568.7 C 4534.29 3567.73 4533.35 3567.1 4532.33 3567.1"/>
    <path id="path3828" style="fill:#2a5b6a;fill-opacity:1;fill-rule:nonzero;stroke:none" d="M 4553.77 3523.85 L 4553.77 3492.51 L 4587.47 3492.51 L 4598.96 3523.85 L 4553.77 3523.85"/>
    <path id="path3830" style="fill:#000000;fill-opacity:1;fill-rule:nonzero;stroke:none" d="M 4556.27 3495.01 L 4585.72 3495.01 L 4595.38 3521.35 L 4556.27 3521.35 L 4556.27 3495.01 Z M 4587.47 3490.01 L 4553.77 3490.01 C 4552.39 3490.01 4551.27 3491.13 4551.27 3492.51 L 4551.27 3523.85 C 4551.27 3525.23 4552.39 3526.35 4553.77 3526.35 L 4598.96 3526.35 C 4599.79 3526.35 4600.55 3525.95 4601.02 3525.28 C 4601.48 3524.61 4601.59 3523.76 4601.31 3522.99 L 4589.81 3491.65 C 4589.45 3490.66 4588.52 3490.01 4587.47 3490.01"/>
    <path id="path3832" style="fill:#2a5b6a;fill-opacity:1;fill-rule:nonzero;stroke:none" d="M 4750.43 3523.85 L 4761.91 3492.51 L 4795.63 3492.51 L 4795.63 3523.85 L 4750.43 3523.85"/>
    <path id="path3834" style="fill:#000000;fill-opacity:1;fill-rule:nonzero;stroke:none" d="M 4763.66 3495.01 L 4793.13 3495.01 L 4793.13 3521.35 L 4754 3521.35 L 4763.66 3495.01 Z M 4795.63 3490.01 L 4761.91 3490.01 C 4760.87 3490.01 4759.93 3490.66 4759.57 3491.65 L 4748.09 3522.99 C 4747.8 3523.76 4747.91 3524.61 4748.38 3525.28 C 4748.85 3525.95 4749.61 3526.35 4750.43 3526.35 L 4795.63 3526.35 C 4797.01 3526.35 4798.13 3525.23 4798.13 3523.85 L 4798.13 3492.51 C 4798.13 3491.13 4797.01 3490.01 4795.63 3490.01"/>
    <path id="path3836" style="fill:#59b587;fill-opacity:1;fill-rule:nonzero;stroke:none" d="M 4899.09 3930.01 C 4899.09 3841.21 4827.1 3769.2 4738.27 3769.2 L 4613.17 3769.2 C 4524.36 3769.2 4452.36 3841.21 4452.36 3930.01 L 4452.36 3930.01 C 4452.36 4018.83 4524.36 4090.84 4613.17 4090.84 L 4738.27 4090.84 C 4827.1 4090.84 4899.09 4018.83 4899.09 3930.01 L 4899.09 3930.01"/>
    <path id="path3838" style="fill:#000000;fill-opacity:1;fill-rule:nonzero;stroke:none" d="M 4613.17 4088.34 C 4525.88 4088.34 4454.86 4017.32 4454.86 3930.01 C 4454.86 3842.72 4525.88 3771.7 4613.17 3771.7 L 4738.27 3771.7 C 4825.57 3771.7 4896.59 3842.72 4896.59 3930.01 C 4896.59 4017.32 4825.57 4088.34 4738.27 4088.34 L 4613.17 4088.34 Z M 4738.27 3766.7 L 4613.17 3766.7 C 4523.13 3766.7 4449.86 3839.96 4449.86 3930.01 C 4449.86 4020.07 4523.13 4093.34 4613.17 4093.34 L 4738.27 4093.34 C 4828.33 4093.34 4901.59 4020.07 4901.59 3930.01 C 4901.59 3839.96 4828.33 3766.7 4738.27 3766.7"/>
    <path id="path3840" style="fill:#41996b;fill-opacity:1;fill-rule:nonzero;stroke:none" d="M 4643.96 3821.96 C 4623.99 3821.96 4607.78 3838.2 4607.78 3858.15 C 4607.78 3863.05 4603.8 3867.03 4598.9 3867.03 C 4593.99 3867.03 4590.01 3863.05 4590.01 3858.15 C 4590.01 3828.42 4614.23 3804.21 4643.96 3804.21 L 4816.78 3804.21 L 4816.78 3821.96 L 4643.96 3821.96"/>
    <path id="path3842" style="fill:#59b587;fill-opacity:1;fill-rule:nonzero;stroke:none" d="M 4421.63 3903.65 C 4421.63 3900.65 4421.96 3897.74 4422.45 3894.88 C 4424.89 3894.42 4427.29 3893.46 4429.21 3891.55 C 4430.87 3889.88 4431.92 3887.85 4432.49 3885.73 C 4432.82 3886.18 4433.15 3886.64 4433.56 3887.04 C 4438.6 3892.1 4446.78 3892.1 4451.85 3887.04 C 4456.88 3881.99 4456.88 3873.82 4451.85 3868.76 C 4451.42 3868.36 4450.97 3868.04 4450.52 3867.7 C 4452.65 3867.13 4454.67 3866.07 4456.36 3864.41 C 4459.17 3861.58 4460.24 3857.79 4459.9 3854.11 C 4464.05 3853.02 4468.41 3852.38 4472.9 3852.38 L 4472.9 3954.91 C 4444.6 3954.91 4421.63 3931.96 4421.63 3903.65"/>
    <path id="path3844" style="fill:#000000;fill-opacity:1;fill-rule:nonzero;stroke:none" d="M 4462.45 3856.06 C 4465.13 3855.46 4467.78 3855.09 4470.4 3854.95 L 4470.4 3952.35 C 4444.67 3951.05 4424.13 3929.7 4424.13 3903.65 C 4424.13 3901.54 4424.3 3899.38 4424.66 3896.93 C 4427.19 3896.2 4429.27 3895.02 4430.97 3893.33 C 4431.9 3892.39 4432.71 3891.33 4433.36 3890.18 C 4439.21 3894.68 4448.27 3894.15 4453.61 3888.81 C 4459.11 3883.29 4459.57 3874.61 4454.98 3868.56 C 4456.11 3867.91 4457.17 3867.12 4458.11 3866.19 C 4460.82 3863.46 4462.31 3859.93 4462.45 3856.06 Z M 4472.9 3849.88 C 4468.44 3849.88 4463.85 3850.49 4459.27 3851.69 C 4458.09 3852 4457.3 3853.12 4457.41 3854.34 C 4457.71 3857.56 4456.71 3860.51 4454.58 3862.64 C 4453.31 3863.9 4451.72 3864.79 4449.88 3865.28 C 4448.96 3865.52 4448.25 3866.27 4448.07 3867.21 C 4447.88 3868.14 4448.24 3869.11 4449 3869.69 C 4449.53 3870.08 4449.84 3870.32 4450.16 3870.6 C 4454.13 3874.59 4454.13 3881.21 4450.08 3885.27 C 4446.11 3889.23 4439.28 3889.22 4435.33 3885.28 C 4435 3884.95 4434.76 3884.6 4434.51 3884.26 C 4433.94 3883.48 4432.98 3883.07 4432.03 3883.27 C 4431.08 3883.45 4430.32 3884.15 4430.08 3885.09 C 4429.58 3886.94 4428.69 3888.53 4427.43 3889.8 C 4426.1 3891.12 4424.32 3891.98 4421.98 3892.43 C 4420.96 3892.62 4420.17 3893.43 4419.99 3894.46 C 4419.41 3897.83 4419.13 3900.84 4419.13 3903.65 C 4419.13 3933.29 4443.25 3957.41 4472.9 3957.41 C 4474.28 3957.41 4475.4 3956.3 4475.4 3954.91 L 4475.4 3852.38 C 4475.4 3851 4474.28 3849.88 4472.9 3849.88"/>
    <path id="path3846" style="fill:#41996b;fill-opacity:1;fill-rule:nonzero;stroke:none" d="M 4443.59 3903.65 C 4443.59 3898.68 4444.95 3894.07 4447.14 3889.97 C 4448.84 3889.34 4450.46 3888.42 4451.85 3887.04 C 4453.68 3885.2 4454.62 3882.9 4455.11 3880.53 C 4460.05 3876.7 4466.18 3874.36 4472.9 3874.36 L 4472.9 3932.94 C 4456.71 3932.94 4443.59 3919.83 4443.59 3903.65"/>
    <path id="path3848" style="fill:#000000;fill-opacity:1;fill-rule:nonzero;stroke:none" d="M 4457.33 3881.98 C 4461.26 3879.13 4465.72 3877.43 4470.4 3876.98 L 4470.4 3930.32 C 4456.79 3929.06 4446.09 3917.58 4446.09 3903.65 C 4446.09 3899.68 4447.05 3895.74 4448.94 3891.94 C 4450.74 3891.16 4452.3 3890.11 4453.61 3888.81 C 4455.4 3887.02 4456.62 3884.77 4457.33 3881.98 Z M 4472.9 3871.86 C 4465.91 3871.86 4459.23 3874.17 4453.57 3878.55 C 4453.11 3878.91 4452.78 3879.44 4452.66 3880.02 C 4452.2 3882.28 4451.35 3884 4450.08 3885.27 C 4449.06 3886.29 4447.81 3887.06 4446.28 3887.62 C 4445.7 3887.84 4445.22 3888.25 4444.93 3888.79 C 4442.38 3893.57 4441.09 3898.57 4441.09 3903.65 C 4441.09 3921.18 4455.36 3935.44 4472.9 3935.44 C 4474.28 3935.44 4475.4 3934.32 4475.4 3932.94 L 4475.4 3874.36 C 4475.4 3872.98 4474.28 3871.86 4472.9 3871.86"/>
    <path id="path3850" style="fill:#f2f1e7;fill-opacity:1;fill-rule:nonzero;stroke:none" d="M 4670.93 3911.28 C 4670.93 3891.61 4654.99 3875.69 4635.34 3875.69 C 4615.69 3875.69 4599.76 3891.61 4599.76 3911.28 C 4599.76 3930.92 4615.69 3946.86 4635.34 3946.86 C 4654.99 3946.86 4670.93 3930.92 4670.93 3911.28"/>
    <path id="path3852" style="fill:#000000;fill-opacity:1;fill-rule:nonzero;stroke:none" d="M 4635.34 3944.36 C 4617.1 3944.36 4602.26 3929.52 4602.26 3911.28 C 4602.26 3893.03 4617.1 3878.19 4635.34 3878.19 C 4653.58 3878.19 4668.43 3893.03 4668.43 3911.28 C 4668.43 3929.52 4653.58 3944.36 4635.34 3944.36 Z M 4635.34 3873.19 C 4614.35 3873.19 4597.26 3890.28 4597.26 3911.28 C 4597.26 3932.27 4614.35 3949.36 4635.34 3949.36 C 4656.34 3949.36 4673.43 3932.27 4673.43 3911.28 C 4673.43 3890.28 4656.34 3873.19 4635.34 3873.19"/>
    <path id="path3854" style="fill:#d33200;fill-opacity:1;fill-rule:nonzero;stroke:none" d="M 4670.93 3911.28 C 4670.93 3899.75 4661.59 3890.41 4650.07 3890.41 C 4638.54 3890.41 4629.21 3899.75 4629.21 3911.28 C 4629.21 3922.8 4638.54 3932.14 4650.07 3932.14 C 4661.59 3932.14 4670.93 3922.8 4670.93 3911.28"/>
    <path id="path3856" style="fill:#000000;fill-opacity:1;fill-rule:nonzero;stroke:none" d="M 4650.07 3929.64 C 4639.94 3929.64 4631.71 3921.41 4631.71 3911.28 C 4631.71 3901.15 4639.94 3892.91 4650.07 3892.91 C 4660.2 3892.91 4668.43 3901.15 4668.43 3911.28 C 4668.43 3921.41 4660.2 3929.64 4650.07 3929.64 Z M 4650.07 3887.91 C 4637.19 3887.91 4626.71 3898.4 4626.71 3911.28 C 4626.71 3924.16 4637.19 3934.64 4650.07 3934.64 C 4662.95 3934.64 4673.43 3924.16 4673.43 3911.28 C 4673.43 3898.4 4662.95 3887.91 4650.07 3887.91"/>
    <path id="path3858" style="fill:#f2f1e7;fill-opacity:1;fill-rule:nonzero;stroke:none" d="M 4807.89 3911.28 C 4807.89 3891.61 4823.82 3875.69 4843.48 3875.69 C 4863.13 3875.69 4879.05 3891.61 4879.05 3911.28 L 4807.89 3911.28"/>
    <path id="path3860" style="fill:#000000;fill-opacity:1;fill-rule:nonzero;stroke:none" d="M 4810.49 3908.78 C 4811.77 3891.69 4826.07 3878.19 4843.48 3878.19 C 4860.88 3878.19 4875.18 3891.69 4876.46 3908.78 L 4810.49 3908.78 Z M 4843.48 3873.19 C 4822.48 3873.19 4805.39 3890.28 4805.39 3911.28 C 4805.39 3912.66 4806.51 3913.78 4807.89 3913.78 L 4879.05 3913.78 C 4880.43 3913.78 4881.55 3912.66 4881.55 3911.28 C 4881.55 3890.28 4864.47 3873.19 4843.48 3873.19"/>
    <path id="path3862" style="fill:#d33200;fill-opacity:1;fill-rule:nonzero;stroke:none" d="M 4837.33 3911.28 C 4837.33 3899.75 4846.67 3890.41 4858.19 3890.41 C 4869.72 3890.41 4879.05 3899.75 4879.05 3911.28 L 4837.33 3911.28"/>
    <path id="path3864" style="fill:#000000;fill-opacity:1;fill-rule:nonzero;stroke:none" d="M 4840 3908.78 C 4841.23 3899.83 4848.92 3892.91 4858.19 3892.91 C 4867.47 3892.91 4875.16 3899.83 4876.39 3908.78 L 4840 3908.78 Z M 4858.19 3887.91 C 4845.31 3887.91 4834.83 3898.4 4834.83 3911.28 C 4834.83 3912.66 4835.96 3913.78 4837.33 3913.78 L 4879.05 3913.78 C 4880.43 3913.78 4881.55 3912.66 4881.55 3911.28 C 4881.55 3898.4 4871.07 3887.91 4858.19 3887.91"/>
    <path id="path3866" style="fill:#dfded1;fill-opacity:1;fill-rule:nonzero;stroke:none" d="M 4692.67 3818.86 C 4692.67 3818.86 4692.67 3826.37 4692.67 3835.61 C 4692.67 3844.88 4700.03 3852.38 4709.09 3852.38 C 4718.17 3852.38 4725.52 3844.88 4725.52 3835.61 L 4725.52 3818.86 L 4692.67 3818.86"/>
    <path id="path3868" style="fill:#000000;fill-opacity:1;fill-rule:nonzero;stroke:none" d="M 4695.17 3821.36 L 4723.02 3821.36 L 4723.02 3835.61 C 4723.02 3843.48 4716.77 3849.88 4709.09 3849.88 C 4701.42 3849.88 4695.17 3843.48 4695.17 3835.61 L 4695.17 3821.36 Z M 4725.52 3816.36 L 4692.67 3816.36 C 4691.29 3816.36 4690.17 3817.48 4690.17 3818.86 L 4690.17 3835.61 C 4690.17 3846.23 4698.65 3854.88 4709.09 3854.88 C 4719.53 3854.88 4728.02 3846.23 4728.02 3835.61 L 4728.02 3818.86 C 4728.02 3817.48 4726.89 3816.36 4725.52 3816.36"/>
    <path id="path3870" style="fill:#dfded1;fill-opacity:1;fill-rule:nonzero;stroke:none" d="M 4651.99 3818.86 C 4651.99 3818.86 4651.99 3826.37 4651.99 3835.61 C 4651.99 3844.88 4659.35 3852.38 4668.42 3852.38 C 4677.49 3852.38 4684.85 3844.88 4684.85 3835.61 L 4684.85 3818.86 L 4651.99 3818.86"/>
    <path id="path3872" style="fill:#000000;fill-opacity:1;fill-rule:nonzero;stroke:none" d="M 4654.49 3821.36 L 4682.35 3821.36 L 4682.35 3835.61 C 4682.35 3843.48 4676.1 3849.88 4668.42 3849.88 C 4660.74 3849.88 4654.49 3843.48 4654.49 3835.61 L 4654.49 3821.36 Z M 4684.85 3816.36 L 4651.99 3816.36 C 4650.62 3816.36 4649.49 3817.48 4649.49 3818.86 L 4649.49 3835.61 C 4649.49 3846.23 4657.98 3854.88 4668.42 3854.88 C 4678.86 3854.88 4687.35 3846.23 4687.35 3835.61 L 4687.35 3818.86 C 4687.35 3817.48 4686.23 3816.36 4684.85 3816.36"/>
    <path id="path3874" style="fill:#dfded1;fill-opacity:1;fill-rule:nonzero;stroke:none" d="M 4733.35 3818.86 C 4733.35 3818.86 4733.35 3826.37 4733.35 3835.61 C 4733.35 3844.88 4740.69 3852.38 4749.78 3852.38 C 4758.85 3852.38 4766.21 3844.88 4766.21 3835.61 L 4766.21 3818.86 L 4733.35 3818.86"/>
    <path id="path3876" style="fill:#000000;fill-opacity:1;fill-rule:nonzero;stroke:none" d="M 4735.85 3821.36 L 4763.71 3821.36 L 4763.71 3835.61 C 4763.71 3843.48 4757.46 3849.88 4749.78 3849.88 C 4742.1 3849.88 4735.85 3843.48 4735.85 3835.61 L 4735.85 3821.36 Z M 4766.21 3816.36 L 4733.35 3816.36 C 4731.97 3816.36 4730.85 3817.48 4730.85 3818.86 L 4730.85 3835.61 C 4730.85 3846.23 4739.34 3854.88 4749.78 3854.88 C 4760.21 3854.88 4768.71 3846.23 4768.71 3835.61 L 4768.71 3818.86 C 4768.71 3817.48 4767.59 3816.36 4766.21 3816.36"/>
    <path id="path3878" style="fill:#dfded1;fill-opacity:1;fill-rule:nonzero;stroke:none" d="M 4774.03 3818.86 C 4774.03 3818.86 4774.03 3826.37 4774.03 3835.61 C 4774.03 3844.88 4781.38 3852.38 4790.44 3852.38 C 4799.52 3852.38 4806.88 3844.88 4806.88 3835.61 L 4806.88 3818.86 L 4774.03 3818.86"/>
    <path id="path3880" style="fill:#000000;fill-opacity:1;fill-rule:nonzero;stroke:none" d="M 4776.53 3821.36 L 4804.38 3821.36 L 4804.38 3835.61 C 4804.38 3843.48 4798.13 3849.88 4790.44 3849.88 C 4782.77 3849.88 4776.53 3843.48 4776.53 3835.61 L 4776.53 3821.36 Z M 4806.88 3816.36 L 4774.03 3816.36 C 4772.66 3816.36 4771.53 3817.48 4771.53 3818.86 L 4771.53 3835.61 C 4771.53 3846.23 4780.01 3854.88 4790.44 3854.88 C 4800.88 3854.88 4809.38 3846.23 4809.38 3835.61 L 4809.38 3818.86 C 4809.38 3817.48 4808.25 3816.36 4806.88 3816.36"/>
    <path id="path3882" style="fill:#dfded1;fill-opacity:1;fill-rule:nonzero;stroke:none" d="M 4766.21 3808 C 4766.21 3808 4766.21 3809.38 4766.21 3800.12 C 4766.21 3790.86 4758.85 3783.36 4749.78 3783.36 C 4740.69 3783.36 4733.35 3790.86 4733.35 3800.12 L 4733.35 3808 L 4766.21 3808"/>
    <path id="path3884" style="fill:#000000;fill-opacity:1;fill-rule:nonzero;stroke:none" d="M 4735.85 3805.5 L 4735.85 3800.12 C 4735.85 3792.26 4742.1 3785.86 4749.78 3785.86 C 4757.46 3785.86 4763.71 3792.26 4763.71 3800.12 L 4763.71 3805.5 L 4735.85 3805.5 Z M 4749.78 3780.86 C 4739.34 3780.86 4730.85 3789.5 4730.85 3800.12 L 4730.85 3808 C 4730.85 3809.38 4731.97 3810.5 4733.35 3810.5 L 4765.62 3810.5 C 4766.23 3810.66 4766.97 3810.54 4767.52 3810.2 C 4768.3 3809.79 4768.84 3808.95 4768.84 3808 C 4768.84 3807.73 4768.79 3807.46 4768.71 3807.22 L 4768.71 3800.12 C 4768.71 3789.5 4760.21 3780.86 4749.78 3780.86"/>
    <path id="path3886" style="fill:#dfded1;fill-opacity:1;fill-rule:nonzero;stroke:none" d="M 4806.88 3808 C 4806.88 3808 4806.88 3809.38 4806.88 3800.12 C 4806.88 3790.86 4799.52 3783.36 4790.44 3783.36 C 4781.38 3783.36 4774.03 3790.86 4774.03 3800.12 L 4774.03 3808 L 4806.88 3808"/>
    <path id="path3888" style="fill:#000000;fill-opacity:1;fill-rule:nonzero;stroke:none" d="M 4776.53 3805.5 L 4776.53 3800.12 C 4776.53 3792.26 4782.77 3785.86 4790.44 3785.86 C 4798.13 3785.86 4804.38 3792.26 4804.38 3800.12 L 4804.38 3805.5 L 4776.53 3805.5 Z M 4790.44 3780.86 C 4780.01 3780.86 4771.53 3789.5 4771.53 3800.12 L 4771.53 3808 C 4771.53 3809.38 4772.66 3810.5 4774.03 3810.5 L 4806.28 3810.5 C 4806.89 3810.66 4807.64 3810.54 4808.18 3810.2 C 4808.96 3809.79 4809.5 3808.95 4809.5 3808 C 4809.5 3807.73 4809.45 3807.46 4809.38 3807.22 L 4809.38 3800.12 C 4809.38 3789.5 4800.88 3780.86 4790.44 3780.86"/>
    <path id="path3890" style="fill:#dfded1;fill-opacity:1;fill-rule:nonzero;stroke:none" d="M 4725.52 3808 C 4725.52 3808 4725.52 3809.38 4725.52 3800.12 C 4725.52 3790.86 4718.17 3783.36 4709.09 3783.36 C 4700.03 3783.36 4692.67 3790.86 4692.67 3800.12 L 4692.67 3808 L 4725.52 3808"/>
    <path id="path3892" style="fill:#000000;fill-opacity:1;fill-rule:nonzero;stroke:none" d="M 4695.17 3805.5 L 4695.17 3800.12 C 4695.17 3792.26 4701.42 3785.86 4709.09 3785.86 C 4716.77 3785.86 4723.02 3792.26 4723.02 3800.12 L 4723.02 3805.5 L 4695.17 3805.5 Z M 4709.09 3780.86 C 4698.65 3780.86 4690.17 3789.5 4690.17 3800.12 L 4690.17 3808 C 4690.17 3809.38 4691.29 3810.5 4692.67 3810.5 L 4724.92 3810.5 C 4725.55 3810.66 4726.28 3810.54 4726.83 3810.2 C 4727.61 3809.79 4728.14 3808.95 4728.14 3808 C 4728.14 3807.73 4728.1 3807.46 4728.02 3807.22 L 4728.02 3800.12 C 4728.02 3789.5 4719.53 3780.86 4709.09 3780.86"/>
    <path id="path3894" style="fill:#dfded1;fill-opacity:1;fill-rule:nonzero;stroke:none" d="M 4684.85 3808 C 4684.85 3808 4684.85 3809.38 4684.85 3800.12 C 4684.85 3790.86 4677.49 3783.36 4668.42 3783.36 C 4659.35 3783.36 4651.99 3790.86 4651.99 3800.12 L 4651.99 3808 L 4684.85 3808"/>
    <path id="path3896" style="fill:#000000;fill-opacity:1;fill-rule:nonzero;stroke:none" d="M 4654.49 3805.5 L 4654.49 3800.12 C 4654.49 3792.26 4660.74 3785.86 4668.42 3785.86 C 4676.1 3785.86 4682.35 3792.26 4682.35 3800.12 L 4682.35 3805.5 L 4654.49 3805.5 Z M 4668.42 3780.86 C 4657.98 3780.86 4649.49 3789.5 4649.49 3800.12 L 4649.49 3808 C 4649.49 3809.38 4650.62 3810.5 4651.99 3810.5 L 4684.26 3810.5 C 4684.87 3810.66 4685.63 3810.54 4686.16 3810.2 C 4686.94 3809.79 4687.48 3808.95 4687.48 3808 C 4687.48 3807.73 4687.43 3807.46 4687.35 3807.22 L 4687.35 3800.12 C 4687.35 3789.5 4678.86 3780.86 4668.42 3780.86"/>
    <path id="path3898" style="fill:#41996b;fill-opacity:1;fill-rule:nonzero;stroke:none" d="M 4766.2 3863.73 L 4749.28 3863.73 L 4749.28 3897.8 L 4766.2 3863.73"/>
    <path id="path3900" style="fill:#000000;fill-opacity:1;fill-rule:nonzero;stroke:none" d="M 4751.78 3866.23 L 4762.17 3866.23 L 4751.78 3887.15 L 4751.78 3866.23 Z M 4766.33 3861.23 C 4766.3 3861.23 4766.25 3861.24 4766.2 3861.23 L 4749.28 3861.23 C 4747.9 3861.23 4746.78 3862.35 4746.78 3863.73 L 4746.78 3897.8 C 4746.78 3898.97 4747.58 3899.97 4748.71 3900.24 C 4749.84 3900.54 4751.01 3899.95 4751.51 3898.92 L 4768.13 3865.46 C 4768.56 3865.01 4768.83 3864.4 4768.83 3863.73 C 4768.83 3862.35 4767.71 3861.23 4766.33 3861.23"/>
    <path id="path3902" style="fill:#41996b;fill-opacity:1;fill-rule:nonzero;stroke:none" d="M 4725.07 3863.73 L 4741.98 3863.73 L 4741.98 3897.8 L 4725.07 3863.73"/>
    <path id="path3904" style="fill:#000000;fill-opacity:1;fill-rule:nonzero;stroke:none" d="M 4729.1 3866.23 L 4739.48 3866.23 L 4739.48 3887.15 L 4729.1 3866.23 Z M 4741.98 3861.23 L 4725.07 3861.23 C 4724.2 3861.23 4723.4 3861.68 4722.94 3862.41 C 4722.49 3863.15 4722.44 3864.07 4722.83 3864.85 L 4739.75 3898.92 C 4740.26 3899.95 4741.43 3900.54 4742.55 3900.24 C 4743.68 3899.97 4744.48 3898.97 4744.48 3897.8 L 4744.48 3863.73 C 4744.48 3862.35 4743.36 3861.23 4741.98 3861.23"/>
    <path id="path3906" style="fill:#997755;fill-opacity:1;fill-rule:nonzero;stroke:none" d="M 4677.58 3956.93 L 4574.23 3942.52 L 4574.23 3971.25 L 4677.58 4003.68 L 4677.58 3956.93"/>
    <path id="path3908" style="fill:#000000;fill-opacity:1;fill-rule:nonzero;stroke:none" d="M 4576.73 3969.41 L 4576.73 3945.39 L 4675.08 3959.11 L 4675.08 4000.27 L 4576.73 3969.41 Z M 4574.23 3940.02 C 4573.63 3940.02 4573.05 3940.23 4572.59 3940.63 C 4572.04 3941.11 4571.73 3941.8 4571.73 3942.52 L 4571.73 3971.25 C 4571.73 3972.34 4572.44 3973.3 4573.48 3973.63 L 4676.83 4006.06 C 4677.56 4006.29 4678.41 4006.16 4679.06 4005.69 C 4679.7 4005.22 4680.08 4004.47 4680.08 4003.68 L 4680.08 3956.93 C 4680.08 3955.68 4679.16 3954.62 4677.92 3954.45 L 4574.57 3940.04 C 4574.46 3940.03 4574.35 3940.02 4574.23 3940.02"/>
    <path id="path3910" style="fill:#997755;fill-opacity:1;fill-rule:nonzero;stroke:none" d="M 4805.16 3956.9 L 4888.58 3942.52 L 4888.58 3971.32 L 4805.16 4003.64 L 4805.16 3956.9"/>
    <path id="path3912" style="fill:#000000;fill-opacity:1;fill-rule:nonzero;stroke:none" d="M 4807.66 3959.01 L 4886.08 3945.49 L 4886.08 3969.6 L 4807.66 4000 L 4807.66 3959.01 Z M 4888.58 3940.02 C 4888.45 3940.02 4888.3 3940.03 4888.16 3940.05 L 4804.74 3954.44 C 4803.54 3954.65 4802.66 3955.69 4802.66 3956.9 L 4802.66 4003.64 C 4802.66 4004.46 4803.07 4005.24 4803.74 4005.7 C 4804.43 4006.18 4805.3 4006.29 4806.05 4005.97 L 4889.48 3973.64 C 4890.45 3973.27 4891.08 3972.35 4891.08 3971.32 L 4891.08 3942.52 C 4891.08 3941.78 4890.76 3941.08 4890.2 3940.61 C 4889.74 3940.22 4889.17 3940.02 4888.58 3940.02"/>
    <path id="path3914" style="fill:#41996b;fill-opacity:1;fill-rule:nonzero;stroke:none" d="M 4591.72 4090.84 L 4669.86 4018.13 L 4666.88 4055.57 L 4728.35 3970.67 L 4716.49 4055.57 L 4751.34 4018.13 L 4761.17 4090.84 L 4591.72 4090.84"/>
    <path id="path3916" style="fill:#997755;fill-opacity:1;fill-rule:nonzero;stroke:none" d="M 4591.72 4090.84 L 4669.86 4036.44 L 4666.88 4064.45 L 4728.35 4000.94 L 4716.49 4064.45 L 4751.34 4036.44 L 4761.17 4090.84 L 4591.72 4090.84"/>
    <path id="path3918" style="fill:#000000;fill-opacity:1;fill-rule:nonzero;stroke:none" d="M 4666.88 4066.95 C 4667.54 4066.95 4668.19 4066.69 4668.67 4066.19 L 4724.37 4008.64 L 4714.03 4063.99 C 4713.85 4065.02 4714.32 4066.06 4715.21 4066.59 C 4716.1 4067.14 4717.25 4067.05 4718.06 4066.4 L 4749.63 4041.02 L 4758.18 4088.34 L 4599.69 4088.34 L 4666.8 4041.62 L 4664.38 4064.19 C 4664.28 4065.25 4664.85 4066.26 4665.81 4066.72 C 4666.15 4066.88 4666.51 4066.95 4666.88 4066.95 Z M 4728.35 3998.44 C 4727.69 3998.44 4727.03 3998.7 4726.55 3999.2 L 4670.13 4057.5 L 4672.27 4037.47 C 4672.41 4037.15 4672.49 4036.8 4672.49 4036.44 C 4672.49 4035.06 4671.37 4033.94 4669.99 4033.94 C 4669.96 4033.93 4669.91 4033.95 4669.86 4033.94 C 4669.37 4033.94 4668.87 4034.09 4668.44 4034.39 L 4590.29 4088.79 C 4589.39 4089.42 4589 4090.55 4589.34 4091.59 C 4589.66 4092.64 4590.63 4093.34 4591.72 4093.34 L 4761.17 4093.34 C 4761.91 4093.34 4762.62 4093.02 4763.09 4092.45 C 4763.56 4091.88 4763.76 4091.13 4763.63 4090.4 L 4753.8 4036 C 4753.64 4035.13 4753.04 4034.41 4752.22 4034.09 C 4751.37 4033.8 4750.46 4033.94 4749.78 4034.49 L 4720.2 4058.27 L 4730.67 4002.13 C 4730.86 4001.78 4730.98 4001.37 4730.98 4000.94 C 4730.98 3999.54 4729.72 3998.5 4728.42 3998.44 C 4728.39 3998.44 4728.37 3998.44 4728.35 3998.44"/>
    <path id="path3920" style="fill:#41996b;fill-opacity:1;fill-rule:nonzero;stroke:none" d="M 4584.83 4035.91 C 4584.83 4027.32 4577.89 4020.38 4569.31 4020.38 C 4560.71 4020.38 4553.77 4027.32 4553.77 4035.91 C 4553.77 4044.48 4560.71 4051.44 4569.31 4051.44 C 4577.89 4051.44 4584.83 4044.48 4584.83 4035.91"/>
    <path id="path3922" style="fill:#41996b;fill-opacity:1;fill-rule:nonzero;stroke:none" d="M 4544.93 3957.83 C 4544.93 3942.27 4532.33 3929.67 4516.77 3929.67 C 4501.21 3929.67 4488.6 3942.27 4488.6 3957.83 C 4488.6 3973.36 4501.21 3985.98 4516.77 3985.98 C 4532.33 3985.98 4544.93 3973.36 4544.93 3957.83"/>
    <path id="path3924" style="fill:#8192a4;fill-opacity:1;fill-rule:nonzero;stroke:none" d="M 5042.22 4104.76 C 5037.32 4104.76 5033.35 4100.79 5033.35 4095.89 L 5033.35 4044.55 C 5033.35 4011.61 5009.83 3984.05 4978.71 3977.78 L 4978.71 4095.89 C 4978.71 4100.79 4974.74 4104.76 4969.83 4104.76 C 4964.93 4104.76 4960.97 4100.79 4960.97 4095.89 L 4960.97 3977.78 C 4929.83 3984.06 4906.33 4011.61 4906.33 4044.55 L 4906.33 4095.89 C 4906.33 4100.79 4902.35 4104.76 4897.45 4104.76 C 4892.55 4104.76 4888.58 4100.79 4888.58 4095.89 L 4888.58 4044.55 C 4888.58 3998.76 4924.64 3961.33 4969.83 3958.91 C 5015.03 3961.33 5051.1 3998.76 5051.1 4044.55 L 5051.1 4095.89 C 5051.1 4100.79 5047.14 4104.76 5042.22 4104.76"/>
    <path id="path3926" style="fill:#000000;fill-opacity:1;fill-rule:nonzero;stroke:none" d="M 4897.45 4102.26 C 4893.94 4102.26 4891.08 4099.4 4891.08 4095.89 L 4891.08 4044.55 C 4891.08 4000.34 4925.66 3963.85 4969.83 3961.41 C 5014.01 3963.85 5048.6 4000.34 5048.6 4044.55 L 5048.6 4095.89 C 5048.6 4099.4 5045.74 4102.26 5042.22 4102.26 C 5038.7 4102.26 5035.85 4099.4 5035.85 4095.89 L 5035.85 4044.55 C 5035.85 4011.06 5012.03 3981.94 4979.21 3975.33 C 4978.46 3975.18 4977.71 3975.37 4977.13 3975.84 C 4976.54 3976.32 4976.21 3977.02 4976.21 3977.78 L 4976.21 4095.89 C 4976.21 4099.4 4973.35 4102.26 4969.83 4102.26 C 4966.32 4102.26 4963.47 4099.4 4963.47 4095.89 L 4963.47 3977.78 C 4963.47 3977.02 4963.13 3976.32 4962.55 3975.84 C 4961.96 3975.37 4961.2 3975.18 4960.47 3975.33 C 4927.65 3981.95 4903.83 4011.07 4903.83 4044.55 L 4903.83 4095.89 C 4903.83 4099.4 4900.97 4102.26 4897.45 4102.26 Z M 4969.83 3956.41 C 4969.79 3956.41 4969.75 3956.41 4969.7 3956.41 C 4922.81 3958.92 4886.08 3997.64 4886.08 4044.55 L 4886.08 4095.89 C 4886.08 4102.16 4891.18 4107.26 4897.45 4107.26 C 4903.72 4107.26 4908.83 4102.16 4908.83 4095.89 L 4908.83 4044.55 C 4908.83 4014.46 4929.52 3988.17 4958.47 3980.91 L 4958.47 4095.89 C 4958.47 4102.16 4963.56 4107.26 4969.83 4107.26 C 4976.1 4107.26 4981.21 4102.16 4981.21 4095.89 L 4981.21 3980.91 C 5010.16 3988.17 5030.85 4014.46 5030.85 4044.55 L 5030.85 4095.89 C 5030.85 4102.16 5035.95 4107.26 5042.22 4107.26 C 5048.5 4107.26 5053.6 4102.16 5053.6 4095.89 L 5053.6 4044.55 C 5053.6 3997.64 5016.87 3958.92 4969.97 3956.41 C 4969.92 3956.41 4969.88 3956.41 4969.83 3956.41"/>
    <path id="path3928" style="fill:#8192a4;fill-opacity:1;fill-rule:nonzero;stroke:none" d="M 4974.45 3958.68 C 4972.9 3958.68 4971.38 3958.82 4969.83 3958.91 C 4968.3 3958.82 4966.79 3958.68 4965.22 3958.68 L 4974.45 3958.68"/>
    <path id="path3930" style="fill:#000000;fill-opacity:1;fill-rule:nonzero;stroke:none" d="M 4974.45 3956.18 L 4965.22 3956.18 C 4963.85 3956.18 4962.72 3957.29 4962.72 3958.68 C 4962.72 3960.06 4963.85 3961.18 4965.22 3961.18 C 4966.3 3961.18 4967.35 3961.25 4968.41 3961.32 L 4969.69 3961.4 L 4971.28 3961.32 C 4972.33 3961.25 4973.39 3961.18 4974.45 3961.18 C 4975.83 3961.18 4976.95 3960.06 4976.95 3958.68 C 4976.95 3957.29 4975.83 3956.18 4974.45 3956.18"/>
    <path id="path3932" style="fill:#b39471;fill-opacity:1;fill-rule:nonzero;stroke:none" d="M 4957.14 3491.19 L 4982.55 3491.19 L 4982.55 3901.35 L 4957.14 3901.35 L 4957.14 3491.19 Z"/>
    <path id="path3934" style="fill:#000000;fill-opacity:1;fill-rule:nonzero;stroke:none" d="M 4959.64 3493.69 L 4980.05 3493.69 L 4980.05 3898.85 L 4959.64 3898.85 L 4959.64 3493.69 Z M 4982.55 3488.69 L 4957.14 3488.69 C 4955.76 3488.69 4954.64 3489.81 4954.64 3491.19 L 4954.64 3901.35 C 4954.64 3902.73 4955.76 3903.85 4957.14 3903.85 L 4982.55 3903.85 C 4983.93 3903.85 4985.05 3902.73 4985.05 3901.35 L 4985.05 3491.19 C 4985.05 3489.81 4983.93 3488.69 4982.55 3488.69"/>
    <path id="path3936" style="fill:#bcc4cd;fill-opacity:1;fill-rule:nonzero;stroke:none" d="M 4969.84 3972.03 C 4962.83 3972.03 4957.14 3966.34 4957.14 3959.33 L 4957.14 3892.48 L 4982.55 3892.48 L 4982.55 3959.33 C 4982.55 3966.34 4976.87 3972.03 4969.84 3972.03"/>
    <path id="path3938" style="fill:#000000;fill-opacity:1;fill-rule:nonzero;stroke:none" d="M 4959.64 3894.98 L 4980.05 3894.98 L 4980.05 3959.33 C 4980.05 3964.95 4975.47 3969.53 4969.84 3969.53 C 4964.22 3969.53 4959.64 3964.95 4959.64 3959.33 L 4959.64 3894.98 Z M 4982.55 3889.98 L 4957.14 3889.98 C 4955.76 3889.98 4954.64 3891.1 4954.64 3892.48 L 4954.64 3959.33 C 4954.64 3967.71 4961.46 3974.53 4969.84 3974.53 C 4978.23 3974.53 4985.05 3967.71 4985.05 3959.33 L 4985.05 3892.48 C 4985.05 3891.1 4983.93 3889.98 4982.55 3889.98"/>
  </g>
</svg>