<?xml version="1.0" encoding="utf-8"?>
<svg viewBox="683.8909912109375 1.652999997138977 87.24400329589844 91.50900268554688" width="87.24400329589844" height="91.50900268554688" xmlns="http://www.w3.org/2000/svg">
  <g transform="matrix(0.12500000186264515, 0, 0, -0.12500000186264515, 0, 526.1375122070312)">
    <path id="path18" style="fill:#ddd8bf;fill-opacity:1;fill-rule:nonzero;stroke:none" d="M 6068.81 3490.96 C 6068.81 3475.96 5957.51 3463.81 5820.21 3463.81 C 5682.91 3463.81 5571.59 3475.96 5571.59 3490.96 C 5571.59 3505.95 5682.91 3518.11 5820.21 3518.11 C 5957.51 3518.11 6068.81 3505.95 6068.81 3490.96"/>
    <path id="path692" style="fill:#bcc4cd;fill-opacity:1;fill-rule:nonzero;stroke:none" d="M 5538.15 3752.64 L 5516.15 3751.6 L 5473.82 3793.93 L 5495.82 3794.98 L 5538.15 3752.64"/>
    <path id="path694" style="fill:#000000;fill-opacity:1;fill-rule:nonzero;stroke:none" d="M 5479.58 3791.71 L 5517.14 3754.15 L 5532.39 3754.87 L 5494.83 3792.43 L 5479.58 3791.71 Z M 5516.15 3749.1 C 5515.49 3749.1 5514.85 3749.36 5514.38 3749.83 L 5472.05 3792.17 C 5471.35 3792.86 5471.13 3793.91 5471.48 3794.84 C 5471.85 3795.76 5472.71 3796.39 5473.7 3796.43 L 5495.7 3797.48 C 5496.42 3797.55 5497.1 3797.25 5497.59 3796.75 L 5539.92 3754.41 C 5540.63 3753.71 5540.84 3752.66 5540.49 3751.74 C 5540.13 3750.81 5539.26 3750.19 5538.27 3750.14 L 5516.27 3749.11 C 5516.23 3749.1 5516.19 3749.1 5516.15 3749.1"/>
    <path id="path696" style="fill:#bcc4cd;fill-opacity:1;fill-rule:nonzero;stroke:none" d="M 5545.51 3760.01 L 5546.55 3781.96 L 5504.19 3824.32 L 5503.15 3802.32 L 5545.51 3760.01"/>
    <path id="path698" style="fill:#000000;fill-opacity:1;fill-rule:nonzero;stroke:none" d="M 5505.7 3803.31 L 5543.28 3765.77 L 5544 3780.98 L 5506.42 3818.56 L 5505.7 3803.31 Z M 5545.51 3757.51 C 5544.85 3757.51 5544.22 3757.76 5543.74 3758.24 L 5501.39 3800.55 C 5500.89 3801.05 5500.63 3801.74 5500.65 3802.44 L 5501.69 3824.44 C 5501.74 3825.43 5502.36 3826.3 5503.29 3826.65 C 5504.22 3827.02 5505.26 3826.79 5505.96 3826.09 L 5548.32 3783.73 C 5548.82 3783.23 5549.08 3782.55 5549.05 3781.85 L 5548.01 3759.89 C 5547.96 3758.9 5547.33 3758.04 5546.41 3757.68 C 5546.11 3757.56 5545.81 3757.51 5545.51 3757.51"/>
    <path id="path700" style="fill:#425059;fill-opacity:1;fill-rule:nonzero;stroke:none" d="M 5522.42 3768.36 L 5500.45 3767.3 L 5489.52 3778.26 L 5511.52 3779.28 L 5522.42 3768.36"/>
    <path id="path702" style="fill:#000000;fill-opacity:1;fill-rule:nonzero;stroke:none" d="M 5495.28 3776.02 L 5501.44 3769.85 L 5516.67 3770.59 L 5510.54 3776.73 L 5495.28 3776.02 Z M 5500.45 3764.8 C 5499.79 3764.8 5499.15 3765.07 5498.68 3765.54 L 5487.75 3776.49 C 5487.05 3777.2 5486.84 3778.24 5487.19 3779.16 C 5487.55 3780.09 5488.42 3780.71 5489.4 3780.75 L 5511.41 3781.78 C 5512.15 3781.82 5512.79 3781.54 5513.29 3781.05 L 5524.19 3770.13 C 5524.89 3769.43 5525.11 3768.38 5524.76 3767.46 C 5524.39 3766.54 5523.53 3765.91 5522.54 3765.87 L 5500.57 3764.81 C 5500.53 3764.8 5500.49 3764.8 5500.45 3764.8"/>
    <path id="path704" style="fill:#425059;fill-opacity:1;fill-rule:nonzero;stroke:none" d="M 5529.78 3775.71 L 5530.79 3797.71 L 5519.89 3808.61 L 5518.86 3786.61 L 5529.78 3775.71"/>
    <path id="path706" style="fill:#000000;fill-opacity:1;fill-rule:nonzero;stroke:none" d="M 5521.41 3787.6 L 5527.54 3781.48 L 5528.24 3796.73 L 5522.12 3802.84 L 5521.41 3787.6 Z M 5529.78 3773.21 C 5529.12 3773.21 5528.49 3773.46 5528.01 3773.95 L 5517.09 3784.85 C 5516.59 3785.34 5516.33 3786.03 5516.36 3786.73 L 5517.39 3808.72 C 5517.44 3809.71 5518.07 3810.58 5518.99 3810.94 C 5519.93 3811.31 5520.97 3811.07 5521.66 3810.38 L 5532.56 3799.48 C 5533.06 3798.98 5533.32 3798.3 5533.29 3797.6 L 5532.28 3775.59 C 5532.23 3774.61 5531.6 3773.74 5530.68 3773.38 C 5530.39 3773.27 5530.08 3773.21 5529.78 3773.21"/>
    <path id="path708" style="fill:#f15a24;fill-opacity:1;fill-rule:nonzero;stroke:none" d="M 5610.7 3694.8 L 5603.34 3687.45 L 5486.41 3804.38 L 5493.74 3811.75 L 5610.7 3694.8"/>
    <path id="path710" style="fill:#000000;fill-opacity:1;fill-rule:nonzero;stroke:none" d="M 5489.94 3804.39 L 5603.34 3690.98 L 5607.17 3694.8 L 5493.74 3808.21 L 5489.94 3804.39 Z M 5603.34 3684.95 C 5602.7 3684.95 5602.06 3685.19 5601.57 3685.68 L 5484.64 3802.62 C 5483.66 3803.59 5483.66 3805.17 5484.64 3806.14 L 5491.97 3813.51 C 5492.44 3813.98 5493.08 3814.25 5493.74 3814.25 L 5493.74 3814.25 C 5494.4 3814.25 5495.04 3813.98 5495.51 3813.52 L 5612.47 3696.57 C 5612.94 3696.1 5613.2 3695.46 5613.2 3694.8 C 5613.2 3694.13 5612.94 3693.5 5612.47 3693.03 L 5605.11 3685.68 C 5604.62 3685.19 5603.97 3684.95 5603.34 3684.95"/>
    <path id="path712" style="fill:#bcc4cd;fill-opacity:1;fill-rule:nonzero;stroke:none" d="M 5581.01 3795.52 L 5559.03 3794.46 L 5516.67 3836.85 L 5538.67 3837.84 L 5581.01 3795.52"/>
    <path id="path714" style="fill:#000000;fill-opacity:1;fill-rule:nonzero;stroke:none" d="M 5522.44 3834.61 L 5560.02 3797.02 L 5575.24 3797.74 L 5537.69 3835.29 L 5522.44 3834.61 Z M 5559.03 3791.96 C 5558.37 3791.96 5557.73 3792.23 5557.27 3792.7 L 5514.9 3835.08 C 5514.2 3835.79 5513.98 3836.83 5514.34 3837.75 C 5514.7 3838.68 5515.57 3839.3 5516.55 3839.34 L 5538.55 3840.34 C 5539.31 3840.36 5539.94 3840.1 5540.44 3839.61 L 5582.77 3797.29 C 5583.48 3796.59 5583.69 3795.54 5583.34 3794.61 C 5582.98 3793.69 5582.11 3793.07 5581.12 3793.02 L 5559.15 3791.97 C 5559.11 3791.96 5559.07 3791.96 5559.03 3791.96"/>
    <path id="path716" style="fill:#bcc4cd;fill-opacity:1;fill-rule:nonzero;stroke:none" d="M 5588.34 3802.83 L 5589.4 3824.83 L 5547.04 3867.16 L 5546.05 3845.19 L 5588.34 3802.83"/>
    <path id="path718" style="fill:#000000;fill-opacity:1;fill-rule:nonzero;stroke:none" d="M 5548.6 3846.18 L 5586.11 3808.6 L 5586.86 3823.85 L 5549.29 3861.38 L 5548.6 3846.18 Z M 5588.34 3800.33 C 5587.69 3800.33 5587.05 3800.59 5586.57 3801.06 L 5544.29 3843.42 C 5543.79 3843.92 5543.53 3844.6 5543.55 3845.3 L 5544.54 3867.27 C 5544.59 3868.26 5545.21 3869.13 5546.13 3869.48 C 5547.07 3869.86 5548.12 3869.62 5548.81 3868.93 L 5591.17 3826.6 C 5591.67 3826.1 5591.93 3825.42 5591.9 3824.71 L 5590.84 3802.71 C 5590.79 3801.72 5590.17 3800.85 5589.24 3800.5 C 5588.95 3800.38 5588.64 3800.33 5588.34 3800.33"/>
    <path id="path720" style="fill:#425059;fill-opacity:1;fill-rule:nonzero;stroke:none" d="M 5565.3 3811.21 L 5543.3 3810.2 L 5532.37 3821.11 L 5554.38 3822.12 L 5565.3 3811.21"/>
    <path id="path722" style="fill:#000000;fill-opacity:1;fill-rule:nonzero;stroke:none" d="M 5538.15 3818.87 L 5544.29 3812.74 L 5559.52 3813.45 L 5553.39 3819.57 L 5538.15 3818.87 Z M 5543.3 3807.7 C 5542.64 3807.7 5542 3807.96 5541.53 3808.43 L 5530.61 3819.34 C 5529.9 3820.04 5529.69 3821.09 5530.04 3822.01 C 5530.4 3822.93 5531.27 3823.56 5532.26 3823.6 L 5554.26 3824.62 C 5555.04 3824.71 5555.64 3824.38 5556.14 3823.89 L 5567.07 3812.98 C 5567.77 3812.29 5567.99 3811.23 5567.64 3810.31 C 5567.28 3809.39 5566.41 3808.76 5565.42 3808.72 L 5543.42 3807.7 C 5543.38 3807.7 5543.34 3807.7 5543.3 3807.7"/>
    <path id="path724" style="fill:#425059;fill-opacity:1;fill-rule:nonzero;stroke:none" d="M 5572.63 3818.58 L 5573.67 3840.57 L 5562.77 3851.47 L 5561.74 3829.48 L 5572.63 3818.58"/>
    <path id="path726" style="fill:#000000;fill-opacity:1;fill-rule:nonzero;stroke:none" d="M 5564.29 3830.47 L 5570.4 3824.35 L 5571.12 3839.58 L 5565 3845.7 L 5564.29 3830.47 Z M 5572.63 3816.08 C 5571.97 3816.08 5571.34 3816.34 5570.86 3816.82 L 5559.97 3827.71 C 5559.47 3828.21 5559.21 3828.89 5559.24 3829.6 L 5560.27 3851.59 C 5560.32 3852.58 5560.95 3853.45 5561.88 3853.81 C 5562.81 3854.16 5563.85 3853.93 5564.54 3853.24 L 5575.44 3842.33 C 5575.94 3841.84 5576.2 3841.15 5576.17 3840.45 L 5575.13 3818.46 C 5575.08 3817.47 5574.45 3816.61 5573.53 3816.25 C 5573.23 3816.14 5572.93 3816.08 5572.63 3816.08"/>
    <path id="path728" style="fill:#f15a24;fill-opacity:1;fill-rule:nonzero;stroke:none" d="M 5653.53 3737.69 L 5646.19 3730.33 L 5529.26 3847.27 L 5536.64 3854.61 L 5653.53 3737.69"/>
    <path id="path730" style="fill:#000000;fill-opacity:1;fill-rule:nonzero;stroke:none" d="M 5532.8 3847.27 L 5646.19 3733.87 L 5649.99 3737.68 L 5536.63 3851.08 L 5532.8 3847.27 Z M 5646.19 3727.83 C 5645.53 3727.83 5644.89 3728.09 5644.42 3728.56 L 5527.49 3845.5 C 5527.02 3845.97 5526.76 3846.61 5526.76 3847.27 C 5526.76 3847.94 5527.02 3848.57 5527.49 3849.04 L 5534.87 3856.39 C 5535.86 3857.36 5537.44 3857.35 5538.41 3856.38 L 5655.29 3739.46 C 5656.27 3738.48 5656.27 3736.9 5655.29 3735.93 L 5647.96 3728.57 C 5647.49 3728.09 5646.86 3727.83 5646.19 3727.83 L 5646.19 3727.83"/>
    <path id="path732" style="fill:#bcc4cd;fill-opacity:1;fill-rule:nonzero;stroke:none" d="M 5623.89 3838.36 L 5601.91 3837.34 L 5559.55 3879.66 L 5581.55 3880.73 L 5623.89 3838.36"/>
    <path id="path734" style="fill:#000000;fill-opacity:1;fill-rule:nonzero;stroke:none" d="M 5565.31 3877.43 L 5602.9 3839.89 L 5618.13 3840.59 L 5580.57 3878.18 L 5565.31 3877.43 Z M 5601.91 3834.84 C 5601.25 3834.84 5600.62 3835.1 5600.15 3835.57 L 5557.78 3877.89 C 5557.08 3878.59 5556.87 3879.63 5557.22 3880.55 C 5557.58 3881.48 5558.44 3882.1 5559.42 3882.15 L 5581.43 3883.23 C 5582.37 3883.25 5582.82 3883 5583.32 3882.5 L 5625.65 3840.13 C 5626.36 3839.42 5626.57 3838.38 5626.22 3837.45 C 5625.86 3836.53 5624.99 3835.91 5624 3835.86 L 5602.03 3834.84 C 5601.99 3834.84 5601.95 3834.84 5601.91 3834.84"/>
    <path id="path736" style="fill:#bcc4cd;fill-opacity:1;fill-rule:nonzero;stroke:none" d="M 5631.24 3845.72 L 5632.29 3867.73 L 5589.92 3910.03 L 5588.89 3888.05 L 5631.24 3845.72"/>
    <path id="path738" style="fill:#000000;fill-opacity:1;fill-rule:nonzero;stroke:none" d="M 5591.44 3889.04 L 5629.01 3851.48 L 5629.74 3866.74 L 5592.15 3904.27 L 5591.44 3889.04 Z M 5631.24 3843.22 C 5630.59 3843.22 5629.95 3843.48 5629.47 3843.95 L 5587.12 3886.29 C 5586.62 3886.79 5586.36 3887.47 5586.39 3888.17 L 5587.42 3910.14 C 5587.47 3911.14 5588.1 3912 5589.02 3912.36 C 5589.95 3912.72 5591 3912.5 5591.69 3911.8 L 5634.05 3869.5 C 5634.55 3869 5634.81 3868.31 5634.79 3867.61 L 5633.74 3845.61 C 5633.69 3844.61 5633.07 3843.75 5632.14 3843.39 C 5631.85 3843.27 5631.54 3843.22 5631.24 3843.22"/>
    <path id="path740" style="fill:#425059;fill-opacity:1;fill-rule:nonzero;stroke:none" d="M 5608.15 3854.11 L 5586.2 3853.09 L 5575.25 3863.98 L 5597.26 3865.02 L 5608.15 3854.11"/>
    <path id="path742" style="fill:#000000;fill-opacity:1;fill-rule:nonzero;stroke:none" d="M 5581.04 3861.75 L 5587.19 3855.64 L 5602.38 3856.35 L 5596.27 3862.47 L 5581.04 3861.75 Z M 5586.2 3850.59 C 5585.54 3850.59 5584.91 3850.85 5584.43 3851.32 L 5573.49 3862.21 C 5572.79 3862.9 5572.57 3863.95 5572.92 3864.88 C 5573.28 3865.8 5574.15 3866.43 5575.14 3866.47 L 5597.14 3867.51 C 5597.84 3867.6 5598.54 3867.28 5599.02 3866.79 L 5609.92 3855.88 C 5610.63 3855.18 5610.84 3854.13 5610.49 3853.21 C 5610.13 3852.29 5609.26 3851.66 5608.27 3851.61 L 5586.32 3850.59 C 5586.28 3850.59 5586.24 3850.59 5586.2 3850.59"/>
    <path id="path744" style="fill:#425059;fill-opacity:1;fill-rule:nonzero;stroke:none" d="M 5615.54 3861.45 L 5616.55 3883.43 L 5605.61 3894.35 L 5604.59 3872.36 L 5615.54 3861.45"/>
    <path id="path746" style="fill:#000000;fill-opacity:1;fill-rule:nonzero;stroke:none" d="M 5607.14 3873.35 L 5613.3 3867.21 L 5614 3882.44 L 5607.84 3888.59 L 5607.14 3873.35 Z M 5615.54 3858.95 C 5614.88 3858.95 5614.25 3859.2 5613.77 3859.68 L 5602.82 3870.59 C 5602.32 3871.09 5602.06 3871.77 5602.09 3872.48 L 5603.11 3894.46 C 5603.15 3895.45 5603.78 3896.32 5604.7 3896.68 C 5605.63 3897.04 5606.68 3896.82 5607.37 3896.12 L 5618.32 3885.2 C 5618.82 3884.71 5619.08 3884.02 5619.05 3883.31 L 5618.04 3861.33 C 5617.99 3860.34 5617.36 3859.48 5616.45 3859.12 C 5616.15 3859 5615.84 3858.95 5615.54 3858.95"/>
    <path id="path748" style="fill:#f15a24;fill-opacity:1;fill-rule:nonzero;stroke:none" d="M 5696.44 3780.52 L 5689.07 3773.22 L 5572.14 3890.14 L 5579.47 3897.51 L 5696.44 3780.52"/>
    <path id="path750" style="fill:#000000;fill-opacity:1;fill-rule:nonzero;stroke:none" d="M 5575.67 3890.14 L 5689.08 3776.75 L 5692.89 3780.53 L 5579.47 3893.97 L 5575.67 3890.14 Z M 5689.07 3770.72 C 5688.43 3770.72 5687.79 3770.96 5687.3 3771.45 L 5570.37 3888.37 C 5569.39 3889.35 5569.39 3890.93 5570.37 3891.9 L 5577.71 3899.27 C 5578.17 3899.75 5578.81 3900.01 5579.47 3900.01 L 5579.47 3900.01 C 5580.14 3900.01 5580.77 3899.75 5581.24 3899.28 L 5698.2 3782.29 C 5698.67 3781.82 5698.94 3781.18 5698.94 3780.51 C 5698.94 3779.85 5698.67 3779.21 5698.19 3778.74 L 5690.83 3771.45 C 5690.34 3770.96 5689.71 3770.72 5689.07 3770.72"/>
    <path id="path752" style="fill:#8192a4;fill-opacity:1;fill-rule:nonzero;stroke:none" d="M 5801.51 3687.29 L 5696.59 3582.36 L 5568.23 3687.55 L 5696.33 3815.64 L 5801.51 3687.29"/>
    <path id="path754" style="fill:#000000;fill-opacity:1;fill-rule:nonzero;stroke:none" d="M 5571.95 3687.73 L 5696.43 3585.73 L 5798.14 3687.46 L 5696.14 3811.92 L 5571.95 3687.73 Z M 5696.59 3579.86 C 5696.04 3579.86 5695.47 3580.04 5695.01 3580.42 L 5566.65 3685.61 C 5566.1 3686.06 5565.77 3686.72 5565.73 3687.43 C 5565.7 3688.13 5565.97 3688.82 5566.46 3689.32 L 5694.56 3817.41 C 5695.06 3817.9 5695.56 3818.22 5696.46 3818.14 C 5697.16 3818.11 5697.81 3817.77 5698.26 3817.23 L 5803.45 3688.88 C 5804.26 3687.88 5804.19 3686.43 5803.28 3685.53 L 5698.36 3580.59 C 5697.87 3580.11 5697.24 3579.86 5696.59 3579.86"/>
    <path id="path756" style="fill:#ffb103;fill-opacity:1;fill-rule:nonzero;stroke:none" d="M 5742.18 3759.68 L 5715.63 3792.08 L 5591.8 3668.21 L 5624.2 3641.68 L 5742.18 3759.68"/>
    <path id="path758" style="fill:#000000;fill-opacity:1;fill-rule:nonzero;stroke:none" d="M 5595.52 3668.4 L 5624.03 3645.05 L 5738.81 3759.85 L 5715.44 3788.36 L 5595.52 3668.4 Z M 5624.2 3639.18 C 5623.64 3639.18 5623.08 3639.36 5622.62 3639.75 L 5590.21 3666.29 C 5589.67 3666.73 5589.34 3667.39 5589.3 3668.09 C 5589.27 3668.8 5589.53 3669.48 5590.03 3669.98 L 5713.86 3793.85 C 5714.36 3794.34 5714.89 3794.67 5715.75 3794.58 C 5716.46 3794.54 5717.11 3794.21 5717.56 3793.67 L 5744.11 3761.27 C 5744.92 3760.27 5744.85 3758.82 5743.95 3757.91 L 5625.97 3639.91 C 5625.48 3639.43 5624.84 3639.18 5624.2 3639.18"/>
    <path id="path760" style="fill:#59b587;fill-opacity:1;fill-rule:nonzero;stroke:none" d="M 5671.29 3729.45 C 5641.18 3676.69 5640.56 3629.4 5641.18 3617.83 C 5643.78 3571.2 5698.83 3586.62 5698.91 3605.64 C 5699.27 3709.59 5719.16 3764.07 5722.3 3775.51 C 5722.3 3775.51 5697.34 3775.16 5671.29 3729.45"/>
    <path id="path762" style="fill:#000000;fill-opacity:1;fill-rule:nonzero;stroke:none" d="M 5718.75 3772.32 C 5711.17 3770.24 5692.64 3761.86 5673.46 3728.21 C 5641.73 3672.61 5643.39 3623.39 5643.68 3617.97 C 5645.11 3592.36 5662.53 3589.6 5669.96 3589.6 C 5683.27 3589.6 5696.38 3597.55 5696.41 3605.65 C 5696.74 3700.11 5713.19 3754.08 5718.59 3771.82 C 5718.65 3771.98 5718.7 3772.16 5718.75 3772.32 Z M 5669.96 3584.6 L 5669.96 3584.6 C 5651.53 3584.6 5639.84 3596.97 5638.68 3617.7 C 5638.39 3623.27 5636.68 3673.85 5669.12 3730.69 C 5695.58 3777.11 5721.19 3777.99 5722.27 3778.01 C 5722.29 3778.01 5722.29 3778.01 5722.3 3778.01 C 5723.08 3778.01 5723.81 3777.65 5724.29 3777.04 C 5724.77 3776.41 5724.92 3775.61 5724.72 3774.84 C 5724.41 3773.75 5723.96 3772.25 5723.38 3770.36 C 5718.03 3752.8 5701.73 3699.36 5701.41 3605.63 C 5701.36 3593.59 5684.77 3584.6 5669.96 3584.6"/>
    <path id="path764" style="fill:#f4d9bd;fill-opacity:1;fill-rule:nonzero;stroke:none" d="M 5632.52 3575.47 C 5632.52 3563.2 5642.45 3553.25 5654.73 3553.25 L 5684.11 3553.25 C 5696.36 3553.25 5706.32 3563.2 5706.32 3575.47 L 5706.32 3604.82 C 5706.32 3617.1 5696.36 3627.05 5684.11 3627.05 L 5654.73 3627.05 C 5642.45 3627.05 5632.52 3617.1 5632.52 3604.82 L 5632.52 3575.47"/>
    <path id="path766" style="fill:#000000;fill-opacity:1;fill-rule:nonzero;stroke:none" d="M 5654.73 3624.55 C 5643.86 3624.55 5635.02 3615.7 5635.02 3604.82 L 5635.02 3575.47 C 5635.02 3564.59 5643.86 3555.75 5654.73 3555.75 L 5684.11 3555.75 C 5694.98 3555.75 5703.82 3564.59 5703.82 3575.47 L 5703.82 3604.82 C 5703.82 3615.7 5694.98 3624.55 5684.11 3624.55 L 5654.73 3624.55 Z M 5684.11 3550.75 L 5654.73 3550.75 C 5641.1 3550.75 5630.02 3561.84 5630.02 3575.47 L 5630.02 3604.82 C 5630.02 3618.46 5641.1 3629.55 5654.73 3629.55 L 5684.11 3629.55 C 5697.73 3629.55 5708.82 3618.46 5708.82 3604.82 L 5708.82 3575.47 C 5708.82 3561.84 5697.73 3550.75 5684.11 3550.75"/>
    <path id="path768" style="fill:#59b587;fill-opacity:1;fill-rule:nonzero;stroke:none" d="M 5990.4 3724.2 C 6043.16 3694.09 6090.47 3693.48 6102.01 3694.12 C 6148.66 3696.72 6133.27 3751.77 6114.21 3751.83 C 6010.27 3752.21 5955.77 3772.08 5944.38 3775.21 C 5944.38 3775.21 5944.69 3750.28 5990.4 3724.2"/>
    <path id="path770" style="fill:#000000;fill-opacity:1;fill-rule:nonzero;stroke:none" d="M 5947.55 3771.66 C 5949.63 3764.09 5958 3745.57 5991.64 3726.38 C 6038.92 3699.4 6080.94 3696.49 6096.81 3696.49 L 6096.82 3696.49 C 6098.92 3696.49 6100.62 3696.54 6101.88 3696.61 C 6128.1 3698.07 6130.46 3716.1 6130.25 3723.79 C 6129.91 3736.89 6122.11 3749.3 6114.2 3749.33 C 6019.69 3749.68 5965.75 3766.12 5948.02 3771.52 C 5947.86 3771.57 5947.71 3771.61 5947.55 3771.66 Z M 6096.82 3691.49 L 6096.81 3691.49 C 6080.54 3691.49 6037.47 3694.46 5989.16 3722.03 C 5942.74 3748.51 5941.88 3774.11 5941.88 3775.18 C 5941.87 3775.96 5942.23 3776.71 5942.85 3777.19 C 5943.47 3777.68 5944.3 3777.84 5945.04 3777.63 C 5946.13 3777.32 5947.61 3776.88 5949.48 3776.3 C 5967.03 3770.96 6020.45 3754.67 6114.22 3754.33 C 6125 3754.3 6134.83 3740.08 6135.25 3723.92 C 6135.44 3716.79 6133.6 3693.38 6102.15 3691.62 C 6100.82 3691.55 6099.02 3691.49 6096.82 3691.49"/>
    <path id="path772" style="fill:#c9a88b;fill-opacity:1;fill-rule:nonzero;stroke:none" d="M 6144.35 3759.23 C 6156.62 3759.23 6166.58 3749.3 6166.58 3737.04 L 6166.58 3707.64 C 6166.58 3695.4 6156.62 3685.44 6144.35 3685.44 L 6114.99 3685.44 C 6102.71 3685.44 6092.75 3695.4 6092.75 3707.64 L 6092.75 3737.04 C 6092.75 3749.3 6102.71 3759.23 6114.99 3759.23 L 6144.35 3759.23"/>
    <path id="path774" style="fill:#000000;fill-opacity:1;fill-rule:nonzero;stroke:none" d="M 6114.99 3756.73 C 6104.11 3756.73 6095.25 3747.9 6095.25 3737.04 L 6095.25 3707.64 C 6095.25 3696.78 6104.11 3687.94 6114.99 3687.94 L 6144.35 3687.94 C 6155.22 3687.94 6164.08 3696.78 6164.08 3707.64 L 6164.08 3737.04 C 6164.08 3747.9 6155.22 3756.73 6144.35 3756.73 L 6114.99 3756.73 Z M 6144.35 3682.94 L 6114.99 3682.94 C 6101.35 3682.94 6090.25 3694.02 6090.25 3707.64 L 6090.25 3737.04 C 6090.25 3750.65 6101.35 3761.73 6114.99 3761.73 L 6144.35 3761.73 C 6157.99 3761.73 6169.08 3750.65 6169.08 3737.04 L 6169.08 3707.64 C 6169.08 3694.02 6157.99 3682.94 6144.35 3682.94"/>
    <path id="path776" style="fill:#f4d9bd;fill-opacity:1;fill-rule:nonzero;stroke:none" d="M 6107.61 3759.23 C 6115.77 3759.23 6122.4 3752.62 6122.4 3744.42 L 6122.4 3731.49 C 6122.4 3723.31 6115.77 3716.68 6107.61 3716.68 L 6107.61 3716.68 C 6099.41 3716.68 6092.75 3723.31 6092.75 3731.49 L 6092.75 3744.42 C 6092.75 3752.62 6099.41 3759.23 6107.61 3759.23 L 6107.61 3759.23"/>
    <path id="path778" style="fill:#000000;fill-opacity:1;fill-rule:nonzero;stroke:none" d="M 6107.61 3756.73 C 6100.79 3756.73 6095.25 3751.21 6095.25 3744.42 L 6095.25 3731.49 C 6095.25 3724.71 6100.79 3719.18 6107.61 3719.18 C 6114.38 3719.18 6119.9 3724.71 6119.9 3731.49 L 6119.9 3744.42 C 6119.9 3751.21 6114.38 3756.73 6107.61 3756.73 Z M 6107.61 3714.18 C 6098.04 3714.18 6090.25 3721.95 6090.25 3731.49 L 6090.25 3744.42 C 6090.25 3753.96 6098.04 3761.73 6107.61 3761.73 C 6117.15 3761.73 6124.9 3753.96 6124.9 3744.42 L 6124.9 3731.49 C 6124.9 3721.95 6117.15 3714.18 6107.61 3714.18"/>
    <path id="path780" style="fill:#59b587;fill-opacity:1;fill-rule:nonzero;stroke:none" d="M 5750.94 3491.19 L 5717.58 3491.19 L 5717.58 3582.21 L 5784.33 3582.21 L 5750.94 3491.19"/>
    <path id="path782" style="fill:#000000;fill-opacity:1;fill-rule:nonzero;stroke:none" d="M 5720.08 3493.69 L 5749.19 3493.69 L 5780.74 3579.71 L 5720.08 3579.71 L 5720.08 3493.69 Z M 5750.94 3488.69 L 5717.58 3488.69 C 5716.2 3488.69 5715.08 3489.81 5715.08 3491.19 L 5715.08 3582.21 C 5715.08 3583.59 5716.2 3584.71 5717.58 3584.71 L 5784.33 3584.71 C 5785.15 3584.71 5785.91 3584.3 5786.38 3583.64 C 5786.85 3582.97 5786.95 3582.11 5786.67 3581.35 L 5753.28 3490.33 C 5752.92 3489.34 5751.98 3488.69 5750.94 3488.69"/>
    <path id="path784" style="fill:#59b587;fill-opacity:1;fill-rule:nonzero;stroke:none" d="M 5923.65 3491.19 L 5957.04 3491.19 L 5957.04 3582.21 L 5890.29 3582.21 L 5923.65 3491.19"/>
    <path id="path786" style="fill:#000000;fill-opacity:1;fill-rule:nonzero;stroke:none" d="M 5925.4 3493.69 L 5954.54 3493.69 L 5954.54 3579.71 L 5893.87 3579.71 L 5925.4 3493.69 Z M 5957.04 3488.69 L 5923.65 3488.69 C 5922.61 3488.69 5921.67 3489.34 5921.31 3490.33 L 5887.95 3581.35 C 5887.67 3582.11 5887.77 3582.97 5888.24 3583.64 C 5888.71 3584.3 5889.47 3584.71 5890.29 3584.71 L 5957.04 3584.71 C 5958.42 3584.71 5959.54 3583.59 5959.54 3582.21 L 5959.54 3491.19 C 5959.54 3489.81 5958.42 3488.69 5957.04 3488.69"/>
    <path id="path788" style="fill:#7acea6;fill-opacity:1;fill-rule:nonzero;stroke:none" d="M 5722.3 3775.51 C 5706.01 3746.79 5696.36 3711.76 5696.36 3673.86 C 5696.36 3635.97 5706.01 3600.93 5722.3 3572.2 C 5754.81 3557.8 5794.41 3549.25 5837.32 3549.25 C 5880.21 3549.25 5919.8 3557.8 5952.31 3572.2 C 5968.61 3600.93 5978.29 3635.95 5978.29 3673.86 C 5978.29 3711.76 5968.58 3746.79 5952.29 3775.52 C 5919.78 3789.93 5880.18 3798.46 5837.32 3798.46 C 5794.44 3798.46 5754.81 3789.93 5722.3 3775.51"/>
    <path id="path790" style="fill:#000000;fill-opacity:1;fill-rule:nonzero;stroke:none" d="M 5724.07 3574.15 C 5757.49 3559.49 5796.63 3551.75 5837.32 3551.75 C 5878 3551.75 5917.13 3559.49 5950.55 3574.15 C 5967.06 3603.58 5975.79 3638.04 5975.79 3673.86 C 5975.79 3709.66 5967.05 3744.11 5950.52 3773.56 C 5917.13 3788.22 5878.01 3795.96 5837.32 3795.96 C 5796.6 3795.96 5757.46 3788.21 5724.07 3773.55 C 5707.58 3744.18 5698.86 3709.73 5698.86 3673.86 C 5698.86 3638 5707.58 3603.54 5724.07 3574.15 Z M 5837.32 3546.75 C 5795.63 3546.75 5755.51 3554.75 5721.29 3569.91 C 5720.8 3570.13 5720.39 3570.5 5720.13 3570.96 C 5702.94 3601.26 5693.86 3636.84 5693.86 3673.86 C 5693.86 3710.88 5702.94 3746.46 5720.13 3776.74 C 5720.39 3777.21 5720.8 3777.58 5721.29 3777.79 C 5755.47 3792.95 5795.6 3800.96 5837.32 3800.96 C 5879 3800.96 5919.11 3792.96 5953.3 3777.8 C 5953.79 3777.59 5954.2 3777.21 5954.46 3776.75 C 5971.69 3746.39 5980.79 3710.81 5980.79 3673.86 C 5980.79 3636.88 5971.7 3601.3 5954.49 3570.96 C 5954.23 3570.5 5953.82 3570.13 5953.33 3569.91 C 5919.11 3554.75 5879 3546.75 5837.32 3546.75"/>
    <path id="path792" style="fill:#59b587;fill-opacity:1;fill-rule:nonzero;stroke:none" d="M 5722.3 3775.51 C 5719.21 3770.05 5716.44 3764.3 5713.84 3758.41 C 5737.93 3743.75 5766.12 3735.14 5796.4 3735.14 L 5870.25 3735.14 C 5903.14 3735.14 5933.7 3745.13 5959.07 3762.21 C 5956.94 3766.77 5954.72 3771.23 5952.29 3775.52 C 5919.78 3789.93 5880.18 3798.46 5837.32 3798.46 C 5794.44 3798.46 5754.81 3789.93 5722.3 3775.51"/>
    <path id="path794" style="fill:#000000;fill-opacity:1;fill-rule:nonzero;stroke:none" d="M 5724.07 3574.15 C 5757.49 3559.49 5796.63 3551.75 5837.32 3551.75 C 5878 3551.75 5917.13 3559.49 5950.55 3574.15 C 5967.06 3603.58 5975.79 3638.04 5975.79 3673.86 C 5975.79 3709.66 5967.05 3744.11 5950.52 3773.56 C 5917.13 3788.22 5878.01 3795.96 5837.32 3795.96 C 5796.6 3795.96 5757.46 3788.21 5724.07 3773.55 C 5707.58 3744.18 5698.86 3709.73 5698.86 3673.86 C 5698.86 3638 5707.58 3603.54 5724.07 3574.15 Z M 5837.32 3546.75 C 5795.63 3546.75 5755.51 3554.75 5721.29 3569.91 C 5720.8 3570.13 5720.39 3570.5 5720.13 3570.96 C 5702.94 3601.26 5693.86 3636.84 5693.86 3673.86 C 5693.86 3710.88 5702.94 3746.46 5720.13 3776.74 C 5720.39 3777.21 5720.8 3777.58 5721.29 3777.79 C 5755.47 3792.95 5795.6 3800.96 5837.32 3800.96 C 5879 3800.96 5919.11 3792.96 5953.3 3777.8 C 5953.79 3777.59 5954.2 3777.21 5954.46 3776.75 C 5971.69 3746.39 5980.79 3710.81 5980.79 3673.86 C 5980.79 3636.88 5971.7 3601.3 5954.49 3570.96 C 5954.23 3570.5 5953.82 3570.13 5953.33 3569.91 C 5919.11 3554.75 5879 3546.75 5837.32 3546.75"/>
    <path id="path796" style="fill:#59b587;fill-opacity:1;fill-rule:nonzero;stroke:none" d="M 5819.3 3669.96 L 5856.069 3669.96 L 5856.069 3785.358 L 5819.3 3785.358 L 5819.3 3669.96 Z"/>
    <path id="path798" style="fill:#000000;fill-opacity:1;fill-rule:nonzero;stroke:none" d="M 5821.8 3672.46 L 5853.57 3672.46 L 5853.57 3782.86 L 5821.8 3782.86 L 5821.8 3672.46 Z M 5856.07 3667.46 L 5819.3 3667.46 C 5817.92 3667.46 5816.8 3668.58 5816.8 3669.96 L 5816.8 3785.36 C 5816.8 3786.75 5817.92 3787.86 5819.3 3787.86 L 5856.07 3787.86 C 5857.45 3787.86 5858.57 3786.75 5858.57 3785.36 L 5858.57 3669.96 C 5858.57 3668.58 5857.45 3667.46 5856.07 3667.46"/>
    <path id="path800" style="fill:#f4d9bd;fill-opacity:1;fill-rule:nonzero;stroke:none" d="M 6029.47 3924.37 C 6029.47 3836.45 5958.19 3765.14 5870.25 3765.14 L 5796.4 3765.14 C 5708.45 3765.14 5637.15 3836.45 5637.15 3924.37 L 5637.15 3924.37 C 5637.15 4012.3 5708.45 4083.6 5796.4 4083.6 L 5870.25 4083.6 C 5958.19 4083.6 6029.47 4012.3 6029.47 3924.37 L 6029.47 3924.37"/>
    <path id="path802" style="fill:#000000;fill-opacity:1;fill-rule:nonzero;stroke:none" d="M 5796.4 4081.1 C 5709.96 4081.1 5639.65 4010.79 5639.65 3924.37 C 5639.65 3837.95 5709.96 3767.64 5796.4 3767.64 L 5870.25 3767.64 C 5956.67 3767.64 6026.97 3837.95 6026.97 3924.37 C 6026.97 4010.79 5956.67 4081.1 5870.25 4081.1 L 5796.4 4081.1 Z M 5870.25 3762.64 L 5796.4 3762.64 C 5707.21 3762.64 5634.65 3835.2 5634.65 3924.37 C 5634.65 4013.55 5707.21 4086.1 5796.4 4086.1 L 5870.25 4086.1 C 5959.42 4086.1 6031.97 4013.55 6031.97 3924.37 C 6031.97 3835.2 5959.42 3762.64 5870.25 3762.64"/>
    <path id="path804" style="fill:#ffa364;fill-opacity:1;fill-rule:nonzero;stroke:none" d="M 5918.96 3873.07 L 5919.19 3874.02 C 5919.19 3887.87 5908 3899.07 5894.13 3899.07 L 5894.13 3881.04 C 5885.27 3881.04 5878.1 3873.85 5878.1 3865 C 5878.1 3856.14 5885.27 3848.95 5894.13 3848.95 L 5913.18 3848.95 C 5920.24 3848.95 5925.98 3854.67 5925.98 3861.73 C 5925.98 3866.69 5923.11 3870.96 5918.96 3873.07"/>
    <path id="path806" style="fill:#000000;fill-opacity:1;fill-rule:nonzero;stroke:none" d="M 5896.63 3896.43 L 5896.63 3881.04 C 5896.63 3879.66 5895.51 3878.54 5894.13 3878.54 C 5886.67 3878.54 5880.6 3872.46 5880.6 3865 C 5880.6 3857.53 5886.67 3851.45 5894.13 3851.45 L 5913.18 3851.45 C 5918.86 3851.45 5923.48 3856.06 5923.48 3861.73 C 5923.48 3865.57 5921.31 3869.07 5917.83 3870.84 C 5916.81 3871.37 5916.27 3872.52 5916.53 3873.64 L 5916.76 3874.6 C 5916.69 3885.65 5907.9 3895.18 5896.63 3896.43 Z M 5913.18 3846.45 L 5894.13 3846.45 C 5883.91 3846.45 5875.6 3854.77 5875.6 3865 C 5875.6 3874.38 5882.59 3882.15 5891.63 3883.37 L 5891.63 3899.07 C 5891.63 3900.45 5892.75 3901.57 5894.13 3901.57 C 5909.21 3901.57 5921.5 3889.4 5921.69 3874.37 C 5925.92 3871.54 5928.48 3866.85 5928.48 3861.73 C 5928.48 3853.31 5921.61 3846.45 5913.18 3846.45"/>
    <path id="path808" style="fill:#f4d9bd;fill-opacity:1;fill-rule:nonzero;stroke:none" d="M 5919.58 3861.3 C 5919.58 3857.41 5916.43 3854.26 5912.54 3854.26 C 5908.64 3854.26 5905.5 3857.41 5905.5 3861.3 C 5905.5 3865.2 5908.64 3868.35 5912.54 3868.35 C 5916.43 3868.35 5919.58 3865.2 5919.58 3861.3"/>
    <path id="path810" style="fill:#c9a88b;fill-opacity:1;fill-rule:nonzero;stroke:none" d="M 5979.46 4040.02 C 5927.98 4057.43 5878.38 4071.9 5834.43 4083.6 L 5796.4 4083.6 C 5711.67 4083.6 5642.59 4017.37 5637.63 3933.9 L 5638.52 3934 L 5638.52 3904.52 C 5646.16 3843.17 5688.65 3792.73 5745.63 3773.55 L 5745.63 3945.92 L 6020.57 3976.5 C 6012.08 4000.94 5997.87 4022.64 5979.46 4040.02"/>
    <path id="path812" style="fill:#000000;fill-opacity:1;fill-rule:nonzero;stroke:none" d="M 5796.4 4081.1 C 5709.96 4081.1 5639.65 4010.79 5639.65 3924.37 C 5639.65 3837.95 5709.96 3767.64 5796.4 3767.64 L 5870.25 3767.64 C 5956.67 3767.64 6026.97 3837.95 6026.97 3924.37 C 6026.97 4010.79 5956.67 4081.1 5870.25 4081.1 L 5796.4 4081.1 Z M 5870.25 3762.64 L 5796.4 3762.64 C 5707.21 3762.64 5634.65 3835.2 5634.65 3924.37 C 5634.65 4013.55 5707.21 4086.1 5796.4 4086.1 L 5870.25 4086.1 C 5959.42 4086.1 6031.97 4013.55 6031.97 3924.37 C 6031.97 3835.2 5959.42 3762.64 5870.25 3762.64"/>
    <path id="path814" style="fill:#2a5b6a;fill-opacity:1;fill-rule:nonzero;stroke:none" d="M 5628.52 4000.99 L 5628.52 3792.08 L 5643.23 3792.08 L 5649.99 3856 L 5656.16 3792.08 L 5735.63 3792.08 L 5735.63 4000.99 L 5628.52 4000.99"/>
    <path id="path816" style="fill:#000000;fill-opacity:1;fill-rule:nonzero;stroke:none" d="M 5658.43 3794.58 L 5733.13 3794.58 L 5733.13 3998.49 L 5631.02 3998.49 L 5631.02 3794.58 L 5640.99 3794.58 L 5647.5 3856.27 C 5647.64 3857.54 5648.71 3858.5 5649.99 3858.5 L 5650 3858.5 C 5651.29 3858.5 5652.35 3857.52 5652.48 3856.25 L 5658.43 3794.58 Z M 5735.63 3789.58 L 5656.16 3789.58 C 5654.87 3789.58 5653.8 3790.56 5653.67 3791.84 L 5649.87 3831.16 L 5645.72 3791.82 C 5645.59 3790.55 5644.51 3789.58 5643.23 3789.58 L 5628.52 3789.58 C 5627.14 3789.58 5626.02 3790.7 5626.02 3792.08 L 5626.02 4000.99 C 5626.02 4002.37 5627.14 4003.49 5628.52 4003.49 L 5735.63 4003.49 C 5737 4003.49 5738.13 4002.37 5738.13 4000.99 L 5738.13 3792.08 C 5738.13 3790.7 5737 3789.58 5735.63 3789.58"/>
    <path id="path818" style="fill:#00abd3;fill-opacity:1;fill-rule:nonzero;stroke:none" d="M 5799.08 3931.77 C 5784.71 3931.77 5773.13 3920.14 5773.13 3905.8 L 5824.85 3905.8 C 5824.85 3920.14 5813.31 3931.77 5799.08 3931.77"/>
    <path id="path820" style="fill:#000000;fill-opacity:1;fill-rule:nonzero;stroke:none" d="M 5775.77 3908.3 L 5822.23 3908.3 C 5820.98 3920.07 5811.07 3929.27 5799.08 3929.27 C 5786.99 3929.27 5777.02 3920.07 5775.77 3908.3 Z M 5824.85 3903.3 L 5773.13 3903.3 C 5771.76 3903.3 5770.63 3904.42 5770.63 3905.8 C 5770.63 3921.5 5783.4 3934.27 5799.08 3934.27 C 5814.67 3934.27 5827.35 3921.5 5827.35 3905.8 C 5827.35 3904.42 5826.23 3903.3 5824.85 3903.3"/>
    <path id="path822" style="fill:#f2f1e7;fill-opacity:1;fill-rule:nonzero;stroke:none" d="M 5860.08 3798.46 C 5874.4 3798.46 5886.01 3810.09 5886.01 3824.43 L 5834.29 3824.43 C 5834.29 3810.09 5845.83 3798.46 5860.08 3798.46"/>
    <path id="path824" style="fill:#000000;fill-opacity:1;fill-rule:nonzero;stroke:none" d="M 5836.91 3821.93 C 5838.16 3810.16 5848.08 3800.96 5860.08 3800.96 C 5872.16 3800.96 5882.13 3810.16 5883.37 3821.93 L 5836.91 3821.93 Z M 5860.08 3795.96 C 5844.48 3795.96 5831.79 3808.73 5831.79 3824.43 C 5831.79 3825.81 5832.91 3826.93 5834.29 3826.93 L 5886.01 3826.93 C 5887.38 3826.93 5888.51 3825.81 5888.51 3824.43 C 5888.51 3808.73 5875.75 3795.96 5860.08 3795.96"/>
    <path id="path826" style="fill:#00abd3;fill-opacity:1;fill-rule:nonzero;stroke:none" d="M 5987.83 3931.77 C 5973.48 3931.77 5961.92 3920.14 5961.92 3905.8 L 6013.65 3905.8 C 6013.65 3920.14 6002.08 3931.77 5987.83 3931.77"/>
    <path id="path828" style="fill:#000000;fill-opacity:1;fill-rule:nonzero;stroke:none" d="M 5964.56 3908.3 L 6011.03 3908.3 C 6009.78 3920.07 5999.85 3929.27 5987.83 3929.27 C 5975.77 3929.27 5965.8 3920.07 5964.56 3908.3 Z M 6013.65 3903.3 L 5961.92 3903.3 C 5960.55 3903.3 5959.42 3904.42 5959.42 3905.8 C 5959.42 3921.5 5972.17 3934.27 5987.83 3934.27 C 6003.45 3934.27 6016.15 3921.5 6016.15 3905.8 C 6016.15 3904.42 6015.03 3903.3 6013.65 3903.3"/>
    <path id="path830" style="fill:#2a5b6a;fill-opacity:1;fill-rule:nonzero;stroke:none" d="M 5850.16 3951.02 L 5747.86 3936.74 L 5747.86 3965.2 L 5850.16 3997.3 L 5850.16 3951.02"/>
    <path id="path832" style="fill:#000000;fill-opacity:1;fill-rule:nonzero;stroke:none" d="M 5750.36 3963.36 L 5750.36 3939.61 L 5847.66 3953.19 L 5847.66 3993.89 L 5750.36 3963.36 Z M 5747.86 3934.24 C 5747.27 3934.24 5746.68 3934.46 5746.22 3934.86 C 5745.67 3935.33 5745.36 3936.02 5745.36 3936.74 L 5745.36 3965.2 C 5745.36 3966.29 5746.07 3967.25 5747.11 3967.58 L 5849.4 3999.69 C 5850.15 3999.92 5850.99 3999.79 5851.64 3999.32 C 5852.28 3998.84 5852.66 3998.09 5852.66 3997.3 L 5852.66 3951.02 C 5852.66 3949.77 5851.74 3948.71 5850.5 3948.54 L 5748.2 3934.27 C 5748.1 3934.25 5747.98 3934.24 5747.86 3934.24"/>
    <path id="path834" style="fill:#2a5b6a;fill-opacity:1;fill-rule:nonzero;stroke:none" d="M 5946.46 3950.99 L 6029.07 3936.74 L 6029.07 3965.27 L 5946.46 3997.27 L 5946.46 3950.99"/>
    <path id="path836" style="fill:#000000;fill-opacity:1;fill-rule:nonzero;stroke:none" d="M 5948.96 3953.09 L 6026.57 3939.71 L 6026.57 3963.56 L 5948.96 3993.62 L 5948.96 3953.09 Z M 6029.07 3934.24 C 6028.94 3934.24 6028.79 3934.25 6028.64 3934.28 L 5946.03 3948.52 C 5944.83 3948.73 5943.96 3949.77 5943.96 3950.99 L 5943.96 3997.27 C 5943.96 3998.09 5944.37 3998.86 5945.04 3999.32 C 5945.73 3999.79 5946.6 3999.9 5947.35 3999.59 L 6029.97 3967.6 C 6030.94 3967.23 6031.57 3966.3 6031.57 3965.27 L 6031.57 3936.74 C 6031.57 3936 6031.25 3935.3 6030.68 3934.83 C 6030.22 3934.45 6029.66 3934.24 6029.07 3934.24"/>
    <path id="path838" style="fill:#59b587;fill-opacity:1;fill-rule:nonzero;stroke:none" d="M 5628.52 4000.99 C 5628.52 4000.99 5654.78 4136.07 5711.07 4193.28 C 5711.07 4193.28 5898.12 4161.63 6107.01 4027.23 L 5632.75 4000.33 L 5628.52 4000.99"/>
    <path id="path840" style="fill:#000000;fill-opacity:1;fill-rule:nonzero;stroke:none" d="M 5631.49 4003.05 L 5632.88 4002.84 L 6099.15 4029.29 C 5904.61 4152.72 5728.65 4187.49 5711.93 4190.59 C 5661.64 4138.39 5635.43 4021.75 5631.49 4003.05 Z M 5632.75 3997.83 C 5632.63 3997.83 5632.49 3997.84 5632.36 3997.86 L 5628.13 3998.52 C 5627.46 3998.63 5626.86 3999 5626.46 3999.55 C 5626.07 4000.11 5625.93 4000.8 5626.06 4001.47 C 5627.14 4007.01 5653.12 4137.95 5709.3 4195.03 C 5709.86 4195.61 5710.63 4195.88 5711.49 4195.75 C 5713.37 4195.43 5901.44 4162.46 6108.37 4029.34 C 6109.28 4028.75 6109.71 4027.64 6109.43 4026.6 C 6109.15 4025.55 6108.23 4024.8 6107.15 4024.74 L 5632.89 3997.83 C 5632.85 3997.83 5632.8 3997.83 5632.75 3997.83"/>
    <path id="path842" style="fill:#7acea6;fill-opacity:1;fill-rule:nonzero;stroke:none" d="M 5575.91 3969.29 C 5575.91 3969.29 5602.15 4104.41 5658.45 4161.63 C 5658.45 4161.63 5895.84 4119.64 6107.01 4027.23 L 5580.13 3968.62 L 5575.91 3969.29"/>
    <path id="path844" style="fill:#000000;fill-opacity:1;fill-rule:nonzero;stroke:none" d="M 5578.89 3971.35 L 5580.19 3971.14 L 6097.39 4028.68 C 5899.09 4113.88 5678.3 4155.45 5659.31 4158.93 C 5609 4106.72 5582.82 3990.04 5578.89 3971.35 Z M 5580.13 3966.12 C 5580 3966.12 5579.86 3966.13 5579.74 3966.14 L 5575.52 3966.82 C 5574.84 3966.92 5574.25 3967.3 5573.86 3967.85 C 5573.47 3968.41 5573.32 3969.09 5573.46 3969.77 C 5574.53 3975.31 5600.49 4106.29 5656.67 4163.38 C 5657.25 4163.96 5658.08 4164.22 5658.89 4164.09 C 5661.26 4163.66 5898.98 4120.99 6108.02 4029.52 C 6109.05 4029.07 6109.66 4027.98 6109.48 4026.86 C 6109.32 4025.74 6108.41 4024.88 6107.29 4024.75 L 5580.4 3966.13 C 5580.31 3966.12 5580.21 3966.12 5580.13 3966.12"/>
    <path id="path846" style="fill:#f4d9bd;fill-opacity:1;fill-rule:nonzero;stroke:none" d="M 5652.54 4021.28 L 5652.54 3894.61 C 5652.54 3878.29 5665.75 3865.05 5682.06 3865.05 C 5698.39 3865.05 5711.62 3878.29 5711.62 3894.61 L 5652.54 4021.28"/>
    <path id="path848" style="fill:#000000;fill-opacity:1;fill-rule:nonzero;stroke:none" d="M 5655.04 4010 L 5655.04 3894.61 C 5655.04 3879.69 5667.16 3867.55 5682.06 3867.55 C 5696.8 3867.55 5708.83 3879.39 5709.11 3894.07 L 5655.04 4010 Z M 5682.06 3862.55 C 5664.4 3862.55 5650.04 3876.93 5650.04 3894.61 L 5650.04 4021.28 C 5650.04 4022.45 5650.85 4023.46 5652 4023.72 C 5653.13 4023.96 5654.31 4023.4 5654.8 4022.33 L 5713.89 3895.66 C 5714.04 3895.34 5714.12 3894.97 5714.12 3894.61 C 5714.12 3876.93 5699.74 3862.55 5682.06 3862.55"/>
    <path id="path850" style="fill:#7acea6;fill-opacity:1;fill-rule:nonzero;stroke:none" d="M 5736.46 3534.65 L 5778.43 3534.65 L 5778.43 3515.81 L 5814.7 3515.81 L 5814.7 3534.65 L 5856.67 3534.65 L 5856.67 3515.81 L 5892.92 3515.81 L 5892.92 3534.65 L 5934.86 3534.65 L 5934.86 3515.81 L 5965 3515.81 L 5957.04 3582.21 L 5717.58 3582.21 L 5706.32 3515.81 L 5736.46 3515.81 L 5736.46 3534.65"/>
    <path id="path852" style="fill:#000000;fill-opacity:1;fill-rule:nonzero;stroke:none" d="M 5937.36 3518.31 L 5962.18 3518.31 L 5954.82 3579.71 L 5719.69 3579.71 L 5709.28 3518.31 L 5733.96 3518.31 L 5733.96 3534.65 C 5733.96 3536.03 5735.08 3537.15 5736.46 3537.15 L 5778.43 3537.15 C 5779.8 3537.15 5780.93 3536.03 5780.93 3534.65 L 5780.93 3518.31 L 5812.2 3518.31 L 5812.2 3534.65 C 5812.2 3536.03 5813.32 3537.15 5814.7 3537.15 L 5856.67 3537.15 C 5858.05 3537.15 5859.17 3536.03 5859.17 3534.65 L 5859.17 3518.31 L 5890.42 3518.31 L 5890.42 3534.65 C 5890.42 3536.03 5891.54 3537.15 5892.92 3537.15 L 5934.86 3537.15 C 5936.24 3537.15 5937.36 3536.03 5937.36 3534.65 L 5937.36 3518.31 Z M 5965.13 3513.31 C 5965.1 3513.31 5965.06 3513.31 5965 3513.31 L 5934.86 3513.31 C 5933.49 3513.31 5932.36 3514.43 5932.36 3515.81 L 5932.36 3532.15 L 5895.42 3532.15 L 5895.42 3515.81 C 5895.42 3514.43 5894.3 3513.31 5892.92 3513.31 L 5856.67 3513.31 C 5855.29 3513.31 5854.17 3514.43 5854.17 3515.81 L 5854.17 3532.15 L 5817.2 3532.15 L 5817.2 3515.81 C 5817.2 3514.43 5816.07 3513.31 5814.7 3513.31 L 5778.43 3513.31 C 5777.05 3513.31 5775.93 3514.43 5775.93 3515.81 L 5775.93 3532.15 L 5738.96 3532.15 L 5738.96 3515.81 C 5738.96 3514.43 5737.83 3513.31 5736.46 3513.31 L 5706.32 3513.31 C 5705.59 3513.31 5704.88 3513.64 5704.4 3514.2 C 5703.94 3514.77 5703.73 3515.51 5703.86 3516.23 L 5715.12 3582.63 C 5715.31 3583.83 5716.36 3584.71 5717.58 3584.71 L 5957.04 3584.71 C 5958.31 3584.71 5959.38 3583.76 5959.52 3582.5 L 5967.39 3516.87 C 5967.54 3516.55 5967.63 3516.19 5967.63 3515.81 C 5967.63 3514.43 5966.5 3513.31 5965.13 3513.31"/>
    <path id="path854" style="fill:#59b587;fill-opacity:1;fill-rule:nonzero;stroke:none" d="M 5710.37 3560.68 L 5964.999 3560.68 L 5964.999 3597.43 L 5710.37 3597.43 L 5710.37 3560.68 Z"/>
    <path id="path856" style="fill:#000000;fill-opacity:1;fill-rule:nonzero;stroke:none" d="M 5712.87 3563.18 L 5962.5 3563.18 L 5962.5 3594.93 L 5712.87 3594.93 L 5712.87 3563.18 Z M 5965 3558.18 L 5710.37 3558.18 C 5708.99 3558.18 5707.87 3559.3 5707.87 3560.68 L 5707.87 3597.43 C 5707.87 3598.81 5708.99 3599.93 5710.37 3599.93 L 5965 3599.93 C 5966.38 3599.93 5967.5 3598.81 5967.5 3597.43 L 5967.5 3560.68 C 5967.5 3559.3 5966.38 3558.18 5965 3558.18"/>
    <path id="path858" style="fill:#ffb103;fill-opacity:1;fill-rule:nonzero;stroke:none" d="M 5965 3597.43 L 5965 3560.68 L 5689.73 3758.19 L 5710.81 3779.26 L 5965 3597.43"/>
    <path id="path860" style="fill:#000000;fill-opacity:1;fill-rule:nonzero;stroke:none" d="M 5693.57 3758.5 L 5962.5 3565.55 L 5962.5 3596.14 L 5711.08 3776 L 5693.57 3758.5 Z M 5965 3558.18 C 5964.48 3558.18 5963.97 3558.33 5963.54 3558.64 L 5688.27 3756.16 C 5687.68 3756.59 5687.29 3757.25 5687.24 3757.98 C 5687.18 3758.71 5687.44 3759.44 5687.96 3759.95 L 5709.04 3781.03 C 5709.91 3781.9 5711.27 3782.02 5712.27 3781.29 L 5966.46 3599.46 C 5967.11 3598.99 5967.5 3598.23 5967.5 3597.43 L 5967.5 3560.68 C 5967.5 3559.74 5966.97 3558.88 5966.14 3558.46 C 5965.78 3558.27 5965.39 3558.18 5965 3558.18"/>
    <path id="path862" style="fill:#eb4900;fill-opacity:1;fill-rule:nonzero;stroke:none" d="M 6132.93 3741.26 C 6127.27 3741.26 6122.61 3745.79 6122.48 3751.46 C 6120.81 3823.7 6092.78 3854.13 6068.08 3880.96 C 6049.75 3900.8 6032.48 3919.56 6032.48 3950.4 C 6032.48 3956.17 6037.16 3960.85 6042.93 3960.85 C 6048.7 3960.85 6053.36 3956.17 6053.36 3950.4 C 6053.36 3927.73 6065.97 3914.05 6083.42 3895.12 C 6109.32 3867.01 6141.53 3832.06 6143.36 3751.95 C 6143.49 3746.18 6138.92 3741.4 6133.16 3741.26 C 6133.06 3741.26 6132.98 3741.26 6132.93 3741.26"/>
    <path id="path864" style="fill:#000000;fill-opacity:1;fill-rule:nonzero;stroke:none" d="M 6042.93 3958.35 C 6038.54 3958.35 6034.98 3954.79 6034.98 3950.4 C 6034.98 3920.47 6051.95 3902.1 6069.91 3882.66 C 6094.94 3855.48 6123.29 3824.69 6124.98 3751.52 C 6125.08 3747.24 6128.64 3743.76 6132.93 3743.76 L 6133.16 3741.26 L 6133.11 3743.76 C 6137.48 3743.87 6140.96 3747.51 6140.86 3751.89 C 6139.05 3831.04 6107.2 3865.62 6081.6 3893.4 C 6063.75 3912.77 6050.86 3926.74 6050.86 3950.4 C 6050.86 3954.79 6047.3 3958.35 6042.93 3958.35 Z M 6133.16 3738.76 L 6132.93 3738.76 C 6125.95 3738.76 6120.14 3744.43 6119.98 3751.41 C 6118.33 3822.7 6090.66 3852.74 6066.25 3879.25 C 6047.6 3899.45 6029.98 3918.52 6029.98 3950.4 C 6029.98 3957.54 6035.79 3963.35 6042.93 3963.35 C 6050.06 3963.35 6055.86 3957.54 6055.86 3950.4 C 6055.86 3928.7 6068.19 3915.33 6085.25 3896.82 C 6111.45 3868.39 6144.01 3833.04 6145.86 3752 C 6146.02 3744.88 6140.35 3738.93 6133.22 3738.76 C 6133.2 3738.76 6133.18 3738.76 6133.16 3738.76"/>
    <path id="path866" style="fill:#eb4900;fill-opacity:1;fill-rule:nonzero;stroke:none" d="M 6042.93 3491.19 C 6037.16 3491.19 6032.48 3495.86 6032.48 3501.63 C 6032.48 3532.47 6049.75 3551.23 6068.08 3571.08 C 6092.78 3597.91 6120.81 3628.34 6122.48 3700.57 C 6122.61 3706.31 6126.74 3710.88 6133.16 3710.77 C 6138.92 3710.63 6143.49 3705.85 6143.36 3700.08 C 6141.53 3619.98 6109.32 3585.02 6083.42 3556.92 C 6065.97 3538 6053.36 3524.31 6053.36 3501.63 C 6053.36 3495.86 6048.7 3491.19 6042.93 3491.19"/>
    <path id="path868" style="fill:#000000;fill-opacity:1;fill-rule:nonzero;stroke:none" d="M 6133.1 3708.27 C 6128.28 3708.27 6125.08 3705.16 6124.98 3700.52 C 6123.29 3627.36 6094.94 3596.57 6069.93 3569.4 C 6051.95 3549.93 6034.98 3531.55 6034.98 3501.63 C 6034.98 3497.25 6038.54 3493.69 6042.93 3493.69 C 6047.3 3493.69 6050.86 3497.25 6050.86 3501.63 C 6050.86 3525.3 6063.75 3539.28 6081.58 3558.61 C 6107.19 3586.41 6139.05 3620.98 6140.86 3700.14 C 6140.96 3704.52 6137.47 3708.16 6133.1 3708.27 L 6133.1 3708.27 Z M 6042.93 3488.69 C 6035.79 3488.69 6029.98 3494.5 6029.98 3501.63 C 6029.98 3533.51 6047.6 3552.58 6066.24 3572.77 C 6090.66 3599.3 6118.33 3629.36 6119.98 3700.63 C 6120.15 3707.96 6125.6 3713.27 6132.94 3713.27 C 6140.35 3713.09 6146.02 3707.15 6145.86 3700.03 C 6144.01 3618.98 6111.44 3583.64 6085.26 3555.23 C 6068.19 3536.72 6055.86 3523.35 6055.86 3501.63 C 6055.86 3494.5 6050.06 3488.69 6042.93 3488.69"/>
    <path id="path870" style="fill:#8192a4;fill-opacity:1;fill-rule:nonzero;stroke:none" d="M 6144.79 3755.22 L 6121.04 3755.24 L 6121.07 3696.8 L 6144.79 3696.8 L 6144.79 3755.22"/>
    <path id="path872" style="fill:#000000;fill-opacity:1;fill-rule:nonzero;stroke:none" d="M 6123.57 3699.3 L 6142.29 3699.3 L 6142.29 3752.72 L 6123.54 3752.74 L 6123.57 3699.3 Z M 6144.79 3694.3 L 6121.07 3694.3 C 6119.7 3694.3 6118.57 3695.42 6118.57 3696.8 L 6118.54 3755.24 C 6118.54 3755.9 6118.81 3756.54 6119.28 3757 C 6119.75 3757.47 6120.38 3757.74 6121.04 3757.74 L 6121.04 3757.74 L 6144.79 3757.72 C 6146.17 3757.72 6147.29 3756.6 6147.29 3755.22 L 6147.29 3696.8 C 6147.29 3695.42 6146.16 3694.3 6144.79 3694.3"/>
  </g>
</svg>