<?xml version="1.0" encoding="utf-8"?>
<svg viewBox="3.365999937057495 417.1780090332031 86.3270034790039 108.95999908447266" width="86.3270034790039" height="108.95999908447266" xmlns="http://www.w3.org/2000/svg">
  <g transform="matrix(0.12500000186264515, 0, 0, -0.12500000186264515, 0, 526.1375122070312)">
    <path id="path40" style="fill:#ddd8bf;fill-opacity:1;fill-rule:nonzero;stroke:none" d="M 615.977 27.141 C 615.977 12.16 504.668 0 367.363 0 C 230.063 0 118.746 12.16 118.746 27.141 C 118.746 42.129 230.063 54.289 367.363 54.289 C 504.668 54.289 615.977 42.129 615.977 27.141"/>
    <path id="path2542" style="fill:#41996b;fill-opacity:1;fill-rule:nonzero;stroke:none" d="M 505.57 312.57 C 519.293 298.852 519.293 276.602 505.57 262.859 C 491.855 249.141 469.578 249.141 455.863 262.859 C 442.129 276.602 442.141 298.852 455.852 312.57 C 469.578 326.289 491.848 326.281 505.57 312.57"/>
    <path id="path2544" style="fill:#000000;fill-opacity:1;fill-rule:nonzero;stroke:none" d="M 480.707 320.352 C 471.98 320.352 463.785 316.969 457.617 310.801 C 444.895 298.07 444.902 277.359 457.633 264.629 C 463.793 258.469 471.992 255.07 480.719 255.07 C 489.441 255.07 497.641 258.469 503.805 264.629 C 516.527 277.371 516.527 298.082 503.805 310.801 C 497.637 316.969 489.434 320.352 480.707 320.352 Z M 480.719 250.07 C 470.652 250.07 461.199 253.992 454.098 261.102 C 439.414 275.77 439.41 299.648 454.082 314.34 C 461.191 321.449 470.648 325.352 480.707 325.352 C 490.766 325.352 500.227 321.449 507.34 314.34 C 522.012 299.66 522.012 275.781 507.34 261.102 C 500.234 253.992 490.781 250.07 480.719 250.07"/>
    <path id="path2546" style="fill:#41996b;fill-opacity:1;fill-rule:nonzero;stroke:none" d="M 505.57 275.289 C 519.293 261.559 519.293 239.301 505.57 225.57 C 491.855 211.859 469.578 211.859 455.863 225.582 C 442.141 239.301 442.141 261.582 455.852 275.289 C 469.578 289.012 491.848 289.012 505.57 275.289"/>
    <path id="path2548" style="fill:#000000;fill-opacity:1;fill-rule:nonzero;stroke:none" d="M 480.715 283.082 C 471.988 283.082 463.785 279.68 457.617 273.52 C 451.461 267.359 448.066 259.16 448.066 250.43 C 448.07 241.711 451.465 233.512 457.633 227.352 C 463.793 221.18 471.996 217.789 480.723 217.789 C 489.449 217.789 497.641 221.18 503.805 227.34 C 516.527 240.07 516.527 260.781 503.805 273.52 C 497.637 279.68 489.438 283.082 480.715 283.082 Z M 480.723 212.789 C 470.66 212.789 461.199 216.699 454.098 223.809 C 446.988 230.922 443.07 240.371 443.066 250.43 C 443.066 260.5 446.977 269.949 454.082 277.051 C 461.195 284.16 470.652 288.082 480.715 288.082 C 490.77 288.082 500.23 284.16 507.34 277.051 C 522.012 262.379 522.012 238.48 507.34 223.801 C 500.234 216.699 490.781 212.789 480.723 212.789"/>
    <path id="path2550" style="fill:#41996b;fill-opacity:1;fill-rule:nonzero;stroke:none" d="M 536.996 236.609 C 555.598 218.02 559.293 191.551 545.297 177.551 C 531.273 163.539 504.828 167.25 486.23 185.852 C 467.617 204.461 463.906 230.898 477.93 244.93 C 491.938 258.949 518.383 255.23 536.996 236.609"/>
    <path id="path2552" style="fill:#000000;fill-opacity:1;fill-rule:nonzero;stroke:none" d="M 499.941 250.922 C 491.773 250.922 484.77 248.25 479.695 243.172 C 466.672 230.129 470.395 205.219 487.996 187.621 C 498.051 177.559 511.234 171.559 523.266 171.559 C 531.441 171.559 538.445 174.242 543.531 179.32 C 549.73 185.52 552.348 194.641 550.895 205.012 C 549.402 215.641 543.84 226.23 535.23 234.852 C 525.16 244.922 511.969 250.922 499.941 250.922 Z M 523.266 166.559 C 509.742 166.559 495.598 172.941 484.465 184.09 C 464.91 203.629 461.188 231.711 476.16 246.699 C 482.191 252.742 490.414 255.922 499.941 255.922 C 513.469 255.922 527.617 249.531 538.766 238.379 C 548.141 229.012 554.203 217.41 555.844 205.711 C 557.523 193.75 554.402 183.121 547.066 175.781 C 541.023 169.75 532.797 166.559 523.266 166.559"/>
    <path id="path2554" style="fill:#41996b;fill-opacity:1;fill-rule:nonzero;stroke:none" d="M 593.262 183.109 C 601.965 174.449 601.93 160.352 593.285 151.68 L 572.496 130.891 C 563.84 122.23 549.758 122.219 541.098 130.922 L 520.344 151.68 C 511.656 160.359 511.656 174.449 520.313 183.082 L 541.098 203.871 C 549.746 212.551 563.832 212.512 572.523 203.832 L 593.262 183.109"/>
    <path id="path2556" style="fill:#000000;fill-opacity:1;fill-rule:nonzero;stroke:none" d="M 556.758 207.859 C 551.5 207.859 546.566 205.809 542.871 202.102 L 522.078 181.309 C 518.367 177.609 516.328 172.68 516.324 167.43 C 516.316 162.141 518.375 157.18 522.109 153.449 L 542.867 132.691 C 550.309 125.211 563.297 125.199 570.727 132.66 L 591.52 153.449 C 595.23 157.172 597.273 162.129 597.281 167.398 C 597.281 172.68 595.227 177.629 591.5 181.34 L 570.758 202.059 C 567.012 205.801 562.043 207.859 556.758 207.859 Z M 556.809 121.898 C 550.195 121.898 543.984 124.48 539.324 129.148 L 518.574 149.922 C 513.895 154.59 511.316 160.809 511.324 167.43 C 511.328 174.02 513.891 180.211 518.547 184.852 L 539.332 205.641 C 548.621 214.961 564.934 214.961 574.293 205.602 L 595.027 184.879 C 599.703 180.23 602.281 174.02 602.281 167.398 C 602.273 160.789 599.711 154.59 595.059 149.922 L 574.262 129.121 C 569.605 124.469 563.402 121.898 556.809 121.898"/>
    <path id="path2558" style="fill:#59b587;fill-opacity:1;fill-rule:nonzero;stroke:none" d="M 567.285 209.09 C 573.066 203.281 573.066 193.941 567.273 188.172 L 558.145 179 C 552.348 173.23 542.969 173.199 537.211 179.02 L 537.211 179.02 C 531.395 184.77 531.391 194.18 537.18 199.969 L 546.293 209.109 C 552.105 214.898 561.48 214.871 567.285 209.09 L 567.285 209.09"/>
    <path id="path2560" style="fill:#000000;fill-opacity:1;fill-rule:nonzero;stroke:none" d="M 556.762 210.941 C 553.477 210.941 550.387 209.66 548.059 207.352 L 538.949 198.211 C 536.609 195.871 535.336 192.77 535.348 189.469 C 535.352 186.18 536.641 183.102 538.969 180.789 C 543.617 176.09 551.703 176.121 556.383 180.77 L 565.504 189.93 C 570.305 194.719 570.309 202.512 565.512 207.32 C 563.176 209.648 560.063 210.941 556.762 210.941 Z M 547.66 172.16 C 543.027 172.16 538.688 173.969 535.434 177.262 C 532.172 180.48 530.355 184.82 530.348 189.449 C 530.332 194.102 532.129 198.461 535.41 201.742 L 544.52 210.879 C 551.098 217.422 562.484 217.41 569.047 210.852 C 575.793 204.09 575.785 193.121 569.039 186.398 L 559.918 177.23 C 556.625 173.961 552.273 172.16 547.66 172.16"/>
    <path id="path2562" style="fill:#59b587;fill-opacity:1;fill-rule:nonzero;stroke:none" d="M 288.895 31.352 L 255.531 31.352 L 255.531 122.379 L 322.285 122.379 L 288.895 31.352"/>
    <path id="path2564" style="fill:#000000;fill-opacity:1;fill-rule:nonzero;stroke:none" d="M 258.031 33.852 L 287.148 33.852 L 318.707 119.879 L 258.031 119.879 L 258.031 33.852 Z M 288.895 28.852 L 255.531 28.852 C 254.148 28.852 253.031 29.969 253.031 31.352 L 253.031 122.379 C 253.031 123.75 254.148 124.879 255.531 124.879 L 322.285 124.879 C 323.102 124.879 323.867 124.48 324.336 123.809 C 324.805 123.141 324.91 122.281 324.633 121.52 L 291.246 30.492 C 290.883 29.512 289.945 28.852 288.895 28.852"/>
    <path id="path2566" style="fill:#59b587;fill-opacity:1;fill-rule:nonzero;stroke:none" d="M 461.609 31.352 L 494.996 31.352 L 494.996 122.379 L 428.242 122.379 L 461.609 31.352"/>
    <path id="path2568" style="fill:#000000;fill-opacity:1;fill-rule:nonzero;stroke:none" d="M 463.359 33.852 L 492.496 33.852 L 492.496 119.879 L 431.82 119.879 L 463.359 33.852 Z M 494.996 28.852 L 461.609 28.852 C 460.563 28.852 459.625 29.512 459.262 30.492 L 425.895 121.52 C 425.613 122.281 425.723 123.141 426.191 123.809 C 426.66 124.48 427.426 124.879 428.242 124.879 L 494.996 124.879 C 496.379 124.879 497.496 123.75 497.496 122.379 L 497.496 31.352 C 497.496 29.969 496.379 28.852 494.996 28.852"/>
    <path id="path2570" style="fill:#59b587;fill-opacity:1;fill-rule:nonzero;stroke:none" d="M 260.258 315.68 C 243.961 286.961 275.836 251.922 275.836 214.031 C 275.836 199.539 231.324 141.102 249.195 112.359 C 284.836 97.941 328.246 89.422 375.266 89.422 C 422.281 89.422 465.691 97.941 501.332 112.359 C 519.195 141.09 474.684 199.551 474.684 214.031 C 474.684 251.922 506.539 286.961 490.25 315.691 C 457.73 330.082 418.137 338.629 375.266 338.629 C 332.398 338.629 292.77 330.082 260.258 315.68"/>
    <path id="path2572" style="fill:#000000;fill-opacity:1;fill-rule:nonzero;stroke:none" d="M 250.906 114.359 C 287.551 99.68 330.527 91.922 375.266 91.922 C 420 91.922 462.98 99.68 499.617 114.359 C 510.191 132.781 494.32 164.512 482.699 187.762 C 476.594 199.961 472.184 208.781 472.184 214.031 C 472.184 230.289 477.77 245.711 483.176 260.609 C 490.172 279.922 496.793 298.172 488.469 313.738 C 455.051 328.391 415.93 336.129 375.266 336.129 C 334.57 336.129 295.438 328.379 262.039 313.73 C 253.715 298.172 260.332 279.922 267.336 260.609 C 272.742 245.711 278.336 230.301 278.336 214.031 C 278.336 208.781 273.926 199.949 267.816 187.75 C 256.195 164.512 240.328 132.789 250.906 114.359 Z M 375.266 86.922 C 329.574 86.922 285.66 94.922 248.258 110.039 C 247.766 110.242 247.348 110.59 247.07 111.039 C 234.211 131.719 251.051 165.391 263.344 189.98 C 268.48 200.262 273.336 209.961 273.336 214.031 C 273.336 229.422 267.895 244.41 262.637 258.91 C 255.121 279.621 248.023 299.18 258.086 316.91 C 258.352 317.379 258.754 317.75 259.246 317.961 C 293.445 333.121 333.563 341.129 375.266 341.129 C 416.93 341.129 457.043 333.121 491.262 317.969 C 491.754 317.762 492.156 317.391 492.422 316.922 C 502.477 299.18 495.387 279.621 487.875 258.91 C 482.617 244.41 477.184 229.422 477.184 214.031 C 477.184 209.961 482.035 200.27 487.168 189.988 C 499.469 165.391 516.313 131.719 503.457 111.039 C 503.18 110.59 502.766 110.242 502.27 110.039 C 464.867 94.922 420.953 86.922 375.266 86.922"/>
    <path id="path2574" style="fill:#41996b;fill-opacity:1;fill-rule:nonzero;stroke:none" d="M 375.266 338.629 C 332.398 338.629 292.77 330.082 260.258 315.68 C 259.691 314.66 259.316 313.641 258.863 312.621 C 283.52 296.941 312.699 287.719 344.086 287.719 L 406.43 287.719 C 437.82 287.719 467.004 296.941 491.66 312.621 C 491.199 313.648 490.824 314.672 490.25 315.691 C 457.73 330.082 418.137 338.629 375.266 338.629"/>
    <path id="path2576" style="fill:#ffb103;fill-opacity:1;fill-rule:nonzero;stroke:none" d="M 220.492 600.539 C 183.668 578.738 160.398 527.84 160.398 527.84 L 189.223 519.539 L 160.398 461.422 L 189.223 453.102 L 160.398 394.988 L 189.223 386.691 L 160.398 328.551 L 189.223 320.27 L 160.398 262.121 C 160.398 262.121 206.402 266.32 243.535 305.539 C 280.598 344.68 280.598 394.07 280.598 428.68 L 280.598 569.07 C 280.598 603.68 250.203 618.148 220.492 600.539"/>
    <path id="path2578" style="fill:#000000;fill-opacity:1;fill-rule:nonzero;stroke:none" d="M 163.969 330.121 L 189.91 322.672 C 190.625 322.461 191.211 321.961 191.508 321.27 C 191.813 320.602 191.793 319.82 191.465 319.148 L 164.766 265.309 C 177.191 267.539 212.457 276.352 241.719 307.262 C 278.098 345.68 278.098 393.648 278.098 428.68 L 278.098 569.07 C 278.098 590.891 265.102 605.559 245.762 605.559 C 237.98 605.559 229.68 603.082 221.77 598.391 C 190.762 580.039 169.254 540.02 163.945 529.422 L 189.918 521.949 C 190.625 521.742 191.211 521.23 191.516 520.551 C 191.813 519.879 191.793 519.102 191.465 518.43 L 163.969 462.992 L 189.918 455.5 C 190.629 455.301 191.211 454.789 191.516 454.102 C 191.813 453.43 191.793 452.648 191.465 451.992 L 163.969 396.57 L 189.918 389.102 C 190.629 388.891 191.211 388.379 191.516 387.699 C 191.813 387.02 191.793 386.238 191.465 385.582 L 163.969 330.121 Z M 160.398 259.621 C 159.578 259.621 158.809 260.02 158.34 260.711 C 157.828 261.461 157.758 262.43 158.16 263.242 L 185.652 318.691 L 159.711 326.148 C 159 326.352 158.414 326.859 158.113 327.539 C 157.813 328.219 157.832 329 158.16 329.66 L 185.652 385.121 L 159.707 392.59 C 158.992 392.801 158.414 393.301 158.109 393.992 C 157.813 394.66 157.832 395.441 158.16 396.109 L 185.652 451.531 L 159.707 459.02 C 158.992 459.219 158.414 459.73 158.109 460.41 C 157.813 461.09 157.832 461.871 158.16 462.531 L 185.652 517.969 L 159.707 525.43 C 159.008 525.641 158.434 526.129 158.129 526.789 C 157.828 527.449 157.82 528.219 158.125 528.871 C 159.094 530.98 182.145 580.75 219.219 602.691 C 227.898 607.84 237.078 610.559 245.762 610.559 C 267.742 610.559 283.098 593.5 283.098 569.07 L 283.098 428.68 C 283.098 394.832 283.098 343.68 245.352 303.82 C 207.996 264.371 162.543 259.809 160.629 259.629 C 160.551 259.621 160.473 259.621 160.398 259.621"/>
    <path id="path2580" style="fill:#59b587;fill-opacity:1;fill-rule:nonzero;stroke:none" d="M 571.063 464.52 C 571.063 376.602 499.785 305.301 411.836 305.301 L 359.496 305.301 C 271.555 305.301 200.27 376.602 200.27 464.52 L 200.27 464.52 C 200.27 552.461 271.555 623.762 359.496 623.762 L 411.836 623.762 C 499.785 623.762 571.063 552.461 571.063 464.52 L 571.063 464.52"/>
    <path id="path2582" style="fill:#000000;fill-opacity:1;fill-rule:nonzero;stroke:none" d="M 359.496 621.262 C 273.074 621.262 202.77 550.949 202.77 464.52 C 202.77 378.102 273.074 307.801 359.496 307.801 L 411.836 307.801 C 498.258 307.801 568.563 378.102 568.563 464.52 C 568.563 550.949 498.258 621.262 411.836 621.262 L 359.496 621.262 Z M 411.836 302.801 L 359.496 302.801 C 270.316 302.801 197.77 375.352 197.77 464.52 C 197.77 553.699 270.316 626.262 359.496 626.262 L 411.836 626.262 C 501.016 626.262 573.563 553.699 573.563 464.52 C 573.563 375.352 501.016 302.801 411.836 302.801"/>
    <path id="path2584" style="fill:#41996b;fill-opacity:1;fill-rule:nonzero;stroke:none" d="M 339.586 622.391 C 336.547 622.012 333.535 621.559 330.551 621.012 C 328.43 620.609 326.313 620.191 324.219 619.711 C 321.855 619.172 319.527 618.551 317.203 617.898 C 314.781 617.23 312.34 616.602 309.965 615.801 C 308.828 615.43 307.734 614.969 306.609 614.57 C 296.109 610.84 286.086 606.102 276.719 600.359 C 276.43 600.191 276.145 600.012 275.855 599.84 C 272.516 597.77 269.246 595.582 266.074 593.27 C 266.992 587.512 269.188 581.32 272.934 574.84 L 321.188 468.84 L 335.297 501.91 L 387.613 468.84 L 401.746 501.91 L 444.031 468.84 L 458.152 501.91 L 510.473 468.84 L 524.586 501.91 L 570.645 472.789 L 570.645 472.789 C 568.727 510.109 554.027 543.98 530.746 570.172 C 527.184 574.18 523.406 578 519.457 581.641 C 519.277 581.801 519.102 581.969 518.922 582.129 C 515.172 585.551 511.246 588.781 507.184 591.84 C 506.758 592.16 506.332 592.48 505.906 592.801 C 502.09 595.609 498.125 598.23 494.063 600.699 C 493.336 601.141 492.621 601.602 491.887 602.02 C 488.086 604.25 484.164 606.27 480.172 608.191 C 479.121 608.68 478.098 609.219 477.031 609.699 C 473.285 611.398 469.426 612.871 465.527 614.281 C 464.18 614.77 462.859 615.309 461.5 615.762 C 457.766 617 453.93 617.992 450.078 618.949 C 448.512 619.332 446.977 619.809 445.391 620.148 C 441.477 621 437.465 621.582 433.445 622.121 C 431.895 622.34 430.383 622.672 428.813 622.84 C 423.23 623.43 417.578 623.762 411.836 623.762 L 359.496 623.762 C 354.516 623.762 349.605 623.469 344.742 623.02 C 343.008 622.852 341.301 622.602 339.586 622.391"/>
    <path id="path2586" style="fill:#000000;fill-opacity:1;fill-rule:nonzero;stroke:none" d="M 359.496 621.262 C 273.074 621.262 202.77 550.949 202.77 464.52 C 202.77 378.102 273.074 307.801 359.496 307.801 L 411.836 307.801 C 498.258 307.801 568.563 378.102 568.563 464.52 C 568.563 550.949 498.258 621.262 411.836 621.262 L 359.496 621.262 Z M 411.836 302.801 L 359.496 302.801 C 270.316 302.801 197.77 375.352 197.77 464.52 C 197.77 553.699 270.316 626.262 359.496 626.262 L 411.836 626.262 C 501.016 626.262 573.563 553.699 573.563 464.52 C 573.563 375.352 501.016 302.801 411.836 302.801"/>
    <path id="path2588" style="fill:#41996b;fill-opacity:1;fill-rule:nonzero;stroke:none" d="M 344.527 438.398 C 306 399.859 267.211 376.23 267.211 376.23 C 267.211 376.23 290.863 415.02 329.379 453.531 C 367.895 492.051 406.699 515.699 406.699 515.699 C 406.699 515.699 383.059 476.91 344.527 438.398"/>
    <path id="path2590" style="fill:#ff9b00;fill-opacity:1;fill-rule:nonzero;stroke:none" d="M 371.098 469.301 L 268.766 455.02 L 268.766 483.488 L 371.098 515.59 L 371.098 469.301"/>
    <path id="path2592" style="fill:#000000;fill-opacity:1;fill-rule:nonzero;stroke:none" d="M 271.266 481.648 L 271.266 457.891 L 368.598 471.48 L 368.598 512.18 L 271.266 481.648 Z M 268.766 452.52 C 268.164 452.52 267.582 452.742 267.125 453.141 C 266.578 453.621 266.266 454.301 266.266 455.02 L 266.266 483.488 C 266.266 484.582 266.973 485.551 268.02 485.871 L 370.352 517.969 C 371.117 518.219 371.938 518.07 372.578 517.602 C 373.219 517.129 373.598 516.379 373.598 515.59 L 373.598 469.301 C 373.598 468.051 372.68 467 371.445 466.82 L 269.109 452.539 C 268.992 452.531 268.879 452.52 268.766 452.52"/>
    <path id="path2594" style="fill:#ff9b00;fill-opacity:1;fill-rule:nonzero;stroke:none" d="M 477.242 469.289 L 559.836 455.02 L 559.836 483.57 L 477.242 515.559 L 477.242 469.289"/>
    <path id="path2596" style="fill:#000000;fill-opacity:1;fill-rule:nonzero;stroke:none" d="M 479.742 471.398 L 557.336 457.992 L 557.336 481.859 L 479.742 511.91 L 479.742 471.398 Z M 559.836 452.52 C 559.691 452.52 559.551 452.531 559.41 452.559 L 476.816 466.832 C 475.613 467.031 474.742 468.07 474.742 469.289 L 474.742 515.559 C 474.742 516.379 475.145 517.148 475.828 517.621 C 476.504 518.09 477.367 518.191 478.145 517.891 L 560.738 485.898 C 561.699 485.531 562.336 484.602 562.336 483.57 L 562.336 455.02 C 562.336 454.281 562.008 453.59 561.445 453.109 C 560.992 452.73 560.422 452.52 559.836 452.52"/>
    <path id="path2598" style="fill:#41996b;fill-opacity:1;fill-rule:nonzero;stroke:none" d="M 541.227 383.559 C 541.227 367.832 526.648 355.051 508.691 355.051 C 490.727 355.051 476.16 367.832 476.16 383.559 C 476.16 399.27 490.727 412.031 508.691 412.031 C 526.648 412.031 541.227 399.27 541.227 383.559"/>
    <path id="path2600" style="fill:#41996b;fill-opacity:1;fill-rule:nonzero;stroke:none" d="M 364.547 383.559 C 364.547 367.832 349.984 355.051 332.016 355.051 C 314.055 355.051 299.48 367.832 299.48 383.559 C 299.48 399.27 314.055 412.031 332.016 412.031 C 349.984 412.031 364.547 399.27 364.547 383.559"/>
    <path id="path2602" style="fill:#eb4900;fill-opacity:1;fill-rule:nonzero;stroke:none" d="M 384.773 334.172 C 399.133 334.172 410.723 345.789 410.723 360.129 L 358.992 360.129 C 358.992 345.789 370.547 334.172 384.773 334.172"/>
    <path id="path2604" style="fill:#000000;fill-opacity:1;fill-rule:nonzero;stroke:none" d="M 361.625 357.629 C 362.867 345.859 372.777 336.672 384.773 336.672 C 396.859 336.672 406.84 345.859 408.09 357.629 L 361.625 357.629 Z M 384.773 331.672 C 369.18 331.672 356.492 344.441 356.492 360.129 C 356.492 361.512 357.613 362.629 358.992 362.629 L 410.723 362.629 C 412.105 362.629 413.223 361.512 413.223 360.129 C 413.223 344.441 400.461 331.672 384.773 331.672"/>
    <path id="path2606" style="fill:#2a5b6a;fill-opacity:1;fill-rule:nonzero;stroke:none" d="M 328.785 446.59 C 319.184 446.59 310.914 441.32 306.43 433.602 L 284.055 433.602 C 280.465 433.602 277.555 430.68 277.555 427.109 C 277.555 423.531 280.465 420.602 284.055 420.602 L 354.563 420.629 C 354.563 434.949 343.023 446.59 328.785 446.59"/>
    <path id="path2608" style="fill:#000000;fill-opacity:1;fill-rule:nonzero;stroke:none" d="M 284.055 431.102 C 281.848 431.102 280.055 429.309 280.055 427.109 C 280.055 424.898 281.848 423.102 284.055 423.102 L 351.93 423.129 C 350.688 434.898 340.781 444.09 328.785 444.09 C 320.41 444.09 312.859 439.691 308.594 432.352 C 308.145 431.582 307.324 431.102 306.43 431.102 L 284.055 431.102 Z M 284.055 418.102 L 284.055 418.102 C 279.094 418.102 275.055 422.141 275.055 427.109 C 275.055 432.059 279.094 436.102 284.055 436.102 L 305.035 436.102 C 310.27 444.141 319.238 449.09 328.785 449.09 C 344.375 449.09 357.063 436.32 357.063 420.629 C 357.063 419.25 355.941 418.129 354.563 418.129 L 284.055 418.102"/>
    <path id="path2610" style="fill:#2a5b6a;fill-opacity:1;fill-rule:nonzero;stroke:none" d="M 557.344 433.602 L 533.406 433.602 C 528.941 441.32 520.691 446.59 511.172 446.59 C 496.813 446.59 485.273 434.949 485.273 420.629 L 557.344 420.602 C 560.922 420.602 563.832 423.531 563.832 427.109 C 563.832 430.68 560.922 433.602 557.344 433.602"/>
    <path id="path2612" style="fill:#000000;fill-opacity:1;fill-rule:nonzero;stroke:none" d="M 487.906 423.129 L 557.344 423.102 C 559.547 423.102 561.332 424.898 561.332 427.109 C 561.332 429.309 559.547 431.102 557.344 431.102 L 533.406 431.102 C 532.516 431.102 531.688 431.582 531.246 432.352 C 527.055 439.582 519.363 444.09 511.172 444.09 C 499.109 444.09 489.156 434.898 487.906 423.129 Z M 557.344 418.102 L 557.344 418.102 L 485.273 418.129 C 483.891 418.129 482.773 419.25 482.773 420.629 C 482.773 436.32 495.512 449.09 511.172 449.09 C 520.664 449.09 529.59 444.141 534.809 436.102 L 557.344 436.102 C 562.301 436.102 566.332 432.059 566.332 427.109 C 566.332 422.141 562.301 418.102 557.344 418.102"/>
    <path id="path2614" style="fill:#41996b;fill-opacity:1;fill-rule:nonzero;stroke:none" d="M 194.414 542.59 L 194.414 415.922 C 194.414 399.609 207.637 386.379 223.953 386.379 C 240.281 386.379 253.508 399.609 253.508 415.922 L 194.414 542.59"/>
    <path id="path2616" style="fill:#000000;fill-opacity:1;fill-rule:nonzero;stroke:none" d="M 196.914 531.32 L 196.914 415.922 C 196.914 401.012 209.043 388.879 223.953 388.879 C 238.691 388.879 250.715 400.719 251 415.371 L 196.914 531.32 Z M 223.953 383.879 C 206.289 383.879 191.914 398.262 191.914 415.922 L 191.914 542.59 C 191.914 543.762 192.73 544.781 193.871 545.031 C 195.023 545.281 196.188 544.711 196.68 543.648 L 255.77 416.98 C 255.93 416.641 256.008 416.281 256.008 415.922 C 256.008 398.262 241.625 383.879 223.953 383.879"/>
    <path id="path2618" style="fill:#ffde73;fill-opacity:1;fill-rule:nonzero;stroke:none" d="M 372.629 337.379 L 372.289 352.012 L 363.547 345.449 C 365.859 342.051 369.004 339.34 372.629 337.379"/>
    <path id="path2620" style="fill:#000000;fill-opacity:1;fill-rule:nonzero;stroke:none" d="M 372.629 334.879 C 372.219 334.879 371.809 334.969 371.438 335.18 C 367.313 337.422 363.965 340.391 361.48 344.051 C 360.727 345.148 360.977 346.648 362.047 347.449 L 370.793 354.012 C 371.531 354.57 372.539 354.68 373.383 354.25 C 374.223 353.84 374.766 353 374.789 352.059 L 375.129 337.43 C 375.145 336.551 374.691 335.711 373.93 335.25 C 373.531 335 373.082 334.879 372.629 334.879"/>
    <path id="path2622" style="fill:#ffde73;fill-opacity:1;fill-rule:nonzero;stroke:none" d="M 397.109 337.43 C 400.621 339.32 403.668 341.949 405.957 345.219 L 397.426 351.602 L 397.109 337.43"/>
    <path id="path2624" style="fill:#000000;fill-opacity:1;fill-rule:nonzero;stroke:none" d="M 397.109 334.93 C 396.656 334.93 396.207 335.051 395.805 335.301 C 395.043 335.762 394.59 336.602 394.609 337.48 L 394.926 351.648 C 394.945 352.59 395.488 353.43 396.332 353.84 C 397.188 354.242 398.168 354.148 398.926 353.602 L 407.457 347.219 C 408.535 346.41 408.777 344.891 408.004 343.781 C 405.527 340.25 402.262 337.371 398.297 335.23 C 397.926 335.02 397.52 334.93 397.109 334.93"/>
    <path id="path2626" style="fill:#ffb103;fill-opacity:1;fill-rule:nonzero;stroke:none" d="M 272.934 574.84 L 321.188 508.84 L 335.297 541.91 L 387.613 508.84 L 401.746 541.91 L 444.031 508.84 L 458.152 541.91 L 510.473 508.84 L 524.586 541.91 L 576.887 508.84 L 528.633 574.84 C 511.34 604.801 469.258 629.09 434.664 629.09 L 304.258 629.09 C 269.656 629.09 255.625 604.801 272.934 574.84"/>
    <path id="path2628" style="fill:#000000;fill-opacity:1;fill-rule:nonzero;stroke:none" d="M 335.297 544.41 C 335.766 544.41 336.23 544.281 336.637 544.02 L 386.465 512.52 L 399.449 542.891 C 399.758 543.609 400.375 544.129 401.129 544.332 C 401.871 544.512 402.672 544.352 403.285 543.879 L 443.012 512.82 L 455.855 542.891 C 456.145 543.57 456.715 544.082 457.41 544.289 C 458.113 544.52 458.871 544.43 459.492 544.02 L 509.324 512.52 L 522.285 542.879 C 522.574 543.57 523.145 544.082 523.844 544.289 C 524.543 544.52 525.305 544.43 525.922 544.02 L 567.105 517.98 L 526.617 573.359 C 509.602 602.809 468.414 626.59 434.664 626.59 L 304.258 626.59 C 288.453 626.59 276.742 621.379 271.293 611.941 C 265.844 602.5 267.195 589.77 275.098 576.09 L 320.609 513.859 L 332.996 542.879 C 333.285 543.559 333.855 544.082 334.555 544.289 C 334.801 544.371 335.051 544.41 335.297 544.41 Z M 576.887 506.34 C 576.426 506.34 575.961 506.469 575.547 506.73 L 525.73 538.23 L 512.773 507.859 C 512.484 507.191 511.918 506.672 511.215 506.461 C 510.512 506.23 509.762 506.32 509.137 506.73 L 459.301 538.23 L 446.332 507.852 C 446.023 507.141 445.41 506.609 444.656 506.422 C 443.887 506.238 443.105 506.398 442.496 506.871 L 402.77 537.93 L 389.91 507.852 C 389.625 507.18 389.055 506.672 388.355 506.461 C 387.645 506.23 386.898 506.32 386.273 506.73 L 336.445 538.23 L 323.484 507.859 C 323.137 507.031 322.363 506.461 321.469 506.359 C 320.563 506.262 319.695 506.641 319.172 507.371 L 270.918 573.359 C 261.934 588.879 260.582 603.391 266.965 614.441 C 273.344 625.492 286.586 631.59 304.258 631.59 L 434.664 631.59 C 470.004 631.59 513.137 606.691 530.797 576.09 L 578.531 510.82 C 579.125 510.359 579.512 509.648 579.512 508.84 C 579.512 507.461 578.391 506.34 577.012 506.34 C 576.965 506.34 576.926 506.34 576.887 506.34"/>
    <path id="path2630" style="fill:#d3d3d3;fill-opacity:1;fill-rule:nonzero;stroke:none" d="M 221.016 386.359 C 221.016 377.711 214.004 370.699 205.348 370.699 C 196.699 370.699 189.68 377.711 189.68 386.359 C 189.68 395.02 196.699 402.02 205.348 402.02 L 205.352 402.02 L 205.352 417.82 L 205.348 417.82 C 187.988 417.82 173.906 403.73 173.906 386.359 C 173.906 369.012 187.988 354.93 205.348 354.93 C 222.727 354.93 236.793 369.012 236.793 386.359 L 221.016 386.359"/>
    <path id="path2632" style="fill:#000000;fill-opacity:1;fill-rule:nonzero;stroke:none" d="M 202.852 415.211 C 188.059 413.941 176.406 401.492 176.406 386.359 C 176.406 370.398 189.391 357.43 205.348 357.43 C 220.465 357.43 232.914 369.082 234.184 383.859 L 223.344 383.859 C 222.125 375.02 214.516 368.199 205.348 368.199 C 195.328 368.199 187.18 376.34 187.18 386.359 C 187.18 395.52 194.008 403.129 202.848 404.34 L 202.852 415.211 Z M 205.348 352.43 C 186.633 352.43 171.406 367.648 171.406 386.359 C 171.406 405.082 186.633 420.32 205.348 420.32 C 206.73 420.32 207.848 419.191 207.848 417.82 L 207.852 402.02 C 207.852 401.352 207.59 400.719 207.117 400.25 C 206.648 399.781 206.016 399.52 205.352 399.52 C 198.086 399.52 192.18 393.621 192.18 386.359 C 192.18 379.102 198.086 373.199 205.348 373.199 C 212.605 373.199 218.516 379.102 218.516 386.359 C 218.516 387.742 219.633 388.859 221.016 388.859 L 236.793 388.859 C 238.176 388.859 239.293 387.742 239.293 386.359 C 239.293 367.648 224.063 352.43 205.348 352.43"/>
    <path id="path2634" style="fill:#ad713b;fill-opacity:1;fill-rule:nonzero;stroke:none" d="M 262.813 256.531 C 265.102 248.91 267.285 241.09 268.762 233.102 L 480.098 233.102 C 481.578 241.09 483.754 248.91 486.035 256.531 L 262.813 256.531"/>
    <path id="path2636" style="fill:#000000;fill-opacity:1;fill-rule:nonzero;stroke:none" d="M 270.824 235.602 L 478.031 235.602 C 479.324 242.051 481.035 248.371 482.691 254.031 L 266.16 254.031 C 267.816 248.379 269.531 242.059 270.824 235.602 Z M 480.098 230.602 L 268.762 230.602 C 267.555 230.602 266.52 231.461 266.301 232.648 C 264.785 240.852 262.477 248.961 260.422 255.801 C 260.191 256.57 260.336 257.391 260.805 258.02 C 261.277 258.66 262.02 259.031 262.813 259.031 L 486.035 259.031 C 486.824 259.031 487.566 258.66 488.043 258.02 C 488.512 257.391 488.656 256.57 488.43 255.809 C 486.379 248.949 484.07 240.832 482.555 232.641 C 482.336 231.461 481.305 230.602 480.098 230.602"/>
    <path id="path2638" style="fill:#8ba1a5;fill-opacity:1;fill-rule:nonzero;stroke:none" d="M 395.547 244.832 C 395.547 218.5 374.203 197.16 347.891 197.16 C 321.578 197.16 300.234 218.5 300.234 244.832 C 300.234 271.129 321.578 292.461 347.891 292.461 C 374.203 292.461 395.547 271.129 395.547 244.832"/>
    <path id="path2640" style="fill:#000000;fill-opacity:1;fill-rule:nonzero;stroke:none" d="M 347.891 289.961 C 322.992 289.961 302.734 269.719 302.734 244.832 C 302.734 219.93 322.992 199.66 347.891 199.66 C 372.789 199.66 393.047 219.93 393.047 244.832 C 393.047 269.719 372.789 289.961 347.891 289.961 Z M 347.891 194.66 C 320.234 194.66 297.734 217.16 297.734 244.832 C 297.734 272.469 320.234 294.961 347.891 294.961 C 375.547 294.961 398.047 272.469 398.047 244.832 C 398.047 217.16 375.547 194.66 347.891 194.66"/>
    <path id="path2642" style="fill:#6b7f82;fill-opacity:1;fill-rule:nonzero;stroke:none" d="M 381.238 244.832 C 381.238 226.391 366.289 211.449 347.891 211.449 C 329.48 211.449 314.535 226.391 314.535 244.832 C 314.535 263.262 329.48 278.172 347.891 278.172 C 366.289 278.172 381.238 263.262 381.238 244.832"/>
    <path id="path2644" style="fill:#000000;fill-opacity:1;fill-rule:nonzero;stroke:none" d="M 347.891 275.672 C 330.879 275.672 317.035 261.832 317.035 244.832 C 317.035 227.801 330.879 213.949 347.891 213.949 C 364.902 213.949 378.738 227.801 378.738 244.832 C 378.738 261.832 364.902 275.672 347.891 275.672 Z M 347.891 208.949 C 328.121 208.949 312.035 225.039 312.035 244.832 C 312.035 264.59 328.121 280.672 347.891 280.672 C 367.656 280.672 383.738 264.59 383.738 244.832 C 383.738 225.039 367.656 208.949 347.891 208.949"/>
    <path id="path2646" style="fill:#8ba1a5;fill-opacity:1;fill-rule:nonzero;stroke:none" d="M 498.523 244.82 C 498.523 218.5 477.184 197.16 450.863 197.16 C 424.555 197.16 403.215 218.5 403.215 244.82 C 403.215 271.129 424.555 292.449 450.863 292.449 C 477.184 292.449 498.523 271.129 498.523 244.82"/>
    <path id="path2648" style="fill:#000000;fill-opacity:1;fill-rule:nonzero;stroke:none" d="M 450.863 289.949 C 425.969 289.949 405.715 269.711 405.715 244.82 C 405.715 219.922 425.969 199.66 450.863 199.66 C 475.766 199.66 496.023 219.922 496.023 244.82 C 496.023 269.711 475.766 289.949 450.863 289.949 Z M 450.863 194.66 C 423.215 194.66 400.715 217.16 400.715 244.82 C 400.715 272.461 423.215 294.949 450.863 294.949 C 478.523 294.949 501.023 272.461 501.023 244.82 C 501.023 217.16 478.523 194.66 450.863 194.66"/>
    <path id="path2650" style="fill:#6b7f82;fill-opacity:1;fill-rule:nonzero;stroke:none" d="M 484.215 244.82 C 484.215 226.379 469.27 211.441 450.863 211.441 C 432.461 211.441 417.512 226.379 417.512 244.82 C 417.512 263.242 432.461 278.148 450.863 278.148 C 469.27 278.148 484.215 263.242 484.215 244.82"/>
    <path id="path2652" style="fill:#000000;fill-opacity:1;fill-rule:nonzero;stroke:none" d="M 450.863 275.648 C 433.852 275.648 420.012 261.82 420.012 244.82 C 420.012 227.789 433.852 213.941 450.863 213.941 C 467.875 213.941 481.715 227.789 481.715 244.82 C 481.715 261.82 467.875 275.648 450.863 275.648 Z M 450.863 208.941 C 431.094 208.941 415.012 225.031 415.012 244.82 C 415.012 264.57 431.094 280.648 450.863 280.648 C 470.629 280.648 486.715 264.57 486.715 244.82 C 486.715 225.031 470.629 208.941 450.863 208.941"/>
    <path id="path2654" style="fill:#41996b;fill-opacity:1;fill-rule:nonzero;stroke:none" d="M 243.227 322.012 C 223.809 322.012 208.07 306.27 208.063 286.859 C 208.063 267.461 223.809 251.719 243.227 251.719 C 262.629 251.719 278.367 267.461 278.367 286.859 C 278.367 306.27 262.617 322.012 243.227 322.012"/>
    <path id="path2656" style="fill:#000000;fill-opacity:1;fill-rule:nonzero;stroke:none" d="M 243.227 319.512 C 225.227 319.512 210.57 304.859 210.563 286.859 C 210.563 268.859 225.215 254.219 243.227 254.219 C 261.227 254.219 275.867 268.859 275.867 286.859 C 275.867 304.859 261.227 319.512 243.227 319.512 Z M 243.227 249.219 C 222.457 249.219 205.563 266.109 205.563 286.859 C 205.57 307.621 222.473 324.512 243.227 324.512 C 263.984 324.512 280.867 307.621 280.867 286.859 C 280.867 266.109 263.984 249.219 243.227 249.219"/>
    <path id="path2658" style="fill:#ad713b;fill-opacity:1;fill-rule:nonzero;stroke:none" d="M 233.535 353.43 C 199.773 353.441 172.41 326.051 172.387 292.309 L 294.684 292.301 C 294.664 326.051 267.281 353.43 233.535 353.43"/>
    <path id="path2660" style="fill:#000000;fill-opacity:1;fill-rule:nonzero;stroke:none" d="M 174.941 294.809 L 292.129 294.801 C 290.797 325.969 265.016 350.93 233.535 350.93 C 202.051 350.93 176.277 325.98 174.941 294.809 Z M 294.684 289.801 L 294.684 289.801 L 172.387 289.809 C 171.723 289.809 171.09 290.07 170.621 290.539 C 170.152 291.012 169.887 291.641 169.887 292.309 C 169.91 327.391 198.457 355.93 233.516 355.93 C 268.609 355.93 297.164 327.391 297.184 292.301 C 297.184 291.629 296.918 291 296.449 290.531 C 295.98 290.059 295.348 289.801 294.684 289.801"/>
    <path id="path2662" style="fill:#ffde73;fill-opacity:1;fill-rule:nonzero;stroke:none" d="M 262.07 346.34 C 271.918 335.492 277.988 321.129 277.996 305.301 L 173.824 305.332 C 172.898 301.129 172.398 296.781 172.387 292.309 L 294.684 292.301 C 294.672 315.742 281.441 336.09 262.07 346.34"/>
    <path id="path2664" style="fill:#000000;fill-opacity:1;fill-rule:nonzero;stroke:none" d="M 174.945 294.809 L 292.129 294.801 C 291.445 310.84 284.254 325.672 272.48 336.109 C 277.699 326.742 280.492 316.172 280.496 305.301 C 280.496 304.629 280.234 304 279.766 303.531 C 279.297 303.059 278.66 302.801 277.996 302.801 L 277.996 302.801 L 175.867 302.832 C 175.375 300.172 175.066 297.48 174.945 294.809 Z M 294.684 289.801 L 294.684 289.801 L 172.387 289.809 C 171.723 289.809 171.09 290.07 170.621 290.539 C 170.152 291.012 169.887 291.648 169.887 292.32 C 169.898 296.84 170.398 301.398 171.383 305.859 C 171.637 307.012 172.652 307.832 173.824 307.832 L 173.824 307.832 L 275.445 307.801 C 274.848 321.43 269.496 334.441 260.219 344.66 C 259.402 345.559 259.352 346.922 260.098 347.871 C 260.852 348.82 262.184 349.102 263.242 348.551 C 284.164 337.469 297.172 315.922 297.184 292.301 C 297.184 291.629 296.918 291 296.449 290.531 C 295.98 290.059 295.348 289.801 294.684 289.801"/>
    <path id="path2666" style="fill:#ffde73;fill-opacity:1;fill-rule:nonzero;stroke:none" d="M 198.168 325.699 C 201.598 322.27 201.598 316.699 198.164 313.27 C 194.73 309.84 189.164 309.84 185.738 313.27 C 182.301 316.699 165.027 346.41 165.027 346.41 C 165.027 346.41 194.73 329.129 198.168 325.699"/>
    <path id="path2668" style="fill:#000000;fill-opacity:1;fill-rule:nonzero;stroke:none" d="M 172.07 339.371 C 178.344 328.801 185.68 316.859 187.504 315.031 C 189.879 312.672 194.023 312.672 196.395 315.031 C 198.848 317.48 198.852 321.48 196.402 323.93 C 194.574 325.762 182.633 333.09 172.07 339.371 Z M 191.949 308.199 C 188.938 308.199 186.098 309.371 183.969 311.5 C 180.406 315.059 164.652 342.082 162.867 345.148 C 162.301 346.141 162.461 347.379 163.262 348.18 C 164.066 348.98 165.309 349.148 166.285 348.57 C 169.355 346.789 196.371 331.031 199.938 327.461 C 204.336 323.07 204.332 315.898 199.934 311.5 C 197.797 309.371 194.965 308.199 191.949 308.199"/>
    <path id="path2670" style="fill:#ffde73;fill-opacity:1;fill-rule:nonzero;stroke:none" d="M 223.105 349.109 C 226.531 345.68 226.531 340.129 223.105 336.691 C 219.672 333.27 214.102 333.27 210.684 336.691 C 207.234 340.129 189.965 369.832 189.965 369.832 C 189.965 369.832 219.672 352.559 223.105 349.109"/>
    <path id="path2672" style="fill:#000000;fill-opacity:1;fill-rule:nonzero;stroke:none" d="M 197.008 362.789 C 203.281 352.23 210.621 340.289 212.449 338.461 C 214.813 336.102 218.965 336.102 221.34 338.461 C 223.777 340.91 223.777 344.898 221.332 347.352 C 219.512 349.18 207.566 356.52 197.008 362.789 Z M 216.891 331.621 C 213.871 331.621 211.039 332.801 208.91 334.93 C 205.344 338.488 189.59 365.5 187.805 368.57 C 187.234 369.551 187.398 370.789 188.199 371.602 C 189.004 372.398 190.25 372.559 191.223 371.992 C 194.293 370.211 221.313 354.461 224.879 350.879 C 229.262 346.48 229.262 339.332 224.879 334.93 C 222.738 332.801 219.902 331.621 216.891 331.621"/>
    <path id="path2674" style="fill:#41996b;fill-opacity:1;fill-rule:nonzero;stroke:none" d="M 216.859 295.648 C 197.445 295.648 181.711 279.91 181.699 260.492 C 181.699 241.102 197.445 225.352 216.859 225.352 C 236.266 225.352 252.004 241.102 252.004 260.492 C 252.004 279.91 236.254 295.648 216.859 295.648"/>
    <path id="path2676" style="fill:#000000;fill-opacity:1;fill-rule:nonzero;stroke:none" d="M 216.859 293.148 C 198.863 293.148 184.211 278.5 184.199 260.492 C 184.199 242.488 198.852 227.852 216.859 227.852 C 234.859 227.852 249.504 242.488 249.504 260.492 C 249.504 278.5 234.859 293.148 216.859 293.148 Z M 216.859 222.852 C 196.094 222.852 179.199 239.738 179.199 260.492 C 179.211 281.25 196.105 298.148 216.859 298.148 C 237.617 298.148 254.504 281.25 254.504 260.492 C 254.504 239.738 237.617 222.852 216.859 222.852"/>
    <path id="path2678" style="fill:#41996b;fill-opacity:1;fill-rule:nonzero;stroke:none" d="M 167.285 290.531 C 140.98 290.531 119.648 274.422 119.648 254.629 C 119.648 234.801 140.98 218.73 167.285 218.73 C 193.605 218.73 214.926 234.801 214.938 254.629 C 214.938 274.449 193.605 290.531 167.285 290.531"/>
    <path id="path2680" style="fill:#000000;fill-opacity:1;fill-rule:nonzero;stroke:none" d="M 167.285 288.031 C 142.398 288.031 122.148 273.051 122.148 254.629 C 122.148 236.211 142.398 221.23 167.285 221.23 C 192.172 221.23 212.426 236.211 212.438 254.629 C 212.438 273.051 192.184 288.031 167.285 288.031 Z M 167.285 216.23 C 139.641 216.23 117.148 233.461 117.148 254.629 C 117.148 275.801 139.641 293.031 167.285 293.031 C 194.938 293.031 217.438 275.801 217.438 254.629 C 217.426 233.461 194.926 216.23 167.285 216.23"/>
    <path id="path2682" style="fill:#41996b;fill-opacity:1;fill-rule:nonzero;stroke:none" d="M 89.664 292.461 C 77.383 292.488 67.457 282.52 67.426 270.27 L 67.426 240.871 C 67.426 228.629 77.371 218.672 89.652 218.691 L 119.016 218.691 C 131.293 218.691 141.254 228.641 141.227 240.871 L 141.227 270.27 C 141.262 282.52 131.277 292.461 118.988 292.461 L 89.664 292.461"/>
    <path id="path2684" style="fill:#000000;fill-opacity:1;fill-rule:nonzero;stroke:none" d="M 89.664 289.961 C 78.785 289.961 69.953 281.129 69.926 270.262 L 69.926 240.871 C 69.926 230.02 78.75 221.191 89.598 221.191 L 89.598 218.691 L 89.648 221.191 L 119.016 221.191 C 124.301 221.191 129.27 223.262 132.996 227 C 136.703 230.711 138.738 235.641 138.727 240.859 L 138.727 270.27 C 138.738 275.512 136.711 280.441 132.996 284.148 C 129.262 287.898 124.285 289.961 118.988 289.961 L 89.664 289.961 Z M 89.598 216.191 C 75.996 216.191 64.926 227.27 64.926 240.871 L 64.926 270.27 C 64.961 283.891 76.031 294.961 89.609 294.961 L 118.988 294.961 C 125.625 294.961 131.859 292.379 136.539 287.691 C 141.191 283.02 143.746 276.832 143.727 270.262 L 143.727 240.871 C 143.738 234.309 141.188 228.129 136.539 223.461 C 131.863 218.77 125.641 216.191 119.016 216.191 L 89.598 216.191"/>
    <path id="path2686" style="fill:#59b587;fill-opacity:1;fill-rule:nonzero;stroke:none" d="M 126.406 292.461 C 118.223 292.461 111.594 285.852 111.609 277.672 L 111.594 264.75 C 111.609 256.57 118.227 249.922 126.406 249.93 L 126.406 249.93 C 134.586 249.922 141.254 256.57 141.254 264.75 L 141.262 277.641 C 141.254 285.852 134.605 292.461 126.406 292.461 L 126.406 292.461"/>
    <path id="path2688" style="fill:#000000;fill-opacity:1;fill-rule:nonzero;stroke:none" d="M 126.406 289.961 C 123.105 289.961 120.012 288.68 117.688 286.352 C 115.371 284.039 114.102 280.949 114.109 277.68 L 114.094 264.75 C 114.105 257.961 119.613 252.43 126.371 252.43 L 126.445 252.43 C 129.727 252.43 132.813 253.711 135.141 256.051 C 137.473 258.371 138.754 261.469 138.754 264.75 L 138.762 277.641 C 138.754 284.441 133.215 289.961 126.406 289.961 Z M 126.445 247.43 L 126.402 247.43 C 116.863 247.43 109.117 255.199 109.094 264.738 L 109.109 277.672 C 109.102 282.281 110.891 286.609 114.145 289.891 C 117.41 293.16 121.77 294.961 126.406 294.961 C 135.973 294.961 143.754 287.191 143.762 277.641 L 143.754 264.75 C 143.754 260.129 141.953 255.781 138.676 252.512 C 135.406 249.242 131.059 247.43 126.445 247.43"/>
    <path id="path2690" style="fill:#d3d3d3;fill-opacity:1;fill-rule:nonzero;stroke:none" d="M 242.406 115.191 L 242.406 76.859 L 275.621 86.059 L 308.828 76.859 L 342.047 86.059 L 375.254 76.859 L 408.461 86.059 L 441.684 76.859 L 474.898 86.059 L 508.109 76.859 L 508.109 115.191 L 242.406 115.191"/>
    <path id="path2692" style="fill:#000000;fill-opacity:1;fill-rule:nonzero;stroke:none" d="M 408.461 88.559 C 408.688 88.559 408.91 88.531 409.133 88.469 L 441.684 79.461 L 474.23 88.469 C 474.668 88.59 475.129 88.59 475.566 88.469 L 505.609 80.152 L 505.609 112.691 L 244.906 112.691 L 244.906 80.152 L 274.949 88.469 C 275.391 88.59 275.852 88.59 276.289 88.469 L 308.828 79.461 L 341.379 88.469 C 341.816 88.59 342.273 88.59 342.715 88.469 L 375.254 79.461 L 407.793 88.469 C 408.012 88.531 408.238 88.559 408.461 88.559 Z M 508.109 74.359 C 507.887 74.359 507.66 74.391 507.441 74.449 L 474.898 83.461 L 442.355 74.449 C 441.914 74.332 441.453 74.332 441.016 74.449 L 408.461 83.461 L 375.922 74.449 C 375.484 74.332 375.023 74.332 374.586 74.449 L 342.047 83.461 L 309.496 74.449 C 309.059 74.332 308.598 74.332 308.16 74.449 L 275.621 83.461 L 243.074 74.449 C 242.32 74.25 241.516 74.398 240.895 74.871 C 240.273 75.352 239.906 76.082 239.906 76.859 L 239.906 115.191 C 239.906 116.57 241.023 117.691 242.406 117.691 L 508.109 117.691 C 509.492 117.691 510.609 116.57 510.609 115.191 L 510.609 76.859 C 510.609 76.082 510.242 75.352 509.625 74.871 C 509.184 74.531 508.652 74.359 508.109 74.359"/>
    <path id="path2694" style="fill:#2a5b6a;fill-opacity:1;fill-rule:nonzero;stroke:none" d="M 508.109 113.23 C 416.008 113.23 334.512 113.23 242.406 113.23 C 242.406 113.23 242.09 145.648 252.102 159.352 C 331.492 159.352 419.68 159.352 499.082 159.352 C 509.086 145.648 508.109 113.23 508.109 113.23"/>
    <path id="path2696" style="fill:#000000;fill-opacity:1;fill-rule:nonzero;stroke:none" d="M 244.934 115.73 L 505.637 115.73 C 505.621 123.148 504.957 145.691 497.766 156.852 L 253.414 156.852 C 246.191 145.68 245.098 123.199 244.934 115.73 Z M 508.109 110.73 L 242.406 110.73 C 241.035 110.73 239.922 111.832 239.906 113.199 C 239.895 114.559 239.703 146.609 250.082 160.82 C 250.551 161.469 251.305 161.852 252.102 161.852 L 499.082 161.852 C 499.879 161.852 500.629 161.469 501.098 160.82 C 511.492 146.602 510.648 114.512 510.609 113.148 C 510.566 111.801 509.465 110.73 508.109 110.73"/>
    <path id="path2698" style="fill:#b39471;fill-opacity:1;fill-rule:nonzero;stroke:none" d="M 85.348 31.352 L 116.676 31.352 L 116.676 675.622 L 85.348 675.622 L 85.348 31.352 Z"/>
    <path id="path2700" style="fill:#000000;fill-opacity:1;fill-rule:nonzero;stroke:none" d="M 87.848 33.852 L 114.176 33.852 L 114.176 673.121 L 87.848 673.121 L 87.848 33.852 Z M 116.676 28.852 L 85.348 28.852 C 83.965 28.852 82.848 29.969 82.848 31.352 L 82.848 675.621 C 82.848 677 83.965 678.121 85.348 678.121 L 116.676 678.121 C 118.059 678.121 119.176 677 119.176 675.621 L 119.176 31.352 C 119.176 29.969 118.059 28.852 116.676 28.852"/>
    <path id="path2702" style="fill:#bcc4cd;fill-opacity:1;fill-rule:nonzero;stroke:none" d="M 119.172 780.07 L 134.535 795.461 L 100.984 868.852 L 51.414 760.359 L 84.91 726.871 L 36.109 726.871 L 29.633 712.699 L 100.984 640.242 L 172.387 712.699 L 141.578 780.07 L 119.172 780.07"/>
    <path id="path2704" style="fill:#000000;fill-opacity:1;fill-rule:nonzero;stroke:none" d="M 32.621 713.23 L 100.984 643.801 L 169.398 713.23 L 139.973 777.57 L 119.172 777.57 C 118.16 777.57 117.246 778.18 116.859 779.109 C 116.477 780.051 116.684 781.129 117.402 781.84 L 131.543 796 L 100.984 862.84 L 54.41 760.898 L 86.68 728.641 C 87.395 727.922 87.605 726.852 87.223 725.91 C 86.836 724.969 85.922 724.371 84.91 724.371 L 37.715 724.371 L 32.621 713.23 Z M 100.984 637.742 L 100.984 637.742 C 100.316 637.742 99.672 638.012 99.203 638.48 L 27.852 710.941 C 27.125 711.68 26.93 712.801 27.359 713.73 L 33.832 727.898 C 34.242 728.801 35.133 729.371 36.109 729.371 L 78.879 729.371 L 49.648 758.602 C 48.91 759.34 48.707 760.449 49.141 761.398 L 98.711 869.891 C 99.531 871.68 102.441 871.68 103.262 869.891 L 136.813 796.5 C 137.242 795.551 137.039 794.441 136.305 793.691 L 125.199 782.57 L 141.578 782.57 C 142.555 782.57 143.441 782.012 143.852 781.109 L 174.664 713.73 C 175.094 712.801 174.898 711.68 174.172 710.941 L 102.77 638.48 C 102.297 638.012 101.656 637.742 100.984 637.742"/>
    <path id="path2706" style="fill:#8192a4;fill-opacity:1;fill-rule:nonzero;stroke:none" d="M 141.578 780.07 L 119.172 780.07 L 134.535 795.461 L 100.984 868.852 L 100.984 640.242 L 172.387 712.699 L 141.578 780.07"/>
    <path id="path2708" style="fill:#000000;fill-opacity:1;fill-rule:nonzero;stroke:none" d="M 103.484 857.371 L 103.484 646.34 L 169.398 713.23 L 139.973 777.57 L 119.172 777.57 C 118.16 777.57 117.246 778.18 116.859 779.109 C 116.477 780.051 116.684 781.129 117.402 781.84 L 131.543 796 L 103.484 857.371 Z M 100.984 637.742 C 100.668 637.742 100.348 637.801 100.039 637.922 C 99.102 638.309 98.484 639.219 98.484 640.242 L 98.484 868.852 C 98.484 870.02 99.305 871.051 100.453 871.289 C 101.617 871.531 102.773 870.961 103.262 869.891 L 136.813 796.5 C 137.246 795.551 137.039 794.441 136.305 793.691 L 125.199 782.57 L 141.578 782.57 C 142.555 782.57 143.441 782.012 143.852 781.109 L 174.664 713.73 C 175.094 712.801 174.898 711.68 174.172 710.941 L 102.77 638.48 C 102.289 638 101.641 637.742 100.984 637.742"/>
    <path id="path2710" style="fill:#5ae8ff;fill-opacity:1;fill-rule:nonzero;stroke:none" d="M 138.922 643.801 C 138.922 632.121 129.441 622.629 117.742 622.629 L 84.285 622.629 C 72.582 622.629 63.109 632.121 63.109 643.801 L 63.109 643.801 C 63.109 655.492 72.582 664.98 84.285 664.98 L 117.742 664.98 C 129.441 664.98 138.922 655.492 138.922 643.801 L 138.922 643.801"/>
    <path id="path2712" style="fill:#000000;fill-opacity:1;fill-rule:nonzero;stroke:none" d="M 84.285 662.48 C 73.988 662.48 65.609 654.102 65.609 643.801 C 65.609 633.512 73.988 625.129 84.285 625.129 L 117.742 625.129 C 128.043 625.129 136.422 633.512 136.422 643.801 C 136.422 654.102 128.043 662.48 117.742 662.48 L 84.285 662.48 Z M 117.742 620.129 L 84.285 620.129 C 71.23 620.129 60.609 630.75 60.609 643.801 C 60.609 656.859 71.23 667.48 84.285 667.48 L 117.742 667.48 C 130.801 667.48 141.422 656.859 141.422 643.801 C 141.422 630.75 130.801 620.129 117.742 620.129"/>
    <path id="path2714" style="fill:#5ae8ff;fill-opacity:1;fill-rule:nonzero;stroke:none" d="M 138.922 520.93 C 138.922 509.242 129.441 499.77 117.742 499.77 L 84.285 499.77 C 72.582 499.77 63.109 509.242 63.109 520.93 L 63.109 520.93 C 63.109 532.609 72.582 542.102 84.285 542.102 L 117.742 542.102 C 129.441 542.102 138.922 532.609 138.922 520.93 L 138.922 520.93"/>
    <path id="path2716" style="fill:#000000;fill-opacity:1;fill-rule:nonzero;stroke:none" d="M 84.285 539.602 C 73.988 539.602 65.609 531.219 65.609 520.93 C 65.609 510.641 73.988 502.27 84.285 502.27 L 117.742 502.27 C 128.043 502.27 136.422 510.641 136.422 520.93 C 136.422 531.219 128.043 539.602 117.742 539.602 L 84.285 539.602 Z M 117.742 497.27 L 84.285 497.27 C 71.23 497.27 60.609 507.879 60.609 520.93 C 60.609 533.992 71.23 544.602 84.285 544.602 L 117.742 544.602 C 130.801 544.602 141.422 533.992 141.422 520.93 C 141.422 507.879 130.801 497.27 117.742 497.27"/>
    <path id="path2718" style="fill:#59abe2;fill-opacity:1;fill-rule:nonzero;stroke:none" d="M 667.734 142.961 C 617.969 93.18 537.23 93.18 487.434 142.961 C 437.641 192.742 437.668 273.48 487.426 323.27 C 537.234 373.059 617.949 373.039 667.738 323.27 C 717.539 273.48 717.543 192.77 667.734 142.961"/>
    <path id="path2720" style="fill:#000000;fill-opacity:1;fill-rule:nonzero;stroke:none" d="M 577.582 358.109 C 544.199 358.109 512.809 345.102 489.195 321.5 C 440.465 272.75 440.469 193.449 489.199 144.73 C 512.813 121.129 544.203 108.129 577.598 108.129 C 610.984 108.129 642.367 121.129 665.969 144.73 C 689.586 168.34 702.594 199.738 702.594 233.121 C 702.594 266.512 689.586 297.891 665.973 321.5 C 642.359 345.102 610.969 358.109 577.582 358.109 Z M 577.598 103.129 C 542.871 103.129 510.219 116.641 485.664 141.191 C 434.984 191.859 434.98 274.332 485.66 325.031 C 510.215 349.582 542.859 363.109 577.582 363.109 C 612.305 363.109 644.949 349.582 669.508 325.031 C 694.066 300.48 707.594 267.84 707.594 233.121 C 707.594 198.398 694.063 165.762 669.504 141.191 C 644.961 116.641 612.32 103.129 577.598 103.129"/>
    <path id="path2722" style="fill:#b39471;fill-opacity:1;fill-rule:nonzero;stroke:none" d="M 640.703 169.969 C 605.863 135.141 549.324 135.141 514.477 170 C 479.625 204.859 479.625 261.359 514.469 296.219 C 549.348 331.102 605.863 331.102 640.719 296.23 C 675.566 261.391 675.566 204.859 640.703 169.969"/>
    <path id="path2724" style="fill:#000000;fill-opacity:1;fill-rule:nonzero;stroke:none" d="M 577.605 319.879 C 554.43 319.879 532.633 310.852 516.234 294.461 C 482.422 260.629 482.426 205.59 516.246 171.77 C 532.633 155.379 554.426 146.352 577.605 146.352 C 600.781 146.352 622.559 155.359 638.938 171.742 C 672.77 205.59 672.773 260.648 638.949 294.469 C 622.566 310.852 600.781 319.879 577.605 319.879 Z M 577.605 141.352 C 553.086 141.352 530.039 150.898 512.711 168.242 C 476.941 204 476.938 262.211 512.699 297.992 C 530.043 315.34 553.09 324.879 577.605 324.879 C 602.113 324.879 625.156 315.34 642.484 298 C 678.258 262.23 678.254 204.012 642.473 168.211 C 625.152 150.891 602.113 141.352 577.605 141.352"/>
    <path id="path2726" style="fill:#bcc4cd;fill-opacity:1;fill-rule:nonzero;stroke:none" d="M 593.379 217.34 C 584.668 208.629 570.531 208.629 561.82 217.34 C 553.105 226.039 553.105 240.191 561.82 248.879 C 570.531 257.609 584.668 257.609 593.379 248.879 C 602.09 240.191 602.078 226.039 593.379 217.34"/>
    <path id="path2728" style="fill:#000000;fill-opacity:1;fill-rule:nonzero;stroke:none" d="M 577.602 252.93 C 572.305 252.93 567.336 250.859 563.59 247.109 C 559.848 243.379 557.789 238.41 557.781 233.121 C 557.781 227.82 559.844 222.852 563.59 219.102 C 571.063 211.629 584.125 211.621 591.609 219.102 C 595.352 222.852 597.41 227.832 597.406 233.129 C 597.406 238.422 595.348 243.379 591.609 247.109 C 587.867 250.859 582.895 252.93 577.602 252.93 Z M 577.602 208.301 C 570.973 208.301 564.734 210.879 560.055 215.57 C 555.367 220.25 552.781 226.492 552.781 233.121 C 552.789 239.75 555.371 245.98 560.055 250.648 C 564.734 255.352 570.969 257.93 577.602 257.93 C 584.234 257.93 590.465 255.352 595.145 250.648 C 599.824 245.98 602.402 239.762 602.406 233.129 C 602.41 226.5 599.836 220.262 595.145 215.57 C 590.465 210.879 584.23 208.301 577.602 208.301"/>
    <path id="path2730" style="fill:#3894c6;fill-opacity:1;fill-rule:nonzero;stroke:none" d="M 462.047 179.512 C 465.051 173.02 468.586 166.68 472.758 160.68 L 650.016 337.922 C 644 342.102 637.688 345.629 631.191 348.66 L 462.047 179.512"/>
    <path id="path2732" style="fill:#000000;fill-opacity:1;fill-rule:nonzero;stroke:none" d="M 465.059 178.98 C 467.5 173.879 470.211 169.059 473.137 164.59 L 646.105 337.539 C 641.648 340.461 636.824 343.18 631.715 345.641 L 465.059 178.98 Z M 472.758 158.18 C 472.688 158.18 472.613 158.18 472.535 158.191 C 471.797 158.262 471.129 158.648 470.707 159.25 C 466.66 165.07 462.984 171.531 459.773 178.449 C 459.336 179.41 459.535 180.531 460.277 181.27 L 629.426 350.422 C 630.16 351.172 631.305 351.371 632.246 350.922 C 639.184 347.691 645.645 344.012 651.441 339.969 C 652.051 339.551 652.438 338.879 652.504 338.148 C 652.566 337.41 652.305 336.68 651.781 336.16 L 474.527 158.91 C 474.059 158.441 473.418 158.18 472.758 158.18"/>
    <path id="path2734" style="fill:#3894c6;fill-opacity:1;fill-rule:nonzero;stroke:none" d="M 682.422 305.539 L 505.176 128.27 C 511.184 124.102 517.484 120.582 523.988 117.559 L 693.125 286.719 C 690.121 293.211 686.586 299.52 682.422 305.539"/>
    <path id="path2736" style="fill:#000000;fill-opacity:1;fill-rule:nonzero;stroke:none" d="M 509.094 128.648 C 513.57 125.719 518.383 123.012 523.469 120.57 L 690.113 287.25 C 687.695 292.301 684.988 297.109 682.043 301.621 L 509.094 128.648 Z M 523.988 115.059 C 523.633 115.059 523.277 115.141 522.938 115.301 C 516.051 118.488 509.602 122.16 503.75 126.211 C 503.145 126.629 502.754 127.301 502.688 128.039 C 502.617 128.781 502.887 129.512 503.406 130.031 L 680.652 307.309 C 681.176 307.832 681.941 308.121 682.645 308.031 C 683.383 307.961 684.059 307.57 684.477 306.969 C 688.555 301.059 692.23 294.602 695.395 287.781 C 695.836 286.82 695.637 285.699 694.895 284.949 L 525.758 115.789 C 525.277 115.32 524.641 115.059 523.988 115.059"/>
    <path id="path2738" style="fill:#3894c6;fill-opacity:1;fill-rule:nonzero;stroke:none" d="M 544.262 356.07 L 454.633 266.441 C 451.609 255.281 450.059 243.859 450.133 232.422 L 578.297 360.559 C 566.824 360.621 555.406 359.082 544.262 356.07"/>
    <path id="path2740" style="fill:#000000;fill-opacity:1;fill-rule:nonzero;stroke:none" d="M 456.875 265.141 C 454.531 256.32 453.148 247.41 452.754 238.57 L 572.117 357.91 C 563.031 357.488 554.234 356.121 545.559 353.82 L 456.875 265.141 Z M 450.133 229.922 C 449.809 229.922 449.488 229.969 449.184 230.102 C 448.254 230.48 447.637 231.391 447.633 232.398 C 447.559 243.898 449.102 255.582 452.223 267.09 C 452.336 267.512 452.559 267.891 452.867 268.211 L 542.496 357.84 C 542.805 358.148 543.188 358.359 543.613 358.48 C 554.867 361.52 566.328 363.059 577.668 363.059 L 578.313 363.059 C 579.316 363.051 580.227 362.441 580.609 361.512 C 580.992 360.582 580.777 359.512 580.063 358.789 L 451.898 230.648 C 451.422 230.172 450.781 229.922 450.133 229.922"/>
    <path id="path2742" style="fill:#3894c6;fill-opacity:1;fill-rule:nonzero;stroke:none" d="M 700.57 199.801 C 703.57 210.93 705.121 222.352 705.059 233.809 L 576.887 105.66 C 588.355 105.59 599.773 107.148 610.922 110.141 L 700.57 199.801"/>
    <path id="path2744" style="fill:#000000;fill-opacity:1;fill-rule:nonzero;stroke:none" d="M 702.438 227.648 L 583.043 108.281 C 591.859 108.68 600.777 110.051 609.629 112.391 L 698.328 201.09 C 700.652 209.91 702.031 218.809 702.438 227.648 Z M 577.605 103.16 L 576.871 103.16 C 575.859 103.172 574.957 103.77 574.57 104.711 C 574.188 105.641 574.402 106.711 575.117 107.43 L 703.293 235.582 C 704.004 236.289 705.082 236.512 706.012 236.129 C 706.941 235.75 707.555 234.84 707.559 233.82 C 707.621 222.32 706.086 210.66 702.984 199.141 C 702.871 198.719 702.645 198.34 702.34 198.031 L 612.691 108.371 C 612.383 108.059 611.992 107.84 611.57 107.73 C 600.258 104.691 588.832 103.16 577.605 103.16"/>
    <path id="path2746" style="fill:#997755;fill-opacity:1;fill-rule:nonzero;stroke:none" d="M 533.047 156.16 C 539.672 152.32 546.648 149.449 553.879 147.469 L 663.246 256.84 C 661.254 264.059 658.391 271.039 654.551 277.66 L 533.047 156.16"/>
    <path id="path2748" style="fill:#000000;fill-opacity:1;fill-rule:nonzero;stroke:none" d="M 537.164 156.73 C 542.227 154.07 547.582 151.898 553.145 150.281 L 660.438 257.57 C 658.801 263.148 656.633 268.512 653.969 273.551 L 537.164 156.73 Z M 553.879 144.969 C 553.656 144.969 553.438 145 553.219 145.059 C 545.68 147.121 538.473 150.121 531.793 153.992 C 531.121 154.379 530.668 155.059 530.566 155.832 C 530.469 156.602 530.727 157.379 531.277 157.922 L 652.781 279.43 C 653.336 279.961 654.125 280.199 654.871 280.141 C 655.645 280.039 656.324 279.582 656.715 278.91 C 660.559 272.281 663.563 265.082 665.66 257.5 C 665.898 256.629 665.648 255.711 665.016 255.07 L 555.645 145.711 C 555.172 145.23 554.531 144.969 553.879 144.969"/>
    <path id="path2750" style="fill:#997755;fill-opacity:1;fill-rule:nonzero;stroke:none" d="M 491.953 209.398 C 493.941 202.18 496.801 195.211 500.645 188.559 L 622.145 310.07 C 615.512 313.922 608.523 316.781 601.309 318.781 L 491.953 209.398"/>
    <path id="path2752" style="fill:#000000;fill-opacity:1;fill-rule:nonzero;stroke:none" d="M 494.762 208.672 C 496.391 203.102 498.559 197.742 501.227 192.68 L 618.027 309.5 C 613.004 312.148 607.641 314.32 602.035 315.969 L 494.762 208.672 Z M 500.645 186.059 C 500.535 186.059 500.43 186.07 500.316 186.082 C 499.547 186.18 498.867 186.629 498.48 187.309 C 494.629 193.969 491.621 201.18 489.543 208.73 C 489.301 209.602 489.551 210.531 490.188 211.172 L 599.543 320.551 C 600.18 321.18 601.129 321.41 601.977 321.191 C 609.586 319.09 616.793 316.07 623.398 312.23 C 624.066 311.852 624.52 311.172 624.625 310.391 C 624.723 309.621 624.457 308.852 623.91 308.301 L 502.41 186.789 C 501.938 186.32 501.305 186.059 500.645 186.059"/>
  </g>
</svg>