<?xml version="1.0" encoding="utf-8"?>
<svg viewBox="267.197998046875 259.9540100097656 95.61599731445312 125.11499786376953" width="95.61599731445312" height="125.11499786376953" xmlns="http://www.w3.org/2000/svg">
  <g transform="matrix(0.12500000186264515, 0, 0, -0.12500000186264515, 0, 526.1375122070312)">
    <path id="path24" style="fill:#ddd8bf;fill-opacity:1;fill-rule:nonzero;stroke:none" d="M 2737.42 1155.71 C 2737.42 1140.71 2626.11 1128.55 2488.81 1128.55 C 2351.5 1128.55 2240.2 1140.71 2240.2 1155.71 C 2240.2 1170.69 2351.5 1182.85 2488.81 1182.85 C 2626.11 1182.85 2737.42 1170.69 2737.42 1155.71"/>
    <path id="path1240" style="fill:#f4d9bd;fill-opacity:1;fill-rule:nonzero;stroke:none" d="M 2244.24 1248.92 C 2244.24 1236.63 2254.17 1226.68 2266.45 1226.68 L 2295.83 1226.68 C 2308.09 1226.68 2318.03 1236.63 2318.03 1248.92 L 2318.03 1278.27 C 2318.03 1290.54 2308.09 1300.48 2295.83 1300.48 L 2266.45 1300.48 C 2254.17 1300.48 2244.24 1290.54 2244.24 1278.27 L 2244.24 1248.92"/>
    <path id="path1242" style="fill:#000000;fill-opacity:1;fill-rule:nonzero;stroke:none" d="M 2266.45 1297.98 C 2255.58 1297.98 2246.74 1289.13 2246.74 1278.27 L 2246.74 1248.92 C 2246.74 1238.04 2255.58 1229.18 2266.45 1229.18 L 2295.83 1229.18 C 2306.69 1229.18 2315.53 1238.04 2315.53 1248.92 L 2315.53 1278.27 C 2315.53 1289.13 2306.69 1297.98 2295.83 1297.98 L 2266.45 1297.98 Z M 2295.83 1224.18 L 2266.45 1224.18 C 2252.82 1224.18 2241.74 1235.28 2241.74 1248.92 L 2241.74 1278.27 C 2241.74 1291.9 2252.82 1302.98 2266.45 1302.98 L 2295.83 1302.98 C 2309.45 1302.98 2320.53 1291.9 2320.53 1278.27 L 2320.53 1248.92 C 2320.53 1235.28 2309.45 1224.18 2295.83 1224.18"/>
    <path id="path1244" style="fill:#d33200;fill-opacity:1;fill-rule:nonzero;stroke:none" d="M 2307.88 1466.95 C 2304.74 1455.51 2240.49 1307.46 2240.53 1295.88 L 2325.1 1284.1 C 2325.1 1284.1 2347.55 1455.51 2350.69 1466.95 L 2307.88 1466.95"/>
    <path id="path1246" style="fill:#000000;fill-opacity:1;fill-rule:nonzero;stroke:none" d="M 2243.38 1298.01 L 2322.95 1286.93 C 2325.67 1307.67 2343.13 1440.25 2347.61 1464.45 L 2309.7 1464.45 C 2307.24 1457.45 2298.79 1437.12 2288.38 1412.04 C 2271.51 1371.41 2246.6 1311.37 2243.38 1298.01 Z M 2325.1 1281.6 C 2324.99 1281.6 2324.87 1281.61 2324.76 1281.62 L 2240.19 1293.4 C 2238.96 1293.58 2238.04 1294.63 2238.03 1295.87 C 2238.01 1303.15 2257.84 1351.51 2283.77 1413.97 C 2294.82 1440.59 2304.37 1463.58 2305.47 1467.61 C 2305.77 1468.69 2306.75 1469.45 2307.88 1469.45 L 2350.69 1469.45 C 2351.47 1469.45 2352.2 1469.09 2352.68 1468.46 C 2353.15 1467.85 2353.31 1467.03 2353.1 1466.28 C 2350.04 1455.14 2327.81 1285.49 2327.58 1283.78 C 2327.5 1283.12 2327.15 1282.52 2326.62 1282.11 C 2326.18 1281.78 2325.64 1281.6 2325.1 1281.6"/>
    <path id="path1248" style="fill:#c9a88b;fill-opacity:1;fill-rule:nonzero;stroke:none" d="M 2784.8 1436.38 C 2797.08 1436.38 2807.03 1426.43 2807.03 1414.17 L 2807.03 1384.77 C 2807.03 1372.52 2797.08 1362.56 2784.8 1362.56 L 2755.45 1362.56 C 2743.17 1362.56 2733.22 1372.52 2733.22 1384.77 L 2733.22 1414.17 C 2733.22 1426.43 2743.17 1436.38 2755.45 1436.38 L 2784.8 1436.38"/>
    <path id="path1250" style="fill:#000000;fill-opacity:1;fill-rule:nonzero;stroke:none" d="M 2755.45 1433.88 C 2744.58 1433.88 2735.72 1425.04 2735.72 1414.17 L 2735.72 1384.77 C 2735.72 1373.9 2744.58 1365.06 2755.45 1365.06 L 2784.8 1365.06 C 2795.68 1365.06 2804.53 1373.9 2804.53 1384.77 L 2804.53 1414.17 C 2804.53 1425.04 2795.68 1433.88 2784.8 1433.88 L 2755.45 1433.88 Z M 2784.8 1360.06 L 2755.45 1360.06 C 2741.82 1360.06 2730.72 1371.15 2730.72 1384.77 L 2730.72 1414.17 C 2730.72 1427.8 2741.82 1438.88 2755.45 1438.88 L 2784.8 1438.88 C 2798.44 1438.88 2809.53 1427.8 2809.53 1414.17 L 2809.53 1384.77 C 2809.53 1371.15 2798.44 1360.06 2784.8 1360.06"/>
    <path id="path1252" style="fill:#f4d9bd;fill-opacity:1;fill-rule:nonzero;stroke:none" d="M 2748.04 1436.38 C 2756.23 1436.38 2762.85 1429.75 2762.85 1421.55 L 2762.85 1408.63 C 2762.85 1400.45 2756.23 1393.81 2748.04 1393.81 L 2748.04 1393.81 C 2739.87 1393.81 2733.22 1400.45 2733.22 1408.63 L 2733.22 1421.55 C 2733.22 1429.75 2739.87 1436.38 2748.04 1436.38 L 2748.04 1436.38"/>
    <path id="path1254" style="fill:#000000;fill-opacity:1;fill-rule:nonzero;stroke:none" d="M 2748.04 1433.88 C 2741.25 1433.88 2735.72 1428.34 2735.72 1421.55 L 2735.72 1408.63 C 2735.72 1401.84 2741.25 1396.31 2748.04 1396.31 C 2754.83 1396.31 2760.35 1401.84 2760.35 1408.63 L 2760.35 1421.55 C 2760.35 1428.34 2754.83 1433.88 2748.04 1433.88 Z M 2748.04 1391.31 C 2738.49 1391.31 2730.72 1399.08 2730.72 1408.63 L 2730.72 1421.55 C 2730.72 1431.11 2738.49 1438.88 2748.04 1438.88 C 2757.59 1438.88 2765.35 1431.11 2765.35 1421.55 L 2765.35 1408.63 C 2765.35 1399.08 2757.59 1391.31 2748.04 1391.31"/>
    <path id="path1256" style="fill:#d33200;fill-opacity:1;fill-rule:nonzero;stroke:none" d="M 2566.76 1445.89 L 2566.76 1403.09 C 2578.21 1406.24 2726.25 1345.18 2737.83 1345.13 L 2737.83 1445.89 L 2566.76 1445.89"/>
    <path id="path1258" style="fill:#000000;fill-opacity:1;fill-rule:nonzero;stroke:none" d="M 2569.26 1405.63 C 2581.83 1404.34 2626.32 1387.69 2669.4 1371.57 C 2697.32 1361.12 2726.09 1350.35 2735.33 1348.07 L 2735.33 1443.39 L 2569.26 1443.39 L 2569.26 1405.63 Z M 2737.83 1342.63 C 2737.83 1342.63 2737.83 1342.63 2737.82 1342.63 C 2732.64 1342.65 2707.78 1351.86 2667.65 1366.88 C 2627.39 1381.96 2577.29 1400.71 2567.88 1400.71 C 2567.12 1400.5 2566.1 1400.64 2565.47 1401.12 C 2564.85 1401.59 2564.26 1402.31 2564.26 1403.09 L 2564.26 1445.89 C 2564.26 1447.27 2565.38 1448.39 2566.76 1448.39 L 2737.83 1448.39 C 2739.21 1448.39 2740.33 1447.27 2740.33 1445.89 L 2740.33 1345.13 C 2740.33 1344.47 2740.07 1343.83 2739.59 1343.36 C 2739.13 1342.89 2738.49 1342.63 2737.83 1342.63"/>
    <path id="path1260" style="fill:#f15a24;fill-opacity:1;fill-rule:nonzero;stroke:none" d="M 2610.93 1166.89 C 2611.03 1184.43 2592.76 1442.62 2588.55 1458.16 L 2340.37 1458.16 C 2336.07 1442.5 2305.29 1182.74 2305.35 1166.89 L 2610.93 1166.89"/>
    <path id="path1262" style="fill:#000000;fill-opacity:1;fill-rule:nonzero;stroke:none" d="M 2307.94 1169.39 L 2608.39 1169.39 C 2607.47 1201.66 2590.8 1429.66 2586.5 1455.66 L 2342.37 1455.66 C 2337.22 1429.29 2309.71 1200.46 2307.94 1169.39 Z M 2610.93 1164.39 L 2305.35 1164.39 C 2303.97 1164.39 2302.86 1165.5 2302.85 1166.88 C 2302.78 1185.03 2333.95 1444.23 2337.95 1458.82 C 2338.25 1459.91 2339.24 1460.66 2340.37 1460.66 L 2588.55 1460.66 C 2589.68 1460.66 2590.67 1459.91 2590.96 1458.81 C 2595.63 1441.6 2613.51 1181.01 2613.43 1166.88 C 2613.42 1165.5 2612.3 1164.39 2610.93 1164.39"/>
    <path id="path1264" style="fill:#ffde73;fill-opacity:1;fill-rule:nonzero;stroke:none" d="M 2314.38 1290.03 L 2603.06 1290.03 L 2603.06 1321.858 L 2314.38 1321.858 L 2314.38 1290.03 Z"/>
    <path id="path1266" style="fill:#000000;fill-opacity:1;fill-rule:nonzero;stroke:none" d="M 2316.88 1292.53 L 2600.56 1292.53 L 2600.56 1319.36 L 2316.88 1319.36 L 2316.88 1292.53 Z M 2603.06 1287.53 L 2314.38 1287.53 C 2313 1287.53 2311.88 1288.66 2311.88 1290.03 L 2311.88 1321.86 C 2311.88 1323.24 2313 1324.36 2314.38 1324.36 L 2603.06 1324.36 C 2604.44 1324.36 2605.56 1323.24 2605.56 1321.86 L 2605.56 1290.03 C 2605.56 1288.66 2604.44 1287.53 2603.06 1287.53"/>
    <path id="path1268" style="fill:#2b373d;fill-opacity:1;fill-rule:nonzero;stroke:none" d="M 2302.68 1181.76 L 2441.739 1181.76 L 2441.739 1298.049 L 2302.68 1298.049 L 2302.68 1181.76 Z"/>
    <path id="path1270" style="fill:#000000;fill-opacity:1;fill-rule:nonzero;stroke:none" d="M 2305.18 1184.26 L 2439.24 1184.26 L 2439.24 1295.55 L 2305.18 1295.55 L 2305.18 1184.26 Z M 2441.74 1179.26 L 2302.68 1179.26 C 2301.29 1179.26 2300.18 1180.38 2300.18 1181.76 L 2300.18 1298.05 C 2300.18 1299.43 2301.29 1300.55 2302.68 1300.55 L 2441.74 1300.55 C 2443.13 1300.55 2444.24 1299.43 2444.24 1298.05 L 2444.24 1181.76 C 2444.24 1180.38 2443.13 1179.26 2441.74 1179.26"/>
    <path id="path1272" style="fill:#425059;fill-opacity:1;fill-rule:nonzero;stroke:none" d="M 2302.68 1181.76 L 2385.699 1181.76 L 2385.699 1298.049 L 2302.68 1298.049 L 2302.68 1181.76 Z"/>
    <path id="path1274" style="fill:#000000;fill-opacity:1;fill-rule:nonzero;stroke:none" d="M 2305.18 1184.26 L 2383.2 1184.26 L 2383.2 1295.55 L 2305.18 1295.55 L 2305.18 1184.26 Z M 2385.7 1179.26 L 2302.68 1179.26 C 2301.29 1179.26 2300.18 1180.38 2300.18 1181.76 L 2300.18 1298.05 C 2300.18 1299.43 2301.29 1300.55 2302.68 1300.55 L 2385.7 1300.55 C 2387.08 1300.55 2388.2 1299.43 2388.2 1298.05 L 2388.2 1181.76 C 2388.2 1180.38 2387.08 1179.26 2385.7 1179.26"/>
    <path id="path1276" style="fill:#8192a4;fill-opacity:1;fill-rule:nonzero;stroke:none" d="M 2370.65 1181.76 L 2385.701 1181.76 L 2385.701 1298.049 L 2370.65 1298.049 L 2370.65 1181.76 Z"/>
    <path id="path1278" style="fill:#000000;fill-opacity:1;fill-rule:nonzero;stroke:none" d="M 2373.15 1184.26 L 2383.2 1184.26 L 2383.2 1295.55 L 2373.15 1295.55 L 2373.15 1184.26 Z M 2385.7 1179.26 L 2370.65 1179.26 C 2369.27 1179.26 2368.15 1180.38 2368.15 1181.76 L 2368.15 1298.05 C 2368.15 1299.43 2369.27 1300.55 2370.65 1300.55 L 2385.7 1300.55 C 2387.08 1300.55 2388.2 1299.43 2388.2 1298.05 L 2388.2 1181.76 C 2388.2 1180.38 2387.08 1179.26 2385.7 1179.26"/>
    <path id="path1280" style="fill:#8192a4;fill-opacity:1;fill-rule:nonzero;stroke:none" d="M 2426.7 1181.76 L 2441.739 1181.76 L 2441.739 1298.049 L 2426.7 1298.049 L 2426.7 1181.76 Z"/>
    <path id="path1282" style="fill:#000000;fill-opacity:1;fill-rule:nonzero;stroke:none" d="M 2429.2 1184.26 L 2439.24 1184.26 L 2439.24 1295.55 L 2429.2 1295.55 L 2429.2 1184.26 Z M 2441.74 1179.26 L 2426.7 1179.26 C 2425.32 1179.26 2424.2 1180.38 2424.2 1181.76 L 2424.2 1298.05 C 2424.2 1299.43 2425.32 1300.55 2426.7 1300.55 L 2441.74 1300.55 C 2443.13 1300.55 2444.24 1299.43 2444.24 1298.05 L 2444.24 1181.76 C 2444.24 1180.38 2443.13 1179.26 2441.74 1179.26"/>
    <path id="path1284" style="fill:#425059;fill-opacity:1;fill-rule:nonzero;stroke:none" d="M 2302.69 1305.57 C 2302.69 1309.74 2309.64 1313.1 2344 1313.1 L 2406.2 1313.1 L 2441.74 1298.05 L 2302.69 1298.05 C 2302.69 1298.05 2302.69 1301.42 2302.69 1305.57"/>
    <path id="path1286" style="fill:#000000;fill-opacity:1;fill-rule:nonzero;stroke:none" d="M 2305.19 1300.55 L 2429.42 1300.55 L 2405.69 1310.6 L 2344 1310.6 C 2307.98 1310.6 2305.19 1306.75 2305.19 1305.57 L 2305.19 1300.55 Z M 2441.87 1295.55 C 2441.82 1295.55 2441.78 1295.55 2441.74 1295.55 L 2302.69 1295.55 C 2301.3 1295.55 2300.19 1296.67 2300.19 1298.05 L 2300.19 1305.57 C 2300.19 1311.92 2307.35 1315.6 2344 1315.6 L 2406.2 1315.6 C 2406.53 1315.6 2406.86 1315.53 2407.17 1315.4 L 2442.37 1300.5 C 2443.51 1300.27 2444.37 1299.26 2444.37 1298.05 C 2444.37 1296.67 2443.25 1295.55 2441.87 1295.55"/>
    <path id="path1288" style="fill:#8192a4;fill-opacity:1;fill-rule:nonzero;stroke:none" d="M 2370.65 1305.57 C 2370.65 1309.74 2386.57 1313.1 2406.2 1313.1 C 2425.82 1313.1 2441.74 1309.74 2441.74 1305.57 L 2441.74 1298.05 L 2370.65 1298.05 C 2370.65 1298.05 2370.65 1301.42 2370.65 1305.57"/>
    <path id="path1290" style="fill:#000000;fill-opacity:1;fill-rule:nonzero;stroke:none" d="M 2373.13 1300.55 L 2439.24 1300.55 L 2439.24 1305.57 C 2438.21 1307.05 2427.05 1310.6 2406.2 1310.6 C 2385.35 1310.6 2374.18 1307.05 2373.08 1305.25 L 2373.13 1300.55 Z M 2441.74 1295.55 L 2370.65 1295.55 C 2369.27 1295.55 2368.15 1296.67 2368.15 1298.05 L 2368.15 1305.57 C 2368.15 1315.32 2402.3 1315.6 2406.2 1315.6 C 2410.09 1315.6 2444.24 1315.32 2444.24 1305.57 L 2444.24 1298.05 C 2444.24 1296.67 2443.13 1295.55 2441.74 1295.55"/>
    <path id="path1292" style="fill:#eae8d8;fill-opacity:1;fill-rule:nonzero;stroke:none" d="M 2385.7 1188.63 L 2426.7 1188.63 L 2426.7 1291.181 L 2385.7 1291.181 L 2385.7 1188.63 Z"/>
    <path id="path1294" style="fill:#000000;fill-opacity:1;fill-rule:nonzero;stroke:none" d="M 2388.2 1191.13 L 2424.2 1191.13 L 2424.2 1288.68 L 2388.2 1288.68 L 2388.2 1191.13 Z M 2426.7 1186.13 L 2385.7 1186.13 C 2384.32 1186.13 2383.2 1187.25 2383.2 1188.63 L 2383.2 1291.18 C 2383.2 1292.55 2384.32 1293.68 2385.7 1293.68 L 2426.7 1293.68 C 2428.09 1293.68 2429.2 1292.55 2429.2 1291.18 L 2429.2 1188.63 C 2429.2 1187.25 2428.09 1186.13 2426.7 1186.13"/>
    <path id="path1296" style="fill:#ffde73;fill-opacity:1;fill-rule:nonzero;stroke:none" d="M 2360.51 1243.95 L 2345.72 1231.32 L 2343.37 1203.01 L 2331.86 1223.49 L 2315.63 1218.65 L 2323.28 1243.95 L 2315.63 1269.3 L 2331.86 1264.48 L 2343.37 1284.95 L 2345.72 1256.64 L 2360.51 1243.95"/>
    <path id="path1298" style="fill:#000000;fill-opacity:1;fill-rule:nonzero;stroke:none" d="M 2331.86 1225.99 C 2332.74 1225.99 2333.58 1225.52 2334.03 1224.71 L 2341.55 1211.34 L 2343.23 1231.53 C 2343.29 1232.18 2343.6 1232.8 2344.1 1233.23 L 2356.67 1243.96 L 2344.1 1254.75 C 2343.59 1255.18 2343.29 1255.78 2343.23 1256.44 L 2341.55 1276.62 L 2334.03 1263.26 C 2333.47 1262.23 2332.27 1261.71 2331.14 1262.08 L 2319.36 1265.58 L 2325.67 1244.67 C 2325.82 1244.2 2325.82 1243.69 2325.67 1243.23 L 2319.37 1222.37 L 2331.14 1225.88 C 2331.38 1225.96 2331.62 1225.99 2331.86 1225.99 Z M 2343.37 1200.51 C 2342.48 1200.51 2341.64 1200.99 2341.19 1201.79 L 2330.65 1220.52 L 2316.34 1216.25 C 2315.46 1216 2314.5 1216.22 2313.85 1216.88 C 2313.2 1217.53 2312.96 1218.49 2313.23 1219.37 L 2320.67 1243.95 L 2313.23 1268.58 C 2312.96 1269.46 2313.2 1270.41 2313.85 1271.07 C 2314.51 1271.72 2315.47 1271.98 2316.34 1271.69 L 2330.65 1267.44 L 2341.19 1286.18 C 2341.73 1287.14 2342.82 1287.65 2343.9 1287.4 C 2344.98 1287.16 2345.77 1286.25 2345.86 1285.16 L 2348.13 1257.87 L 2362.14 1245.84 C 2362.7 1245.37 2363.01 1244.67 2363.01 1243.95 C 2363.01 1243.22 2362.69 1242.52 2362.13 1242.04 L 2348.13 1230.09 L 2345.86 1202.81 C 2345.77 1201.71 2344.98 1200.8 2343.9 1200.57 C 2343.73 1200.53 2343.54 1200.51 2343.37 1200.51"/>
    <path id="path1300" style="fill:#f4d9bd;fill-opacity:1;fill-rule:nonzero;stroke:none" d="M 2680.24 1597.81 C 2680.24 1509.88 2608.97 1438.59 2521.03 1438.59 L 2437.17 1438.59 C 2349.23 1438.59 2277.94 1509.88 2277.94 1597.81 L 2277.94 1597.81 C 2277.94 1685.74 2349.23 1757.02 2437.17 1757.02 L 2521.03 1757.02 C 2608.97 1757.02 2680.24 1685.74 2680.24 1597.81 L 2680.24 1597.81"/>
    <path id="path1302" style="fill:#000000;fill-opacity:1;fill-rule:nonzero;stroke:none" d="M 2437.17 1754.52 C 2350.75 1754.52 2280.44 1684.22 2280.44 1597.81 C 2280.44 1511.39 2350.75 1441.09 2437.17 1441.09 L 2521.03 1441.09 C 2607.44 1441.09 2677.74 1511.39 2677.74 1597.81 C 2677.74 1684.22 2607.44 1754.52 2521.03 1754.52 L 2437.17 1754.52 Z M 2521.03 1436.09 L 2437.17 1436.09 C 2347.99 1436.09 2275.44 1508.64 2275.44 1597.81 C 2275.44 1686.98 2347.99 1759.52 2437.17 1759.52 L 2521.03 1759.52 C 2610.2 1759.52 2682.74 1686.98 2682.74 1597.81 C 2682.74 1508.64 2610.2 1436.09 2521.03 1436.09"/>
    <path id="path1304" style="fill:#c9a88b;fill-opacity:1;fill-rule:nonzero;stroke:none" d="M 2657.29 1679.85 L 2572.93 1712.5 L 2344.05 1672.16 L 2278.94 1615.23 C 2278.31 1609.5 2277.94 1603.69 2277.94 1597.81 C 2277.94 1574.25 2283.19 1551.97 2292.37 1531.86 L 2680.12 1600.22 C 2679.69 1629.35 2671.38 1656.51 2657.29 1679.85"/>
    <path id="path1306" style="fill:#000000;fill-opacity:1;fill-rule:nonzero;stroke:none" d="M 2437.17 1754.52 C 2350.75 1754.52 2280.44 1684.22 2280.44 1597.81 C 2280.44 1511.39 2350.75 1441.09 2437.17 1441.09 L 2521.03 1441.09 C 2607.44 1441.09 2677.74 1511.39 2677.74 1597.81 C 2677.74 1684.22 2607.44 1754.52 2521.03 1754.52 L 2437.17 1754.52 Z M 2521.03 1436.09 L 2437.17 1436.09 C 2347.99 1436.09 2275.44 1508.64 2275.44 1597.81 C 2275.44 1686.98 2347.99 1759.52 2437.17 1759.52 L 2521.03 1759.52 C 2610.2 1759.52 2682.74 1686.98 2682.74 1597.81 C 2682.74 1508.64 2610.2 1436.09 2521.03 1436.09"/>
    <path id="path1308" style="fill:#f2f1e7;fill-opacity:1;fill-rule:nonzero;stroke:none" d="M 2612.86 1521.17 L 2547.33 1521.17 C 2504.3 1518.64 2460.49 1511.3 2452.15 1500.37 C 2452.15 1500.37 2339.98 1527.02 2335.61 1605.21 L 2335.61 1490.18 C 2335.61 1490.18 2341.86 1368.95 2494.62 1320.73 L 2495.87 1343.14 C 2495.87 1343.14 2553.14 1298.05 2609.52 1300.48 C 2609.52 1300.48 2593.04 1313.1 2593.96 1344.63 C 2593.96 1344.63 2618.36 1320.06 2651.92 1320.66 C 2651.92 1320.66 2684.56 1453.65 2652.28 1507.49 C 2649.01 1512.92 2637.16 1519.9 2612.86 1521.17"/>
    <path id="path1310" style="fill:#000000;fill-opacity:1;fill-rule:nonzero;stroke:none" d="M 2495.87 1345.64 C 2496.42 1345.64 2496.97 1345.45 2497.42 1345.1 C 2497.95 1344.68 2550.76 1303.62 2603.68 1302.89 C 2598.55 1309.14 2590.81 1322.37 2591.46 1344.7 C 2591.48 1345.71 2592.1 1346.59 2593.03 1346.96 C 2593.98 1347.32 2595.03 1347.1 2595.73 1346.4 C 2595.96 1346.17 2618.88 1323.53 2649.94 1323.15 C 2653.73 1339.55 2679.44 1457.32 2650.14 1506.2 C 2647.13 1511.21 2635.52 1517.47 2612.72 1518.67 L 2547.33 1518.67 C 2498.49 1515.79 2460.98 1507.83 2454.14 1498.86 C 2453.54 1498.06 2452.54 1497.69 2451.57 1497.94 C 2450.56 1498.19 2360.73 1520.23 2338.11 1581.08 L 2338.11 1490.18 C 2338.16 1489.12 2346.04 1371.85 2492.3 1324.1 L 2493.37 1343.27 C 2493.42 1344.21 2493.99 1345.03 2494.84 1345.41 C 2495.17 1345.57 2495.52 1345.64 2495.87 1345.64 Z M 2605.08 1297.88 C 2557.63 1297.88 2511.47 1328.65 2498.11 1338.34 L 2497.11 1320.59 C 2497.07 1319.82 2496.67 1319.1 2496.04 1318.67 C 2495.4 1318.23 2494.59 1318.11 2493.87 1318.34 C 2341.22 1366.53 2333.17 1488.82 2333.11 1490.05 L 2333.11 1605.21 C 2333.11 1606.57 2334.18 1607.67 2335.54 1607.71 C 2336.78 1607.8 2338.03 1606.69 2338.1 1605.35 C 2342.06 1534.62 2438.32 1506.62 2451.29 1503.18 C 2462.91 1514.78 2507.91 1521.35 2547.18 1523.67 L 2612.86 1523.67 C 2637.71 1522.37 2650.61 1515.13 2654.42 1508.78 C 2686.86 1454.67 2655.69 1325.53 2654.35 1320.06 C 2654.08 1318.96 2653.1 1318.18 2651.97 1318.16 L 2650.72 1318.15 C 2624.99 1318.15 2604.91 1332.06 2596.48 1339.03 C 2597.5 1313.31 2610.9 1302.57 2611.05 1302.46 C 2611.88 1301.82 2612.22 1300.73 2611.9 1299.72 C 2611.58 1298.72 2610.68 1298.03 2609.63 1297.98 C 2608.11 1297.92 2606.6 1297.88 2605.08 1297.88"/>
    <path id="path1312" style="fill:#ffa364;fill-opacity:1;fill-rule:nonzero;stroke:none" d="M 2574.97 1549.95 L 2575.35 1551.55 C 2575.35 1574.6 2556.68 1593.27 2533.62 1593.27 L 2533.62 1563.23 C 2518.85 1563.23 2506.89 1551.25 2506.89 1536.5 C 2506.89 1521.75 2518.85 1509.79 2533.62 1509.79 L 2565.35 1509.79 C 2577.1 1509.79 2586.63 1519.31 2586.63 1531.07 C 2586.63 1539.34 2581.86 1546.43 2574.97 1549.95"/>
    <path id="path1314" style="fill:#000000;fill-opacity:1;fill-rule:nonzero;stroke:none" d="M 2536.12 1590.7 L 2536.12 1563.23 C 2536.12 1561.85 2535 1560.73 2533.62 1560.73 C 2520.26 1560.73 2509.39 1549.86 2509.39 1536.5 C 2509.39 1523.15 2520.26 1512.29 2533.62 1512.29 L 2565.35 1512.29 C 2575.7 1512.29 2584.13 1520.72 2584.13 1531.07 C 2584.13 1538.1 2580.18 1544.48 2573.83 1547.73 C 2572.8 1548.26 2572.27 1549.42 2572.53 1550.54 L 2572.92 1552.13 C 2572.85 1572.36 2556.59 1589.41 2536.12 1590.7 Z M 2565.35 1507.29 L 2533.62 1507.29 C 2517.5 1507.29 2504.39 1520.39 2504.39 1536.5 C 2504.39 1551.77 2516.17 1564.35 2531.12 1565.62 L 2531.12 1593.27 C 2531.12 1594.65 2532.24 1595.77 2533.62 1595.77 C 2558.01 1595.77 2577.85 1575.93 2577.85 1551.55 L 2577.78 1551.23 C 2584.82 1546.91 2589.13 1539.35 2589.13 1531.07 C 2589.13 1517.95 2578.46 1507.29 2565.35 1507.29"/>
    <path id="path1316" style="fill:#f4d9bd;fill-opacity:1;fill-rule:nonzero;stroke:none" d="M 2575.99 1530.35 C 2575.99 1523.88 2570.73 1518.63 2564.25 1518.63 C 2557.77 1518.63 2552.52 1523.88 2552.52 1530.35 C 2552.52 1536.84 2557.77 1542.09 2564.25 1542.09 C 2570.73 1542.09 2575.99 1536.84 2575.99 1530.35"/>
    <path id="path1318" style="fill:#2a5b6a;fill-opacity:1;fill-rule:nonzero;stroke:none" d="M 2429.84 1605.21 C 2415.49 1605.21 2403.9 1593.58 2403.9 1579.23 L 2455.62 1579.23 C 2455.62 1593.58 2444.08 1605.21 2429.84 1605.21"/>
    <path id="path1320" style="fill:#000000;fill-opacity:1;fill-rule:nonzero;stroke:none" d="M 2406.53 1581.73 L 2452.98 1581.73 C 2451.74 1593.51 2441.84 1602.71 2429.84 1602.71 C 2417.76 1602.71 2407.78 1593.51 2406.53 1581.73 Z M 2455.62 1576.73 L 2403.9 1576.73 C 2402.52 1576.73 2401.4 1577.85 2401.4 1579.23 C 2401.4 1594.93 2414.16 1607.71 2429.84 1607.71 C 2445.43 1607.71 2458.12 1594.93 2458.12 1579.23 C 2458.12 1577.85 2457 1576.73 2455.62 1576.73"/>
    <path id="path1322" style="fill:#2a5b6a;fill-opacity:1;fill-rule:nonzero;stroke:none" d="M 2638.59 1605.21 C 2624.24 1605.21 2612.69 1593.58 2612.69 1579.23 L 2664.4 1579.23 C 2664.4 1593.58 2652.83 1605.21 2638.59 1605.21"/>
    <path id="path1324" style="fill:#000000;fill-opacity:1;fill-rule:nonzero;stroke:none" d="M 2615.32 1581.73 L 2661.77 1581.73 C 2660.53 1593.51 2650.61 1602.71 2638.59 1602.71 C 2626.53 1602.71 2616.57 1593.51 2615.32 1581.73 Z M 2664.4 1576.73 L 2612.69 1576.73 C 2611.31 1576.73 2610.19 1577.85 2610.19 1579.23 C 2610.19 1594.93 2622.93 1607.71 2638.59 1607.71 C 2654.2 1607.71 2666.9 1594.93 2666.9 1579.23 C 2666.9 1577.85 2665.79 1576.73 2664.4 1576.73"/>
    <path id="path1326" style="fill:#f2f1e7;fill-opacity:1;fill-rule:nonzero;stroke:none" d="M 2480.93 1624.45 L 2378.61 1610.17 L 2378.61 1638.62 L 2480.93 1670.73 L 2480.93 1624.45"/>
    <path id="path1328" style="fill:#000000;fill-opacity:1;fill-rule:nonzero;stroke:none" d="M 2381.11 1636.78 L 2381.11 1613.04 L 2478.43 1626.62 L 2478.43 1667.32 L 2381.11 1636.78 Z M 2378.61 1607.67 C 2378.01 1607.67 2377.43 1607.88 2376.97 1608.28 C 2376.43 1608.75 2376.11 1609.45 2376.11 1610.17 L 2376.11 1638.62 C 2376.11 1639.71 2376.82 1640.68 2377.87 1641 L 2480.19 1673.11 C 2480.95 1673.35 2481.77 1673.21 2482.41 1672.74 C 2483.05 1672.27 2483.43 1671.52 2483.43 1670.73 L 2483.43 1624.45 C 2483.43 1623.2 2482.51 1622.14 2481.28 1621.97 L 2378.96 1607.69 C 2378.84 1607.68 2378.73 1607.67 2378.61 1607.67"/>
    <path id="path1330" style="fill:#f2f1e7;fill-opacity:1;fill-rule:nonzero;stroke:none" d="M 2597.25 1624.44 L 2679.85 1610.17 L 2679.85 1638.69 L 2597.25 1670.71 L 2597.25 1624.44"/>
    <path id="path1332" style="fill:#000000;fill-opacity:1;fill-rule:nonzero;stroke:none" d="M 2599.75 1626.55 L 2677.35 1613.14 L 2677.35 1636.99 L 2599.75 1667.05 L 2599.75 1626.55 Z M 2679.85 1607.67 C 2679.71 1607.67 2679.57 1607.68 2679.43 1607.71 L 2596.83 1621.98 C 2595.63 1622.18 2594.75 1623.22 2594.75 1624.44 L 2594.75 1670.71 C 2594.75 1671.53 2595.16 1672.3 2595.84 1672.77 C 2596.52 1673.24 2597.38 1673.32 2598.15 1673.04 L 2680.76 1641.03 C 2681.72 1640.66 2682.35 1639.73 2682.35 1638.69 L 2682.35 1610.17 C 2682.35 1609.43 2682.03 1608.73 2681.46 1608.26 C 2681.01 1607.87 2680.44 1607.67 2679.85 1607.67"/>
    <path id="path1334" style="fill:#f2f1e7;fill-opacity:1;fill-rule:nonzero;stroke:none" d="M 2277.94 1665.26 C 2268.94 1646.49 2265.62 1575.99 2267.58 1529.35 C 2271.08 1446.05 2252.09 1403.11 2252.09 1403.11 C 2268.92 1412.38 2276.18 1434.07 2276.18 1434.07 C 2280.73 1413.13 2269.71 1384.34 2269.71 1384.34 C 2290.79 1384.34 2316.83 1432.36 2316.83 1432.36 L 2317.37 1407.12 C 2380.66 1461.39 2367.18 1665.26 2367.18 1665.26 L 2277.94 1665.26"/>
    <path id="path1336" style="fill:#000000;fill-opacity:1;fill-rule:nonzero;stroke:none" d="M 2276.18 1436.57 C 2276.22 1436.57 2276.27 1436.57 2276.31 1436.57 C 2277.44 1436.5 2278.38 1435.7 2278.62 1434.59 C 2282.31 1417.6 2276.29 1396.14 2273.42 1387.39 C 2288.97 1391.8 2308.12 1421.54 2314.63 1433.55 C 2315.18 1434.54 2316.3 1435.06 2317.42 1434.79 C 2318.52 1434.52 2319.31 1433.55 2319.33 1432.41 L 2319.75 1412.77 C 2373.4 1467.26 2366.01 1640.56 2364.82 1662.76 L 2279.57 1662.76 C 2271.7 1643.41 2268.06 1577.51 2270.08 1529.46 C 2272.76 1465.52 2262.45 1425.53 2257.22 1409.75 C 2268.55 1419.55 2273.75 1434.68 2273.81 1434.86 C 2274.15 1435.88 2275.11 1436.57 2276.18 1436.57 Z M 2269.71 1381.84 C 2268.89 1381.84 2268.12 1382.24 2267.65 1382.92 C 2267.18 1383.6 2267.08 1384.47 2267.37 1385.23 C 2267.47 1385.47 2275.27 1406.16 2274.75 1424.62 C 2270.89 1417.19 2263.96 1406.79 2253.3 1400.92 C 2252.37 1400.38 2251.19 1400.54 2250.4 1401.26 C 2249.61 1401.99 2249.37 1403.14 2249.8 1404.11 C 2249.99 1404.54 2268.51 1447.61 2265.08 1529.24 C 2263.27 1572.45 2266 1646.14 2275.68 1666.34 C 2276.1 1667.2 2276.98 1667.76 2277.94 1667.76 L 2367.18 1667.76 C 2368.5 1667.76 2369.58 1666.73 2369.67 1665.42 C 2370.22 1657.04 2382.51 1459.68 2318.99 1405.23 C 2318.26 1404.58 2317.23 1404.45 2316.35 1404.84 C 2315.46 1405.24 2314.89 1406.11 2314.87 1407.07 L 2314.52 1423.45 C 2305.96 1409.53 2286.78 1381.84 2269.71 1381.84"/>
    <path id="path1338" style="fill:#eb4900;fill-opacity:1;fill-rule:nonzero;stroke:none" d="M 2795.96 1709.47 L 2146.32 1594.93 L 2334.26 1759.26 L 2563.14 1799.6 L 2795.96 1709.47"/>
    <path id="path1340" style="fill:#000000;fill-opacity:1;fill-rule:nonzero;stroke:none" d="M 2335.38 1756.92 L 2154.71 1598.95 L 2786.7 1710.37 L 2562.89 1797.02 L 2335.38 1756.92 Z M 2146.32 1592.43 C 2145.37 1592.43 2144.48 1592.97 2144.06 1593.85 C 2143.58 1594.87 2143.83 1596.08 2144.67 1596.82 L 2332.61 1761.15 C 2332.95 1761.44 2333.37 1761.64 2333.82 1761.72 L 2562.71 1802.06 C 2563.15 1802.16 2563.62 1802.1 2564.04 1801.94 L 2796.87 1711.8 C 2797.91 1711.39 2798.56 1710.34 2798.45 1709.22 C 2798.34 1708.11 2797.5 1707.2 2796.4 1707.01 L 2146.75 1592.47 C 2146.61 1592.44 2146.46 1592.43 2146.32 1592.43"/>
    <path id="path1342" style="fill:#eb4900;fill-opacity:1;fill-rule:nonzero;stroke:none" d="M 2387.43 2126.86 L 2299.8 2064.79 L 2140.32 2083.3 L 2278.59 2002.31 L 2360.8 2016.81 L 2334.26 1759.26 L 2563.14 1799.6 L 2387.43 2126.86"/>
    <path id="path1344" style="fill:#000000;fill-opacity:1;fill-rule:nonzero;stroke:none" d="M 2360.8 2019.31 C 2361.43 2019.31 2362.04 2019.08 2362.5 2018.64 C 2363.08 2018.11 2363.37 2017.34 2363.29 2016.56 L 2337.08 1762.3 L 2559.3 1801.47 L 2386.56 2123.18 L 2301.25 2062.75 C 2300.74 2062.39 2300.13 2062.27 2299.52 2062.31 L 2151.85 2079.45 L 2279.06 2004.93 L 2360.37 2019.27 C 2360.51 2019.3 2360.65 2019.31 2360.8 2019.31 Z M 2334.26 1756.76 C 2333.63 1756.76 2333.02 1757 2332.55 1757.43 C 2331.98 1757.96 2331.69 1758.73 2331.77 1759.52 L 2357.97 2013.77 L 2279.02 1999.85 C 2278.44 1999.72 2277.84 1999.85 2277.32 2000.15 L 2139.06 2081.15 C 2138.04 2081.74 2137.58 2082.97 2137.95 2084.1 C 2138.33 2085.22 2139.38 2085.89 2140.61 2085.78 L 2299.14 2067.39 L 2385.98 2128.9 C 2386.56 2129.31 2387.29 2129.47 2388 2129.29 C 2388.7 2129.13 2389.29 2128.68 2389.63 2128.04 L 2565.34 1800.78 C 2565.72 1800.08 2565.74 1799.23 2565.39 1798.51 C 2565.04 1797.79 2564.37 1797.28 2563.57 1797.14 L 2334.69 1756.8 C 2334.55 1756.77 2334.4 1756.76 2334.26 1756.76"/>
    <path id="path1346" style="fill:#ffde73;fill-opacity:1;fill-rule:nonzero;stroke:none" d="M 2581.57 1792.49 L 2313.29 1745.17 L 2303.12 1802.85 L 2571.4 1850.16 L 2581.57 1792.49"/>
    <path id="path1348" style="fill:#000000;fill-opacity:1;fill-rule:nonzero;stroke:none" d="M 2306.02 1800.81 L 2315.31 1748.07 L 2578.68 1794.52 L 2569.38 1847.26 L 2306.02 1800.81 Z M 2313.29 1742.67 C 2312.78 1742.67 2312.28 1742.83 2311.85 1743.12 C 2311.31 1743.5 2310.94 1744.09 2310.83 1744.74 L 2300.66 1802.42 C 2300.42 1803.77 2301.33 1805.07 2302.69 1805.31 L 2570.97 1852.62 C 2572.28 1852.87 2573.62 1851.96 2573.86 1850.59 L 2584.03 1792.92 C 2584.27 1791.57 2583.36 1790.27 2582.01 1790.03 L 2313.72 1742.71 C 2313.57 1742.68 2313.43 1742.67 2313.29 1742.67"/>
    <path id="path1350" style="fill:#b39471;fill-opacity:1;fill-rule:nonzero;stroke:none" d="M 2770.13 1984.43 C 2698.51 1984.43 2640.24 1926.17 2640.24 1854.54 C 2640.24 1819.78 2653.95 1787.61 2678.84 1763.93 C 2708.96 1735.32 2754.46 1692.05 2754.46 1639.47 L 2754.46 1166.89 L 2785.79 1166.89 L 2785.79 1639.47 C 2785.79 1705.5 2734.42 1754.32 2700.42 1786.64 C 2681.81 1804.33 2671.56 1828.43 2671.56 1854.54 C 2671.56 1908.89 2715.77 1953.1 2770.13 1953.1 C 2824.48 1953.1 2868.7 1908.89 2868.7 1854.54 C 2868.7 1845.89 2875.7 1838.87 2884.36 1838.87 C 2893.01 1838.87 2900.01 1845.89 2900.01 1854.54 C 2900.01 1926.17 2841.75 1984.43 2770.13 1984.43"/>
    <path id="path1352" style="fill:#000000;fill-opacity:1;fill-rule:nonzero;stroke:none" d="M 2756.96 1169.39 L 2783.29 1169.39 L 2783.29 1639.47 C 2783.29 1704.41 2732.41 1752.79 2698.74 1784.8 C 2679.58 1802.99 2669.06 1827.75 2669.06 1854.54 C 2669.06 1910.27 2714.4 1955.6 2770.13 1955.6 C 2825.85 1955.6 2871.2 1910.27 2871.2 1854.54 C 2871.2 1847.28 2877.1 1841.37 2884.36 1841.37 C 2891.61 1841.37 2897.51 1847.28 2897.51 1854.54 C 2897.51 1924.78 2840.37 1981.93 2770.13 1981.93 C 2699.88 1981.93 2642.74 1924.78 2642.74 1854.54 C 2642.74 1820.48 2656.17 1788.94 2680.57 1765.74 C 2710.99 1736.83 2756.96 1693.15 2756.96 1639.47 L 2756.96 1169.39 Z M 2785.79 1164.39 L 2754.46 1164.39 C 2753.08 1164.39 2751.96 1165.51 2751.96 1166.89 L 2751.96 1639.47 C 2751.96 1691 2706.92 1733.8 2677.12 1762.11 C 2651.72 1786.27 2637.74 1819.1 2637.74 1854.54 C 2637.74 1927.54 2697.13 1986.93 2770.13 1986.93 C 2843.13 1986.93 2902.51 1927.54 2902.51 1854.54 C 2902.51 1844.52 2894.37 1836.37 2884.36 1836.37 C 2874.34 1836.37 2866.2 1844.52 2866.2 1854.54 C 2866.2 1907.51 2823.1 1950.6 2770.13 1950.6 C 2717.16 1950.6 2674.06 1907.51 2674.06 1854.54 C 2674.06 1829.13 2684.03 1805.67 2702.14 1788.46 C 2736.47 1755.82 2788.29 1706.55 2788.29 1639.47 L 2788.29 1166.89 C 2788.29 1165.51 2787.17 1164.39 2785.79 1164.39"/>
  </g>
</svg>