<?xml version="1.0" encoding="utf-8"?>
<svg viewBox="275.1390075683594 417.1780090332031 79.73400115966797 108.95999908447266" width="79.73400115966797" height="108.95999908447266" xmlns="http://www.w3.org/2000/svg">
  <g transform="matrix(0.12500000186264515, 0, 0, -0.12500000186264515, 0, 526.1375122070312)">
    <path id="path26" style="fill:#ddd8bf;fill-opacity:1;fill-rule:nonzero;stroke:none" d="M 2790.15 27.141 C 2790.15 12.16 2678.84 0 2541.54 0 C 2404.23 0 2292.92 12.16 2292.92 27.141 C 2292.92 42.129 2404.23 54.289 2541.54 54.289 C 2678.84 54.289 2790.15 42.129 2790.15 27.141"/>
    <path id="path1354" style="fill:#41996b;fill-opacity:1;fill-rule:nonzero;stroke:none" d="M 2711.68 302.969 C 2730.28 284.391 2730.28 254.23 2711.68 235.602 C 2693.08 217.012 2662.91 217.02 2644.3 235.609 C 2625.7 254.23 2625.7 284.391 2644.3 302.969 C 2662.91 321.582 2693.08 321.582 2711.68 302.969"/>
    <path id="path1356" style="fill:#000000;fill-opacity:1;fill-rule:nonzero;stroke:none" d="M 2677.99 314.43 C 2665.94 314.43 2654.59 309.73 2646.07 301.199 C 2637.54 292.691 2632.85 281.359 2632.85 269.309 C 2632.85 257.25 2637.54 245.91 2646.07 237.379 C 2654.6 228.852 2665.94 224.148 2678 224.148 C 2690.06 224.148 2701.4 228.852 2709.92 237.371 C 2727.5 254.988 2727.51 283.629 2709.92 301.199 C 2701.39 309.73 2690.05 314.43 2677.99 314.43 Z M 2678 219.148 C 2664.6 219.148 2652.01 224.371 2642.53 233.84 C 2633.07 243.32 2627.85 255.91 2627.85 269.309 C 2627.85 282.699 2633.07 295.281 2642.53 304.738 C 2652.01 314.211 2664.6 319.43 2677.99 319.43 C 2691.39 319.43 2703.98 314.211 2713.45 304.738 C 2732.99 285.219 2732.99 253.41 2713.45 233.832 C 2703.98 224.371 2691.4 219.148 2678 219.148"/>
    <path id="path1358" style="fill:#41996b;fill-opacity:1;fill-rule:nonzero;stroke:none" d="M 2740.48 236.82 C 2759.09 218.219 2762.79 191.77 2748.78 177.781 C 2734.76 163.738 2708.33 167.449 2689.71 186.059 C 2671.12 204.691 2667.39 231.109 2681.4 245.141 C 2695.42 259.148 2721.88 255.43 2740.48 236.82"/>
    <path id="path1360" style="fill:#000000;fill-opacity:1;fill-rule:nonzero;stroke:none" d="M 2703.43 251.129 C 2695.25 251.129 2688.25 248.449 2683.17 243.371 C 2670.18 230.352 2673.91 205.43 2691.48 187.832 C 2701.69 177.621 2714.55 171.77 2726.74 171.77 C 2734.92 171.77 2741.93 174.461 2747.01 179.539 C 2753.22 185.75 2755.84 194.871 2754.38 205.219 C 2752.9 215.84 2747.33 226.441 2738.71 235.051 C 2728.65 245.121 2715.46 251.129 2703.43 251.129 Z M 2726.74 166.77 C 2713.23 166.77 2699.09 173.16 2687.94 184.289 C 2668.42 203.852 2664.69 231.949 2679.63 246.91 C 2685.67 252.941 2693.9 256.129 2703.43 256.129 C 2716.96 256.129 2731.11 249.738 2742.25 238.59 C 2751.63 229.211 2757.7 217.609 2759.34 205.922 C 2761.02 193.969 2757.89 183.34 2750.55 176.012 C 2744.51 169.961 2736.27 166.77 2726.74 166.77"/>
    <path id="path1362" style="fill:#41996b;fill-opacity:1;fill-rule:nonzero;stroke:none" d="M 2802.96 177.102 C 2811.66 168.43 2811.64 154.371 2802.98 145.68 L 2782.21 124.898 C 2773.54 116.219 2759.47 116.219 2750.8 124.93 L 2730.04 145.68 C 2721.36 154.371 2721.36 168.449 2730.02 177.082 L 2750.8 197.871 C 2759.45 206.551 2773.54 206.539 2782.24 197.852 L 2802.96 177.102"/>
    <path id="path1364" style="fill:#000000;fill-opacity:1;fill-rule:nonzero;stroke:none" d="M 2766.49 201.871 C 2761.22 201.871 2756.27 199.832 2752.56 196.109 L 2731.79 175.32 C 2728.08 171.609 2726.03 166.691 2726.03 161.43 C 2726.02 156.16 2728.08 151.18 2731.81 147.441 L 2752.56 126.699 C 2760.01 119.211 2773 119.211 2780.44 126.66 L 2801.22 147.441 C 2808.89 155.16 2808.89 167.672 2801.2 175.34 L 2780.47 196.09 C 2776.74 199.82 2771.77 201.871 2766.49 201.871 Z M 2766.52 115.891 C 2759.91 115.891 2753.7 118.48 2749.02 123.172 L 2728.28 143.91 C 2723.59 148.602 2721.02 154.82 2721.03 161.441 C 2721.03 168.031 2723.6 174.211 2728.26 178.852 L 2749.03 199.641 C 2758.33 208.969 2774.64 208.969 2784.01 199.621 L 2804.73 178.871 C 2814.37 169.262 2814.38 153.582 2804.76 143.91 L 2783.98 123.129 C 2779.32 118.461 2773.12 115.891 2766.52 115.891"/>
    <path id="path1366" style="fill:#59b587;fill-opacity:1;fill-rule:nonzero;stroke:none" d="M 2777 203.09 C 2782.78 197.289 2782.78 187.93 2776.99 182.16 L 2767.85 173 C 2762.06 167.23 2752.67 167.219 2746.91 173 L 2746.91 173 C 2741.11 178.789 2741.1 188.211 2746.88 193.98 L 2756 203.109 C 2761.81 208.898 2771.2 208.879 2777 203.09 L 2777 203.09"/>
    <path id="path1368" style="fill:#000000;fill-opacity:1;fill-rule:nonzero;stroke:none" d="M 2766.48 204.941 C 2763.19 204.941 2760.09 203.672 2757.76 201.34 L 2748.65 192.211 C 2746.33 189.898 2745.05 186.809 2745.05 183.52 C 2745.06 180.211 2746.34 177.102 2748.68 174.77 C 2753.31 170.121 2761.42 170.129 2766.08 174.77 L 2775.22 183.93 C 2777.55 186.25 2778.83 189.34 2778.83 192.609 C 2778.83 195.898 2777.55 198.992 2775.22 201.32 C 2772.89 203.66 2769.79 204.941 2766.48 204.941 Z M 2757.36 166.172 C 2752.74 166.172 2748.4 167.969 2745.14 171.23 C 2741.87 174.512 2740.06 178.871 2740.05 183.52 C 2740.05 188.141 2741.85 192.48 2745.11 195.75 L 2754.23 204.879 C 2760.8 211.441 2772.2 211.422 2778.76 204.859 C 2782.04 201.582 2783.83 197.23 2783.83 192.609 C 2783.83 187.992 2782.03 183.66 2778.75 180.391 L 2769.61 171.23 C 2766.34 167.961 2761.99 166.172 2757.36 166.172"/>
    <path id="path1370" style="fill:#59b587;fill-opacity:1;fill-rule:nonzero;stroke:none" d="M 2463.08 31.352 L 2429.72 31.352 L 2429.72 122.379 L 2496.46 122.379 L 2463.08 31.352"/>
    <path id="path1372" style="fill:#000000;fill-opacity:1;fill-rule:nonzero;stroke:none" d="M 2432.22 33.852 L 2461.33 33.852 L 2492.89 119.879 L 2432.22 119.879 L 2432.22 33.852 Z M 2463.08 28.852 L 2429.72 28.852 C 2428.33 28.852 2427.22 29.969 2427.22 31.352 L 2427.22 122.379 C 2427.22 123.75 2428.33 124.879 2429.72 124.879 L 2496.46 124.879 C 2497.28 124.879 2498.05 124.48 2498.52 123.809 C 2498.98 123.141 2499.09 122.281 2498.81 121.52 L 2465.42 30.492 C 2465.06 29.512 2464.13 28.852 2463.08 28.852"/>
    <path id="path1374" style="fill:#59b587;fill-opacity:1;fill-rule:nonzero;stroke:none" d="M 2635.8 31.352 L 2669.18 31.352 L 2669.18 122.379 L 2602.43 122.379 L 2635.8 31.352"/>
    <path id="path1376" style="fill:#000000;fill-opacity:1;fill-rule:nonzero;stroke:none" d="M 2637.55 33.852 L 2666.68 33.852 L 2666.68 119.879 L 2606.01 119.879 L 2637.55 33.852 Z M 2669.18 28.852 L 2635.8 28.852 C 2634.75 28.852 2633.81 29.512 2633.45 30.492 L 2600.08 121.52 C 2599.8 122.281 2599.91 123.141 2600.38 123.809 C 2600.85 124.48 2601.62 124.879 2602.43 124.879 L 2669.18 124.879 C 2670.56 124.879 2671.68 123.75 2671.68 122.379 L 2671.68 31.352 C 2671.68 29.969 2670.56 28.852 2669.18 28.852"/>
    <path id="path1378" style="fill:#59b587;fill-opacity:1;fill-rule:nonzero;stroke:none" d="M 2434.45 315.68 C 2418.15 286.961 2408.48 251.922 2408.48 214.031 C 2408.48 176.129 2418.15 141.09 2434.45 112.359 C 2466.95 97.941 2506.56 89.422 2549.45 89.422 C 2592.33 89.422 2631.94 97.941 2664.45 112.359 C 2680.75 141.09 2690.41 176.121 2690.41 214.031 C 2690.41 251.922 2680.72 286.961 2664.43 315.691 C 2631.92 330.082 2592.31 338.629 2549.45 338.629 C 2506.58 338.629 2466.95 330.082 2434.45 315.68"/>
    <path id="path1380" style="fill:#000000;fill-opacity:1;fill-rule:nonzero;stroke:none" d="M 2436.22 114.309 C 2469.58 99.66 2508.71 91.922 2549.45 91.922 C 2590.19 91.922 2629.32 99.66 2662.68 114.309 C 2679.18 143.711 2687.91 178.172 2687.91 214.031 C 2687.91 249.852 2679.18 284.301 2662.66 313.73 C 2629.25 328.379 2590.12 336.129 2549.45 336.129 C 2508.75 336.129 2469.61 328.379 2436.22 313.719 C 2419.71 284.32 2410.98 249.871 2410.98 214.031 C 2410.98 178.18 2419.7 143.719 2436.22 114.309 Z M 2549.45 86.922 C 2507.71 86.922 2467.59 94.93 2433.43 110.07 C 2432.94 110.289 2432.54 110.66 2432.28 111.129 C 2415.07 141.441 2405.98 177.02 2405.98 214.031 C 2405.98 251.031 2415.07 286.602 2432.28 316.91 C 2432.54 317.379 2432.94 317.75 2433.44 317.961 C 2467.63 333.121 2507.75 341.129 2549.45 341.129 C 2591.12 341.129 2631.23 333.121 2665.44 317.969 C 2665.93 317.762 2666.34 317.391 2666.6 316.922 C 2683.81 286.582 2692.91 251 2692.91 214.031 C 2692.91 177.02 2683.82 141.43 2666.62 111.129 C 2666.36 110.66 2665.95 110.289 2665.46 110.07 C 2631.3 94.93 2591.19 86.922 2549.45 86.922"/>
    <path id="path1382" style="fill:#41996b;fill-opacity:1;fill-rule:nonzero;stroke:none" d="M 2678.72 218.82 C 2644.16 204.422 2556.43 225.871 2556.43 225.871 C 2556.43 225.871 2468.73 204.422 2434.16 218.809 C 2419.75 242.699 2416.43 270.988 2415.7 301.602 C 2415.66 301.238 2415.47 300.809 2415.47 300.469 C 2415.47 262.582 2416.83 227.539 2434.16 198.809 C 2468.73 184.422 2556.43 205.871 2556.43 205.871 C 2556.43 205.871 2644.16 184.422 2678.72 198.82 C 2696.05 227.539 2697.4 262.582 2697.4 300.469 C 2697.4 300.809 2697.21 301.238 2697.17 301.602 C 2696.45 270.98 2693.13 242.699 2678.72 218.82"/>
    <path id="path1384" style="fill:#000000;fill-opacity:1;fill-rule:nonzero;stroke:none" d="M 2435.87 200.809 C 2443.45 197.852 2454.27 196.34 2468.03 196.34 C 2506.49 196.34 2555.35 208.18 2555.83 208.301 C 2556.23 208.398 2556.64 208.398 2557.03 208.301 C 2557.51 208.18 2606.36 196.352 2644.82 196.352 C 2658.6 196.352 2669.41 197.852 2677 200.82 C 2693.54 228.762 2694.9 262.488 2694.9 300.469 C 2694.9 309.352 2676.76 328.398 2660.7 336.48 C 2654.55 337.23 2648.18 337.59 2641.25 337.59 C 2629.62 337.59 2617.8 336.57 2605.28 335.469 C 2590.25 334.172 2574.72 332.832 2556.43 332.832 C 2538.14 332.832 2522.61 334.172 2507.59 335.469 C 2495.07 336.57 2483.25 337.59 2471.63 337.59 C 2464.7 337.59 2458.33 337.23 2452.18 336.48 C 2436.11 328.398 2417.97 309.352 2417.97 300.469 C 2417.97 262.5 2419.33 228.77 2435.87 200.809 Z M 2468.04 191.34 C 2468.04 191.34 2468.04 191.34 2468.03 191.34 C 2453.14 191.34 2441.42 193.082 2433.19 196.512 C 2432.71 196.711 2432.29 197.059 2432.02 197.52 C 2414.4 226.719 2412.97 261.422 2412.97 300.469 C 2412.97 312.449 2433.52 332.852 2450.35 341.16 C 2450.6 341.27 2450.86 341.359 2451.14 341.391 C 2457.64 342.199 2464.34 342.59 2471.63 342.59 C 2483.47 342.59 2495.4 341.559 2508.02 340.449 C 2522.93 339.16 2538.35 337.832 2556.43 337.832 C 2574.51 337.832 2589.93 339.16 2604.84 340.449 C 2617.48 341.559 2629.41 342.59 2641.25 342.59 C 2648.54 342.59 2655.25 342.199 2661.74 341.391 C 2662.02 341.359 2662.29 341.27 2662.53 341.16 C 2679.36 332.852 2699.9 312.449 2699.9 300.469 C 2699.9 261.41 2698.47 226.699 2680.85 197.531 C 2680.58 197.07 2680.17 196.719 2679.68 196.52 C 2671.45 193.09 2659.72 191.352 2644.82 191.352 C 2608.08 191.352 2562.17 201.941 2556.43 203.301 C 2550.7 201.949 2504.79 191.34 2468.04 191.34"/>
    <path id="path1386" style="fill:#41996b;fill-opacity:1;fill-rule:nonzero;stroke:none" d="M 2434.45 315.68 C 2433.58 314.148 2432.82 312.539 2431.99 310.988 C 2456.92 294.801 2486.59 285.301 2518.53 285.301 L 2602.38 285.301 C 2627.26 285.301 2650.7 291.172 2671.68 301.332 C 2669.42 306.25 2667.04 311.082 2664.43 315.691 C 2631.92 330.082 2592.31 338.629 2549.45 338.629 C 2506.58 338.629 2466.95 330.082 2434.45 315.68"/>
    <path id="path1388" style="fill:#000000;fill-opacity:1;fill-rule:nonzero;stroke:none" d="M 2436.22 114.309 C 2469.58 99.66 2508.71 91.922 2549.45 91.922 C 2590.19 91.922 2629.32 99.66 2662.68 114.309 C 2679.18 143.711 2687.91 178.172 2687.91 214.031 C 2687.91 249.852 2679.18 284.301 2662.66 313.73 C 2629.25 328.379 2590.12 336.129 2549.45 336.129 C 2508.75 336.129 2469.61 328.379 2436.22 313.719 C 2419.71 284.32 2410.98 249.871 2410.98 214.031 C 2410.98 178.18 2419.7 143.719 2436.22 114.309 Z M 2549.45 86.922 C 2507.71 86.922 2467.59 94.93 2433.43 110.07 C 2432.94 110.289 2432.54 110.66 2432.28 111.129 C 2415.07 141.441 2405.98 177.02 2405.98 214.031 C 2405.98 251.031 2415.07 286.602 2432.28 316.91 C 2432.54 317.379 2432.94 317.75 2433.44 317.961 C 2467.63 333.121 2507.75 341.129 2549.45 341.129 C 2591.12 341.129 2631.23 333.121 2665.44 317.969 C 2665.93 317.762 2666.34 317.391 2666.6 316.922 C 2683.81 286.582 2692.91 251 2692.91 214.031 C 2692.91 177.02 2683.82 141.43 2666.62 111.129 C 2666.36 110.66 2665.95 110.289 2665.46 110.07 C 2631.3 94.93 2591.19 86.922 2549.45 86.922"/>
    <path id="path1390" style="fill:#ffde73;fill-opacity:1;fill-rule:nonzero;stroke:none" d="M 2508.84 222.59 L 2520.6 263.039 L 2481.68 271.832 L 2508.84 222.59"/>
    <path id="path1392" style="fill:#000000;fill-opacity:1;fill-rule:nonzero;stroke:none" d="M 2486.56 268.172 L 2508.13 229.082 L 2517.46 261.18 L 2486.56 268.172 Z M 2508.84 220.09 C 2507.94 220.09 2507.09 220.582 2506.66 221.379 L 2479.5 270.621 C 2479.02 271.492 2479.1 272.539 2479.69 273.332 C 2480.28 274.102 2481.27 274.469 2482.24 274.27 L 2521.15 265.48 C 2521.82 265.332 2522.4 264.91 2522.75 264.309 C 2523.1 263.711 2523.19 263 2523 262.352 L 2511.25 221.898 C 2510.96 220.922 2510.12 220.219 2509.12 220.109 C 2509.03 220.102 2508.94 220.09 2508.84 220.09"/>
    <path id="path1394" style="fill:#ffde73;fill-opacity:1;fill-rule:nonzero;stroke:none" d="M 2545.42 213.82 L 2557.18 254.25 L 2518.26 263.039 L 2545.42 213.82"/>
    <path id="path1396" style="fill:#000000;fill-opacity:1;fill-rule:nonzero;stroke:none" d="M 2523.14 259.379 L 2544.7 220.301 L 2554.03 252.398 L 2523.14 259.379 Z M 2545.42 211.32 C 2544.52 211.32 2543.67 211.809 2543.23 212.609 L 2516.07 261.832 C 2515.6 262.699 2515.67 263.75 2516.26 264.539 C 2516.86 265.332 2517.84 265.672 2518.81 265.48 L 2557.73 256.691 C 2558.4 256.539 2558.98 256.121 2559.33 255.52 C 2559.68 254.93 2559.77 254.211 2559.58 253.559 L 2547.82 213.129 C 2547.54 212.148 2546.7 211.449 2545.7 211.34 C 2545.61 211.332 2545.51 211.32 2545.42 211.32"/>
    <path id="path1398" style="fill:#ffde73;fill-opacity:1;fill-rule:nonzero;stroke:none" d="M 2605.69 221.238 L 2593.93 261.691 L 2632.84 270.48 L 2605.69 221.238"/>
    <path id="path1400" style="fill:#000000;fill-opacity:1;fill-rule:nonzero;stroke:none" d="M 2597.07 259.84 L 2606.41 227.73 L 2627.96 266.82 L 2597.07 259.84 Z M 2605.69 218.738 C 2605.6 218.738 2605.5 218.75 2605.42 218.762 C 2604.41 218.871 2603.57 219.57 2603.29 220.551 L 2591.52 261 C 2591.33 261.648 2591.42 262.371 2591.77 262.961 C 2592.12 263.559 2592.7 263.98 2593.37 264.129 L 2632.29 272.922 C 2633.28 273.121 2634.25 272.77 2634.84 271.992 C 2635.43 271.191 2635.51 270.141 2635.03 269.27 L 2607.88 220.031 C 2607.44 219.23 2606.59 218.738 2605.69 218.738"/>
    <path id="path1402" style="fill:#ffde73;fill-opacity:1;fill-rule:nonzero;stroke:none" d="M 2572.73 213.82 L 2560.98 254.25 L 2599.89 263.039 L 2572.73 213.82"/>
    <path id="path1404" style="fill:#000000;fill-opacity:1;fill-rule:nonzero;stroke:none" d="M 2564.12 252.398 L 2573.45 220.301 L 2595.01 259.379 L 2564.12 252.398 Z M 2572.73 211.32 C 2572.64 211.32 2572.55 211.332 2572.46 211.34 C 2571.46 211.449 2570.62 212.148 2570.33 213.129 L 2558.57 253.559 C 2558.38 254.211 2558.47 254.93 2558.82 255.52 C 2559.17 256.121 2559.75 256.539 2560.42 256.691 L 2599.34 265.48 C 2600.33 265.672 2601.3 265.332 2601.88 264.539 C 2602.48 263.75 2602.55 262.699 2602.08 261.832 L 2574.92 212.609 C 2574.48 211.809 2573.64 211.32 2572.73 211.32"/>
    <path id="path1406" style="fill:#b39471;fill-opacity:1;fill-rule:nonzero;stroke:none" d="M 2557.46 247.219 C 2484.54 247.219 2425.22 294.129 2425.22 351.809 L 2442.8 351.809 C 2442.8 303.832 2494.24 264.801 2557.46 264.801 C 2620.68 264.801 2672.12 303.832 2672.12 351.809 L 2689.7 351.809 C 2689.7 294.129 2630.38 247.219 2557.46 247.219"/>
    <path id="path1408" style="fill:#000000;fill-opacity:1;fill-rule:nonzero;stroke:none" d="M 2427.76 349.309 C 2429.45 294.16 2486.98 249.719 2557.46 249.719 C 2627.93 249.719 2685.47 294.16 2687.16 349.309 L 2674.58 349.309 C 2672.83 301.109 2620.96 262.301 2557.46 262.301 C 2493.96 262.301 2442.09 301.109 2440.35 349.309 L 2427.76 349.309 Z M 2557.46 244.719 C 2483.16 244.719 2422.72 292.762 2422.72 351.809 C 2422.72 353.191 2423.84 354.309 2425.22 354.309 L 2442.8 354.309 C 2444.18 354.309 2445.3 353.191 2445.3 351.809 C 2445.3 305.211 2495.62 267.301 2557.46 267.301 C 2619.3 267.301 2669.62 305.211 2669.62 351.809 C 2669.62 353.191 2670.74 354.309 2672.12 354.309 L 2689.7 354.309 C 2691.08 354.309 2692.2 353.191 2692.2 351.809 C 2692.2 292.762 2631.75 244.719 2557.46 244.719"/>
    <path id="path1410" style="fill:#59b587;fill-opacity:1;fill-rule:nonzero;stroke:none" d="M 2761.61 464.52 C 2761.61 376.602 2690.33 305.301 2602.38 305.301 L 2528.53 305.301 C 2440.59 305.301 2369.3 376.602 2369.3 464.52 L 2369.3 464.52 C 2369.3 552.461 2440.59 623.762 2528.53 623.762 L 2602.38 623.762 C 2690.33 623.762 2761.61 552.461 2761.61 464.52 L 2761.61 464.52"/>
    <path id="path1412" style="fill:#000000;fill-opacity:1;fill-rule:nonzero;stroke:none" d="M 2528.53 621.262 C 2442.11 621.262 2371.8 550.949 2371.8 464.52 C 2371.8 378.102 2442.11 307.801 2528.53 307.801 L 2602.38 307.801 C 2688.8 307.801 2759.11 378.102 2759.11 464.52 C 2759.11 550.949 2688.8 621.262 2602.38 621.262 L 2528.53 621.262 Z M 2602.38 302.801 L 2528.53 302.801 C 2439.35 302.801 2366.8 375.352 2366.8 464.52 C 2366.8 553.699 2439.35 626.262 2528.53 626.262 L 2602.38 626.262 C 2691.56 626.262 2764.11 553.699 2764.11 464.52 C 2764.11 375.352 2691.56 302.801 2602.38 302.801"/>
    <path id="path1414" style="fill:#41996b;fill-opacity:1;fill-rule:nonzero;stroke:none" d="M 2497.12 562.422 L 2515.37 478.84 L 2529.49 511.91 L 2571.8 478.84 L 2582.58 511.91 L 2628.22 478.84 L 2635.68 511.91 L 2684.65 478.84 L 2688.77 511.91 L 2741.07 478.84 L 2692.82 562.422 C 2675.52 592.379 2633.45 616.66 2598.85 616.66 L 2528.44 616.66 C 2493.84 616.66 2479.81 592.379 2497.12 562.422"/>
    <path id="path1416" style="fill:#41996b;fill-opacity:1;fill-rule:nonzero;stroke:none" d="M 2518.71 438.398 C 2480.18 399.859 2441.4 376.23 2441.4 376.23 C 2441.4 376.23 2465.05 415.02 2503.56 453.531 C 2542.08 492.051 2580.88 515.699 2580.88 515.699 C 2580.88 515.699 2557.23 476.91 2518.71 438.398"/>
    <path id="path1418" style="fill:#2a5b6a;fill-opacity:1;fill-rule:nonzero;stroke:none" d="M 2536.13 445.969 C 2536.13 432.141 2524.93 420.949 2511.12 420.949 C 2497.32 420.949 2486.13 432.141 2486.13 445.969 C 2486.13 459.77 2497.32 470.949 2511.12 470.949 C 2524.93 470.949 2536.13 459.77 2536.13 445.969"/>
    <path id="path1420" style="fill:#000000;fill-opacity:1;fill-rule:nonzero;stroke:none" d="M 2511.12 468.449 C 2498.72 468.449 2488.63 458.359 2488.63 445.969 C 2488.63 433.551 2498.72 423.449 2511.12 423.449 C 2523.53 423.449 2533.63 433.551 2533.63 445.969 C 2533.63 458.359 2523.53 468.449 2511.12 468.449 Z M 2511.12 418.449 C 2495.96 418.449 2483.63 430.789 2483.63 445.969 C 2483.63 461.129 2495.96 473.449 2511.12 473.449 C 2526.29 473.449 2538.63 461.129 2538.63 445.969 C 2538.63 430.789 2526.29 418.449 2511.12 418.449"/>
    <path id="path1422" style="fill:#2a5b6a;fill-opacity:1;fill-rule:nonzero;stroke:none" d="M 2744.91 445.969 C 2744.91 432.141 2733.72 420.949 2719.92 420.949 C 2706.11 420.949 2694.91 432.141 2694.91 445.969 C 2694.91 459.77 2706.11 470.949 2719.92 470.949 C 2733.72 470.949 2744.91 459.77 2744.91 445.969"/>
    <path id="path1424" style="fill:#000000;fill-opacity:1;fill-rule:nonzero;stroke:none" d="M 2719.92 468.449 C 2707.51 468.449 2697.41 458.359 2697.41 445.969 C 2697.41 433.551 2707.51 423.449 2719.92 423.449 C 2732.32 423.449 2742.41 433.551 2742.41 445.969 C 2742.41 458.359 2732.32 468.449 2719.92 468.449 Z M 2719.92 418.449 C 2704.75 418.449 2692.41 430.789 2692.41 445.969 C 2692.41 461.129 2704.75 473.449 2719.92 473.449 C 2735.08 473.449 2747.41 461.129 2747.41 445.969 C 2747.41 430.789 2735.08 418.449 2719.92 418.449"/>
    <path id="path1426" style="fill:#41996b;fill-opacity:1;fill-rule:nonzero;stroke:none" d="M 2562.29 449.41 L 2459.97 470.289 L 2459.97 500.531 L 2562.29 489.648 L 2562.29 449.41"/>
    <path id="path1428" style="fill:#000000;fill-opacity:1;fill-rule:nonzero;stroke:none" d="M 2462.47 472.332 L 2559.79 452.469 L 2559.79 487.41 L 2462.47 497.75 L 2462.47 472.332 Z M 2562.29 446.91 C 2562.12 446.91 2561.96 446.93 2561.79 446.961 L 2459.47 467.84 C 2458.31 468.07 2457.47 469.102 2457.47 470.289 L 2457.47 500.531 C 2457.47 501.238 2457.77 501.922 2458.3 502.391 C 2458.82 502.859 2459.55 503.082 2460.23 503.02 L 2562.55 492.141 C 2563.82 492.012 2564.79 490.93 2564.79 489.648 L 2564.79 449.41 C 2564.79 448.66 2564.45 447.941 2563.87 447.469 C 2563.42 447.102 2562.86 446.91 2562.29 446.91"/>
    <path id="path1430" style="fill:#41996b;fill-opacity:1;fill-rule:nonzero;stroke:none" d="M 2678.61 449.41 L 2761.21 470.289 L 2761.21 500.531 L 2678.61 489.648 L 2678.61 449.41"/>
    <path id="path1432" style="fill:#000000;fill-opacity:1;fill-rule:nonzero;stroke:none" d="M 2681.11 487.461 L 2681.11 452.621 L 2758.71 472.23 L 2758.71 497.68 L 2681.11 487.461 Z M 2678.61 446.91 C 2678.06 446.91 2677.52 447.09 2677.08 447.43 C 2676.47 447.91 2676.11 448.641 2676.11 449.41 L 2676.11 489.648 C 2676.11 490.898 2677.04 491.969 2678.29 492.129 L 2760.88 503.012 C 2761.62 503.051 2762.32 502.879 2762.86 502.41 C 2763.4 501.941 2763.71 501.25 2763.71 500.531 L 2763.71 470.289 C 2763.71 469.141 2762.93 468.148 2761.82 467.859 L 2679.22 446.992 C 2679.02 446.941 2678.82 446.91 2678.61 446.91"/>
    <path id="path1434" style="fill:#41996b;fill-opacity:1;fill-rule:nonzero;stroke:none" d="M 2349.8 577.75 L 2349.8 451.082 C 2349.8 434.77 2363.04 421.539 2379.35 421.539 C 2395.67 421.539 2408.9 434.77 2408.9 451.082 L 2349.8 577.75"/>
    <path id="path1436" style="fill:#000000;fill-opacity:1;fill-rule:nonzero;stroke:none" d="M 2352.3 566.48 L 2352.3 451.082 C 2352.3 436.172 2364.43 424.039 2379.35 424.039 C 2394.08 424.039 2406.1 435.871 2406.39 450.531 L 2352.3 566.48 Z M 2379.35 419.039 C 2361.68 419.039 2347.3 433.41 2347.3 451.082 L 2347.3 577.75 C 2347.3 578.922 2348.12 579.93 2349.26 580.191 C 2350.41 580.422 2351.58 579.879 2352.07 578.801 L 2411.16 452.129 C 2411.32 451.801 2411.4 451.441 2411.4 451.082 C 2411.4 433.41 2397.02 419.039 2379.35 419.039"/>
    <path id="path1438" style="fill:#ffde73;fill-opacity:1;fill-rule:nonzero;stroke:none" d="M 2535.56 398.75 L 2523.79 349.52 L 2589.08 349.52 L 2535.56 398.75"/>
    <path id="path1440" style="fill:#000000;fill-opacity:1;fill-rule:nonzero;stroke:none" d="M 2526.96 352.02 L 2582.67 352.02 L 2537 394.031 L 2526.96 352.02 Z M 2589.08 347.02 L 2523.79 347.02 C 2523.03 347.02 2522.3 347.371 2521.83 347.961 C 2521.36 348.57 2521.19 349.352 2521.36 350.09 L 2533.13 399.332 C 2533.33 400.199 2533.98 400.879 2534.83 401.148 C 2535.67 401.398 2536.6 401.191 2537.25 400.59 L 2590.77 351.352 C 2591.53 350.66 2591.78 349.559 2591.41 348.609 C 2591.03 347.648 2590.11 347.02 2589.08 347.02"/>
    <path id="path1442" style="fill:#ffde73;fill-opacity:1;fill-rule:nonzero;stroke:none" d="M 2701.29 398.75 L 2647.77 349.52 L 2713.05 349.52 L 2701.29 398.75"/>
    <path id="path1444" style="fill:#000000;fill-opacity:1;fill-rule:nonzero;stroke:none" d="M 2654.18 352.02 L 2709.88 352.02 L 2699.85 394.031 L 2654.18 352.02 Z M 2713.05 347.02 L 2647.77 347.02 C 2646.74 347.02 2645.82 347.648 2645.44 348.609 C 2645.06 349.559 2645.32 350.66 2646.07 351.352 L 2699.6 400.59 C 2700.25 401.191 2701.16 401.398 2702.03 401.148 C 2702.87 400.879 2703.52 400.199 2703.73 399.332 L 2715.48 350.09 C 2715.65 349.352 2715.48 348.57 2715.01 347.961 C 2714.54 347.371 2713.81 347.02 2713.05 347.02"/>
    <path id="path1446" style="fill:#59b587;fill-opacity:1;fill-rule:nonzero;stroke:none" d="M 2723.06 333.961 C 2723.06 318.422 2710.49 305.852 2694.95 305.852 L 2533.91 305.852 C 2518.37 305.852 2505.8 318.422 2505.8 333.961 L 2505.8 333.961 C 2505.8 349.5 2518.37 362.09 2533.91 362.09 L 2694.95 362.09 C 2710.49 362.09 2723.06 349.5 2723.06 333.961 L 2723.06 333.961"/>
    <path id="path1448" style="fill:#000000;fill-opacity:1;fill-rule:nonzero;stroke:none" d="M 2533.91 359.59 C 2519.79 359.59 2508.3 348.09 2508.3 333.961 C 2508.3 319.84 2519.79 308.352 2533.91 308.352 L 2694.95 308.352 C 2709.07 308.352 2720.56 319.84 2720.56 333.961 C 2720.56 348.09 2709.07 359.59 2694.95 359.59 L 2533.91 359.59 Z M 2694.95 303.352 L 2533.91 303.352 C 2517.03 303.352 2503.3 317.082 2503.3 333.961 C 2503.3 350.852 2517.03 364.59 2533.91 364.59 L 2694.95 364.59 C 2711.83 364.59 2725.56 350.852 2725.56 333.961 C 2725.56 317.082 2711.83 303.352 2694.95 303.352"/>
    <path id="path1450" style="fill:#eb4900;fill-opacity:1;fill-rule:nonzero;stroke:none" d="M 2467.12 592.422 L 2515.37 508.84 L 2529.49 541.91 L 2571.8 508.84 L 2582.58 541.91 L 2628.22 508.84 L 2635.68 541.91 L 2684.65 508.84 L 2688.77 541.91 L 2741.07 508.84 L 2692.82 592.422 C 2675.52 622.379 2633.45 646.66 2598.85 646.66 L 2498.44 646.66 C 2463.84 646.66 2449.81 622.379 2467.12 592.422"/>
    <path id="path1452" style="fill:#000000;fill-opacity:1;fill-rule:nonzero;stroke:none" d="M 2529.49 544.41 C 2530.04 544.41 2530.58 544.219 2531.03 543.879 L 2570.53 513.012 L 2580.21 542.68 C 2580.45 543.441 2581.05 544.039 2581.81 544.281 C 2582.58 544.539 2583.4 544.398 2584.05 543.93 L 2626.62 513.09 L 2633.24 542.449 C 2633.42 543.27 2633.99 543.93 2634.76 544.23 C 2635.52 544.539 2636.4 544.449 2637.08 543.98 L 2682.67 513.199 L 2686.29 542.219 C 2686.4 543.07 2686.93 543.801 2687.71 544.16 C 2688.48 544.531 2689.38 544.492 2690.11 544.02 L 2733.84 516.371 L 2690.65 591.172 C 2673.78 620.379 2632.59 644.16 2598.85 644.16 L 2498.44 644.16 C 2482.64 644.16 2470.93 638.969 2465.48 629.52 C 2460.03 620.082 2461.38 607.352 2469.28 593.672 L 2515.03 514.43 L 2527.19 542.891 C 2527.5 543.609 2528.11 544.129 2528.86 544.332 C 2529.07 544.379 2529.28 544.41 2529.49 544.41 Z M 2741.07 506.34 C 2740.61 506.34 2740.15 506.469 2739.74 506.73 L 2690.77 537.691 L 2687.13 508.531 C 2687.02 507.672 2686.47 506.93 2685.68 506.57 C 2684.88 506.219 2683.96 506.289 2683.25 506.77 L 2637.31 537.789 L 2630.66 508.289 C 2630.48 507.469 2629.89 506.801 2629.11 506.512 C 2628.33 506.18 2627.44 506.32 2626.76 506.82 L 2583.9 537.871 L 2574.17 508.07 C 2573.92 507.289 2573.31 506.68 2572.52 506.449 C 2571.74 506.219 2570.9 506.379 2570.26 506.871 L 2530.51 537.93 L 2517.67 507.852 C 2517.3 506.992 2516.46 506.398 2515.52 506.34 C 2514.51 506.371 2513.68 506.77 2513.21 507.59 L 2464.96 591.172 C 2456.12 606.461 2454.77 620.969 2461.15 632.02 C 2467.53 643.082 2480.78 649.16 2498.44 649.16 L 2598.85 649.16 C 2634.18 649.16 2677.31 624.27 2694.98 593.672 L 2742.91 510.672 C 2743.39 510.211 2743.7 509.559 2743.7 508.84 C 2743.7 507.461 2742.58 506.34 2741.2 506.34 C 2741.15 506.34 2741.11 506.34 2741.07 506.34"/>
    <path id="path1454" style="fill:#d3d3d3;fill-opacity:1;fill-rule:nonzero;stroke:none" d="M 2366.42 421.512 C 2366.42 412.859 2359.4 405.852 2350.74 405.852 C 2342.09 405.852 2335.07 412.859 2335.07 421.512 C 2335.07 430.18 2342.09 437.172 2350.74 437.172 L 2350.75 437.172 L 2350.75 452.961 L 2350.74 452.961 C 2333.38 452.961 2319.3 438.879 2319.3 421.512 C 2319.3 404.16 2333.38 390.082 2350.74 390.082 C 2368.12 390.082 2382.19 404.16 2382.19 421.512 L 2366.42 421.512"/>
    <path id="path1456" style="fill:#000000;fill-opacity:1;fill-rule:nonzero;stroke:none" d="M 2348.25 450.352 C 2333.45 449.09 2321.8 436.629 2321.8 421.512 C 2321.8 405.559 2334.79 392.582 2350.74 392.582 C 2365.86 392.582 2378.31 404.219 2379.58 419.012 L 2368.75 419.012 C 2367.52 410.18 2359.91 403.352 2350.74 403.352 C 2340.72 403.352 2332.57 411.5 2332.57 421.512 C 2332.57 430.68 2339.4 438.27 2348.24 439.5 L 2348.25 450.352 Z M 2350.74 387.582 C 2332.03 387.582 2316.8 402.801 2316.8 421.512 C 2316.8 440.23 2332.03 455.461 2350.74 455.461 C 2352.12 455.461 2353.24 454.34 2353.24 452.961 L 2353.25 437.172 C 2353.25 436.512 2352.98 435.871 2352.51 435.398 C 2352.05 434.93 2351.41 434.672 2350.75 434.672 C 2343.48 434.672 2337.57 428.762 2337.57 421.512 C 2337.57 414.25 2343.48 408.352 2350.74 408.352 C 2358.01 408.352 2363.92 414.25 2363.92 421.512 C 2363.92 422.879 2365.03 424.012 2366.42 424.012 L 2382.19 424.012 C 2383.57 424.012 2384.69 422.879 2384.69 421.512 C 2384.69 402.801 2369.46 387.582 2350.74 387.582"/>
    <path id="path1458" style="fill:#41996b;fill-opacity:1;fill-rule:nonzero;stroke:none" d="M 2659.53 415.84 C 2658.56 437.871 2640.55 455.461 2618.28 455.461 L 2618.28 415.82 C 2607.87 414.141 2599.89 405.191 2599.89 394.301 C 2599.89 382.219 2609.68 372.43 2621.76 372.43 L 2656.24 372.43 C 2668.32 372.43 2678.11 382.219 2678.11 394.301 C 2678.11 405.25 2670.03 414.242 2659.53 415.84"/>
    <path id="path1460" style="fill:#000000;fill-opacity:1;fill-rule:nonzero;stroke:none" d="M 2620.78 452.879 L 2620.78 415.82 C 2620.78 414.59 2619.89 413.551 2618.68 413.352 C 2609.24 411.832 2602.39 403.82 2602.39 394.301 C 2602.39 383.621 2611.08 374.93 2621.76 374.93 L 2656.24 374.93 C 2666.92 374.93 2675.61 383.621 2675.61 394.301 C 2675.61 403.898 2668.69 411.922 2659.16 413.371 C 2657.97 413.551 2657.08 414.539 2657.03 415.742 C 2656.15 435.77 2640.44 451.629 2620.78 452.879 Z M 2656.24 369.93 L 2621.76 369.93 C 2608.32 369.93 2597.39 380.859 2597.39 394.301 C 2597.39 405.57 2605 415.16 2615.78 417.859 L 2615.78 455.461 C 2615.78 456.84 2616.9 457.961 2618.28 457.961 C 2641.11 457.961 2659.91 440.531 2661.9 417.93 C 2672.86 415.352 2680.61 405.711 2680.61 394.301 C 2680.61 380.859 2669.68 369.93 2656.24 369.93"/>
    <path id="path1462" style="fill:#59b587;fill-opacity:1;fill-rule:nonzero;stroke:none" d="M 2670.47 393.789 C 2670.47 384.969 2663.32 377.82 2654.49 377.82 C 2645.66 377.82 2638.51 384.969 2638.51 393.789 C 2638.51 402.621 2645.66 409.781 2654.49 409.781 C 2663.32 409.781 2670.47 402.621 2670.47 393.789"/>
    <path id="path1464" style="fill:#41996b;fill-opacity:1;fill-rule:nonzero;stroke:none" d="M 2417.4 316.941 C 2391.1 316.941 2369.77 295.602 2369.75 269.281 C 2369.75 242.98 2391.1 221.641 2417.4 221.641 C 2443.71 221.641 2465.05 242.98 2465.05 269.281 C 2465.05 295.602 2443.71 316.941 2417.4 316.941"/>
    <path id="path1466" style="fill:#000000;fill-opacity:1;fill-rule:nonzero;stroke:none" d="M 2417.4 314.441 C 2392.52 314.441 2372.27 294.18 2372.25 269.281 C 2372.25 244.391 2392.5 224.141 2417.4 224.141 C 2442.29 224.141 2462.55 244.391 2462.55 269.281 C 2462.55 294.18 2442.29 314.441 2417.4 314.441 Z M 2417.4 219.141 C 2389.75 219.141 2367.25 241.629 2367.25 269.281 C 2367.27 296.941 2389.77 319.441 2417.4 319.441 C 2445.05 319.441 2467.55 296.941 2467.55 269.281 C 2467.55 241.629 2445.05 219.141 2417.4 219.141"/>
    <path id="path1468" style="fill:#41996b;fill-opacity:1;fill-rule:nonzero;stroke:none" d="M 2350.25 290.531 C 2323.95 290.531 2302.62 274.422 2302.62 254.629 C 2302.62 234.801 2323.95 218.73 2350.25 218.73 C 2376.58 218.73 2397.9 234.801 2397.91 254.629 C 2397.91 274.449 2376.58 290.531 2350.25 290.531"/>
    <path id="path1470" style="fill:#000000;fill-opacity:1;fill-rule:nonzero;stroke:none" d="M 2350.25 288.031 C 2325.37 288.031 2305.12 273.051 2305.12 254.629 C 2305.12 236.211 2325.37 221.23 2350.25 221.23 C 2375.15 221.23 2395.4 236.211 2395.41 254.629 C 2395.41 273.051 2375.15 288.031 2350.25 288.031 Z M 2350.25 216.23 C 2322.61 216.23 2300.12 233.461 2300.12 254.629 C 2300.12 275.801 2322.61 293.031 2350.25 293.031 C 2377.91 293.031 2400.41 275.801 2400.41 254.629 C 2400.4 233.461 2377.9 216.23 2350.25 216.23"/>
    <path id="path1472" style="fill:#41996b;fill-opacity:1;fill-rule:nonzero;stroke:none" d="M 2263.84 292.461 C 2251.57 292.488 2241.64 282.52 2241.61 270.27 L 2241.61 240.871 C 2241.61 228.629 2251.56 218.672 2263.84 218.691 L 2293.2 218.691 C 2305.47 218.691 2315.43 228.641 2315.41 240.871 L 2315.41 270.27 C 2315.45 282.52 2305.46 292.461 2293.17 292.461 L 2263.84 292.461"/>
    <path id="path1474" style="fill:#000000;fill-opacity:1;fill-rule:nonzero;stroke:none" d="M 2263.84 289.961 C 2252.96 289.961 2244.13 281.129 2244.11 270.262 L 2244.11 240.871 C 2244.11 230.02 2252.93 221.191 2263.78 221.191 L 2263.78 218.691 L 2263.83 221.191 L 2293.2 221.191 C 2298.48 221.191 2303.45 223.262 2307.18 226.992 C 2310.88 230.711 2312.92 235.641 2312.91 240.859 L 2312.91 270.27 C 2312.92 275.5 2310.89 280.43 2307.19 284.148 C 2303.45 287.898 2298.47 289.961 2293.17 289.961 L 2263.84 289.961 Z M 2263.78 216.191 C 2250.18 216.191 2239.11 227.27 2239.11 240.871 L 2239.11 270.27 C 2239.14 283.891 2250.21 294.961 2263.79 294.961 L 2293.17 294.961 C 2299.81 294.961 2306.05 292.379 2310.73 287.68 C 2315.38 283.012 2317.93 276.832 2317.91 270.262 L 2317.91 240.871 C 2317.92 234.309 2315.37 228.121 2310.71 223.461 C 2306.04 218.77 2299.82 216.191 2293.2 216.191 L 2263.78 216.191"/>
    <path id="path1476" style="fill:#59b587;fill-opacity:1;fill-rule:nonzero;stroke:none" d="M 2300.59 292.461 C 2292.4 292.461 2285.78 285.852 2285.8 277.672 L 2285.78 264.75 C 2285.8 256.57 2292.41 249.922 2300.59 249.93 L 2300.59 249.93 C 2308.76 249.922 2315.43 256.57 2315.43 264.75 L 2315.45 277.641 C 2315.43 285.852 2308.78 292.461 2300.59 292.461 L 2300.59 292.461"/>
    <path id="path1478" style="fill:#000000;fill-opacity:1;fill-rule:nonzero;stroke:none" d="M 2300.59 289.961 C 2297.29 289.961 2294.19 288.68 2291.87 286.359 C 2289.56 284.039 2288.29 280.961 2288.3 277.68 L 2288.28 264.75 C 2288.29 257.961 2293.8 252.43 2300.55 252.43 L 2300.63 252.43 C 2303.91 252.43 2306.99 253.711 2309.32 256.051 C 2311.65 258.371 2312.93 261.469 2312.93 264.75 L 2312.95 277.641 C 2312.94 284.441 2307.39 289.961 2300.59 289.961 Z M 2300.63 247.43 L 2300.58 247.43 C 2291.05 247.43 2283.3 255.199 2283.28 264.738 L 2283.3 277.672 C 2283.29 282.281 2285.07 286.621 2288.33 289.891 C 2291.6 293.16 2295.95 294.961 2300.59 294.961 C 2310.14 294.961 2317.93 287.191 2317.95 277.641 L 2317.93 264.75 C 2317.93 260.129 2316.13 255.781 2312.86 252.512 C 2309.58 249.242 2305.24 247.43 2300.63 247.43"/>
    <path id="path1480" style="fill:#d3d3d3;fill-opacity:1;fill-rule:nonzero;stroke:none" d="M 2416.59 115.191 L 2416.59 85.09 L 2449.8 92.32 L 2483.01 85.09 L 2516.23 92.32 L 2549.43 85.09 L 2582.65 92.32 L 2615.87 85.09 L 2649.08 92.32 L 2682.29 85.09 L 2682.29 115.191 L 2416.59 115.191"/>
    <path id="path1482" style="fill:#000000;fill-opacity:1;fill-rule:nonzero;stroke:none" d="M 2582.65 94.82 C 2582.83 94.82 2583 94.801 2583.18 94.762 L 2615.87 87.652 L 2648.55 94.762 C 2648.91 94.84 2649.27 94.832 2649.61 94.762 L 2679.79 88.199 L 2679.79 112.691 L 2419.09 112.691 L 2419.09 88.199 L 2449.27 94.762 C 2449.63 94.84 2450 94.832 2450.34 94.762 L 2483.01 87.652 L 2515.7 94.762 C 2516.04 94.832 2516.42 94.84 2516.76 94.762 L 2549.43 87.652 L 2582.11 94.762 C 2582.29 94.801 2582.47 94.82 2582.65 94.82 Z M 2549.43 82.59 C 2549.25 82.59 2549.08 82.609 2548.9 82.652 L 2516.23 89.762 L 2483.54 82.652 C 2483.19 82.559 2482.84 82.559 2482.48 82.652 L 2449.8 89.762 L 2417.12 82.652 C 2416.37 82.488 2415.61 82.672 2415.02 83.148 C 2414.43 83.621 2414.09 84.34 2414.09 85.09 L 2414.09 115.191 C 2414.09 116.57 2415.21 117.691 2416.59 117.691 L 2682.29 117.691 C 2683.68 117.691 2684.79 116.57 2684.79 115.191 L 2684.79 85.09 C 2684.79 84.34 2684.45 83.621 2683.86 83.148 C 2683.27 82.672 2682.51 82.488 2681.76 82.652 L 2649.08 89.762 L 2616.4 82.652 C 2616.05 82.559 2615.69 82.559 2615.34 82.652 L 2582.65 89.762 L 2549.97 82.652 C 2549.79 82.609 2549.61 82.59 2549.43 82.59"/>
    <path id="path1484" style="fill:#2a5b6a;fill-opacity:1;fill-rule:nonzero;stroke:none" d="M 2416.6 113.23 L 2682.288 113.23 L 2682.288 155.289 L 2416.6 155.289 L 2416.6 113.23 Z"/>
    <path id="path1486" style="fill:#000000;fill-opacity:1;fill-rule:nonzero;stroke:none" d="M 2419.1 115.73 L 2679.79 115.73 L 2679.79 152.789 L 2419.1 152.789 L 2419.1 115.73 Z M 2682.29 110.73 L 2416.6 110.73 C 2415.21 110.73 2414.1 111.852 2414.1 113.23 L 2414.1 155.289 C 2414.1 156.66 2415.21 157.789 2416.6 157.789 L 2682.29 157.789 C 2683.68 157.789 2684.79 156.66 2684.79 155.289 L 2684.79 113.23 C 2684.79 111.852 2683.68 110.73 2682.29 110.73"/>
    <path id="path1488" style="fill:#b39471;fill-opacity:1;fill-rule:nonzero;stroke:none" d="M 2259.54 31.352 L 2290.853 31.352 L 2290.853 675.622 L 2259.54 675.622 L 2259.54 31.352 Z"/>
    <path id="path1490" style="fill:#000000;fill-opacity:1;fill-rule:nonzero;stroke:none" d="M 2262.04 33.852 L 2288.35 33.852 L 2288.35 673.121 L 2262.04 673.121 L 2262.04 33.852 Z M 2290.85 28.852 L 2259.54 28.852 C 2258.15 28.852 2257.04 29.969 2257.04 31.352 L 2257.04 675.621 C 2257.04 677 2258.15 678.121 2259.54 678.121 L 2290.85 678.121 C 2292.24 678.121 2293.35 677 2293.35 675.621 L 2293.35 31.352 C 2293.35 29.969 2292.24 28.852 2290.85 28.852"/>
    <path id="path1492" style="fill:#bcc4cd;fill-opacity:1;fill-rule:nonzero;stroke:none" d="M 2293.36 780.07 L 2308.72 795.461 L 2275.17 868.852 L 2225.6 760.359 L 2259.1 726.871 L 2210.29 726.871 L 2203.81 712.699 L 2275.17 640.242 L 2346.57 712.699 L 2315.76 780.07 L 2293.36 780.07"/>
    <path id="path1494" style="fill:#000000;fill-opacity:1;fill-rule:nonzero;stroke:none" d="M 2206.8 713.23 L 2275.17 643.801 L 2343.58 713.23 L 2314.16 777.57 L 2293.36 777.57 C 2292.35 777.57 2291.44 778.18 2291.05 779.109 C 2290.66 780.051 2290.87 781.129 2291.59 781.84 L 2305.73 796 L 2275.17 862.84 L 2228.59 760.898 L 2260.86 728.641 C 2261.58 727.922 2261.79 726.852 2261.41 725.91 C 2261.02 724.969 2260.11 724.371 2259.1 724.371 L 2211.89 724.371 L 2206.8 713.23 Z M 2275.17 637.742 L 2275.17 637.742 C 2274.5 637.742 2273.86 638.012 2273.39 638.48 L 2202.03 710.941 C 2201.3 711.68 2201.11 712.801 2201.54 713.73 L 2208.01 727.898 C 2208.42 728.801 2209.31 729.371 2210.29 729.371 L 2253.06 729.371 L 2223.83 758.602 C 2223.1 759.34 2222.89 760.449 2223.33 761.398 L 2272.9 869.891 C 2273.72 871.68 2276.63 871.68 2277.45 869.891 L 2311 796.5 C 2311.43 795.551 2311.23 794.441 2310.49 793.691 L 2299.38 782.57 L 2315.76 782.57 C 2316.74 782.57 2317.63 782.012 2318.04 781.109 L 2348.85 713.73 C 2349.28 712.801 2349.08 711.68 2348.35 710.941 L 2276.95 638.48 C 2276.48 638.012 2275.84 637.742 2275.17 637.742"/>
    <path id="path1496" style="fill:#8192a4;fill-opacity:1;fill-rule:nonzero;stroke:none" d="M 2315.76 780.07 L 2293.36 780.07 L 2308.72 795.461 L 2275.17 868.852 L 2275.17 640.242 L 2346.57 712.699 L 2315.76 780.07"/>
    <path id="path1498" style="fill:#000000;fill-opacity:1;fill-rule:nonzero;stroke:none" d="M 2277.67 857.371 L 2277.67 646.34 L 2343.58 713.23 L 2314.16 777.57 L 2293.36 777.57 C 2292.35 777.57 2291.44 778.18 2291.05 779.109 C 2290.66 780.051 2290.87 781.129 2291.59 781.84 L 2305.73 796 L 2277.67 857.371 Z M 2275.17 637.742 C 2274.85 637.742 2274.53 637.801 2274.22 637.922 C 2273.29 638.309 2272.67 639.219 2272.67 640.242 L 2272.67 868.852 C 2272.67 870.02 2273.49 871.051 2274.64 871.289 C 2275.82 871.531 2276.95 870.961 2277.45 869.891 L 2311 796.5 C 2311.43 795.551 2311.23 794.441 2310.49 793.691 L 2299.38 782.57 L 2315.76 782.57 C 2316.74 782.57 2317.63 782.012 2318.04 781.109 L 2348.85 713.73 C 2349.28 712.801 2349.08 711.68 2348.35 710.941 L 2276.95 638.48 C 2276.47 638 2275.83 637.742 2275.17 637.742"/>
    <path id="path1500" style="fill:#eb4900;fill-opacity:1;fill-rule:nonzero;stroke:none" d="M 2313.1 643.801 C 2313.1 632.121 2303.63 622.629 2291.93 622.629 L 2258.47 622.629 C 2246.77 622.629 2237.29 632.121 2237.29 643.801 L 2237.29 643.801 C 2237.29 655.492 2246.77 664.98 2258.47 664.98 L 2291.93 664.98 C 2303.63 664.98 2313.1 655.492 2313.1 643.801 L 2313.1 643.801"/>
    <path id="path1502" style="fill:#000000;fill-opacity:1;fill-rule:nonzero;stroke:none" d="M 2258.47 662.48 C 2248.17 662.48 2239.79 654.102 2239.79 643.801 C 2239.79 633.512 2248.17 625.129 2258.47 625.129 L 2291.93 625.129 C 2302.23 625.129 2310.6 633.512 2310.6 643.801 C 2310.6 654.102 2302.23 662.48 2291.93 662.48 L 2258.47 662.48 Z M 2291.93 620.129 L 2258.47 620.129 C 2245.42 620.129 2234.79 630.75 2234.79 643.801 C 2234.79 656.859 2245.42 667.48 2258.47 667.48 L 2291.93 667.48 C 2304.98 667.48 2315.6 656.859 2315.6 643.801 C 2315.6 630.75 2304.98 620.129 2291.93 620.129"/>
    <path id="path1504" style="fill:#eb4900;fill-opacity:1;fill-rule:nonzero;stroke:none" d="M 2313.1 520.93 C 2313.1 509.242 2303.63 499.77 2291.93 499.77 L 2258.47 499.77 C 2246.77 499.77 2237.29 509.242 2237.29 520.93 L 2237.29 520.93 C 2237.29 532.609 2246.77 542.102 2258.47 542.102 L 2291.93 542.102 C 2303.63 542.102 2313.1 532.609 2313.1 520.93 L 2313.1 520.93"/>
    <path id="path1506" style="fill:#000000;fill-opacity:1;fill-rule:nonzero;stroke:none" d="M 2258.47 539.602 C 2248.17 539.602 2239.79 531.219 2239.79 520.93 C 2239.79 510.641 2248.17 502.27 2258.47 502.27 L 2291.93 502.27 C 2302.23 502.27 2310.6 510.641 2310.6 520.93 C 2310.6 531.219 2302.23 539.602 2291.93 539.602 L 2258.47 539.602 Z M 2291.93 497.27 L 2258.47 497.27 C 2245.42 497.27 2234.79 507.879 2234.79 520.93 C 2234.79 533.992 2245.42 544.602 2258.47 544.602 L 2291.93 544.602 C 2304.98 544.602 2315.6 533.992 2315.6 520.93 C 2315.6 507.879 2304.98 497.27 2291.93 497.27"/>
    <path id="path1508" style="fill:#eb4900;fill-opacity:1;fill-rule:nonzero;stroke:none" d="M 2789.17 103.73 C 2739.41 53.949 2658.67 53.949 2608.87 103.73 C 2559.08 153.52 2559.1 234.262 2608.86 284.039 C 2658.68 333.84 2739.38 333.809 2789.18 284.039 C 2838.97 234.262 2838.98 153.539 2789.17 103.73"/>
    <path id="path1510" style="fill:#000000;fill-opacity:1;fill-rule:nonzero;stroke:none" d="M 2699.01 318.879 C 2665.63 318.879 2634.24 305.871 2610.63 282.27 C 2561.9 233.531 2561.91 154.23 2610.64 105.5 C 2634.25 81.898 2665.64 68.891 2699.04 68.891 C 2732.43 68.891 2763.81 81.898 2787.4 105.5 C 2811.02 129.109 2824.03 160.512 2824.03 193.898 C 2824.03 227.281 2811.03 258.672 2787.41 282.27 C 2763.79 305.871 2732.4 318.879 2699.01 318.879 Z M 2699.04 63.891 C 2664.31 63.891 2631.66 77.422 2607.1 101.969 C 2556.42 152.641 2556.42 235.109 2607.09 285.801 C 2631.65 310.352 2664.3 323.879 2699.01 323.879 C 2733.74 323.879 2766.39 310.352 2790.95 285.801 C 2815.5 261.25 2829.03 228.621 2829.03 193.898 C 2829.02 159.172 2815.5 126.531 2790.94 101.969 C 2766.4 77.422 2733.76 63.891 2699.04 63.891"/>
    <path id="path1512" style="fill:#b39471;fill-opacity:1;fill-rule:nonzero;stroke:none" d="M 2762.14 130.75 C 2727.3 95.922 2670.77 95.922 2635.92 130.77 C 2601.06 165.641 2601.06 222.141 2635.91 257 C 2670.78 291.871 2727.3 291.871 2762.16 257.012 C 2797.01 222.148 2797.01 165.641 2762.14 130.75"/>
    <path id="path1514" style="fill:#000000;fill-opacity:1;fill-rule:nonzero;stroke:none" d="M 2699.04 280.648 C 2675.86 280.648 2654.07 271.621 2637.68 255.23 C 2603.87 221.41 2603.87 166.371 2637.69 132.531 C 2654.07 116.16 2675.86 107.129 2699.04 107.129 C 2722.22 107.129 2744 116.148 2760.37 132.512 C 2794.2 166.359 2794.2 221.422 2760.39 255.242 C 2744.01 271.621 2722.22 280.648 2699.04 280.648 Z M 2699.04 102.129 C 2674.53 102.129 2651.48 111.672 2634.15 129 C 2598.38 164.781 2598.38 222.992 2634.14 258.762 C 2651.48 276.109 2674.53 285.648 2699.04 285.648 C 2723.55 285.648 2746.6 276.109 2763.93 258.77 C 2799.69 223 2799.68 164.781 2763.91 128.98 C 2746.59 111.66 2723.55 102.129 2699.04 102.129"/>
    <path id="path1516" style="fill:#bcc4cd;fill-opacity:1;fill-rule:nonzero;stroke:none" d="M 2714.82 178.102 C 2706.11 169.391 2691.97 169.391 2683.26 178.102 C 2674.55 186.809 2674.55 200.949 2683.26 209.66 C 2691.97 218.379 2706.11 218.379 2714.82 209.66 C 2723.53 200.949 2723.52 186.809 2714.82 178.102"/>
    <path id="path1518" style="fill:#000000;fill-opacity:1;fill-rule:nonzero;stroke:none" d="M 2699.04 213.699 C 2693.75 213.699 2688.77 211.641 2685.03 207.891 C 2681.28 204.148 2679.22 199.172 2679.22 193.879 C 2679.22 188.59 2681.28 183.609 2685.03 179.871 C 2692.5 172.398 2705.56 172.398 2713.05 179.871 C 2720.77 187.602 2720.77 200.172 2713.05 207.891 C 2709.31 211.641 2704.34 213.699 2699.04 213.699 Z M 2699.04 169.07 C 2692.41 169.07 2686.18 171.641 2681.49 176.332 C 2676.81 181.02 2674.22 187.25 2674.22 193.879 C 2674.22 200.512 2676.81 206.742 2681.49 211.43 C 2686.18 216.121 2692.41 218.699 2699.04 218.699 C 2705.67 218.699 2711.9 216.121 2716.59 211.43 C 2726.25 201.762 2726.25 186.02 2716.59 176.332 C 2711.9 171.641 2705.67 169.07 2699.04 169.07"/>
    <path id="path1520" style="fill:#d33200;fill-opacity:1;fill-rule:nonzero;stroke:none" d="M 2583.49 140.281 C 2586.49 133.789 2590.03 127.461 2594.2 121.449 L 2771.45 298.691 C 2765.43 302.859 2759.13 306.398 2752.63 309.441 L 2583.49 140.281"/>
    <path id="path1522" style="fill:#000000;fill-opacity:1;fill-rule:nonzero;stroke:none" d="M 2586.5 139.75 C 2588.93 134.68 2591.64 129.859 2594.58 125.359 L 2767.53 298.309 C 2763.07 301.238 2758.25 303.961 2753.15 306.422 L 2586.5 139.75 Z M 2594.2 118.949 C 2594.13 118.949 2594.05 118.949 2593.97 118.961 C 2593.24 119.031 2592.57 119.422 2592.14 120.02 C 2588.08 125.891 2584.4 132.359 2581.22 139.219 C 2580.78 140.18 2580.98 141.301 2581.72 142.039 L 2750.86 311.199 C 2751.61 311.949 2752.73 312.129 2753.69 311.699 C 2760.6 308.469 2767.05 304.789 2772.87 300.75 C 2773.48 300.332 2773.87 299.648 2773.94 298.922 C 2774 298.18 2773.74 297.449 2773.21 296.93 L 2595.97 119.68 C 2595.5 119.211 2594.86 118.949 2594.2 118.949"/>
    <path id="path1524" style="fill:#d33200;fill-opacity:1;fill-rule:nonzero;stroke:none" d="M 2803.85 266.32 L 2626.61 89.039 C 2632.62 84.879 2638.93 81.352 2645.42 78.34 L 2814.57 247.488 C 2811.56 253.969 2808.03 260.289 2803.85 266.32"/>
    <path id="path1526" style="fill:#000000;fill-opacity:1;fill-rule:nonzero;stroke:none" d="M 2630.52 89.422 C 2635.01 86.492 2639.83 83.781 2644.9 81.352 L 2811.56 248.02 C 2809.12 253.09 2806.41 257.91 2803.47 262.41 L 2630.52 89.422 Z M 2645.42 75.84 C 2645.06 75.84 2644.71 75.922 2644.37 76.082 C 2637.51 79.25 2631.05 82.922 2625.19 86.98 C 2624.58 87.41 2624.18 88.07 2624.12 88.809 C 2624.05 89.551 2624.32 90.281 2624.84 90.801 L 2802.08 268.09 C 2802.61 268.609 2803.38 268.91 2804.08 268.809 C 2804.81 268.738 2805.49 268.352 2805.91 267.75 C 2809.97 261.871 2813.65 255.41 2816.84 248.551 C 2817.28 247.59 2817.08 246.469 2816.34 245.73 L 2647.19 76.582 C 2646.71 76.102 2646.07 75.84 2645.42 75.84"/>
    <path id="path1528" style="fill:#d33200;fill-opacity:1;fill-rule:nonzero;stroke:none" d="M 2665.7 316.852 L 2576.07 227.211 C 2573.05 216.059 2571.5 204.641 2571.56 193.172 L 2699.74 321.332 C 2688.27 321.398 2676.84 319.852 2665.7 316.852"/>
    <path id="path1530" style="fill:#000000;fill-opacity:1;fill-rule:nonzero;stroke:none" d="M 2578.32 225.91 C 2575.98 217.102 2574.59 208.191 2574.18 199.332 L 2693.58 318.711 C 2684.74 318.309 2675.82 316.941 2667 314.602 L 2578.32 225.91 Z M 2571.56 190.672 C 2571.24 190.672 2570.92 190.73 2570.61 190.852 C 2569.68 191.23 2569.07 192.141 2569.06 193.16 C 2569 204.691 2570.55 216.371 2573.66 227.859 C 2573.77 228.281 2574 228.672 2574.31 228.98 L 2663.94 318.621 C 2664.24 318.93 2664.63 319.148 2665.05 319.262 C 2676.32 322.301 2687.74 323.832 2699.01 323.832 L 2699.75 323.832 C 2700.76 323.82 2701.67 323.219 2702.05 322.281 C 2702.43 321.352 2702.22 320.281 2701.5 319.559 L 2573.33 191.398 C 2572.85 190.922 2572.21 190.672 2571.56 190.672"/>
    <path id="path1532" style="fill:#d33200;fill-opacity:1;fill-rule:nonzero;stroke:none" d="M 2822.01 160.582 C 2825 171.699 2826.56 183.121 2826.5 194.582 L 2698.32 66.43 C 2709.79 66.359 2721.22 67.922 2732.36 70.91 L 2822.01 160.582"/>
    <path id="path1534" style="fill:#000000;fill-opacity:1;fill-rule:nonzero;stroke:none" d="M 2823.87 188.422 L 2704.48 69.059 C 2713.3 69.461 2722.22 70.82 2731.06 73.16 L 2819.77 161.871 C 2822.09 170.691 2823.47 179.59 2823.87 188.422 Z M 2699.04 63.93 L 2698.31 63.93 C 2697.29 63.941 2696.39 64.539 2696.01 65.48 C 2695.63 66.41 2695.84 67.48 2696.55 68.199 L 2824.73 196.352 C 2825.45 197.059 2826.52 197.289 2827.45 196.898 C 2828.38 196.512 2828.99 195.609 2829 194.59 C 2829.06 183.102 2827.52 171.441 2824.42 159.93 C 2824.31 159.512 2824.08 159.121 2823.77 158.809 L 2734.13 69.141 C 2733.82 68.832 2733.43 68.609 2733.01 68.5 C 2721.7 65.461 2710.27 63.93 2699.04 63.93"/>
    <path id="path1536" style="fill:#997755;fill-opacity:1;fill-rule:nonzero;stroke:none" d="M 2654.49 116.93 C 2661.11 113.09 2668.09 110.219 2675.32 108.25 L 2784.68 217.609 C 2782.7 224.832 2779.83 231.801 2775.99 238.43 L 2654.49 116.93"/>
    <path id="path1538" style="fill:#000000;fill-opacity:1;fill-rule:nonzero;stroke:none" d="M 2658.61 117.5 C 2663.67 114.84 2669.02 112.672 2674.58 111.051 L 2781.88 218.34 C 2780.24 223.91 2778.08 229.262 2775.41 234.32 L 2658.61 117.5 Z M 2675.32 105.75 C 2675.1 105.75 2674.88 105.77 2674.66 105.832 C 2667.11 107.891 2659.91 110.898 2653.24 114.77 C 2652.57 115.148 2652.11 115.832 2652.01 116.602 C 2651.91 117.379 2652.18 118.148 2652.72 118.691 L 2774.22 240.199 C 2774.78 240.75 2775.52 240.961 2776.32 240.91 C 2777.08 240.801 2777.76 240.352 2778.15 239.68 C 2782.01 233.031 2785.01 225.82 2787.09 218.27 C 2787.33 217.41 2787.08 216.48 2786.45 215.84 L 2677.08 106.48 C 2676.61 106 2675.97 105.75 2675.32 105.75"/>
    <path id="path1540" style="fill:#997755;fill-opacity:1;fill-rule:nonzero;stroke:none" d="M 2613.38 170.172 C 2615.38 162.949 2618.24 155.988 2622.08 149.332 L 2743.58 270.832 C 2736.95 274.691 2729.97 277.551 2722.74 279.539 L 2613.38 170.172"/>
    <path id="path1542" style="fill:#000000;fill-opacity:1;fill-rule:nonzero;stroke:none" d="M 2616.19 169.441 C 2617.83 163.879 2620 158.52 2622.66 153.449 L 2739.47 270.262 C 2734.44 272.922 2729.07 275.09 2723.47 276.742 L 2616.19 169.441 Z M 2622.08 146.832 C 2621.97 146.832 2621.86 146.84 2621.75 146.852 C 2620.98 146.961 2620.3 147.41 2619.91 148.082 C 2616.06 154.762 2613.06 161.969 2610.98 169.512 C 2610.73 170.371 2610.98 171.301 2611.62 171.941 L 2720.98 281.309 C 2721.61 281.961 2722.53 282.18 2723.41 281.961 C 2731.01 279.859 2738.22 276.84 2744.84 272.992 C 2745.51 272.602 2745.96 271.93 2746.06 271.16 C 2746.16 270.379 2745.9 269.609 2745.35 269.07 L 2623.84 147.559 C 2623.37 147.09 2622.73 146.832 2622.08 146.832"/>
  </g>
</svg>