<?xml version="1.0" encoding="utf-8"?>
<svg viewBox="549.2899780273438 274.1910095214844 85.48899841308594 110.87699890136719" width="85.48899841308594" height="110.87699890136719" xmlns="http://www.w3.org/2000/svg">
  <defs>
    <clipPath id="clipPath3274" clipPathUnits="userSpaceOnUse">
      <path id="path3276" d="m 4684.35,1611.87 c -14.49,0 -26.2,-11.75 -26.2,-26.23 l 52.23,0 c 0,14.48 -11.66,26.23 -26.03,26.23 z"/>
    </clipPath>
    <linearGradient id="linearGradient3278" spreadMethod="pad" gradientTransform="matrix(52.2266,0,0,-52.2266,4658.15,1598.75)" gradientUnits="userSpaceOnUse" y2="0" x2="1" y1="0" x1="0">
      <stop id="stop3280" offset="0" style="stop-opacity:1;stop-color:#1e2e39"/>
      <stop id="stop3282" offset="1" style="stop-opacity:1;stop-color:#647482"/>
    </linearGradient>
  </defs>
  <g transform="matrix(0.12500000186264515, 0, 0, -0.12500000186264515, 0, 526.1375122070312)">
    <path id="path50" style="fill:#ddd8bf;fill-opacity:1;fill-rule:nonzero;stroke:none" d="M 4980.76 1155.71 C 4980.76 1140.71 4869.46 1128.55 4732.16 1128.55 C 4594.85 1128.55 4483.54 1140.71 4483.54 1155.71 C 4483.54 1170.69 4594.85 1182.85 4732.16 1182.85 C 4869.46 1182.85 4980.76 1170.69 4980.76 1155.71"/>
    <path id="path3202" style="fill:#425059;fill-opacity:1;fill-rule:nonzero;stroke:none" d="M 4902.37 1441.54 C 4921.14 1422.76 4921.14 1392.28 4902.37 1373.48 C 4883.6 1354.7 4853.13 1354.7 4834.33 1373.48 C 4815.55 1392.28 4815.55 1422.76 4834.33 1441.54 C 4853.13 1460.33 4883.6 1460.33 4902.37 1441.54"/>
    <path id="path3204" style="fill:#000000;fill-opacity:1;fill-rule:nonzero;stroke:none" d="M 4868.36 1453.13 C 4856.17 1453.13 4844.72 1448.38 4836.09 1439.77 C 4818.31 1421.99 4818.31 1393.04 4836.09 1375.25 C 4844.72 1366.63 4856.17 1361.9 4868.36 1361.9 C 4880.55 1361.9 4892 1366.63 4900.61 1375.25 C 4918.38 1393.04 4918.38 1421.99 4900.61 1439.77 C 4892 1448.38 4880.55 1453.13 4868.36 1453.13 Z M 4868.36 1356.9 C 4854.83 1356.9 4842.12 1362.16 4832.56 1371.71 C 4812.83 1391.46 4812.83 1423.58 4832.56 1443.3 C 4842.12 1452.86 4854.83 1458.13 4868.36 1458.13 C 4881.88 1458.13 4894.59 1452.86 4904.14 1443.3 C 4923.86 1423.58 4923.86 1391.46 4904.14 1371.71 C 4894.59 1362.16 4881.88 1356.9 4868.36 1356.9"/>
    <path id="path3206" style="fill:#f4d9bd;fill-opacity:1;fill-rule:nonzero;stroke:none" d="M 4949.21 1383.6 C 4967.99 1364.8 4971.77 1338.09 4957.59 1323.94 C 4943.45 1309.8 4916.73 1313.55 4897.94 1332.33 C 4879.15 1351.13 4875.42 1377.83 4889.56 1392.01 C 4903.71 1406.16 4930.42 1402.4 4949.21 1383.6"/>
    <path id="path3208" style="fill:#000000;fill-opacity:1;fill-rule:nonzero;stroke:none" d="M 4911.79 1398.08 C 4903.54 1398.08 4896.46 1395.36 4891.33 1390.24 C 4878.18 1377.05 4881.94 1351.87 4899.71 1334.1 C 4909.87 1323.94 4923.2 1317.87 4935.36 1317.87 C 4943.61 1317.87 4950.69 1320.58 4955.82 1325.71 C 4962.11 1331.98 4964.76 1341.2 4963.28 1351.67 C 4961.77 1362.41 4956.14 1373.12 4947.44 1381.83 C 4937.28 1392.01 4923.95 1398.08 4911.79 1398.08 Z M 4935.36 1312.87 C 4921.7 1312.87 4907.42 1319.32 4896.17 1330.56 C 4876.46 1350.29 4872.7 1378.64 4887.79 1393.77 C 4893.88 1399.86 4902.18 1403.08 4911.79 1403.08 C 4925.44 1403.08 4939.73 1396.62 4950.98 1385.36 C 4960.45 1375.89 4966.57 1364.17 4968.23 1352.38 C 4969.93 1340.31 4966.78 1329.58 4959.36 1322.17 C 4953.27 1316.09 4944.97 1312.87 4935.36 1312.87"/>
    <path id="path3210" style="fill:#bcc4cd;fill-opacity:1;fill-rule:nonzero;stroke:none" d="M 4975.54 1360.15 L 4921.74 1306.33 L 4888.3 1339.75 L 4942.11 1393.56 L 4975.54 1360.15"/>
    <path id="path3212" style="fill:#000000;fill-opacity:1;fill-rule:nonzero;stroke:none" d="M 4891.84 1339.75 L 4921.74 1309.87 L 4972 1360.15 L 4942.11 1390.02 L 4891.84 1339.75 Z M 4921.74 1303.83 C 4921.1 1303.83 4920.46 1304.08 4919.97 1304.56 L 4886.53 1337.98 C 4886.06 1338.45 4885.8 1339.09 4885.8 1339.75 C 4885.8 1340.41 4886.06 1341.05 4886.53 1341.52 L 4940.34 1395.33 C 4941.31 1396.29 4942.89 1396.31 4943.88 1395.33 L 4977.3 1361.92 C 4977.77 1361.45 4978.04 1360.81 4978.04 1360.15 C 4978.04 1359.49 4977.77 1358.85 4977.3 1358.38 L 4923.51 1304.56 C 4923.02 1304.08 4922.38 1303.83 4921.74 1303.83"/>
    <path id="path3214" style="fill:#8192a4;fill-opacity:1;fill-rule:nonzero;stroke:none" d="M 4967 1368.68 L 4913.17 1314.88 L 4896.83 1331.23 L 4950.65 1385.03 L 4967 1368.68"/>
    <path id="path3216" style="fill:#000000;fill-opacity:1;fill-rule:nonzero;stroke:none" d="M 4900.36 1331.23 L 4913.17 1318.41 L 4963.47 1368.68 L 4950.65 1381.5 L 4900.36 1331.23 Z M 4913.17 1312.38 L 4913.17 1312.38 C 4912.51 1312.38 4911.88 1312.64 4911.41 1313.11 L 4895.06 1329.47 C 4894.08 1330.44 4894.08 1332.02 4895.06 1333 L 4948.89 1386.8 C 4949.36 1387.27 4949.99 1387.53 4950.65 1387.53 L 4950.65 1387.53 C 4951.32 1387.53 4951.95 1387.27 4952.42 1386.8 L 4968.77 1370.44 C 4969.75 1369.47 4969.75 1367.88 4968.77 1366.91 L 4914.94 1313.11 C 4914.47 1312.64 4913.84 1312.38 4913.17 1312.38"/>
    <path id="path3218" style="fill:#c9a88b;fill-opacity:1;fill-rule:nonzero;stroke:none" d="M 5012.37 1323.27 C 5021.16 1314.52 5021.14 1300.31 5012.38 1291.54 L 4991.41 1270.55 C 4982.65 1261.8 4968.43 1261.81 4959.68 1270.57 L 4938.71 1291.54 C 4929.92 1300.31 4929.95 1314.52 4938.68 1323.27 L 4959.7 1344.24 C 4968.43 1353.04 4982.65 1353 4991.41 1344.24 L 5012.37 1323.27"/>
    <path id="path3220" style="fill:#000000;fill-opacity:1;fill-rule:nonzero;stroke:none" d="M 4975.52 1348.32 C 4970.21 1348.32 4965.21 1346.25 4961.47 1342.48 L 4940.45 1321.5 C 4936.7 1317.74 4934.63 1312.74 4934.63 1307.42 C 4934.63 1302.08 4936.71 1297.07 4940.48 1293.3 L 4961.45 1272.34 C 4968.96 1264.81 4982.1 1264.79 4989.64 1272.32 L 5010.62 1293.3 C 5014.39 1297.08 5016.46 1302.11 5016.46 1307.45 C 5016.45 1312.77 5014.38 1317.75 5010.61 1321.49 L 4989.64 1342.47 C 4985.87 1346.24 4980.85 1348.32 4975.52 1348.32 Z M 4975.56 1261.5 C 4968.89 1261.5 4962.62 1264.09 4957.91 1268.8 L 4936.94 1289.77 C 4932.23 1294.48 4929.63 1300.75 4929.63 1307.42 C 4929.63 1314.07 4932.22 1320.33 4936.91 1325.03 L 4957.93 1346.01 C 4962.61 1350.73 4968.86 1353.32 4975.52 1353.32 C 4982.19 1353.32 4988.46 1350.73 4993.17 1346.01 L 5014.14 1325.03 C 5018.85 1320.35 5021.45 1314.1 5021.46 1307.45 C 5021.47 1300.78 5018.88 1294.5 5014.15 1289.77 L 4993.17 1268.78 C 4988.47 1264.09 4982.21 1261.5 4975.56 1261.5"/>
    <path id="path3222" style="fill:#f4d9bd;fill-opacity:1;fill-rule:nonzero;stroke:none" d="M 4986.14 1349.53 C 4991.96 1343.68 4991.98 1334.22 4986.14 1328.39 L 4976.89 1319.15 C 4971.04 1313.29 4961.57 1313.29 4955.73 1319.15 L 4955.73 1319.15 C 4949.89 1324.97 4949.87 1334.47 4955.73 1340.31 L 4964.93 1349.54 C 4970.81 1355.39 4980.29 1355.37 4986.14 1349.53 L 4986.14 1349.53"/>
    <path id="path3224" style="fill:#000000;fill-opacity:1;fill-rule:nonzero;stroke:none" d="M 4975.54 1351.42 C 4972.2 1351.42 4969.06 1350.13 4966.7 1347.78 L 4957.5 1338.54 C 4955.15 1336.18 4953.85 1333.06 4953.85 1329.73 C 4953.85 1326.4 4955.15 1323.27 4957.5 1320.92 C 4962.21 1316.19 4970.4 1316.19 4975.13 1320.92 L 4984.38 1330.16 C 4989.22 1334.99 4989.22 1342.89 4984.38 1347.77 C 4982.01 1350.12 4978.88 1351.42 4975.54 1351.42 Z M 4966.31 1312.26 C 4961.64 1312.26 4957.26 1314.09 4953.96 1317.39 C 4950.66 1320.68 4948.85 1325.06 4948.85 1329.73 C 4948.85 1334.4 4950.66 1338.78 4953.96 1342.07 L 4963.16 1351.31 C 4969.79 1357.91 4981.29 1357.9 4987.91 1351.3 C 4994.71 1344.48 4994.7 1333.4 4987.91 1326.62 L 4978.66 1317.39 C 4975.36 1314.08 4970.98 1312.26 4966.31 1312.26"/>
    <path id="path3226" style="fill:#425059;fill-opacity:1;fill-rule:nonzero;stroke:none" d="M 4558.9 1441.54 C 4540.11 1422.76 4540.11 1392.28 4558.9 1373.48 C 4577.67 1354.7 4608.14 1354.7 4626.92 1373.48 C 4645.72 1392.28 4645.72 1422.76 4626.92 1441.54 C 4608.14 1460.33 4577.67 1460.33 4558.9 1441.54"/>
    <path id="path3228" style="fill:#000000;fill-opacity:1;fill-rule:nonzero;stroke:none" d="M 4592.91 1453.13 C 4580.72 1453.13 4569.27 1448.38 4560.66 1439.77 C 4542.87 1421.99 4542.87 1393.04 4560.66 1375.25 C 4569.27 1366.63 4580.72 1361.9 4592.91 1361.9 C 4605.09 1361.9 4616.54 1366.63 4625.16 1375.25 C 4633.78 1383.87 4638.53 1395.33 4638.53 1407.51 C 4638.53 1419.7 4633.78 1431.16 4625.16 1439.77 C 4616.54 1448.38 4605.09 1453.13 4592.91 1453.13 Z M 4592.91 1356.9 C 4579.38 1356.9 4566.68 1362.16 4557.13 1371.71 C 4537.39 1391.46 4537.39 1423.58 4557.13 1443.3 C 4566.68 1452.86 4579.38 1458.13 4592.91 1458.13 C 4606.43 1458.13 4619.14 1452.86 4628.69 1443.3 C 4638.25 1433.75 4643.53 1421.04 4643.53 1407.51 C 4643.53 1393.99 4638.25 1381.27 4628.69 1371.71 C 4619.14 1362.16 4606.43 1356.9 4592.91 1356.9"/>
    <path id="path3230" style="fill:#f4d9bd;fill-opacity:1;fill-rule:nonzero;stroke:none" d="M 4645.85 1166.89 L 4612.15 1166.89 L 4612.15 1258.81 L 4679.56 1258.81 L 4645.85 1166.89"/>
    <path id="path3232" style="fill:#000000;fill-opacity:1;fill-rule:nonzero;stroke:none" d="M 4614.65 1169.39 L 4644.1 1169.39 L 4675.98 1256.31 L 4614.65 1256.31 L 4614.65 1169.39 Z M 4645.85 1164.39 L 4612.15 1164.39 C 4610.77 1164.39 4609.65 1165.51 4609.65 1166.89 L 4609.65 1258.81 C 4609.65 1260.19 4610.77 1261.31 4612.15 1261.31 L 4679.56 1261.31 C 4680.38 1261.31 4681.14 1260.91 4681.61 1260.25 C 4682.08 1259.57 4682.19 1258.71 4681.9 1257.95 L 4648.19 1166.03 C 4647.83 1165.04 4646.89 1164.39 4645.85 1164.39"/>
    <path id="path3234" style="fill:#425059;fill-opacity:1;fill-rule:nonzero;stroke:none" d="M 4605.56 1209.62 L 4605.56 1166.89 L 4653.58 1166.89 L 4669.25 1209.62 L 4605.56 1209.62"/>
    <path id="path3236" style="fill:#000000;fill-opacity:1;fill-rule:nonzero;stroke:none" d="M 4608.06 1169.39 L 4651.84 1169.39 L 4665.67 1207.12 L 4608.06 1207.12 L 4608.06 1169.39 Z M 4653.58 1164.39 L 4605.56 1164.39 C 4604.18 1164.39 4603.06 1165.51 4603.06 1166.89 L 4603.06 1209.62 C 4603.06 1211 4604.18 1212.12 4605.56 1212.12 L 4669.25 1212.12 C 4670.07 1212.12 4670.83 1211.72 4671.3 1211.06 C 4671.77 1210.38 4671.88 1209.52 4671.59 1208.76 L 4655.93 1166.03 C 4655.57 1165.04 4654.63 1164.39 4653.58 1164.39"/>
    <path id="path3238" style="fill:#f4d9bd;fill-opacity:1;fill-rule:nonzero;stroke:none" d="M 4820.28 1166.89 L 4854.01 1166.89 L 4854.01 1258.81 L 4786.59 1258.81 L 4820.28 1166.89"/>
    <path id="path3240" style="fill:#000000;fill-opacity:1;fill-rule:nonzero;stroke:none" d="M 4822.03 1169.39 L 4851.51 1169.39 L 4851.51 1256.31 L 4790.17 1256.31 L 4822.03 1169.39 Z M 4854.01 1164.39 L 4820.28 1164.39 C 4819.24 1164.39 4818.3 1165.04 4817.94 1166.03 L 4784.25 1257.95 C 4783.96 1258.71 4784.07 1259.57 4784.54 1260.25 C 4785.01 1260.91 4785.77 1261.31 4786.59 1261.31 L 4854.01 1261.31 C 4855.39 1261.31 4856.51 1260.19 4856.51 1258.81 L 4856.51 1166.89 C 4856.51 1165.51 4855.39 1164.39 4854.01 1164.39"/>
    <path id="path3242" style="fill:#425059;fill-opacity:1;fill-rule:nonzero;stroke:none" d="M 4862.53 1209.62 L 4862.53 1166.89 L 4814.5 1166.89 L 4798.83 1209.62 L 4862.53 1209.62"/>
    <path id="path3244" style="fill:#000000;fill-opacity:1;fill-rule:nonzero;stroke:none" d="M 4816.25 1169.39 L 4860.03 1169.39 L 4860.03 1207.12 L 4802.41 1207.12 L 4816.25 1169.39 Z M 4862.53 1164.39 L 4814.5 1164.39 C 4813.46 1164.39 4812.52 1165.04 4812.16 1166.03 L 4796.48 1208.76 C 4796.2 1209.52 4796.31 1210.38 4796.78 1211.06 C 4797.25 1211.72 4798.01 1212.12 4798.83 1212.12 L 4862.53 1212.12 C 4863.91 1212.12 4865.03 1211 4865.03 1209.62 L 4865.03 1166.89 C 4865.03 1165.51 4863.91 1164.39 4862.53 1164.39"/>
    <path id="path3246" style="fill:#425059;fill-opacity:1;fill-rule:nonzero;stroke:none" d="M 4616.93 1454.05 C 4600.48 1425.04 4590.71 1389.65 4590.71 1351.38 C 4590.71 1313.12 4600.48 1277.73 4616.93 1248.7 C 4649.78 1234.15 4689.76 1225.53 4733.08 1225.53 C 4776.4 1225.53 4816.41 1234.15 4849.25 1248.7 C 4865.69 1277.73 4875.46 1313.09 4875.46 1351.38 C 4875.46 1389.65 4865.67 1425.04 4849.21 1454.06 C 4816.38 1468.61 4776.39 1477.24 4733.08 1477.24 C 4689.79 1477.24 4649.78 1468.61 4616.93 1454.05"/>
    <path id="path3248" style="fill:#000000;fill-opacity:1;fill-rule:nonzero;stroke:none" d="M 4618.7 1250.66 C 4652.44 1235.85 4691.96 1228.03 4733.08 1228.03 C 4774.2 1228.03 4813.74 1235.85 4847.48 1250.66 C 4864.15 1280.38 4872.96 1315.2 4872.96 1351.38 C 4872.96 1387.56 4864.14 1422.38 4847.44 1452.1 C 4813.7 1466.92 4774.17 1474.74 4733.08 1474.74 C 4691.97 1474.74 4652.44 1466.91 4618.7 1452.09 C 4602.02 1422.39 4593.21 1387.58 4593.21 1351.38 C 4593.21 1315.19 4602.02 1280.38 4618.7 1250.66 Z M 4733.08 1223.03 C 4690.97 1223.03 4650.46 1231.12 4615.92 1246.42 C 4615.43 1246.63 4615.02 1247.01 4614.76 1247.47 C 4597.39 1278.1 4588.21 1314.04 4588.21 1351.38 C 4588.21 1388.74 4597.39 1424.67 4614.76 1455.28 C 4615.02 1455.75 4615.43 1456.12 4615.92 1456.33 C 4650.46 1471.64 4690.98 1479.74 4733.08 1479.74 C 4775.18 1479.74 4815.68 1471.64 4850.22 1456.34 C 4850.71 1456.13 4851.12 1455.76 4851.39 1455.29 C 4868.77 1424.65 4877.96 1388.72 4877.96 1351.38 C 4877.96 1314.04 4868.78 1278.11 4851.43 1247.47 C 4851.16 1247.01 4850.75 1246.63 4850.26 1246.42 C 4815.72 1231.12 4775.21 1223.03 4733.08 1223.03"/>
    <path id="path3250" style="fill:#8192a4;fill-opacity:1;fill-rule:nonzero;stroke:none" d="M 4614.6 1450.07 C 4607.14 1436.92 4602.71 1420.87 4602.71 1403.51 C 4602.71 1386.16 4607.14 1370.11 4614.6 1356.95 C 4629.5 1350.35 4647.63 1346.43 4667.29 1346.43 C 4686.93 1346.43 4705.09 1350.35 4719.97 1356.95 C 4727.43 1370.11 4731.85 1386.15 4731.85 1403.51 C 4731.85 1420.87 4727.43 1436.92 4719.95 1450.07 C 4705.07 1456.67 4686.9 1460.6 4667.29 1460.6 C 4647.65 1460.6 4629.5 1456.67 4614.6 1450.07"/>
    <path id="path3252" style="fill:#000000;fill-opacity:1;fill-rule:nonzero;stroke:none" d="M 4616.37 1358.9 C 4631.42 1352.38 4649 1348.93 4667.29 1348.93 C 4685.59 1348.93 4703.17 1352.38 4718.2 1358.9 C 4725.5 1372.07 4729.35 1387.47 4729.35 1403.51 C 4729.35 1419.56 4725.49 1434.96 4718.18 1448.12 C 4703.13 1454.65 4685.57 1458.1 4667.29 1458.1 C 4649.02 1458.1 4631.44 1454.65 4616.37 1448.12 C 4609.07 1434.94 4605.21 1419.53 4605.21 1403.51 C 4605.21 1387.49 4609.07 1372.08 4616.37 1358.9 Z M 4667.29 1343.93 C 4648.01 1343.93 4629.43 1347.64 4613.58 1354.66 C 4613.1 1354.88 4612.69 1355.25 4612.42 1355.72 C 4604.43 1369.81 4600.21 1386.33 4600.21 1403.51 C 4600.21 1420.7 4604.43 1437.22 4612.42 1451.3 C 4612.69 1451.77 4613.1 1452.14 4613.58 1452.36 C 4629.45 1459.39 4648.02 1463.1 4667.29 1463.1 C 4686.56 1463.1 4705.12 1459.39 4720.97 1452.36 C 4721.46 1452.14 4721.86 1451.77 4722.13 1451.31 C 4730.12 1437.25 4734.35 1420.72 4734.35 1403.51 C 4734.35 1386.32 4730.13 1369.8 4722.15 1355.72 C 4721.88 1355.25 4721.47 1354.88 4720.99 1354.66 C 4705.16 1347.64 4686.59 1343.93 4667.29 1343.93"/>
    <path id="path3254" style="fill:#8192a4;fill-opacity:1;fill-rule:nonzero;stroke:none" d="M 4747.88 1450.07 C 4740.41 1436.92 4735.99 1420.87 4735.99 1403.51 C 4735.99 1386.16 4740.41 1370.11 4747.88 1356.95 C 4762.76 1350.35 4780.91 1346.43 4800.55 1346.43 C 4820.21 1346.43 4838.34 1350.35 4853.23 1356.95 C 4860.69 1370.11 4865.13 1386.15 4865.13 1403.51 C 4865.13 1420.87 4860.68 1436.92 4853.23 1450.07 C 4838.34 1456.67 4820.19 1460.6 4800.55 1460.6 C 4780.93 1460.6 4762.76 1456.67 4747.88 1450.07"/>
    <path id="path3256" style="fill:#000000;fill-opacity:1;fill-rule:nonzero;stroke:none" d="M 4749.65 1358.9 C 4764.68 1352.38 4782.26 1348.93 4800.55 1348.93 C 4818.84 1348.93 4836.43 1352.38 4851.46 1358.9 C 4858.77 1372.09 4862.63 1387.5 4862.63 1403.51 C 4862.63 1419.51 4858.77 1434.92 4851.46 1448.12 C 4836.41 1454.65 4818.83 1458.1 4800.55 1458.1 C 4782.28 1458.1 4764.7 1454.65 4749.65 1448.12 C 4742.34 1434.94 4738.49 1419.54 4738.49 1403.51 C 4738.49 1387.48 4742.34 1372.07 4749.65 1358.9 Z M 4800.55 1343.93 C 4781.26 1343.93 4762.7 1347.64 4746.87 1354.66 C 4746.38 1354.88 4745.97 1355.25 4745.7 1355.72 C 4737.71 1369.8 4733.49 1386.33 4733.49 1403.51 C 4733.49 1420.7 4737.71 1437.23 4745.7 1451.3 C 4745.97 1451.77 4746.38 1452.14 4746.87 1452.36 C 4762.71 1459.39 4781.27 1463.1 4800.55 1463.1 C 4819.82 1463.1 4838.39 1459.39 4854.25 1452.36 C 4854.74 1452.14 4855.15 1451.77 4855.41 1451.3 C 4863.4 1437.19 4867.63 1420.67 4867.63 1403.51 C 4867.63 1386.35 4863.4 1369.82 4855.41 1355.72 C 4855.15 1355.25 4854.74 1354.88 4854.25 1354.66 C 4838.41 1347.64 4819.83 1343.93 4800.55 1343.93"/>
    <path id="path3258" style="fill:#f4d9bd;fill-opacity:1;fill-rule:nonzero;stroke:none" d="M 4957.47 1604.39 C 4957.47 1515.58 4885.46 1443.58 4796.65 1443.58 L 4671.55 1443.58 C 4582.74 1443.58 4510.75 1515.58 4510.75 1604.39 L 4510.75 1604.39 C 4510.75 1693.21 4582.74 1765.21 4671.55 1765.21 L 4796.65 1765.21 C 4885.46 1765.21 4957.47 1693.21 4957.47 1604.39 L 4957.47 1604.39"/>
    <path id="path3260" style="fill:#000000;fill-opacity:1;fill-rule:nonzero;stroke:none" d="M 4671.55 1762.71 C 4584.27 1762.71 4513.25 1691.68 4513.25 1604.39 C 4513.25 1517.09 4584.27 1446.08 4671.55 1446.08 L 4796.65 1446.08 C 4883.95 1446.08 4954.97 1517.09 4954.97 1604.39 C 4954.97 1691.68 4883.95 1762.71 4796.65 1762.71 L 4671.55 1762.71 Z M 4796.65 1441.08 L 4671.55 1441.08 C 4581.5 1441.08 4508.25 1514.34 4508.25 1604.39 C 4508.25 1694.45 4581.5 1767.71 4671.55 1767.71 L 4796.65 1767.71 C 4886.71 1767.71 4959.97 1694.45 4959.97 1604.39 C 4959.97 1514.34 4886.71 1441.08 4796.65 1441.08"/>
    <path id="path3262" style="fill:#6b7f91;fill-opacity:1;fill-rule:nonzero;stroke:none" d="M 4671.55 1413.58 L 4731.21 1413.58 C 4729.85 1427.04 4725.96 1439.52 4719.95 1450.07 C 4705.07 1456.67 4686.9 1460.6 4667.29 1460.6 C 4647.65 1460.6 4629.5 1456.67 4614.6 1450.07 C 4610.77 1443.33 4607.78 1435.81 4605.74 1427.77 C 4625.85 1418.72 4648.08 1413.58 4671.55 1413.58"/>
    <path id="path3264" style="fill:#000000;fill-opacity:1;fill-rule:nonzero;stroke:none" d="M 4616.37 1358.9 C 4631.42 1352.38 4649 1348.93 4667.29 1348.93 C 4685.59 1348.93 4703.17 1352.38 4718.2 1358.9 C 4725.5 1372.07 4729.35 1387.47 4729.35 1403.51 C 4729.35 1419.56 4725.49 1434.96 4718.18 1448.12 C 4703.13 1454.65 4685.57 1458.1 4667.29 1458.1 C 4649.02 1458.1 4631.44 1454.65 4616.37 1448.12 C 4609.07 1434.94 4605.21 1419.53 4605.21 1403.51 C 4605.21 1387.49 4609.07 1372.08 4616.37 1358.9 Z M 4667.29 1343.93 C 4648.01 1343.93 4629.43 1347.64 4613.58 1354.66 C 4613.1 1354.88 4612.69 1355.25 4612.42 1355.72 C 4604.43 1369.81 4600.21 1386.33 4600.21 1403.51 C 4600.21 1420.7 4604.43 1437.22 4612.42 1451.3 C 4612.69 1451.77 4613.1 1452.14 4613.58 1452.36 C 4629.45 1459.39 4648.02 1463.1 4667.29 1463.1 C 4686.56 1463.1 4705.12 1459.39 4720.97 1452.36 C 4721.46 1452.14 4721.86 1451.77 4722.13 1451.31 C 4730.12 1437.25 4734.35 1420.72 4734.35 1403.51 C 4734.35 1386.32 4730.13 1369.8 4722.15 1355.72 C 4721.88 1355.25 4721.47 1354.88 4720.99 1354.66 C 4705.16 1347.64 4686.59 1343.93 4667.29 1343.93"/>
    <path id="path3266" style="fill:#6b7f91;fill-opacity:1;fill-rule:nonzero;stroke:none" d="M 4736.62 1413.58 L 4796.65 1413.58 C 4819.99 1413.58 4842.11 1418.66 4862.12 1427.6 C 4860.08 1435.71 4857.08 1443.28 4853.23 1450.07 C 4838.34 1456.67 4820.19 1460.6 4800.55 1460.6 C 4780.93 1460.6 4762.76 1456.67 4747.88 1450.07 C 4741.88 1439.52 4737.98 1427.04 4736.62 1413.58"/>
    <path id="path3268" style="fill:#000000;fill-opacity:1;fill-rule:nonzero;stroke:none" d="M 4749.65 1358.9 C 4764.68 1352.38 4782.26 1348.93 4800.55 1348.93 C 4818.84 1348.93 4836.43 1352.38 4851.46 1358.9 C 4858.77 1372.09 4862.63 1387.5 4862.63 1403.51 C 4862.63 1419.51 4858.77 1434.92 4851.46 1448.12 C 4836.41 1454.65 4818.83 1458.1 4800.55 1458.1 C 4782.28 1458.1 4764.7 1454.65 4749.65 1448.12 C 4742.34 1434.94 4738.49 1419.54 4738.49 1403.51 C 4738.49 1387.48 4742.34 1372.07 4749.65 1358.9 Z M 4800.55 1343.93 C 4781.26 1343.93 4762.7 1347.64 4746.87 1354.66 C 4746.38 1354.88 4745.97 1355.25 4745.7 1355.72 C 4737.71 1369.8 4733.49 1386.33 4733.49 1403.51 C 4733.49 1420.7 4737.71 1437.23 4745.7 1451.3 C 4745.97 1451.77 4746.38 1452.14 4746.87 1452.36 C 4762.71 1459.39 4781.27 1463.1 4800.55 1463.1 C 4819.82 1463.1 4838.39 1459.39 4854.25 1452.36 C 4854.74 1452.14 4855.15 1451.77 4855.41 1451.3 C 4863.4 1437.19 4867.63 1420.67 4867.63 1403.51 C 4867.63 1386.35 4863.4 1369.82 4855.41 1355.72 C 4855.15 1355.25 4854.74 1354.88 4854.25 1354.66 C 4838.41 1347.64 4819.83 1343.93 4800.55 1343.93"/>
    <g id="g3270">
      <g clip-path="url(#clipPath3274)" id="g3272">
        <path id="path3284" style="fill:url(#linearGradient3278);fill-opacity:1;fill-rule:nonzero;stroke:none" d="m 4684.35,1611.87 c -14.49,0 -26.2,-11.75 -26.2,-26.23 l 52.23,0 c 0,14.48 -11.66,26.23 -26.03,26.23"/>
      </g>
    </g>
    <path id="path3286" style="fill:#000000;fill-opacity:1;fill-rule:nonzero;stroke:none" d="M 4660.78 1588.14 L 4707.75 1588.14 C 4706.5 1600.05 4696.48 1609.37 4684.35 1609.37 C 4672.13 1609.37 4662.03 1600.05 4660.78 1588.14 Z M 4710.38 1583.14 L 4658.15 1583.14 C 4656.78 1583.14 4655.65 1584.26 4655.65 1585.64 C 4655.65 1601.48 4668.53 1614.37 4684.35 1614.37 C 4700.08 1614.37 4712.88 1601.48 4712.88 1585.64 C 4712.88 1584.26 4711.76 1583.14 4710.38 1583.14"/>
    <path id="path3288" style="fill:#ffffff;fill-opacity:1;fill-rule:nonzero;stroke:none" d="M 4785.23 1464.11 C 4799.74 1464.11 4811.44 1475.85 4811.44 1490.33 L 4759.2 1490.33 C 4759.2 1475.85 4770.87 1464.11 4785.23 1464.11"/>
    <path id="path3290" style="fill:#000000;fill-opacity:1;fill-rule:nonzero;stroke:none" d="M 4761.83 1487.83 C 4763.08 1475.92 4773.1 1466.61 4785.23 1466.61 C 4797.46 1466.61 4807.55 1475.92 4808.81 1487.83 L 4761.83 1487.83 Z M 4785.23 1461.61 C 4769.5 1461.61 4756.7 1474.5 4756.7 1490.33 C 4756.7 1491.7 4757.82 1492.83 4759.2 1492.83 L 4811.44 1492.83 C 4812.81 1492.83 4813.94 1491.7 4813.94 1490.33 C 4813.94 1474.5 4801.06 1461.61 4785.23 1461.61"/>
    <path id="path3292" style="fill:#2a5b6a;fill-opacity:1;fill-rule:nonzero;stroke:none" d="M 4905.27 1611.87 C 4890.77 1611.87 4879.11 1600.12 4879.11 1585.64 L 4931.36 1585.64 C 4931.36 1600.12 4919.66 1611.87 4905.27 1611.87"/>
    <path id="path3294" style="fill:#000000;fill-opacity:1;fill-rule:nonzero;stroke:none" d="M 4881.74 1588.14 L 4928.73 1588.14 C 4927.48 1600.05 4917.44 1609.37 4905.27 1609.37 C 4893.07 1609.37 4882.99 1600.05 4881.74 1588.14 Z M 4931.36 1583.14 L 4879.11 1583.14 C 4877.73 1583.14 4876.61 1584.26 4876.61 1585.64 C 4876.61 1601.48 4889.47 1614.37 4905.27 1614.37 C 4921.04 1614.37 4933.86 1601.48 4933.86 1585.64 C 4933.86 1584.26 4932.73 1583.14 4931.36 1583.14"/>
    <path id="path3296" style="fill:#d33605;fill-opacity:1;fill-rule:nonzero;stroke:none" d="M 4735.97 1631.3 L 4632.62 1616.89 L 4632.62 1645.62 L 4735.97 1678.04 L 4735.97 1631.3"/>
    <path id="path3298" style="fill:#000000;fill-opacity:1;fill-rule:nonzero;stroke:none" d="M 4635.12 1643.78 L 4635.12 1619.76 L 4733.47 1633.48 L 4733.47 1674.63 L 4635.12 1643.78 Z M 4632.62 1614.39 C 4632.02 1614.39 4631.44 1614.6 4630.98 1615 C 4630.43 1615.48 4630.12 1616.17 4630.12 1616.89 L 4630.12 1645.62 C 4630.12 1646.71 4630.83 1647.68 4631.87 1648 L 4735.21 1680.42 C 4735.96 1680.68 4736.8 1680.54 4737.45 1680.05 C 4738.09 1679.58 4738.47 1678.83 4738.47 1678.04 L 4738.47 1631.3 C 4738.47 1630.05 4737.55 1629 4736.31 1628.82 L 4632.96 1614.41 C 4632.85 1614.4 4632.73 1614.39 4632.62 1614.39"/>
    <path id="path3300" style="fill:#d33605;fill-opacity:1;fill-rule:nonzero;stroke:none" d="M 4863.54 1631.28 L 4946.96 1616.89 L 4946.96 1645.71 L 4863.54 1678.02 L 4863.54 1631.28"/>
    <path id="path3302" style="fill:#000000;fill-opacity:1;fill-rule:nonzero;stroke:none" d="M 4866.04 1633.39 L 4944.46 1619.86 L 4944.46 1644 L 4866.04 1674.37 L 4866.04 1633.39 Z M 4946.96 1614.39 C 4946.83 1614.39 4946.68 1614.4 4946.53 1614.43 L 4863.12 1628.82 C 4861.92 1629.03 4861.04 1630.06 4861.04 1631.28 L 4861.04 1678.02 C 4861.04 1678.84 4861.46 1679.61 4862.13 1680.08 C 4862.82 1680.55 4863.7 1680.63 4864.44 1680.35 L 4947.86 1648.04 C 4948.83 1647.67 4949.46 1646.74 4949.46 1645.71 L 4949.46 1616.89 C 4949.46 1616.15 4949.14 1615.45 4948.57 1614.97 C 4948.12 1614.59 4947.55 1614.39 4946.96 1614.39"/>
    <path id="path3304" style="fill:#d33605;fill-opacity:1;fill-rule:nonzero;stroke:none" d="M 4599.74 1248.64 L 4599.74 1218.24 L 4633.29 1225.53 L 4666.85 1218.24 L 4700.38 1225.53 L 4733.92 1218.24 L 4767.45 1225.53 L 4801.02 1218.24 L 4834.54 1225.53 L 4868.11 1218.24 L 4868.11 1248.64 L 4599.74 1248.64"/>
    <path id="path3306" style="fill:#000000;fill-opacity:1;fill-rule:nonzero;stroke:none" d="M 4633.29 1228.03 C 4633.47 1228.03 4633.64 1228.01 4633.82 1227.97 L 4666.85 1220.79 L 4699.85 1227.97 C 4700.21 1228.05 4700.56 1228.05 4700.91 1227.97 L 4733.92 1220.79 L 4766.92 1227.97 C 4767.28 1228.05 4767.63 1228.05 4767.98 1227.97 L 4801.02 1220.79 L 4834.01 1227.97 C 4834.37 1228.05 4834.72 1228.05 4835.07 1227.97 L 4865.61 1221.34 L 4865.61 1246.14 L 4602.24 1246.14 L 4602.24 1221.34 L 4632.76 1227.97 C 4632.94 1228.01 4633.12 1228.03 4633.29 1228.03 Z M 4868.11 1215.74 C 4867.93 1215.74 4867.75 1215.76 4867.58 1215.79 L 4834.54 1222.97 L 4801.54 1215.79 C 4801.19 1215.72 4800.84 1215.72 4800.49 1215.79 L 4767.45 1222.97 L 4734.44 1215.79 C 4734.09 1215.72 4733.74 1215.72 4733.39 1215.79 L 4700.38 1222.97 L 4667.37 1215.79 C 4667.02 1215.72 4666.67 1215.72 4666.32 1215.79 L 4633.29 1222.97 L 4600.26 1215.79 C 4599.51 1215.63 4598.75 1215.82 4598.16 1216.29 C 4597.58 1216.76 4597.24 1217.48 4597.24 1218.24 L 4597.24 1248.64 C 4597.24 1250.01 4598.36 1251.14 4599.74 1251.14 L 4868.11 1251.14 C 4869.48 1251.14 4870.61 1250.01 4870.61 1248.64 L 4870.61 1218.24 C 4870.61 1217.48 4870.26 1216.76 4869.68 1216.29 C 4869.23 1215.93 4868.67 1215.74 4868.11 1215.74"/>
    <path id="path3308" style="fill:#bcc4cd;fill-opacity:1;fill-rule:nonzero;stroke:none" d="M 4599.76 1246.65 L 4868.108 1246.65 L 4868.108 1289.13 L 4599.76 1289.13 L 4599.76 1246.65 Z"/>
    <path id="path3310" style="fill:#000000;fill-opacity:1;fill-rule:nonzero;stroke:none" d="M 4602.26 1249.15 L 4865.61 1249.15 L 4865.61 1286.63 L 4602.26 1286.63 L 4602.26 1249.15 Z M 4868.11 1244.15 L 4599.76 1244.15 C 4598.38 1244.15 4597.26 1245.28 4597.26 1246.65 L 4597.26 1289.13 C 4597.26 1290.51 4598.38 1291.63 4599.76 1291.63 L 4868.11 1291.63 C 4869.48 1291.63 4870.61 1290.51 4870.61 1289.13 L 4870.61 1246.65 C 4870.61 1245.28 4869.48 1244.15 4868.11 1244.15"/>
    <path id="path3312" style="fill:#f4d9bd;fill-opacity:1;fill-rule:nonzero;stroke:none" d="M 4541.55 1389 C 4514.99 1388.98 4493.43 1372.77 4493.45 1352.74 C 4493.45 1332.73 4514.99 1316.5 4541.55 1316.48 C 4568.13 1316.5 4589.66 1332.73 4589.68 1352.77 C 4589.68 1372.77 4568.13 1389 4541.55 1389"/>
    <path id="path3314" style="fill:#000000;fill-opacity:1;fill-rule:nonzero;stroke:none" d="M 4541.55 1386.5 C 4529.24 1386.49 4517.7 1382.89 4509.03 1376.37 C 4500.59 1370.01 4495.94 1361.61 4495.95 1352.74 C 4495.95 1334.14 4516.41 1319 4541.55 1318.98 C 4566.69 1319 4587.16 1334.15 4587.18 1352.77 C 4587.18 1371.37 4566.71 1386.5 4541.55 1386.5 Z M 4541.55 1313.98 L 4541.55 1313.98 C 4513.65 1314 4490.95 1331.39 4490.95 1352.74 C 4490.94 1363.23 4496.29 1373.04 4506.03 1380.36 C 4515.55 1387.53 4528.16 1391.49 4541.55 1391.5 C 4569.46 1391.5 4592.18 1374.12 4592.18 1352.77 C 4592.16 1331.4 4569.44 1314 4541.55 1313.98"/>
    <path id="path3316" style="fill:#bcc4cd;fill-opacity:1;fill-rule:nonzero;stroke:none" d="M 4506.37 1391.03 L 4506.36 1314.93 L 4553.62 1314.92 L 4553.62 1391.01 L 4506.37 1391.03"/>
    <path id="path3318" style="fill:#000000;fill-opacity:1;fill-rule:nonzero;stroke:none" d="M 4508.86 1317.43 L 4551.12 1317.42 L 4551.12 1388.51 L 4508.87 1388.53 L 4508.86 1317.43 Z M 4553.62 1312.42 L 4553.62 1312.42 L 4506.36 1312.43 C 4504.98 1312.43 4503.86 1313.55 4503.86 1314.93 L 4503.87 1391.03 C 4503.87 1391.69 4504.13 1392.33 4504.6 1392.8 C 4505.07 1393.27 4505.7 1393.53 4506.37 1393.53 L 4506.37 1393.53 L 4553.62 1393.51 C 4555 1393.51 4556.12 1392.39 4556.12 1391.01 L 4556.12 1314.92 C 4556.12 1314.25 4555.86 1313.62 4555.39 1313.15 C 4554.92 1312.68 4554.29 1312.42 4553.62 1312.42"/>
    <path id="path3320" style="fill:#8192a4;fill-opacity:1;fill-rule:nonzero;stroke:none" d="M 4518.43 1391.02 L 4518.43 1314.93 L 4541.57 1314.93 L 4541.55 1391.03 L 4518.43 1391.02"/>
    <path id="path3322" style="fill:#000000;fill-opacity:1;fill-rule:nonzero;stroke:none" d="M 4520.93 1317.43 L 4539.07 1317.43 L 4539.05 1388.53 L 4520.93 1388.52 L 4520.93 1317.43 Z M 4541.57 1312.43 L 4518.43 1312.43 C 4517.05 1312.43 4515.93 1313.55 4515.93 1314.93 L 4515.93 1391.02 C 4515.93 1392.4 4517.05 1393.52 4518.43 1393.52 L 4541.55 1393.53 C 4542.22 1393.53 4542.85 1393.27 4543.32 1392.8 C 4543.79 1392.33 4544.05 1391.69 4544.05 1391.03 L 4544.07 1314.93 C 4544.07 1314.26 4543.81 1313.63 4543.34 1313.16 C 4542.87 1312.69 4542.24 1312.43 4541.57 1312.43"/>
    <path id="path3324" style="fill:#c9a88b;fill-opacity:1;fill-rule:nonzero;stroke:none" d="M 4454.28 1390.99 C 4441.88 1390.99 4431.85 1380.93 4431.83 1368.55 L 4431.83 1338.86 C 4431.83 1326.48 4441.87 1316.43 4454.26 1316.46 L 4483.92 1316.46 C 4496.34 1316.44 4506.39 1326.5 4506.37 1338.86 L 4506.36 1368.55 C 4506.39 1380.94 4496.32 1390.97 4483.9 1390.97 L 4454.28 1390.99"/>
    <path id="path3326" style="fill:#000000;fill-opacity:1;fill-rule:nonzero;stroke:none" d="M 4454.28 1388.49 C 4443.29 1388.49 4434.35 1379.54 4434.33 1368.55 L 4434.33 1338.86 C 4434.33 1327.88 4443.24 1318.96 4454.2 1318.96 L 4454.2 1316.46 L 4454.25 1318.96 L 4483.92 1318.96 L 4483.92 1318.96 C 4489.29 1318.96 4494.3 1321.04 4498.06 1324.8 C 4501.82 1328.56 4503.88 1333.56 4503.87 1338.86 L 4503.86 1368.55 C 4503.87 1373.86 4501.82 1378.84 4498.07 1382.6 C 4494.29 1386.39 4489.26 1388.47 4483.9 1388.47 L 4454.28 1388.49 Z M 4454.2 1313.96 C 4440.49 1313.96 4429.33 1325.13 4429.33 1338.86 L 4429.33 1368.55 C 4429.35 1382.3 4440.54 1393.49 4454.28 1393.49 L 4483.9 1393.47 C 4490.6 1393.47 4496.88 1390.86 4501.6 1386.14 C 4506.3 1381.43 4508.88 1375.18 4508.86 1368.54 L 4508.87 1338.86 C 4508.88 1332.22 4506.3 1325.98 4501.6 1321.27 C 4496.89 1316.56 4490.63 1313.96 4483.96 1313.96 L 4454.2 1313.96"/>
    <path id="path3328" style="fill:#997755;fill-opacity:1;fill-rule:nonzero;stroke:none" d="M 4453.29 1166.89 L 4484.931 1166.89 L 4484.931 1817.589 L 4453.29 1817.589 L 4453.29 1166.89 Z"/>
    <path id="path3330" style="fill:#000000;fill-opacity:1;fill-rule:nonzero;stroke:none" d="M 4455.79 1169.39 L 4482.43 1169.39 L 4482.43 1815.09 L 4455.79 1815.09 L 4455.79 1169.39 Z M 4484.93 1164.39 L 4453.29 1164.39 C 4451.91 1164.39 4450.79 1165.51 4450.79 1166.89 L 4450.79 1817.59 C 4450.79 1818.97 4451.91 1820.09 4453.29 1820.09 L 4484.93 1820.09 C 4486.31 1820.09 4487.43 1818.97 4487.43 1817.59 L 4487.43 1166.89 C 4487.43 1165.51 4486.31 1164.39 4484.93 1164.39"/>
    <path id="path3332" style="fill:#bcc4cd;fill-opacity:1;fill-rule:nonzero;stroke:none" d="M 4469.07 2012.74 L 4397.02 1855.03 L 4469.07 1781.87 L 4541.2 1855.03 L 4469.07 2012.74"/>
    <path id="path3334" style="fill:#000000;fill-opacity:1;fill-rule:nonzero;stroke:none" d="M 4400.01 1855.56 L 4469.07 1785.43 L 4538.21 1855.56 L 4469.07 2006.72 L 4400.01 1855.56 Z M 4469.07 1779.37 L 4469.07 1779.37 C 4468.4 1779.37 4467.76 1779.64 4467.29 1780.11 L 4395.24 1853.27 C 4394.51 1854.02 4394.32 1855.13 4394.75 1856.07 L 4466.8 2013.77 C 4467.62 2015.57 4470.53 2015.57 4471.35 2013.77 L 4543.48 1856.07 C 4543.91 1855.13 4543.71 1854.02 4542.98 1853.27 L 4470.85 1780.11 C 4470.38 1779.63 4469.75 1779.37 4469.07 1779.37"/>
    <path id="path3336" style="fill:#8192a4;fill-opacity:1;fill-rule:nonzero;stroke:none" d="M 4469.07 2012.74 L 4469.07 1781.87 L 4541.2 1855.03 L 4469.07 2012.74"/>
    <path id="path3338" style="fill:#000000;fill-opacity:1;fill-rule:nonzero;stroke:none" d="M 4471.57 2001.26 L 4471.57 1787.96 L 4538.21 1855.56 L 4471.57 2001.26 Z M 4469.07 1779.37 C 4468.75 1779.37 4468.43 1779.43 4468.13 1779.55 C 4467.19 1779.94 4466.57 1780.85 4466.57 1781.87 L 4466.57 2012.74 C 4466.57 2013.91 4467.39 2014.93 4468.54 2015.18 C 4469.68 2015.43 4470.85 2014.85 4471.35 2013.77 L 4543.48 1856.07 C 4543.91 1855.13 4543.71 1854.02 4542.98 1853.27 L 4470.85 1780.11 C 4470.37 1779.62 4469.73 1779.37 4469.07 1779.37"/>
    <path id="path3340" style="fill:#8192a4;fill-opacity:1;fill-rule:nonzero;stroke:none" d="M 4493.43 1806.67 L 4444.7 1806.64 L 4444.7 1720.35 L 4493.45 1720.41 L 4493.43 1806.67"/>
    <path id="path3342" style="fill:#000000;fill-opacity:1;fill-rule:nonzero;stroke:none" d="M 4447.2 1804.14 L 4447.2 1722.85 L 4490.95 1722.91 L 4490.93 1804.17 L 4447.2 1804.14 Z M 4444.7 1717.85 C 4444.03 1717.85 4443.4 1718.12 4442.93 1718.59 C 4442.46 1719.06 4442.2 1719.69 4442.2 1720.35 L 4442.2 1806.64 C 4442.2 1808.02 4443.32 1809.14 4444.7 1809.14 L 4493.43 1809.17 L 4493.43 1809.17 C 4494.09 1809.17 4494.73 1808.91 4495.2 1808.44 C 4495.66 1807.97 4495.93 1807.34 4495.93 1806.67 L 4495.95 1720.41 C 4495.95 1719.04 4494.83 1717.91 4493.45 1717.91 L 4444.7 1717.85 L 4444.7 1717.85"/>
    <path id="path3344" style="fill:#bcc4cd;fill-opacity:1;fill-rule:nonzero;stroke:none" d="M 4479.89 1785.46 C 4479.89 1779.49 4475.07 1774.64 4469.07 1774.64 C 4463.08 1774.64 4458.25 1779.49 4458.25 1785.46 C 4458.25 1791.46 4463.08 1796.3 4469.07 1796.3 C 4475.07 1796.3 4479.89 1791.46 4479.89 1785.46"/>
    <path id="path3346" style="fill:#000000;fill-opacity:1;fill-rule:nonzero;stroke:none" d="M 4469.07 1793.8 C 4464.48 1793.8 4460.75 1790.06 4460.75 1785.46 C 4460.75 1780.87 4464.48 1777.14 4469.07 1777.14 C 4473.66 1777.14 4477.39 1780.87 4477.39 1785.46 C 4477.39 1790.06 4473.66 1793.8 4469.07 1793.8 Z M 4469.07 1772.14 C 4461.73 1772.14 4455.75 1778.12 4455.75 1785.46 C 4455.75 1792.82 4461.73 1798.8 4469.07 1798.8 C 4476.42 1798.8 4482.39 1792.82 4482.39 1785.46 C 4482.39 1778.12 4476.42 1772.14 4469.07 1772.14"/>
    <path id="path3348" style="fill:#bcc4cd;fill-opacity:1;fill-rule:nonzero;stroke:none" d="M 4479.93 1744.16 C 4479.93 1738.18 4475.08 1733.33 4469.09 1733.33 C 4463.12 1733.33 4458.26 1738.18 4458.26 1744.16 C 4458.26 1750.15 4463.12 1754.99 4469.09 1754.99 C 4475.08 1754.99 4479.93 1750.15 4479.93 1744.16"/>
    <path id="path3350" style="fill:#000000;fill-opacity:1;fill-rule:nonzero;stroke:none" d="M 4469.09 1752.49 C 4464.5 1752.49 4460.76 1748.75 4460.76 1744.16 C 4460.76 1739.57 4464.5 1735.83 4469.09 1735.83 C 4473.69 1735.83 4477.43 1739.57 4477.43 1744.16 C 4477.43 1748.75 4473.69 1752.49 4469.09 1752.49 Z M 4469.09 1730.83 C 4461.74 1730.83 4455.76 1736.81 4455.76 1744.16 C 4455.76 1751.52 4461.74 1757.49 4469.09 1757.49 C 4476.45 1757.49 4482.43 1751.52 4482.43 1744.16 C 4482.43 1736.81 4476.45 1730.83 4469.09 1730.83"/>
    <path id="path3352" style="fill:#f4d9bd;fill-opacity:1;fill-rule:nonzero;stroke:none" d="M 4491.4 1373.24 C 4499.66 1373.22 4506.37 1366.55 4506.36 1358.27 L 4506.37 1345.21 C 4506.37 1336.94 4499.66 1330.23 4491.4 1330.25 L 4491.4 1330.25 C 4483.13 1330.25 4476.42 1336.94 4476.44 1345.22 L 4476.42 1358.26 C 4476.44 1366.55 4483.13 1373.24 4491.4 1373.24 L 4491.4 1373.24"/>
    <path id="path3354" style="fill:#000000;fill-opacity:1;fill-rule:nonzero;stroke:none" d="M 4491.39 1370.74 C 4484.53 1370.74 4478.94 1365.13 4478.92 1358.25 L 4478.94 1345.22 C 4478.93 1341.89 4480.21 1338.76 4482.56 1336.41 C 4484.92 1334.05 4488.06 1332.75 4491.4 1332.75 L 4491.44 1332.75 C 4498.29 1332.75 4503.87 1338.33 4503.87 1345.21 L 4503.86 1358.27 C 4503.87 1365.13 4498.27 1370.72 4491.39 1370.74 Z M 4491.44 1327.75 C 4491.43 1327.75 4491.4 1327.75 4491.39 1327.75 C 4486.72 1327.75 4482.32 1329.57 4479.02 1332.87 C 4475.73 1336.18 4473.93 1340.56 4473.94 1345.23 L 4473.92 1358.26 C 4473.94 1367.89 4481.78 1375.74 4491.4 1375.74 C 4501.04 1375.72 4508.87 1367.87 4508.86 1358.27 L 4508.87 1345.21 C 4508.87 1335.58 4501.04 1327.75 4491.44 1327.75"/>
    <path id="path3356" style="fill:#d33605;fill-opacity:1;fill-rule:nonzero;stroke:none" d="M 4807.59 1444.13 C 4824.17 1445.42 4840.07 1449.1 4855.05 1454.68 C 4856.37 1455.19 4857.74 1455.59 4859.03 1456.15 C 4859.23 1456.21 4859.4 1456.31 4859.6 1456.39 C 4893.13 1470.67 4920.83 1496.01 4938.1 1527.84 C 4916.12 1505.01 4885.32 1490.77 4851.15 1490.77 L 4698.88 1490.77 C 4632.1 1490.77 4577.94 1544.93 4577.94 1611.71 C 4577.94 1611.71 4577.94 1628.63 4577.94 1649.52 C 4577.94 1670.4 4561.98 1687.33 4542.26 1687.33 L 4533.96 1687.33 C 4519.35 1663.08 4510.75 1634.78 4510.75 1604.39 C 4510.75 1515.58 4582.74 1443.58 4671.55 1443.58 L 4793.68 1443.58 C 4797.71 1443.58 4801.73 1443.76 4805.71 1444.04 C 4806.34 1444.08 4806.96 1444.09 4807.59 1444.13"/>
    <path id="path3358" style="fill:#000000;fill-opacity:1;fill-rule:nonzero;stroke:none" d="M 4535.38 1684.83 C 4520.9 1660.33 4513.25 1632.54 4513.25 1604.39 C 4513.25 1517.09 4584.27 1446.08 4671.55 1446.08 L 4793.68 1446.08 C 4797.66 1446.08 4801.61 1446.26 4805.54 1446.53 L 4807.39 1446.62 C 4823.24 1447.85 4838.97 1451.36 4854.18 1457.02 C 4854.72 1457.23 4855.28 1457.43 4855.86 1457.63 C 4856.59 1457.88 4857.33 1458.14 4858.05 1458.44 C 4858.07 1458.45 4858.65 1458.7 4858.67 1458.71 C 4886.11 1470.39 4909.82 1489.82 4926.81 1514.27 C 4905.27 1497.41 4878.96 1488.27 4851.15 1488.27 L 4698.88 1488.27 C 4630.81 1488.27 4575.44 1543.65 4575.44 1611.71 L 4575.44 1649.52 C 4575.44 1668.99 4560.56 1684.83 4542.26 1684.83 L 4535.38 1684.83 Z M 4793.68 1441.08 L 4671.55 1441.08 C 4581.5 1441.08 4508.25 1514.34 4508.25 1604.39 C 4508.25 1633.91 4516.41 1663.04 4531.83 1688.62 C 4532.28 1689.37 4533.09 1689.83 4533.96 1689.83 L 4542.26 1689.83 C 4563.31 1689.83 4580.44 1671.74 4580.44 1649.52 L 4580.44 1611.71 C 4580.44 1546.41 4633.57 1493.27 4698.88 1493.27 L 4851.15 1493.27 C 4883.53 1493.27 4913.76 1506.17 4936.3 1529.57 C 4937.16 1530.46 4938.57 1530.58 4939.57 1529.86 C 4940.59 1529.11 4940.89 1527.75 4940.29 1526.64 C 4922.72 1494.26 4894.41 1468.5 4860.58 1454.09 C 4860.53 1454.07 4859.91 1453.8 4859.86 1453.78 C 4859.2 1453.5 4858.35 1453.2 4857.49 1452.9 L 4855.95 1452.35 C 4840.28 1446.51 4824.09 1442.91 4807.78 1441.64 L 4805.87 1441.55 C 4801.33 1441.23 4797.33 1441.08 4793.68 1441.08"/>
    <path id="path3360" style="fill:#eb4900;fill-opacity:1;fill-rule:nonzero;stroke:none" d="M 4828.23 1496.53 C 4828.23 1486.04 4819.74 1477.54 4809.25 1477.54 L 4791.35 1477.54 C 4780.85 1477.54 4772.33 1486.04 4772.33 1496.53 L 4772.33 1496.53 C 4772.33 1507.02 4780.85 1515.52 4791.35 1515.52 L 4809.25 1515.52 C 4819.74 1515.52 4828.23 1507.02 4828.23 1496.53 L 4828.23 1496.53"/>
    <path id="path3362" style="fill:#000000;fill-opacity:1;fill-rule:nonzero;stroke:none" d="M 4791.35 1513.02 C 4782.25 1513.02 4774.83 1505.62 4774.83 1496.53 C 4774.83 1487.43 4782.25 1480.04 4791.35 1480.04 L 4809.25 1480.04 C 4818.34 1480.04 4825.73 1487.43 4825.73 1496.53 C 4825.73 1505.62 4818.34 1513.02 4809.25 1513.02 L 4791.35 1513.02 Z M 4809.25 1475.04 L 4791.35 1475.04 C 4779.48 1475.04 4769.83 1484.68 4769.83 1496.53 C 4769.83 1508.38 4779.48 1518.02 4791.35 1518.02 L 4809.25 1518.02 C 4821.09 1518.02 4830.73 1508.38 4830.73 1496.53 C 4830.73 1484.68 4821.09 1475.04 4809.25 1475.04"/>
    <path id="path3364" style="fill:#f2f1e7;fill-opacity:1;fill-rule:nonzero;stroke:none" d="M 4795.56 1457.22 C 4811.44 1457.22 4824.25 1470.05 4824.25 1485.91 L 4767.07 1485.91 C 4767.07 1470.05 4779.83 1457.22 4795.56 1457.22"/>
    <path id="path3366" style="fill:#000000;fill-opacity:1;fill-rule:nonzero;stroke:none" d="M 4769.69 1483.41 C 4770.94 1470.14 4782.06 1459.72 4795.56 1459.72 C 4809.16 1459.72 4820.37 1470.14 4821.63 1483.41 L 4769.69 1483.41 Z M 4795.56 1454.72 C 4778.47 1454.72 4764.57 1468.71 4764.57 1485.91 C 4764.57 1487.29 4765.69 1488.41 4767.07 1488.41 L 4824.25 1488.41 C 4825.63 1488.41 4826.75 1487.29 4826.75 1485.91 C 4826.75 1468.71 4812.75 1454.72 4795.56 1454.72"/>
    <path id="path3368" style="fill:#eb4900;fill-opacity:1;fill-rule:nonzero;stroke:none" d="M 4883.53 1423.76 C 4878 1429.29 4879.27 1434.72 4881.67 1437.14 C 4904.18 1459.61 4910.02 1490.38 4887.54 1512.86 C 4865.07 1535.35 4726.24 1535.35 4703.78 1512.86 C 4681.28 1490.38 4687.14 1459.61 4709.63 1437.14 C 4712.03 1434.72 4713.29 1429.29 4707.76 1423.76 C 4701.56 1417.53 4693.64 1421.14 4693.64 1421.14 C 4707.84 1406.95 4723.18 1415.08 4731.38 1423.29 C 4738.8 1430.7 4746 1445.12 4731.8 1459.31 C 4728 1463.12 4730.93 1472.26 4734.74 1476.05 C 4738.54 1479.86 4852.76 1479.86 4856.57 1476.05 C 4860.39 1472.26 4863.31 1463.12 4859.5 1459.31 C 4845.33 1445.12 4852.52 1430.7 4859.91 1423.29 C 4868.13 1415.08 4883.48 1406.95 4897.66 1421.14 C 4897.66 1421.14 4889.74 1417.53 4883.53 1423.76"/>
    <path id="path3370" style="fill:#000000;fill-opacity:1;fill-rule:nonzero;stroke:none" d="M 4795.65 1481.4 L 4795.65 1481.4 C 4834.87 1481.41 4855.96 1480.2 4858.34 1477.82 C 4861.48 1474.7 4863.78 1469.09 4863.78 1464.48 C 4863.79 1461.59 4862.92 1459.19 4861.27 1457.54 C 4846.42 1442.66 4857.83 1428.92 4861.68 1425.06 C 4864.43 1422.31 4871.81 1415.9 4880.78 1415.9 C 4883.66 1415.9 4886.46 1416.58 4889.16 1417.92 C 4886.38 1418.51 4883.86 1419.89 4881.76 1422 C 4874.89 1428.86 4876.88 1435.86 4879.89 1438.9 C 4890.83 1449.82 4897.62 1462.74 4898.99 1475.28 C 4900.46 1488.6 4895.89 1500.98 4885.77 1511.1 C 4876.13 1520.75 4839.91 1527.22 4795.65 1527.22 C 4751.4 1527.22 4715.19 1520.75 4705.55 1511.1 C 4695.43 1500.99 4690.85 1488.6 4692.31 1475.28 C 4693.69 1462.74 4700.47 1449.83 4711.4 1438.91 C 4714.41 1435.87 4716.4 1428.86 4709.53 1422 C 4707.44 1419.9 4704.92 1418.51 4702.15 1417.92 C 4704.84 1416.58 4707.65 1415.9 4710.53 1415.9 C 4719.5 1415.9 4726.86 1422.31 4729.61 1425.06 C 4731.96 1427.41 4737.43 1433.74 4737.43 1441.9 C 4737.43 1447.37 4734.94 1452.63 4730.03 1457.54 C 4728.39 1459.19 4727.52 1461.59 4727.52 1464.46 C 4727.53 1469.07 4729.82 1474.69 4732.97 1477.82 C 4735.35 1480.2 4756.44 1481.4 4795.65 1481.4 Z M 4880.78 1410.9 C 4869.94 1410.9 4861.34 1418.33 4858.14 1421.53 C 4848.94 1430.75 4843.31 1446.63 4857.73 1461.08 C 4858.6 1461.95 4858.79 1463.4 4858.78 1464.47 C 4858.78 1467.76 4857.03 1472.07 4854.81 1474.27 C 4852.61 1475.16 4830.86 1476.4 4795.65 1476.4 C 4760.45 1476.4 4738.7 1475.16 4736.12 1473.99 C 4734.55 1472.34 4732.53 1468.13 4732.52 1464.45 C 4732.52 1463.39 4732.71 1461.95 4733.56 1461.08 C 4739.45 1455.19 4742.44 1448.74 4742.43 1441.9 C 4742.43 1431.87 4735.94 1424.31 4733.14 1421.53 C 4729.96 1418.33 4721.38 1410.9 4710.53 1410.9 C 4703.77 1410.9 4697.5 1413.75 4691.88 1419.37 C 4691.02 1420.22 4690.9 1421.57 4691.59 1422.56 C 4692.29 1423.55 4693.59 1423.91 4694.68 1423.41 C 4694.69 1423.41 4696.54 1422.6 4698.99 1422.6 C 4701.7 1422.6 4704.06 1423.59 4706 1425.53 C 4710.62 1430.15 4709.23 1434 4707.85 1435.38 C 4696.13 1447.09 4688.85 1461.07 4687.34 1474.73 C 4685.71 1489.61 4690.78 1503.41 4702.01 1514.63 C 4714.98 1527.62 4760.57 1532.22 4795.65 1532.22 C 4830.74 1532.22 4876.33 1527.62 4889.31 1514.63 C 4900.53 1503.41 4905.6 1489.61 4903.96 1474.73 C 4902.46 1461.06 4895.17 1447.08 4883.44 1435.37 C 4882.07 1433.99 4880.68 1430.14 4885.29 1425.53 C 4887.24 1423.59 4889.59 1422.6 4892.3 1422.6 C 4894.75 1422.6 4896.61 1423.41 4896.63 1423.42 C 4897.72 1423.89 4899.03 1423.55 4899.72 1422.54 C 4900.39 1421.56 4900.27 1420.22 4899.42 1419.37 C 4893.81 1413.75 4887.54 1410.9 4880.78 1410.9"/>
    <path id="path3372" style="fill:#ffa364;fill-opacity:1;fill-rule:nonzero;stroke:none" d="M 4828.77 1555.43 L 4829.14 1557.02 C 4829.14 1580.08 4810.48 1598.75 4787.42 1598.75 L 4787.42 1568.7 C 4772.65 1568.7 4760.68 1556.73 4760.68 1541.98 C 4760.68 1527.23 4772.65 1515.27 4787.42 1515.27 L 4819.14 1515.27 C 4830.9 1515.27 4840.43 1524.79 4840.43 1536.55 C 4840.43 1544.82 4835.66 1551.91 4828.77 1555.43"/>
    <path id="path3374" style="fill:#000000;fill-opacity:1;fill-rule:nonzero;stroke:none" d="M 4789.92 1596.18 L 4789.92 1568.7 C 4789.92 1567.33 4788.8 1566.2 4787.42 1566.2 C 4774.05 1566.2 4763.18 1555.34 4763.18 1541.98 C 4763.18 1528.63 4774.05 1517.77 4787.42 1517.77 L 4819.14 1517.77 C 4829.5 1517.77 4837.93 1526.19 4837.93 1536.55 C 4837.93 1543.58 4833.98 1549.95 4827.63 1553.21 C 4826.61 1553.73 4826.07 1554.89 4826.34 1556 L 4826.71 1557.59 C 4826.64 1577.84 4810.39 1594.89 4789.92 1596.18 Z M 4819.14 1512.77 L 4787.42 1512.77 C 4771.3 1512.77 4758.18 1525.87 4758.18 1541.98 C 4758.18 1557.25 4769.97 1569.83 4784.92 1571.1 L 4784.92 1598.75 C 4784.92 1600.13 4786.04 1601.25 4787.42 1601.25 C 4811.81 1601.25 4831.64 1581.41 4831.64 1557.02 L 4831.58 1556.72 C 4838.62 1552.4 4842.93 1544.83 4842.93 1536.55 C 4842.93 1523.43 4832.26 1512.77 4819.14 1512.77"/>
    <path id="path3376" style="fill:#f4d9bd;fill-opacity:1;fill-rule:nonzero;stroke:none" d="M 4829.79 1535.83 C 4829.79 1529.36 4824.53 1524.1 4818.05 1524.1 C 4811.57 1524.1 4806.32 1529.36 4806.32 1535.83 C 4806.32 1542.32 4811.57 1547.57 4818.05 1547.57 C 4824.53 1547.57 4829.79 1542.32 4829.79 1535.83"/>
    <path id="path3378" style="fill:#f4d9bd;fill-opacity:1;fill-rule:nonzero;stroke:none" d="M 4475.22 1581.32 C 4475.22 1553.01 4498.17 1530.05 4526.49 1530.05 L 4526.49 1632.59 C 4498.17 1632.59 4475.22 1609.64 4475.22 1581.32"/>
    <path id="path3380" style="fill:#000000;fill-opacity:1;fill-rule:nonzero;stroke:none" d="M 4523.99 1630.03 C 4498.26 1628.72 4477.72 1607.38 4477.72 1581.32 C 4477.72 1555.27 4498.26 1533.92 4523.99 1532.61 L 4523.99 1630.03 Z M 4526.49 1527.55 C 4496.85 1527.55 4472.72 1551.67 4472.72 1581.32 C 4472.72 1610.97 4496.85 1635.09 4526.49 1635.09 C 4527.87 1635.09 4528.99 1633.97 4528.99 1632.59 L 4528.99 1530.05 C 4528.99 1528.68 4527.87 1527.55 4526.49 1527.55"/>
    <path id="path3382" style="fill:#ffac83;fill-opacity:1;fill-rule:nonzero;stroke:none" d="M 4497.2 1581.32 C 4497.2 1565.14 4510.3 1552.03 4526.49 1552.03 L 4526.49 1610.62 C 4510.3 1610.62 4497.2 1597.49 4497.2 1581.32"/>
    <path id="path3384" style="fill:#000000;fill-opacity:1;fill-rule:nonzero;stroke:none" d="M 4523.99 1608 C 4510.39 1606.74 4499.7 1595.26 4499.7 1581.32 C 4499.7 1567.4 4510.39 1555.91 4523.99 1554.65 L 4523.99 1608 Z M 4526.49 1549.53 C 4508.96 1549.53 4494.7 1563.79 4494.7 1581.32 C 4494.7 1598.85 4508.96 1613.12 4526.49 1613.12 C 4527.87 1613.12 4528.99 1612 4528.99 1610.62 L 4528.99 1552.03 C 4528.99 1550.66 4527.87 1549.53 4526.49 1549.53"/>
    <path id="path3386" style="fill:#d33605;fill-opacity:1;fill-rule:nonzero;stroke:none" d="M 4601.46 1748.11 C 4613.43 1748.11 4617.94 1755.36 4617.94 1760.58 C 4617.94 1809.27 4644.89 1848.9 4693.58 1848.9 C 4742.24 1848.9 4781.81 1809.35 4781.89 1760.71 C 4781.89 1760.67 4781.89 1760.64 4781.89 1760.58 C 4781.89 1740.31 4765.48 1723.9 4745.22 1723.9 C 4724.97 1723.9 4708.54 1740.31 4708.54 1760.58 C 4708.54 1768.82 4695.5 1775.54 4687.24 1775.54 C 4678.99 1775.54 4665.96 1768.82 4665.96 1760.58 C 4665.96 1729.87 4642.56 1722.04 4626.49 1722.04 C 4608.76 1722.04 4583.33 1729.87 4583.33 1760.58 C 4583.33 1760.58 4588 1748.11 4601.46 1748.11"/>
    <path id="path3388" style="fill:#000000;fill-opacity:1;fill-rule:nonzero;stroke:none" d="M 4586.73 1751.38 C 4591.88 1726.64 4617.92 1724.54 4626.49 1724.54 C 4635.17 1724.54 4663.46 1727.14 4663.46 1760.58 C 4663.46 1770.54 4677.88 1778.04 4687.24 1778.04 C 4696.6 1778.04 4711.04 1770.54 4711.04 1760.58 C 4711.04 1741.73 4726.38 1726.4 4745.22 1726.4 C 4764.06 1726.4 4779.39 1741.73 4779.39 1760.58 C 4779.31 1807.95 4740.81 1846.4 4693.58 1846.4 C 4643.06 1846.4 4620.44 1803.29 4620.44 1760.58 C 4620.44 1754.56 4615.38 1745.61 4601.46 1745.61 C 4594.72 1745.61 4589.95 1748.32 4586.73 1751.38 Z M 4626.49 1719.54 C 4604.41 1719.54 4580.83 1730.33 4580.83 1760.58 C 4580.83 1761.78 4581.69 1762.82 4582.88 1763.03 C 4584.04 1763.27 4585.24 1762.58 4585.66 1761.47 C 4585.84 1761.02 4589.95 1750.61 4601.46 1750.61 C 4612.52 1750.61 4615.44 1757.13 4615.44 1760.58 C 4615.44 1814.91 4646.85 1851.4 4693.58 1851.4 C 4743.56 1851.4 4784.31 1810.72 4784.39 1760.71 C 4784.39 1738.98 4766.83 1721.4 4745.22 1721.4 C 4723.62 1721.4 4706.04 1738.98 4706.04 1760.58 C 4706.04 1767.01 4694.31 1773.04 4687.24 1773.04 C 4680.18 1773.04 4668.46 1767.01 4668.46 1760.58 C 4668.46 1730.33 4646.78 1719.54 4626.49 1719.54"/>
    <path id="path3390" style="fill:#425059;fill-opacity:1;fill-rule:nonzero;stroke:none" d="M 4941.71 1685.4 L 4932.26 1707.77 L 4737.31 1625.37 C 4727.51 1640.12 4710.77 1649.86 4691.75 1649.86 C 4661.55 1649.86 4637.1 1625.38 4637.1 1595.21 C 4637.1 1591.19 4637.55 1587.31 4638.35 1583.56 L 4514.22 1531.09 L 4523.68 1508.72 L 4648.72 1561.58 C 4658.72 1548.79 4674.26 1540.54 4691.75 1540.54 C 4721.93 1540.54 4746.4 1565.01 4746.4 1595.21 C 4746.4 1597.72 4746.16 1600.19 4745.84 1602.61 L 4941.71 1685.4"/>
    <path id="path3392" style="fill:#000000;fill-opacity:1;fill-rule:nonzero;stroke:none" d="M 4517.5 1529.76 L 4525.01 1512 L 4647.74 1563.88 C 4648.8 1564.29 4649.99 1564.01 4650.69 1563.12 C 4660.67 1550.35 4675.63 1543.04 4691.75 1543.04 C 4720.5 1543.04 4743.9 1566.44 4743.9 1595.21 C 4743.9 1597.29 4743.73 1599.54 4743.36 1602.28 C 4743.21 1603.4 4743.83 1604.48 4744.86 1604.92 L 4938.44 1686.73 L 4930.93 1704.5 L 4738.29 1623.07 C 4737.18 1622.63 4735.91 1622.99 4735.23 1623.99 C 4725.51 1638.63 4709.25 1647.36 4691.75 1647.36 C 4663 1647.36 4639.6 1623.96 4639.6 1595.21 C 4639.6 1591.54 4640 1587.8 4640.79 1584.08 C 4641.04 1582.9 4640.43 1581.72 4639.33 1581.25 L 4517.5 1529.76 Z M 4523.68 1506.22 C 4522.71 1506.22 4521.79 1506.8 4521.38 1507.75 L 4511.91 1530.11 C 4511.66 1530.73 4511.65 1531.41 4511.9 1532.02 C 4512.15 1532.64 4512.64 1533.13 4513.24 1533.39 L 4635.51 1585.07 C 4634.9 1588.46 4634.6 1591.86 4634.6 1595.21 C 4634.6 1626.72 4660.23 1652.36 4691.75 1652.36 C 4710.23 1652.36 4727.45 1643.47 4738.21 1628.47 L 4931.28 1710.07 C 4932.58 1710.62 4934.03 1710 4934.56 1708.74 L 4944.01 1686.38 C 4944.27 1685.77 4944.28 1685.08 4944.02 1684.47 C 4943.78 1683.85 4943.29 1683.36 4942.69 1683.1 L 4748.54 1601.04 C 4748.79 1598.89 4748.9 1597.01 4748.9 1595.21 C 4748.9 1563.68 4723.26 1538.04 4691.75 1538.04 C 4674.73 1538.04 4658.88 1545.48 4647.96 1558.54 L 4524.66 1506.42 C 4524.34 1506.28 4524 1506.22 4523.68 1506.22"/>
    <path id="path3394" style="fill:#bcc4cd;fill-opacity:1;fill-rule:nonzero;stroke:none" d="M 5075.73 1346.42 C 5075.73 1275.33 5018.08 1217.66 4946.96 1217.66 C 4875.86 1217.66 4818.19 1275.33 4818.19 1346.42 C 4818.19 1417.56 4875.86 1475.19 4946.96 1475.19 C 5018.08 1475.19 5075.73 1417.56 5075.73 1346.42"/>
    <path id="path3396" style="fill:#000000;fill-opacity:1;fill-rule:nonzero;stroke:none" d="M 4946.96 1472.69 C 4877.33 1472.69 4820.69 1416.05 4820.69 1346.42 C 4820.69 1276.8 4877.33 1220.16 4946.96 1220.16 C 5016.59 1220.16 5073.23 1276.8 5073.23 1346.42 C 5073.23 1416.05 5016.59 1472.69 4946.96 1472.69 Z M 4946.96 1215.16 C 4874.58 1215.16 4815.69 1274.05 4815.69 1346.42 C 4815.69 1418.8 4874.58 1477.69 4946.96 1477.69 C 5019.35 1477.69 5078.23 1418.8 5078.23 1346.42 C 5078.23 1274.05 5019.35 1215.16 4946.96 1215.16"/>
    <path id="path3398" style="fill:#997755;fill-opacity:1;fill-rule:nonzero;stroke:none" d="M 5010.68 1282.65 C 4975.52 1247.47 4918.41 1247.47 4883.22 1282.67 C 4848.02 1317.88 4848.02 1374.95 4883.2 1410.15 C 4918.43 1445.36 4975.52 1445.36 5010.7 1410.17 C 5045.91 1374.98 5045.91 1317.88 5010.68 1282.65"/>
    <path id="path3400" style="fill:#000000;fill-opacity:1;fill-rule:nonzero;stroke:none" d="M 4946.97 1434.07 C 4923.55 1434.07 4901.53 1424.94 4884.97 1408.38 C 4850.81 1374.21 4850.82 1318.62 4884.99 1284.44 C 4901.53 1267.88 4923.54 1258.77 4946.97 1258.77 C 4970.38 1258.77 4992.38 1267.87 5008.92 1284.42 C 5025.48 1300.99 5034.6 1323.01 5034.6 1346.43 C 5034.61 1369.85 5025.49 1391.86 5008.94 1408.4 C 4992.39 1424.95 4970.39 1434.07 4946.97 1434.07 Z M 4946.97 1253.77 C 4922.22 1253.77 4898.95 1263.4 4881.46 1280.9 C 4845.34 1317.02 4845.33 1375.8 4881.44 1411.92 C 4898.95 1429.43 4922.23 1439.07 4946.97 1439.07 C 4971.73 1439.07 4994.98 1429.43 5012.47 1411.94 C 5029.97 1394.45 5039.61 1371.18 5039.6 1346.43 C 5039.6 1321.67 5029.96 1298.39 5012.45 1280.88 C 4994.97 1263.4 4971.72 1253.77 4946.97 1253.77"/>
    <path id="path3402" style="fill:#846244;fill-opacity:1;fill-rule:nonzero;stroke:none" d="M 4901.96 1268.68 C 4908.65 1264.82 4915.7 1261.92 4923 1259.92 L 5033.47 1370.38 C 5031.46 1377.67 5028.56 1384.72 5024.68 1391.4 L 4901.96 1268.68"/>
    <path id="path3404" style="fill:#000000;fill-opacity:1;fill-rule:nonzero;stroke:none" d="M 4906.08 1269.26 C 4911.2 1266.57 4916.63 1264.37 4922.27 1262.72 L 5030.66 1371.12 C 5028.99 1376.78 5026.8 1382.21 5024.1 1387.29 L 4906.08 1269.26 Z M 4923 1257.42 C 4922.77 1257.42 4922.56 1257.44 4922.33 1257.5 C 4914.72 1259.59 4907.44 1262.63 4900.71 1266.52 C 4900.04 1266.91 4899.59 1267.59 4899.48 1268.36 C 4899.38 1269.13 4899.65 1269.91 4900.2 1270.45 L 5022.91 1393.17 C 5023.46 1393.7 5024.27 1393.94 5025 1393.88 C 5025.77 1393.78 5026.45 1393.32 5026.84 1392.66 C 5030.71 1385.99 5033.76 1378.72 5035.88 1371.05 C 5036.11 1370.18 5035.87 1369.25 5035.23 1368.62 L 4924.77 1258.15 C 4924.29 1257.67 4923.65 1257.42 4923 1257.42"/>
    <path id="path3406" style="fill:#846244;fill-opacity:1;fill-rule:nonzero;stroke:none" d="M 4860.46 1322.47 C 4862.47 1315.17 4865.36 1308.14 4869.23 1301.42 L 4991.94 1424.13 C 4985.25 1428.02 4978.2 1430.91 4970.9 1432.93 L 4860.46 1322.47"/>
    <path id="path3408" style="fill:#000000;fill-opacity:1;fill-rule:nonzero;stroke:none" d="M 4863.26 1321.74 C 4864.91 1316.11 4867.11 1310.68 4869.81 1305.54 L 4987.83 1423.56 C 4982.74 1426.25 4977.3 1428.45 4971.63 1430.13 L 4863.26 1321.74 Z M 4869.23 1298.92 C 4869.12 1298.92 4869.01 1298.93 4868.9 1298.94 C 4868.13 1299.05 4867.45 1299.5 4867.06 1300.17 C 4863.17 1306.93 4860.15 1314.2 4858.05 1321.81 C 4857.81 1322.68 4858.06 1323.61 4858.69 1324.24 L 4969.13 1434.7 C 4969.79 1435.35 4970.72 1435.56 4971.56 1435.35 C 4979.25 1433.22 4986.52 1430.17 4993.2 1426.29 C 4993.87 1425.9 4994.33 1425.23 4994.42 1424.46 C 4994.52 1423.68 4994.26 1422.91 4993.71 1422.37 L 4871 1299.65 C 4870.53 1299.18 4869.88 1298.92 4869.23 1298.92"/>
  </g>
</svg>