<?xml version="1.0" encoding="utf-8"?>
<svg viewBox="690.9539794921875 137.80099487304688 74.60600280761719 99.9010009765625" width="74.60600280761719" height="99.9010009765625" xmlns="http://www.w3.org/2000/svg">
  <g transform="matrix(0.12500000186264515, 0, 0, -0.12500000186264515, 0, 526.1375122070312)">
    <path id="path20" style="fill:#ddd8bf;fill-opacity:1;fill-rule:nonzero;stroke:none" d="M 6068.81 2334.62 C 6068.81 2319.64 5957.51 2307.48 5820.21 2307.48 C 5682.91 2307.48 5571.59 2319.64 5571.59 2334.62 C 5571.59 2349.61 5682.91 2361.77 5820.21 2361.77 C 5957.51 2361.77 6068.81 2349.61 6068.81 2334.62"/>
    <path id="path874" style="fill:#ffb103;fill-opacity:1;fill-rule:nonzero;stroke:none" d="M 6004.6 2605.49 C 6025.1 2543.12 6062.85 2566.73 6071.92 2559.51 C 6088.49 2546.32 6058.72 2511.07 6039.74 2510.08 C 5935.93 2504.77 5946.25 2596.07 5935.93 2601.95 C 5935.93 2601.95 5988.16 2655.47 6004.6 2605.49"/>
    <path id="path876" style="fill:#000000;fill-opacity:1;fill-rule:nonzero;stroke:none" d="M 5939.41 2601.85 C 5941.18 2599.04 5942.26 2594.24 5943.77 2587.47 C 5949.86 2560.21 5961.52 2508.53 6039.61 2512.58 C 6051.38 2513.19 6068.65 2528.87 6073.21 2543.07 C 6075.28 2549.53 6074.33 2554.4 6070.36 2557.56 C 6069.2 2558.48 6066.6 2558.59 6064.76 2558.59 C 6063.33 2558.59 6061.78 2558.52 6060.1 2558.45 C 6058.09 2558.36 6055.93 2558.27 6053.64 2558.27 C 6036.81 2558.27 6015.75 2563.54 6002.23 2604.71 C 5997.88 2617.9 5990.9 2624.32 5980.86 2624.32 C 5964.49 2624.32 5945.17 2607.29 5939.41 2601.85 Z M 6031.22 2507.36 C 5956.57 2507.36 5944.63 2560.73 5938.89 2586.38 C 5937.64 2592 5936.06 2598.99 5934.69 2599.78 C 5934.01 2600.16 5933.56 2600.84 5933.45 2601.6 C 5933.34 2602.37 5933.59 2603.14 5934.14 2603.7 C 5935.16 2604.74 5959.39 2629.32 5980.86 2629.32 C 5993.15 2629.32 6001.94 2621.57 6006.97 2606.27 C 6019.5 2568.15 6038.5 2563.27 6053.64 2563.27 C 6055.85 2563.27 6057.94 2563.36 6059.88 2563.45 C 6061.63 2563.52 6063.27 2563.59 6064.76 2563.59 C 6067.75 2563.59 6071.12 2563.34 6073.48 2561.47 C 6079.07 2557.02 6080.66 2549.94 6077.98 2541.55 C 6072.8 2525.44 6053.57 2508.3 6039.86 2507.59 C 6036.89 2507.43 6034 2507.36 6031.22 2507.36"/>
    <path id="path878" style="fill:#c9a88b;fill-opacity:1;fill-rule:nonzero;stroke:none" d="M 6079.65 2563.9 C 6084.82 2552.76 6080.01 2539.54 6068.91 2534.37 L 6042.29 2521.92 C 6031.18 2516.78 6017.97 2521.59 6012.76 2532.7 L 6000.34 2559.31 C 5995.19 2570.43 5999.97 2583.64 6011.07 2588.85 L 6037.71 2601.27 C 6048.86 2606.42 6062.07 2601.61 6067.25 2590.5 L 6079.65 2563.9"/>
    <path id="path880" style="fill:#000000;fill-opacity:1;fill-rule:nonzero;stroke:none" d="M 6047.06 2600.84 C 6044.19 2600.84 6041.39 2600.22 6038.75 2599 L 6012.13 2586.58 C 6002.31 2581.98 5998.04 2570.22 6002.61 2560.36 L 6015.03 2533.76 C 6018.27 2526.83 6025.31 2522.36 6032.96 2522.36 C 6035.83 2522.36 6038.61 2522.98 6041.23 2524.19 L 6067.85 2536.63 C 6077.7 2541.22 6081.96 2552.98 6077.38 2562.85 L 6064.98 2589.44 C 6061.76 2596.37 6054.73 2600.84 6047.06 2600.84 Z M 6032.96 2517.36 C 6023.38 2517.36 6014.56 2522.97 6010.5 2531.64 L 5998.08 2558.26 C 5992.35 2570.6 5997.71 2585.34 6010.01 2591.11 L 6036.65 2603.54 C 6039.95 2605.07 6043.46 2605.84 6047.06 2605.84 C 6056.66 2605.84 6065.47 2600.23 6069.51 2591.55 L 6081.91 2564.96 C 6087.67 2552.59 6082.29 2537.85 6069.96 2532.1 L 6043.34 2519.66 C 6040.05 2518.13 6036.56 2517.36 6032.96 2517.36"/>
    <path id="path882" style="fill:#f4d9bd;fill-opacity:1;fill-rule:nonzero;stroke:none" d="M 6064.1 2597.21 C 6067.59 2589.78 6064.36 2580.99 6056.94 2577.52 L 6045.22 2572.06 C 6037.81 2568.59 6029.02 2571.81 6025.57 2579.24 L 6025.57 2579.24 C 6022.1 2586.62 6025.27 2595.45 6032.71 2598.92 L 6044.41 2604.37 C 6051.83 2607.83 6060.64 2604.6 6064.1 2597.21 L 6064.1 2597.21"/>
    <path id="path884" style="fill:#000000;fill-opacity:1;fill-rule:nonzero;stroke:none" d="M 6050.65 2603.26 C 6048.86 2603.26 6047.11 2602.87 6045.47 2602.1 L 6033.77 2596.65 C 6030.78 2595.26 6028.53 2592.79 6027.4 2589.7 C 6026.28 2586.61 6026.44 2583.27 6027.83 2580.3 C 6030.63 2574.31 6038.19 2571.51 6044.16 2574.32 L 6055.89 2579.78 C 6058.87 2581.18 6061.13 2583.65 6062.27 2586.74 C 6063.39 2589.82 6063.23 2593.16 6061.84 2596.14 C 6059.81 2600.47 6055.43 2603.26 6050.65 2603.26 Z M 6038.97 2568.16 C 6032.29 2568.16 6026.13 2572.09 6023.3 2578.18 C 6021.34 2582.36 6021.12 2587.05 6022.71 2591.4 C 6024.28 2595.75 6027.46 2599.23 6031.66 2601.18 L 6043.36 2606.63 C 6051.78 2610.57 6062.45 2606.62 6066.37 2598.27 C 6068.33 2594.08 6068.54 2589.37 6066.95 2585.02 C 6065.38 2580.69 6062.2 2577.22 6058.01 2575.25 L 6046.28 2569.79 C 6043.97 2568.71 6041.51 2568.16 6038.97 2568.16"/>
    <path id="path886" style="fill:#ffb103;fill-opacity:1;fill-rule:nonzero;stroke:none" d="M 6004.52 2638.66 C 6027.33 2615.83 6027.3 2578.82 6004.5 2556 C 5981.67 2533.18 5944.64 2533.16 5921.84 2555.99 C 5899 2578.82 5899 2615.86 5921.84 2638.68 C 5944.64 2661.51 5981.67 2661.51 6004.52 2638.66"/>
    <path id="path888" style="fill:#000000;fill-opacity:1;fill-rule:nonzero;stroke:none" d="M 5963.14 2653.3 C 5948.2 2653.3 5934.16 2647.48 5923.6 2636.91 C 5913.04 2626.35 5907.21 2612.29 5907.21 2597.34 C 5907.21 2582.39 5913.04 2568.33 5923.6 2557.76 C 5934.15 2547.2 5948.19 2541.38 5963.14 2541.38 C 5978.1 2541.38 5992.16 2547.2 6002.73 2557.77 C 6024.54 2579.59 6024.55 2615.09 6002.75 2636.89 C 5992.17 2647.47 5978.11 2653.3 5963.14 2653.3 Z M 5963.14 2536.38 C 5946.86 2536.38 5931.56 2542.71 5920.07 2554.22 C 5908.55 2565.74 5902.21 2581.05 5902.21 2597.34 C 5902.21 2613.63 5908.55 2628.94 5920.07 2640.45 C 5931.56 2651.96 5946.87 2658.3 5963.14 2658.3 C 5979.44 2658.3 5994.77 2651.95 6006.29 2640.42 C 6030.03 2616.67 6030.02 2578.01 6006.27 2554.23 C 5994.75 2542.72 5979.43 2536.38 5963.14 2536.38"/>
    <path id="path890" style="fill:#2a5b6a;fill-opacity:1;fill-rule:nonzero;stroke:none" d="M 5947.97 2582.14 C 5932.24 2597.89 5920.66 2613.99 5914.99 2626.56 C 5909.4 2609.72 5916.35 2586.53 5934.37 2568.52 C 5952.39 2550.52 5975.56 2543.58 5992.41 2549.13 C 5979.84 2554.8 5963.72 2566.39 5947.97 2582.14"/>
    <path id="path892" style="fill:#000000;fill-opacity:1;fill-rule:nonzero;stroke:none" d="M 5915.9 2619.2 C 5913.96 2603.68 5921.56 2584.85 5936.13 2570.29 C 5948.99 2557.44 5965.47 2549.77 5980.2 2549.77 L 5980.2 2549.77 C 5981.85 2549.77 5983.46 2549.86 5985.02 2550.05 C 5972.9 2556.74 5959.1 2567.48 5946.2 2580.37 C 5933.31 2593.28 5922.57 2607.08 5915.9 2619.2 Z M 5980.2 2544.77 L 5980.2 2544.77 C 5964.17 2544.77 5946.38 2552.99 5932.6 2566.76 C 5914.59 2584.75 5906.56 2609.1 5912.62 2627.35 C 5912.94 2628.32 5913.83 2629 5914.86 2629.06 C 5915.97 2629.19 5916.86 2628.52 5917.27 2627.59 C 5923.12 2614.64 5934.95 2598.72 5949.74 2583.9 C 5964.54 2569.1 5980.47 2557.26 5993.44 2551.41 C 5994.38 2550.99 5994.96 2550.03 5994.91 2549 C 5994.85 2547.97 5994.17 2547.08 5993.19 2546.76 C 5989.18 2545.44 5984.8 2544.77 5980.2 2544.77"/>
    <path id="path894" style="fill:#2a5b6a;fill-opacity:1;fill-rule:nonzero;stroke:none" d="M 5933.96 2645.52 C 5946.51 2639.86 5962.61 2628.28 5978.37 2612.52 C 5994.12 2596.78 6005.69 2580.68 6011.37 2568.1 C 6016.9 2584.95 6009.99 2608.14 5991.99 2626.12 C 5973.97 2644.14 5950.8 2651.08 5933.96 2645.52"/>
    <path id="path896" style="fill:#000000;fill-opacity:1;fill-rule:nonzero;stroke:none" d="M 5941.34 2644.6 C 5953.44 2637.93 5967.23 2627.19 5980.14 2614.29 C 5993.03 2601.4 6003.76 2587.62 6010.45 2575.49 C 6012.34 2591.03 6004.76 2609.84 5990.22 2624.35 C 5975.93 2638.66 5956.91 2646.53 5941.34 2644.6 Z M 6011.37 2565.6 C 6010.39 2565.6 6009.49 2566.18 6009.09 2567.07 C 6003.23 2580.05 5991.4 2595.97 5976.6 2610.75 C 5961.78 2625.57 5945.86 2637.41 5932.93 2643.24 C 5931.99 2643.67 5931.41 2644.62 5931.46 2645.65 C 5931.51 2646.68 5932.2 2647.57 5933.17 2647.89 C 5937.19 2649.22 5941.56 2649.89 5946.17 2649.89 C 5962.2 2649.89 5979.98 2641.67 5993.76 2627.89 C 6011.72 2609.94 6019.75 2585.6 6013.74 2567.32 C 6013.42 2566.35 6012.53 2565.66 6011.5 2565.61 C 6011.46 2565.6 6011.41 2565.6 6011.37 2565.6"/>
    <path id="path898" style="fill:#2a5b6a;fill-opacity:1;fill-rule:nonzero;stroke:none" d="M 5742.41 2342.97 L 5709.04 2342.97 L 5709.04 2433.99 L 5775.77 2433.99 L 5742.41 2342.97"/>
    <path id="path900" style="fill:#000000;fill-opacity:1;fill-rule:nonzero;stroke:none" d="M 5711.54 2345.47 L 5740.66 2345.47 L 5772.2 2431.49 L 5711.54 2431.49 L 5711.54 2345.47 Z M 5742.41 2340.47 L 5709.04 2340.47 C 5707.67 2340.47 5706.54 2341.59 5706.54 2342.97 L 5706.54 2433.99 C 5706.54 2435.37 5707.67 2436.49 5709.04 2436.49 L 5775.77 2436.49 C 5776.59 2436.49 5777.35 2436.09 5777.82 2435.42 C 5778.29 2434.75 5778.4 2433.9 5778.12 2433.13 L 5744.76 2342.11 C 5744.39 2341.12 5743.46 2340.47 5742.41 2340.47"/>
    <path id="path902" style="fill:#2a5b6a;fill-opacity:1;fill-rule:nonzero;stroke:none" d="M 5915.1 2342.97 L 5948.52 2342.97 L 5948.52 2433.99 L 5881.74 2433.99 L 5915.1 2342.97"/>
    <path id="path904" style="fill:#000000;fill-opacity:1;fill-rule:nonzero;stroke:none" d="M 5916.85 2345.47 L 5946.02 2345.47 L 5946.02 2431.49 L 5885.31 2431.49 L 5916.85 2345.47 Z M 5948.52 2340.47 L 5915.1 2340.47 C 5914.05 2340.47 5913.12 2341.12 5912.75 2342.11 L 5879.39 2433.13 C 5879.11 2433.9 5879.22 2434.75 5879.69 2435.42 C 5880.16 2436.09 5880.92 2436.49 5881.74 2436.49 L 5948.52 2436.49 C 5949.89 2436.49 5951.02 2435.37 5951.02 2433.99 L 5951.02 2342.97 C 5951.02 2341.59 5949.89 2340.47 5948.52 2340.47"/>
    <path id="path906" style="fill:#d341a5;fill-opacity:1;fill-rule:nonzero;stroke:none" d="M 5713.78 2627.29 C 5697.47 2598.57 5687.77 2563.53 5687.77 2525.64 C 5687.77 2487.74 5692.74 2452.71 5709.04 2423.97 C 5741.55 2409.57 5785.89 2401.03 5828.77 2401.03 C 5871.67 2401.03 5916.01 2409.57 5948.52 2423.97 C 5964.79 2452.71 5969.74 2487.73 5969.74 2525.64 C 5969.74 2563.53 5960.03 2598.57 5943.73 2627.3 C 5911.22 2641.71 5871.62 2650.25 5828.77 2650.25 C 5785.89 2650.25 5746.28 2641.71 5713.78 2627.29"/>
    <path id="path908" style="fill:#000000;fill-opacity:1;fill-rule:nonzero;stroke:none" d="M 5710.81 2425.92 C 5742.88 2411.89 5786.89 2403.53 5828.77 2403.53 C 5870.65 2403.53 5914.68 2411.89 5946.75 2425.92 C 5960.72 2450.98 5967.24 2482.7 5967.24 2525.64 C 5967.24 2561.43 5958.5 2595.89 5941.96 2625.35 C 5908.55 2640.01 5869.44 2647.75 5828.77 2647.75 C 5788.06 2647.75 5748.93 2640 5715.55 2625.34 C 5699.01 2595.91 5690.27 2561.45 5690.27 2525.64 C 5690.27 2482.73 5696.81 2451.01 5710.81 2425.92 Z M 5828.77 2398.53 C 5785.91 2398.53 5740.77 2407.19 5708.03 2421.68 C 5707.54 2421.9 5707.13 2422.27 5706.87 2422.73 C 5692.14 2448.72 5685.27 2481.42 5685.27 2525.64 C 5685.27 2562.61 5694.38 2598.19 5711.6 2628.52 C 5711.87 2628.99 5712.28 2629.36 5712.76 2629.57 C 5746.94 2644.74 5787.06 2652.75 5828.77 2652.75 C 5870.44 2652.75 5910.55 2644.74 5944.75 2629.59 C 5945.23 2629.37 5945.64 2629 5945.91 2628.54 C 5963.13 2598.17 5972.24 2562.59 5972.24 2525.64 C 5972.24 2481.39 5965.39 2448.69 5950.69 2422.74 C 5950.43 2422.27 5950.02 2421.9 5949.53 2421.68 C 5916.79 2407.19 5871.65 2398.53 5828.77 2398.53"/>
    <path id="path910" style="fill:#af238b;fill-opacity:1;fill-rule:nonzero;stroke:none" d="M 5713.78 2627.29 C 5712.54 2625.1 5711.41 2622.81 5710.24 2620.54 C 5737.22 2599.55 5771.04 2586.93 5807.86 2586.93 L 5881.7 2586.93 C 5908.01 2586.93 5932.76 2593.42 5954.63 2604.71 C 5951.44 2612.6 5947.79 2620.14 5943.73 2627.3 C 5911.22 2641.71 5871.62 2650.25 5828.77 2650.25 C 5785.89 2650.25 5746.28 2641.71 5713.78 2627.29"/>
    <path id="path912" style="fill:#000000;fill-opacity:1;fill-rule:nonzero;stroke:none" d="M 5710.81 2425.92 C 5742.88 2411.89 5786.89 2403.53 5828.77 2403.53 C 5870.65 2403.53 5914.68 2411.89 5946.75 2425.92 C 5960.72 2450.98 5967.24 2482.7 5967.24 2525.64 C 5967.24 2561.43 5958.5 2595.89 5941.96 2625.35 C 5908.55 2640.01 5869.44 2647.75 5828.77 2647.75 C 5788.06 2647.75 5748.93 2640 5715.55 2625.34 C 5699.01 2595.91 5690.27 2561.45 5690.27 2525.64 C 5690.27 2482.73 5696.81 2451.01 5710.81 2425.92 Z M 5828.77 2398.53 C 5785.91 2398.53 5740.77 2407.19 5708.03 2421.68 C 5707.54 2421.9 5707.13 2422.27 5706.87 2422.73 C 5692.14 2448.72 5685.27 2481.42 5685.27 2525.64 C 5685.27 2562.61 5694.38 2598.19 5711.6 2628.52 C 5711.87 2628.99 5712.28 2629.36 5712.76 2629.57 C 5746.94 2644.74 5787.06 2652.75 5828.77 2652.75 C 5870.44 2652.75 5910.55 2644.74 5944.75 2629.59 C 5945.23 2629.37 5945.64 2629 5945.91 2628.54 C 5963.13 2598.17 5972.24 2562.59 5972.24 2525.64 C 5972.24 2481.39 5965.39 2448.69 5950.69 2422.74 C 5950.43 2422.27 5950.02 2421.9 5949.53 2421.68 C 5916.79 2407.19 5871.65 2398.53 5828.77 2398.53"/>
    <path id="path914" style="fill:#f4d9bd;fill-opacity:1;fill-rule:nonzero;stroke:none" d="M 6040.94 2776.15 C 6040.94 2688.22 5969.67 2616.93 5881.7 2616.93 L 5807.86 2616.93 C 5719.92 2616.93 5648.62 2688.22 5648.62 2776.15 L 5648.62 2776.15 C 5648.62 2864.09 5719.92 2935.39 5807.86 2935.39 L 5881.7 2935.39 C 5969.67 2935.39 6040.94 2864.09 6040.94 2776.15 L 6040.94 2776.15"/>
    <path id="path916" style="fill:#000000;fill-opacity:1;fill-rule:nonzero;stroke:none" d="M 5807.86 2932.89 C 5721.44 2932.89 5651.12 2862.58 5651.12 2776.15 C 5651.12 2689.73 5721.44 2619.43 5807.86 2619.43 L 5881.7 2619.43 C 5968.13 2619.43 6038.44 2689.73 6038.44 2776.15 C 6038.44 2862.58 5968.13 2932.89 5881.7 2932.89 L 5807.86 2932.89 Z M 5881.7 2614.43 L 5807.86 2614.43 C 5718.68 2614.43 5646.12 2686.98 5646.12 2776.15 C 5646.12 2865.33 5718.68 2937.89 5807.86 2937.89 L 5881.7 2937.89 C 5970.88 2937.89 6043.44 2865.33 6043.44 2776.15 C 6043.44 2686.98 5970.88 2614.43 5881.7 2614.43"/>
    <path id="path918" style="fill:#ffa364;fill-opacity:1;fill-rule:nonzero;stroke:none" d="M 5923.52 2718.41 L 5923.8 2719.61 C 5923.8 2736.98 5909.74 2751.05 5892.35 2751.05 L 5892.35 2728.41 C 5881.22 2728.41 5872.21 2719.39 5872.21 2708.27 C 5872.21 2697.15 5881.22 2688.14 5892.35 2688.14 L 5916.26 2688.14 C 5925.12 2688.14 5932.3 2695.32 5932.3 2704.17 C 5932.3 2710.41 5928.71 2715.75 5923.52 2718.41"/>
    <path id="path920" style="fill:#000000;fill-opacity:1;fill-rule:nonzero;stroke:none" d="M 5894.85 2748.45 L 5894.85 2728.41 C 5894.85 2727.02 5893.73 2725.91 5892.35 2725.91 C 5882.63 2725.91 5874.71 2717.99 5874.71 2708.27 C 5874.71 2698.54 5882.63 2690.64 5892.35 2690.64 L 5916.26 2690.64 C 5923.73 2690.64 5929.8 2696.71 5929.8 2704.17 C 5929.8 2709.24 5926.96 2713.84 5922.37 2716.18 C 5921.36 2716.7 5920.82 2717.86 5921.08 2718.98 L 5921.37 2720.18 C 5921.3 2734.76 5909.65 2747.18 5894.85 2748.45 Z M 5916.26 2685.64 L 5892.35 2685.64 C 5879.86 2685.64 5869.71 2695.79 5869.71 2708.27 C 5869.71 2719.91 5878.54 2729.52 5889.85 2730.77 L 5889.85 2751.05 C 5889.85 2752.43 5890.98 2753.55 5892.35 2753.55 C 5911.04 2753.55 5926.26 2738.37 5926.3 2719.69 C 5931.59 2716.28 5934.8 2710.49 5934.8 2704.17 C 5934.8 2693.95 5926.48 2685.64 5916.26 2685.64"/>
    <path id="path922" style="fill:#f4d9bd;fill-opacity:1;fill-rule:nonzero;stroke:none" d="M 5924.29 2703.64 C 5924.29 2698.76 5920.32 2694.8 5915.44 2694.8 C 5910.56 2694.8 5906.6 2698.76 5906.6 2703.64 C 5906.6 2708.52 5910.56 2712.48 5915.44 2712.48 C 5920.32 2712.48 5924.29 2708.52 5924.29 2703.64"/>
    <path id="path924" style="fill:#2a5b6a;fill-opacity:1;fill-rule:nonzero;stroke:none" d="M 5780.53 2773.55 C 5766.17 2773.55 5754.58 2761.91 5754.58 2747.58 L 5806.3 2747.58 C 5806.3 2761.91 5794.76 2773.55 5780.53 2773.55"/>
    <path id="path926" style="fill:#000000;fill-opacity:1;fill-rule:nonzero;stroke:none" d="M 5757.22 2750.08 L 5803.67 2750.08 C 5802.42 2761.85 5792.52 2771.05 5780.53 2771.05 C 5768.44 2771.05 5758.47 2761.85 5757.22 2750.08 Z M 5806.3 2745.08 L 5754.58 2745.08 C 5753.2 2745.08 5752.08 2746.2 5752.08 2747.58 C 5752.08 2763.28 5764.84 2776.05 5780.53 2776.05 C 5796.11 2776.05 5808.8 2763.28 5808.8 2747.58 C 5808.8 2746.2 5807.68 2745.08 5806.3 2745.08"/>
    <path id="path928" style="fill:#f2f1e7;fill-opacity:1;fill-rule:nonzero;stroke:none" d="M 5871.52 2650.25 C 5885.88 2650.25 5897.47 2661.87 5897.47 2676.2 L 5845.73 2676.2 C 5845.73 2661.87 5857.29 2650.25 5871.52 2650.25"/>
    <path id="path930" style="fill:#000000;fill-opacity:1;fill-rule:nonzero;stroke:none" d="M 5848.36 2673.7 C 5849.61 2661.94 5859.52 2652.75 5871.52 2652.75 C 5883.6 2652.75 5893.58 2661.94 5894.83 2673.7 L 5848.36 2673.7 Z M 5871.52 2647.75 C 5855.93 2647.75 5843.23 2660.52 5843.23 2676.2 C 5843.23 2677.59 5844.36 2678.7 5845.73 2678.7 L 5897.47 2678.7 C 5898.85 2678.7 5899.97 2677.59 5899.97 2676.2 C 5899.97 2660.52 5887.21 2647.75 5871.52 2647.75"/>
    <path id="path932" style="fill:#2a5b6a;fill-opacity:1;fill-rule:nonzero;stroke:none" d="M 5999.27 2773.55 C 5984.92 2773.55 5973.37 2761.91 5973.37 2747.58 L 6025.1 2747.58 C 6025.1 2761.91 6013.53 2773.55 5999.27 2773.55"/>
    <path id="path934" style="fill:#000000;fill-opacity:1;fill-rule:nonzero;stroke:none" d="M 5976.01 2750.08 L 6022.47 2750.08 C 6021.22 2761.85 6011.29 2771.05 5999.27 2771.05 C 5987.21 2771.05 5977.25 2761.85 5976.01 2750.08 Z M 6025.1 2745.08 L 5973.37 2745.08 C 5971.99 2745.08 5970.87 2746.2 5970.87 2747.58 C 5970.87 2763.28 5983.61 2776.05 5999.27 2776.05 C 6014.89 2776.05 6027.6 2763.28 6027.6 2747.58 C 6027.6 2746.2 6026.47 2745.08 6025.1 2745.08"/>
    <path id="path936" style="fill:#0c3841;fill-opacity:1;fill-rule:nonzero;stroke:none" d="M 5831.6 2792.8 L 5729.31 2778.52 L 5729.31 2806.97 L 5831.6 2839.07 L 5831.6 2792.8"/>
    <path id="path938" style="fill:#000000;fill-opacity:1;fill-rule:nonzero;stroke:none" d="M 5731.81 2805.13 L 5731.81 2781.39 L 5829.1 2794.98 L 5829.1 2835.66 L 5731.81 2805.13 Z M 5729.31 2776.02 C 5728.71 2776.02 5728.13 2776.24 5727.67 2776.64 C 5727.12 2777.11 5726.81 2777.8 5726.81 2778.52 L 5726.81 2806.97 C 5726.81 2808.06 5727.52 2809.03 5728.55 2809.35 L 5830.85 2841.45 C 5831.59 2841.69 5832.43 2841.56 5833.09 2841.08 C 5833.72 2840.61 5834.1 2839.86 5834.1 2839.07 L 5834.1 2792.8 C 5834.1 2791.56 5833.18 2790.5 5831.94 2790.33 L 5729.65 2776.05 C 5729.54 2776.03 5729.42 2776.02 5729.31 2776.02"/>
    <path id="path940" style="fill:#0c3841;fill-opacity:1;fill-rule:nonzero;stroke:none" d="M 5957.93 2792.78 L 6040.54 2778.52 L 6040.54 2807.06 L 5957.93 2839.05 L 5957.93 2792.78"/>
    <path id="path942" style="fill:#000000;fill-opacity:1;fill-rule:nonzero;stroke:none" d="M 5960.43 2794.89 L 6038.04 2781.49 L 6038.04 2805.35 L 5960.43 2835.4 L 5960.43 2794.89 Z M 6040.54 2776.02 C 6040.4 2776.02 6040.25 2776.03 6040.11 2776.06 L 5957.5 2790.32 C 5956.31 2790.53 5955.43 2791.57 5955.43 2792.78 L 5955.43 2839.05 C 5955.43 2839.87 5955.84 2840.64 5956.51 2841.11 C 5957.21 2841.58 5958.09 2841.69 5958.83 2841.38 L 6041.44 2809.39 C 6042.4 2809.02 6043.04 2808.09 6043.04 2807.06 L 6043.04 2778.52 C 6043.04 2777.79 6042.71 2777.09 6042.15 2776.61 C 6041.69 2776.23 6041.12 2776.02 6040.54 2776.02"/>
    <path id="path944" style="fill:#0c3841;fill-opacity:1;fill-rule:nonzero;stroke:none" d="M 5633.52 2923.23 C 5633.52 2923.23 5625.04 2751.35 5645.14 2702.05 C 5660.9 2663.24 5708.3 2640.04 5708.3 2640.04 C 5708.3 2695.71 5687.19 2815.05 5738.49 2854.07 C 5783.27 2888.13 5872.23 2882.13 5893.4 2854.07 C 5898.03 2847.84 5900.36 2823.67 5900.36 2823.67 C 5900.36 2823.67 6079.22 2899.73 6046.97 2943.04 C 5976.94 3036.98 5633.52 2923.23 5633.52 2923.23"/>
    <path id="path946" style="fill:#000000;fill-opacity:1;fill-rule:nonzero;stroke:none" d="M 5635.94 2921.39 C 5635.13 2903.28 5628.86 2748.6 5647.45 2702.99 C 5660.17 2671.7 5694.49 2650.51 5705.76 2644.23 C 5705.59 2654.68 5704.8 2667.22 5703.98 2680.39 C 5700.2 2741.06 5695.01 2824.14 5736.97 2856.06 C 5756.91 2871.22 5787.31 2879.92 5820.39 2879.92 C 5854.79 2879.92 5884.24 2870.36 5895.39 2855.57 C 5899.37 2850.22 5901.63 2834.49 5902.48 2827.31 C 5922.88 2836.3 6037.26 2888.2 6047.65 2926.59 C 6049.16 2932.2 6048.29 2937.09 6044.97 2941.55 C 6027.08 2965.54 5988.71 2977.71 5930.93 2977.71 C 5813.84 2977.71 5653.82 2927.16 5635.94 2921.39 Z M 5708.3 2637.54 C 5707.93 2637.54 5707.55 2637.63 5707.2 2637.8 C 5705.23 2638.76 5658.76 2661.86 5642.82 2701.11 C 5622.74 2750.35 5630.67 2916.31 5631.02 2923.35 C 5631.07 2924.38 5631.75 2925.28 5632.73 2925.6 C 5634.45 2926.17 5806.58 2982.71 5930.93 2982.71 C 5990.37 2982.71 6030.1 2969.86 6048.97 2944.53 C 6053.21 2938.85 6054.39 2932.37 6052.47 2925.28 C 6040.49 2880.99 5907.01 2823.78 5901.34 2821.37 C 5900.61 2821.06 5899.77 2821.11 5899.08 2821.52 C 5898.4 2821.92 5897.95 2822.63 5897.87 2823.43 C 5897.25 2829.95 5894.84 2847.92 5891.4 2852.58 C 5881.32 2865.93 5852.77 2874.92 5820.39 2874.92 C 5788.39 2874.92 5759.08 2866.59 5740 2852.07 C 5700.17 2821.78 5705.25 2740.24 5708.97 2680.71 C 5709.89 2665.98 5710.76 2652.06 5710.8 2640.83 C 5710.88 2640.58 5710.93 2640.32 5710.93 2640.04 C 5710.93 2638.64 5710.05 2637.63 5708.36 2637.54 C 5708.34 2637.54 5708.32 2637.54 5708.3 2637.54"/>
    <path id="path948" style="fill:#eb4399;fill-opacity:1;fill-rule:nonzero;stroke:none" d="M 6095.52 3036.11 C 6096.08 2998.23 6065.63 2967.03 6027.93 2963.51 C 5893.86 2951.28 5763.24 2914.07 5642.84 2853.74 C 5608.94 2836.82 5566.65 2847.33 5547.13 2879.82 L 5547.13 2879.82 C 5527.63 2912.21 5542.34 2956.8 5581.43 2976.34 C 5717.11 3044.31 5864.37 3086.32 6015.5 3100.07 C 6058.98 3104.04 6095.02 3073.94 6095.52 3036.11 L 6095.52 3036.11"/>
    <path id="path950" style="fill:#000000;fill-opacity:1;fill-rule:nonzero;stroke:none" d="M 6023.2 3097.92 C 6020.74 3097.92 6018.24 3097.81 6015.72 3097.58 C 5864.35 3083.8 5718.6 3042.26 5582.55 2974.1 C 5563.39 2964.52 5549.2 2948 5543.61 2928.76 C 5538.78 2912.12 5540.79 2895.19 5549.27 2881.11 C 5561.64 2860.53 5583.93 2848.25 5608.9 2848.25 C 5620.23 2848.25 5631.59 2850.92 5641.73 2855.98 C 5762.87 2916.67 5892.72 2953.69 6027.71 2966 C 6064.86 2969.47 6093.55 3000.25 6093.02 3036.07 C 6092.56 3070.76 6061.89 3097.92 6023.2 3097.92 Z M 5608.9 2843.25 C 5582.16 2843.25 5558.26 2856.44 5544.99 2878.53 C 5535.78 2893.82 5533.58 2912.16 5538.81 2930.15 C 5544.79 2950.73 5559.91 2968.37 5580.31 2978.57 C 5716.92 3047.01 5863.26 3088.73 6015.27 3102.56 C 6060.13 3106.69 6097.5 3075.95 6098.02 3036.14 C 6098.59 2997.73 6067.91 2964.73 6028.16 2961.02 C 5893.81 2948.77 5764.55 2911.92 5643.96 2851.51 C 5633.13 2846.1 5621.01 2843.25 5608.9 2843.25"/>
    <path id="path952" style="fill:#b72792;fill-opacity:1;fill-rule:nonzero;stroke:none" d="M 5652.85 3009.27 C 5643.57 3005.35 5634.35 3001.29 5625.14 2997.15 C 5643.96 2955.51 5662.73 2913.87 5681.61 2872.22 C 5689.76 2875.91 5698 2879.47 5706.21 2883 C 5688.43 2925.06 5670.62 2967.17 5652.85 3009.27"/>
    <path id="path954" style="fill:#000000;fill-opacity:1;fill-rule:nonzero;stroke:none" d="M 5628.45 2995.9 L 5647.14 2954.52 C 5659.03 2928.19 5670.93 2901.86 5682.86 2875.53 C 5689.52 2878.52 5696.23 2881.43 5702.94 2884.31 L 5696.8 2898.85 C 5681.7 2934.55 5666.59 2970.27 5651.52 3005.99 C 5643.8 3002.71 5636.11 2999.33 5628.45 2995.9 Z M 5681.61 2869.72 C 5681.31 2869.72 5681.02 2869.77 5680.73 2869.88 C 5680.11 2870.12 5679.61 2870.58 5679.34 2871.19 C 5667.05 2898.28 5654.81 2925.37 5642.58 2952.47 L 5622.86 2996.12 C 5622.59 2996.73 5622.57 2997.42 5622.8 2998.04 C 5623.04 2998.66 5623.51 2999.16 5624.11 2999.43 C 5633.34 3003.58 5642.59 3007.65 5651.88 3011.58 C 5652.49 3011.84 5653.17 3011.83 5653.79 3011.59 C 5654.4 3011.34 5654.89 3010.85 5655.16 3010.24 C 5670.55 2973.76 5685.98 2937.26 5701.4 2900.8 L 5708.52 2883.97 C 5709.05 2882.7 5708.46 2881.24 5707.2 2880.7 C 5699 2877.18 5690.77 2873.63 5682.65 2869.94 C 5682.31 2869.79 5681.96 2869.72 5681.61 2869.72"/>
    <path id="path956" style="fill:#b72792;fill-opacity:1;fill-rule:nonzero;stroke:none" d="M 5807.24 3062.55 C 5797.49 3059.9 5787.81 3057.18 5778.16 3054.3 C 5791.25 3010.51 5804.33 2966.71 5817.35 2922.94 C 5825.94 2925.47 5834.54 2927.94 5843.15 2930.26 C 5831.19 2974.37 5819.23 3018.48 5807.24 3062.55"/>
    <path id="path958" style="fill:#000000;fill-opacity:1;fill-rule:nonzero;stroke:none" d="M 5781.28 3052.61 C 5793.89 3010.42 5806.48 2968.22 5819.04 2926.04 C 5826.04 2928.09 5833.07 2930.1 5840.09 2932.02 C 5828.56 2974.52 5817.03 3017.02 5805.48 3059.48 C 5797.37 3057.26 5789.32 3054.99 5781.28 3052.61 Z M 5817.35 2920.44 C 5816.28 2920.44 5815.28 2921.14 5814.96 2922.22 C 5801.93 2965.99 5788.86 3009.8 5775.77 3053.58 C 5775.58 3054.22 5775.64 3054.9 5775.97 3055.48 C 5776.28 3056.07 5776.82 3056.5 5777.45 3056.69 C 5787.12 3059.58 5796.82 3062.31 5806.58 3064.96 C 5807.92 3065.33 5809.29 3064.53 5809.65 3063.21 C 5821.64 3019.13 5833.6 2975.03 5845.57 2930.91 C 5845.74 2930.27 5845.65 2929.59 5845.32 2929.01 C 5844.99 2928.44 5844.44 2928.02 5843.81 2927.85 C 5835.21 2925.53 5826.62 2923.06 5818.06 2920.54 C 5817.82 2920.47 5817.59 2920.44 5817.35 2920.44"/>
    <path id="path960" style="fill:#b72792;fill-opacity:1;fill-rule:nonzero;stroke:none" d="M 5967.42 3094.72 C 5957.41 3093.37 5947.4 3091.96 5937.38 3090.37 C 5944.48 3045.25 5951.58 3000.09 5958.68 2954.96 C 5967.53 2956.33 5976.4 2957.59 5985.28 2958.74 C 5979.31 3004.07 5973.38 3049.38 5967.42 3094.72"/>
    <path id="path962" style="fill:#000000;fill-opacity:1;fill-rule:nonzero;stroke:none" d="M 5940.24 3088.29 L 5960.76 2957.81 C 5967.99 2958.91 5975.22 2959.93 5982.48 2960.9 L 5965.27 3091.91 C 5956.93 3090.77 5948.58 3089.59 5940.24 3088.29 Z M 5958.68 2952.46 C 5957.47 2952.46 5956.41 2953.34 5956.21 2954.57 L 5934.91 3089.98 C 5934.7 3091.34 5935.63 3092.62 5936.99 3092.84 C 5947.03 3094.43 5957.06 3095.85 5967.09 3097.2 C 5967.72 3097.28 5968.42 3097.1 5968.95 3096.71 C 5969.47 3096.3 5969.81 3095.71 5969.9 3095.05 L 5987.76 2959.07 C 5987.85 2958.41 5987.67 2957.75 5987.27 2957.22 C 5986.87 2956.69 5986.26 2956.35 5985.61 2956.26 C 5976.74 2955.11 5967.89 2953.85 5959.06 2952.49 C 5958.94 2952.47 5958.81 2952.46 5958.68 2952.46"/>
    <path id="path964" style="fill:#f169be;fill-opacity:1;fill-rule:nonzero;stroke:none" d="M 5709.04 2375.95 L 5709.04 2342.97 L 5742.41 2342.97 L 5754.47 2375.95 L 5709.04 2375.95"/>
    <path id="path966" style="fill:#000000;fill-opacity:1;fill-rule:nonzero;stroke:none" d="M 5711.54 2345.47 L 5740.66 2345.47 L 5750.9 2373.45 L 5711.54 2373.45 L 5711.54 2345.47 Z M 5742.41 2340.47 L 5709.04 2340.47 C 5707.67 2340.47 5706.54 2341.59 5706.54 2342.97 L 5706.54 2375.95 C 5706.54 2377.33 5707.67 2378.45 5709.04 2378.45 L 5754.47 2378.45 C 5755.29 2378.45 5756.05 2378.05 5756.52 2377.38 C 5756.99 2376.71 5757.1 2375.86 5756.82 2375.09 L 5744.76 2342.11 C 5744.4 2341.12 5743.46 2340.47 5742.41 2340.47"/>
    <path id="path968" style="fill:#f169be;fill-opacity:1;fill-rule:nonzero;stroke:none" d="M 5903.04 2375.95 L 5915.1 2342.97 L 5948.52 2342.97 L 5948.52 2375.95 L 5903.04 2375.95"/>
    <path id="path970" style="fill:#000000;fill-opacity:1;fill-rule:nonzero;stroke:none" d="M 5916.85 2345.47 L 5946.02 2345.47 L 5946.02 2373.45 L 5906.61 2373.45 L 5916.85 2345.47 Z M 5948.52 2340.47 L 5915.1 2340.47 C 5914.05 2340.47 5913.11 2341.12 5912.75 2342.11 L 5900.69 2375.09 C 5900.41 2375.86 5900.52 2376.71 5900.99 2377.38 C 5901.46 2378.05 5902.22 2378.45 5903.04 2378.45 L 5948.52 2378.45 C 5949.89 2378.45 5951.02 2377.33 5951.02 2375.95 L 5951.02 2342.97 C 5951.02 2341.59 5949.89 2340.47 5948.52 2340.47"/>
    <path id="path972" style="fill:#b39471;fill-opacity:1;fill-rule:nonzero;stroke:none" d="M 5869.51 2397.85 C 5830.07 2379.75 5783.37 2397.08 5765.26 2436.54 C 5747.17 2476 5764.51 2522.68 5803.96 2540.8 C 5843.46 2558.89 5919.46 2555 5937.54 2515.55 C 5955.63 2476.07 5908.98 2415.93 5869.51 2397.85"/>
    <path id="path974" style="fill:#000000;fill-opacity:1;fill-rule:nonzero;stroke:none" d="M 5857.9 2548.67 C 5838.35 2548.67 5819.06 2544.97 5805 2538.53 C 5766.86 2521 5750.05 2475.72 5767.54 2437.58 C 5779.91 2410.6 5807.1 2393.17 5836.81 2393.17 C 5847.77 2393.17 5858.43 2395.51 5868.47 2400.12 C 5888.05 2409.09 5908.95 2428.21 5923.01 2450.03 C 5932.14 2464.18 5945.87 2491.38 5935.26 2514.51 C 5923.73 2539.69 5887.73 2548.67 5857.9 2548.67 Z M 5836.81 2388.17 C 5805.16 2388.17 5776.18 2406.75 5762.99 2435.5 C 5744.36 2476.14 5762.27 2524.4 5802.91 2543.07 C 5817.61 2549.81 5837.66 2553.67 5857.9 2553.67 C 5889.29 2553.67 5927.29 2543.92 5939.81 2516.59 C 5948.41 2497.85 5943.93 2473.24 5927.22 2447.32 C 5912.66 2424.74 5890.95 2404.92 5870.56 2395.57 C 5859.85 2390.66 5848.5 2388.17 5836.81 2388.17"/>
    <path id="path976" style="fill:#735846;fill-opacity:1;fill-rule:nonzero;stroke:none" d="M 5849.1 2449.78 C 5837.61 2444.51 5823.98 2449.54 5818.73 2461.05 C 5813.48 2472.56 5818.53 2486.14 5830.02 2491.42 C 5841.5 2496.67 5855.11 2491.65 5860.36 2480.14 C 5865.62 2468.63 5860.6 2455.06 5849.1 2449.78"/>
    <path id="path978" style="fill:#000000;fill-opacity:1;fill-rule:nonzero;stroke:none" d="M 5839.54 2491 C 5836.61 2491 5833.75 2490.38 5831.06 2489.14 C 5820.85 2484.46 5816.34 2472.32 5821.01 2462.09 C 5824.31 2454.86 5831.59 2450.19 5839.56 2450.19 C 5842.5 2450.19 5845.36 2450.81 5848.06 2452.05 C 5858.26 2456.74 5862.75 2468.87 5858.09 2479.1 C 5854.79 2486.33 5847.51 2491 5839.54 2491 Z M 5839.56 2445.19 C 5829.64 2445.19 5820.57 2451 5816.46 2460.01 C 5810.64 2472.74 5816.26 2487.85 5828.97 2493.69 C 5832.33 2495.22 5835.89 2496 5839.54 2496 C 5849.46 2496 5858.53 2490.18 5862.64 2481.17 C 5868.45 2468.44 5862.84 2453.34 5850.15 2447.51 C 5846.79 2445.97 5843.23 2445.19 5839.56 2445.19"/>
    <path id="path980" style="fill:#baaf98;fill-opacity:1;fill-rule:nonzero;stroke:none" d="M 5811.32 2429.44 L 5789.97 2476.07 L 5807 2483.89 L 5828.35 2437.27 L 5811.32 2429.44"/>
    <path id="path982" style="fill:#000000;fill-opacity:1;fill-rule:nonzero;stroke:none" d="M 5793.28 2474.84 L 5812.55 2432.76 L 5825.04 2438.5 L 5805.77 2480.58 L 5793.28 2474.84 Z M 5811.32 2426.94 C 5811.03 2426.94 5810.73 2427 5810.45 2427.1 C 5809.82 2427.33 5809.33 2427.8 5809.04 2428.4 L 5787.7 2475.03 C 5787.12 2476.28 5787.68 2477.76 5788.93 2478.34 L 5805.96 2486.17 C 5806.56 2486.44 5807.24 2486.47 5807.87 2486.24 C 5808.5 2486.01 5808.99 2485.54 5809.28 2484.93 L 5830.63 2438.31 C 5831.2 2437.05 5830.64 2435.57 5829.39 2435 L 5812.36 2427.17 C 5812.03 2427.02 5811.68 2426.94 5811.32 2426.94"/>
    <path id="path984" style="fill:#baaf98;fill-opacity:1;fill-rule:nonzero;stroke:none" d="M 5885.38 2471.02 L 5869.75 2505.05 L 6068.62 2592.25 L 6081.18 2564.79 L 5885.38 2471.02"/>
    <path id="path986" style="fill:#000000;fill-opacity:1;fill-rule:nonzero;stroke:none" d="M 5873.08 2503.78 L 5886.59 2474.37 L 6077.89 2565.98 L 6067.37 2588.97 L 5873.08 2503.78 Z M 5885.38 2468.52 C 5885.1 2468.52 5884.8 2468.57 5884.53 2468.67 C 5883.9 2468.89 5883.39 2469.37 5883.11 2469.97 L 5867.47 2504 C 5867.2 2504.61 5867.17 2505.31 5867.41 2505.94 C 5867.65 2506.56 5868.13 2507.07 5868.74 2507.34 L 6067.62 2594.54 C 6068.91 2595.09 6070.33 2594.53 6070.9 2593.29 L 6083.46 2565.83 C 6084.02 2564.59 6083.49 2563.12 6082.27 2562.53 L 5886.46 2468.76 C 5886.12 2468.6 5885.75 2468.52 5885.38 2468.52"/>
    <path id="path988" style="fill:#baaf98;fill-opacity:1;fill-rule:nonzero;stroke:none" d="M 6081.18 2564.79 L 6068.62 2592.25 L 6120.19 2592.21 L 6121.86 2562.75 L 6081.18 2564.79"/>
    <path id="path990" style="fill:#000000;fill-opacity:1;fill-rule:nonzero;stroke:none" d="M 6082.82 2567.21 L 6119.2 2565.38 L 6117.82 2589.71 L 6072.52 2589.74 L 6082.82 2567.21 Z M 6121.86 2560.25 C 6121.82 2560.25 6121.77 2560.25 6121.73 2560.25 L 6081.05 2562.29 C 6080.13 2562.34 6079.3 2562.9 6078.91 2563.75 L 6066.35 2591.21 C 6066 2591.99 6066.06 2592.88 6066.52 2593.6 C 6066.98 2594.31 6067.77 2594.75 6068.62 2594.75 L 6068.62 2594.75 L 6120.19 2594.71 C 6121.51 2594.71 6122.61 2593.68 6122.69 2592.35 L 6124.31 2563.66 C 6124.42 2563.38 6124.48 2563.07 6124.48 2562.75 C 6124.48 2561.37 6123.36 2560.25 6121.98 2560.25 C 6121.94 2560.25 6121.9 2560.25 6121.86 2560.25"/>
    <path id="path992" style="fill:#0c3841;fill-opacity:1;fill-rule:nonzero;stroke:none" d="M 5804.74 2463.87 L 5803.59 2466.32 L 6070.89 2588.87 L 6071.98 2586.44 L 5804.74 2463.87"/>
    <path id="path994" style="fill:#000000;fill-opacity:1;fill-rule:nonzero;stroke:none" d="M 5804.74 2461.37 C 5803.8 2461.37 5802.89 2461.9 5802.47 2462.81 L 5801.33 2465.26 C 5801.04 2465.86 5801.02 2466.55 5801.25 2467.18 C 5801.47 2467.81 5801.94 2468.31 5802.55 2468.59 L 6069.84 2591.14 C 6070.45 2591.42 6071.14 2591.44 6071.77 2591.21 C 6072.39 2590.97 6072.89 2590.5 6073.16 2589.9 L 6074.26 2587.46 C 6074.82 2586.21 6074.28 2584.74 6073.03 2584.17 L 5805.78 2461.6 C 5805.44 2461.44 5805.09 2461.37 5804.74 2461.37"/>
    <path id="path996" style="fill:#0c3841;fill-opacity:1;fill-rule:nonzero;stroke:none" d="M 5812.7 2446.45 L 5811.6 2448.9 L 6078.87 2571.45 L 6079.96 2569.02 L 5812.7 2446.45"/>
    <path id="path998" style="fill:#000000;fill-opacity:1;fill-rule:nonzero;stroke:none" d="M 5812.7 2443.95 C 5812.39 2443.95 5812.1 2444 5811.82 2444.11 C 5811.19 2444.34 5810.68 2444.82 5810.41 2445.43 L 5809.32 2447.89 C 5808.76 2449.14 5809.32 2450.6 5810.56 2451.18 L 6077.82 2573.72 C 6078.43 2574 6079.12 2574.03 6079.75 2573.79 C 6080.37 2573.55 6080.87 2573.08 6081.14 2572.47 L 6082.24 2570.04 C 6082.8 2568.79 6082.26 2567.32 6081.01 2566.75 L 5813.74 2444.18 C 5813.41 2444.03 5813.05 2443.95 5812.7 2443.95"/>
    <path id="path1000" style="fill:#0c3841;fill-opacity:1;fill-rule:nonzero;stroke:none" d="M 5808.77 2455.02 L 5807.66 2457.46 L 6074.91 2580.01 L 6076.06 2577.56 L 5808.77 2455.02"/>
    <path id="path1002" style="fill:#000000;fill-opacity:1;fill-rule:nonzero;stroke:none" d="M 5808.77 2452.52 C 5808.48 2452.52 5808.18 2452.57 5807.9 2452.67 C 5807.28 2452.91 5806.77 2453.38 5806.49 2453.98 L 5805.38 2456.42 C 5804.8 2457.67 5805.36 2459.16 5806.61 2459.73 L 6073.87 2582.28 C 6075.12 2582.86 6076.58 2582.33 6077.18 2581.07 L 6078.33 2578.62 C 6078.61 2578.02 6078.64 2577.32 6078.41 2576.7 C 6078.18 2576.07 6077.71 2575.56 6077.11 2575.29 L 5809.81 2452.75 C 5809.48 2452.6 5809.12 2452.52 5808.77 2452.52"/>
    <path id="path1004" style="fill:#ffb103;fill-opacity:1;fill-rule:nonzero;stroke:none" d="M 5689.7 2563.37 C 5705.74 2504.77 5738.74 2470.88 5747.37 2463.17 C 5782.17 2432.03 5810.21 2481.85 5796.81 2495.36 C 5723.58 2569.12 5699.08 2621.7 5693.23 2632.02 C 5693.23 2632.02 5675.84 2614.13 5689.7 2563.37"/>
    <path id="path1006" style="fill:#000000;fill-opacity:1;fill-rule:nonzero;stroke:none" d="M 5692.97 2627.26 C 5689.08 2620.42 5681.91 2601.38 5692.11 2564.03 C 5709.07 2502.08 5745 2468.64 5749.04 2465.03 C 5756.03 2458.78 5763.07 2455.6 5769.97 2455.6 C 5781.92 2455.6 5791.36 2465.42 5795.41 2475.15 C 5798.63 2482.88 5798.49 2490.12 5795.03 2493.6 C 5728.34 2560.78 5701.86 2610.55 5693.15 2626.9 C 5693.1 2627.02 5693.03 2627.14 5692.97 2627.26 Z M 5769.97 2450.6 L 5769.97 2450.6 C 5761.81 2450.6 5753.64 2454.2 5745.7 2461.3 C 5741.55 2465.01 5704.63 2499.37 5687.29 2562.71 C 5673.21 2614.26 5690.69 2633 5691.44 2633.77 C 5691.99 2634.33 5692.76 2634.62 5693.55 2634.51 C 5694.34 2634.4 5695.02 2633.94 5695.41 2633.26 C 5695.96 2632.28 5696.67 2630.95 5697.57 2629.25 C 5706.19 2613.06 5732.41 2563.78 5798.58 2497.12 C 5803.54 2492.13 5804.09 2482.98 5800.03 2473.23 C 5795.68 2462.79 5785.2 2450.6 5769.97 2450.6"/>
    <path id="path1008" style="fill:#f4d9bd;fill-opacity:1;fill-rule:nonzero;stroke:none" d="M 5771.17 2427.07 C 5779.82 2418.39 5793.93 2418.39 5802.61 2427.06 L 5823.36 2447.84 C 5832.04 2456.51 5832.04 2470.56 5823.36 2479.27 L 5802.61 2500 C 5793.93 2508.69 5779.82 2508.69 5771.19 2500.03 L 5750.39 2479.24 C 5741.76 2470.56 5741.76 2456.51 5750.44 2447.84 L 5771.17 2427.07"/>
    <path id="path1010" style="fill:#000000;fill-opacity:1;fill-rule:nonzero;stroke:none" d="M 5786.87 2504.02 C 5781.6 2504.02 5776.66 2501.98 5772.96 2498.27 L 5752.16 2477.47 C 5744.5 2469.78 5744.52 2457.28 5752.21 2449.61 L 5772.94 2428.84 C 5780.37 2421.39 5793.39 2421.38 5800.84 2428.83 L 5821.59 2449.61 C 5829.28 2457.28 5829.28 2469.8 5821.59 2477.5 L 5800.84 2498.24 C 5797.11 2501.97 5792.15 2504.02 5786.87 2504.02 Z M 5786.88 2418.06 L 5786.88 2418.06 C 5780.26 2418.06 5774.06 2420.63 5769.4 2425.31 L 5748.67 2446.07 C 5739.04 2455.69 5739.02 2471.36 5748.62 2481 L 5769.42 2501.8 C 5778.71 2511.13 5795.06 2511.11 5804.38 2501.77 L 5825.13 2481.03 C 5834.77 2471.38 5834.76 2455.7 5825.13 2446.07 L 5804.38 2425.3 C 5799.71 2420.63 5793.5 2418.06 5786.88 2418.06"/>
    <path id="path1012" style="fill:#ffb103;fill-opacity:1;fill-rule:nonzero;stroke:none" d="M 5656.52 2563.43 C 5679.35 2540.61 5716.36 2540.63 5739.18 2563.45 C 5761.99 2586.27 5762.01 2623.28 5739.18 2646.1 C 5716.36 2668.95 5679.33 2668.95 5656.52 2646.13 C 5633.66 2623.28 5633.66 2586.27 5656.52 2563.43"/>
    <path id="path1014" style="fill:#000000;fill-opacity:1;fill-rule:nonzero;stroke:none" d="M 5697.83 2660.74 C 5682.89 2660.74 5668.85 2654.93 5658.29 2644.36 C 5647.71 2633.79 5641.88 2619.72 5641.88 2604.78 C 5641.88 2589.83 5647.71 2575.77 5658.29 2565.19 C 5668.85 2554.64 5682.89 2548.83 5697.83 2548.83 L 5697.83 2548.83 C 5712.78 2548.83 5726.84 2554.65 5737.41 2565.22 C 5747.98 2575.78 5753.8 2589.83 5753.8 2604.78 C 5753.8 2619.72 5747.98 2633.77 5737.41 2644.33 C 5726.85 2654.92 5712.78 2660.74 5697.83 2660.74 Z M 5697.83 2543.83 L 5697.83 2543.83 C 5681.55 2543.83 5666.26 2550.16 5654.76 2561.66 C 5643.22 2573.18 5636.88 2588.49 5636.88 2604.78 C 5636.88 2621.06 5643.22 2636.38 5654.76 2647.9 C 5666.25 2659.4 5681.55 2665.74 5697.83 2665.74 C 5714.12 2665.74 5729.43 2659.39 5740.95 2647.87 C 5752.46 2636.37 5758.8 2621.06 5758.8 2604.77 C 5758.79 2588.49 5752.45 2573.19 5740.95 2561.68 C 5729.43 2550.17 5714.11 2543.83 5697.83 2543.83"/>
    <path id="path1016" style="fill:#2a5b6a;fill-opacity:1;fill-rule:nonzero;stroke:none" d="M 5713.03 2619.96 C 5697.29 2635.73 5681.2 2647.31 5668.61 2652.97 C 5685.46 2658.53 5708.63 2651.59 5726.68 2633.57 C 5744.65 2615.57 5751.59 2592.39 5746.03 2575.54 C 5740.38 2588.13 5728.78 2604.2 5713.03 2619.96"/>
    <path id="path1018" style="fill:#000000;fill-opacity:1;fill-rule:nonzero;stroke:none" d="M 5676.01 2652.05 C 5688.13 2645.39 5701.9 2634.64 5714.79 2621.73 C 5727.73 2608.78 5738.48 2594.99 5745.12 2582.93 C 5747.02 2598.45 5739.43 2617.26 5724.91 2631.8 C 5710.59 2646.1 5691.58 2653.95 5676.01 2652.05 Z M 5746.03 2573.04 C 5745.05 2573.04 5744.15 2573.62 5743.74 2574.52 C 5737.97 2587.39 5726.13 2603.31 5711.26 2618.19 C 5696.46 2633.03 5680.54 2644.87 5667.59 2650.69 C 5666.65 2651.11 5666.06 2652.06 5666.11 2653.09 C 5666.17 2654.12 5666.85 2655.02 5667.83 2655.34 C 5671.85 2656.67 5676.22 2657.34 5680.84 2657.34 C 5696.86 2657.34 5714.65 2649.11 5728.45 2635.34 C 5746.41 2617.35 5754.42 2593.01 5748.4 2574.75 C 5748.08 2573.78 5747.19 2573.09 5746.15 2573.05 C 5746.11 2573.04 5746.06 2573.04 5746.03 2573.04"/>
    <path id="path1020" style="fill:#2a5b6a;fill-opacity:1;fill-rule:nonzero;stroke:none" d="M 5649.66 2634.01 C 5655.32 2621.42 5666.89 2605.35 5682.66 2589.57 C 5698.44 2573.83 5714.5 2562.24 5727.07 2556.59 C 5710.21 2551.03 5687.05 2557.96 5669.05 2575.95 C 5651.04 2593.98 5644.09 2617.18 5649.66 2634.01"/>
    <path id="path1022" style="fill:#000000;fill-opacity:1;fill-rule:nonzero;stroke:none" d="M 5650.57 2626.63 C 5648.66 2611.11 5656.26 2592.28 5670.82 2577.71 C 5685.11 2563.44 5704.17 2555.6 5719.68 2557.5 C 5707.62 2564.15 5693.84 2574.89 5680.89 2587.81 C 5667.98 2600.73 5657.24 2614.52 5650.57 2626.63 Z M 5714.84 2552.22 C 5698.83 2552.22 5681.04 2560.43 5667.29 2574.18 C 5649.29 2592.19 5641.25 2616.55 5647.29 2634.8 C 5647.61 2635.77 5648.5 2636.45 5649.53 2636.51 C 5650.63 2636.55 5651.52 2635.97 5651.93 2635.04 C 5657.75 2622.1 5669.6 2606.18 5684.42 2591.34 C 5699.31 2576.5 5715.22 2564.66 5728.1 2558.87 C 5729.03 2558.44 5729.62 2557.48 5729.57 2556.45 C 5729.51 2555.42 5728.83 2554.53 5727.85 2554.21 C 5723.84 2552.89 5719.46 2552.22 5714.84 2552.22"/>
  </g>
</svg>