<?xml version="1.0" encoding="utf-8"?>
<svg viewBox="2.5490000247955322 -0.02500000037252903 97.75399780273438 93.18599700927734" width="97.75399780273438" height="93.18599700927734" xmlns="http://www.w3.org/2000/svg">
  <g transform="matrix(0.12500000186264515, 0, 0, -0.12500000186264515, 0, 526.1375122070312)">
    <path id="path46" style="fill:#ddd8bf;fill-opacity:1;fill-rule:nonzero;stroke:none" d="M 554.449 3490.96 C 554.449 3475.96 443.148 3463.81 305.852 3463.81 C 168.547 3463.81 57.234 3475.96 57.234 3490.96 C 57.234 3505.95 168.547 3518.11 305.852 3518.11 C 443.148 3518.11 554.449 3505.95 554.449 3490.96"/>
    <path id="path2884" style="fill:#62717f;fill-opacity:1;fill-rule:nonzero;stroke:none" d="M 210.102 3491.19 L 176.746 3491.19 L 176.746 3582.21 L 243.492 3582.21 L 210.102 3491.19"/>
    <path id="path2886" style="fill:#000000;fill-opacity:1;fill-rule:nonzero;stroke:none" d="M 179.246 3493.69 L 208.355 3493.69 L 239.91 3579.71 L 179.246 3579.71 L 179.246 3493.69 Z M 210.102 3488.69 L 176.746 3488.69 C 175.367 3488.69 174.246 3489.81 174.246 3491.19 L 174.246 3582.21 C 174.246 3583.59 175.367 3584.71 176.746 3584.71 L 243.492 3584.71 C 244.309 3584.71 245.074 3584.3 245.543 3583.64 C 246.012 3582.97 246.117 3582.11 245.84 3581.35 L 212.449 3490.33 C 212.09 3489.34 211.152 3488.69 210.102 3488.69"/>
    <path id="path2888" style="fill:#62717f;fill-opacity:1;fill-rule:nonzero;stroke:none" d="M 382.828 3491.19 L 416.215 3491.19 L 416.215 3582.21 L 349.465 3582.21 L 382.828 3491.19"/>
    <path id="path2890" style="fill:#000000;fill-opacity:1;fill-rule:nonzero;stroke:none" d="M 384.574 3493.69 L 413.715 3493.69 L 413.715 3579.71 L 353.043 3579.71 L 384.574 3493.69 Z M 416.215 3488.69 L 382.828 3488.69 C 381.777 3488.69 380.84 3489.34 380.48 3490.33 L 347.113 3581.35 C 346.836 3582.11 346.941 3582.97 347.41 3583.64 C 347.883 3584.3 348.648 3584.71 349.465 3584.71 L 416.215 3584.71 C 417.598 3584.71 418.715 3583.59 418.715 3582.21 L 418.715 3491.19 C 418.715 3489.81 417.598 3488.69 416.215 3488.69"/>
    <path id="path2892" style="fill:#425059;fill-opacity:1;fill-rule:nonzero;stroke:none" d="M 411.156 3534.71 C 411.156 3524.8 403.113 3516.76 393.215 3516.76 C 383.305 3516.76 375.273 3524.8 375.273 3534.71 C 375.273 3544.63 383.305 3552.66 393.215 3552.66 C 403.113 3552.66 411.156 3544.63 411.156 3534.71"/>
    <path id="path2894" style="fill:#000000;fill-opacity:1;fill-rule:nonzero;stroke:none" d="M 393.215 3550.16 C 384.695 3550.16 377.773 3543.23 377.773 3534.71 C 377.773 3526.19 384.695 3519.26 393.215 3519.26 C 401.73 3519.26 408.656 3526.19 408.656 3534.71 C 408.656 3543.23 401.73 3550.16 393.215 3550.16 Z M 393.215 3514.26 C 381.941 3514.26 372.773 3523.44 372.773 3534.71 C 372.773 3545.98 381.941 3555.16 393.215 3555.16 C 404.488 3555.16 413.656 3545.98 413.656 3534.71 C 413.656 3523.44 404.488 3514.26 393.215 3514.26"/>
    <path id="path2896" style="fill:#425059;fill-opacity:1;fill-rule:nonzero;stroke:none" d="M 217.676 3534.71 C 217.676 3524.8 209.645 3516.76 199.723 3516.76 C 189.813 3516.76 181.785 3524.8 181.785 3534.71 C 181.785 3544.63 189.813 3552.66 199.723 3552.66 C 209.645 3552.66 217.676 3544.63 217.676 3534.71"/>
    <path id="path2898" style="fill:#000000;fill-opacity:1;fill-rule:nonzero;stroke:none" d="M 199.723 3550.16 C 191.211 3550.16 184.285 3543.23 184.285 3534.71 C 184.285 3526.19 191.211 3519.26 199.723 3519.26 C 208.242 3519.26 215.176 3526.19 215.176 3534.71 C 215.176 3543.23 208.242 3550.16 199.723 3550.16 Z M 199.723 3514.26 C 188.453 3514.26 179.285 3523.44 179.285 3534.71 C 179.285 3545.98 188.453 3555.16 199.723 3555.16 C 211 3555.16 220.176 3545.98 220.176 3534.71 C 220.176 3523.44 211 3514.26 199.723 3514.26"/>
    <path id="path2900" style="fill:#425059;fill-opacity:1;fill-rule:nonzero;stroke:none" d="M 181.477 3798.46 C 165.176 3765.96 155.52 3726.34 155.52 3683.46 C 155.52 3640.59 165.176 3600.97 181.477 3568.46 C 213.984 3552.17 253.59 3542.5 296.477 3542.5 C 339.371 3542.5 378.965 3552.17 411.484 3568.46 C 427.777 3600.97 437.445 3640.58 437.445 3683.46 C 437.445 3726.34 427.754 3765.96 411.453 3798.46 C 378.949 3814.76 339.34 3824.43 296.477 3824.43 C 253.609 3824.43 213.984 3814.76 181.477 3798.46"/>
    <path id="path2902" style="fill:#000000;fill-opacity:1;fill-rule:nonzero;stroke:none" d="M 183.34 3570.33 C 216.715 3553.75 255.816 3545 296.477 3545 C 337.133 3545 376.234 3553.75 409.617 3570.33 C 426.191 3603.7 434.945 3642.8 434.945 3683.46 C 434.945 3724.09 426.184 3763.2 409.59 3796.6 C 376.211 3813.18 337.117 3821.93 296.477 3821.93 C 255.816 3821.93 216.719 3813.17 183.34 3796.59 C 166.773 3763.25 158.02 3724.14 158.02 3683.46 C 158.02 3642.79 166.773 3603.68 183.34 3570.33 Z M 296.477 3540 C 254.734 3540 214.586 3549.07 180.355 3566.23 C 179.871 3566.47 179.48 3566.86 179.238 3567.35 C 162.086 3601.55 153.02 3641.71 153.02 3683.46 C 153.02 3725.22 162.086 3765.38 179.238 3799.58 C 179.48 3800.06 179.871 3800.45 180.352 3800.69 C 214.586 3817.86 254.742 3826.93 296.477 3826.93 C 338.191 3826.93 378.34 3817.86 412.574 3800.7 C 413.059 3800.46 413.445 3800.07 413.691 3799.58 C 430.867 3765.33 439.945 3725.18 439.945 3683.46 C 439.945 3641.73 430.879 3601.58 413.723 3567.35 C 413.477 3566.86 413.086 3566.47 412.602 3566.23 C 378.363 3549.07 338.207 3540 296.477 3540"/>
    <path id="path2904" style="fill:#2a363d;fill-opacity:1;fill-rule:nonzero;stroke:none" d="M 181.477 3798.46 C 177.883 3791.29 174.672 3783.72 171.758 3775.91 C 198.086 3756.65 230.438 3745.14 265.563 3745.14 L 339.418 3745.14 C 370.332 3745.14 399.094 3754.1 423.516 3769.35 C 420.043 3779.54 416.047 3789.32 411.453 3798.46 C 378.949 3814.76 339.34 3824.43 296.477 3824.43 C 253.609 3824.43 213.984 3814.76 181.477 3798.46"/>
    <path id="path2906" style="fill:#8192a4;fill-opacity:1;fill-rule:nonzero;stroke:none" d="M 413.945 3618.02 C 394.246 3632.05 198.688 3632.05 178.984 3618.02 C 160.707 3605 158.098 3536.55 158.098 3536.55 C 158.098 3536.55 236.699 3525.77 258.832 3536.55 C 270.496 3542.22 284.84 3561.83 296.477 3580.42 C 308.105 3561.83 322.434 3542.22 334.105 3536.55 C 356.23 3525.77 434.836 3536.55 434.836 3536.55 C 434.836 3536.55 432.227 3605 413.945 3618.02"/>
    <path id="path2908" style="fill:#000000;fill-opacity:1;fill-rule:nonzero;stroke:none" d="M 296.477 3582.92 L 296.477 3582.92 C 297.336 3582.92 298.137 3582.47 298.594 3581.75 C 313.395 3558.09 326.051 3543.24 335.199 3538.79 C 341.383 3535.79 353.105 3534.26 370.055 3534.26 C 395.066 3534.26 424.039 3537.69 432.234 3538.73 C 431.23 3558.96 426.121 3606.27 412.496 3615.98 C 404.18 3621.91 356.469 3626.04 296.465 3626.04 C 236.465 3626.04 188.75 3621.91 180.434 3615.98 C 166.809 3606.27 161.699 3558.96 160.691 3538.73 C 168.891 3537.69 197.859 3534.26 222.883 3534.26 C 239.824 3534.26 251.559 3535.79 257.738 3538.79 C 266.895 3543.25 279.555 3558.1 294.355 3581.75 C 294.813 3582.47 295.613 3582.92 296.477 3582.92 Z M 370.059 3529.26 C 370.055 3529.26 370.055 3529.26 370.055 3529.26 C 352.344 3529.26 339.879 3530.96 333.012 3534.3 C 323.34 3539 311.059 3552.93 296.477 3575.74 C 281.891 3552.94 269.602 3539 259.926 3534.3 C 253.059 3530.96 240.59 3529.26 222.883 3529.26 C 193.203 3529.26 158.105 3534.02 157.754 3534.07 C 156.484 3534.24 155.547 3535.36 155.598 3536.64 C 155.707 3539.48 158.477 3606.47 177.535 3620.06 C 188.922 3628.17 248.723 3631.04 296.465 3631.04 C 344.215 3631.04 404.016 3628.17 415.395 3620.06 C 434.457 3606.47 437.223 3539.48 437.336 3536.64 C 437.383 3535.36 436.445 3534.24 435.176 3534.07 C 434.824 3534.02 399.727 3529.26 370.059 3529.26"/>
    <path id="path2910" style="fill:#62717f;fill-opacity:1;fill-rule:nonzero;stroke:none" d="M 158.047 3647.5 C 160.211 3630.89 163.879 3615.1 168.762 3600.24 C 206.992 3590.13 250.27 3584.27 296.395 3584.27 C 342.594 3584.27 385.93 3590.14 424.219 3600.29 C 429.219 3615.51 432.973 3631.69 435.105 3648.7 C 393.918 3658.77 348.008 3664.61 299.18 3664.61 C 248.336 3664.61 200.598 3658.3 158.047 3647.5"/>
    <path id="path2912" style="fill:#000000;fill-opacity:1;fill-rule:nonzero;stroke:none" d="M 170.715 3602.31 C 210.191 3592 252.473 3586.77 296.395 3586.77 C 340.398 3586.77 382.738 3592.02 422.266 3602.36 C 426.934 3616.84 430.316 3631.77 432.34 3646.8 C 389.988 3656.96 345.199 3662.11 299.18 3662.11 C 251.246 3662.11 204.707 3656.56 160.82 3645.61 C 162.871 3630.87 166.195 3616.32 170.715 3602.31 Z M 296.395 3581.77 C 251.547 3581.77 208.391 3587.17 168.121 3597.83 C 167.301 3598.04 166.648 3598.66 166.387 3599.46 C 161.324 3614.86 157.688 3630.91 155.566 3647.17 C 155.406 3648.43 156.207 3649.6 157.434 3649.91 C 202.348 3661.32 250.039 3667.11 299.18 3667.11 C 346.387 3667.11 392.32 3661.73 435.703 3651.13 C 436.934 3650.83 437.742 3649.65 437.59 3648.39 C 435.512 3631.84 431.816 3615.4 426.594 3599.51 C 426.328 3598.71 425.68 3598.09 424.859 3597.88 C 384.543 3587.19 341.316 3581.77 296.395 3581.77"/>
    <path id="path2914" style="fill:#425059;fill-opacity:1;fill-rule:nonzero;stroke:none" d="M 474.859 3633.95 L 523.297 3682.39 L 458.598 3747.11 L 410.141 3698.68 L 474.859 3633.95"/>
    <path id="path2916" style="fill:#000000;fill-opacity:1;fill-rule:nonzero;stroke:none" d="M 413.676 3698.68 L 474.859 3637.49 L 519.762 3682.39 L 458.598 3743.57 L 413.676 3698.68 Z M 474.859 3631.45 C 474.219 3631.45 473.578 3631.7 473.09 3632.19 L 408.375 3696.91 C 407.906 3697.38 407.641 3698.01 407.641 3698.68 C 407.641 3699.34 407.906 3699.97 408.375 3700.44 L 456.832 3748.88 C 457.809 3749.85 459.391 3749.85 460.367 3748.88 L 525.063 3684.15 C 526.039 3683.18 526.039 3681.59 525.063 3680.62 L 476.625 3632.19 C 476.137 3631.7 475.496 3631.45 474.859 3631.45"/>
    <path id="path2918" style="fill:#c9a88b;fill-opacity:1;fill-rule:nonzero;stroke:none" d="M 588.383 3621.06 C 597.07 3612.38 597.07 3598.3 588.402 3589.63 L 567.613 3568.85 C 558.949 3560.18 544.871 3560.18 536.211 3568.87 L 515.461 3589.6 C 506.758 3598.3 506.758 3612.38 515.43 3621.04 L 536.211 3641.82 C 544.871 3650.49 558.949 3650.49 567.633 3641.8 L 588.383 3621.06"/>
    <path id="path2920" style="fill:#000000;fill-opacity:1;fill-rule:nonzero;stroke:none" d="M 551.902 3645.82 C 546.641 3645.82 541.695 3643.77 537.98 3640.05 L 517.195 3619.28 C 513.477 3615.55 511.426 3610.61 511.43 3605.34 C 511.43 3600.07 513.492 3595.11 517.227 3591.37 L 537.98 3570.63 C 545.414 3563.18 558.414 3563.18 565.844 3570.61 L 586.637 3591.4 C 594.316 3599.09 594.313 3611.6 586.617 3619.3 L 565.863 3640.03 C 562.133 3643.76 557.18 3645.82 551.902 3645.82 Z M 551.918 3559.85 C 545.313 3559.85 539.105 3562.43 534.441 3567.1 L 513.691 3587.84 C 509.016 3592.51 506.438 3598.73 506.43 3605.34 C 506.426 3611.94 508.992 3618.15 513.66 3622.81 L 534.441 3643.59 C 543.762 3652.92 560.055 3652.91 569.398 3643.56 L 590.152 3622.83 C 599.797 3613.19 599.805 3597.5 590.172 3587.87 L 569.379 3567.08 C 564.723 3562.42 558.52 3559.85 551.918 3559.85"/>
    <path id="path2922" style="fill:#f4d9bd;fill-opacity:1;fill-rule:nonzero;stroke:none" d="M 562.402 3647.05 C 568.18 3641.25 568.168 3631.89 562.402 3626.09 L 553.262 3616.96 C 547.473 3611.19 538.086 3611.19 532.309 3616.94 L 532.309 3616.94 C 526.543 3622.73 526.504 3632.11 532.309 3637.9 L 541.422 3647.05 C 547.227 3652.84 556.621 3652.82 562.402 3647.05 L 562.402 3647.05"/>
    <path id="path2924" style="fill:#000000;fill-opacity:1;fill-rule:nonzero;stroke:none" d="M 551.91 3648.88 C 548.617 3648.88 545.52 3647.6 543.184 3645.28 L 534.082 3636.14 C 529.277 3631.35 529.277 3623.53 534.082 3618.7 C 538.711 3614.09 546.84 3614.1 551.5 3618.73 L 560.637 3627.86 C 565.41 3632.66 565.41 3640.49 560.629 3645.29 C 558.305 3647.6 555.211 3648.88 551.91 3648.88 Z M 542.77 3610.13 C 538.148 3610.13 533.809 3611.92 530.547 3615.17 C 523.789 3621.95 523.793 3632.94 530.547 3639.67 L 539.648 3648.81 C 546.211 3655.37 557.617 3655.34 564.172 3648.82 C 570.891 3642.07 570.891 3631.08 564.176 3624.32 L 555.027 3615.2 C 551.754 3611.93 547.398 3610.13 542.77 3610.13"/>
    <path id="path2926" style="fill:#8192a4;fill-opacity:1;fill-rule:nonzero;stroke:none" d="M 425.816 3844.78 C 499.617 3844.78 559.371 3784.97 559.371 3711.25 L 411.047 3711.25 L 425.816 3844.78"/>
    <path id="path2928" style="fill:#000000;fill-opacity:1;fill-rule:nonzero;stroke:none" d="M 413.84 3713.75 L 556.848 3713.75 C 555.527 3784.11 498.461 3841.08 428.051 3842.26 L 413.84 3713.75 Z M 559.496 3708.75 C 559.449 3708.75 559.41 3708.75 559.371 3708.75 L 411.047 3708.75 C 410.332 3708.75 409.656 3709.05 409.184 3709.57 C 408.707 3710.11 408.48 3710.81 408.559 3711.52 L 423.328 3845.05 C 423.473 3846.32 424.543 3847.28 425.816 3847.28 C 500.57 3847.28 561.438 3786.68 561.871 3712.04 C 561.949 3711.79 561.996 3711.52 561.996 3711.25 C 561.996 3709.86 560.875 3708.75 559.496 3708.75"/>
    <path id="path2930" style="fill:#bcc4cd;fill-opacity:1;fill-rule:nonzero;stroke:none" d="M 477.348 3725.25 C 477.348 3700.84 457.594 3681.1 433.176 3681.1 C 408.789 3681.1 388.965 3700.84 388.988 3725.25 C 388.988 3749.64 408.789 3769.43 433.176 3769.43 C 457.594 3769.43 477.348 3749.64 477.348 3725.25"/>
    <path id="path2932" style="fill:#000000;fill-opacity:1;fill-rule:nonzero;stroke:none" d="M 433.176 3766.93 C 410.191 3766.93 391.488 3748.23 391.488 3725.25 C 391.48 3714.14 395.801 3703.7 403.652 3695.83 C 411.531 3687.94 422.016 3683.6 433.176 3683.6 C 456.152 3683.6 474.848 3702.29 474.848 3725.25 C 474.848 3748.23 456.152 3766.93 433.176 3766.93 Z M 433.176 3678.6 C 420.684 3678.6 408.941 3683.46 400.117 3692.3 C 391.316 3701.11 386.477 3712.81 386.488 3725.26 C 386.488 3750.99 407.434 3771.93 433.176 3771.93 C 458.91 3771.93 479.848 3750.99 479.848 3725.25 C 479.848 3699.52 458.91 3678.6 433.176 3678.6"/>
    <path id="path2934" style="fill:#8192a4;fill-opacity:1;fill-rule:nonzero;stroke:none" d="M 462.793 3725.25 C 462.77 3708.89 449.543 3695.68 433.176 3695.68 C 416.82 3695.68 403.605 3708.89 403.605 3725.25 C 403.605 3741.59 416.82 3754.85 433.191 3754.85 C 449.512 3754.85 462.77 3741.59 462.793 3725.25"/>
    <path id="path2936" style="fill:#000000;fill-opacity:1;fill-rule:nonzero;stroke:none" d="M 433.191 3752.35 C 418.258 3752.35 406.105 3740.2 406.105 3725.25 C 406.105 3710.33 418.246 3698.18 433.176 3698.18 C 448.105 3698.18 460.27 3710.33 460.293 3725.26 C 460.27 3740.19 448.113 3752.35 433.191 3752.35 Z M 433.176 3693.18 C 415.488 3693.18 401.105 3707.57 401.105 3725.25 C 401.105 3742.95 415.496 3757.35 433.191 3757.35 C 450.867 3757.35 465.27 3742.95 465.293 3725.26 C 465.27 3707.57 450.859 3693.18 433.176 3693.18"/>
    <path id="path2938" style="fill:#8192a4;fill-opacity:1;fill-rule:nonzero;stroke:none" d="M 492.523 3598.14 L 559.086 3664.71 L 528.035 3695.76 L 461.469 3629.2 L 492.523 3598.14"/>
    <path id="path2940" style="fill:#000000;fill-opacity:1;fill-rule:nonzero;stroke:none" d="M 465.004 3629.2 L 492.523 3601.68 L 555.551 3664.71 L 528.035 3692.23 L 465.004 3629.2 Z M 492.523 3595.64 C 491.859 3595.64 491.227 3595.91 490.758 3596.38 L 459.703 3627.43 C 459.234 3627.9 458.969 3628.54 458.969 3629.2 C 458.969 3629.86 459.234 3630.5 459.703 3630.96 L 526.27 3697.53 C 527.246 3698.5 528.828 3698.5 529.805 3697.53 L 560.855 3666.48 C 561.832 3665.5 561.832 3663.92 560.855 3662.94 L 494.293 3596.38 C 493.824 3595.91 493.188 3595.64 492.523 3595.64"/>
    <path id="path2942" style="fill:#f4d9bd;fill-opacity:1;fill-rule:nonzero;stroke:none" d="M 498.633 3924.37 C 498.633 3836.45 427.348 3765.14 339.418 3765.14 L 265.563 3765.14 C 177.617 3765.14 106.324 3836.45 106.324 3924.37 L 106.324 3924.37 C 106.324 4012.3 177.617 4083.6 265.563 4083.6 L 339.418 4083.6 C 427.348 4083.6 498.633 4012.3 498.633 3924.37 L 498.633 3924.37"/>
    <path id="path2944" style="fill:#000000;fill-opacity:1;fill-rule:nonzero;stroke:none" d="M 265.563 4081.1 C 179.137 4081.1 108.824 4010.79 108.824 3924.37 C 108.824 3837.95 179.137 3767.64 265.563 3767.64 L 339.418 3767.64 C 425.828 3767.64 496.133 3837.95 496.133 3924.37 C 496.133 4010.79 425.828 4081.1 339.418 4081.1 L 265.563 4081.1 Z M 339.418 3762.64 L 265.563 3762.64 C 176.379 3762.64 103.824 3835.2 103.824 3924.37 C 103.824 4013.55 176.379 4086.1 265.563 4086.1 L 339.418 4086.1 C 428.59 4086.1 501.133 4013.55 501.133 3924.37 C 501.133 3835.2 428.59 3762.64 339.418 3762.64"/>
    <path id="path2946" style="fill:#f4d9bd;fill-opacity:1;fill-rule:nonzero;stroke:none" d="M 498.633 3924.37 C 498.633 3836.45 427.348 3765.14 339.418 3765.14 L 265.563 3765.14 C 177.617 3765.14 106.324 3836.45 106.324 3924.37 L 106.324 3924.37 C 106.324 4012.3 177.617 4083.6 265.563 4083.6 L 339.418 4083.6 C 427.348 4083.6 498.633 4012.3 498.633 3924.37 L 498.633 3924.37"/>
    <path id="path2948" style="fill:#000000;fill-opacity:1;fill-rule:nonzero;stroke:none" d="M 265.563 4081.1 C 179.137 4081.1 108.824 4010.79 108.824 3924.37 C 108.824 3837.95 179.137 3767.64 265.563 3767.64 L 339.418 3767.64 C 425.828 3767.64 496.133 3837.95 496.133 3924.37 C 496.133 4010.79 425.828 4081.1 339.418 4081.1 L 265.563 4081.1 Z M 339.418 3762.64 L 265.563 3762.64 C 176.379 3762.64 103.824 3835.2 103.824 3924.37 C 103.824 4013.55 176.379 4086.1 265.563 4086.1 L 339.418 4086.1 C 428.59 4086.1 501.133 4013.55 501.133 3924.37 C 501.133 3835.2 428.59 3762.64 339.418 3762.64"/>
    <path id="path2950" style="fill:#ffa364;fill-opacity:1;fill-rule:nonzero;stroke:none" d="M 375.93 3860.43 L 376.133 3861.29 C 376.133 3873.8 366.012 3883.92 353.5 3883.92 L 353.5 3867.63 C 345.492 3867.63 339.004 3861.14 339.004 3853.13 C 339.004 3845.14 345.492 3838.64 353.5 3838.64 L 370.707 3838.64 C 377.078 3838.64 382.258 3843.81 382.258 3850.19 C 382.258 3854.67 379.668 3858.52 375.93 3860.43"/>
    <path id="path2952" style="fill:#000000;fill-opacity:1;fill-rule:nonzero;stroke:none" d="M 356 3881.26 L 356 3867.63 C 356 3866.25 354.883 3865.13 353.5 3865.13 C 346.887 3865.13 341.504 3859.75 341.504 3853.13 C 341.504 3846.52 346.887 3841.14 353.5 3841.14 L 370.707 3841.14 C 375.699 3841.14 379.758 3845.2 379.758 3850.19 C 379.758 3853.57 377.852 3856.64 374.789 3858.21 C 373.766 3858.73 373.227 3859.89 373.496 3861.02 L 373.699 3861.88 C 373.637 3871.59 365.93 3880.04 356 3881.26 Z M 370.707 3836.14 L 353.5 3836.14 C 344.133 3836.14 336.504 3843.77 336.504 3853.13 C 336.504 3861.66 342.809 3868.73 351 3869.95 L 351 3883.92 C 351 3885.3 352.117 3886.42 353.5 3886.42 C 367.211 3886.42 378.395 3875.38 378.629 3861.73 C 382.445 3859.13 384.758 3854.85 384.758 3850.19 C 384.758 3842.45 378.453 3836.14 370.707 3836.14"/>
    <path id="path2954" style="fill:#f4d9bd;fill-opacity:1;fill-rule:nonzero;stroke:none" d="M 376.488 3849.8 C 376.488 3846.29 373.633 3843.44 370.117 3843.44 C 366.602 3843.44 363.762 3846.29 363.762 3849.8 C 363.762 3853.32 366.602 3856.16 370.117 3856.16 C 373.633 3856.16 376.488 3853.32 376.488 3849.8"/>
    <path id="path2956" style="fill:#c9a88b;fill-opacity:1;fill-rule:nonzero;stroke:none" d="M 339.418 4083.6 L 265.563 4083.6 C 223.887 4083.6 186.07 4067.46 157.688 4041.25 C 132.871 4009.65 117.949 3969.91 117.949 3926.63 L 117.949 3864.82 C 134.73 3823.27 168.523 3790.55 210.715 3775.05 L 210.715 3913.57 L 498.086 3913.57 C 498.328 3917.15 498.633 3920.72 498.633 3924.37 C 498.633 4012.3 427.348 4083.6 339.418 4083.6"/>
    <path id="path2958" style="fill:#000000;fill-opacity:1;fill-rule:nonzero;stroke:none" d="M 265.563 4081.1 C 179.137 4081.1 108.824 4010.79 108.824 3924.37 C 108.824 3837.95 179.137 3767.64 265.563 3767.64 L 339.418 3767.64 C 425.828 3767.64 496.133 3837.95 496.133 3924.37 C 496.133 4010.79 425.828 4081.1 339.418 4081.1 L 265.563 4081.1 Z M 339.418 3762.64 L 265.563 3762.64 C 176.379 3762.64 103.824 3835.2 103.824 3924.37 C 103.824 4013.55 176.379 4086.1 265.563 4086.1 L 339.418 4086.1 C 428.59 4086.1 501.133 4013.55 501.133 3924.37 C 501.133 3835.2 428.59 3762.64 339.418 3762.64"/>
    <path id="path2960" style="fill:#2a5b6a;fill-opacity:1;fill-rule:nonzero;stroke:none" d="M 258.227 3911.77 C 243.855 3911.77 232.281 3900.14 232.281 3885.8 L 284.008 3885.8 C 284.008 3900.14 272.457 3911.77 258.227 3911.77"/>
    <path id="path2962" style="fill:#000000;fill-opacity:1;fill-rule:nonzero;stroke:none" d="M 234.91 3888.3 L 281.379 3888.3 C 280.137 3900.07 270.23 3909.27 258.227 3909.27 C 246.145 3909.27 236.16 3900.07 234.91 3888.3 Z M 284.008 3883.3 L 232.281 3883.3 C 230.898 3883.3 229.781 3884.42 229.781 3885.8 C 229.781 3901.5 242.543 3914.27 258.227 3914.27 C 273.824 3914.27 286.508 3901.5 286.508 3885.8 C 286.508 3884.42 285.391 3883.3 284.008 3883.3"/>
    <path id="path2964" style="fill:#f2f1e7;fill-opacity:1;fill-rule:nonzero;stroke:none" d="M 329.234 3798.46 C 343.586 3798.46 355.176 3810.09 355.176 3824.43 L 303.457 3824.43 C 303.457 3810.09 314.996 3798.46 329.234 3798.46"/>
    <path id="path2966" style="fill:#000000;fill-opacity:1;fill-rule:nonzero;stroke:none" d="M 306.09 3821.93 C 307.328 3810.16 317.234 3800.96 329.234 3800.96 C 341.316 3800.96 351.293 3810.16 352.543 3821.93 L 306.09 3821.93 Z M 329.234 3795.96 C 313.645 3795.96 300.957 3808.73 300.957 3824.43 C 300.957 3825.81 302.074 3826.93 303.457 3826.93 L 355.176 3826.93 C 356.559 3826.93 357.676 3825.81 357.676 3824.43 C 357.676 3808.73 344.918 3795.96 329.234 3795.96"/>
    <path id="path2968" style="fill:#2a5b6a;fill-opacity:1;fill-rule:nonzero;stroke:none" d="M 446.973 3911.77 C 432.621 3911.77 421.074 3900.14 421.074 3885.8 L 472.789 3885.8 C 472.789 3900.14 461.211 3911.77 446.973 3911.77"/>
    <path id="path2970" style="fill:#000000;fill-opacity:1;fill-rule:nonzero;stroke:none" d="M 423.707 3888.3 L 470.156 3888.3 C 468.91 3900.07 458.988 3909.27 446.973 3909.27 C 434.91 3909.27 424.957 3900.07 423.707 3888.3 Z M 472.789 3883.3 L 421.074 3883.3 C 419.691 3883.3 418.574 3884.42 418.574 3885.8 C 418.574 3901.5 431.313 3914.27 446.973 3914.27 C 462.59 3914.27 475.289 3901.5 475.289 3885.8 C 475.289 3884.42 474.172 3883.3 472.789 3883.3"/>
    <path id="path2972" style="fill:#c69700;fill-opacity:1;fill-rule:nonzero;stroke:none" d="M 309.313 3931.02 L 206.992 3916.74 L 206.992 3945.2 L 309.313 3977.3 L 309.313 3931.02"/>
    <path id="path2974" style="fill:#000000;fill-opacity:1;fill-rule:nonzero;stroke:none" d="M 209.492 3943.36 L 209.492 3919.61 L 306.813 3933.2 L 306.813 3973.89 L 209.492 3943.36 Z M 206.992 3914.24 C 206.391 3914.24 205.813 3914.46 205.352 3914.86 C 204.805 3915.33 204.492 3916.02 204.492 3916.74 L 204.492 3945.2 C 204.492 3946.29 205.199 3947.25 206.246 3947.58 L 308.563 3979.69 C 309.324 3979.91 310.152 3979.78 310.789 3979.32 C 311.43 3978.84 311.813 3978.09 311.813 3977.3 L 311.813 3931.02 C 311.813 3929.77 310.895 3928.71 309.656 3928.54 L 207.34 3914.27 C 207.223 3914.25 207.105 3914.24 206.992 3914.24"/>
    <path id="path2976" style="fill:#c69700;fill-opacity:1;fill-rule:nonzero;stroke:none" d="M 405.637 3930.99 L 488.227 3916.74 L 488.227 3945.27 L 405.637 3977.27 L 405.637 3930.99"/>
    <path id="path2978" style="fill:#000000;fill-opacity:1;fill-rule:nonzero;stroke:none" d="M 408.137 3933.09 L 485.727 3919.71 L 485.727 3943.56 L 408.137 3973.62 L 408.137 3933.09 Z M 488.227 3914.24 C 488.086 3914.24 487.945 3914.25 487.805 3914.28 L 405.211 3928.52 C 404.008 3928.73 403.137 3929.77 403.137 3930.99 L 403.137 3977.27 C 403.137 3978.09 403.539 3978.86 404.223 3979.32 C 404.898 3979.79 405.762 3979.91 406.539 3979.59 L 489.133 3947.6 C 490.094 3947.23 490.727 3946.3 490.727 3945.27 L 490.727 3916.74 C 490.727 3916 490.398 3915.3 489.84 3914.83 C 489.387 3914.45 488.813 3914.24 488.227 3914.24"/>
    <path id="path2980" style="fill:#425059;fill-opacity:1;fill-rule:nonzero;stroke:none" d="M 315.973 4166.6 L 292.266 4166.6 C 189.574 4166.6 106.324 4083.34 106.324 3980.66 L 106.324 3774.95 L 199.086 3774.95 L 199.086 3967.61 L 501.898 3967.61 L 501.898 3980.66 C 501.898 4083.34 418.656 4166.6 315.973 4166.6"/>
    <path id="path2982" style="fill:#000000;fill-opacity:1;fill-rule:nonzero;stroke:none" d="M 108.824 3777.45 L 196.586 3777.45 L 196.586 3967.61 C 196.586 3968.99 197.703 3970.11 199.086 3970.11 L 499.398 3970.11 L 499.398 3980.66 C 499.398 4081.81 417.113 4164.1 315.973 4164.1 L 292.266 4164.1 C 191.113 4164.1 108.824 4081.81 108.824 3980.66 L 108.824 3777.45 Z M 199.086 3772.45 L 106.324 3772.45 C 104.941 3772.45 103.824 3773.57 103.824 3774.95 L 103.824 3980.66 C 103.824 4084.57 188.359 4169.1 292.266 4169.1 L 315.973 4169.1 C 419.871 4169.1 504.398 4084.57 504.398 3980.66 L 504.398 3967.61 C 504.398 3966.22 503.281 3965.11 501.898 3965.11 L 201.586 3965.11 L 201.586 3774.95 C 201.586 3773.57 200.469 3772.45 199.086 3772.45"/>
    <path id="path2984" style="fill:#8192a4;fill-opacity:1;fill-rule:nonzero;stroke:none" d="M 573.684 3947.67 L 165.52 3947.67 L 452.738 4206.6 C 452.738 4206.6 568.563 4149.63 573.684 3947.67"/>
    <path id="path2986" style="fill:#000000;fill-opacity:1;fill-rule:nonzero;stroke:none" d="M 172.027 3950.17 L 571.113 3950.17 C 565.551 4133.99 466.43 4196.05 453.105 4203.56 L 172.027 3950.17 Z M 573.809 3945.17 C 573.75 3945.18 573.711 3945.18 573.684 3945.17 L 165.52 3945.17 C 164.48 3945.17 163.555 3945.81 163.184 3946.77 C 162.813 3947.74 163.074 3948.83 163.844 3949.52 L 451.063 4208.46 C 451.82 4209.14 452.926 4209.3 453.844 4208.84 C 455.016 4208.27 570.785 4149.04 576.16 3948.52 C 576.254 3948.25 576.309 3947.97 576.309 3947.67 C 576.309 3946.29 575.188 3945.17 573.809 3945.17"/>
    <path id="path2988" style="fill:#425059;fill-opacity:1;fill-rule:nonzero;stroke:none" d="M 499.426 3967.61 C 499.578 3967.61 499.746 3967.61 499.887 3967.61 C 509.895 3967.86 517.777 3976.18 517.543 3986.16 C 514.633 4100.49 447.578 4134.77 444.73 4136.17 C 435.777 4140.62 424.895 4136.89 420.484 4127.9 C 416.078 4118.97 419.73 4108.21 428.59 4103.74 C 431.023 4102.45 479.004 4076.02 481.313 3985.22 C 481.57 3975.4 489.625 3967.61 499.426 3967.61"/>
    <path id="path2990" style="fill:#000000;fill-opacity:1;fill-rule:nonzero;stroke:none" d="M 436.754 4135.55 C 430.84 4135.55 425.336 4132.12 422.73 4126.8 C 418.961 4119.16 422.094 4109.82 429.719 4105.97 C 431.871 4104.83 481.469 4077.44 483.813 3985.28 C 484.039 3976.77 490.895 3970.11 499.426 3970.11 L 499.887 3967.61 L 499.824 3970.11 C 508.418 3970.32 515.25 3977.5 515.043 3986.1 C 512.18 4098.79 446.422 4132.55 443.621 4133.93 C 441.461 4135 439.148 4135.55 436.754 4135.55 Z M 499.887 3965.11 L 499.426 3965.11 C 488.164 3965.11 479.109 3973.91 478.813 3985.16 C 476.543 4074.43 429.418 4100.47 427.418 4101.53 C 417.402 4106.59 413.266 4118.93 418.242 4129.01 C 421.68 4136.02 428.949 4140.55 436.754 4140.55 C 439.926 4140.55 442.988 4139.83 445.844 4138.41 C 448.746 4136.98 517.102 4101.89 520.043 3986.22 C 520.309 3974.86 511.293 3965.39 499.949 3965.11 C 499.934 3965.11 499.906 3965.11 499.887 3965.11"/>
    <path id="path2992" style="fill:#425059;fill-opacity:1;fill-rule:nonzero;stroke:none" d="M 413.461 3967.95 C 413.605 3967.95 413.77 3967.95 413.938 3967.95 C 423.938 3968.23 431.816 3976.51 431.582 3986.52 C 429.59 4064.69 382.66 4088.67 380.668 4089.63 C 371.684 4094.09 360.828 4090.37 356.41 4081.39 C 352.055 4072.51 355.625 4061.76 364.418 4057.28 C 366.121 4056.34 393.992 4040.19 395.352 3985.59 C 395.613 3975.75 403.672 3967.95 413.461 3967.95"/>
    <path id="path2994" style="fill:#000000;fill-opacity:1;fill-rule:nonzero;stroke:none" d="M 372.656 4089.02 C 366.672 4089.02 361.305 4085.67 358.652 4080.28 C 354.918 4072.66 358.012 4063.35 365.551 4059.5 C 368.777 4057.73 396.477 4040.92 397.852 3985.65 C 398.082 3977.13 404.938 3970.45 413.461 3970.45 L 413.938 3967.95 L 413.867 3970.45 C 422.457 3970.69 429.281 3977.87 429.082 3986.46 C 427.113 4063.66 380.063 4087.15 379.586 4087.37 C 377.383 4088.47 375.059 4089.02 372.656 4089.02 Z M 413.938 3965.45 L 413.461 3965.45 C 402.207 3965.45 393.152 3974.26 392.852 3985.52 C 391.523 4038.91 364.371 4054.45 363.215 4055.09 C 353.324 4060.12 349.234 4072.43 354.164 4082.49 C 357.668 4089.6 364.75 4094.02 372.656 4094.02 C 375.84 4094.02 378.91 4093.29 381.781 4091.86 C 383.805 4090.9 432.035 4066.82 434.082 3986.59 C 434.348 3975.24 425.344 3965.77 414.004 3965.45 C 413.984 3965.45 413.961 3965.45 413.938 3965.45"/>
    <path id="path2996" style="fill:#425059;fill-opacity:1;fill-rule:nonzero;stroke:none" d="M 94.316 3664.87 L 162.816 3664.87 L 162.816 3726.507 L 94.316 3726.507 L 94.316 3664.87 Z"/>
    <path id="path2998" style="fill:#000000;fill-opacity:1;fill-rule:nonzero;stroke:none" d="M 96.816 3667.37 L 160.316 3667.37 L 160.316 3724 L 96.816 3724 L 96.816 3667.37 Z M 162.816 3662.37 L 94.316 3662.37 C 92.934 3662.37 91.816 3663.48 91.816 3664.87 L 91.816 3726.5 C 91.816 3727.88 92.934 3729 94.316 3729 L 162.816 3729 C 164.199 3729 165.316 3727.88 165.316 3726.5 L 165.316 3664.87 C 165.316 3663.48 164.199 3662.37 162.816 3662.37"/>
    <path id="path3000" style="fill:#c9a88b;fill-opacity:1;fill-rule:nonzero;stroke:none" d="M 91.684 3575.47 C 91.684 3563.2 101.609 3553.25 113.887 3553.25 L 143.277 3553.25 C 155.527 3553.25 165.465 3563.2 165.465 3575.47 L 165.465 3604.82 C 165.465 3617.1 155.527 3627.05 143.277 3627.05 L 113.887 3627.05 C 101.609 3627.05 91.684 3617.1 91.684 3604.82 L 91.684 3575.47"/>
    <path id="path3002" style="fill:#000000;fill-opacity:1;fill-rule:nonzero;stroke:none" d="M 113.887 3624.55 C 103.023 3624.55 94.184 3615.7 94.184 3604.82 L 94.184 3575.47 C 94.184 3564.59 103.023 3555.75 113.887 3555.75 L 143.277 3555.75 C 154.133 3555.75 162.965 3564.59 162.965 3575.47 L 162.965 3604.82 C 162.965 3615.7 154.133 3624.55 143.277 3624.55 L 113.887 3624.55 Z M 143.277 3550.75 L 113.887 3550.75 C 100.266 3550.75 89.184 3561.84 89.184 3575.47 L 89.184 3604.82 C 89.184 3618.46 100.266 3629.55 113.887 3629.55 L 143.277 3629.55 C 156.891 3629.55 167.965 3618.46 167.965 3604.82 L 167.965 3575.47 C 167.965 3561.84 156.891 3550.75 143.277 3550.75"/>
    <path id="path3004" style="fill:#f4d9bd;fill-opacity:1;fill-rule:nonzero;stroke:none" d="M 91.684 3612.22 C 91.684 3604.05 98.309 3597.43 106.484 3597.43 L 119.41 3597.43 C 127.594 3597.43 134.223 3604.05 134.223 3612.22 L 134.223 3612.22 C 134.223 3620.41 127.594 3627.05 119.41 3627.05 L 106.484 3627.05 C 98.309 3627.05 91.684 3620.41 91.684 3612.22 L 91.684 3612.22"/>
    <path id="path3006" style="fill:#000000;fill-opacity:1;fill-rule:nonzero;stroke:none" d="M 106.484 3624.55 C 99.703 3624.55 94.184 3619.02 94.184 3612.22 C 94.184 3605.44 99.703 3599.93 106.484 3599.93 L 119.41 3599.93 C 126.199 3599.93 131.723 3605.44 131.723 3612.22 C 131.723 3619.02 126.199 3624.55 119.41 3624.55 L 106.484 3624.55 Z M 119.41 3594.93 L 106.484 3594.93 C 96.945 3594.93 89.184 3602.68 89.184 3612.22 C 89.184 3621.78 96.945 3629.55 106.484 3629.55 L 119.41 3629.55 C 128.953 3629.55 136.723 3621.78 136.723 3612.22 C 136.723 3602.68 128.953 3594.93 119.41 3594.93"/>
    <path id="path3008" style="fill:#8192a4;fill-opacity:1;fill-rule:nonzero;stroke:none" d="M 177.359 3844.78 C 103.551 3844.78 43.789 3784.97 43.789 3711.25 L 192.113 3711.25 L 177.359 3844.78"/>
    <path id="path3010" style="fill:#000000;fill-opacity:1;fill-rule:nonzero;stroke:none" d="M 46.313 3713.75 L 189.32 3713.75 L 175.121 3842.26 C 104.707 3841.08 47.633 3784.11 46.313 3713.75 Z M 192.113 3708.75 L 43.789 3708.75 C 42.406 3708.75 41.289 3709.86 41.289 3711.25 C 41.289 3786.25 102.328 3847.28 177.359 3847.28 C 178.633 3847.28 179.703 3846.32 179.844 3845.05 L 194.602 3711.52 C 194.68 3710.81 194.453 3710.11 193.977 3709.57 C 193.5 3709.05 192.828 3708.75 192.113 3708.75"/>
    <path id="path3012" style="fill:#bcc4cd;fill-opacity:1;fill-rule:nonzero;stroke:none" d="M 135.82 3725.25 C 135.82 3700.84 155.574 3681.1 179.984 3681.1 C 204.371 3681.1 224.199 3700.84 224.199 3725.25 C 224.199 3749.64 204.371 3769.43 179.984 3769.43 C 155.574 3769.43 135.82 3749.64 135.82 3725.25"/>
    <path id="path3014" style="fill:#000000;fill-opacity:1;fill-rule:nonzero;stroke:none" d="M 179.984 3766.93 C 157.012 3766.93 138.32 3748.23 138.32 3725.25 C 138.32 3702.29 157.012 3683.6 179.984 3683.6 C 202.988 3683.6 221.699 3702.29 221.699 3725.25 C 221.699 3748.23 202.988 3766.93 179.984 3766.93 Z M 179.984 3678.6 C 154.254 3678.6 133.32 3699.52 133.32 3725.25 C 133.32 3750.99 154.254 3771.93 179.984 3771.93 C 205.742 3771.93 226.699 3750.99 226.699 3725.25 C 226.699 3699.52 205.742 3678.6 179.984 3678.6"/>
    <path id="path3016" style="fill:#8192a4;fill-opacity:1;fill-rule:nonzero;stroke:none" d="M 150.395 3725.25 C 150.395 3708.89 163.648 3695.68 179.984 3695.68 C 196.344 3695.68 209.555 3708.89 209.555 3725.25 C 209.555 3741.59 196.344 3754.85 179.984 3754.85 C 163.648 3754.85 150.395 3741.59 150.395 3725.25"/>
    <path id="path3018" style="fill:#000000;fill-opacity:1;fill-rule:nonzero;stroke:none" d="M 179.984 3752.35 C 165.051 3752.35 152.895 3740.2 152.895 3725.25 C 152.895 3710.33 165.051 3698.18 179.984 3698.18 C 194.91 3698.18 207.055 3710.33 207.055 3725.25 C 207.055 3740.2 194.91 3752.35 179.984 3752.35 Z M 179.984 3693.18 C 162.289 3693.18 147.895 3707.57 147.895 3725.25 C 147.895 3742.95 162.289 3757.35 179.984 3757.35 C 197.672 3757.35 212.055 3742.95 212.055 3725.25 C 212.055 3707.57 197.672 3693.18 179.984 3693.18"/>
    <path id="path3020" style="fill:#8192a4;fill-opacity:1;fill-rule:nonzero;stroke:none" d="M 81.504 3627.05 L 175.645 3627.05 L 175.645 3670.984 L 81.504 3670.984 L 81.504 3627.05 Z"/>
    <path id="path3022" style="fill:#000000;fill-opacity:1;fill-rule:nonzero;stroke:none" d="M 84.004 3629.55 L 173.145 3629.55 L 173.145 3668.48 L 84.004 3668.48 L 84.004 3629.55 Z M 175.645 3624.55 L 81.504 3624.55 C 80.121 3624.55 79.004 3625.67 79.004 3627.05 L 79.004 3670.98 C 79.004 3672.37 80.121 3673.48 81.504 3673.48 L 175.645 3673.48 C 177.027 3673.48 178.145 3672.37 178.145 3670.98 L 178.145 3627.05 C 178.145 3625.67 177.027 3624.55 175.645 3624.55"/>
    <path id="path3024" style="fill:#8192a4;fill-opacity:1;fill-rule:nonzero;stroke:none" d="M 176.746 3511.81 L 176.746 3491.19 L 210.102 3491.19 L 217.676 3511.81 L 176.746 3511.81"/>
    <path id="path3026" style="fill:#000000;fill-opacity:1;fill-rule:nonzero;stroke:none" d="M 179.246 3493.69 L 208.359 3493.69 L 214.098 3509.31 L 179.246 3509.31 L 179.246 3493.69 Z M 210.102 3488.69 L 176.746 3488.69 C 175.367 3488.69 174.246 3489.81 174.246 3491.19 L 174.246 3511.81 C 174.246 3513.19 175.367 3514.31 176.746 3514.31 L 217.676 3514.31 C 218.492 3514.31 219.258 3513.91 219.727 3513.24 C 220.195 3512.57 220.305 3511.72 220.023 3510.95 L 212.449 3490.33 C 212.09 3489.34 211.152 3488.69 210.102 3488.69"/>
    <path id="path3028" style="fill:#8192a4;fill-opacity:1;fill-rule:nonzero;stroke:none" d="M 416.215 3511.81 L 416.215 3491.19 L 382.848 3491.19 L 375.273 3511.81 L 416.215 3511.81"/>
    <path id="path3030" style="fill:#000000;fill-opacity:1;fill-rule:nonzero;stroke:none" d="M 384.59 3493.69 L 413.715 3493.69 L 413.715 3509.31 L 378.852 3509.31 L 384.59 3493.69 Z M 416.215 3488.69 L 382.848 3488.69 C 381.797 3488.69 380.859 3489.34 380.496 3490.33 L 372.926 3510.95 C 372.645 3511.72 372.754 3512.57 373.223 3513.24 C 373.691 3513.91 374.457 3514.31 375.273 3514.31 L 416.215 3514.31 C 417.598 3514.31 418.715 3513.19 418.715 3511.81 L 418.715 3491.19 C 418.715 3489.81 417.598 3488.69 416.215 3488.69"/>
    <path id="path3032" style="fill:#9f582c;fill-opacity:1;fill-rule:nonzero;stroke:none" d="M 516.348 3549.25 L 496.238 3569.38 L 573.004 3646.14 L 593.125 3626.04 L 516.348 3549.25"/>
    <path id="path3034" style="fill:#000000;fill-opacity:1;fill-rule:nonzero;stroke:none" d="M 499.773 3569.38 L 516.348 3552.78 L 589.59 3626.04 L 573.004 3642.6 L 499.773 3569.38 Z M 516.348 3546.75 L 516.348 3546.75 C 515.684 3546.75 515.051 3547.01 514.578 3547.48 L 494.473 3567.62 C 493.496 3568.59 493.496 3570.18 494.473 3571.15 L 571.234 3647.9 C 572.211 3648.88 573.793 3648.88 574.77 3647.9 L 594.895 3627.8 C 595.359 3627.34 595.625 3626.7 595.625 3626.04 C 595.625 3625.38 595.359 3624.74 594.895 3624.27 L 518.113 3547.48 C 517.645 3547.01 517.012 3546.75 516.348 3546.75"/>
    <path id="path3036" style="fill:#425059;fill-opacity:1;fill-rule:nonzero;stroke:none" d="M 632.02 3663.21 L 610.18 3685.05 L 724.016 3798.88 L 745.867 3777.04 L 632.02 3663.21"/>
    <path id="path3038" style="fill:#000000;fill-opacity:1;fill-rule:nonzero;stroke:none" d="M 613.715 3685.05 L 632.02 3666.75 L 742.336 3777.04 L 724.016 3795.34 L 613.715 3685.05 Z M 632.02 3660.71 C 631.383 3660.71 630.742 3660.96 630.254 3661.45 L 608.414 3683.29 C 607.945 3683.75 607.68 3684.39 607.68 3685.05 C 607.68 3685.71 607.945 3686.35 608.414 3686.82 L 722.246 3800.64 C 723.223 3801.62 724.805 3801.62 725.781 3800.64 L 747.637 3778.8 C 748.105 3778.33 748.367 3777.7 748.367 3777.04 C 748.367 3776.37 748.105 3775.73 747.637 3775.27 L 633.789 3661.45 C 633.301 3660.96 632.66 3660.71 632.02 3660.71"/>
    <path id="path3040" style="fill:#bcc4cd;fill-opacity:1;fill-rule:nonzero;stroke:none" d="M 577.898 3689.89 L 612.691 3673.86 L 719.348 3780.52 L 729.402 3782.43 L 799.703 3852.74 L 726.227 3838.26 L 577.898 3689.89"/>
    <path id="path3042" style="fill:#000000;fill-opacity:1;fill-rule:nonzero;stroke:none" d="M 582.207 3690.66 L 612.152 3676.86 L 717.578 3782.29 C 717.934 3782.64 718.383 3782.88 718.879 3782.97 L 728.18 3784.75 L 792.125 3848.7 L 727.457 3835.96 L 582.207 3690.66 Z M 612.691 3671.36 C 612.336 3671.36 611.977 3671.43 611.645 3671.59 L 576.855 3687.62 C 576.113 3687.96 575.582 3688.64 575.438 3689.45 C 575.297 3690.25 575.559 3691.08 576.133 3691.65 L 724.457 3840.03 C 724.809 3840.38 725.254 3840.62 725.742 3840.71 L 799.219 3855.2 C 800.297 3855.4 801.391 3854.89 801.91 3853.92 C 802.426 3852.95 802.246 3851.75 801.469 3850.98 L 731.172 3780.67 C 730.816 3780.31 730.367 3780.07 729.871 3779.98 L 720.57 3778.21 L 614.457 3672.09 C 613.98 3671.61 613.34 3671.36 612.691 3671.36"/>
    <path id="path3044" style="fill:#8192a4;fill-opacity:1;fill-rule:nonzero;stroke:none" d="M 620.824 3665.73 L 636.891 3630.87 L 785.227 3779.24 L 799.703 3852.74 L 729.402 3782.43 L 727.488 3772.38 L 620.824 3665.73"/>
    <path id="path3046" style="fill:#000000;fill-opacity:1;fill-rule:nonzero;stroke:none" d="M 623.824 3665.19 L 637.656 3635.18 L 782.922 3780.47 L 795.664 3845.16 L 731.715 3781.21 L 729.945 3771.91 C 729.855 3771.41 729.613 3770.96 729.258 3770.61 L 623.824 3665.19 Z M 636.891 3628.37 C 636.742 3628.37 636.598 3628.39 636.449 3628.41 C 635.645 3628.55 634.961 3629.09 634.617 3629.83 L 618.555 3664.68 C 618.113 3665.63 618.316 3666.75 619.059 3667.5 L 725.18 3773.6 L 726.949 3782.9 C 727.043 3783.4 727.281 3783.85 727.637 3784.2 L 797.934 3854.51 C 798.707 3855.28 799.91 3855.47 800.879 3854.95 C 801.852 3854.43 802.367 3853.34 802.152 3852.26 L 787.676 3778.75 C 787.582 3778.27 787.344 3777.82 786.992 3777.47 L 638.656 3629.11 C 638.184 3628.63 637.551 3628.37 636.891 3628.37"/>
    <path id="path3048" style="fill:#8192a4;fill-opacity:1;fill-rule:nonzero;stroke:none" d="M 581.57 3634.58 L 644.148 3618.96 L 628.535 3681.55 L 565.941 3697.17 L 581.57 3634.58"/>
    <path id="path3050" style="fill:#000000;fill-opacity:1;fill-rule:nonzero;stroke:none" d="M 583.633 3636.64 L 640.719 3622.39 L 626.477 3679.48 L 569.375 3693.74 L 583.633 3636.64 Z M 644.148 3616.46 C 643.949 3616.46 643.746 3616.48 643.547 3616.53 L 580.969 3632.16 C 580.066 3632.38 579.371 3633.08 579.145 3633.98 L 563.516 3696.57 C 563.305 3697.41 563.555 3698.32 564.176 3698.94 C 564.789 3699.56 565.699 3699.81 566.547 3699.6 L 629.141 3683.97 C 630.039 3683.75 630.738 3683.05 630.961 3682.15 L 646.578 3619.56 C 646.785 3618.71 646.539 3617.81 645.918 3617.19 C 645.445 3616.72 644.805 3616.46 644.148 3616.46"/>
    <path id="path3052" style="fill:#8192a4;fill-opacity:1;fill-rule:nonzero;stroke:none" d="M 531.152 3541.16 C 537.078 3547.11 537.77 3555.98 532.621 3561.13 L 508.145 3585.62 C 503.027 3590.73 494.102 3590.14 488.168 3584.21 C 482.844 3578.87 481.777 3571.05 485.387 3565.82 C 481.879 3561.59 481.66 3555.77 485.129 3552.31 L 499.273 3538.18 C 502.77 3534.71 508.52 3534.9 512.793 3538.37 C 518.035 3534.75 525.805 3535.8 531.152 3541.16"/>
    <path id="path3054" style="fill:#000000;fill-opacity:1;fill-rule:nonzero;stroke:none" d="M 499.438 3586.59 C 496.035 3586.59 492.574 3585.08 489.938 3582.44 C 485.563 3578.05 484.492 3571.52 487.441 3567.25 C 488.082 3566.32 488.027 3565.09 487.313 3564.23 C 484.586 3560.93 484.402 3556.57 486.895 3554.08 L 501.039 3539.95 C 503.508 3537.5 507.98 3537.68 511.215 3540.31 C 512.074 3541 513.297 3541.06 514.215 3540.42 C 515.805 3539.32 517.754 3538.75 519.848 3538.75 C 519.855 3538.75 519.855 3538.75 519.855 3538.75 C 523.258 3538.75 526.73 3540.27 529.387 3542.93 C 534.313 3547.88 534.977 3555.24 530.855 3559.36 L 506.379 3583.85 C 504.609 3585.62 502.145 3586.59 499.438 3586.59 Z M 505.543 3533.17 C 502.465 3533.17 499.613 3534.32 497.512 3536.4 L 483.359 3550.54 C 479.418 3554.48 479.105 3560.85 482.395 3565.96 C 479.188 3572.16 480.738 3580.3 486.402 3585.98 C 493.023 3592.61 504.027 3593.27 509.91 3587.39 L 534.391 3562.89 C 540.453 3556.84 539.801 3546.29 532.926 3539.4 C 529.336 3535.8 524.574 3533.75 519.855 3533.75 C 519.855 3533.75 519.855 3533.75 519.848 3533.75 C 517.371 3533.75 515.004 3534.3 512.922 3535.38 C 510.648 3533.95 508.086 3533.17 505.543 3533.17"/>
    <path id="path3056" style="fill:#425059;fill-opacity:1;fill-rule:nonzero;stroke:none" d="M 628.434 3634.48 C 641.406 3647.45 641.363 3668.5 628.414 3681.45 C 615.434 3694.42 594.418 3694.42 581.441 3681.46 C 568.473 3668.47 568.473 3647.45 581.469 3634.46 C 594.438 3621.49 615.434 3621.51 628.434 3634.48"/>
    <path id="path3058" style="fill:#000000;fill-opacity:1;fill-rule:nonzero;stroke:none" d="M 604.918 3688.68 C 596.719 3688.68 589.008 3685.49 583.207 3679.7 C 571.234 3667.7 571.25 3648.21 583.238 3636.23 C 589.031 3630.44 596.734 3627.25 604.926 3627.25 C 613.125 3627.25 620.844 3630.44 626.664 3636.25 C 632.461 3642.04 635.648 3649.75 635.645 3657.97 C 635.637 3666.18 632.441 3673.89 626.645 3679.68 C 620.84 3685.48 613.125 3688.68 604.918 3688.68 Z M 604.926 3622.25 L 604.926 3622.25 C 595.398 3622.25 586.441 3625.96 579.703 3632.7 C 565.766 3646.62 565.754 3669.28 579.672 3683.23 C 586.422 3689.97 595.387 3693.68 604.918 3693.68 C 614.457 3693.68 623.43 3689.96 630.18 3683.21 C 636.918 3676.48 640.637 3667.51 640.645 3657.97 C 640.652 3648.42 636.941 3639.45 630.199 3632.71 C 623.438 3625.96 614.465 3622.25 604.926 3622.25"/>
    <path id="path3060" style="fill:#eb4900;fill-opacity:1;fill-rule:nonzero;stroke:none" d="M 616.688 3646.22 C 623.18 3652.71 623.152 3663.23 616.688 3669.7 C 610.199 3676.18 599.695 3676.18 593.207 3669.7 C 586.699 3663.21 586.699 3652.71 593.188 3646.21 C 599.68 3639.72 610.199 3639.73 616.688 3646.22"/>
    <path id="path3062" style="fill:#000000;fill-opacity:1;fill-rule:nonzero;stroke:none" d="M 604.945 3672.06 C 601.184 3672.06 597.641 3670.59 594.977 3667.93 C 592.301 3665.27 590.828 3661.73 590.824 3657.97 C 590.82 3654.2 592.285 3650.65 594.957 3647.98 C 597.617 3645.32 601.156 3643.85 604.926 3643.85 L 604.926 3643.85 C 608.699 3643.85 612.25 3645.32 614.922 3647.99 C 617.582 3650.65 619.047 3654.2 619.047 3657.97 C 619.043 3661.74 617.578 3665.28 614.922 3667.93 C 612.258 3670.59 608.715 3672.06 604.945 3672.06 Z M 604.926 3638.85 L 604.926 3638.85 C 599.824 3638.85 595.023 3640.84 591.422 3644.44 C 587.805 3648.07 585.816 3652.87 585.824 3657.98 C 585.828 3663.07 587.828 3667.87 591.445 3671.47 C 598.66 3678.69 611.23 3678.68 618.457 3671.47 C 622.063 3667.87 624.043 3663.07 624.047 3657.97 C 624.055 3652.86 622.066 3648.06 618.457 3644.46 C 614.844 3640.84 610.035 3638.85 604.926 3638.85"/>
    <path id="path3064" style="fill:#bcc4cd;fill-opacity:1;fill-rule:nonzero;stroke:none" d="M 277.891 3663.21 C 277.891 3592.84 220.797 3535.73 150.395 3535.73 C 79.98 3535.73 22.895 3592.84 22.895 3663.21 C 22.895 3733.66 79.98 3790.71 150.395 3790.71 C 220.797 3790.71 277.891 3733.66 277.891 3663.21"/>
    <path id="path3066" style="fill:#000000;fill-opacity:1;fill-rule:nonzero;stroke:none" d="M 150.395 3788.21 C 81.469 3788.21 25.395 3732.14 25.395 3663.21 C 25.395 3594.3 81.469 3538.23 150.395 3538.23 C 219.316 3538.23 275.391 3594.3 275.391 3663.21 C 275.391 3732.14 219.316 3788.21 150.395 3788.21 Z M 150.395 3533.23 C 78.711 3533.23 20.395 3591.54 20.395 3663.21 C 20.395 3734.9 78.711 3793.21 150.395 3793.21 C 222.074 3793.21 280.391 3734.9 280.391 3663.21 C 280.391 3591.54 222.074 3533.23 150.395 3533.23"/>
    <path id="path3068" style="fill:#8192a4;fill-opacity:1;fill-rule:nonzero;stroke:none" d="M 239.664 3663.21 C 239.664 3613.94 199.688 3573.96 150.395 3573.96 C 101.098 3573.96 61.137 3613.94 61.137 3663.21 C 61.137 3712.54 101.098 3752.5 150.395 3752.5 C 199.688 3752.5 239.664 3712.54 239.664 3663.21"/>
    <path id="path3070" style="fill:#000000;fill-opacity:1;fill-rule:nonzero;stroke:none" d="M 150.395 3750 C 102.559 3750 63.637 3711.07 63.637 3663.21 C 63.637 3615.38 102.559 3576.46 150.395 3576.46 C 198.238 3576.46 237.164 3615.38 237.164 3663.21 C 237.164 3711.07 198.238 3750 150.395 3750 Z M 150.395 3571.46 C 99.801 3571.46 58.637 3612.63 58.637 3663.21 C 58.637 3713.83 99.801 3755 150.395 3755 C 200.996 3755 242.164 3713.83 242.164 3663.21 C 242.164 3612.63 200.996 3571.46 150.395 3571.46"/>
    <path id="path3072" style="fill:#425059;fill-opacity:1;fill-rule:nonzero;stroke:none" d="M 172.703 3663.23 C 172.703 3650.91 162.727 3640.92 150.395 3640.92 C 138.074 3640.92 128.074 3650.91 128.074 3663.23 C 128.074 3675.56 138.074 3685.55 150.395 3685.55 C 162.727 3685.55 172.703 3675.56 172.703 3663.23"/>
    <path id="path3074" style="fill:#000000;fill-opacity:1;fill-rule:nonzero;stroke:none" d="M 150.395 3683.05 C 139.469 3683.05 130.574 3674.16 130.574 3663.23 C 130.574 3652.31 139.469 3643.42 150.395 3643.42 C 161.316 3643.42 170.203 3652.31 170.203 3663.23 C 170.203 3674.16 161.316 3683.05 150.395 3683.05 Z M 150.395 3638.42 C 136.711 3638.42 125.574 3649.55 125.574 3663.23 C 125.574 3676.92 136.711 3688.05 150.395 3688.05 C 164.078 3688.05 175.203 3676.92 175.203 3663.23 C 175.203 3649.55 164.078 3638.42 150.395 3638.42"/>
  </g>
</svg>