<?xml version="1.0" encoding="utf-8"?>
<svg viewBox="552.0339965820312 434.8699951171875 78.08999633789062 91.26799774169922" width="78.08999633789062" height="91.26799774169922" xmlns="http://www.w3.org/2000/svg">
  <g transform="matrix(0.12500000186264515, 0, 0, -0.12500000186264515, 0, 526.1375122070312)">
    <path id="path52" style="fill:#ddd8bf;fill-opacity:1;fill-rule:nonzero;stroke:none" d="M 4913.49 27.141 C 4913.49 12.16 4802.19 0 4664.88 0 C 4527.58 0 4416.27 12.16 4416.27 27.141 C 4416.27 42.129 4527.58 54.289 4664.88 54.289 C 4802.19 54.289 4913.49 42.129 4913.49 27.141"/>
    <path id="path3684" style="fill:#f4d9bd;fill-opacity:1;fill-rule:nonzero;stroke:none" d="M 4451.2 114.191 C 4451.2 101.789 4461.25 91.742 4473.64 91.742 L 4503.31 91.742 C 4515.69 91.742 4525.73 101.789 4525.73 114.191 L 4525.73 143.82 C 4525.73 156.219 4515.69 166.281 4503.31 166.281 L 4473.64 166.281 C 4461.25 166.281 4451.2 156.219 4451.2 143.82 L 4451.2 114.191"/>
    <path id="path3686" style="fill:#000000;fill-opacity:1;fill-rule:nonzero;stroke:none" d="M 4473.64 163.781 C 4462.65 163.781 4453.7 154.832 4453.7 143.82 L 4453.7 114.191 C 4453.7 103.191 4462.65 94.242 4473.64 94.242 L 4503.31 94.242 C 4514.3 94.242 4523.23 103.191 4523.23 114.191 L 4523.23 143.82 C 4523.23 154.832 4514.3 163.781 4503.31 163.781 L 4473.64 163.781 Z M 4503.31 89.242 L 4473.64 89.242 C 4459.89 89.242 4448.7 100.43 4448.7 114.191 L 4448.7 143.82 C 4448.7 157.582 4459.89 168.781 4473.64 168.781 L 4503.31 168.781 C 4517.05 168.781 4528.23 157.582 4528.23 143.82 L 4528.23 114.191 C 4528.23 100.43 4517.05 89.242 4503.31 89.242"/>
    <path id="path3688" style="fill:#0c3841;fill-opacity:1;fill-rule:nonzero;stroke:none" d="M 4505.39 334.398 C 4502.22 322.852 4437.31 173.332 4437.35 161.629 L 4522.78 119.441 C 4522.74 131.141 4545.46 322.852 4548.62 334.398 L 4505.39 334.398"/>
    <path id="path3690" style="fill:#000000;fill-opacity:1;fill-rule:nonzero;stroke:none" d="M 4440.05 163.09 L 4520.49 123.359 C 4522.66 152.25 4541.17 306.211 4545.59 331.898 L 4507.21 331.898 C 4504.73 324.859 4496.2 304.309 4485.67 278.98 C 4468.32 237.172 4442.53 175.059 4440.05 163.09 Z M 4522.78 116.941 C 4522.4 116.941 4522.02 117.02 4521.68 117.191 L 4436.25 159.391 C 4435.4 159.809 4434.85 160.68 4434.85 161.621 C 4434.82 168.969 4454.86 217.809 4481.05 280.891 C 4492.22 307.781 4501.87 330.988 4502.98 335.059 C 4503.28 336.148 4504.27 336.898 4505.39 336.898 L 4548.62 336.898 C 4549.4 336.898 4550.14 336.539 4550.62 335.91 C 4551.08 335.301 4551.24 334.492 4551.04 333.73 C 4548.11 323.031 4525.23 132.77 4525.28 119.449 C 4525.28 118.582 4524.84 117.781 4524.1 117.32 C 4523.7 117.059 4523.24 116.941 4522.78 116.941"/>
    <path id="path3692" style="fill:#c9a88b;fill-opacity:1;fill-rule:nonzero;stroke:none" d="M 4987.06 312.398 C 4999.46 312.398 5009.52 302.359 5009.52 289.969 L 5009.52 260.289 C 5009.52 247.91 4999.46 237.859 4987.06 237.859 L 4957.43 237.859 C 4945.02 237.859 4934.97 247.91 4934.97 260.289 L 4934.97 289.969 C 4934.97 302.359 4945.02 312.398 4957.43 312.398 L 4987.06 312.398"/>
    <path id="path3694" style="fill:#000000;fill-opacity:1;fill-rule:nonzero;stroke:none" d="M 4957.43 309.898 C 4946.43 309.898 4937.47 300.961 4937.47 289.969 L 4937.47 260.289 C 4937.47 249.301 4946.43 240.359 4957.43 240.359 L 4987.06 240.359 C 4998.07 240.359 5007.02 249.301 5007.02 260.289 L 5007.02 289.969 C 5007.02 300.961 4998.07 309.898 4987.06 309.898 L 4957.43 309.898 Z M 4987.06 235.359 L 4957.43 235.359 C 4943.67 235.359 4932.47 246.551 4932.47 260.289 L 4932.47 289.969 C 4932.47 303.711 4943.67 314.898 4957.43 314.898 L 4987.06 314.898 C 5000.82 314.898 5012.02 303.711 5012.02 289.969 L 5012.02 260.289 C 5012.02 246.551 5000.82 235.359 4987.06 235.359"/>
    <path id="path3696" style="fill:#f4d9bd;fill-opacity:1;fill-rule:nonzero;stroke:none" d="M 4949.93 312.398 C 4958.21 312.398 4964.91 305.719 4964.91 297.422 L 4964.91 284.391 C 4964.91 276.109 4958.21 269.422 4949.93 269.422 L 4949.93 269.422 C 4941.69 269.422 4934.97 276.109 4934.97 284.391 L 4934.97 297.422 C 4934.97 305.719 4941.69 312.398 4949.93 312.398 L 4949.93 312.398"/>
    <path id="path3698" style="fill:#000000;fill-opacity:1;fill-rule:nonzero;stroke:none" d="M 4949.93 309.898 C 4943.06 309.898 4937.47 304.301 4937.47 297.422 L 4937.47 284.391 C 4937.47 277.512 4943.06 271.922 4949.93 271.922 C 4956.82 271.922 4962.41 277.512 4962.41 284.391 L 4962.41 297.422 C 4962.41 304.301 4956.82 309.898 4949.93 309.898 Z M 4949.93 266.922 C 4940.3 266.922 4932.47 274.762 4932.47 284.391 L 4932.47 297.422 C 4932.47 307.051 4940.3 314.898 4949.93 314.898 C 4959.57 314.898 4967.41 307.051 4967.41 297.422 L 4967.41 284.391 C 4967.41 274.762 4959.57 266.922 4949.93 266.922"/>
    <path id="path3700" style="fill:#0c3841;fill-opacity:1;fill-rule:nonzero;stroke:none" d="M 4766.85 322.02 L 4766.85 278.781 C 4778.41 281.961 4927.92 220.301 4939.62 220.25 L 4939.62 322.02 L 4766.85 322.02"/>
    <path id="path3702" style="fill:#000000;fill-opacity:1;fill-rule:nonzero;stroke:none" d="M 4769.35 281.32 C 4782 280.039 4826.94 263.219 4870.47 246.93 C 4898.71 236.359 4927.8 225.469 4937.12 223.191 L 4937.12 319.52 L 4769.35 319.52 L 4769.35 281.32 Z M 4939.62 217.75 L 4939.61 217.75 C 4934.38 217.77 4909.26 227.07 4868.72 242.25 C 4828.06 257.461 4777.46 276.398 4767.97 276.398 C 4767.24 276.199 4766.18 276.332 4765.57 276.809 C 4764.94 277.281 4764.35 278 4764.35 278.781 L 4764.35 322.02 C 4764.35 323.398 4765.47 324.52 4766.85 324.52 L 4939.62 324.52 C 4941 324.52 4942.12 323.398 4942.12 322.02 L 4942.12 220.25 C 4942.12 219.582 4941.86 218.949 4941.39 218.48 C 4940.92 218.012 4940.28 217.75 4939.62 217.75"/>
    <path id="path3704" style="fill:#2a5b6a;fill-opacity:1;fill-rule:nonzero;stroke:none" d="M 4811.46 31.352 C 4811.57 49.07 4793.12 309.84 4788.86 325.52 L 4538.19 325.52 C 4533.86 309.711 4502.77 47.359 4502.82 31.352 L 4811.46 31.352"/>
    <path id="path3706" style="fill:#000000;fill-opacity:1;fill-rule:nonzero;stroke:none" d="M 4505.41 33.852 L 4808.92 33.852 C 4808.01 66.34 4791.16 296.82 4786.82 323.02 L 4540.2 323.02 C 4535.01 296.48 4507.2 65.172 4505.41 33.852 Z M 4811.46 28.852 L 4502.82 28.852 C 4501.45 28.852 4500.32 29.961 4500.32 31.34 C 4500.26 49.699 4531.75 311.48 4535.78 326.18 C 4536.08 327.27 4537.07 328.02 4538.19 328.02 L 4788.86 328.02 C 4789.99 328.02 4790.98 327.27 4791.27 326.18 C 4796.02 308.691 4814.05 45.582 4813.96 31.332 C 4813.95 29.961 4812.83 28.852 4811.46 28.852"/>
    <path id="path3708" style="fill:#bcc4cd;fill-opacity:1;fill-rule:nonzero;stroke:none" d="M 4511.94 155.719 L 4803.518 155.719 L 4803.518 187.86 L 4511.94 187.86 L 4511.94 155.719 Z"/>
    <path id="path3710" style="fill:#000000;fill-opacity:1;fill-rule:nonzero;stroke:none" d="M 4514.44 158.219 L 4801.02 158.219 L 4801.02 185.359 L 4514.44 185.359 L 4514.44 158.219 Z M 4803.52 153.219 L 4511.94 153.219 C 4510.57 153.219 4509.44 154.34 4509.44 155.719 L 4509.44 187.859 C 4509.44 189.242 4510.57 190.359 4511.94 190.359 L 4803.52 190.359 C 4804.89 190.359 4806.02 189.242 4806.02 187.859 L 4806.02 155.719 C 4806.02 154.34 4804.89 153.219 4803.52 153.219"/>
    <path id="path3712" style="fill:#2a5b6a;fill-opacity:1;fill-rule:nonzero;stroke:none" d="M 4657.6 727.641 C 4534.24 727.641 4434.26 627.66 4434.26 504.27 L 4434.26 465.629 C 4434.26 376.809 4506.24 305.762 4595.07 305.762 L 4720.17 305.762 C 4808.97 305.762 4880.97 376.809 4880.97 465.629 L 4880.97 504.27 C 4880.97 627.66 4780.95 727.641 4657.6 727.641"/>
    <path id="path3714" style="fill:#000000;fill-opacity:1;fill-rule:nonzero;stroke:none" d="M 4657.6 725.141 C 4535.83 725.141 4436.76 626.059 4436.76 504.27 L 4436.76 465.629 C 4436.76 378.852 4507.77 308.262 4595.07 308.262 L 4720.17 308.262 C 4807.45 308.262 4878.47 378.852 4878.47 465.629 L 4878.47 504.27 C 4878.47 626.059 4779.38 725.141 4657.6 725.141 Z M 4720.17 303.262 L 4595.07 303.262 C 4505.02 303.262 4431.76 376.102 4431.76 465.629 L 4431.76 504.27 C 4431.76 628.809 4533.07 730.141 4657.6 730.141 C 4782.14 730.141 4883.47 628.809 4883.47 504.27 L 4883.47 465.629 C 4883.47 376.102 4810.21 303.262 4720.17 303.262"/>
    <path id="path3716" style="fill:#0c3841;fill-opacity:1;fill-rule:nonzero;stroke:none" d="M 4873.64 441.789 C 4873.64 366.648 4812.74 305.762 4737.61 305.762 L 4687.78 305.762 C 4612.64 305.762 4551.73 366.648 4551.73 441.789 L 4551.73 441.789 C 4551.73 516.91 4612.64 577.82 4687.78 577.82 L 4737.61 577.82 C 4812.74 577.82 4873.64 516.91 4873.64 441.789 L 4873.64 441.789"/>
    <path id="path3718" style="fill:#06180b;fill-opacity:1;fill-rule:nonzero;stroke:none" d="M 4858.06 428.609 C 4858.06 360.762 4803.06 305.762 4735.2 305.762 L 4690.19 305.762 C 4622.32 305.762 4567.31 360.762 4567.31 428.609 L 4567.31 428.609 C 4567.31 496.461 4622.32 551.48 4690.19 551.48 L 4735.2 551.48 C 4803.06 551.48 4858.06 496.461 4858.06 428.609 L 4858.06 428.609"/>
    <path id="path3720" style="fill:#eb4900;fill-opacity:1;fill-rule:nonzero;stroke:none" d="M 4819.18 425.922 C 4835.76 425.922 4849.14 439.352 4849.14 455.922 L 4789.4 455.922 C 4789.4 439.352 4802.73 425.922 4819.18 425.922"/>
    <path id="path3722" style="fill:#000000;fill-opacity:1;fill-rule:nonzero;stroke:none" d="M 4792.01 453.422 C 4793.27 439.43 4804.97 428.422 4819.18 428.422 C 4833.48 428.422 4845.26 439.43 4846.52 453.422 L 4792.01 453.422 Z M 4819.18 423.422 C 4801.39 423.422 4786.9 438 4786.9 455.922 C 4786.9 457.301 4788.03 458.422 4789.4 458.422 L 4849.14 458.422 C 4850.52 458.422 4851.64 457.301 4851.64 455.922 C 4851.64 438 4837.08 423.422 4819.18 423.422"/>
    <path id="path3724" style="fill:#eb4900;fill-opacity:1;fill-rule:nonzero;stroke:none" d="M 4608.27 425.922 C 4624.84 425.922 4638.17 439.352 4638.17 455.922 L 4578.43 455.922 C 4578.43 439.352 4591.81 425.922 4608.27 425.922"/>
    <path id="path3726" style="fill:#000000;fill-opacity:1;fill-rule:nonzero;stroke:none" d="M 4581.04 453.422 C 4582.29 439.43 4594.03 428.422 4608.27 428.422 C 4622.54 428.422 4634.3 439.43 4635.57 453.422 L 4581.04 453.422 Z M 4608.27 423.422 C 4590.44 423.422 4575.93 438 4575.93 455.922 C 4575.93 457.301 4577.05 458.422 4578.43 458.422 L 4638.17 458.422 C 4639.55 458.422 4640.67 457.301 4640.67 455.922 C 4640.67 438 4626.14 423.422 4608.27 423.422"/>
    <path id="path3728" style="fill:#0c3841;fill-opacity:1;fill-rule:nonzero;stroke:none" d="M 4500.13 46.371 L 4640.583 46.371 L 4640.583 163.809 L 4500.13 163.809 L 4500.13 46.371 Z"/>
    <path id="path3730" style="fill:#000000;fill-opacity:1;fill-rule:nonzero;stroke:none" d="M 4502.63 48.871 L 4638.08 48.871 L 4638.08 161.309 L 4502.63 161.309 L 4502.63 48.871 Z M 4640.58 43.871 L 4500.13 43.871 C 4498.75 43.871 4497.63 44.988 4497.63 46.371 L 4497.63 163.809 C 4497.63 165.191 4498.75 166.309 4500.13 166.309 L 4640.58 166.309 C 4641.95 166.309 4643.08 165.191 4643.08 163.809 L 4643.08 46.371 C 4643.08 44.988 4641.95 43.871 4640.58 43.871"/>
    <path id="path3732" style="fill:#59b587;fill-opacity:1;fill-rule:nonzero;stroke:none" d="M 4604.7 179.02 L 4541.87 179.02 C 4507.18 179.02 4500.15 175.621 4500.15 171.41 C 4500.15 167.219 4500.15 163.809 4500.15 163.809 L 4500.13 163.809 L 4500.13 46.371 L 4583.97 46.371 L 4583.97 163.809 L 4640.58 163.809 L 4604.7 179.02"/>
    <path id="path3734" style="fill:#000000;fill-opacity:1;fill-rule:nonzero;stroke:none" d="M 4502.63 48.871 L 4581.47 48.871 L 4581.47 163.809 C 4581.47 165.191 4582.6 166.309 4583.97 166.309 L 4628.27 166.309 L 4604.19 176.52 L 4541.87 176.52 C 4505.48 176.52 4502.65 172.609 4502.65 171.41 L 4502.65 163.809 C 4502.65 163.699 4502.64 163.602 4502.63 163.5 L 4502.63 48.871 Z M 4583.97 43.871 L 4500.13 43.871 C 4498.75 43.871 4497.63 44.988 4497.63 46.371 L 4497.63 163.809 C 4497.63 163.922 4497.64 164.031 4497.65 164.121 L 4497.65 171.41 C 4497.65 177.82 4504.88 181.52 4541.87 181.52 L 4604.7 181.52 C 4605.03 181.52 4605.36 181.449 4605.67 181.32 L 4641.55 166.121 C 4642.65 165.648 4643.26 164.48 4643.03 163.309 C 4642.79 162.148 4641.77 161.309 4640.58 161.309 L 4586.47 161.309 L 4586.47 46.371 C 4586.47 44.988 4585.35 43.871 4583.97 43.871"/>
    <path id="path3736" style="fill:#7acea6;fill-opacity:1;fill-rule:nonzero;stroke:none" d="M 4604.7 179.02 C 4584.85 179.02 4568.78 175.621 4568.78 171.41 C 4568.78 167.219 4568.78 163.809 4568.78 163.809 L 4568.8 163.809 L 4568.8 46.371 L 4583.97 46.371 L 4583.97 163.809 L 4625.4 163.809 L 4625.4 46.371 L 4640.58 46.371 L 4640.58 171.41 C 4640.58 175.621 4624.5 179.02 4604.7 179.02"/>
    <path id="path3738" style="fill:#000000;fill-opacity:1;fill-rule:nonzero;stroke:none" d="M 4627.9 48.871 L 4638.08 48.871 L 4638.08 171.41 C 4636.97 173.039 4624.8 176.52 4604.7 176.52 C 4583.59 176.52 4572.31 172.922 4571.21 171.102 L 4571.28 164.141 C 4571.29 164.039 4571.3 163.93 4571.3 163.809 L 4571.3 48.871 L 4581.47 48.871 L 4581.47 163.809 C 4581.47 165.191 4582.6 166.309 4583.97 166.309 L 4625.4 166.309 C 4626.78 166.309 4627.9 165.191 4627.9 163.809 L 4627.9 48.871 Z M 4640.58 43.871 L 4625.4 43.871 C 4624.02 43.871 4622.9 44.988 4622.9 46.371 L 4622.9 161.309 L 4586.47 161.309 L 4586.47 46.371 C 4586.47 44.988 4585.35 43.871 4583.97 43.871 L 4568.8 43.871 C 4567.42 43.871 4566.3 44.988 4566.3 46.371 L 4566.3 163.5 C 4566.29 163.609 4566.28 163.699 4566.28 163.809 L 4566.28 171.41 C 4566.28 181.23 4600.76 181.52 4604.7 181.52 C 4608.62 181.52 4643.08 181.23 4643.08 171.41 L 4643.08 46.371 C 4643.08 44.988 4641.95 43.871 4640.58 43.871"/>
    <path id="path3740" style="fill:#f2f1e7;fill-opacity:1;fill-rule:nonzero;stroke:none" d="M 4583.97 53.301 L 4625.4 53.301 L 4625.4 156.879 L 4583.97 156.879 L 4583.97 53.301 Z"/>
    <path id="path3742" style="fill:#000000;fill-opacity:1;fill-rule:nonzero;stroke:none" d="M 4586.47 55.801 L 4622.9 55.801 L 4622.9 154.379 L 4586.47 154.379 L 4586.47 55.801 Z M 4625.4 50.801 L 4583.97 50.801 C 4582.6 50.801 4581.47 51.93 4581.47 53.301 L 4581.47 156.879 C 4581.47 158.262 4582.6 159.379 4583.97 159.379 L 4625.4 159.379 C 4626.78 159.379 4627.9 158.262 4627.9 156.879 L 4627.9 53.301 C 4627.9 51.93 4626.78 50.801 4625.4 50.801"/>
    <path id="path3744" style="fill:#997755;fill-opacity:1;fill-rule:nonzero;stroke:none" d="M 4956.43 31.352 L 4988.071 31.352 L 4988.071 508.641 L 4956.43 508.641 L 4956.43 31.352 Z"/>
    <path id="path3746" style="fill:#000000;fill-opacity:1;fill-rule:nonzero;stroke:none" d="M 4958.93 33.852 L 4985.57 33.852 L 4985.57 506.141 L 4958.93 506.141 L 4958.93 33.852 Z M 4988.07 28.852 L 4956.43 28.852 C 4955.05 28.852 4953.93 29.969 4953.93 31.352 L 4953.93 508.641 C 4953.93 510.012 4955.05 511.141 4956.43 511.141 L 4988.07 511.141 C 4989.44 511.141 4990.57 510.012 4990.57 508.641 L 4990.57 31.352 C 4990.57 29.969 4989.44 28.852 4988.07 28.852"/>
    <path id="path3748" style="fill:#f2f1e7;fill-opacity:1;fill-rule:nonzero;stroke:none" d="M 5023.28 539.199 C 5032.78 550.68 5038.49 565.379 5038.49 581.441 C 5038.49 618.02 5008.82 647.711 4972.24 647.711 C 4935.65 647.711 4905.99 618.02 4905.99 581.441 C 4905.99 565.379 4911.71 550.68 4921.2 539.199 C 4912.68 538.309 4905.99 531.18 4905.99 522.41 C 4905.99 513.039 4913.57 505.449 4922.94 505.449 C 4928.21 505.449 4932.86 507.898 4935.98 511.672 L 4935.98 501.789 L 4936.56 501.789 C 4936.2 500.949 4935.98 500.031 4935.98 499.082 C 4935.98 495.07 4935.98 491.852 4935.98 491.852 L 4951.21 491.852 L 4951.21 499.082 C 4951.21 500.031 4950.99 500.949 4950.62 501.789 L 4955.65 501.789 C 4955.28 500.949 4955.05 500.031 4955.05 499.082 C 4955.05 495.07 4955.05 491.852 4955.05 491.852 L 4970.31 491.852 L 4970.31 499.082 C 4970.31 500.031 4970.11 500.949 4969.74 501.789 L 4974.75 501.789 C 4974.38 500.949 4974.17 500.031 4974.17 499.082 C 4974.17 495.07 4974.17 491.852 4974.17 491.852 L 4989.4 491.852 L 4989.4 499.082 C 4989.4 500.031 4989.19 500.949 4988.83 501.789 L 4993.86 501.789 C 4993.5 500.949 4993.28 500.031 4993.28 499.082 C 4993.28 495.07 4993.28 491.852 4993.28 491.852 L 5008.52 491.852 L 5008.52 499.082 C 5008.52 500.031 5008.3 500.949 5007.93 501.789 L 5008.52 501.789 L 5008.52 511.672 C 5011.63 507.898 5016.28 505.449 5021.55 505.449 C 5030.91 505.449 5038.49 513.039 5038.49 522.41 C 5038.49 531.199 5031.81 538.332 5023.28 539.199"/>
    <path id="path3750" style="fill:#000000;fill-opacity:1;fill-rule:nonzero;stroke:none" d="M 4995.78 494.352 L 5006.02 494.352 L 5006.02 499.082 C 5006.02 499.648 5005.89 500.219 5005.64 500.781 C 5005.3 501.559 5005.37 502.441 5005.83 503.16 C 5005.89 503.242 5005.95 503.32 5006.02 503.398 L 5006.02 511.672 C 5006.02 512.73 5006.68 513.672 5007.67 514.031 C 5008.68 514.379 5009.78 514.082 5010.44 513.27 C 5013.23 509.891 5017.29 507.949 5021.55 507.949 C 5029.51 507.949 5035.99 514.441 5035.99 522.41 C 5035.99 529.809 5030.42 535.961 5023.03 536.711 C 5022.11 536.809 5021.32 537.41 5020.97 538.262 C 5020.62 539.102 5020.77 540.082 5021.36 540.789 C 5030.79 552.191 5035.99 566.621 5035.99 581.441 C 5035.99 616.602 5007.39 645.211 4972.24 645.211 C 4937.08 645.211 4908.49 616.602 4908.49 581.441 C 4908.49 566.641 4913.68 552.211 4923.13 540.789 C 4923.71 540.082 4923.87 539.109 4923.52 538.262 C 4923.16 537.41 4922.37 536.809 4921.46 536.711 C 4914.06 535.941 4908.49 529.789 4908.49 522.41 C 4908.49 514.441 4914.97 507.949 4922.94 507.949 C 4927.21 507.949 4931.26 509.891 4934.05 513.27 C 4934.72 514.082 4935.82 514.379 4936.83 514.031 C 4937.81 513.672 4938.48 512.73 4938.48 511.672 L 4938.48 502.969 C 4938.88 502.309 4939.16 501.512 4938.86 500.801 C 4938.6 500.211 4938.48 499.629 4938.48 499.082 L 4938.48 494.352 L 4948.71 494.352 L 4948.71 499.082 C 4948.71 499.629 4948.58 500.211 4948.33 500.781 C 4947.99 501.559 4948.06 502.441 4948.52 503.16 C 4948.98 503.859 4949.77 504.289 4950.62 504.289 L 4955.65 504.289 C 4956.5 504.289 4957.29 503.859 4957.75 503.16 C 4958.21 502.441 4958.28 501.559 4957.94 500.781 C 4957.69 500.191 4957.55 499.621 4957.55 499.082 L 4957.55 494.352 L 4967.81 494.352 L 4967.81 499.082 C 4967.81 499.66 4967.69 500.242 4967.45 500.781 C 4967.11 501.559 4967.18 502.441 4967.64 503.16 C 4968.11 503.859 4968.89 504.289 4969.74 504.289 L 4974.75 504.289 C 4975.59 504.289 4976.37 503.871 4976.84 503.172 C 4977.29 502.461 4977.37 501.582 4977.04 500.801 C 4976.8 500.23 4976.67 499.641 4976.67 499.082 L 4976.67 494.352 L 4986.9 494.352 L 4986.9 499.082 C 4986.9 499.641 4986.78 500.23 4986.53 500.801 C 4986.2 501.582 4986.28 502.461 4986.74 503.172 C 4987.21 503.871 4987.99 504.289 4988.83 504.289 L 4993.86 504.289 C 4994.7 504.289 4995.48 503.871 4995.95 503.172 C 4996.41 502.461 4996.48 501.582 4996.15 500.801 C 4995.91 500.23 4995.78 499.641 4995.78 499.082 L 4995.78 494.352 Z M 5008.52 489.352 L 4993.28 489.352 C 4992.5 489.352 4991.8 489.711 4991.35 490.27 C 4990.89 489.711 4990.19 489.352 4989.4 489.352 L 4974.17 489.352 C 4973.39 489.352 4972.7 489.699 4972.25 490.262 C 4971.79 489.699 4971.09 489.352 4970.31 489.352 L 4955.05 489.352 C 4954.28 489.352 4953.58 489.699 4953.13 490.25 C 4952.68 489.699 4951.98 489.352 4951.21 489.352 L 4935.98 489.352 C 4934.6 489.352 4933.48 490.469 4933.48 491.852 L 4933.48 499.082 C 4933.48 499.711 4933.54 500.34 4933.68 500.969 C 4933.55 501.219 4933.48 501.5 4933.48 501.789 L 4933.48 506.109 C 4930.36 504.07 4926.72 502.949 4922.94 502.949 C 4912.22 502.949 4903.49 511.68 4903.49 522.41 C 4903.49 530.922 4908.97 538.219 4916.79 540.801 C 4908.18 552.551 4903.49 566.832 4903.49 581.441 C 4903.49 619.359 4934.33 650.211 4972.24 650.211 C 5010.15 650.211 5040.99 619.359 5040.99 581.441 C 5040.99 566.82 5036.29 552.539 5027.7 540.801 C 5035.51 538.242 5040.99 530.941 5040.99 522.41 C 5040.99 511.68 5032.27 502.949 5021.55 502.949 C 5017.77 502.949 5014.13 504.07 5011.02 506.109 L 5011.02 501.789 C 5011.02 501.461 5010.96 501.148 5010.84 500.859 C 5010.96 500.27 5011.02 499.672 5011.02 499.082 L 5011.02 491.852 C 5011.02 490.469 5009.89 489.352 5008.52 489.352"/>
    <path id="path3752" style="fill:#eb4900;fill-opacity:1;fill-rule:nonzero;stroke:none" d="M 4962.69 555.191 C 4962.69 545.051 4954.46 536.852 4944.35 536.852 C 4934.23 536.852 4925.99 545.051 4925.99 555.191 C 4925.99 565.309 4934.23 573.531 4944.35 573.531 C 4954.46 573.531 4962.69 565.309 4962.69 555.191"/>
    <path id="path3754" style="fill:#000000;fill-opacity:1;fill-rule:nonzero;stroke:none" d="M 4944.35 571.031 C 4935.61 571.031 4928.49 563.922 4928.49 555.191 C 4928.49 546.461 4935.61 539.352 4944.35 539.352 C 4953.08 539.352 4960.19 546.461 4960.19 555.191 C 4960.19 563.922 4953.08 571.031 4944.35 571.031 Z M 4944.35 534.352 C 4932.84 534.352 4923.49 543.691 4923.49 555.191 C 4923.49 566.68 4932.84 576.031 4944.35 576.031 C 4955.84 576.031 4965.19 566.68 4965.19 555.191 C 4965.19 543.691 4955.84 534.352 4944.35 534.352"/>
    <path id="path3756" style="fill:#eb4900;fill-opacity:1;fill-rule:nonzero;stroke:none" d="M 5018.49 555.191 C 5018.49 545.051 5010.26 536.852 5000.13 536.852 C 4990.02 536.852 4981.79 545.051 4981.79 555.191 C 4981.79 565.309 4990.02 573.531 5000.13 573.531 C 5010.26 573.531 5018.49 565.309 5018.49 555.191"/>
    <path id="path3758" style="fill:#000000;fill-opacity:1;fill-rule:nonzero;stroke:none" d="M 5000.13 571.031 C 4991.4 571.031 4984.29 563.922 4984.29 555.191 C 4984.29 546.461 4991.4 539.352 5000.13 539.352 C 5008.87 539.352 5015.99 546.461 5015.99 555.191 C 5015.99 563.922 5008.87 571.031 5000.13 571.031 Z M 5000.13 534.352 C 4988.63 534.352 4979.29 543.691 4979.29 555.191 C 4979.29 566.68 4988.63 576.031 5000.13 576.031 C 5011.63 576.031 5020.99 566.68 5020.99 555.191 C 5020.99 543.691 5011.63 534.352 5000.13 534.352"/>
    <path id="path3760" style="fill:#06180b;fill-opacity:1;fill-rule:nonzero;stroke:none" d="M 4969.01 515.52 L 4956.61 515.52 L 4969.01 537.262 L 4969.01 515.52"/>
    <path id="path3762" style="fill:#000000;fill-opacity:1;fill-rule:nonzero;stroke:none" d="M 4960.92 518.02 L 4966.51 518.02 L 4966.51 527.84 L 4960.92 518.02 Z M 4969.01 513.02 L 4956.61 513.02 C 4955.72 513.02 4954.89 513.5 4954.45 514.262 C 4954 515.031 4953.99 515.988 4954.44 516.762 L 4966.85 538.5 C 4967.4 539.492 4968.56 539.949 4969.66 539.672 C 4970.75 539.391 4971.51 538.391 4971.51 537.262 L 4971.51 515.52 C 4971.51 514.141 4970.39 513.02 4969.01 513.02"/>
    <path id="path3764" style="fill:#06180b;fill-opacity:1;fill-rule:nonzero;stroke:none" d="M 4975.48 515.52 L 4987.88 515.52 L 4975.48 537.262 L 4975.48 515.52"/>
    <path id="path3766" style="fill:#000000;fill-opacity:1;fill-rule:nonzero;stroke:none" d="M 4977.98 518.02 L 4983.57 518.02 L 4977.98 527.84 L 4977.98 518.02 Z M 4987.88 513.02 L 4975.48 513.02 C 4974.1 513.02 4972.98 514.141 4972.98 515.52 L 4972.98 537.262 C 4972.98 538.391 4973.74 539.391 4974.83 539.672 C 4975.95 539.949 4977.09 539.492 4977.65 538.5 L 4990.05 516.762 C 4990.5 515.988 4990.49 515.031 4990.04 514.262 C 4989.6 513.5 4988.77 513.02 4987.88 513.02"/>
    <path id="path3768" style="fill:#f2f1e7;fill-opacity:1;fill-rule:nonzero;stroke:none" d="M 4524.91 98.219 C 4524.91 103.461 4527.28 107.742 4530.21 107.742 C 4533.12 107.742 4535.48 103.461 4535.48 98.219 C 4535.48 92.949 4533.12 88.68 4530.21 88.68 C 4527.28 88.68 4524.91 92.949 4524.91 98.219 Z M 4518.78 111.012 L 4525.03 111.012 L 4518.78 104.582 L 4518.78 111.012 Z M 4518.78 114.371 L 4518.78 120.789 L 4525.03 114.371 L 4518.78 114.371 Z M 4524.91 127.16 C 4524.91 132.422 4527.28 136.691 4530.21 136.691 C 4533.12 136.691 4535.48 132.422 4535.48 127.16 C 4535.48 121.91 4533.12 117.641 4530.21 117.641 C 4527.28 117.641 4524.91 121.91 4524.91 127.16 Z M 4525.6 86.199 C 4528.9 81.27 4533.13 78.309 4537.76 78.309 C 4548.3 78.309 4556.85 93.711 4556.85 112.691 C 4556.85 131.672 4548.3 147.07 4537.76 147.07 C 4533.13 147.07 4528.9 144.102 4525.6 139.172 C 4525.34 143.609 4523.29 147.07 4520.75 147.07 C 4518.06 147.07 4515.87 143.141 4515.87 138.27 C 4515.87 135.539 4516.57 133.121 4517.68 131.52 L 4514.81 131.52 L 4514.81 131.199 C 4514.58 131.398 4514.33 131.52 4514.03 131.52 C 4512.88 131.52 4511.94 131.52 4511.94 131.52 L 4511.94 123.609 L 4514.03 123.609 C 4514.33 123.609 4514.58 123.719 4514.81 123.91 L 4514.81 121.301 C 4514.58 121.5 4514.33 121.602 4514.03 121.602 C 4512.88 121.602 4511.94 121.602 4511.94 121.602 L 4511.94 113.691 L 4514.03 113.691 C 4514.33 113.691 4514.58 113.801 4514.81 113.992 L 4514.81 111.391 C 4514.58 111.582 4514.33 111.691 4514.03 111.691 C 4512.88 111.691 4511.94 111.691 4511.94 111.691 L 4511.94 103.781 L 4514.03 103.781 C 4514.33 103.781 4514.58 103.902 4514.81 104.082 L 4514.81 101.461 C 4514.58 101.648 4514.33 101.77 4514.03 101.77 C 4512.88 101.77 4511.94 101.77 4511.94 101.77 L 4511.94 93.871 L 4514.03 93.871 C 4514.33 93.871 4514.58 93.98 4514.81 94.172 L 4514.81 93.871 L 4517.67 93.871 C 4516.57 92.25 4515.87 89.84 4515.87 87.102 C 4515.87 82.242 4518.06 78.309 4520.75 78.309 C 4523.29 78.309 4525.34 81.781 4525.6 86.199"/>
    <path id="path3770" style="fill:#000000;fill-opacity:1;fill-rule:nonzero;stroke:none" d="M 4530.21 134.191 C 4529.25 134.191 4527.41 131.461 4527.41 127.16 C 4527.41 122.871 4529.25 120.141 4530.21 120.141 C 4531.16 120.141 4532.98 122.871 4532.98 127.16 C 4532.98 131.461 4531.16 134.191 4530.21 134.191 Z M 4518.78 123.289 C 4519.44 123.289 4520.09 123.031 4520.58 122.531 L 4525.32 117.648 C 4523.53 119.82 4522.41 123.211 4522.41 127.16 C 4522.41 131.129 4523.53 134.52 4525.33 136.68 C 4525.2 136.699 4525.07 136.719 4524.94 136.762 C 4523.9 137.039 4523.16 137.961 4523.1 139.031 C 4522.89 142.691 4521.36 144.57 4520.75 144.57 C 4520.02 144.57 4518.37 142.191 4518.37 138.27 C 4518.37 136.18 4518.88 134.172 4519.74 132.93 C 4520.26 132.172 4520.32 131.18 4519.89 130.352 C 4519.45 129.531 4518.6 129.02 4517.68 129.02 L 4515.69 129.02 C 4515.28 128.859 4514.87 128.789 4514.44 128.801 L 4514.44 126.379 C 4514.94 126.469 4515.44 126.391 4515.91 126.16 C 4516.77 125.75 4517.31 124.871 4517.31 123.91 L 4517.31 122.82 C 4517.47 122.93 4517.65 123.031 4517.84 123.109 C 4518.14 123.242 4518.47 123.289 4518.78 123.289 Z M 4530.21 105.242 C 4529.25 105.242 4527.41 102.5 4527.41 98.219 C 4527.41 93.922 4529.25 91.18 4530.21 91.18 C 4531.16 91.18 4532.98 93.922 4532.98 98.219 C 4532.98 102.5 4531.16 105.242 4530.21 105.242 Z M 4516.01 96.371 L 4517.67 96.371 C 4518.59 96.371 4519.44 95.859 4519.87 95.039 C 4520.3 94.23 4520.25 93.242 4519.74 92.469 C 4518.88 91.199 4518.37 89.191 4518.37 87.102 C 4518.37 83.191 4520.02 80.809 4520.75 80.809 C 4521.36 80.809 4522.89 82.699 4523.1 86.352 C 4523.16 87.43 4523.91 88.332 4524.94 88.621 C 4525.07 88.66 4525.2 88.68 4525.33 88.691 C 4523.53 90.852 4522.41 94.25 4522.41 98.219 C 4522.41 102.172 4523.53 105.559 4525.32 107.73 L 4520.58 102.852 C 4519.86 102.121 4518.78 101.879 4517.84 102.27 C 4517.65 102.352 4517.47 102.441 4517.31 102.559 L 4517.31 101.461 C 4517.31 100.492 4516.76 99.602 4515.88 99.191 C 4515.41 98.992 4514.93 98.93 4514.44 98.992 L 4514.44 96.641 C 4514.94 96.719 4515.42 96.648 4515.88 96.441 C 4515.92 96.422 4515.97 96.391 4516.01 96.371 Z M 4528.49 86.461 C 4531.25 82.809 4534.51 80.809 4537.76 80.809 C 4546.75 80.809 4554.35 95.41 4554.35 112.691 C 4554.35 129.969 4546.75 144.57 4537.76 144.57 C 4534.51 144.57 4531.25 142.582 4528.49 138.922 C 4529.03 139.102 4529.61 139.191 4530.21 139.191 C 4534.64 139.191 4537.98 134.02 4537.98 127.16 C 4537.98 120.309 4534.64 115.141 4530.21 115.141 C 4528.74 115.141 4527.4 115.699 4526.25 116.691 L 4526.83 116.109 C 4527.52 115.391 4527.72 114.32 4527.33 113.391 C 4527.22 113.129 4527.07 112.891 4526.88 112.691 C 4527.07 112.48 4527.22 112.25 4527.33 111.992 C 4527.72 111.059 4527.52 109.98 4526.83 109.27 L 4526.25 108.68 C 4527.4 109.68 4528.74 110.242 4530.21 110.242 C 4534.64 110.242 4537.98 105.07 4537.98 98.219 C 4537.98 91.359 4534.64 86.18 4530.21 86.18 C 4529.61 86.18 4529.03 86.27 4528.49 86.461 Z M 4537.76 75.809 C 4533.89 75.809 4530.14 77.52 4526.88 80.719 C 4525.58 77.711 4523.35 75.809 4520.75 75.809 C 4516.54 75.809 4513.37 80.672 4513.37 87.102 C 4513.37 88.602 4513.54 90.039 4513.89 91.371 L 4511.94 91.371 C 4510.57 91.371 4509.44 92.488 4509.44 93.871 L 4509.44 101.77 C 4509.44 102.129 4509.52 102.461 4509.66 102.781 C 4509.52 103.09 4509.44 103.422 4509.44 103.781 L 4509.44 111.691 C 4509.44 112.039 4509.52 112.391 4509.65 112.699 C 4509.52 113 4509.44 113.34 4509.44 113.691 L 4509.44 121.602 C 4509.44 121.961 4509.52 122.289 4509.66 122.602 C 4509.52 122.91 4509.44 123.25 4509.44 123.609 L 4509.44 131.52 C 4509.44 132.891 4510.57 134.02 4511.94 134.02 L 4513.89 134.02 C 4513.54 135.34 4513.37 136.781 4513.37 138.27 C 4513.37 144.719 4516.54 149.57 4520.75 149.57 C 4523.35 149.57 4525.58 147.68 4526.88 144.672 C 4530.14 147.859 4533.89 149.57 4537.76 149.57 C 4549.86 149.57 4559.35 133.371 4559.35 112.691 C 4559.35 92.02 4549.86 75.809 4537.76 75.809"/>
  </g>
</svg>