<?xml version="1.0" encoding="utf-8"?>
<svg viewBox="123.12300109863281 424.6059875488281 118.51300048828125 101.53099822998047" width="118.51300048828125" height="101.53099822998047" xmlns="http://www.w3.org/2000/svg">
  <g transform="matrix(0.12500000186264515, 0, 0, -0.12500000186264515, 0, 526.1375122070312)">
    <path id="path60" style="fill:#ddd8bf;fill-opacity:1;fill-rule:nonzero;stroke:none" d="M 1631.57 27.141 C 1631.57 12.16 1520.26 0 1382.96 0 C 1245.65 0 1134.35 12.16 1134.35 27.141 C 1134.35 42.129 1245.65 54.289 1382.96 54.289 C 1520.26 54.289 1631.57 42.129 1631.57 27.141"/>
    <path id="path4536" style="fill:#153d44;fill-opacity:1;fill-rule:nonzero;stroke:none" d="M 1207.08 173.391 C 1172.1 142.109 1150.57 193.441 1164.06 207.02 C 1213.44 256.781 1240.74 296.941 1255.14 321.059 C 1262.62 333.621 1275.14 334.07 1276.56 319.52 C 1277.58 308.898 1276.79 294.422 1271.55 275.281 C 1255.46 216.449 1215.71 181.141 1207.08 173.391"/>
    <path id="path4538" style="fill:#000000;fill-opacity:1;fill-rule:nonzero;stroke:none" d="M 1267.87 327.949 C 1264.35 327.949 1260.29 324.832 1257.29 319.781 C 1235.07 282.539 1204.3 244.02 1165.83 205.262 C 1161.66 201.051 1161.37 191.41 1165.15 182.332 C 1169.41 172.07 1177.06 165.949 1185.61 165.949 C 1191.85 165.949 1198.51 169.09 1205.42 175.262 C 1245.08 210.832 1261.94 249.621 1269.14 275.941 C 1273.61 292.27 1275.27 306.852 1274.07 319.281 C 1273.54 324.789 1271.27 327.949 1267.87 327.949 Z M 1185.61 160.949 C 1174.97 160.949 1165.6 168.23 1160.53 180.398 C 1155.86 191.621 1156.57 203.031 1162.29 208.77 C 1200.46 247.25 1230.98 285.461 1252.99 322.34 C 1256.95 328.992 1262.51 332.949 1267.87 332.949 C 1272.65 332.949 1278.1 329.492 1279.05 319.762 C 1280.3 306.719 1278.59 291.539 1273.96 274.609 C 1266.59 247.66 1249.33 207.922 1208.95 171.711 C 1200.9 164.52 1193.12 160.949 1185.61 160.949"/>
    <path id="path4540" style="fill:#2a5b6a;fill-opacity:1;fill-rule:nonzero;stroke:none" d="M 1160.95 206.02 L 1200.3 166.691 L 1255.97 205.898 L 1237.91 223.992 L 1207.6 213.34 L 1218.24 243.621 L 1200.18 261.691 L 1160.95 206.02"/>
    <path id="path4542" style="fill:#000000;fill-opacity:1;fill-rule:nonzero;stroke:none" d="M 1164.2 206.301 L 1200.58 169.941 L 1252.1 206.23 L 1237.25 221.109 L 1208.43 210.98 C 1207.51 210.691 1206.51 210.891 1205.83 211.582 C 1205.15 212.262 1204.92 213.27 1205.24 214.172 L 1215.36 242.961 L 1200.51 257.832 L 1164.2 206.301 Z M 1200.3 164.191 C 1199.66 164.191 1199.02 164.441 1198.54 164.93 L 1159.18 204.25 C 1158.32 205.109 1158.2 206.469 1158.9 207.449 L 1198.13 263.129 C 1198.56 263.73 1199.23 264.121 1199.96 264.18 C 1200.75 264.27 1201.43 263.98 1201.94 263.461 L 1220.01 245.379 C 1220.69 244.699 1220.92 243.691 1220.6 242.789 L 1211.68 217.43 L 1237.08 226.352 C 1237.99 226.648 1238.99 226.441 1239.67 225.762 L 1257.73 207.672 C 1258.26 207.141 1258.52 206.422 1258.46 205.691 C 1258.39 204.949 1258.01 204.281 1257.41 203.859 L 1201.74 164.648 C 1201.31 164.34 1200.81 164.191 1200.3 164.191"/>
    <path id="path4544" style="fill:#153d44;fill-opacity:1;fill-rule:nonzero;stroke:none" d="M 1207.08 173.391 C 1172.1 142.109 1150.57 193.441 1164.06 207.02 C 1213.44 256.781 1240.74 296.941 1255.14 321.059 C 1262.62 333.621 1275.14 334.07 1276.56 319.52 C 1277.58 308.898 1276.79 294.422 1271.55 275.281 C 1255.46 216.449 1215.71 181.141 1207.08 173.391"/>
    <path id="path4546" style="fill:#000000;fill-opacity:1;fill-rule:nonzero;stroke:none" d="M 1267.87 327.949 C 1264.35 327.949 1260.29 324.832 1257.29 319.781 C 1235.07 282.539 1204.3 244.02 1165.83 205.262 C 1161.66 201.051 1161.37 191.41 1165.15 182.332 C 1169.41 172.07 1177.06 165.949 1185.61 165.949 C 1191.85 165.949 1198.51 169.09 1205.42 175.262 C 1245.08 210.832 1261.94 249.621 1269.14 275.941 C 1273.61 292.27 1275.27 306.852 1274.07 319.281 C 1273.54 324.789 1271.27 327.949 1267.87 327.949 Z M 1185.61 160.949 C 1174.97 160.949 1165.6 168.23 1160.53 180.398 C 1155.86 191.621 1156.57 203.031 1162.29 208.77 C 1200.46 247.25 1230.98 285.461 1252.99 322.34 C 1256.95 328.992 1262.51 332.949 1267.87 332.949 C 1272.65 332.949 1278.1 329.492 1279.05 319.762 C 1280.3 306.719 1278.59 291.539 1273.96 274.609 C 1266.59 247.66 1249.33 207.922 1208.95 171.711 C 1200.9 164.52 1193.12 160.949 1185.61 160.949"/>
    <path id="path4548" style="fill:#2a5b6a;fill-opacity:1;fill-rule:nonzero;stroke:none" d="M 1160.95 206.02 L 1200.3 166.691 L 1255.97 205.898 L 1237.91 223.992 L 1207.6 213.34 L 1218.24 243.621 L 1200.18 261.691 L 1160.95 206.02"/>
    <path id="path4550" style="fill:#000000;fill-opacity:1;fill-rule:nonzero;stroke:none" d="M 1164.2 206.301 L 1200.58 169.941 L 1252.1 206.23 L 1237.25 221.109 L 1208.43 210.98 C 1207.51 210.691 1206.51 210.891 1205.83 211.582 C 1205.15 212.262 1204.92 213.27 1205.24 214.172 L 1215.36 242.961 L 1200.51 257.832 L 1164.2 206.301 Z M 1200.3 164.191 C 1199.66 164.191 1199.02 164.441 1198.54 164.93 L 1159.18 204.25 C 1158.32 205.109 1158.2 206.469 1158.9 207.449 L 1198.13 263.129 C 1198.56 263.73 1199.23 264.121 1199.96 264.18 C 1200.75 264.27 1201.43 263.98 1201.94 263.461 L 1220.01 245.379 C 1220.69 244.699 1220.92 243.691 1220.6 242.789 L 1211.68 217.43 L 1237.08 226.352 C 1237.99 226.648 1238.99 226.441 1239.67 225.762 L 1257.73 207.672 C 1258.26 207.141 1258.52 206.422 1258.46 205.691 C 1258.39 204.949 1258.01 204.281 1257.41 203.859 L 1201.74 164.648 C 1201.31 164.34 1200.81 164.191 1200.3 164.191"/>
    <path id="path4552" style="fill:#c9a88b;fill-opacity:1;fill-rule:nonzero;stroke:none" d="M 1126.26 184.359 C 1117.54 175.648 1117.54 161.531 1126.23 152.84 L 1147.12 131.961 C 1155.8 123.27 1169.91 123.25 1178.65 131.992 L 1199.48 152.82 C 1208.19 161.531 1208.19 175.66 1199.5 184.359 L 1178.63 205.219 C 1169.93 213.93 1155.8 213.91 1147.08 205.199 L 1126.26 184.359"/>
    <path id="path4554" style="fill:#000000;fill-opacity:1;fill-rule:nonzero;stroke:none" d="M 1162.88 209.242 C 1157.58 209.242 1152.6 207.18 1148.85 203.43 L 1128.03 182.59 C 1124.29 178.852 1122.22 173.879 1122.22 168.59 C 1122.22 163.301 1124.27 158.332 1128 154.602 L 1148.89 133.719 C 1156.34 126.262 1169.38 126.262 1176.88 133.75 L 1197.71 154.582 C 1205.43 162.309 1205.44 174.871 1197.73 182.59 L 1176.87 203.449 C 1173.13 207.18 1168.16 209.242 1162.88 209.242 Z M 1162.87 122.941 C 1156.25 122.941 1150.03 125.512 1145.35 130.191 L 1124.46 151.07 C 1119.79 155.75 1117.22 161.969 1117.22 168.59 C 1117.23 175.219 1119.81 181.449 1124.5 186.129 L 1145.31 206.969 C 1154.7 216.34 1171.04 216.352 1180.4 206.992 L 1201.27 186.129 C 1210.93 176.461 1210.92 160.719 1201.25 151.051 L 1180.42 130.219 C 1175.73 125.52 1169.49 122.941 1162.87 122.941"/>
    <path id="path4556" style="fill:#d5e0e2;fill-opacity:1;fill-rule:nonzero;stroke:none" d="M 987.754 342.012 L 987.754 342.012 L 1121.7 221.82 L 1107.92 208.051 L 987.754 342.012"/>
    <path id="path4558" style="fill:#000000;fill-opacity:1;fill-rule:nonzero;stroke:none" d="M 1020.41 309.352 L 1108.02 211.68 L 1118.07 221.719 L 1020.41 309.352 Z M 1107.92 205.551 C 1107.9 205.551 1107.88 205.551 1107.85 205.551 C 1107.16 205.57 1106.52 205.871 1106.06 206.379 L 985.895 340.34 C 985.004 341.32 985.051 342.84 985.984 343.77 C 986.926 344.719 988.434 344.75 989.426 343.871 L 1123.37 223.68 C 1123.89 223.23 1124.18 222.57 1124.2 221.891 C 1124.22 221.199 1123.96 220.539 1123.47 220.051 L 1109.69 206.281 C 1109.22 205.809 1108.58 205.551 1107.92 205.551"/>
    <path id="path4560" style="fill:#95afaa;fill-opacity:1;fill-rule:nonzero;stroke:none" d="M 987.754 342.012 L 987.754 342.012 L 1114.25 215.512 L 1107.92 208.051 L 987.754 342.012"/>
    <path id="path4562" style="fill:#000000;fill-opacity:1;fill-rule:nonzero;stroke:none" d="M 1051.19 275.031 L 1107.87 211.852 L 1110.85 215.371 L 1051.19 275.031 Z M 1107.92 205.551 C 1107.21 205.551 1106.53 205.852 1106.06 206.379 L 985.895 340.34 C 984.988 341.34 985.055 342.879 986.035 343.82 C 987.02 344.762 988.563 344.73 989.52 343.77 L 1116.02 217.281 C 1116.94 216.359 1117 214.891 1116.15 213.891 L 1109.82 206.43 C 1109.35 205.879 1108.41 205.41 1107.92 205.551"/>
    <path id="path4564" style="fill:#95afaa;fill-opacity:1;fill-rule:nonzero;stroke:none" d="M 1091.02 226.059 C 1092.58 228.59 1094.38 231.012 1096.56 233.199 C 1098.75 235.379 1101.16 237.172 1103.69 238.73 L 1124.1 219.441 L 1110.33 205.66 L 1091.02 226.059"/>
    <path id="path4566" style="fill:#000000;fill-opacity:1;fill-rule:nonzero;stroke:none" d="M 1094.18 226.352 L 1110.38 209.242 L 1120.51 219.391 L 1103.4 235.57 C 1101.47 234.262 1099.8 232.898 1098.33 231.43 C 1096.87 229.961 1095.5 228.281 1094.18 226.352 Z M 1110.33 203.16 C 1109.48 203.082 1108.98 203.449 1108.51 203.941 L 1089.2 224.34 C 1088.42 225.16 1088.29 226.41 1088.89 227.379 C 1090.73 230.352 1092.66 232.832 1094.79 234.961 C 1096.94 237.102 1099.42 239.039 1102.38 240.859 C 1103.35 241.441 1104.59 241.32 1105.41 240.551 L 1125.82 221.25 C 1126.3 220.789 1126.59 220.148 1126.6 219.48 C 1126.61 218.801 1126.34 218.148 1125.86 217.672 L 1112.09 203.891 C 1111.63 203.422 1110.99 203.16 1110.33 203.16"/>
    <path id="path4568" style="fill:#d5e0e2;fill-opacity:1;fill-rule:nonzero;stroke:none" d="M 1154.16 104.91 C 1138.88 104.91 1123.63 110.73 1111.99 122.371 C 1100.73 133.621 1094.52 148.59 1094.52 164.52 C 1094.52 180.449 1100.73 195.43 1111.99 206.68 L 1118.15 200.531 C 1108.53 190.898 1103.23 178.129 1103.23 164.512 C 1103.23 150.898 1108.53 138.141 1118.15 128.52 C 1137.99 108.66 1170.3 108.648 1190.16 128.52 L 1196.32 122.371 C 1184.7 110.73 1169.42 104.91 1154.16 104.91"/>
    <path id="path4570" style="fill:#000000;fill-opacity:1;fill-rule:nonzero;stroke:none" d="M 1112.03 203.109 C 1102.33 192.559 1097.02 178.949 1097.02 164.52 C 1097.02 149.25 1102.96 134.922 1113.76 124.129 C 1124.54 113.34 1138.89 107.41 1154.16 107.41 C 1168.6 107.41 1182.21 112.711 1192.74 122.41 L 1190.12 125.02 C 1180.27 116.039 1167.6 111.121 1154.16 111.121 C 1139.87 111.121 1126.46 116.672 1116.39 126.75 C 1106.29 136.84 1100.73 150.25 1100.73 164.512 C 1100.73 177.93 1105.65 190.621 1114.66 200.492 L 1112.03 203.109 Z M 1154.16 102.41 C 1137.55 102.41 1121.95 108.871 1110.22 120.602 C 1098.49 132.32 1092.02 147.91 1092.02 164.52 C 1092.02 181.129 1098.49 196.73 1110.22 208.449 C 1111.2 209.43 1112.78 209.43 1113.76 208.449 L 1119.92 202.301 C 1120.39 201.832 1120.65 201.191 1120.65 200.531 C 1120.65 199.871 1120.39 199.23 1119.92 198.762 C 1110.77 189.602 1105.73 177.43 1105.73 164.512 C 1105.73 151.59 1110.77 139.441 1119.92 130.289 C 1129.05 121.148 1141.21 116.121 1154.16 116.121 C 1167.1 116.121 1179.26 121.148 1188.39 130.289 C 1189.37 131.262 1190.95 131.262 1191.93 130.289 L 1198.09 124.129 C 1199.06 123.16 1199.06 121.582 1198.09 120.602 C 1186.38 108.871 1170.78 102.41 1154.16 102.41"/>
    <path id="path4572" style="fill:#d5e0e2;fill-opacity:1;fill-rule:nonzero;stroke:none" d="M 1195.79 115.219 C 1185.41 115.23 1177.02 123.621 1177.04 133.992 C 1177.02 144.32 1185.41 152.73 1195.78 152.742 C 1206.16 152.73 1214.56 144.32 1214.56 133.961 C 1214.54 123.621 1206.14 115.23 1195.79 115.219"/>
    <path id="path4574" style="fill:#000000;fill-opacity:1;fill-rule:nonzero;stroke:none" d="M 1195.78 150.242 C 1191.44 150.242 1187.35 148.539 1184.28 145.461 C 1181.21 142.398 1179.53 138.32 1179.54 133.992 C 1179.53 129.641 1181.21 125.551 1184.28 122.48 C 1187.35 119.422 1191.44 117.719 1195.79 117.719 C 1204.74 117.73 1212.04 125.012 1212.06 133.961 C 1212.06 142.922 1204.76 150.23 1195.78 150.242 Z M 1195.79 112.719 L 1195.79 112.719 C 1190.1 112.73 1184.76 114.93 1180.75 118.949 C 1176.73 122.961 1174.53 128.301 1174.54 133.992 C 1174.53 139.648 1176.73 144.98 1180.74 149 C 1184.76 153.02 1190.1 155.23 1195.78 155.242 C 1207.51 155.23 1217.06 145.68 1217.06 133.961 C 1217.03 122.262 1207.5 112.73 1195.79 112.719"/>
    <path id="path4576" style="fill:#95afaa;fill-opacity:1;fill-rule:nonzero;stroke:none" d="M 1117.11 196.66 L 1133.07 212.648 L 1195.08 150.66 L 1179.08 134.68 L 1117.11 196.66"/>
    <path id="path4578" style="fill:#000000;fill-opacity:1;fill-rule:nonzero;stroke:none" d="M 1120.64 196.66 L 1179.08 138.219 L 1191.55 150.66 L 1133.07 209.109 L 1120.64 196.66 Z M 1179.08 132.18 C 1178.44 132.18 1177.8 132.43 1177.31 132.91 L 1115.34 194.898 C 1114.37 195.871 1114.37 197.449 1115.34 198.43 L 1131.3 214.422 C 1132.24 215.352 1133.9 215.352 1134.84 214.422 L 1196.85 152.43 C 1197.32 151.961 1197.58 151.32 1197.58 150.66 C 1197.58 149.988 1197.32 149.359 1196.85 148.891 L 1180.85 132.91 C 1180.36 132.43 1179.72 132.18 1179.08 132.18"/>
    <path id="path4580" style="fill:#ad713b;fill-opacity:1;fill-rule:nonzero;stroke:none" d="M 1164.99 142.211 L 1187.54 164.762 L 1199.89 152.422 L 1177.33 129.859 L 1164.99 142.211"/>
    <path id="path4582" style="fill:#000000;fill-opacity:1;fill-rule:nonzero;stroke:none" d="M 1168.53 142.211 L 1177.33 133.391 L 1196.35 152.422 L 1187.54 161.219 L 1168.53 142.211 Z M 1177.33 127.359 L 1177.33 127.359 C 1176.67 127.359 1176.04 127.621 1175.57 128.09 L 1163.22 140.441 C 1162.25 141.422 1162.25 143 1163.22 143.98 L 1185.78 166.531 C 1186.75 167.5 1188.33 167.5 1189.31 166.531 L 1201.66 154.18 C 1202.63 153.211 1202.63 151.621 1201.66 150.648 L 1179.1 128.09 C 1178.63 127.621 1178 127.359 1177.33 127.359"/>
    <path id="path4584" style="fill:#ad713b;fill-opacity:1;fill-rule:nonzero;stroke:none" d="M 1149.72 157.461 L 1172.3 180 L 1184.82 167.512 L 1162.25 144.961 L 1149.72 157.461"/>
    <path id="path4586" style="fill:#000000;fill-opacity:1;fill-rule:nonzero;stroke:none" d="M 1153.26 157.461 L 1162.25 148.5 L 1181.28 167.512 L 1172.3 176.469 L 1153.26 157.461 Z M 1162.25 142.461 C 1161.61 142.461 1160.97 142.711 1160.48 143.199 L 1147.95 155.699 C 1147.48 156.172 1147.22 156.801 1147.22 157.461 C 1147.22 158.129 1147.48 158.762 1147.95 159.23 L 1170.53 181.77 C 1171.51 182.75 1173.09 182.75 1174.07 181.77 L 1186.59 169.281 C 1187.06 168.809 1187.32 168.18 1187.32 167.512 C 1187.32 166.852 1187.06 166.211 1186.59 165.75 L 1164.01 143.199 C 1163.53 142.711 1162.89 142.461 1162.25 142.461"/>
    <path id="path4588" style="fill:#ad713b;fill-opacity:1;fill-rule:nonzero;stroke:none" d="M 1134.5 172.699 L 1157.07 195.262 L 1169.57 182.742 L 1147 160.199 L 1134.5 172.699"/>
    <path id="path4590" style="fill:#000000;fill-opacity:1;fill-rule:nonzero;stroke:none" d="M 1138.04 172.699 L 1147 163.73 L 1166.03 182.742 L 1157.07 191.719 L 1138.04 172.699 Z M 1147 157.699 C 1146.36 157.699 1145.72 157.941 1145.23 158.43 L 1132.73 170.93 C 1131.76 171.91 1131.76 173.488 1132.73 174.469 L 1155.3 197.02 C 1155.77 197.488 1156.4 197.762 1157.07 197.762 L 1157.07 197.762 C 1157.73 197.762 1158.36 197.488 1158.83 197.02 L 1171.33 184.512 C 1172.31 183.531 1172.31 181.949 1171.33 180.969 L 1148.76 158.43 C 1148.28 157.941 1147.64 157.699 1147 157.699"/>
    <path id="path4592" style="fill:#ad713b;fill-opacity:1;fill-rule:nonzero;stroke:none" d="M 1119.41 187.781 L 1141.98 210.352 L 1154.31 197.992 L 1131.77 175.43 L 1119.41 187.781"/>
    <path id="path4594" style="fill:#000000;fill-opacity:1;fill-rule:nonzero;stroke:none" d="M 1122.95 187.781 L 1131.77 178.969 L 1150.78 197.992 L 1141.98 206.82 L 1122.95 187.781 Z M 1131.77 172.93 C 1131.13 172.93 1130.49 173.18 1130 173.672 L 1117.65 186.012 C 1117.18 186.48 1116.91 187.109 1116.91 187.781 C 1116.91 188.441 1117.18 189.082 1117.65 189.539 L 1140.21 212.121 C 1140.68 212.59 1141.32 212.852 1141.98 212.852 L 1141.98 212.852 C 1142.65 212.852 1143.29 212.59 1143.75 212.121 L 1156.08 199.762 C 1157.06 198.781 1157.06 197.199 1156.08 196.219 L 1133.54 173.672 C 1133.05 173.18 1132.41 172.93 1131.77 172.93"/>
    <path id="path4596" style="fill:#ffffff;fill-opacity:1;fill-rule:nonzero;stroke:none" d="M 1206.96 129.91 C 1204.79 129.91 1203.06 131.66 1203.08 133.77 C 1203.08 135.93 1204.81 137.66 1206.93 137.66 C 1209.09 137.66 1210.84 135.93 1210.82 133.789 C 1210.8 131.648 1209.09 129.93 1206.96 129.91"/>
    <path id="path4598" style="fill:#000000;fill-opacity:1;fill-rule:nonzero;stroke:none" d="M 1206.96 127.41 C 1205.23 127.41 1203.62 128.082 1202.41 129.301 C 1201.21 130.512 1200.56 132.102 1200.58 133.789 C 1200.58 137.301 1203.43 140.16 1206.93 140.16 C 1208.67 140.16 1210.29 139.492 1211.5 138.262 C 1212.69 137.051 1213.34 135.449 1213.32 133.762 C 1213.29 130.301 1210.44 127.43 1206.98 127.41 C 1206.97 127.41 1206.97 127.41 1206.96 127.41"/>
    <path id="path4600" style="fill:#95afaa;fill-opacity:1;fill-rule:nonzero;stroke:none" d="M 1111.65 206.68 C 1111.65 206.789 1111.65 206.891 1111.67 207 C 1111.94 206.762 1111.96 206.641 1111.65 206.68"/>
    <path id="path4602" style="fill:#000000;fill-opacity:1;fill-rule:nonzero;stroke:none" d="M 1111.75 204.172 C 1111.65 204.172 1111.44 204.191 1111.33 204.199 C 1110.08 204.359 1109.15 205.422 1109.15 206.68 C 1109.15 206.91 1109.2 207.43 1109.26 207.648 C 1109.49 208.48 1110.13 209.129 1110.95 209.391 C 1111.76 209.621 1112.67 209.449 1113.32 208.879 C 1114.1 208.199 1114.58 206.82 1114.21 205.84 C 1113.85 204.871 1112.79 204.172 1111.75 204.172"/>
    <path id="path4604" style="fill:#d5e0e2;fill-opacity:1;fill-rule:nonzero;stroke:none" d="M 1156.04 229.441 L 1100.33 173.711 C 1084.93 189.102 1084.95 214.07 1100.33 229.441 C 1115.69 244.82 1140.65 244.832 1156.04 229.441"/>
    <path id="path4606" style="fill:#000000;fill-opacity:1;fill-rule:nonzero;stroke:none" d="M 1128.18 238.48 C 1118.32 238.48 1109.06 234.641 1102.09 227.672 C 1095.13 220.711 1091.29 211.441 1091.29 201.582 C 1091.28 192.551 1094.5 184.031 1100.39 177.309 L 1152.45 229.379 C 1145.73 235.27 1137.2 238.48 1128.18 238.48 Z M 1100.33 171.211 C 1099.69 171.211 1099.05 171.461 1098.56 171.949 C 1090.64 179.859 1086.28 190.371 1086.29 201.582 C 1086.29 212.781 1090.65 223.289 1098.56 231.199 C 1106.46 239.109 1116.98 243.48 1128.18 243.48 C 1139.37 243.48 1149.9 239.109 1157.81 231.199 C 1158.28 230.742 1158.54 230.102 1158.54 229.441 C 1158.54 228.77 1158.28 228.141 1157.81 227.672 L 1102.09 171.949 C 1101.61 171.461 1100.97 171.211 1100.33 171.211"/>
    <path id="path4608" style="fill:#ffffff;fill-opacity:1;fill-rule:nonzero;stroke:none" d="M 1137.97 235.5 C 1134.59 234.871 1132.36 231.57 1132.97 228.191 C 1133.63 224.77 1136.94 222.559 1140.31 223.23 C 1143.72 223.832 1145.94 227.109 1145.31 230.539 C 1144.67 233.891 1141.36 236.16 1137.97 235.5"/>
    <path id="path4610" style="fill:#000000;fill-opacity:1;fill-rule:nonzero;stroke:none" d="M 1139.15 233.121 C 1138.92 233.121 1138.68 233.09 1138.45 233.051 C 1136.41 232.66 1135.06 230.691 1135.43 228.641 C 1135.81 226.648 1137.8 225.262 1139.82 225.68 C 1140.83 225.859 1141.68 226.398 1142.24 227.199 C 1142.82 228.039 1143.04 229.07 1142.85 230.09 C 1142.52 231.801 1140.93 233.121 1139.15 233.121 Z M 1139.1 220.609 C 1134.92 220.609 1131.31 223.602 1130.52 227.719 C 1129.66 232.488 1132.8 237.07 1137.51 237.961 C 1142.28 238.789 1146.88 235.66 1147.77 231.012 C 1148.2 228.648 1147.69 226.289 1146.34 224.352 C 1145.02 222.441 1143.03 221.172 1140.74 220.77 C 1140.22 220.66 1139.66 220.609 1139.1 220.609"/>
    <path id="path4612" style="fill:#f4d9bd;fill-opacity:1;fill-rule:nonzero;stroke:none" d="M 1152.33 210.461 C 1146.55 204.648 1146.53 195.27 1152.35 189.441 L 1161.52 180.262 C 1167.33 174.449 1176.74 174.461 1182.55 180.262 L 1182.55 180.262 C 1188.36 186.082 1188.38 195.492 1182.57 201.289 L 1173.38 210.48 C 1167.57 216.289 1158.16 216.27 1152.33 210.461 L 1152.33 210.461"/>
    <path id="path4614" style="fill:#000000;fill-opacity:1;fill-rule:nonzero;stroke:none" d="M 1162.88 212.332 C 1159.57 212.332 1156.45 211.039 1154.1 208.691 C 1149.3 203.871 1149.31 196.02 1154.12 191.199 L 1163.29 182.02 C 1167.96 177.359 1176.1 177.359 1180.78 182.02 C 1183.12 184.371 1184.41 187.48 1184.41 190.781 C 1184.42 194.09 1183.13 197.191 1180.8 199.52 L 1171.61 208.711 C 1169.28 211.051 1166.18 212.332 1162.88 212.332 Z M 1172.03 173.398 L 1172.03 173.398 C 1167.39 173.398 1163.03 175.211 1159.76 178.488 L 1150.59 187.672 C 1143.82 194.441 1143.81 205.449 1150.56 212.23 C 1157.16 218.801 1168.6 218.801 1175.15 212.25 L 1184.34 203.059 C 1187.62 199.789 1189.42 195.422 1189.41 190.77 C 1189.41 186.148 1187.6 181.781 1184.32 178.488 C 1181.04 175.211 1176.67 173.398 1172.03 173.398"/>
    <path id="path4616" style="fill:#153d44;fill-opacity:1;fill-rule:nonzero;stroke:none" d="M 1632.51 259.18 C 1679.35 261.82 1658.29 313.332 1639.15 313.379 C 1569.04 313.641 1521.33 322.742 1494.1 329.629 C 1479.93 333.219 1470.77 324.691 1480.04 313.379 C 1486.82 305.148 1497.64 295.469 1514.87 285.648 C 1567.83 255.41 1620.91 258.559 1632.51 259.18"/>
    <path id="path4618" style="fill:#000000;fill-opacity:1;fill-rule:nonzero;stroke:none" d="M 1487.83 327.961 C 1483.59 327.961 1480.38 326.531 1479.25 324.129 C 1478.12 321.75 1479.09 318.488 1481.98 314.961 C 1489.89 305.352 1501.38 296.211 1516.11 287.82 C 1554.52 265.891 1593.43 261.281 1619.3 261.281 C 1619.31 261.281 1619.31 261.281 1619.31 261.281 C 1625.12 261.281 1629.51 261.531 1632.08 261.66 C 1655.45 262.98 1658.55 276.129 1658.34 283.852 C 1658 296.711 1647.95 310.859 1639.14 310.879 C 1584.5 311.082 1535.49 316.582 1493.49 327.211 C 1491.51 327.711 1489.61 327.961 1487.83 327.961 Z M 1619.31 256.281 C 1619.31 256.281 1619.31 256.281 1619.3 256.281 C 1592.82 256.281 1552.99 261.012 1513.63 283.48 C 1498.37 292.18 1486.42 301.699 1478.12 311.789 C 1472.47 318.68 1473.57 323.82 1474.73 326.27 C 1477.4 331.941 1485.6 334.391 1494.72 332.051 C 1536.33 321.52 1584.92 316.082 1639.16 315.879 C 1650.71 315.852 1662.92 299.762 1663.34 283.992 C 1663.77 268 1652.3 257.801 1632.65 256.68 C 1629.73 256.531 1625.24 256.281 1619.31 256.281"/>
    <path id="path4620" style="fill:#2a5b6a;fill-opacity:1;fill-rule:nonzero;stroke:none" d="M 1642.04 314.871 L 1642.04 259.242 L 1574.94 247.602 L 1574.94 273.172 L 1603.89 287.07 L 1574.94 300.949 L 1574.94 326.512 L 1642.04 314.871"/>
    <path id="path4622" style="fill:#000000;fill-opacity:1;fill-rule:nonzero;stroke:none" d="M 1577.44 271.602 L 1577.44 250.57 L 1639.54 261.34 L 1639.54 312.77 L 1577.44 323.539 L 1577.44 302.52 L 1604.97 289.332 C 1605.83 288.91 1606.39 288.039 1606.39 287.07 C 1606.39 286.121 1605.83 285.242 1604.97 284.82 L 1577.44 271.602 Z M 1574.94 245.102 C 1574.36 245.102 1573.78 245.309 1573.33 245.691 C 1572.77 246.172 1572.44 246.859 1572.44 247.602 L 1572.44 273.172 C 1572.44 274.121 1572.99 275 1573.86 275.422 L 1598.11 287.07 L 1573.86 298.691 C 1572.99 299.109 1572.44 299.988 1572.44 300.949 L 1572.44 326.512 C 1572.44 327.25 1572.77 327.941 1573.33 328.422 C 1573.89 328.898 1574.62 329.121 1575.37 328.969 L 1642.47 317.332 C 1643.67 317.121 1644.54 316.082 1644.54 314.871 L 1644.54 259.242 C 1644.54 258.031 1643.67 256.992 1642.47 256.781 L 1575.37 245.141 C 1575.22 245.109 1575.08 245.102 1574.94 245.102"/>
    <path id="path4624" style="fill:#c9a88b;fill-opacity:1;fill-rule:nonzero;stroke:none" d="M 1681.89 324.102 C 1694.22 324.102 1704.2 314.109 1704.2 301.809 L 1704.2 272.289 C 1704.2 260 1694.22 250.012 1681.89 250.012 L 1652.43 250.012 C 1640.12 250.012 1630.11 260 1630.09 272.301 L 1630.11 301.801 C 1630.09 314.109 1640.12 324.102 1652.43 324.102 L 1681.89 324.102"/>
    <path id="path4626" style="fill:#000000;fill-opacity:1;fill-rule:nonzero;stroke:none" d="M 1652.43 321.602 C 1647.12 321.602 1642.14 319.52 1638.39 315.77 C 1634.65 312.031 1632.6 307.07 1632.61 301.801 L 1632.59 272.301 C 1632.61 261.391 1641.51 252.512 1652.43 252.512 L 1681.89 252.512 C 1692.82 252.512 1701.7 261.379 1701.7 272.289 L 1701.7 301.809 C 1701.7 312.719 1692.82 321.602 1681.89 321.602 L 1652.43 321.602 Z M 1681.89 247.512 L 1652.43 247.512 C 1638.75 247.512 1627.61 258.629 1627.59 272.301 L 1627.61 301.801 C 1627.6 308.398 1630.17 314.621 1634.85 319.301 C 1639.55 324.012 1645.79 326.602 1652.43 326.602 L 1681.89 326.602 C 1695.58 326.602 1706.7 315.469 1706.7 301.809 L 1706.7 272.289 C 1706.7 258.629 1695.58 247.512 1681.89 247.512"/>
    <path id="path4628" style="fill:#153d44;fill-opacity:1;fill-rule:nonzero;stroke:none" d="M 1632.51 259.18 C 1679.35 261.82 1658.29 313.332 1639.15 313.379 C 1569.04 313.641 1521.33 322.742 1494.1 329.629 C 1479.93 333.219 1470.77 324.691 1480.04 313.379 C 1486.82 305.148 1497.64 295.469 1514.87 285.648 C 1567.83 255.41 1620.91 258.559 1632.51 259.18"/>
    <path id="path4630" style="fill:#000000;fill-opacity:1;fill-rule:nonzero;stroke:none" d="M 1487.83 327.961 C 1483.59 327.961 1480.38 326.531 1479.25 324.129 C 1478.12 321.75 1479.09 318.488 1481.98 314.961 C 1489.89 305.352 1501.38 296.211 1516.11 287.82 C 1554.52 265.891 1593.43 261.281 1619.3 261.281 C 1619.31 261.281 1619.31 261.281 1619.31 261.281 C 1625.12 261.281 1629.51 261.531 1632.08 261.66 C 1655.45 262.98 1658.55 276.129 1658.34 283.852 C 1658 296.711 1647.95 310.859 1639.14 310.879 C 1584.5 311.082 1535.49 316.582 1493.49 327.211 C 1491.51 327.711 1489.61 327.961 1487.83 327.961 Z M 1619.31 256.281 C 1619.31 256.281 1619.31 256.281 1619.3 256.281 C 1592.82 256.281 1552.99 261.012 1513.63 283.48 C 1498.37 292.18 1486.42 301.699 1478.12 311.789 C 1472.47 318.68 1473.57 323.82 1474.73 326.27 C 1477.4 331.941 1485.6 334.391 1494.72 332.051 C 1536.33 321.52 1584.92 316.082 1639.16 315.879 C 1650.71 315.852 1662.92 299.762 1663.34 283.992 C 1663.77 268 1652.3 257.801 1632.65 256.68 C 1629.73 256.531 1625.24 256.281 1619.31 256.281"/>
    <path id="path4632" style="fill:#2a5b6a;fill-opacity:1;fill-rule:nonzero;stroke:none" d="M 1642.04 314.871 L 1642.04 259.242 L 1574.94 247.602 L 1574.94 273.172 L 1603.89 287.07 L 1574.94 300.949 L 1574.94 326.512 L 1642.04 314.871"/>
    <path id="path4634" style="fill:#000000;fill-opacity:1;fill-rule:nonzero;stroke:none" d="M 1577.44 271.602 L 1577.44 250.57 L 1639.54 261.34 L 1639.54 312.77 L 1577.44 323.539 L 1577.44 302.52 L 1604.97 289.332 C 1605.83 288.91 1606.39 288.039 1606.39 287.07 C 1606.39 286.121 1605.83 285.242 1604.97 284.82 L 1577.44 271.602 Z M 1574.94 245.102 C 1574.36 245.102 1573.78 245.309 1573.33 245.691 C 1572.77 246.172 1572.44 246.859 1572.44 247.602 L 1572.44 273.172 C 1572.44 274.121 1572.99 275 1573.86 275.422 L 1598.11 287.07 L 1573.86 298.691 C 1572.99 299.109 1572.44 299.988 1572.44 300.949 L 1572.44 326.512 C 1572.44 327.25 1572.77 327.941 1573.33 328.422 C 1573.89 328.898 1574.62 329.121 1575.37 328.969 L 1642.47 317.332 C 1643.67 317.121 1644.54 316.082 1644.54 314.871 L 1644.54 259.242 C 1644.54 258.031 1643.67 256.992 1642.47 256.781 L 1575.37 245.141 C 1575.22 245.109 1575.08 245.102 1574.94 245.102"/>
    <path id="path4636" style="fill:#c9a88b;fill-opacity:1;fill-rule:nonzero;stroke:none" d="M 1681.89 324.102 C 1694.22 324.102 1704.2 314.109 1704.2 301.809 L 1704.2 272.289 C 1704.2 260 1694.22 250.012 1681.89 250.012 L 1652.43 250.012 C 1640.12 250.012 1630.11 260 1630.09 272.301 L 1630.11 301.801 C 1630.09 314.109 1640.12 324.102 1652.43 324.102 L 1681.89 324.102"/>
    <path id="path4638" style="fill:#000000;fill-opacity:1;fill-rule:nonzero;stroke:none" d="M 1652.43 321.602 C 1647.12 321.602 1642.14 319.52 1638.39 315.77 C 1634.65 312.031 1632.6 307.07 1632.61 301.801 L 1632.59 272.301 C 1632.61 261.391 1641.51 252.512 1652.43 252.512 L 1681.89 252.512 C 1692.82 252.512 1701.7 261.379 1701.7 272.289 L 1701.7 301.809 C 1701.7 312.719 1692.82 321.602 1681.89 321.602 L 1652.43 321.602 Z M 1681.89 247.512 L 1652.43 247.512 C 1638.75 247.512 1627.61 258.629 1627.59 272.301 L 1627.61 301.801 C 1627.6 308.398 1630.17 314.621 1634.85 319.301 C 1639.55 324.012 1645.79 326.602 1652.43 326.602 L 1681.89 326.602 C 1695.58 326.602 1706.7 315.469 1706.7 301.809 L 1706.7 272.289 C 1706.7 258.629 1695.58 247.512 1681.89 247.512"/>
    <path id="path4640" style="fill:#f4d9bd;fill-opacity:1;fill-rule:nonzero;stroke:none" d="M 1644.99 324.102 C 1653.21 324.102 1659.86 317.461 1659.86 309.23 L 1659.86 296.25 C 1659.86 288.031 1653.21 281.391 1644.99 281.391 L 1644.99 281.391 C 1636.78 281.391 1630.09 288.031 1630.11 296.25 L 1630.09 309.242 C 1630.11 317.461 1636.78 324.102 1644.99 324.102 L 1644.99 324.102"/>
    <path id="path4642" style="fill:#000000;fill-opacity:1;fill-rule:nonzero;stroke:none" d="M 1644.99 321.602 C 1638.17 321.602 1632.61 316.051 1632.59 309.23 L 1632.61 296.25 C 1632.6 292.961 1633.88 289.871 1636.21 287.531 C 1638.55 285.18 1641.67 283.891 1644.99 283.891 C 1651.81 283.891 1657.36 289.441 1657.36 296.25 L 1657.36 309.23 C 1657.36 316.051 1651.81 321.602 1644.99 321.602 Z M 1644.99 278.891 C 1640.33 278.891 1635.95 280.711 1632.67 284 C 1629.39 287.281 1627.6 291.629 1627.61 296.262 L 1627.59 309.242 C 1627.62 318.809 1635.42 326.602 1644.99 326.602 C 1654.57 326.602 1662.36 318.801 1662.36 309.23 L 1662.36 296.25 C 1662.36 286.68 1654.57 278.891 1644.99 278.891"/>
    <path id="path4644" style="fill:#d5e0e2;fill-opacity:1;fill-rule:nonzero;stroke:none" d="M 1884.05 367.25 L 1722.09 367.25 L 1722.09 367.141 C 1721.73 367.16 1721.39 367.25 1721.02 367.25 C 1683.31 367.25 1652.64 336.57 1652.64 298.852 C 1652.64 286.66 1662.52 276.801 1674.68 276.801 C 1686.88 276.801 1696.75 286.66 1696.75 298.852 C 1696.75 312.238 1707.64 323.129 1721.02 323.129 C 1727.82 323.129 1733.82 326.262 1737.86 331.102 L 1884.18 331.102 C 1896.6 324.469 1906.8 316.449 1913.84 307.43 L 1913.84 390.91 C 1906.78 381.852 1896.53 373.852 1884.05 367.25"/>
    <path id="path4646" style="fill:#000000;fill-opacity:1;fill-rule:nonzero;stroke:none" d="M 1721.22 364.719 C 1684.66 364.719 1655.14 335.172 1655.14 298.852 C 1655.14 288.07 1663.91 279.301 1674.68 279.301 C 1685.47 279.301 1694.25 288.07 1694.25 298.852 C 1694.25 313.621 1706.26 325.629 1721.02 325.629 C 1726.74 325.629 1732.18 328.211 1735.94 332.699 C 1736.42 333.27 1737.12 333.602 1737.86 333.602 L 1884.18 333.602 C 1884.59 333.602 1885 333.5 1885.36 333.301 C 1895.89 327.68 1904.6 321.25 1911.34 314.141 L 1911.34 384.191 C 1904.58 377.07 1895.83 370.66 1885.22 365.039 C 1884.86 364.852 1884.46 364.75 1884.05 364.75 L 1722.75 364.75 C 1722.5 364.66 1722.22 364.621 1721.96 364.641 C 1721.87 364.66 1721.27 364.719 1721.22 364.719 Z M 1674.68 274.301 C 1661.15 274.301 1650.14 285.32 1650.14 298.852 C 1650.14 337.941 1681.93 369.75 1721.02 369.75 C 1721.09 369.75 1721.39 369.73 1721.64 369.699 C 1721.78 369.73 1721.94 369.75 1722.09 369.75 L 1883.43 369.75 C 1895.66 376.301 1905.23 383.93 1911.87 392.441 C 1912.52 393.289 1913.67 393.602 1914.65 393.27 C 1915.66 392.93 1916.34 391.98 1916.34 390.91 L 1916.34 307.43 C 1916.34 306.359 1915.66 305.398 1914.66 305.059 C 1913.65 304.738 1912.52 305.039 1911.87 305.891 C 1905.24 314.391 1895.71 322.02 1883.55 328.602 L 1738.99 328.602 C 1734.32 323.52 1727.84 320.629 1721.02 320.629 C 1709.01 320.629 1699.25 310.859 1699.25 298.852 C 1699.25 285.32 1688.23 274.301 1674.68 274.301"/>
    <path id="path4648" style="fill:#95afaa;fill-opacity:1;fill-rule:nonzero;stroke:none" d="M 1884.47 343.66 L 1722.09 343.66 L 1722.09 331.102 L 1884.18 331.102 C 1896.6 324.469 1906.8 316.449 1913.84 307.43 L 1913.84 323.441 C 1903.81 343.66 1884.47 343.66 1884.47 343.66"/>
    <path id="path4650" style="fill:#000000;fill-opacity:1;fill-rule:nonzero;stroke:none" d="M 1724.59 333.602 L 1884.18 333.602 C 1884.59 333.602 1885 333.5 1885.36 333.301 C 1895.89 327.68 1904.6 321.25 1911.34 314.141 L 1911.34 322.852 C 1902.04 340.941 1884.65 341.16 1884.47 341.16 L 1724.59 341.16 L 1724.59 333.602 Z M 1913.84 304.93 C 1913.09 304.93 1912.35 305.27 1911.87 305.891 C 1905.24 314.391 1895.71 322.02 1883.55 328.602 L 1722.09 328.602 C 1720.71 328.602 1719.59 329.719 1719.59 331.102 L 1719.59 343.66 C 1719.59 345.031 1720.71 346.16 1722.09 346.16 L 1884.47 346.16 C 1885.33 346.16 1905.48 345.91 1916.08 324.551 C 1916.25 324.199 1916.34 323.82 1916.34 323.441 L 1916.34 307.43 C 1916.34 306.359 1915.66 305.398 1914.66 305.059 C 1914.39 304.969 1914.12 304.93 1913.84 304.93"/>
    <path id="path4652" style="fill:#95afaa;fill-opacity:1;fill-rule:nonzero;stroke:none" d="M 1698.05 383.02 L 1706.56 383.02 L 1706.54 359.199 L 1698.05 359.211 L 1698.05 383.02"/>
    <path id="path4654" style="fill:#000000;fill-opacity:1;fill-rule:nonzero;stroke:none" d="M 1700.55 361.711 L 1704.04 361.699 L 1704.06 380.52 L 1700.55 380.52 L 1700.55 361.711 Z M 1706.54 356.699 L 1706.54 356.699 L 1698.04 356.711 C 1696.67 356.711 1695.55 357.84 1695.55 359.211 L 1695.55 383.02 C 1695.55 384.398 1696.67 385.52 1698.05 385.52 L 1706.56 385.52 C 1707.23 385.52 1707.86 385.262 1708.33 384.789 C 1708.8 384.32 1709.06 383.68 1709.06 383.02 L 1709.04 359.199 C 1709.04 358.539 1708.78 357.898 1708.31 357.43 C 1707.84 356.969 1707.21 356.699 1706.54 356.699"/>
    <path id="path4656" style="fill:#95afaa;fill-opacity:1;fill-rule:nonzero;stroke:none" d="M 1686.14 345.809 C 1680.96 340.629 1671.93 340.629 1666.73 345.809 C 1664.15 348.422 1662.71 351.859 1662.71 355.52 C 1662.71 359.199 1664.15 362.641 1666.73 365.242 L 1666.54 365.422 L 1673.78 372.66 L 1667.76 378.672 L 1660.53 371.441 L 1660.49 371.48 C 1660.34 371.332 1660.24 371.16 1660.1 371 L 1650.93 361.84 L 1654.18 358.59 C 1654.04 357.57 1653.88 356.559 1653.88 355.52 C 1653.88 349.512 1656.24 343.84 1660.49 339.59 C 1664.75 335.332 1670.42 332.98 1676.46 332.98 C 1682.47 332.98 1688.13 335.34 1692.38 339.59 L 1686.14 345.809"/>
    <path id="path4658" style="fill:#000000;fill-opacity:1;fill-rule:nonzero;stroke:none" d="M 1654.46 361.852 L 1655.95 360.352 C 1656.5 359.801 1656.76 359.031 1656.66 358.262 C 1656.49 357.082 1656.38 356.301 1656.38 355.52 C 1656.38 350.172 1658.47 345.148 1662.26 341.359 C 1669.21 334.398 1681.05 333.68 1688.74 339.699 L 1685.99 342.43 C 1679.89 338.102 1670.26 338.762 1664.96 344.051 C 1661.89 347.141 1660.21 351.211 1660.21 355.52 C 1660.21 359.512 1661.64 363.27 1664.26 366.25 C 1664.36 366.602 1664.52 366.941 1664.78 367.191 L 1670.24 372.66 L 1667.76 375.129 L 1662.3 369.672 C 1662.17 369.539 1662.03 369.43 1661.88 369.34 L 1654.46 361.852 Z M 1676.46 330.48 C 1669.74 330.48 1663.44 333.09 1658.72 337.832 C 1653.99 342.551 1651.38 348.84 1651.38 355.52 C 1651.38 356.25 1651.45 356.98 1651.54 357.699 L 1649.17 360.07 C 1648.19 361.051 1648.19 362.629 1649.17 363.609 L 1658.33 372.77 C 1658.47 372.91 1658.63 373.039 1658.81 373.16 L 1658.76 373.211 L 1666 380.43 C 1666.97 381.41 1668.55 381.41 1669.53 380.43 L 1675.55 374.43 C 1676.02 373.961 1676.28 373.32 1676.28 372.66 C 1676.28 372 1676.02 371.359 1675.55 370.891 L 1669.03 364.379 C 1668.93 364.051 1668.75 363.73 1668.5 363.48 C 1666.38 361.34 1665.21 358.512 1665.21 355.52 C 1665.21 352.539 1666.38 349.719 1668.51 347.57 C 1672.51 343.59 1680.36 343.582 1684.37 347.582 C 1685.35 348.559 1686.92 348.559 1687.9 347.582 L 1694.15 341.359 C 1694.62 340.891 1694.88 340.262 1694.88 339.59 C 1694.88 338.93 1694.62 338.289 1694.15 337.832 C 1689.41 333.09 1683.13 330.48 1676.46 330.48"/>
    <path id="path4660" style="fill:#95afaa;fill-opacity:1;fill-rule:nonzero;stroke:none" d="M 1726.27 269.102 C 1725.15 269.102 1724.02 269.52 1723.15 270.371 C 1716.88 276.66 1713.41 285.02 1713.41 293.91 C 1713.41 302.801 1716.88 311.172 1723.15 317.441 C 1724.88 319.148 1727.68 319.148 1729.39 317.441 C 1731.11 315.719 1731.11 312.91 1729.39 311.191 C 1724.79 306.59 1722.24 300.441 1722.24 293.91 C 1722.24 287.391 1724.79 281.23 1729.39 276.621 C 1731.11 274.91 1731.11 272.109 1729.39 270.371 C 1728.53 269.52 1727.4 269.102 1726.27 269.102"/>
    <path id="path4662" style="fill:#000000;fill-opacity:1;fill-rule:nonzero;stroke:none" d="M 1726.28 316.219 C 1725.76 316.219 1725.27 316.031 1724.9 315.672 C 1719.11 309.859 1715.91 302.129 1715.91 293.91 C 1715.91 285.699 1719.11 277.969 1724.92 272.141 C 1725.62 271.43 1726.92 271.441 1727.63 272.148 C 1728.36 272.891 1728.37 274.109 1727.63 274.859 C 1722.54 279.949 1719.74 286.711 1719.74 293.91 C 1719.74 301.109 1722.54 307.859 1727.63 312.961 C 1728.37 313.699 1728.37 314.93 1727.62 315.68 C 1727.27 316.031 1726.79 316.219 1726.28 316.219 Z M 1726.27 266.602 C 1724.43 266.602 1722.7 267.309 1721.39 268.602 C 1714.63 275.379 1710.91 284.371 1710.91 293.91 C 1710.91 303.461 1714.63 312.441 1721.38 319.211 C 1724.03 321.809 1728.55 321.809 1731.16 319.211 C 1733.85 316.512 1733.85 312.109 1731.16 309.43 C 1727.02 305.281 1724.74 299.77 1724.74 293.91 C 1724.74 288.051 1727.02 282.539 1731.16 278.391 C 1733.84 275.711 1733.85 271.32 1731.17 268.621 C 1729.85 267.309 1728.12 266.602 1726.27 266.602"/>
    <path id="path4664" style="fill:#ad713b;fill-opacity:1;fill-rule:nonzero;stroke:none" d="M 1652.16 240.641 C 1639.98 240.641 1630.09 250.531 1630.09 262.711 C 1630.09 300.41 1660.79 331.102 1698.49 331.102 C 1710.67 331.102 1720.55 321.219 1720.55 309.051 C 1720.55 296.859 1710.67 286.992 1698.49 286.992 C 1685.1 286.992 1674.21 276.102 1674.21 262.711 C 1674.21 250.531 1664.36 240.641 1652.16 240.641"/>
    <path id="path4666" style="fill:#000000;fill-opacity:1;fill-rule:nonzero;stroke:none" d="M 1698.49 328.602 C 1662.15 328.602 1632.59 299.039 1632.59 262.711 C 1632.59 251.922 1641.37 243.141 1652.16 243.141 C 1662.94 243.141 1671.71 251.922 1671.71 262.711 C 1671.71 277.469 1683.73 289.492 1698.49 289.492 C 1709.27 289.492 1718.05 298.27 1718.05 309.051 C 1718.05 319.832 1709.27 328.602 1698.49 328.602 Z M 1652.16 238.141 C 1638.61 238.141 1627.59 249.16 1627.59 262.711 C 1627.59 301.801 1659.39 333.602 1698.49 333.602 C 1712.03 333.602 1723.05 322.582 1723.05 309.051 C 1723.05 295.5 1712.03 284.492 1698.49 284.492 C 1686.48 284.492 1676.71 274.719 1676.71 262.711 C 1676.71 249.16 1665.7 238.141 1652.16 238.141"/>
    <path id="path4668" style="fill:#ad713b;fill-opacity:1;fill-rule:nonzero;stroke:none" d="M 1826.71 332.379 C 1826.71 323.109 1819.19 315.59 1809.94 315.59 L 1714.64 315.59 C 1705.37 315.59 1697.86 323.109 1697.86 332.379 L 1697.86 332.379 C 1697.86 341.641 1705.37 349.16 1714.64 349.16 L 1809.94 349.16 C 1819.19 349.16 1826.71 341.641 1826.71 332.379 L 1826.71 332.379"/>
    <path id="path4670" style="fill:#000000;fill-opacity:1;fill-rule:nonzero;stroke:none" d="M 1714.64 346.66 C 1706.77 346.66 1700.36 340.262 1700.36 332.379 C 1700.36 324.5 1706.77 318.09 1714.64 318.09 L 1809.94 318.09 C 1817.81 318.09 1824.21 324.5 1824.21 332.379 C 1824.21 340.262 1817.81 346.66 1809.94 346.66 L 1714.64 346.66 Z M 1809.94 313.09 L 1714.64 313.09 C 1704.01 313.09 1695.36 321.742 1695.36 332.379 C 1695.36 343.012 1704.01 351.66 1714.64 351.66 L 1809.94 351.66 C 1820.57 351.66 1829.21 343.012 1829.21 332.379 C 1829.21 321.742 1820.57 313.09 1809.94 313.09"/>
    <path id="path4672" style="fill:#d5e0e2;fill-opacity:1;fill-rule:nonzero;stroke:none" d="M 1776.06 318.32 C 1776.06 309.051 1768.52 301.531 1759.27 301.531 L 1699.27 301.531 C 1689.99 301.531 1682.47 309.051 1682.47 318.32 L 1682.47 318.32 C 1682.47 327.59 1689.99 335.121 1699.27 335.121 L 1759.27 335.121 C 1768.52 335.121 1776.06 327.59 1776.06 318.32 L 1776.06 318.32"/>
    <path id="path4674" style="fill:#000000;fill-opacity:1;fill-rule:nonzero;stroke:none" d="M 1699.27 332.621 C 1691.38 332.621 1684.97 326.199 1684.97 318.32 C 1684.97 310.441 1691.38 304.031 1699.27 304.031 L 1759.27 304.031 C 1767.15 304.031 1773.56 310.441 1773.56 318.32 C 1773.56 326.199 1767.15 332.621 1759.27 332.621 L 1699.27 332.621 Z M 1759.27 299.031 L 1699.27 299.031 C 1688.62 299.031 1679.97 307.68 1679.97 318.32 C 1679.97 328.969 1688.62 337.621 1699.27 337.621 L 1759.27 337.621 C 1769.91 337.621 1778.56 328.969 1778.56 318.32 C 1778.56 307.68 1769.91 299.031 1759.27 299.031"/>
    <path id="path4676" style="fill:#d5e0e2;fill-opacity:1;fill-rule:nonzero;stroke:none" d="M 1930.59 316.57 C 1930.59 309.16 1924.58 303.191 1917.21 303.191 L 1917.21 303.191 C 1909.82 303.191 1903.81 309.16 1903.81 316.57 L 1903.81 386.039 C 1903.81 393.422 1909.82 399.43 1917.21 399.43 L 1917.21 399.43 C 1924.58 399.43 1930.59 393.422 1930.59 386.039 L 1930.59 316.57"/>
    <path id="path4678" style="fill:#000000;fill-opacity:1;fill-rule:nonzero;stroke:none" d="M 1917.21 396.93 C 1911.2 396.93 1906.31 392.039 1906.31 386.039 L 1906.31 316.57 C 1906.31 310.57 1911.2 305.691 1917.21 305.691 C 1923.21 305.691 1928.09 310.57 1928.09 316.57 L 1928.09 386.039 C 1928.09 392.039 1923.21 396.93 1917.21 396.93 Z M 1917.21 300.691 C 1908.44 300.691 1901.31 307.809 1901.31 316.57 L 1901.31 386.039 C 1901.31 394.801 1908.44 401.93 1917.21 401.93 C 1925.97 401.93 1933.09 394.801 1933.09 386.039 L 1933.09 316.57 C 1933.09 307.809 1925.97 300.691 1917.21 300.691"/>
    <path id="path4680" style="fill:#d5e0e2;fill-opacity:1;fill-rule:nonzero;stroke:none" d="M 1656.35 259.301 C 1656.35 256.641 1654.19 254.48 1651.52 254.48 C 1648.85 254.48 1646.68 256.641 1646.68 259.301 C 1646.68 261.98 1648.85 264.121 1651.52 264.121 C 1654.19 264.121 1656.35 261.98 1656.35 259.301"/>
    <path id="path4682" style="fill:#000000;fill-opacity:1;fill-rule:nonzero;stroke:none" d="M 1651.52 261.621 C 1650.23 261.621 1649.18 260.582 1649.18 259.301 C 1649.18 258.02 1650.23 256.98 1651.52 256.98 C 1652.8 256.98 1653.85 258.02 1653.85 259.301 C 1653.85 260.602 1652.82 261.621 1651.52 261.621 Z M 1651.52 251.98 C 1647.48 251.98 1644.18 255.262 1644.18 259.301 C 1644.18 263.34 1647.48 266.621 1651.52 266.621 C 1655.56 266.621 1658.85 263.34 1658.85 259.301 C 1658.85 255.262 1655.56 251.98 1651.52 251.98"/>
    <path id="path4684" style="fill:#d5e0e2;fill-opacity:1;fill-rule:nonzero;stroke:none" d="M 1805.7 332.98 C 1805.7 330.32 1803.54 328.148 1800.86 328.148 C 1798.22 328.148 1796.05 330.32 1796.05 332.98 C 1796.05 335.641 1798.22 337.809 1800.86 337.809 C 1803.54 337.809 1805.7 335.641 1805.7 332.98"/>
    <path id="path4686" style="fill:#000000;fill-opacity:1;fill-rule:nonzero;stroke:none" d="M 1800.86 335.309 C 1799.59 335.309 1798.55 334.262 1798.55 332.98 C 1798.55 331.691 1799.59 330.648 1800.86 330.648 C 1802.15 330.648 1803.2 331.691 1803.2 332.98 C 1803.2 334.262 1802.15 335.309 1800.86 335.309 Z M 1800.86 325.648 C 1796.84 325.648 1793.55 328.941 1793.55 332.98 C 1793.55 337.02 1796.84 340.309 1800.86 340.309 C 1804.91 340.309 1808.2 337.02 1808.2 332.98 C 1808.2 328.941 1804.91 325.648 1800.86 325.648"/>
    <path id="path4688" style="fill:#95afaa;fill-opacity:1;fill-rule:nonzero;stroke:none" d="M 1760 318.32 C 1760 315.648 1757.84 313.488 1755.17 313.488 C 1752.51 313.488 1750.35 315.648 1750.35 318.32 C 1750.35 320.988 1752.51 323.148 1755.17 323.148 C 1757.84 323.148 1760 320.988 1760 318.32"/>
    <path id="path4690" style="fill:#000000;fill-opacity:1;fill-rule:nonzero;stroke:none" d="M 1755.17 320.648 C 1753.89 320.648 1752.85 319.602 1752.85 318.32 C 1752.85 317.031 1753.89 315.988 1755.17 315.988 C 1756.46 315.988 1757.5 317.031 1757.5 318.32 C 1757.5 319.602 1756.46 320.648 1755.17 320.648 Z M 1755.17 310.988 C 1751.13 310.988 1747.85 314.281 1747.85 318.32 C 1747.85 322.371 1751.13 325.648 1755.17 325.648 C 1759.21 325.648 1762.5 322.371 1762.5 318.32 C 1762.5 314.281 1759.21 310.988 1755.17 310.988"/>
    <path id="path4692" style="fill:#95afaa;fill-opacity:1;fill-rule:nonzero;stroke:none" d="M 1707.13 318.32 C 1707.13 315.648 1704.97 313.488 1702.3 313.488 C 1699.63 313.488 1697.48 315.648 1697.48 318.32 C 1697.48 320.988 1699.63 323.148 1702.3 323.148 C 1704.97 323.148 1707.13 320.988 1707.13 318.32"/>
    <path id="path4694" style="fill:#000000;fill-opacity:1;fill-rule:nonzero;stroke:none" d="M 1702.3 320.648 C 1701.02 320.648 1699.98 319.602 1699.98 318.32 C 1699.98 317.031 1701.02 315.988 1702.3 315.988 C 1703.59 315.988 1704.63 317.031 1704.63 318.32 C 1704.63 319.602 1703.59 320.648 1702.3 320.648 Z M 1702.3 310.988 C 1698.26 310.988 1694.98 314.281 1694.98 318.32 C 1694.98 322.371 1698.26 325.648 1702.3 325.648 C 1706.34 325.648 1709.63 322.371 1709.63 318.32 C 1709.63 314.281 1706.34 310.988 1702.3 310.988"/>
    <path id="path4696" style="fill:#ffffff;fill-opacity:1;fill-rule:nonzero;stroke:none" d="M 1923.98 370.211 C 1923.98 366.57 1921.02 363.59 1917.36 363.59 L 1917.36 363.59 C 1913.71 363.59 1910.74 366.57 1910.74 370.211 L 1910.74 384.281 C 1910.74 387.93 1913.71 390.91 1917.36 390.91 L 1917.36 390.91 C 1921.02 390.91 1923.98 387.93 1923.98 384.281 L 1923.98 370.211"/>
    <path id="path4698" style="fill:#000000;fill-opacity:1;fill-rule:nonzero;stroke:none" d="M 1917.36 388.41 C 1915.09 388.41 1913.24 386.559 1913.24 384.281 L 1913.24 370.211 C 1913.24 367.93 1915.09 366.09 1917.36 366.09 C 1919.63 366.09 1921.48 367.93 1921.48 370.211 L 1921.48 384.281 C 1921.48 386.559 1919.63 388.41 1917.36 388.41 Z M 1917.36 361.09 C 1912.33 361.09 1908.24 365.18 1908.24 370.211 L 1908.24 384.281 C 1908.24 389.32 1912.33 393.41 1917.36 393.41 C 1922.39 393.41 1926.48 389.32 1926.48 384.281 L 1926.48 370.211 C 1926.48 365.18 1922.39 361.09 1917.36 361.09"/>
    <path id="path4700" style="fill:#ffffff;fill-opacity:1;fill-rule:nonzero;stroke:none" d="M 1768.55 353.762 C 1766.51 353.762 1764.83 355.43 1764.83 357.5 L 1764.83 357.5 C 1764.83 359.559 1766.51 361.23 1768.55 361.23 L 1873.54 361.23 C 1875.62 361.23 1877.29 359.559 1877.29 357.5 L 1877.29 357.5 C 1877.29 355.43 1875.62 353.762 1873.54 353.762 L 1768.55 353.762"/>
    <path id="path4702" style="fill:#000000;fill-opacity:1;fill-rule:nonzero;stroke:none" d="M 1768.55 358.73 C 1767.89 358.73 1767.33 358.172 1767.33 357.5 C 1767.33 356.82 1767.88 356.262 1768.55 356.262 L 1873.54 356.262 C 1874.24 356.262 1874.79 356.809 1874.79 357.5 C 1874.79 358.18 1874.23 358.73 1873.54 358.73 L 1768.55 358.73 Z M 1873.54 351.262 L 1768.55 351.262 C 1765.13 351.262 1762.33 354.07 1762.33 357.5 C 1762.33 360.941 1765.13 363.73 1768.55 363.73 L 1873.54 363.73 C 1876.98 363.73 1879.79 360.941 1879.79 357.5 C 1879.79 354.07 1876.98 351.262 1873.54 351.262"/>
    <path id="path4704" style="fill:#f4d9bd;fill-opacity:1;fill-rule:nonzero;stroke:none" d="M 1644.99 324.102 C 1653.21 324.102 1659.86 317.461 1659.86 309.23 L 1659.86 296.25 C 1659.86 288.031 1653.21 281.391 1644.99 281.391 L 1644.99 281.391 C 1636.78 281.391 1630.09 288.031 1630.11 296.25 L 1630.09 309.242 C 1630.11 317.461 1636.78 324.102 1644.99 324.102 L 1644.99 324.102"/>
    <path id="path4706" style="fill:#000000;fill-opacity:1;fill-rule:nonzero;stroke:none" d="M 1644.99 321.602 C 1638.17 321.602 1632.61 316.051 1632.59 309.23 L 1632.61 296.25 C 1632.6 292.961 1633.88 289.871 1636.21 287.531 C 1638.55 285.18 1641.67 283.891 1644.99 283.891 C 1651.81 283.891 1657.36 289.441 1657.36 296.25 L 1657.36 309.23 C 1657.36 316.051 1651.81 321.602 1644.99 321.602 Z M 1644.99 278.891 C 1640.33 278.891 1635.95 280.711 1632.67 284 C 1629.39 287.281 1627.6 291.629 1627.61 296.262 L 1627.59 309.242 C 1627.62 318.809 1635.42 326.602 1644.99 326.602 C 1654.57 326.602 1662.36 318.801 1662.36 309.23 L 1662.36 296.25 C 1662.36 286.68 1654.57 278.891 1644.99 278.891"/>
    <path id="path4708" style="fill:#f4d9bd;fill-opacity:1;fill-rule:nonzero;stroke:none" d="M 1741.66 290.922 C 1741.66 283.121 1735.32 276.801 1727.52 276.801 C 1719.72 276.801 1713.41 283.121 1713.41 290.922 C 1713.41 298.711 1719.72 305.031 1727.52 305.031 C 1735.32 305.031 1741.66 298.711 1741.66 290.922"/>
    <path id="path4710" style="fill:#000000;fill-opacity:1;fill-rule:nonzero;stroke:none" d="M 1727.52 302.531 C 1721.12 302.531 1715.91 297.332 1715.91 290.922 C 1715.91 284.52 1721.12 279.301 1727.52 279.301 C 1733.94 279.301 1739.16 284.52 1739.16 290.922 C 1739.16 297.332 1733.94 302.531 1727.52 302.531 Z M 1727.52 274.301 C 1718.36 274.301 1710.91 281.762 1710.91 290.922 C 1710.91 300.082 1718.36 307.531 1727.52 307.531 C 1736.69 307.531 1744.16 300.082 1744.16 290.922 C 1744.16 281.762 1736.69 274.301 1727.52 274.301"/>
    <path id="path4712" style="fill:#21accc;fill-opacity:1;fill-rule:nonzero;stroke:none" d="M 1271.24 320.141 C 1254.87 295.469 1245.17 265.398 1245.17 232.871 C 1245.17 200.352 1254.87 170.281 1271.24 145.609 C 1303.86 133.25 1343.63 125.898 1386.69 125.898 C 1429.75 125.898 1469.5 133.25 1502.14 145.609 C 1518.5 170.281 1528.2 200.34 1528.2 232.871 C 1528.2 265.398 1518.47 295.469 1502.13 320.16 C 1469.49 332.512 1429.72 339.852 1386.69 339.852 C 1343.65 339.852 1303.86 332.512 1271.24 320.141"/>
    <path id="path4714" style="fill:#000000;fill-opacity:1;fill-rule:nonzero;stroke:none" d="M 1272.88 147.66 C 1306.46 135.059 1345.79 128.398 1386.69 128.398 C 1427.57 128.398 1466.91 135.059 1500.5 147.66 C 1516.99 172.82 1525.7 202.262 1525.7 232.871 C 1525.7 263.449 1516.98 292.898 1500.49 318.109 C 1466.9 330.699 1427.57 337.352 1386.69 337.352 C 1345.76 337.352 1306.43 330.691 1272.88 318.09 C 1256.38 292.93 1247.67 263.488 1247.67 232.871 C 1247.67 202.262 1256.38 172.82 1272.88 147.66 Z M 1386.69 123.398 C 1344.88 123.398 1304.65 130.281 1270.35 143.27 C 1269.86 143.461 1269.44 143.789 1269.15 144.219 C 1251.83 170.352 1242.67 201 1242.67 232.871 C 1242.67 264.75 1251.83 295.398 1269.15 321.531 C 1269.44 321.961 1269.86 322.289 1270.35 322.469 C 1304.62 335.469 1344.85 342.352 1386.69 342.352 C 1428.48 342.352 1468.7 335.48 1503.01 322.488 C 1503.51 322.309 1503.93 321.98 1504.21 321.539 C 1521.54 295.359 1530.7 264.711 1530.7 232.871 C 1530.7 201.012 1521.54 170.352 1504.23 144.23 C 1503.94 143.789 1503.52 143.461 1503.03 143.27 C 1468.71 130.281 1428.48 123.398 1386.69 123.398"/>
    <path id="path4716" style="fill:#0993aa;fill-opacity:1;fill-rule:nonzero;stroke:none" d="M 1271.24 320.141 C 1267.47 314.461 1264.1 308.461 1261.07 302.25 C 1284.87 288.199 1312.52 279.98 1342.16 279.98 L 1431.19 279.98 C 1460.83 279.98 1488.49 288.199 1512.29 302.25 C 1509.26 308.469 1505.89 314.48 1502.13 320.16 C 1469.49 332.512 1429.72 339.852 1386.69 339.852 C 1343.65 339.852 1303.86 332.512 1271.24 320.141"/>
    <path id="path4718" style="fill:#b8ccd1;fill-opacity:1;fill-rule:nonzero;stroke:none" d="M 1363.46 232.871 L 1411.12 232.871 L 1411.12 327.469 L 1363.46 327.469 L 1363.46 232.871 Z"/>
    <path id="path4720" style="fill:#000000;fill-opacity:1;fill-rule:nonzero;stroke:none" d="M 1365.96 235.371 L 1408.62 235.371 L 1408.62 324.969 L 1365.96 324.969 L 1365.96 235.371 Z M 1411.12 230.371 L 1363.46 230.371 C 1362.08 230.371 1360.96 231.5 1360.96 232.871 L 1360.96 327.469 C 1360.96 328.852 1362.08 329.969 1363.46 329.969 L 1411.12 329.969 C 1412.5 329.969 1413.62 328.852 1413.62 327.469 L 1413.62 232.871 C 1413.62 231.5 1412.5 230.371 1411.12 230.371"/>
    <path id="path4722" style="fill:#ff6700;fill-opacity:1;fill-rule:nonzero;stroke:none" d="M 1298.11 31.352 L 1264.62 31.352 L 1264.62 122.742 L 1331.64 122.742 L 1298.11 31.352"/>
    <path id="path4724" style="fill:#000000;fill-opacity:1;fill-rule:nonzero;stroke:none" d="M 1267.12 33.852 L 1296.36 33.852 L 1328.06 120.242 L 1267.12 120.242 L 1267.12 33.852 Z M 1298.11 28.852 L 1264.62 28.852 C 1263.24 28.852 1262.12 29.969 1262.12 31.352 L 1262.12 122.742 C 1262.12 124.109 1263.24 125.242 1264.62 125.242 L 1331.64 125.242 C 1332.45 125.242 1333.22 124.84 1333.69 124.172 C 1334.16 123.5 1334.26 122.641 1333.98 121.879 L 1300.45 30.492 C 1300.09 29.512 1299.16 28.852 1298.11 28.852"/>
    <path id="path4726" style="fill:#ff6700;fill-opacity:1;fill-rule:nonzero;stroke:none" d="M 1272.38 123.789 C 1274.2 120 1267.33 116.281 1269.38 112.68 C 1302.01 98.23 1341.76 89.66 1384.82 89.66 C 1427.9 89.66 1467.65 98.23 1500.29 112.68 C 1502.32 116.281 1495.45 120 1497.28 123.789 L 1272.38 123.789"/>
    <path id="path4728" style="fill:#000000;fill-opacity:1;fill-rule:nonzero;stroke:none" d="M 1271.56 114.449 C 1304.98 99.871 1344.11 92.16 1384.82 92.16 C 1425.53 92.16 1464.67 99.871 1498.1 114.449 C 1497.92 115.082 1497.29 116.02 1496.76 116.809 C 1495.93 118.059 1494.91 119.582 1494.58 121.289 L 1275.08 121.289 C 1274.75 119.582 1273.73 118.059 1272.9 116.809 C 1272.37 116.02 1271.75 115.082 1271.56 114.449 Z M 1384.82 87.16 C 1342.94 87.16 1302.68 95.199 1268.37 110.391 C 1267.88 110.609 1267.47 110.98 1267.21 111.449 C 1265.42 114.59 1267.33 117.469 1268.74 119.582 C 1269.53 120.77 1270.42 122.109 1270.13 122.711 C 1269.76 123.48 1269.81 124.398 1270.27 125.121 C 1270.72 125.852 1271.52 126.289 1272.38 126.289 L 1497.28 126.289 C 1498.13 126.289 1498.94 125.852 1499.39 125.121 C 1499.85 124.398 1499.9 123.48 1499.53 122.711 C 1499.24 122.102 1500.13 120.77 1500.92 119.582 C 1502.32 117.469 1504.24 114.602 1502.47 111.449 C 1502.2 110.98 1501.79 110.609 1501.3 110.391 C 1466.98 95.199 1426.7 87.16 1384.82 87.16"/>
    <path id="path4730" style="fill:#af4700;fill-opacity:1;fill-rule:nonzero;stroke:none" d="M 1378.32 89.801 C 1380.48 89.762 1382.63 89.66 1384.82 89.66 C 1387 89.66 1389.15 89.762 1391.34 89.801 L 1391.34 116.41 L 1378.32 116.41 L 1378.32 89.801"/>
    <path id="path4732" style="fill:#000000;fill-opacity:1;fill-rule:nonzero;stroke:none" d="M 1380.82 92.242 C 1383.47 92.16 1386.14 92.16 1388.8 92.242 L 1388.84 92.242 L 1388.84 113.91 L 1380.82 113.91 L 1380.82 92.242 Z M 1384.82 87.16 C 1383.43 87.16 1382.05 87.199 1380.67 87.242 L 1378.28 87.301 C 1376.91 87.332 1375.82 88.43 1375.82 89.801 L 1375.82 116.41 C 1375.82 117.789 1376.94 118.91 1378.32 118.91 L 1391.34 118.91 C 1392.72 118.91 1393.84 117.789 1393.84 116.41 L 1393.84 89.801 C 1393.84 88.43 1392.75 87.332 1391.39 87.301 L 1388.95 87.242 C 1387.57 87.199 1386.2 87.16 1384.82 87.16"/>
    <path id="path4734" style="fill:#ff6700;fill-opacity:1;fill-rule:nonzero;stroke:none" d="M 1471.51 31.352 L 1505.04 31.352 L 1505.04 122.742 L 1438.02 122.742 L 1471.51 31.352"/>
    <path id="path4736" style="fill:#000000;fill-opacity:1;fill-rule:nonzero;stroke:none" d="M 1473.26 33.852 L 1502.54 33.852 L 1502.54 120.242 L 1441.6 120.242 L 1473.26 33.852 Z M 1505.04 28.852 L 1471.51 28.852 C 1470.46 28.852 1469.53 29.512 1469.17 30.492 L 1435.67 121.879 C 1435.4 122.641 1435.51 123.5 1435.97 124.172 C 1436.44 124.84 1437.21 125.242 1438.02 125.242 L 1505.04 125.242 C 1506.43 125.242 1507.54 124.109 1507.54 122.742 L 1507.54 31.352 C 1507.54 29.969 1506.43 28.852 1505.04 28.852"/>
    <path id="path4738" style="fill:#2a5b6a;fill-opacity:1;fill-rule:nonzero;stroke:none" d="M 1513.5 73.832 L 1513.5 31.352 L 1465.75 31.352 L 1450.19 73.832 L 1513.5 73.832"/>
    <path id="path4740" style="fill:#000000;fill-opacity:1;fill-rule:nonzero;stroke:none" d="M 1467.5 33.852 L 1511 33.852 L 1511 71.332 L 1453.77 71.332 L 1467.5 33.852 Z M 1513.5 28.852 L 1465.75 28.852 C 1464.7 28.852 1463.76 29.512 1463.4 30.492 L 1447.84 72.969 C 1447.56 73.73 1447.68 74.59 1448.14 75.27 C 1448.61 75.93 1449.38 76.332 1450.19 76.332 L 1513.5 76.332 C 1514.88 76.332 1516 75.211 1516 73.832 L 1516 31.352 C 1516 29.969 1514.88 28.852 1513.5 28.852"/>
    <path id="path4742" style="fill:#2a5b6a;fill-opacity:1;fill-rule:nonzero;stroke:none" d="M 1258.06 73.832 L 1258.06 31.352 L 1305.8 31.352 L 1321.37 73.832 L 1258.06 73.832"/>
    <path id="path4744" style="fill:#000000;fill-opacity:1;fill-rule:nonzero;stroke:none" d="M 1260.56 33.852 L 1304.05 33.852 L 1317.79 71.332 L 1260.56 71.332 L 1260.56 33.852 Z M 1305.8 28.852 L 1258.06 28.852 C 1256.68 28.852 1255.56 29.969 1255.56 31.352 L 1255.56 73.832 C 1255.56 75.211 1256.68 76.332 1258.06 76.332 L 1321.37 76.332 C 1322.19 76.332 1322.95 75.93 1323.42 75.27 C 1323.89 74.59 1324 73.73 1323.72 72.969 L 1308.15 30.492 C 1307.79 29.512 1306.85 28.852 1305.8 28.852"/>
    <path id="path4746" style="fill:#2a5b6a;fill-opacity:1;fill-rule:nonzero;stroke:none" d="M 1263.56 110.648 L 1505.04 110.648 L 1505.04 152.859 L 1263.56 152.859 L 1263.56 110.648 Z"/>
    <path id="path4748" style="fill:#000000;fill-opacity:1;fill-rule:nonzero;stroke:none" d="M 1266.06 113.148 L 1502.54 113.148 L 1502.54 150.359 L 1266.06 150.359 L 1266.06 113.148 Z M 1505.04 108.148 L 1263.56 108.148 C 1262.18 108.148 1261.06 109.27 1261.06 110.648 L 1261.06 152.859 C 1261.06 154.242 1262.18 155.359 1263.56 155.359 L 1505.04 155.359 C 1506.43 155.359 1507.54 154.242 1507.54 152.859 L 1507.54 110.648 C 1507.54 109.27 1506.43 108.148 1505.04 108.148"/>
    <path id="path4750" style="fill:#153d44;fill-opacity:1;fill-rule:nonzero;stroke:none" d="M 1329.87 336.41 C 1306.02 333.109 1283.86 337.539 1264.3 330.141 C 1247.94 305.469 1238.25 265.398 1238.25 232.871 C 1238.25 150.84 1220.6 92.66 1220.6 92.66 C 1240.16 85.262 1306.02 79.711 1329.87 76.41 L 1329.87 336.41"/>
    <path id="path4752" style="fill:#000000;fill-opacity:1;fill-rule:nonzero;stroke:none" d="M 1223.65 94.25 C 1239.41 89.199 1276.98 85 1304.76 81.898 C 1313.55 80.91 1321.41 80.031 1327.37 79.262 L 1327.37 333.582 C 1318.82 332.59 1310.56 332.5 1302.54 332.422 C 1289.5 332.27 1277.17 332.129 1265.94 328.082 C 1250.85 304.898 1240.75 266.77 1240.75 232.871 C 1240.75 160.48 1226.87 105.898 1223.65 94.25 Z M 1329.87 73.91 C 1329.76 73.91 1329.64 73.922 1329.53 73.93 C 1323.38 74.789 1314.43 75.781 1304.2 76.93 C 1274.79 80.219 1234.51 84.719 1219.72 90.332 C 1218.49 90.781 1217.83 92.121 1218.21 93.379 C 1218.38 93.969 1235.75 152.199 1235.75 232.871 C 1235.75 268.012 1246.39 307.648 1262.22 331.531 C 1262.51 331.961 1262.92 332.289 1263.42 332.469 C 1275.68 337.121 1288.7 337.262 1302.49 337.422 C 1311.24 337.512 1320.28 337.609 1329.53 338.891 C 1330.23 338.969 1330.97 338.77 1331.51 338.289 C 1332.06 337.82 1332.37 337.129 1332.37 336.41 L 1332.37 76.41 C 1332.37 75.691 1332.06 75 1331.51 74.52 C 1331.05 74.121 1330.47 73.91 1329.87 73.91"/>
    <path id="path4754" style="fill:#153d44;fill-opacity:1;fill-rule:nonzero;stroke:none" d="M 1441.71 336.41 C 1465.57 333.109 1487.72 337.539 1507.26 330.141 C 1523.62 305.469 1533.33 265.398 1533.33 232.871 C 1533.33 150.84 1550.98 92.66 1550.98 92.66 C 1531.43 85.262 1465.57 79.711 1441.71 76.41 L 1441.71 336.41"/>
    <path id="path4756" style="fill:#000000;fill-opacity:1;fill-rule:nonzero;stroke:none" d="M 1444.21 333.582 L 1444.21 79.262 C 1450.17 80.031 1458.03 80.91 1466.82 81.898 C 1494.6 85 1532.16 89.199 1547.92 94.25 C 1544.71 105.898 1530.83 160.48 1530.83 232.871 C 1530.83 266.762 1520.72 304.879 1505.62 328.082 C 1494.4 332.129 1482.07 332.27 1469.04 332.422 C 1461.02 332.5 1452.76 332.59 1444.21 333.582 Z M 1441.71 73.91 C 1441.11 73.91 1440.53 74.121 1440.07 74.52 C 1439.53 75 1439.21 75.691 1439.21 76.41 L 1439.21 336.41 C 1439.21 337.129 1439.53 337.82 1440.07 338.289 C 1440.61 338.77 1441.35 338.969 1442.06 338.891 C 1451.3 337.609 1460.35 337.512 1469.09 337.422 C 1482.88 337.262 1495.89 337.121 1508.14 332.469 C 1508.64 332.289 1509.05 331.961 1509.35 331.531 C 1525.19 307.641 1535.83 267.992 1535.83 232.871 C 1535.83 152.199 1553.19 93.969 1553.37 93.379 C 1553.75 92.121 1553.09 90.781 1551.86 90.332 C 1537.07 84.719 1496.79 80.219 1467.38 76.93 C 1457.15 75.781 1448.2 74.789 1442.06 73.93 C 1441.94 73.922 1441.83 73.91 1441.71 73.91"/>
    <path id="path4758" style="fill:#8ba1a5;fill-opacity:1;fill-rule:nonzero;stroke:none" d="M 1429.96 132.84 C 1429.96 108.441 1410.18 88.66 1385.79 88.66 C 1361.4 88.66 1341.6 108.441 1341.6 132.84 C 1341.6 157.23 1361.4 177 1385.79 177 C 1410.18 177 1429.96 157.23 1429.96 132.84"/>
    <path id="path4760" style="fill:#000000;fill-opacity:1;fill-rule:nonzero;stroke:none" d="M 1385.79 174.5 C 1362.8 174.5 1344.1 155.801 1344.1 132.84 C 1344.1 109.859 1362.8 91.16 1385.79 91.16 C 1408.76 91.16 1427.46 109.859 1427.46 132.84 C 1427.46 155.801 1408.76 174.5 1385.79 174.5 Z M 1385.79 86.16 C 1360.04 86.16 1339.1 107.09 1339.1 132.84 C 1339.1 158.57 1360.04 179.5 1385.79 179.5 C 1411.52 179.5 1432.46 158.57 1432.46 132.84 C 1432.46 107.09 1411.52 86.16 1385.79 86.16"/>
    <path id="path4762" style="fill:#ffffff;fill-opacity:1;fill-rule:nonzero;stroke:none" d="M 1410.18 118.039 C 1414.83 123.602 1417.73 130.66 1417.73 138.461 C 1417.73 156.121 1403.44 170.43 1385.79 170.43 C 1368.13 170.43 1353.82 156.121 1353.82 138.461 C 1353.82 130.66 1356.73 123.602 1361.38 118.039 C 1357.18 117.719 1353.82 114.301 1353.82 109.98 C 1353.82 105.469 1357.49 101.801 1361.99 101.801 C 1364.58 101.801 1366.78 103.07 1368.28 104.93 L 1368.28 100.039 L 1403.28 100.039 L 1403.28 104.93 C 1404.79 103.07 1407 101.801 1409.58 101.801 C 1414.08 101.801 1417.73 105.469 1417.73 109.98 C 1417.73 114.301 1414.39 117.719 1410.18 118.039"/>
    <path id="path4764" style="fill:#000000;fill-opacity:1;fill-rule:nonzero;stroke:none" d="M 1370.78 102.539 L 1400.78 102.539 L 1400.78 104.93 C 1400.78 105.98 1401.45 106.93 1402.45 107.281 C 1403.44 107.641 1404.56 107.32 1405.22 106.5 C 1405.89 105.68 1407.34 104.301 1409.58 104.301 C 1412.7 104.301 1415.23 106.852 1415.23 109.98 C 1415.23 112.922 1412.98 115.32 1409.99 115.551 C 1409.06 115.621 1408.24 116.199 1407.88 117.07 C 1407.51 117.93 1407.66 118.93 1408.26 119.641 C 1412.82 125.102 1415.23 131.602 1415.23 138.461 C 1415.23 154.711 1402.03 167.93 1385.79 167.93 C 1369.54 167.93 1356.32 154.711 1356.32 138.461 C 1356.32 131.602 1358.74 125.102 1363.3 119.641 C 1363.9 118.93 1364.05 117.93 1363.69 117.07 C 1363.32 116.199 1362.5 115.621 1361.57 115.551 C 1358.58 115.32 1356.32 112.922 1356.32 109.98 C 1356.32 106.852 1358.86 104.301 1361.99 104.301 C 1364.22 104.301 1365.67 105.68 1366.33 106.5 C 1367 107.332 1368.11 107.652 1369.11 107.289 C 1370.11 106.941 1370.78 106 1370.78 104.93 L 1370.78 102.539 Z M 1403.28 97.539 L 1368.28 97.539 C 1366.9 97.539 1365.78 98.66 1365.78 100.031 C 1364.58 99.551 1363.3 99.301 1361.99 99.301 C 1356.11 99.301 1351.32 104.102 1351.32 109.98 C 1351.32 114.129 1353.67 117.719 1357.19 119.449 C 1353.34 125.148 1351.32 131.648 1351.32 138.461 C 1351.32 157.461 1366.78 172.93 1385.79 172.93 C 1404.78 172.93 1420.23 157.461 1420.23 138.461 C 1420.23 131.641 1418.22 125.141 1414.37 119.449 C 1417.89 117.719 1420.23 114.129 1420.23 109.98 C 1420.23 104.102 1415.45 99.301 1409.58 99.301 C 1408.27 99.301 1406.98 99.551 1405.78 100.039 C 1405.78 98.66 1404.66 97.539 1403.28 97.539"/>
    <path id="path4766" style="fill:#ffffff;fill-opacity:1;fill-rule:nonzero;stroke:none" d="M 1368.28 95.242 C 1368.28 95.242 1368.28 96.801 1368.28 98.719 C 1368.28 100.648 1369.93 102.211 1371.95 102.211 C 1373.98 102.211 1375.63 100.648 1375.63 98.719 L 1375.63 95.242 L 1368.28 95.242"/>
    <path id="path4768" style="fill:#000000;fill-opacity:1;fill-rule:nonzero;stroke:none" d="M 1375.63 92.742 L 1368.28 92.742 C 1366.89 92.742 1365.78 93.859 1365.78 95.242 L 1365.78 98.719 C 1365.78 102.02 1368.54 104.711 1371.95 104.711 C 1375.36 104.711 1378.13 102.02 1378.13 98.719 L 1378.13 95.242 C 1378.13 93.859 1377.02 92.742 1375.63 92.742"/>
    <path id="path4770" style="fill:#ffffff;fill-opacity:1;fill-rule:nonzero;stroke:none" d="M 1377.49 95.242 C 1377.49 95.242 1377.49 96.801 1377.49 98.719 C 1377.49 100.648 1379.14 102.211 1381.18 102.211 C 1383.21 102.211 1384.86 100.648 1384.86 98.719 L 1384.86 95.242 L 1377.49 95.242"/>
    <path id="path4772" style="fill:#000000;fill-opacity:1;fill-rule:nonzero;stroke:none" d="M 1384.86 92.742 L 1377.49 92.742 C 1376.11 92.742 1374.99 93.859 1374.99 95.242 L 1374.99 98.719 C 1374.99 102.02 1377.77 104.711 1381.18 104.711 C 1384.59 104.711 1387.36 102.02 1387.36 98.719 L 1387.36 95.242 C 1387.36 93.859 1386.24 92.742 1384.86 92.742"/>
    <path id="path4774" style="fill:#ffffff;fill-opacity:1;fill-rule:nonzero;stroke:none" d="M 1386.72 95.242 C 1386.72 95.242 1386.72 96.801 1386.72 98.719 C 1386.72 100.648 1388.35 102.211 1390.38 102.211 C 1392.43 102.211 1394.06 100.648 1394.06 98.719 L 1394.06 95.242 L 1386.72 95.242"/>
    <path id="path4776" style="fill:#000000;fill-opacity:1;fill-rule:nonzero;stroke:none" d="M 1394.06 92.742 L 1386.72 92.742 C 1385.34 92.742 1384.22 93.859 1384.22 95.242 L 1384.22 98.719 C 1384.22 102.02 1386.98 104.711 1390.38 104.711 C 1393.79 104.711 1396.56 102.02 1396.56 98.719 L 1396.56 95.242 C 1396.56 93.859 1395.44 92.742 1394.06 92.742"/>
    <path id="path4778" style="fill:#ffffff;fill-opacity:1;fill-rule:nonzero;stroke:none" d="M 1395.93 95.242 C 1395.93 95.242 1395.93 96.801 1395.93 98.719 C 1395.93 100.648 1397.58 102.211 1399.6 102.211 C 1401.64 102.211 1403.28 100.648 1403.28 98.719 L 1403.28 95.242 L 1395.93 95.242"/>
    <path id="path4780" style="fill:#000000;fill-opacity:1;fill-rule:nonzero;stroke:none" d="M 1403.28 92.742 L 1395.93 92.742 C 1394.55 92.742 1393.43 93.859 1393.43 95.242 L 1393.43 98.719 C 1393.43 102.02 1396.2 104.711 1399.6 104.711 C 1403.01 104.711 1405.78 102.02 1405.78 98.719 L 1405.78 95.242 C 1405.78 93.859 1404.66 92.742 1403.28 92.742"/>
    <path id="path4782" style="fill:#5d5d5d;fill-opacity:1;fill-rule:nonzero;stroke:none" d="M 1381.18 125.801 C 1381.18 120.91 1377.21 116.961 1372.32 116.961 C 1367.43 116.961 1363.46 120.91 1363.46 125.801 C 1363.46 130.691 1367.43 134.648 1372.32 134.648 C 1377.21 134.648 1381.18 130.691 1381.18 125.801"/>
    <path id="path4784" style="fill:#5d5d5d;fill-opacity:1;fill-rule:nonzero;stroke:none" d="M 1408.1 125.801 C 1408.1 120.91 1404.13 116.961 1399.24 116.961 C 1394.36 116.961 1390.38 120.91 1390.38 125.801 C 1390.38 130.691 1394.36 134.648 1399.24 134.648 C 1404.13 134.648 1408.1 130.691 1408.1 125.801"/>
    <path id="path4786" style="fill:#5d5d5d;fill-opacity:1;fill-rule:nonzero;stroke:none" d="M 1384.23 106.648 L 1378.25 106.648 L 1384.23 117.148 L 1384.23 106.648"/>
    <path id="path4788" style="fill:#5d5d5d;fill-opacity:1;fill-rule:nonzero;stroke:none" d="M 1387.33 106.648 L 1393.32 106.648 L 1387.33 117.148 L 1387.33 106.648"/>
    <path id="path4790" style="fill:#ffe36c;fill-opacity:1;fill-rule:nonzero;stroke:none" d="M 1289.51 112.992 L 1237.75 120.219 L 1243.85 163.93 L 1252.58 162.711 L 1247.71 127.742 L 1282.01 122.949 L 1286.88 157.93 L 1295.61 156.699 L 1289.51 112.992"/>
    <path id="path4792" style="fill:#000000;fill-opacity:1;fill-rule:nonzero;stroke:none" d="M 1240.58 122.352 L 1287.38 115.809 L 1292.79 154.57 L 1289 155.109 L 1284.48 122.609 C 1284.39 121.949 1284.04 121.359 1283.52 120.961 C 1282.98 120.559 1282.32 120.41 1281.66 120.469 L 1247.36 125.262 C 1245.99 125.449 1245.04 126.711 1245.23 128.082 L 1249.76 160.582 L 1245.98 161.109 L 1240.58 122.352 Z M 1289.51 110.492 C 1289.39 110.492 1289.28 110.5 1289.17 110.512 L 1237.41 117.742 C 1236.04 117.93 1235.09 119.191 1235.28 120.559 L 1241.37 164.27 C 1241.46 164.93 1241.81 165.52 1242.34 165.922 C 1242.88 166.32 1243.54 166.469 1244.19 166.41 L 1252.93 165.191 C 1254.3 164.988 1255.25 163.73 1255.06 162.371 L 1250.53 129.871 L 1279.87 125.77 L 1284.4 158.27 C 1284.49 158.941 1284.84 159.52 1285.37 159.93 C 1285.9 160.332 1286.58 160.449 1287.22 160.41 L 1295.96 159.18 C 1297.32 158.992 1298.28 157.73 1298.09 156.359 L 1291.99 112.652 C 1291.89 111.992 1291.55 111.402 1291.02 111 C 1290.58 110.672 1290.05 110.492 1289.51 110.492"/>
    <path id="path4794" style="fill:#ffe36c;fill-opacity:1;fill-rule:nonzero;stroke:none" d="M 1482.05 112.992 L 1533.82 120.219 L 1527.71 163.93 L 1518.97 162.711 L 1523.87 127.742 L 1489.56 122.949 L 1484.69 157.93 L 1475.95 156.699 L 1482.05 112.992"/>
    <path id="path4796" style="fill:#000000;fill-opacity:1;fill-rule:nonzero;stroke:none" d="M 1478.77 154.57 L 1484.18 115.809 L 1531 122.352 L 1525.59 161.109 L 1521.8 160.582 L 1526.34 128.082 C 1526.44 127.43 1526.26 126.762 1525.86 126.23 C 1525.46 125.711 1524.87 125.352 1524.21 125.262 L 1489.9 120.469 C 1489.24 120.422 1488.57 120.559 1488.05 120.961 C 1487.52 121.359 1487.17 121.949 1487.08 122.609 L 1482.56 155.109 L 1478.77 154.57 Z M 1482.05 110.492 C 1480.82 110.492 1479.75 111.402 1479.58 112.652 L 1473.47 156.359 C 1473.28 157.73 1474.23 158.992 1475.6 159.18 L 1484.34 160.41 C 1484.96 160.461 1485.66 160.34 1486.19 159.93 C 1486.72 159.52 1487.07 158.941 1487.16 158.27 L 1491.69 125.77 L 1521.04 129.871 L 1516.5 162.371 C 1516.41 163.02 1516.58 163.68 1516.98 164.211 C 1517.38 164.738 1517.97 165.09 1518.63 165.191 L 1527.37 166.41 C 1528.03 166.48 1528.69 166.32 1529.22 165.922 C 1529.75 165.52 1530.1 164.93 1530.19 164.27 L 1536.29 120.559 C 1536.39 119.91 1536.21 119.242 1535.82 118.711 C 1535.42 118.191 1534.82 117.84 1534.17 117.742 L 1482.4 110.512 C 1482.28 110.5 1482.16 110.492 1482.05 110.492"/>
    <path id="path4798" style="fill:#f4d9bd;fill-opacity:1;fill-rule:nonzero;stroke:none" d="M 1581.06 469.832 C 1581.06 381.559 1509.47 309.98 1421.19 309.98 L 1362.16 309.98 C 1273.86 309.98 1202.31 381.559 1202.31 469.832 L 1202.31 469.832 C 1202.31 558.109 1273.86 629.691 1362.16 629.691 L 1421.19 629.691 C 1509.47 629.691 1581.06 558.109 1581.06 469.832 L 1581.06 469.832"/>
    <path id="path4800" style="fill:#000000;fill-opacity:1;fill-rule:nonzero;stroke:none" d="M 1362.16 627.191 C 1275.4 627.191 1204.81 556.602 1204.81 469.832 C 1204.81 383.07 1275.4 312.48 1362.16 312.48 L 1421.19 312.48 C 1507.96 312.48 1578.56 383.07 1578.56 469.832 C 1578.56 556.602 1507.96 627.191 1421.19 627.191 L 1362.16 627.191 Z M 1421.19 307.48 L 1362.16 307.48 C 1272.64 307.48 1199.81 380.309 1199.81 469.832 C 1199.81 559.359 1272.64 632.191 1362.16 632.191 L 1421.19 632.191 C 1510.72 632.191 1583.56 559.359 1583.56 469.832 C 1583.56 380.309 1510.72 307.48 1421.19 307.48"/>
    <path id="path4802" style="fill:#f4d9bd;fill-opacity:1;fill-rule:nonzero;stroke:none" d="M 1581.06 469.832 C 1581.06 381.559 1509.47 309.98 1421.19 309.98 L 1362.16 309.98 C 1273.86 309.98 1202.31 381.559 1202.31 469.832 L 1202.31 469.832 C 1202.31 558.109 1273.86 629.691 1362.16 629.691 L 1421.19 629.691 C 1509.47 629.691 1581.06 558.109 1581.06 469.832 L 1581.06 469.832"/>
    <path id="path4804" style="fill:#000000;fill-opacity:1;fill-rule:nonzero;stroke:none" d="M 1362.16 627.191 C 1275.4 627.191 1204.81 556.602 1204.81 469.832 C 1204.81 383.07 1275.4 312.48 1362.16 312.48 L 1421.19 312.48 C 1507.96 312.48 1578.56 383.07 1578.56 469.832 C 1578.56 556.602 1507.96 627.191 1421.19 627.191 L 1362.16 627.191 Z M 1421.19 307.48 L 1362.16 307.48 C 1272.64 307.48 1199.81 380.309 1199.81 469.832 C 1199.81 559.359 1272.64 632.191 1362.16 632.191 L 1421.19 632.191 C 1510.72 632.191 1583.56 559.359 1583.56 469.832 C 1583.56 380.309 1510.72 307.48 1421.19 307.48"/>
    <path id="path4806" style="fill:#c9a88b;fill-opacity:1;fill-rule:nonzero;stroke:none" d="M 1581.06 469.832 C 1581.06 476.07 1580.61 482.199 1579.92 488.25 L 1553.22 512.801 L 1224.86 512.801 L 1204.32 493.91 C 1203.12 486.031 1202.31 478.031 1202.31 469.832 C 1202.31 458.242 1203.61 446.961 1205.96 436.059 L 1577.41 436.059 C 1579.76 446.961 1581.06 458.242 1581.06 469.832"/>
    <path id="path4808" style="fill:#000000;fill-opacity:1;fill-rule:nonzero;stroke:none" d="M 1362.16 627.191 C 1275.4 627.191 1204.81 556.602 1204.81 469.832 C 1204.81 383.07 1275.4 312.48 1362.16 312.48 L 1421.19 312.48 C 1507.96 312.48 1578.56 383.07 1578.56 469.832 C 1578.56 556.602 1507.96 627.191 1421.19 627.191 L 1362.16 627.191 Z M 1421.19 307.48 L 1362.16 307.48 C 1272.64 307.48 1199.81 380.309 1199.81 469.832 C 1199.81 559.359 1272.64 632.191 1362.16 632.191 L 1421.19 632.191 C 1510.72 632.191 1583.56 559.359 1583.56 469.832 C 1583.56 380.309 1510.72 307.48 1421.19 307.48"/>
    <path id="path4810" style="fill:#f2f1e7;fill-opacity:1;fill-rule:nonzero;stroke:none" d="M 1444.87 324.461 C 1459.29 324.461 1470.93 336.121 1470.93 350.5 L 1419.01 350.5 C 1419.01 336.121 1430.61 324.461 1444.87 324.461"/>
    <path id="path4812" style="fill:#000000;fill-opacity:1;fill-rule:nonzero;stroke:none" d="M 1421.64 348 C 1422.88 336.191 1432.83 326.961 1444.87 326.961 C 1457.02 326.961 1467.04 336.191 1468.3 348 L 1421.64 348 Z M 1444.87 321.961 C 1429.23 321.961 1416.51 334.762 1416.51 350.5 C 1416.51 351.879 1417.63 353 1419.01 353 L 1470.93 353 C 1472.31 353 1473.43 351.879 1473.43 350.5 C 1473.43 334.762 1460.62 321.961 1444.87 321.961"/>
    <path id="path4814" style="fill:#997755;fill-opacity:1;fill-rule:nonzero;stroke:none" d="M 1519.9 364.57 C 1491.43 368.25 1471.76 394.922 1451.43 377.148 C 1449.8 375.742 1448.09 373.48 1446.83 370.629 C 1445.58 373.48 1443.87 375.742 1442.24 377.148 C 1421.9 394.922 1402.23 368.25 1373.76 364.57 C 1333.04 359.34 1311.18 375.57 1311.18 375.57 C 1311.18 375.57 1320.85 347.559 1364.21 328.891 C 1389.19 318.129 1416.24 324.57 1429.58 333.559 C 1439.21 340.059 1444.38 346.672 1446.84 352.77 C 1449.29 346.672 1454.46 340.059 1464.08 333.559 C 1477.43 324.57 1504.47 318.129 1529.46 328.891 C 1572.8 347.559 1582.48 375.57 1582.48 375.57 C 1582.48 375.57 1560.62 359.34 1519.9 364.57"/>
    <path id="path4816" style="fill:#000000;fill-opacity:1;fill-rule:nonzero;stroke:none" d="M 1446.84 355.27 L 1446.84 355.27 C 1447.86 355.27 1448.77 354.641 1449.16 353.699 C 1451.73 347.289 1457.23 341.199 1465.48 335.629 C 1472.56 330.859 1485.76 325.77 1501.56 325.77 C 1511.07 325.77 1520.12 327.59 1528.47 331.18 C 1557.01 343.48 1570.64 360.012 1576.43 369.301 C 1568.66 365.672 1554.99 361.039 1535.76 361.039 C 1530.5 361.039 1525.05 361.391 1519.58 362.09 C 1508.37 363.539 1498.45 368.43 1489.69 372.75 C 1481.4 376.84 1473.57 380.699 1466.44 380.699 C 1461.56 380.699 1457.31 378.98 1453.08 375.27 C 1451.56 373.961 1450.12 371.898 1449.12 369.621 C 1448.72 368.711 1447.82 368.129 1446.83 368.129 L 1446.83 368.129 C 1445.83 368.129 1444.94 368.711 1444.54 369.621 C 1443.54 371.898 1442.11 373.949 1440.6 375.27 C 1436.41 378.922 1432.04 380.699 1427.23 380.699 C 1420.09 380.699 1412.26 376.84 1403.97 372.75 C 1395.21 368.43 1385.29 363.539 1374.08 362.09 C 1368.61 361.391 1363.16 361.039 1357.9 361.039 C 1338.66 361.039 1325 365.672 1317.23 369.301 C 1323.02 360.012 1336.65 343.48 1365.2 331.18 C 1373.54 327.59 1382.59 325.77 1392.1 325.77 C 1407.9 325.77 1421.1 330.859 1428.19 335.629 C 1436.44 341.199 1441.93 347.289 1444.52 353.699 C 1444.9 354.648 1445.82 355.27 1446.84 355.27 Z M 1501.56 320.77 C 1487.19 320.77 1472.66 324.781 1462.69 331.492 C 1455.53 336.32 1450.21 341.602 1446.84 347.199 C 1443.45 341.602 1438.14 336.32 1430.99 331.492 C 1421.01 324.781 1406.47 320.77 1392.1 320.77 C 1381.91 320.77 1372.19 322.73 1363.22 326.602 C 1319.36 345.48 1309.23 373.57 1308.82 374.75 C 1308.46 375.781 1308.82 376.941 1309.7 377.582 C 1310.59 378.242 1311.79 378.219 1312.67 377.582 C 1312.82 377.461 1328.7 366.039 1357.9 366.039 C 1362.95 366.039 1368.18 366.379 1373.44 367.051 C 1383.82 368.391 1392.94 372.879 1401.76 377.238 C 1410.59 381.59 1418.93 385.699 1427.23 385.699 C 1433.3 385.699 1438.75 383.52 1443.88 379.039 C 1444.94 378.121 1445.93 376.992 1446.83 375.711 C 1447.73 377 1448.74 378.121 1449.79 379.039 C 1454.92 383.52 1460.36 385.699 1466.44 385.699 C 1474.74 385.699 1483.07 381.59 1491.9 377.238 C 1500.72 372.879 1509.84 368.391 1520.21 367.051 C 1525.48 366.379 1530.71 366.039 1535.76 366.039 C 1564.96 366.039 1580.84 377.461 1581 377.582 C 1581.87 378.219 1583.08 378.242 1583.96 377.582 C 1584.84 376.941 1585.2 375.781 1584.84 374.75 C 1584.43 373.57 1574.3 345.48 1530.45 326.602 C 1521.47 322.73 1511.75 320.77 1501.56 320.77"/>
    <path id="path4818" style="fill:#ffa364;fill-opacity:1;fill-rule:nonzero;stroke:none" d="M 1488.52 410.512 L 1488.9 412.102 C 1488.9 435.16 1470.23 453.832 1447.18 453.832 L 1447.18 423.781 C 1432.4 423.781 1420.44 411.809 1420.44 397.051 C 1420.44 382.309 1432.4 370.352 1447.18 370.352 L 1478.9 370.352 C 1490.65 370.352 1500.18 379.871 1500.18 391.621 C 1500.18 399.898 1495.42 406.992 1488.52 410.512"/>
    <path id="path4820" style="fill:#000000;fill-opacity:1;fill-rule:nonzero;stroke:none" d="M 1449.68 451.25 L 1449.68 423.781 C 1449.68 422.41 1448.56 421.281 1447.18 421.281 C 1433.81 421.281 1422.94 410.41 1422.94 397.051 C 1422.94 383.699 1433.81 372.852 1447.18 372.852 L 1478.9 372.852 C 1489.26 372.852 1497.68 381.27 1497.68 391.621 C 1497.68 398.66 1493.74 405.031 1487.38 408.281 C 1486.36 408.809 1485.82 409.969 1486.09 411.102 L 1486.47 412.691 C 1486.41 432.91 1470.15 449.961 1449.68 451.25 Z M 1478.9 367.852 L 1447.18 367.852 C 1431.06 367.852 1417.94 380.949 1417.94 397.051 C 1417.94 412.332 1429.73 424.91 1444.68 426.18 L 1444.68 453.832 C 1444.68 455.211 1445.8 456.332 1447.18 456.332 C 1471.56 456.332 1491.4 436.492 1491.4 412.102 L 1491.34 411.789 C 1498.38 407.461 1502.68 399.91 1502.68 391.621 C 1502.68 378.512 1492.01 367.852 1478.9 367.852"/>
    <path id="path4822" style="fill:#f4d9bd;fill-opacity:1;fill-rule:nonzero;stroke:none" d="M 1489.54 390.91 C 1489.54 384.441 1484.29 379.18 1477.81 379.18 C 1471.33 379.18 1466.07 384.441 1466.07 390.91 C 1466.07 397.398 1471.33 402.648 1477.81 402.648 C 1484.29 402.648 1489.54 397.398 1489.54 390.91"/>
    <path id="path4824" style="fill:#ffe36c;fill-opacity:1;fill-rule:nonzero;stroke:none" d="M 1149.52 393.809 C 1142.23 393.809 1136.3 399.73 1136.3 407.039 C 1136.3 431.898 1156.51 452.109 1181.37 452.109 C 1188.67 452.109 1194.59 446.191 1194.59 438.871 C 1194.59 431.57 1188.67 425.641 1181.37 425.641 C 1171.11 425.641 1162.75 417.301 1162.75 407.039 C 1162.75 399.73 1156.84 393.809 1149.52 393.809"/>
    <path id="path4826" style="fill:#000000;fill-opacity:1;fill-rule:nonzero;stroke:none" d="M 1181.37 449.609 C 1157.9 449.609 1138.8 430.52 1138.8 407.039 C 1138.8 401.129 1143.61 396.309 1149.52 396.309 C 1155.43 396.309 1160.25 401.129 1160.25 407.039 C 1160.25 418.68 1169.73 428.141 1181.37 428.141 C 1187.28 428.141 1192.09 432.949 1192.09 438.871 C 1192.09 444.801 1187.28 449.609 1181.37 449.609 Z M 1149.52 391.309 C 1140.85 391.309 1133.8 398.371 1133.8 407.039 C 1133.8 433.27 1155.14 454.609 1181.37 454.609 C 1190.04 454.609 1197.09 447.551 1197.09 438.871 C 1197.09 430.199 1190.04 423.141 1181.37 423.141 C 1172.48 423.141 1165.25 415.922 1165.25 407.039 C 1165.25 398.371 1158.19 391.309 1149.52 391.309"/>
    <path id="path4828" style="fill:#f4d9bd;fill-opacity:1;fill-rule:nonzero;stroke:none" d="M 1180.62 439.5 C 1180.62 413.789 1201.46 392.949 1227.19 392.949 L 1227.19 486.059 C 1201.46 486.059 1180.62 465.242 1180.62 439.5"/>
    <path id="path4830" style="fill:#000000;fill-opacity:1;fill-rule:nonzero;stroke:none" d="M 1227.19 390.449 C 1200.13 390.449 1178.12 412.449 1178.12 439.5 C 1178.12 466.551 1200.13 488.559 1227.19 488.559 C 1228.57 488.559 1229.69 487.43 1229.69 486.059 C 1229.69 484.68 1228.57 483.559 1227.19 483.559 C 1202.89 483.559 1183.12 463.789 1183.12 439.5 C 1183.12 415.211 1202.89 395.449 1227.19 395.449 C 1228.57 395.449 1229.69 394.332 1229.69 392.949 C 1229.69 391.582 1228.57 390.449 1227.19 390.449"/>
    <path id="path4832" style="fill:#c9a88b;fill-opacity:1;fill-rule:nonzero;stroke:none" d="M 1180.62 439.5 C 1180.62 438.309 1180.87 437.211 1180.96 436.059 L 1237.19 436.059 L 1227.19 486.059 C 1201.46 486.059 1180.62 465.242 1180.62 439.5"/>
    <path id="path4834" style="fill:#000000;fill-opacity:1;fill-rule:nonzero;stroke:none" d="M 1227.19 390.449 C 1200.13 390.449 1178.12 412.449 1178.12 439.5 C 1178.12 466.551 1200.13 488.559 1227.19 488.559 C 1228.57 488.559 1229.69 487.43 1229.69 486.059 C 1229.69 484.68 1228.57 483.559 1227.19 483.559 C 1202.89 483.559 1183.12 463.789 1183.12 439.5 C 1183.12 415.211 1202.89 395.449 1227.19 395.449 C 1228.57 395.449 1229.69 394.332 1229.69 392.949 C 1229.69 391.582 1228.57 390.449 1227.19 390.449"/>
    <path id="path4836" style="fill:#c9a88b;fill-opacity:1;fill-rule:nonzero;stroke:none" d="M 1200.56 439.5 C 1200.56 424.809 1212.49 412.898 1227.19 412.898 L 1227.19 466.121 C 1212.49 466.121 1200.56 454.211 1200.56 439.5"/>
    <path id="path4838" style="fill:#000000;fill-opacity:1;fill-rule:nonzero;stroke:none" d="M 1224.69 463.488 C 1212.55 462.23 1203.06 451.961 1203.06 439.5 C 1203.06 427.051 1212.55 416.781 1224.69 415.531 L 1224.69 463.488 Z M 1227.19 410.398 C 1211.12 410.398 1198.06 423.449 1198.06 439.5 C 1198.06 455.551 1211.12 468.621 1227.19 468.621 C 1228.57 468.621 1229.69 467.488 1229.69 466.121 L 1229.69 412.898 C 1229.69 411.531 1228.57 410.398 1227.19 410.398"/>
    <path id="path4840" style="fill:#2a5b6a;fill-opacity:1;fill-rule:nonzero;stroke:none" d="M 1390.16 455.461 C 1390.16 441.781 1379.06 430.691 1365.38 430.691 C 1351.69 430.691 1340.61 441.781 1340.61 455.461 C 1340.61 469.141 1351.69 480.242 1365.38 480.242 C 1379.06 480.242 1390.16 469.141 1390.16 455.461"/>
    <path id="path4842" style="fill:#000000;fill-opacity:1;fill-rule:nonzero;stroke:none" d="M 1365.38 477.742 C 1353.1 477.742 1343.11 467.75 1343.11 455.461 C 1343.11 443.18 1353.1 433.191 1365.38 433.191 C 1377.66 433.191 1387.66 443.18 1387.66 455.461 C 1387.66 467.75 1377.66 477.742 1365.38 477.742 Z M 1365.38 428.191 C 1350.34 428.191 1338.11 440.422 1338.11 455.461 C 1338.11 470.5 1350.34 482.742 1365.38 482.742 C 1380.42 482.742 1392.66 470.5 1392.66 455.461 C 1392.66 440.422 1380.42 428.191 1365.38 428.191"/>
    <path id="path4844" style="fill:#2a5b6a;fill-opacity:1;fill-rule:nonzero;stroke:none" d="M 1571.89 455.461 C 1571.89 441.781 1560.79 430.691 1547.11 430.691 C 1533.44 430.691 1522.34 441.781 1522.34 455.461 C 1522.34 469.141 1533.44 480.242 1547.11 480.242 C 1560.79 480.242 1571.89 469.141 1571.89 455.461"/>
    <path id="path4846" style="fill:#000000;fill-opacity:1;fill-rule:nonzero;stroke:none" d="M 1547.11 477.742 C 1534.83 477.742 1524.84 467.75 1524.84 455.461 C 1524.84 443.18 1534.83 433.191 1547.11 433.191 C 1559.39 433.191 1569.39 443.18 1569.39 455.461 C 1569.39 467.75 1559.39 477.742 1547.11 477.742 Z M 1547.11 428.191 C 1532.08 428.191 1519.84 440.422 1519.84 455.461 C 1519.84 470.5 1532.08 482.742 1547.11 482.742 C 1562.15 482.742 1574.39 470.5 1574.39 455.461 C 1574.39 440.422 1562.15 428.191 1547.11 428.191"/>
    <path id="path4848" style="fill:#997755;fill-opacity:1;fill-rule:nonzero;stroke:none" d="M 1306.41 466.531 L 1409.14 452.18 L 1409.14 480.762 L 1306.41 512.969 L 1306.41 466.531"/>
    <path id="path4850" style="fill:#000000;fill-opacity:1;fill-rule:nonzero;stroke:none" d="M 1308.91 468.699 L 1406.64 455.051 L 1406.64 478.922 L 1308.91 509.559 L 1308.91 468.699 Z M 1409.14 449.68 C 1409.02 449.68 1408.91 449.691 1408.79 449.699 L 1306.06 464.051 C 1304.82 464.219 1303.91 465.281 1303.91 466.531 L 1303.91 512.969 C 1303.91 513.762 1304.29 514.52 1304.93 514.98 C 1305.56 515.449 1306.4 515.602 1307.15 515.352 L 1409.88 483.141 C 1410.93 482.82 1411.64 481.852 1411.64 480.762 L 1411.64 452.18 C 1411.64 451.461 1411.32 450.77 1410.78 450.301 C 1410.32 449.898 1409.74 449.68 1409.14 449.68"/>
    <path id="path4852" style="fill:#997755;fill-opacity:1;fill-rule:nonzero;stroke:none" d="M 1588.86 466.5 L 1505.95 452.18 L 1505.95 480.832 L 1588.86 512.949 L 1588.86 466.5"/>
    <path id="path4854" style="fill:#000000;fill-opacity:1;fill-rule:nonzero;stroke:none" d="M 1508.45 479.121 L 1508.45 455.148 L 1586.36 468.609 L 1586.36 509.301 L 1508.45 479.121 Z M 1505.95 449.68 C 1505.36 449.68 1504.79 449.891 1504.34 450.27 C 1503.77 450.75 1503.45 451.441 1503.45 452.18 L 1503.45 480.832 C 1503.45 481.871 1504.08 482.801 1505.04 483.172 L 1587.95 515.289 C 1588.73 515.57 1589.59 515.48 1590.27 515.012 C 1590.95 514.539 1591.36 513.77 1591.36 512.949 L 1591.36 466.5 C 1591.36 465.281 1590.48 464.242 1589.28 464.039 L 1506.37 449.719 C 1506.23 449.691 1506.09 449.68 1505.95 449.68"/>
    <path id="path4856" style="fill:#425059;fill-opacity:1;fill-rule:nonzero;stroke:none" d="M 1563.75 526.762 L 1545.43 549.121 L 1404.83 484.5 C 1395.06 499.23 1378.32 508.969 1359.28 508.969 C 1329.09 508.969 1304.62 484.512 1304.62 454.309 C 1304.62 450.301 1305.09 446.422 1305.9 442.66 L 1208.4 399.07 L 1217.84 376.711 L 1316.25 420.691 C 1326.27 407.898 1341.81 399.648 1359.28 399.648 C 1389.48 399.648 1413.94 424.121 1413.94 454.309 C 1413.94 456.84 1413.71 459.301 1413.38 461.719 L 1563.75 526.762"/>
    <path id="path4858" style="fill:#000000;fill-opacity:1;fill-rule:nonzero;stroke:none" d="M 1211.66 397.789 L 1219.15 380.031 L 1315.23 422.969 C 1316.27 423.441 1317.51 423.121 1318.22 422.23 C 1328.22 409.469 1343.18 402.148 1359.28 402.148 C 1388.04 402.148 1411.44 425.551 1411.44 454.309 C 1411.44 456.469 1411.27 458.711 1410.91 461.391 C 1410.76 462.488 1411.36 463.57 1412.39 464.02 L 1559.72 527.742 L 1544.73 546.051 L 1405.88 482.219 C 1404.77 481.73 1403.44 482.082 1402.75 483.121 C 1393.06 497.742 1376.81 506.469 1359.28 506.469 C 1330.52 506.469 1307.12 483.07 1307.12 454.309 C 1307.12 450.672 1307.53 446.93 1308.34 443.191 C 1308.6 442.031 1308 440.859 1306.92 440.371 L 1211.66 397.789 Z M 1217.84 374.211 C 1217.52 374.211 1217.22 374.27 1216.92 374.391 C 1216.29 374.629 1215.8 375.121 1215.53 375.742 L 1206.09 398.09 C 1205.57 399.352 1206.14 400.789 1207.38 401.352 L 1303.06 444.121 C 1302.44 447.551 1302.12 450.969 1302.12 454.309 C 1302.12 485.82 1327.76 511.469 1359.28 511.469 C 1377.77 511.469 1394.96 502.602 1405.7 487.641 L 1544.39 551.398 C 1545.42 551.859 1546.64 551.602 1547.37 550.711 L 1565.69 528.34 C 1566.19 527.742 1566.37 526.941 1566.19 526.18 C 1566 525.41 1565.47 524.781 1564.75 524.469 L 1416.09 460.172 C 1416.32 458.059 1416.44 456.172 1416.44 454.309 C 1416.44 422.801 1390.8 397.148 1359.28 397.148 C 1342.29 397.148 1326.45 404.582 1315.52 417.621 L 1218.86 374.43 C 1218.54 374.281 1218.18 374.211 1217.84 374.211"/>
    <path id="path4860" style="fill:#ffe36c;fill-opacity:1;fill-rule:nonzero;stroke:none" d="M 1213.19 420.281 C 1205.88 420.281 1199.97 414.359 1199.97 407.039 C 1199.97 396.801 1191.61 388.441 1181.37 388.441 C 1171.11 388.441 1162.75 396.801 1162.75 407.039 L 1136.3 407.039 C 1136.3 382.191 1156.51 361.98 1181.37 361.98 C 1206.21 361.98 1226.42 382.191 1226.42 407.039 C 1226.42 414.359 1220.49 420.281 1213.19 420.281"/>
    <path id="path4862" style="fill:#000000;fill-opacity:1;fill-rule:nonzero;stroke:none" d="M 1181.37 359.48 C 1155.14 359.48 1133.8 380.809 1133.8 407.039 C 1133.8 408.422 1134.92 409.539 1136.3 409.539 C 1137.68 409.539 1138.8 408.422 1138.8 407.039 C 1138.8 383.57 1157.9 364.48 1181.37 364.48 C 1204.83 364.48 1223.92 383.57 1223.92 407.039 C 1223.92 412.961 1219.11 417.781 1213.19 417.781 C 1207.28 417.781 1202.47 412.961 1202.47 407.039 C 1202.47 395.398 1193.01 385.941 1181.37 385.941 C 1169.73 385.941 1160.25 395.398 1160.25 407.039 C 1160.25 408.422 1161.37 409.539 1162.75 409.539 C 1164.13 409.539 1165.25 408.422 1165.25 407.039 C 1165.25 398.172 1172.48 390.941 1181.37 390.941 C 1190.25 390.941 1197.47 398.172 1197.47 407.039 C 1197.47 415.719 1204.52 422.781 1213.19 422.781 C 1221.87 422.781 1228.92 415.719 1228.92 407.039 C 1228.92 380.809 1207.59 359.48 1181.37 359.48"/>
    <path id="path4864" style="fill:#153d44;fill-opacity:1;fill-rule:nonzero;stroke:none" d="M 1553.22 562.801 L 1224.86 562.801 L 1141.39 486.059 L 1636.68 486.059 L 1553.22 562.801"/>
    <path id="path4866" style="fill:#000000;fill-opacity:1;fill-rule:nonzero;stroke:none" d="M 1147.8 488.559 L 1630.27 488.559 L 1552.24 560.301 L 1225.84 560.301 L 1147.8 488.559 Z M 1636.68 483.559 L 1141.39 483.559 C 1140.36 483.559 1139.43 484.191 1139.06 485.148 C 1138.68 486.109 1138.94 487.199 1139.69 487.891 L 1223.17 564.629 C 1223.63 565.059 1224.24 565.301 1224.86 565.301 L 1553.22 565.301 C 1553.84 565.301 1554.45 565.059 1554.91 564.629 L 1638.38 487.891 C 1639.14 487.199 1639.39 486.109 1639.01 485.148 C 1638.64 484.191 1637.71 483.559 1636.68 483.559"/>
    <path id="path4868" style="fill:#153d44;fill-opacity:1;fill-rule:nonzero;stroke:none" d="M 1553.22 562.801 L 1224.86 562.801 L 1290.73 809.75 L 1487.34 809.75 L 1553.22 562.801"/>
    <path id="path4870" style="fill:#000000;fill-opacity:1;fill-rule:nonzero;stroke:none" d="M 1228.12 565.301 L 1549.97 565.301 L 1485.42 807.25 L 1292.65 807.25 L 1228.12 565.301 Z M 1553.34 560.301 C 1553.28 560.301 1553.25 560.301 1553.22 560.301 L 1224.86 560.301 C 1224.09 560.301 1223.35 560.66 1222.88 561.27 C 1222.41 561.891 1222.25 562.691 1222.45 563.441 L 1288.32 810.391 C 1288.61 811.492 1289.6 812.25 1290.73 812.25 L 1487.34 812.25 C 1488.47 812.25 1489.46 811.492 1489.76 810.391 L 1555.44 564.148 C 1555.7 563.762 1555.84 563.289 1555.84 562.801 C 1555.84 561.422 1554.72 560.301 1553.34 560.301"/>
    <path id="path4872" style="fill:#d33200;fill-opacity:1;fill-rule:nonzero;stroke:none" d="M 1244.97 638.18 L 1224.86 562.801 L 1553.22 562.801 L 1533.11 638.18 L 1244.97 638.18"/>
    <path id="path4874" style="fill:#000000;fill-opacity:1;fill-rule:nonzero;stroke:none" d="M 1228.12 565.301 L 1549.96 565.301 L 1531.19 635.68 L 1246.89 635.68 L 1228.12 565.301 Z M 1553.22 560.301 L 1224.86 560.301 C 1224.09 560.301 1223.35 560.66 1222.88 561.27 C 1222.41 561.891 1222.25 562.691 1222.45 563.441 L 1242.55 638.82 C 1242.85 639.922 1243.84 640.68 1244.97 640.68 L 1533.11 640.68 C 1534.24 640.68 1535.23 639.922 1535.52 638.82 L 1555.63 563.441 C 1555.83 562.691 1555.67 561.891 1555.2 561.27 C 1554.73 560.66 1553.99 560.301 1553.22 560.301"/>
    <path id="path4876" style="fill:#ffffff;fill-opacity:1;fill-rule:nonzero;stroke:none" d="M 1487.67 587.059 C 1494.3 594.98 1498.45 605.059 1498.45 616.191 C 1498.45 641.41 1478.02 661.84 1452.83 661.84 C 1427.61 661.84 1407.18 641.41 1407.18 616.191 C 1407.18 605.051 1411.33 594.98 1417.96 587.059 C 1411.96 586.59 1407.18 581.691 1407.18 575.551 C 1407.18 569.102 1412.41 563.871 1418.85 563.871 C 1422.56 563.871 1425.71 565.691 1427.85 568.371 L 1427.85 561.352 L 1477.81 561.352 L 1477.81 568.332 C 1479.95 565.68 1483.1 563.871 1486.79 563.871 C 1493.24 563.871 1498.45 569.102 1498.45 575.551 C 1498.45 581.691 1493.69 586.59 1487.67 587.059"/>
    <path id="path4878" style="fill:#000000;fill-opacity:1;fill-rule:nonzero;stroke:none" d="M 1430.35 563.852 L 1475.31 563.852 L 1475.31 568.332 C 1475.31 569.398 1475.98 570.34 1476.97 570.691 C 1477.96 571.051 1479.08 570.73 1479.75 569.91 C 1481.59 567.621 1484.09 566.371 1486.79 566.371 C 1491.84 566.371 1495.95 570.492 1495.95 575.551 C 1495.95 580.309 1492.3 584.18 1487.47 584.57 C 1486.54 584.641 1485.73 585.242 1485.37 586.102 C 1485 586.961 1485.15 587.949 1485.75 588.672 C 1492.43 596.629 1495.95 606.16 1495.95 616.191 C 1495.95 639.98 1476.61 659.34 1452.83 659.34 C 1429.04 659.34 1409.68 639.98 1409.68 616.191 C 1409.68 606.16 1413.21 596.629 1419.88 588.672 C 1420.48 587.949 1420.63 586.961 1420.27 586.102 C 1419.91 585.242 1419.1 584.641 1418.16 584.57 C 1413.33 584.18 1409.68 580.309 1409.68 575.551 C 1409.68 570.492 1413.79 566.371 1418.85 566.371 C 1421.56 566.371 1424.06 567.629 1425.89 569.93 C 1426.56 570.77 1427.69 571.07 1428.67 570.742 C 1429.67 570.379 1430.35 569.441 1430.35 568.371 L 1430.35 563.852 Z M 1477.81 558.852 L 1427.85 558.852 C 1426.46 558.852 1425.35 559.969 1425.35 561.352 L 1425.35 563.039 C 1423.35 561.961 1421.13 561.371 1418.85 561.371 C 1411.04 561.371 1404.68 567.73 1404.68 575.551 C 1404.68 581.492 1408.32 586.551 1413.61 588.609 C 1407.75 596.801 1404.68 606.262 1404.68 616.191 C 1404.68 642.742 1426.28 664.34 1452.83 664.34 C 1479.37 664.34 1500.95 642.742 1500.95 616.191 C 1500.95 606.262 1497.88 596.801 1492.03 588.609 C 1497.32 586.551 1500.95 581.492 1500.95 575.551 C 1500.95 567.73 1494.6 561.371 1486.79 561.371 C 1484.52 561.371 1482.3 561.961 1480.31 563.031 L 1480.31 561.352 C 1480.31 559.969 1479.19 558.852 1477.81 558.852"/>
    <path id="path4880" style="fill:#ffffff;fill-opacity:1;fill-rule:nonzero;stroke:none" d="M 1427.85 554.48 C 1427.85 554.48 1427.85 556.719 1427.85 559.461 C 1427.85 562.211 1430.19 564.449 1433.08 564.449 C 1435.98 564.449 1438.34 562.211 1438.34 559.461 L 1438.34 554.48 L 1427.85 554.48"/>
    <path id="path4882" style="fill:#000000;fill-opacity:1;fill-rule:nonzero;stroke:none" d="M 1430.35 556.98 L 1435.84 556.98 L 1435.84 559.461 C 1435.84 560.832 1434.6 561.949 1433.08 561.949 C 1431.57 561.949 1430.35 560.832 1430.35 559.461 L 1430.35 556.98 Z M 1438.34 551.98 L 1427.85 551.98 C 1426.46 551.98 1425.35 553.102 1425.35 554.48 L 1425.35 559.461 C 1425.35 563.59 1428.81 566.949 1433.08 566.949 C 1437.36 566.949 1440.84 563.59 1440.84 559.461 L 1440.84 554.48 C 1440.84 553.102 1439.72 551.98 1438.34 551.98"/>
    <path id="path4884" style="fill:#ffffff;fill-opacity:1;fill-rule:nonzero;stroke:none" d="M 1440.99 554.48 C 1440.99 554.48 1440.99 556.719 1440.99 559.461 C 1440.99 562.211 1443.33 564.449 1446.24 564.449 C 1449.14 564.449 1451.49 562.211 1451.49 559.461 L 1451.49 554.48 L 1440.99 554.48"/>
    <path id="path4886" style="fill:#000000;fill-opacity:1;fill-rule:nonzero;stroke:none" d="M 1443.49 556.98 L 1448.99 556.98 L 1448.99 559.461 C 1448.99 560.832 1447.76 561.949 1446.24 561.949 C 1444.73 561.949 1443.49 560.832 1443.49 559.461 L 1443.49 556.98 Z M 1451.49 551.98 L 1440.99 551.98 C 1439.61 551.98 1438.49 553.102 1438.49 554.48 L 1438.49 559.461 C 1438.49 563.59 1441.97 566.949 1446.24 566.949 C 1450.52 566.949 1453.99 563.59 1453.99 559.461 L 1453.99 554.48 C 1453.99 553.102 1452.88 551.98 1451.49 551.98"/>
    <path id="path4888" style="fill:#ffffff;fill-opacity:1;fill-rule:nonzero;stroke:none" d="M 1454.15 554.48 C 1454.15 554.48 1454.15 556.719 1454.15 559.461 C 1454.15 562.211 1456.5 564.449 1459.4 564.449 C 1462.31 564.449 1464.65 562.211 1464.65 559.461 L 1464.65 554.48 L 1454.15 554.48"/>
    <path id="path4890" style="fill:#000000;fill-opacity:1;fill-rule:nonzero;stroke:none" d="M 1456.65 556.98 L 1462.15 556.98 L 1462.15 559.461 C 1462.15 560.832 1460.91 561.949 1459.4 561.949 C 1457.89 561.949 1456.65 560.832 1456.65 559.461 L 1456.65 556.98 Z M 1464.65 551.98 L 1454.15 551.98 C 1452.77 551.98 1451.65 553.102 1451.65 554.48 L 1451.65 559.461 C 1451.65 563.59 1455.13 566.949 1459.4 566.949 C 1463.67 566.949 1467.15 563.59 1467.15 559.461 L 1467.15 554.48 C 1467.15 553.102 1466.03 551.98 1464.65 551.98"/>
    <path id="path4892" style="fill:#ffffff;fill-opacity:1;fill-rule:nonzero;stroke:none" d="M 1467.3 554.48 C 1467.3 554.48 1467.3 556.719 1467.3 559.461 C 1467.3 562.211 1469.66 564.449 1472.55 564.449 C 1475.47 564.449 1477.81 562.211 1477.81 559.461 L 1477.81 554.48 L 1467.3 554.48"/>
    <path id="path4894" style="fill:#000000;fill-opacity:1;fill-rule:nonzero;stroke:none" d="M 1469.8 556.98 L 1475.31 556.98 L 1475.31 559.461 C 1475.31 560.832 1474.07 561.949 1472.55 561.949 C 1471.04 561.949 1469.8 560.832 1469.8 559.461 L 1469.8 556.98 Z M 1477.81 551.98 L 1467.3 551.98 C 1465.92 551.98 1464.8 553.102 1464.8 554.48 L 1464.8 559.461 C 1464.8 563.59 1468.28 566.949 1472.55 566.949 C 1476.83 566.949 1480.31 563.59 1480.31 559.461 L 1480.31 554.48 C 1480.31 553.102 1479.19 551.98 1477.81 551.98"/>
    <path id="path4896" style="fill:#5d5d5d;fill-opacity:1;fill-rule:nonzero;stroke:none" d="M 1446.24 598.109 C 1446.24 591.141 1440.6 585.492 1433.6 585.492 C 1426.64 585.492 1420.97 591.141 1420.97 598.109 C 1420.97 605.09 1426.64 610.762 1433.6 610.762 C 1440.6 610.762 1446.24 605.09 1446.24 598.109"/>
    <path id="path4898" style="fill:#5d5d5d;fill-opacity:1;fill-rule:nonzero;stroke:none" d="M 1484.68 598.109 C 1484.68 591.141 1479 585.492 1472.03 585.492 C 1465.07 585.492 1459.4 591.141 1459.4 598.109 C 1459.4 605.09 1465.07 610.762 1472.03 610.762 C 1479 610.762 1484.68 605.09 1484.68 598.109"/>
    <path id="path4900" style="fill:#5d5d5d;fill-opacity:1;fill-rule:nonzero;stroke:none" d="M 1450.59 570.789 L 1442.06 570.789 L 1450.59 585.77 L 1450.59 570.789"/>
    <path id="path4902" style="fill:#5d5d5d;fill-opacity:1;fill-rule:nonzero;stroke:none" d="M 1455.04 570.789 L 1463.57 570.789 L 1455.04 585.77 L 1455.04 570.789"/>
  </g>
</svg>