<?xml version="1.0" encoding="utf-8"?>
<svg viewBox="412.93798828125 5.39900016784668 84.81999969482422 87.76300048828125" width="84.81999969482422" height="87.76300048828125" xmlns="http://www.w3.org/2000/svg">
  <g transform="matrix(0.12500000186264515, 0, 0, -0.12500000186264515, 0, 526.1375122070312)">
    <path id="path32" style="fill:#ddd8bf;fill-opacity:1;fill-rule:nonzero;stroke:none" d="M 3901.17 3490.96 C 3901.17 3475.97 3789.87 3463.81 3652.57 3463.81 C 3515.26 3463.81 3403.95 3475.97 3403.95 3490.96 C 3403.95 3505.95 3515.26 3518.11 3652.57 3518.11 C 3789.87 3518.11 3901.17 3505.95 3901.17 3490.96"/>
    <path id="path1656" style="fill:#bcc4cd;fill-opacity:1;fill-rule:nonzero;stroke:none" d="M 3370.51 3752.63 L 3348.53 3751.61 L 3306.18 3793.93 L 3328.18 3794.98 L 3370.51 3752.63"/>
    <path id="path1658" style="fill:#000000;fill-opacity:1;fill-rule:nonzero;stroke:none" d="M 3311.94 3791.7 L 3349.51 3754.15 L 3364.74 3754.86 L 3327.2 3792.43 L 3311.94 3791.7 Z M 3348.53 3749.11 C 3347.86 3749.11 3347.23 3749.37 3346.76 3749.84 L 3304.41 3792.16 C 3303.71 3792.86 3303.5 3793.91 3303.85 3794.83 C 3304.21 3795.75 3305.08 3796.38 3306.06 3796.43 L 3328.07 3797.47 C 3328.77 3797.55 3329.46 3797.24 3329.95 3796.75 L 3372.28 3754.4 C 3372.98 3753.7 3373.19 3752.65 3372.84 3751.73 C 3372.48 3750.8 3371.61 3750.18 3370.63 3750.14 L 3348.64 3749.11 C 3348.6 3749.11 3348.56 3749.11 3348.53 3749.11"/>
    <path id="path1660" style="fill:#bcc4cd;fill-opacity:1;fill-rule:nonzero;stroke:none" d="M 3377.87 3760 L 3378.91 3781.97 L 3336.55 3824.33 L 3335.51 3802.32 L 3377.87 3760"/>
    <path id="path1662" style="fill:#000000;fill-opacity:1;fill-rule:nonzero;stroke:none" d="M 3338.06 3803.31 L 3375.64 3765.75 L 3376.36 3780.98 L 3338.78 3818.56 L 3338.06 3803.31 Z M 3377.87 3757.5 C 3377.22 3757.5 3376.58 3757.75 3376.1 3758.23 L 3333.74 3800.55 C 3333.24 3801.05 3332.98 3801.74 3333.01 3802.44 L 3334.05 3824.45 C 3334.1 3825.44 3334.73 3826.3 3335.65 3826.66 C 3336.59 3827 3337.63 3826.8 3338.32 3826.1 L 3380.67 3783.74 C 3381.17 3783.24 3381.44 3782.56 3381.41 3781.86 L 3380.37 3759.88 C 3380.32 3758.89 3379.7 3758.02 3378.77 3757.66 C 3378.48 3757.55 3378.17 3757.5 3377.87 3757.5"/>
    <path id="path1664" style="fill:#425059;fill-opacity:1;fill-rule:nonzero;stroke:none" d="M 3354.78 3768.36 L 3332.79 3767.3 L 3321.9 3778.25 L 3343.89 3779.27 L 3354.78 3768.36"/>
    <path id="path1666" style="fill:#000000;fill-opacity:1;fill-rule:nonzero;stroke:none" d="M 3327.66 3776.02 L 3333.78 3769.85 L 3349.02 3770.59 L 3342.9 3776.72 L 3327.66 3776.02 Z M 3332.79 3764.8 C 3332.13 3764.8 3331.49 3765.06 3331.02 3765.54 L 3320.13 3776.49 C 3319.43 3777.2 3319.22 3778.24 3319.57 3779.16 C 3319.93 3780.08 3320.8 3780.71 3321.79 3780.75 L 3343.77 3781.77 C 3344.5 3781.82 3345.16 3781.53 3345.65 3781.04 L 3356.54 3770.13 C 3357.25 3769.42 3357.46 3768.38 3357.11 3767.45 C 3356.75 3766.53 3355.88 3765.91 3354.89 3765.86 L 3332.91 3764.8 C 3332.87 3764.8 3332.83 3764.8 3332.79 3764.8"/>
    <path id="path1668" style="fill:#425059;fill-opacity:1;fill-rule:nonzero;stroke:none" d="M 3362.13 3775.7 L 3363.16 3797.71 L 3352.25 3808.6 L 3351.23 3786.61 L 3362.13 3775.7"/>
    <path id="path1670" style="fill:#000000;fill-opacity:1;fill-rule:nonzero;stroke:none" d="M 3353.78 3787.6 L 3359.9 3781.47 L 3360.62 3796.72 L 3354.48 3802.84 L 3353.78 3787.6 Z M 3362.13 3773.2 C 3361.47 3773.2 3360.84 3773.46 3360.36 3773.93 L 3349.46 3784.85 C 3348.96 3785.34 3348.7 3786.03 3348.73 3786.73 L 3349.75 3808.72 C 3349.79 3809.71 3350.42 3810.57 3351.34 3810.93 C 3352.28 3811.29 3353.32 3811.07 3354.01 3810.37 L 3364.93 3799.48 C 3365.43 3798.98 3365.69 3798.29 3365.66 3797.59 L 3364.63 3775.59 C 3364.58 3774.59 3363.96 3773.73 3363.03 3773.37 C 3362.73 3773.25 3362.43 3773.2 3362.13 3773.2"/>
    <path id="path1672" style="fill:#f15a24;fill-opacity:1;fill-rule:nonzero;stroke:none" d="M 3443.08 3694.8 L 3435.71 3687.45 L 3318.78 3804.38 L 3326.1 3811.74 L 3443.08 3694.8"/>
    <path id="path1674" style="fill:#000000;fill-opacity:1;fill-rule:nonzero;stroke:none" d="M 3322.31 3804.39 L 3435.71 3690.98 L 3439.54 3694.8 L 3326.1 3808.2 L 3322.31 3804.39 Z M 3435.71 3684.95 C 3435.07 3684.95 3434.43 3685.19 3433.95 3685.68 L 3317.01 3802.62 C 3316.04 3803.59 3316.04 3805.17 3317.01 3806.14 L 3324.34 3813.5 C 3324.8 3813.98 3325.44 3814.24 3326.1 3814.24 L 3326.1 3814.24 C 3326.77 3814.24 3327.4 3813.98 3327.87 3813.51 L 3444.84 3696.57 C 3445.31 3696.1 3445.58 3695.46 3445.58 3694.8 C 3445.58 3694.13 3445.31 3693.5 3444.84 3693.03 L 3437.48 3685.68 C 3436.99 3685.19 3436.35 3684.95 3435.71 3684.95"/>
    <path id="path1676" style="fill:#bcc4cd;fill-opacity:1;fill-rule:nonzero;stroke:none" d="M 3413.37 3795.51 L 3391.38 3794.46 L 3349.03 3836.84 L 3371.04 3837.84 L 3413.37 3795.51"/>
    <path id="path1678" style="fill:#000000;fill-opacity:1;fill-rule:nonzero;stroke:none" d="M 3354.8 3834.6 L 3392.36 3797.01 L 3407.61 3797.74 L 3370.06 3835.3 L 3354.8 3834.6 Z M 3391.38 3791.96 C 3390.71 3791.96 3390.08 3792.23 3389.61 3792.7 L 3347.27 3835.07 C 3346.56 3835.77 3346.35 3836.82 3346.7 3837.74 C 3347.06 3838.66 3347.93 3839.29 3348.92 3839.33 L 3370.93 3840.34 C 3371.66 3840.36 3372.31 3840.11 3372.81 3839.61 L 3415.14 3797.28 C 3415.84 3796.58 3416.05 3795.53 3415.7 3794.61 C 3415.34 3793.68 3414.47 3793.06 3413.49 3793.02 L 3391.49 3791.96 C 3391.46 3791.96 3391.42 3791.96 3391.38 3791.96"/>
    <path id="path1680" style="fill:#bcc4cd;fill-opacity:1;fill-rule:nonzero;stroke:none" d="M 3420.71 3802.82 L 3421.76 3824.84 L 3379.4 3867.15 L 3378.4 3845.18 L 3420.71 3802.82"/>
    <path id="path1682" style="fill:#000000;fill-opacity:1;fill-rule:nonzero;stroke:none" d="M 3380.95 3846.17 L 3418.49 3808.59 L 3419.21 3823.85 L 3381.64 3861.38 L 3380.95 3846.17 Z M 3420.71 3800.32 C 3420.06 3800.32 3419.42 3800.57 3418.95 3801.05 L 3376.63 3843.42 C 3376.13 3843.91 3375.87 3844.6 3375.9 3845.3 L 3376.9 3867.27 C 3376.95 3868.25 3377.58 3869.13 3378.5 3869.48 C 3379.42 3869.84 3380.48 3869.62 3381.17 3868.92 L 3423.53 3826.61 C 3424.02 3826.11 3424.29 3825.42 3424.26 3824.72 L 3423.21 3802.7 C 3423.16 3801.71 3422.54 3800.84 3421.61 3800.48 C 3421.32 3800.37 3421.02 3800.32 3420.71 3800.32"/>
    <path id="path1684" style="fill:#425059;fill-opacity:1;fill-rule:nonzero;stroke:none" d="M 3397.67 3811.21 L 3375.65 3810.19 L 3364.75 3821.1 L 3386.73 3822.12 L 3397.67 3811.21"/>
    <path id="path1686" style="fill:#000000;fill-opacity:1;fill-rule:nonzero;stroke:none" d="M 3370.52 3818.86 L 3376.64 3812.74 L 3391.88 3813.45 L 3385.74 3819.57 L 3370.52 3818.86 Z M 3375.65 3807.69 C 3374.99 3807.69 3374.36 3807.95 3373.89 3808.42 L 3362.98 3819.33 C 3362.28 3820.03 3362.06 3821.08 3362.41 3822 C 3362.77 3822.92 3363.64 3823.55 3364.63 3823.59 L 3386.61 3824.61 C 3387.39 3824.62 3388 3824.38 3388.5 3823.89 L 3399.43 3812.99 C 3400.14 3812.29 3400.35 3811.24 3400 3810.31 C 3399.64 3809.39 3398.77 3808.76 3397.78 3808.72 L 3375.77 3807.7 C 3375.73 3807.69 3375.69 3807.69 3375.65 3807.69"/>
    <path id="path1688" style="fill:#425059;fill-opacity:1;fill-rule:nonzero;stroke:none" d="M 3404.99 3818.58 L 3406.04 3840.56 L 3395.14 3851.46 L 3394.09 3829.48 L 3404.99 3818.58"/>
    <path id="path1690" style="fill:#000000;fill-opacity:1;fill-rule:nonzero;stroke:none" d="M 3396.64 3830.47 L 3402.76 3824.34 L 3403.49 3839.57 L 3397.36 3845.7 L 3396.64 3830.47 Z M 3404.99 3816.08 C 3404.34 3816.08 3403.7 3816.33 3403.22 3816.81 L 3392.32 3827.72 C 3391.83 3828.21 3391.56 3828.9 3391.59 3829.6 L 3392.64 3851.58 C 3392.69 3852.57 3393.31 3853.44 3394.24 3853.8 C 3395.17 3854.14 3396.21 3853.93 3396.9 3853.23 L 3407.8 3842.33 C 3408.3 3841.83 3408.56 3841.14 3408.54 3840.44 L 3407.49 3818.46 C 3407.44 3817.47 3406.82 3816.6 3405.89 3816.25 C 3405.6 3816.13 3405.29 3816.08 3404.99 3816.08"/>
    <path id="path1692" style="fill:#f15a24;fill-opacity:1;fill-rule:nonzero;stroke:none" d="M 3485.9 3737.69 L 3478.55 3730.32 L 3361.63 3847.27 L 3369 3854.6 L 3485.9 3737.69"/>
    <path id="path1694" style="fill:#000000;fill-opacity:1;fill-rule:nonzero;stroke:none" d="M 3365.17 3847.26 L 3478.55 3733.86 L 3482.36 3737.68 L 3369 3851.07 L 3365.17 3847.26 Z M 3478.55 3727.82 C 3477.89 3727.82 3477.26 3728.09 3476.79 3728.55 L 3359.86 3845.5 C 3359.39 3845.96 3359.13 3846.61 3359.13 3847.27 C 3359.13 3847.93 3359.39 3848.57 3359.86 3849.04 L 3367.24 3856.38 C 3368.21 3857.35 3369.8 3857.34 3370.77 3856.37 L 3487.67 3739.46 C 3488.64 3738.48 3488.64 3736.9 3487.67 3735.93 L 3480.32 3728.56 C 3479.85 3728.09 3479.22 3727.82 3478.55 3727.82 L 3478.55 3727.82"/>
    <path id="path1696" style="fill:#bcc4cd;fill-opacity:1;fill-rule:nonzero;stroke:none" d="M 3456.24 3838.35 L 3434.28 3837.34 L 3391.93 3879.65 L 3413.92 3880.73 L 3456.24 3838.35"/>
    <path id="path1698" style="fill:#000000;fill-opacity:1;fill-rule:nonzero;stroke:none" d="M 3397.7 3877.43 L 3435.26 3839.89 L 3450.48 3840.59 L 3412.93 3878.18 L 3397.7 3877.43 Z M 3434.28 3834.84 C 3433.61 3834.84 3432.98 3835.1 3432.51 3835.57 L 3390.17 3877.88 C 3389.46 3878.58 3389.25 3879.62 3389.6 3880.55 C 3389.96 3881.47 3390.82 3882.09 3391.81 3882.14 L 3413.79 3883.23 C 3414.73 3883.25 3415.19 3882.99 3415.68 3882.5 L 3458.01 3840.12 C 3458.71 3839.42 3458.93 3838.37 3458.57 3837.45 C 3458.21 3836.53 3457.34 3835.9 3456.36 3835.86 L 3434.39 3834.84 C 3434.36 3834.84 3434.32 3834.84 3434.28 3834.84"/>
    <path id="path1700" style="fill:#bcc4cd;fill-opacity:1;fill-rule:nonzero;stroke:none" d="M 3463.59 3845.71 L 3464.66 3867.71 L 3422.29 3910.03 L 3421.25 3888.05 L 3463.59 3845.71"/>
    <path id="path1702" style="fill:#000000;fill-opacity:1;fill-rule:nonzero;stroke:none" d="M 3423.8 3889.04 L 3461.37 3851.47 L 3462.11 3866.73 L 3424.52 3904.27 L 3423.8 3889.04 Z M 3463.59 3843.21 C 3462.94 3843.21 3462.3 3843.46 3461.83 3843.95 L 3419.48 3886.29 C 3418.98 3886.79 3418.72 3887.47 3418.75 3888.17 L 3419.79 3910.14 C 3419.84 3911.14 3420.47 3912 3421.4 3912.36 C 3422.33 3912.72 3423.37 3912.5 3424.06 3911.8 L 3466.43 3869.48 C 3466.92 3868.98 3467.19 3868.3 3467.16 3867.59 L 3466.09 3845.59 C 3466.04 3844.6 3465.42 3843.73 3464.49 3843.38 C 3464.2 3843.27 3463.9 3843.21 3463.59 3843.21"/>
    <path id="path1704" style="fill:#425059;fill-opacity:1;fill-rule:nonzero;stroke:none" d="M 3440.51 3854.11 L 3418.57 3853.07 L 3407.62 3863.98 L 3429.6 3865 L 3440.51 3854.11"/>
    <path id="path1706" style="fill:#000000;fill-opacity:1;fill-rule:nonzero;stroke:none" d="M 3413.41 3861.75 L 3419.56 3855.63 L 3434.74 3856.34 L 3428.61 3862.45 L 3413.41 3861.75 Z M 3418.57 3850.57 C 3417.91 3850.57 3417.29 3850.83 3416.81 3851.3 L 3405.85 3862.21 C 3405.15 3862.9 3404.93 3863.95 3405.28 3864.88 C 3405.64 3865.8 3406.51 3866.43 3407.5 3866.47 L 3429.48 3867.5 C 3430.2 3867.51 3430.88 3867.27 3431.37 3866.77 L 3442.28 3855.88 C 3442.98 3855.18 3443.19 3854.13 3442.84 3853.21 C 3442.48 3852.29 3441.61 3851.66 3440.63 3851.61 L 3418.69 3850.58 C 3418.65 3850.57 3418.61 3850.57 3418.57 3850.57"/>
    <path id="path1708" style="fill:#425059;fill-opacity:1;fill-rule:nonzero;stroke:none" d="M 3447.88 3861.43 L 3448.9 3883.42 L 3437.96 3894.34 L 3436.97 3872.35 L 3447.88 3861.43"/>
    <path id="path1710" style="fill:#000000;fill-opacity:1;fill-rule:nonzero;stroke:none" d="M 3439.52 3873.34 L 3445.64 3867.21 L 3446.35 3882.43 L 3440.21 3888.56 L 3439.52 3873.34 Z M 3447.88 3858.93 C 3447.23 3858.93 3446.59 3859.19 3446.11 3859.67 L 3435.21 3870.59 C 3434.71 3871.08 3434.44 3871.76 3434.47 3872.46 L 3435.46 3894.45 C 3435.51 3895.44 3436.13 3896.31 3437.05 3896.66 C 3437.99 3897.02 3439.03 3896.8 3439.73 3896.1 L 3450.66 3885.19 C 3451.16 3884.7 3451.43 3884.01 3451.4 3883.3 L 3450.38 3861.32 C 3450.33 3860.33 3449.71 3859.46 3448.78 3859.11 C 3448.49 3858.99 3448.18 3858.93 3447.88 3858.93"/>
    <path id="path1712" style="fill:#f15a24;fill-opacity:1;fill-rule:nonzero;stroke:none" d="M 3528.79 3780.51 L 3521.44 3773.21 L 3404.51 3890.14 L 3411.85 3897.5 L 3528.79 3780.51"/>
    <path id="path1714" style="fill:#000000;fill-opacity:1;fill-rule:nonzero;stroke:none" d="M 3408.05 3890.14 L 3521.45 3776.74 L 3525.24 3780.52 L 3411.85 3893.96 L 3408.05 3890.14 Z M 3521.44 3770.71 C 3520.79 3770.71 3520.16 3770.96 3519.67 3771.45 L 3402.74 3888.37 C 3401.77 3889.34 3401.77 3890.92 3402.74 3891.9 L 3410.08 3899.26 C 3410.55 3899.73 3411.18 3900 3411.85 3900 L 3411.85 3900 C 3412.51 3900 3413.14 3899.73 3413.61 3899.27 L 3530.56 3782.28 C 3531.03 3781.81 3531.29 3781.17 3531.29 3780.51 C 3531.29 3779.84 3531.03 3779.21 3530.55 3778.74 L 3523.19 3771.44 C 3522.71 3770.96 3522.07 3770.71 3521.44 3770.71"/>
    <path id="path1716" style="fill:#8192a4;fill-opacity:1;fill-rule:nonzero;stroke:none" d="M 3633.88 3687.29 L 3528.95 3582.35 L 3400.6 3687.54 L 3528.69 3815.64 L 3633.88 3687.29"/>
    <path id="path1718" style="fill:#000000;fill-opacity:1;fill-rule:nonzero;stroke:none" d="M 3404.32 3687.73 L 3528.78 3585.71 L 3630.51 3687.45 L 3528.51 3811.92 L 3404.32 3687.73 Z M 3528.95 3579.85 C 3528.39 3579.85 3527.82 3580.04 3527.36 3580.41 L 3399.01 3685.61 C 3398.47 3686.06 3398.13 3686.71 3398.1 3687.42 C 3398.07 3688.13 3398.33 3688.81 3398.83 3689.31 L 3526.92 3817.41 C 3527.42 3817.9 3528 3818.22 3528.82 3818.14 C 3529.52 3818.11 3530.18 3817.77 3530.63 3817.23 L 3635.81 3688.88 C 3636.62 3687.88 3636.55 3686.43 3635.64 3685.52 L 3530.71 3580.58 C 3530.22 3580.1 3529.59 3579.85 3528.95 3579.85"/>
    <path id="path1720" style="fill:#ffb103;fill-opacity:1;fill-rule:nonzero;stroke:none" d="M 3574.54 3759.67 L 3547.99 3792.08 L 3424.16 3668.2 L 3456.55 3641.67 L 3574.54 3759.67"/>
    <path id="path1722" style="fill:#000000;fill-opacity:1;fill-rule:nonzero;stroke:none" d="M 3427.88 3668.39 L 3456.39 3645.04 L 3571.17 3759.84 L 3547.8 3788.36 L 3427.88 3668.39 Z M 3456.55 3639.17 C 3456 3639.17 3455.43 3639.36 3454.97 3639.74 L 3422.58 3666.27 C 3422.03 3666.71 3421.7 3667.37 3421.66 3668.08 C 3421.63 3668.79 3421.89 3669.47 3422.39 3669.97 L 3546.22 3793.85 C 3546.72 3794.34 3547.25 3794.67 3548.12 3794.58 C 3548.82 3794.54 3549.47 3794.21 3549.92 3793.66 L 3576.47 3761.25 C 3577.29 3760.26 3577.22 3758.81 3576.31 3757.9 L 3458.32 3639.91 C 3457.83 3639.42 3457.2 3639.17 3456.55 3639.17"/>
    <path id="path1724" style="fill:#89b573;fill-opacity:1;fill-rule:nonzero;stroke:none" d="M 3782.39 3740.86 C 3835.15 3710.75 3882.47 3710.14 3894 3710.77 C 3940.67 3713.39 3925.26 3768.44 3906.2 3768.49 C 3802.28 3768.88 3747.78 3788.74 3736.37 3791.88 C 3736.37 3791.88 3736.69 3766.94 3782.39 3740.86"/>
    <path id="path1726" style="fill:#000000;fill-opacity:1;fill-rule:nonzero;stroke:none" d="M 3739.54 3788.33 C 3741.62 3780.75 3750 3762.23 3783.63 3743.03 C 3830.9 3716.06 3872.94 3713.15 3888.82 3713.15 C 3890.91 3713.15 3892.61 3713.2 3893.87 3713.27 C 3920.1 3714.74 3922.46 3732.77 3922.26 3740.46 C 3921.9 3753.56 3914.1 3765.96 3906.19 3765.99 C 3811.7 3766.34 3757.75 3782.78 3740.02 3788.18 C 3739.86 3788.23 3739.7 3788.28 3739.54 3788.33 Z M 3888.82 3708.15 C 3872.54 3708.15 3829.45 3711.13 3781.15 3738.68 C 3734.75 3765.18 3733.88 3790.77 3733.87 3791.84 C 3733.86 3792.63 3734.22 3793.38 3734.84 3793.86 C 3735.46 3794.34 3736.29 3794.5 3737.03 3794.29 C 3738.13 3793.99 3739.61 3793.54 3741.48 3792.97 C 3759.03 3787.62 3812.45 3771.34 3906.21 3770.99 C 3916.99 3770.96 3926.83 3756.75 3927.26 3740.59 C 3927.44 3733.46 3925.62 3710.04 3894.14 3708.28 C 3892.81 3708.21 3891.03 3708.15 3888.82 3708.15"/>
    <path id="path1728" style="fill:#c9a88b;fill-opacity:1;fill-rule:nonzero;stroke:none" d="M 3946.71 3769.22 C 3958.97 3769.22 3968.94 3759.3 3968.94 3747.04 L 3968.94 3717.63 C 3968.94 3705.39 3958.97 3695.44 3946.71 3695.44 L 3917.36 3695.44 C 3905.09 3695.44 3895.14 3705.39 3895.14 3717.63 L 3895.14 3747.04 C 3895.14 3759.3 3905.09 3769.22 3917.36 3769.22 L 3946.71 3769.22"/>
    <path id="path1730" style="fill:#000000;fill-opacity:1;fill-rule:nonzero;stroke:none" d="M 3917.36 3766.72 C 3906.48 3766.72 3897.64 3757.89 3897.64 3747.04 L 3897.64 3717.63 C 3897.64 3706.77 3906.48 3697.94 3917.36 3697.94 L 3946.71 3697.94 C 3957.59 3697.94 3966.44 3706.77 3966.44 3717.63 L 3966.44 3747.04 C 3966.44 3757.89 3957.59 3766.72 3946.71 3766.72 L 3917.36 3766.72 Z M 3946.71 3692.94 L 3917.36 3692.94 C 3903.73 3692.94 3892.64 3704.02 3892.64 3717.63 L 3892.64 3747.04 C 3892.64 3760.65 3903.73 3771.72 3917.36 3771.72 L 3946.71 3771.72 C 3960.34 3771.72 3971.44 3760.65 3971.44 3747.04 L 3971.44 3717.63 C 3971.44 3704.02 3960.34 3692.94 3946.71 3692.94"/>
    <path id="path1732" style="fill:#f4d9bd;fill-opacity:1;fill-rule:nonzero;stroke:none" d="M 3909.97 3769.22 C 3918.13 3769.22 3924.77 3762.62 3924.77 3754.42 L 3924.77 3741.49 C 3924.77 3733.32 3918.13 3726.68 3909.97 3726.68 L 3909.97 3726.68 C 3901.78 3726.68 3895.14 3733.32 3895.14 3741.49 L 3895.14 3754.42 C 3895.14 3762.62 3901.78 3769.22 3909.97 3769.22 L 3909.97 3769.22"/>
    <path id="path1734" style="fill:#000000;fill-opacity:1;fill-rule:nonzero;stroke:none" d="M 3909.97 3766.72 C 3903.17 3766.72 3897.64 3761.2 3897.64 3754.42 L 3897.64 3741.49 C 3897.64 3734.7 3903.17 3729.18 3909.97 3729.18 C 3916.75 3729.18 3922.27 3734.7 3922.27 3741.49 L 3922.27 3754.42 C 3922.27 3761.2 3916.75 3766.72 3909.97 3766.72 Z M 3909.97 3724.18 C 3900.41 3724.18 3892.64 3731.94 3892.64 3741.49 L 3892.64 3754.42 C 3892.64 3763.96 3900.41 3771.72 3909.97 3771.72 C 3919.51 3771.72 3927.27 3763.96 3927.27 3754.42 L 3927.27 3741.49 C 3927.27 3731.94 3919.51 3724.18 3909.97 3724.18"/>
    <path id="path1736" style="fill:#89b573;fill-opacity:1;fill-rule:nonzero;stroke:none" d="M 3583.3 3491.19 L 3549.94 3491.19 L 3549.94 3582.21 L 3616.69 3582.21 L 3583.3 3491.19"/>
    <path id="path1738" style="fill:#000000;fill-opacity:1;fill-rule:nonzero;stroke:none" d="M 3552.44 3493.69 L 3581.55 3493.69 L 3613.11 3579.71 L 3552.44 3579.71 L 3552.44 3493.69 Z M 3583.3 3488.69 L 3549.94 3488.69 C 3548.56 3488.69 3547.44 3489.81 3547.44 3491.19 L 3547.44 3582.21 C 3547.44 3583.59 3548.56 3584.71 3549.94 3584.71 L 3616.69 3584.71 C 3617.51 3584.71 3618.27 3584.31 3618.74 3583.64 C 3619.21 3582.97 3619.32 3582.12 3619.03 3581.35 L 3585.64 3490.33 C 3585.28 3489.34 3584.35 3488.69 3583.3 3488.69"/>
    <path id="path1740" style="fill:#89b573;fill-opacity:1;fill-rule:nonzero;stroke:none" d="M 3756.02 3491.19 L 3789.39 3491.19 L 3789.39 3582.21 L 3722.65 3582.21 L 3756.02 3491.19"/>
    <path id="path1742" style="fill:#000000;fill-opacity:1;fill-rule:nonzero;stroke:none" d="M 3757.76 3493.69 L 3786.89 3493.69 L 3786.89 3579.71 L 3726.23 3579.71 L 3757.76 3493.69 Z M 3789.39 3488.69 L 3756.02 3488.69 C 3754.97 3488.69 3754.03 3489.34 3753.67 3490.33 L 3720.3 3581.35 C 3720.02 3582.12 3720.13 3582.97 3720.6 3583.64 C 3721.06 3584.31 3721.83 3584.71 3722.65 3584.71 L 3789.39 3584.71 C 3790.77 3584.71 3791.89 3583.59 3791.89 3582.21 L 3791.89 3491.19 C 3791.89 3489.81 3790.77 3488.69 3789.39 3488.69"/>
    <path id="path1744" style="fill:#000000;fill-opacity:1;fill-rule:nonzero;stroke:none" d="M 3574.68 3785.5 C 3558.38 3756.78 3565.79 3711.75 3565.79 3673.85 C 3565.79 3635.96 3538.38 3600.93 3554.68 3572.19 C 3587.18 3557.79 3626.78 3549.24 3669.68 3549.24 C 3712.56 3549.24 3752.17 3557.79 3784.68 3572.19 C 3800.97 3600.93 3773.57 3635.95 3773.57 3673.85 C 3773.57 3711.75 3780.96 3756.78 3764.66 3785.52 C 3732.16 3799.91 3712.54 3798.46 3669.68 3798.46 C 3626.81 3798.46 3607.18 3799.91 3574.68 3785.5"/>
    <path id="path1746" style="fill:#a9ce97;fill-opacity:1;fill-rule:nonzero;stroke:none" d="M 3574.68 3785.5 C 3558.38 3756.78 3565.79 3711.75 3565.79 3673.85 C 3565.79 3635.96 3538.38 3600.93 3554.68 3572.19 C 3587.18 3557.79 3626.78 3549.24 3669.68 3549.24 C 3712.56 3549.24 3752.17 3557.79 3784.68 3572.19 C 3800.97 3600.93 3773.57 3635.95 3773.57 3673.85 C 3773.57 3711.75 3780.96 3756.78 3764.66 3785.52 C 3732.16 3799.91 3712.54 3798.46 3669.68 3798.46 C 3626.81 3798.46 3607.18 3799.91 3574.68 3785.5"/>
    <path id="path1748" style="fill:#000000;fill-opacity:1;fill-rule:nonzero;stroke:none" d="M 3556.46 3574.13 C 3589.86 3559.48 3628.99 3551.74 3669.68 3551.74 C 3710.35 3551.74 3749.48 3559.48 3782.9 3574.13 C 3791.52 3590.2 3785.87 3609 3779.88 3628.89 C 3775.56 3643.3 3771.07 3658.2 3771.07 3673.85 C 3771.07 3682.83 3771.49 3692.37 3771.89 3701.6 C 3773.2 3731.42 3774.56 3762.25 3762.88 3783.57 C 3737.31 3794.77 3719.98 3796 3689.45 3796 L 3669.68 3795.96 L 3649.91 3796 C 3619.37 3796 3602.02 3794.77 3576.46 3783.55 C 3564.79 3762.25 3566.14 3731.46 3567.46 3701.66 C 3567.87 3692.41 3568.29 3682.84 3568.29 3673.85 C 3568.29 3658.2 3563.81 3643.3 3559.47 3628.9 C 3553.49 3609.01 3547.82 3590.2 3556.46 3574.13 Z M 3669.68 3546.74 C 3627.99 3546.74 3587.87 3554.75 3553.66 3569.9 C 3553.17 3570.12 3552.76 3570.49 3552.5 3570.95 C 3542.26 3589.03 3548.29 3609.1 3554.69 3630.34 C 3558.92 3644.4 3563.29 3658.94 3563.29 3673.85 C 3563.29 3682.73 3562.87 3692.25 3562.46 3701.44 C 3561.1 3732.28 3559.7 3764.16 3572.5 3786.74 C 3572.76 3787.2 3573.17 3787.57 3573.66 3787.79 C 3600.53 3799.7 3618.34 3801 3649.91 3801 L 3669.68 3800.96 L 3689.45 3801 C 3721.01 3801 3738.81 3799.7 3765.67 3787.8 C 3766.16 3787.59 3766.57 3787.22 3766.84 3786.76 C 3779.65 3764.15 3778.25 3732.24 3776.89 3701.38 C 3776.49 3692.21 3776.07 3682.71 3776.07 3673.85 C 3776.07 3658.93 3780.45 3644.39 3784.68 3630.33 C 3791.06 3609.09 3797.1 3589.03 3786.86 3570.96 C 3786.59 3570.49 3786.18 3570.12 3785.69 3569.9 C 3751.47 3554.75 3711.36 3546.74 3669.68 3546.74"/>
    <path id="path1750" style="fill:#89b573;fill-opacity:1;fill-rule:nonzero;stroke:none" d="M 3669.68 3798.46 C 3626.81 3798.46 3607.18 3799.91 3574.68 3785.5 C 3571.37 3779.68 3569.24 3773.05 3567.62 3766.07 C 3590.85 3752.82 3617.68 3745.14 3646.34 3745.14 L 3695.03 3745.14 C 3722.96 3745.14 3749.18 3752.38 3771.99 3765 C 3770.37 3772.39 3768.13 3779.39 3764.66 3785.52 C 3732.16 3799.91 3712.54 3798.46 3669.68 3798.46"/>
    <path id="path1752" style="fill:#89b573;fill-opacity:1;fill-rule:nonzero;stroke:none" d="M 3775.94 3653.07 C 3774.52 3659.89 3773.57 3666.82 3773.57 3673.85 C 3773.57 3691.37 3779.41 3708.26 3784.07 3724.21 C 3776.94 3729.81 3768.05 3733.29 3758.27 3733.29 L 3638.47 3733.29 C 3615.22 3733.29 3596.36 3714.42 3596.36 3691.18 C 3596.36 3667.93 3615.22 3649.07 3638.47 3649.07 L 3758.27 3649.07 C 3764.61 3649.07 3770.56 3650.56 3775.94 3653.07"/>
    <path id="path1754" style="fill:#a9ce97;fill-opacity:1;fill-rule:nonzero;stroke:none" d="M 3800.37 3706.65 C 3800.37 3683.4 3781.51 3664.54 3758.27 3664.54 L 3638.47 3664.54 C 3615.22 3664.54 3596.36 3683.4 3596.36 3706.65 L 3596.36 3706.65 C 3596.36 3729.91 3615.22 3748.76 3638.47 3748.76 L 3758.27 3748.76 C 3781.51 3748.76 3800.37 3729.91 3800.37 3706.65 L 3800.37 3706.65"/>
    <path id="path1756" style="fill:#000000;fill-opacity:1;fill-rule:nonzero;stroke:none" d="M 3556.46 3574.13 C 3589.86 3559.48 3628.99 3551.74 3669.68 3551.74 C 3710.35 3551.74 3749.48 3559.48 3782.9 3574.13 C 3791.53 3590.2 3785.88 3609.01 3779.9 3628.91 C 3776.19 3641.28 3772.35 3654.07 3771.36 3667.41 C 3771.27 3668.5 3771.9 3669.52 3772.92 3669.91 C 3788.08 3675.98 3797.87 3690.39 3797.87 3706.65 C 3797.87 3722.57 3788.4 3736.88 3773.75 3743.11 C 3772.88 3743.48 3772.29 3744.31 3772.24 3745.25 C 3771.17 3761.67 3768.19 3773.89 3762.88 3783.57 C 3737.31 3794.77 3719.98 3796 3689.45 3796 L 3669.68 3795.96 L 3649.91 3796 C 3619.37 3796 3602.02 3794.77 3576.46 3783.55 C 3564.79 3762.25 3566.14 3731.46 3567.46 3701.66 C 3567.87 3692.41 3568.29 3682.84 3568.29 3673.85 C 3568.29 3658.2 3563.81 3643.3 3559.47 3628.9 C 3553.49 3609.01 3547.82 3590.2 3556.46 3574.13 Z M 3669.68 3546.74 C 3627.99 3546.74 3587.87 3554.75 3553.66 3569.9 C 3553.17 3570.12 3552.76 3570.49 3552.5 3570.95 C 3542.26 3589.03 3548.29 3609.09 3554.69 3630.34 C 3558.92 3644.4 3563.29 3658.94 3563.29 3673.85 C 3563.29 3682.73 3562.87 3692.25 3562.46 3701.44 C 3561.1 3732.28 3559.7 3764.16 3572.5 3786.74 C 3572.76 3787.2 3573.17 3787.57 3573.66 3787.79 C 3600.53 3799.7 3618.34 3801 3649.91 3801 L 3669.68 3800.96 L 3689.45 3801 C 3721.01 3801 3738.81 3799.7 3765.67 3787.8 C 3766.16 3787.59 3766.57 3787.22 3766.84 3786.76 C 3772.61 3776.58 3775.89 3763.94 3777.12 3747.08 C 3792.81 3739.77 3802.87 3724.06 3802.87 3706.65 C 3802.87 3688.96 3792.58 3673.2 3776.49 3666 C 3777.65 3653.82 3781.23 3641.9 3784.7 3630.35 C 3791.07 3609.1 3797.1 3589.03 3786.86 3570.96 C 3786.59 3570.49 3786.18 3570.12 3785.69 3569.9 C 3751.47 3554.75 3711.36 3546.74 3669.68 3546.74"/>
    <path id="path1758" style="fill:#a9ce97;fill-opacity:1;fill-rule:nonzero;stroke:none" d="M 3568.82 3534.65 L 3610.79 3534.65 L 3610.79 3515.8 L 3647.05 3515.8 L 3647.05 3534.65 L 3689.02 3534.65 L 3689.02 3515.8 L 3725.27 3515.8 L 3725.27 3534.65 L 3767.24 3534.65 L 3767.24 3515.8 L 3797.36 3515.8 L 3789.39 3582.21 L 3549.94 3582.21 L 3538.68 3515.8 L 3568.82 3515.8 L 3568.82 3534.65"/>
    <path id="path1760" style="fill:#000000;fill-opacity:1;fill-rule:nonzero;stroke:none" d="M 3769.74 3518.3 L 3794.54 3518.3 L 3787.18 3579.71 L 3552.05 3579.71 L 3541.64 3518.3 L 3566.32 3518.3 L 3566.32 3534.65 C 3566.32 3536.03 3567.44 3537.15 3568.82 3537.15 L 3610.79 3537.15 C 3612.17 3537.15 3613.29 3536.03 3613.29 3534.65 L 3613.29 3518.3 L 3644.55 3518.3 L 3644.55 3534.65 C 3644.55 3536.03 3645.67 3537.15 3647.05 3537.15 L 3689.02 3537.15 C 3690.4 3537.15 3691.52 3536.03 3691.52 3534.65 L 3691.52 3518.3 L 3722.77 3518.3 L 3722.77 3534.65 C 3722.77 3536.03 3723.9 3537.15 3725.27 3537.15 L 3767.24 3537.15 C 3768.61 3537.15 3769.74 3536.03 3769.74 3534.65 L 3769.74 3518.3 Z M 3797.49 3513.3 C 3797.45 3513.3 3797.4 3513.3 3797.36 3513.3 L 3767.24 3513.3 C 3765.86 3513.3 3764.74 3514.42 3764.74 3515.8 L 3764.74 3532.15 L 3727.77 3532.15 L 3727.77 3515.8 C 3727.77 3514.42 3726.65 3513.3 3725.27 3513.3 L 3689.02 3513.3 C 3687.65 3513.3 3686.52 3514.42 3686.52 3515.8 L 3686.52 3532.15 L 3649.55 3532.15 L 3649.55 3515.8 C 3649.55 3514.42 3648.43 3513.3 3647.05 3513.3 L 3610.79 3513.3 C 3609.41 3513.3 3608.29 3514.42 3608.29 3515.8 L 3608.29 3532.15 L 3571.32 3532.15 L 3571.32 3515.8 C 3571.32 3514.42 3570.2 3513.3 3568.82 3513.3 L 3538.68 3513.3 C 3537.95 3513.3 3537.25 3513.63 3536.77 3514.19 C 3536.3 3514.75 3536.09 3515.5 3536.22 3516.22 L 3547.48 3582.63 C 3547.68 3583.83 3548.72 3584.71 3549.94 3584.71 L 3789.39 3584.71 C 3790.66 3584.71 3791.73 3583.76 3791.88 3582.51 L 3799.76 3516.86 C 3799.9 3516.54 3799.99 3516.18 3799.99 3515.8 C 3799.99 3514.42 3798.87 3513.3 3797.49 3513.3"/>
    <path id="path1762" style="fill:#89b573;fill-opacity:1;fill-rule:nonzero;stroke:none" d="M 3542.73 3560.67 L 3797.359 3560.67 L 3797.359 3597.412 L 3542.73 3597.412 L 3542.73 3560.67 Z"/>
    <path id="path1764" style="fill:#000000;fill-opacity:1;fill-rule:nonzero;stroke:none" d="M 3545.23 3563.17 L 3794.86 3563.17 L 3794.86 3594.91 L 3545.23 3594.91 L 3545.23 3563.17 Z M 3797.36 3558.17 L 3542.73 3558.17 C 3541.36 3558.17 3540.23 3559.29 3540.23 3560.67 L 3540.23 3597.41 C 3540.23 3598.8 3541.36 3599.91 3542.73 3599.91 L 3797.36 3599.91 C 3798.74 3599.91 3799.86 3598.8 3799.86 3597.41 L 3799.86 3560.67 C 3799.86 3559.29 3798.74 3558.17 3797.36 3558.17"/>
    <path id="path1766" style="fill:#89b573;fill-opacity:1;fill-rule:nonzero;stroke:none" d="M 3533.65 3739.44 C 3503.54 3686.69 3502.91 3639.39 3503.54 3627.84 C 3506.15 3581.19 3561.2 3596.61 3561.27 3615.64 C 3561.65 3719.58 3581.52 3774.07 3584.68 3785.5 C 3584.68 3785.5 3559.71 3785.15 3533.65 3739.44"/>
    <path id="path1768" style="fill:#000000;fill-opacity:1;fill-rule:nonzero;stroke:none" d="M 3581.12 3782.32 C 3573.54 3780.23 3555 3771.84 3535.82 3738.2 C 3504.05 3682.53 3505.74 3633.39 3506.04 3627.97 C 3507.47 3602.36 3524.9 3599.59 3532.33 3599.59 C 3545.64 3599.59 3558.74 3607.54 3558.77 3615.65 C 3559.11 3710.21 3575.58 3764.15 3580.99 3781.88 C 3581.04 3782.02 3581.08 3782.17 3581.12 3782.32 Z M 3532.33 3594.59 L 3532.33 3594.59 C 3513.91 3594.59 3502.21 3606.97 3501.04 3627.7 C 3500.74 3633.27 3498.99 3683.76 3531.48 3740.68 C 3557.94 3787.1 3583.56 3787.99 3584.64 3788 C 3584.66 3788 3584.67 3788 3584.68 3788 C 3585.45 3788 3586.18 3787.64 3586.66 3787.03 C 3587.14 3786.41 3587.29 3785.59 3587.09 3784.84 C 3586.79 3783.75 3586.34 3782.27 3585.77 3780.41 C 3580.41 3762.86 3564.11 3709.46 3563.77 3615.63 C 3563.73 3603.59 3547.14 3594.59 3532.33 3594.59"/>
    <path id="path1770" style="fill:#f4d9bd;fill-opacity:1;fill-rule:nonzero;stroke:none" d="M 3494.87 3585.47 C 3494.87 3573.19 3504.79 3563.25 3517.09 3563.25 L 3546.47 3563.25 C 3558.73 3563.25 3568.68 3573.19 3568.68 3585.47 L 3568.68 3614.83 C 3568.68 3627.09 3558.73 3637.05 3546.47 3637.05 L 3517.09 3637.05 C 3504.79 3637.05 3494.87 3627.09 3494.87 3614.83 L 3494.87 3585.47"/>
    <path id="path1772" style="fill:#000000;fill-opacity:1;fill-rule:nonzero;stroke:none" d="M 3517.09 3634.55 C 3506.22 3634.55 3497.37 3625.71 3497.37 3614.83 L 3497.37 3585.47 C 3497.37 3574.59 3506.22 3565.75 3517.09 3565.75 L 3546.47 3565.75 C 3557.34 3565.75 3566.18 3574.59 3566.18 3585.47 L 3566.18 3614.83 C 3566.18 3625.71 3557.34 3634.55 3546.47 3634.55 L 3517.09 3634.55 Z M 3546.47 3560.75 L 3517.09 3560.75 C 3503.46 3560.75 3492.37 3571.84 3492.37 3585.47 L 3492.37 3614.83 C 3492.37 3628.46 3503.46 3639.55 3517.09 3639.55 L 3546.47 3639.55 C 3560.1 3639.55 3571.18 3628.46 3571.18 3614.83 L 3571.18 3585.47 C 3571.18 3571.84 3560.1 3560.75 3546.47 3560.75"/>
    <path id="path1774" style="fill:#ffb103;fill-opacity:1;fill-rule:nonzero;stroke:none" d="M 3797.36 3597.41 L 3797.36 3560.67 L 3544.04 3762.68 L 3565.13 3783.75 L 3797.36 3597.41"/>
    <path id="path1776" style="fill:#000000;fill-opacity:1;fill-rule:nonzero;stroke:none" d="M 3547.79 3762.89 L 3794.86 3565.86 L 3794.86 3596.21 L 3565.31 3780.4 L 3547.79 3762.89 Z M 3797.36 3558.17 C 3796.81 3558.17 3796.26 3558.36 3795.8 3558.72 L 3542.48 3760.73 C 3541.92 3761.17 3541.58 3761.83 3541.54 3762.54 C 3541.5 3763.25 3541.77 3763.95 3542.28 3764.45 L 3563.36 3785.52 C 3564.27 3786.41 3565.7 3786.49 3566.69 3785.7 L 3798.93 3599.36 C 3799.52 3598.89 3799.86 3598.17 3799.86 3597.41 L 3799.86 3560.67 C 3799.86 3559.71 3799.32 3558.84 3798.45 3558.42 C 3798.11 3558.25 3797.73 3558.17 3797.36 3558.17"/>
    <path id="path1778" style="fill:#f4d9bd;fill-opacity:1;fill-rule:nonzero;stroke:none" d="M 3854.25 3924.36 C 3854.25 3836.45 3783 3765.14 3695.03 3765.14 L 3646.34 3765.14 C 3558.39 3765.14 3487.09 3836.45 3487.09 3924.36 L 3487.09 3924.36 C 3487.09 4012.29 3558.39 4083.59 3646.34 4083.59 L 3695.03 4083.59 C 3783 4083.59 3854.25 4012.29 3854.25 3924.36 L 3854.25 3924.36"/>
    <path id="path1780" style="fill:#000000;fill-opacity:1;fill-rule:nonzero;stroke:none" d="M 3646.34 4081.09 C 3559.9 4081.09 3489.59 4010.78 3489.59 3924.36 C 3489.59 3837.95 3559.9 3767.64 3646.34 3767.64 L 3695.03 3767.64 C 3781.45 3767.64 3851.75 3837.95 3851.75 3924.36 C 3851.75 4010.78 3781.45 4081.09 3695.03 4081.09 L 3646.34 4081.09 Z M 3695.03 3762.64 L 3646.34 3762.64 C 3557.15 3762.64 3484.59 3835.19 3484.59 3924.36 C 3484.59 4013.54 3557.15 4086.09 3646.34 4086.09 L 3695.03 4086.09 C 3784.2 4086.09 3856.75 4013.54 3856.75 3924.36 C 3856.75 3835.19 3784.2 3762.64 3695.03 3762.64"/>
    <path id="path1782" style="fill:#c9a88b;fill-opacity:1;fill-rule:nonzero;stroke:none" d="M 3799.81 4044.05 C 3749.38 4059.95 3701.18 4073.11 3659.09 4083.59 L 3646.34 4083.59 C 3558.39 4083.59 3487.09 4012.29 3487.09 3924.36 C 3487.09 3859.22 3526.28 3803.27 3582.34 3778.63 L 3582.34 3939.04 L 3653.54 3946.81 C 3659.45 3931.84 3662.8 3915.59 3662.8 3898.52 L 3724.14 3898.52 C 3721.1 3918.14 3715.59 3936.43 3708.04 3952.76 L 3713.48 3953.35 C 3727.49 3937.95 3737.91 3919.25 3743.43 3898.52 L 3822.29 3898.52 C 3822.29 3921.9 3818.7 3944.08 3812.28 3964.14 L 3824.88 3965.52 C 3836.54 3945.89 3843.31 3923.02 3843.31 3898.52 L 3851.96 3898.52 C 3853.35 3906.95 3854.25 3915.54 3854.25 3924.36 C 3854.25 3972.12 3833.12 4014.87 3799.81 4044.05"/>
    <path id="path1784" style="fill:#000000;fill-opacity:1;fill-rule:nonzero;stroke:none" d="M 3646.34 4081.09 C 3559.9 4081.09 3489.59 4010.78 3489.59 3924.36 C 3489.59 3837.95 3559.9 3767.64 3646.34 3767.64 L 3695.03 3767.64 C 3781.45 3767.64 3851.75 3837.95 3851.75 3924.36 C 3851.75 4010.78 3781.45 4081.09 3695.03 4081.09 L 3646.34 4081.09 Z M 3695.03 3762.64 L 3646.34 3762.64 C 3557.15 3762.64 3484.59 3835.19 3484.59 3924.36 C 3484.59 4013.54 3557.15 4086.09 3646.34 4086.09 L 3695.03 4086.09 C 3784.2 4086.09 3856.75 4013.54 3856.75 3924.36 C 3856.75 3835.19 3784.2 3762.64 3695.03 3762.64"/>
    <path id="path1786" style="fill:#ffac83;fill-opacity:1;fill-rule:nonzero;stroke:none" d="M 3828.19 3839.78 C 3828.19 3824.05 3813.61 3811.29 3795.65 3811.29 C 3777.69 3811.29 3763.12 3824.05 3763.12 3839.78 C 3763.12 3855.51 3777.69 3868.27 3795.65 3868.27 C 3813.61 3868.27 3828.19 3855.51 3828.19 3839.78"/>
    <path id="path1788" style="fill:#ffac83;fill-opacity:1;fill-rule:nonzero;stroke:none" d="M 3651.51 3839.78 C 3651.51 3824.05 3636.96 3811.29 3618.97 3811.29 C 3601.01 3811.29 3586.44 3824.05 3586.44 3839.78 C 3586.44 3855.51 3601.01 3868.27 3618.97 3868.27 C 3636.96 3868.27 3651.51 3855.51 3651.51 3839.78"/>
    <path id="path1790" style="fill:#eb4900;fill-opacity:1;fill-rule:nonzero;stroke:none" d="M 3711.74 3800.4 C 3726.1 3800.4 3737.69 3812.03 3737.69 3826.37 L 3685.96 3826.37 C 3685.96 3812.03 3697.5 3800.4 3711.74 3800.4"/>
    <path id="path1792" style="fill:#000000;fill-opacity:1;fill-rule:nonzero;stroke:none" d="M 3688.58 3823.87 C 3689.83 3812.1 3699.74 3802.9 3711.74 3802.9 C 3723.83 3802.9 3733.8 3812.1 3735.05 3823.87 L 3688.58 3823.87 Z M 3711.74 3797.9 C 3696.14 3797.9 3683.46 3810.67 3683.46 3826.37 C 3683.46 3827.75 3684.58 3828.87 3685.96 3828.87 L 3737.69 3828.87 C 3739.06 3828.87 3740.19 3827.75 3740.19 3826.37 C 3740.19 3810.67 3727.42 3797.9 3711.74 3797.9"/>
    <path id="path1794" style="fill:#2a5b6a;fill-opacity:1;fill-rule:nonzero;stroke:none" d="M 3625.75 3912.82 C 3616.14 3912.82 3607.88 3907.55 3603.39 3899.82 L 3581.02 3899.82 C 3577.42 3899.82 3574.53 3896.9 3574.53 3893.34 C 3574.53 3889.75 3577.42 3886.83 3581.02 3886.83 L 3651.52 3886.86 C 3651.52 3901.19 3639.99 3912.82 3625.75 3912.82"/>
    <path id="path1796" style="fill:#000000;fill-opacity:1;fill-rule:nonzero;stroke:none" d="M 3581.02 3897.32 C 3578.82 3897.32 3577.03 3895.54 3577.03 3893.34 C 3577.03 3891.13 3578.82 3889.33 3581.02 3889.33 L 3648.9 3889.36 C 3647.65 3901.12 3637.74 3910.32 3625.75 3910.32 C 3617.38 3910.32 3609.82 3905.93 3605.55 3898.57 C 3605.11 3897.8 3604.28 3897.32 3603.39 3897.32 L 3581.02 3897.32 Z M 3581.02 3884.33 L 3581.02 3884.33 C 3576.06 3884.33 3572.03 3888.37 3572.03 3893.34 C 3572.03 3898.29 3576.06 3902.32 3581.02 3902.32 L 3601.99 3902.32 C 3607.29 3910.49 3616.06 3915.32 3625.75 3915.32 C 3641.34 3915.32 3654.02 3902.55 3654.02 3886.86 C 3654.02 3885.47 3652.9 3884.36 3651.52 3884.36 L 3581.02 3884.33"/>
    <path id="path1798" style="fill:#2a5b6a;fill-opacity:1;fill-rule:nonzero;stroke:none" d="M 3844.3 3899.82 L 3820.37 3899.82 C 3815.9 3907.55 3807.66 3912.82 3798.13 3912.82 C 3783.79 3912.82 3772.23 3901.19 3772.23 3886.86 L 3844.3 3886.83 C 3847.89 3886.83 3850.79 3889.75 3850.79 3893.34 C 3850.79 3896.9 3847.89 3899.82 3844.3 3899.82"/>
    <path id="path1800" style="fill:#000000;fill-opacity:1;fill-rule:nonzero;stroke:none" d="M 3774.85 3889.36 L 3844.3 3889.33 C 3846.5 3889.33 3848.29 3891.13 3848.29 3893.34 C 3848.29 3895.54 3846.5 3897.32 3844.3 3897.32 L 3820.37 3897.32 C 3819.48 3897.32 3818.65 3897.8 3818.2 3898.57 C 3813.95 3905.93 3806.45 3910.32 3798.13 3910.32 C 3786.06 3910.32 3776.1 3901.12 3774.85 3889.36 Z M 3844.3 3884.33 L 3844.3 3884.33 L 3772.23 3884.36 C 3770.85 3884.36 3769.73 3885.47 3769.73 3886.86 C 3769.73 3902.55 3782.47 3915.32 3798.13 3915.32 C 3807.62 3915.32 3816.54 3910.38 3821.77 3902.32 L 3844.3 3902.32 C 3849.26 3902.32 3853.29 3898.29 3853.29 3893.34 C 3853.29 3888.37 3849.26 3884.33 3844.3 3884.33"/>
    <path id="path1802" style="fill:#2a5b6a;fill-opacity:1;fill-rule:nonzero;stroke:none" d="M 3843.31 3934.45 L 3879.22 3934.45 C 3879.22 4007.21 3820.24 4066.2 3747.49 4066.2 L 3531.06 4066.2 C 3603.81 4066.2 3662.8 4007.21 3662.8 3934.45 L 3724.14 3934.45 C 3720.37 3958.84 3712.92 3981.32 3702.28 4000.33 C 3722.02 3983.27 3736.52 3960.4 3743.43 3934.45 L 3822.29 3934.45 C 3822.29 3972.05 3813.02 4006.57 3797.58 4034.1 C 3825.54 4009.94 3843.31 3974.3 3843.31 3934.45"/>
    <path id="path1804" style="fill:#000000;fill-opacity:1;fill-rule:nonzero;stroke:none" d="M 3845.79 3936.95 L 3876.7 3936.95 C 3875.36 4007.07 3817.91 4063.7 3747.49 4063.7 L 3567.41 4063.7 C 3623.07 4048.02 3664.17 3997.29 3665.28 3936.95 L 3721.2 3936.95 C 3717.36 3959.82 3710.09 3981.26 3700.1 3999.11 C 3699.5 4000.16 3699.76 4001.5 3700.69 4002.27 C 3701.63 4003.04 3702.99 4003.02 3703.91 4002.21 C 3723.88 3984.97 3738.17 3962.43 3745.33 3936.95 L 3819.79 3936.95 C 3819.4 3971.96 3810.99 4005.08 3795.4 4032.88 C 3794.8 4033.93 3795.06 4035.27 3796 4036.04 C 3796.93 4036.82 3798.29 4036.78 3799.21 4035.99 C 3828.19 4010.95 3845.08 3974.97 3845.79 3936.95 Z M 3879.22 3931.95 L 3843.31 3931.95 C 3841.93 3931.95 3840.81 3933.07 3840.81 3934.45 C 3840.81 3967.02 3828.47 3998.18 3806.54 4021.95 C 3818.42 3995.94 3824.69 3966.28 3824.79 3935.24 C 3824.87 3934.99 3824.92 3934.73 3824.92 3934.45 C 3824.92 3933.07 3823.8 3931.95 3822.42 3931.95 C 3822.38 3931.95 3822.34 3931.96 3822.29 3931.95 L 3743.43 3931.95 C 3742.29 3931.95 3741.3 3932.71 3741.02 3933.81 C 3735.56 3954.32 3725.33 3972.91 3711.14 3988.27 C 3718.33 3972.35 3723.48 3954.69 3726.49 3935.59 C 3726.67 3935.25 3726.77 3934.86 3726.77 3934.45 C 3726.77 3933.07 3725.64 3931.95 3724.27 3931.95 C 3724.23 3931.95 3724.19 3931.96 3724.14 3931.95 L 3662.8 3931.95 C 3661.43 3931.95 3660.3 3933.07 3660.3 3934.45 C 3660.3 4005.71 3602.32 4063.7 3531.06 4063.7 C 3529.69 4063.7 3528.56 4064.81 3528.56 4066.2 C 3528.56 4067.58 3529.69 4068.7 3531.06 4068.7 L 3747.49 4068.7 C 3821.5 4068.7 3881.72 4008.48 3881.72 3934.45 C 3881.72 3933.07 3880.6 3931.95 3879.22 3931.95"/>
    <path id="path1806" style="fill:#2a5b6a;fill-opacity:1;fill-rule:nonzero;stroke:none" d="M 3470.88 4000.98 L 3470.88 3792.08 L 3485.6 3792.08 L 3492.37 3856 L 3498.53 3792.08 L 3567.99 3792.08 L 3567.99 4000.98 L 3470.88 4000.98"/>
    <path id="path1808" style="fill:#000000;fill-opacity:1;fill-rule:nonzero;stroke:none" d="M 3500.8 3794.58 L 3565.49 3794.58 L 3565.49 3998.48 L 3473.38 3998.48 L 3473.38 3794.58 L 3483.35 3794.58 L 3489.88 3856.26 C 3490.02 3857.54 3491.09 3858.5 3492.37 3858.5 L 3492.38 3858.5 C 3493.67 3858.49 3494.74 3857.51 3494.86 3856.23 L 3500.8 3794.58 Z M 3567.99 3789.58 L 3498.53 3789.58 C 3497.24 3789.58 3496.16 3790.56 3496.04 3791.84 L 3492.26 3831.15 L 3488.09 3791.82 C 3487.95 3790.55 3486.88 3789.58 3485.6 3789.58 L 3470.88 3789.58 C 3469.5 3789.58 3468.38 3790.7 3468.38 3792.08 L 3468.38 4000.98 C 3468.38 4002.36 3469.5 4003.48 3470.88 4003.48 L 3567.99 4003.48 C 3569.37 4003.48 3570.49 4002.36 3570.49 4000.98 L 3570.49 3792.08 C 3570.49 3790.7 3569.37 3789.58 3567.99 3789.58"/>
    <path id="path1810" style="fill:#89b573;fill-opacity:1;fill-rule:nonzero;stroke:none" d="M 3490.88 3970.98 C 3490.88 3970.98 3517.15 4106.06 3573.43 4163.27 C 3573.43 4163.27 3778.13 4115.02 3979.38 3997.22 L 3495.12 3970.33 L 3490.88 3970.98"/>
    <path id="path1812" style="fill:#000000;fill-opacity:1;fill-rule:nonzero;stroke:none" d="M 3493.86 3973.05 L 3495.24 3972.84 L 3970.9 3999.25 C 3783.11 4107.58 3592.24 4156.07 3574.23 4160.5 C 3523.98 4108.26 3497.8 3991.76 3493.86 3973.05 Z M 3495.12 3967.83 C 3494.99 3967.83 3494.86 3967.84 3494.74 3967.86 L 3490.5 3968.51 C 3489.82 3968.61 3489.23 3968.99 3488.84 3969.54 C 3488.45 3970.1 3488.29 3970.79 3488.43 3971.46 C 3489.5 3977 3515.49 4107.93 3571.65 4165.02 C 3572.26 4165.65 3573.14 4165.91 3574 4165.7 C 3576.05 4165.22 3781.38 4116.02 3980.63 3999.38 C 3981.59 3998.82 3982.06 3997.7 3981.81 3996.63 C 3981.54 3995.56 3980.62 3994.79 3979.51 3994.73 L 3495.25 3967.83 C 3495.21 3967.83 3495.17 3967.83 3495.12 3967.83"/>
    <path id="path1814" style="fill:#a9ce97;fill-opacity:1;fill-rule:nonzero;stroke:none" d="M 3438.27 3939.28 C 3438.27 3939.28 3464.52 4074.39 3520.82 4131.62 C 3520.82 4131.62 3768.21 4089.64 3979.38 3997.22 L 3442.48 3938.61 L 3438.27 3939.28"/>
    <path id="path1816" style="fill:#000000;fill-opacity:1;fill-rule:nonzero;stroke:none" d="M 3441.25 3941.34 L 3442.54 3941.13 L 3969.72 3998.68 C 3770.99 4083.97 3541.03 4125.53 3521.69 4128.93 C 3471.39 4076.71 3445.19 3960.03 3441.25 3941.34 Z M 3442.48 3936.11 C 3442.35 3936.11 3442.22 3936.12 3442.09 3936.14 L 3437.88 3936.81 C 3437.21 3936.92 3436.61 3937.29 3436.22 3937.84 C 3435.83 3938.4 3435.68 3939.09 3435.82 3939.76 C 3436.89 3945.3 3462.86 4076.27 3519.04 4133.37 C 3519.61 4133.95 3520.44 4134.22 3521.24 4134.09 C 3523.71 4133.66 3771.35 4091 3980.38 3999.51 C 3981.42 3999.05 3982.02 3997.96 3981.85 3996.84 C 3981.68 3995.72 3980.77 3994.86 3979.65 3994.73 L 3442.75 3936.13 C 3442.67 3936.12 3442.57 3936.11 3442.48 3936.11"/>
    <path id="path1818" style="fill:#ffde73;fill-opacity:1;fill-rule:nonzero;stroke:none" d="M 3509.09 3854.59 C 3509.09 3845.95 3502.08 3838.93 3493.43 3838.93 C 3484.78 3838.93 3477.75 3845.95 3477.75 3854.59 C 3477.75 3863.25 3484.78 3870.26 3493.43 3870.26 L 3493.43 3886.05 C 3476.07 3886.05 3461.98 3871.98 3461.98 3854.59 C 3461.98 3837.23 3476.07 3823.18 3493.43 3823.18 C 3510.79 3823.18 3524.87 3837.23 3524.87 3854.59 L 3509.09 3854.59"/>
    <path id="path1820" style="fill:#000000;fill-opacity:1;fill-rule:nonzero;stroke:none" d="M 3490.93 3883.44 C 3476.13 3882.17 3464.48 3869.71 3464.48 3854.59 C 3464.48 3838.64 3477.47 3825.68 3493.43 3825.68 C 3508.54 3825.68 3521 3837.31 3522.27 3852.09 L 3511.42 3852.09 C 3510.2 3843.25 3502.6 3836.43 3493.43 3836.43 C 3483.41 3836.43 3475.25 3844.58 3475.25 3854.59 C 3475.25 3863.76 3482.08 3871.37 3490.93 3872.59 L 3490.93 3883.44 Z M 3493.43 3820.68 C 3474.71 3820.68 3459.48 3835.89 3459.48 3854.59 C 3459.48 3873.31 3474.71 3888.55 3493.43 3888.55 C 3494.8 3888.55 3495.93 3887.43 3495.93 3886.05 L 3495.93 3870.26 C 3495.93 3868.88 3494.8 3867.76 3493.43 3867.76 C 3486.16 3867.76 3480.25 3861.85 3480.25 3854.59 C 3480.25 3847.34 3486.16 3841.43 3493.43 3841.43 C 3500.68 3841.43 3506.59 3847.34 3506.59 3854.59 C 3506.59 3855.97 3507.71 3857.09 3509.09 3857.09 L 3524.87 3857.09 C 3526.25 3857.09 3527.37 3855.97 3527.37 3854.59 C 3527.37 3835.89 3512.15 3820.68 3493.43 3820.68"/>
    <path id="path1822" style="fill:#f4d9bd;fill-opacity:1;fill-rule:nonzero;stroke:none" d="M 3484.89 4003.7 L 3484.89 3877.03 C 3484.89 3860.71 3498.12 3847.47 3514.43 3847.47 C 3530.76 3847.47 3543.98 3860.71 3543.98 3877.03 L 3484.89 4003.7"/>
    <path id="path1824" style="fill:#000000;fill-opacity:1;fill-rule:nonzero;stroke:none" d="M 3487.39 3992.42 L 3487.39 3877.03 C 3487.39 3862.11 3499.52 3849.97 3514.43 3849.97 C 3529.17 3849.97 3541.19 3861.82 3541.47 3876.49 L 3487.39 3992.42 Z M 3514.43 3844.97 C 3496.77 3844.97 3482.39 3859.36 3482.39 3877.03 L 3482.39 4003.7 C 3482.39 4004.87 3483.2 4005.88 3484.36 4006.14 C 3485.5 4006.4 3486.66 4005.81 3487.16 4004.75 L 3546.25 3878.09 C 3546.41 3877.76 3546.48 3877.39 3546.48 3877.03 C 3546.48 3859.36 3532.11 3844.97 3514.43 3844.97"/>
    <path id="path1826" style="fill:#eb4900;fill-opacity:1;fill-rule:nonzero;stroke:none" d="M 3935.29 3751.26 C 3929.62 3751.26 3924.96 3755.79 3924.84 3761.45 C 3923.16 3833.69 3895.15 3864.13 3870.43 3890.96 C 3852.12 3910.8 3834.85 3929.56 3834.85 3960.39 C 3834.85 3966.16 3839.52 3970.85 3845.28 3970.85 C 3851.05 3970.85 3855.72 3966.16 3855.72 3960.39 C 3855.72 3937.72 3868.34 3924.04 3885.8 3905.11 C 3911.69 3877.02 3943.9 3842.05 3945.74 3761.95 C 3945.85 3756.18 3941.3 3751.39 3935.53 3751.26 C 3935.45 3751.26 3935.34 3751.26 3935.29 3751.26"/>
    <path id="path1828" style="fill:#000000;fill-opacity:1;fill-rule:nonzero;stroke:none" d="M 3845.28 3968.35 C 3840.91 3968.35 3837.35 3964.78 3837.35 3960.39 C 3837.35 3930.49 3854.32 3912.11 3872.27 3892.65 C 3897.29 3865.49 3925.64 3834.71 3927.34 3761.51 C 3927.43 3757.23 3931 3753.76 3935.29 3753.76 L 3935.53 3751.26 L 3935.47 3753.76 C 3939.83 3753.86 3943.32 3757.51 3943.24 3761.9 C 3941.42 3841.06 3909.56 3875.64 3883.96 3903.42 C 3866.11 3922.76 3853.22 3936.74 3853.22 3960.39 C 3853.22 3964.78 3849.66 3968.35 3845.28 3968.35 Z M 3935.53 3748.76 L 3935.29 3748.76 C 3928.3 3748.76 3922.49 3754.43 3922.34 3761.39 C 3920.68 3832.71 3893.01 3862.75 3868.59 3889.26 C 3849.96 3909.46 3832.35 3928.54 3832.35 3960.39 C 3832.35 3967.54 3838.15 3973.35 3845.28 3973.35 C 3852.42 3973.35 3858.22 3967.54 3858.22 3960.39 C 3858.22 3938.7 3870.56 3925.32 3887.64 3906.8 C 3913.81 3878.41 3946.38 3843.07 3948.24 3762 C 3948.38 3754.87 3942.7 3748.93 3935.59 3748.76 C 3935.57 3748.76 3935.55 3748.76 3935.53 3748.76"/>
    <path id="path1830" style="fill:#eb4900;fill-opacity:1;fill-rule:nonzero;stroke:none" d="M 3845.28 3501.19 C 3839.52 3501.19 3834.85 3505.86 3834.85 3511.63 C 3834.85 3542.47 3852.12 3561.22 3870.43 3581.07 C 3895.15 3607.91 3923.16 3638.33 3924.84 3710.57 C 3924.96 3716.31 3929.1 3720.88 3935.53 3720.77 C 3941.3 3720.63 3945.85 3715.85 3945.74 3710.08 C 3943.9 3629.97 3911.69 3595.02 3885.8 3566.91 C 3868.34 3548 3855.72 3534.3 3855.72 3511.63 C 3855.72 3505.86 3851.05 3501.19 3845.28 3501.19"/>
    <path id="path1832" style="fill:#000000;fill-opacity:1;fill-rule:nonzero;stroke:none" d="M 3935.46 3718.27 C 3930.63 3718.27 3927.44 3715.16 3927.34 3710.52 C 3925.64 3637.34 3897.29 3606.55 3872.28 3579.38 C 3854.32 3559.91 3837.35 3541.53 3837.35 3511.63 C 3837.35 3507.25 3840.91 3503.69 3845.28 3503.69 C 3849.66 3503.69 3853.22 3507.25 3853.22 3511.63 C 3853.22 3535.31 3866.11 3549.28 3883.96 3568.6 C 3909.57 3596.42 3941.42 3631 3943.24 3710.14 C 3943.32 3714.5 3939.83 3718.16 3935.47 3718.27 C 3935.46 3718.27 3935.46 3718.27 3935.46 3718.27 Z M 3845.28 3498.69 C 3838.15 3498.69 3832.35 3504.49 3832.35 3511.63 C 3832.35 3543.48 3849.96 3562.57 3868.59 3582.77 C 3893.01 3609.29 3920.68 3639.34 3922.34 3710.63 C 3922.49 3717.95 3927.95 3723.27 3935.3 3723.27 C 3942.7 3723.09 3948.38 3717.15 3948.24 3710.03 C 3946.38 3629 3913.82 3593.64 3887.67 3565.24 C 3870.56 3546.72 3858.22 3533.35 3858.22 3511.63 C 3858.22 3504.49 3852.42 3498.69 3845.28 3498.69"/>
    <path id="path1834" style="fill:#8192a4;fill-opacity:1;fill-rule:nonzero;stroke:none" d="M 3947.15 3765.2 L 3923.4 3765.22 L 3923.43 3706.8 L 3947.15 3706.8 L 3947.15 3765.2"/>
    <path id="path1836" style="fill:#000000;fill-opacity:1;fill-rule:nonzero;stroke:none" d="M 3925.93 3709.3 L 3944.65 3709.3 L 3944.65 3762.7 L 3925.9 3762.72 L 3925.93 3709.3 Z M 3947.15 3704.3 L 3923.43 3704.3 C 3922.05 3704.3 3920.93 3705.42 3920.93 3706.8 L 3920.9 3765.22 C 3920.9 3765.89 3921.16 3766.52 3921.63 3766.99 C 3922.1 3767.46 3922.73 3767.72 3923.4 3767.72 L 3923.4 3767.72 L 3947.15 3767.7 C 3948.54 3767.7 3949.65 3766.59 3949.65 3765.2 L 3949.65 3706.8 C 3949.65 3705.42 3948.53 3704.3 3947.15 3704.3"/>
  </g>
</svg>