<?xml version="1.0" encoding="utf-8"?>
<svg viewBox="383.1860046386719 297.802001953125 146.79800415039062 87.26599884033203" width="146.79800415039062" height="87.26599884033203" xmlns="http://www.w3.org/2000/svg">
  <g transform="matrix(0.12500000186264515, 0, 0, -0.12500000186264515, 0, 526.1375122070312)">
    <path id="path34" style="fill:#ddd8bf;fill-opacity:1;fill-rule:nonzero;stroke:none" d="M 3901.17 1155.71 C 3901.17 1140.71 3789.87 1128.55 3652.57 1128.55 C 3515.26 1128.55 3403.95 1140.71 3403.95 1155.71 C 3403.95 1170.69 3515.26 1182.85 3652.57 1182.85 C 3789.87 1182.85 3901.17 1170.69 3901.17 1155.71"/>
    <path id="path1984" style="fill:#c9a88b;fill-opacity:1;fill-rule:nonzero;stroke:none" d="M 3797.17 1431.25 C 3815.76 1412.65 3815.76 1382.48 3797.17 1363.87 C 3778.57 1345.27 3748.41 1345.27 3729.8 1363.87 C 3711.19 1382.48 3711.19 1412.65 3729.8 1431.25 C 3748.41 1449.84 3778.57 1449.84 3797.17 1431.25"/>
    <path id="path1986" style="fill:#000000;fill-opacity:1;fill-rule:nonzero;stroke:none" d="M 3763.49 1442.69 C 3751.44 1442.69 3740.1 1438 3731.57 1429.49 C 3723.05 1420.96 3718.34 1409.62 3718.34 1397.56 C 3718.34 1385.51 3723.05 1374.16 3731.57 1365.64 C 3740.1 1357.11 3751.44 1352.42 3763.49 1352.42 C 3775.55 1352.42 3786.88 1357.11 3795.4 1365.64 C 3812.99 1383.25 3812.99 1411.89 3795.4 1429.49 C 3786.88 1438 3775.55 1442.69 3763.49 1442.69 Z M 3763.49 1347.42 C 3750.1 1347.42 3737.51 1352.63 3728.04 1362.1 C 3718.56 1371.58 3713.34 1384.17 3713.34 1397.56 C 3713.34 1410.96 3718.56 1423.55 3728.04 1433.02 C 3737.51 1442.48 3750.1 1447.69 3763.49 1447.69 C 3776.88 1447.69 3789.47 1442.48 3798.94 1433.02 C 3818.48 1413.47 3818.48 1381.66 3798.94 1362.1 C 3789.47 1352.63 3776.88 1347.42 3763.49 1347.42"/>
    <path id="path1988" style="fill:#c9a88b;fill-opacity:1;fill-rule:nonzero;stroke:none" d="M 3825.97 1365.09 C 3844.56 1346.49 3848.29 1320.02 3834.27 1306.02 C 3820.24 1292.02 3793.8 1295.73 3775.21 1314.33 C 3756.6 1332.95 3752.9 1359.38 3766.9 1373.41 C 3780.92 1387.42 3807.37 1383.7 3825.97 1365.09"/>
    <path id="path1990" style="fill:#000000;fill-opacity:1;fill-rule:nonzero;stroke:none" d="M 3788.93 1379.4 C 3780.75 1379.4 3773.75 1376.71 3768.67 1371.64 C 3755.67 1358.62 3759.39 1333.69 3776.97 1316.1 C 3787.02 1306.04 3800.21 1300.03 3812.24 1300.03 C 3820.41 1300.03 3827.42 1302.72 3832.5 1307.79 C 3838.71 1313.99 3841.33 1323.12 3839.87 1333.48 C 3838.38 1344.1 3832.81 1354.71 3824.2 1363.32 C 3814.14 1373.39 3800.96 1379.4 3788.93 1379.4 Z M 3812.24 1295.03 C 3798.71 1295.03 3784.57 1301.43 3773.44 1312.56 C 3753.91 1332.11 3750.19 1360.2 3765.14 1375.18 C 3771.17 1381.21 3779.39 1384.4 3788.93 1384.4 C 3802.45 1384.4 3816.6 1378 3827.73 1366.86 C 3837.11 1357.47 3843.18 1345.87 3844.82 1334.18 C 3846.5 1322.22 3843.39 1311.59 3836.04 1304.25 C 3829.99 1298.23 3821.77 1295.03 3812.24 1295.03"/>
    <path id="path1992" style="fill:#4d6466;fill-opacity:1;fill-rule:nonzero;stroke:none" d="M 3852.02 1341.88 L 3798.76 1288.59 L 3765.66 1321.69 L 3818.94 1374.95 L 3852.02 1341.88"/>
    <path id="path1994" style="fill:#000000;fill-opacity:1;fill-rule:nonzero;stroke:none" d="M 3769.2 1321.69 L 3798.76 1292.12 L 3848.49 1341.88 L 3818.94 1371.42 L 3769.2 1321.69 Z M 3798.76 1286.09 C 3798.1 1286.09 3797.46 1286.35 3796.99 1286.82 L 3763.9 1319.93 C 3762.92 1320.9 3762.92 1322.48 3763.9 1323.46 L 3817.17 1376.72 C 3818.14 1377.7 3819.73 1377.7 3820.7 1376.72 L 3853.79 1343.65 C 3854.77 1342.67 3854.77 1341.09 3853.79 1340.11 L 3800.53 1286.82 C 3800.06 1286.35 3799.42 1286.09 3798.76 1286.09"/>
    <path id="path1996" style="fill:#364849;fill-opacity:1;fill-rule:nonzero;stroke:none" d="M 3843.58 1350.32 L 3790.29 1297.05 L 3774.1 1313.26 L 3827.38 1366.51 L 3843.58 1350.32"/>
    <path id="path1998" style="fill:#000000;fill-opacity:1;fill-rule:nonzero;stroke:none" d="M 3777.64 1313.26 L 3790.29 1300.59 L 3840.05 1350.32 L 3827.38 1362.97 L 3777.64 1313.26 Z M 3790.29 1294.55 L 3790.29 1294.55 C 3789.63 1294.55 3788.99 1294.82 3788.53 1295.29 L 3772.33 1311.49 C 3771.36 1312.46 3771.36 1314.05 3772.33 1315.02 L 3825.62 1368.27 C 3826.59 1369.25 3828.17 1369.25 3829.15 1368.27 L 3845.35 1352.08 C 3845.82 1351.61 3846.08 1350.98 3846.08 1350.32 C 3846.08 1349.65 3845.82 1349.02 3845.35 1348.55 L 3792.06 1295.29 C 3791.59 1294.82 3790.96 1294.55 3790.29 1294.55"/>
    <path id="path2000" style="fill:#c9a88b;fill-opacity:1;fill-rule:nonzero;stroke:none" d="M 3888.5 1305.36 C 3897.2 1296.68 3897.18 1282.63 3888.51 1273.95 L 3867.75 1253.17 C 3859.07 1244.5 3844.99 1244.52 3836.33 1253.19 L 3815.58 1273.95 C 3806.87 1282.63 3806.9 1296.68 3815.54 1305.36 L 3836.36 1326.14 C 3844.99 1334.82 3859.07 1334.8 3867.75 1326.14 L 3888.5 1305.36"/>
    <path id="path2002" style="fill:#000000;fill-opacity:1;fill-rule:nonzero;stroke:none" d="M 3852.03 1330.14 C 3846.77 1330.14 3841.83 1328.09 3838.13 1324.37 L 3817.3 1303.6 C 3809.64 1295.89 3809.66 1283.38 3817.34 1275.72 L 3838.1 1254.95 C 3845.54 1247.5 3858.54 1247.5 3865.99 1254.93 L 3886.74 1275.72 C 3890.46 1279.45 3892.52 1284.4 3892.52 1289.66 C 3892.52 1294.93 3890.46 1299.87 3886.73 1303.6 L 3865.99 1324.37 C 3862.26 1328.09 3857.29 1330.14 3852.03 1330.14 Z M 3852.05 1244.17 C 3845.44 1244.17 3839.23 1246.75 3834.56 1251.42 L 3813.81 1272.18 C 3804.17 1281.78 3804.15 1297.46 3813.76 1307.13 L 3834.59 1327.9 C 3843.86 1337.23 3860.16 1337.25 3869.52 1327.9 L 3890.26 1307.13 C 3894.94 1302.46 3897.52 1296.26 3897.52 1289.65 C 3897.51 1283.06 3894.94 1276.86 3890.27 1272.18 L 3869.52 1251.4 C 3864.85 1246.74 3858.65 1244.17 3852.05 1244.17"/>
    <path id="path2004" style="fill:#f4d9bd;fill-opacity:1;fill-rule:nonzero;stroke:none" d="M 3862.53 1331.36 C 3868.3 1325.58 3868.32 1316.2 3862.53 1310.43 L 3853.38 1301.26 C 3847.59 1295.48 3838.2 1295.48 3832.43 1301.26 L 3832.43 1301.26 C 3826.64 1307.05 3826.62 1316.44 3832.43 1322.24 L 3841.54 1331.38 C 3847.35 1337.16 3856.75 1337.13 3862.53 1331.36 L 3862.53 1331.36"/>
    <path id="path2006" style="fill:#000000;fill-opacity:1;fill-rule:nonzero;stroke:none" d="M 3852.02 1333.21 C 3848.73 1333.21 3845.63 1331.93 3843.31 1329.61 L 3834.2 1320.47 C 3831.87 1318.14 3830.58 1315.04 3830.58 1311.75 C 3830.59 1308.46 3831.87 1305.36 3834.2 1303.03 C 3838.85 1298.38 3846.96 1298.38 3851.61 1303.03 L 3860.76 1312.2 C 3863.09 1314.52 3864.37 1317.6 3864.37 1320.89 C 3864.37 1324.17 3863.09 1327.27 3860.76 1329.59 C 3858.43 1331.92 3855.32 1333.21 3852.02 1333.21 Z M 3842.9 1294.43 C 3838.27 1294.43 3833.93 1296.22 3830.66 1299.5 C 3827.39 1302.77 3825.59 1307.12 3825.58 1311.74 C 3825.58 1316.38 3827.38 1320.74 3830.66 1324.01 L 3839.78 1333.15 C 3846.36 1339.68 3857.75 1339.65 3864.3 1333.13 C 3867.56 1329.86 3869.37 1325.51 3869.37 1320.89 C 3869.37 1316.27 3867.57 1311.93 3864.3 1308.67 L 3855.15 1299.5 C 3851.88 1296.22 3847.52 1294.43 3842.9 1294.43"/>
    <path id="path2008" style="fill:#c9a88b;fill-opacity:1;fill-rule:nonzero;stroke:none" d="M 3457.08 1431.25 C 3438.48 1412.65 3438.48 1382.48 3457.08 1363.87 C 3475.67 1345.27 3505.84 1345.27 3524.43 1363.87 C 3543.07 1382.48 3543.07 1412.65 3524.43 1431.25 C 3505.84 1449.84 3475.67 1449.84 3457.08 1431.25"/>
    <path id="path2010" style="fill:#000000;fill-opacity:1;fill-rule:nonzero;stroke:none" d="M 3490.76 1442.69 C 3478.7 1442.69 3467.36 1438 3458.85 1429.49 C 3441.25 1411.89 3441.25 1383.25 3458.85 1365.64 C 3467.37 1357.11 3478.7 1352.42 3490.76 1352.42 C 3502.81 1352.42 3514.14 1357.11 3522.67 1365.64 C 3531.21 1374.17 3535.91 1385.51 3535.91 1397.57 C 3535.91 1409.62 3531.2 1420.96 3522.67 1429.49 C 3514.15 1438 3502.81 1442.69 3490.76 1442.69 Z M 3490.76 1347.42 C 3477.36 1347.42 3464.78 1352.63 3455.31 1362.1 C 3435.76 1381.66 3435.76 1413.47 3455.31 1433.02 C 3464.78 1442.48 3477.36 1447.69 3490.76 1447.69 C 3504.15 1447.69 3516.74 1442.48 3526.2 1433.02 C 3535.68 1423.56 3540.91 1410.96 3540.91 1397.57 C 3540.91 1384.17 3535.68 1371.58 3526.2 1362.1 C 3516.74 1352.63 3504.15 1347.42 3490.76 1347.42"/>
    <path id="path2012" style="fill:#c9a88b;fill-opacity:1;fill-rule:nonzero;stroke:none" d="M 3428.27 1365.09 C 3409.69 1346.49 3405.96 1320.02 3419.98 1306.02 C 3433.99 1292.02 3460.44 1295.73 3479.05 1314.33 C 3497.64 1332.95 3501.36 1359.38 3487.33 1373.41 C 3473.33 1387.42 3446.88 1383.7 3428.27 1365.09"/>
    <path id="path2014" style="fill:#000000;fill-opacity:1;fill-rule:nonzero;stroke:none" d="M 3465.32 1379.4 C 3453.29 1379.4 3440.11 1373.39 3430.04 1363.32 C 3421.44 1354.71 3415.87 1344.1 3414.38 1333.48 C 3412.92 1323.12 3415.54 1313.99 3421.75 1307.79 C 3426.83 1302.72 3433.83 1300.04 3442 1300.03 C 3454.03 1300.03 3467.23 1306.04 3477.29 1316.1 C 3494.86 1333.7 3498.57 1358.63 3485.57 1371.64 C 3480.5 1376.71 3473.5 1379.4 3465.32 1379.4 Z M 3442 1295.03 L 3442 1295.03 C 3432.47 1295.04 3424.25 1298.23 3418.21 1304.25 C 3410.86 1311.59 3407.74 1322.22 3409.42 1334.17 C 3411.06 1345.87 3417.13 1357.47 3426.5 1366.86 C 3437.65 1378 3451.8 1384.4 3465.32 1384.4 C 3474.85 1384.4 3483.08 1381.2 3489.1 1375.18 C 3504.05 1360.22 3500.34 1332.12 3480.82 1312.56 C 3469.68 1301.43 3455.53 1295.03 3442 1295.03"/>
    <path id="path2016" style="fill:#4d6466;fill-opacity:1;fill-rule:nonzero;stroke:none" d="M 3402.22 1341.88 L 3455.49 1288.59 L 3488.59 1321.69 L 3435.31 1374.95 L 3402.22 1341.88"/>
    <path id="path2018" style="fill:#000000;fill-opacity:1;fill-rule:nonzero;stroke:none" d="M 3405.75 1341.88 L 3455.49 1292.12 L 3485.06 1321.69 L 3435.31 1371.42 L 3405.75 1341.88 Z M 3455.49 1286.09 L 3455.49 1286.09 C 3454.82 1286.09 3454.19 1286.35 3453.72 1286.82 L 3400.45 1340.11 C 3399.98 1340.58 3399.72 1341.21 3399.72 1341.88 C 3399.72 1342.54 3399.98 1343.18 3400.45 1343.65 L 3433.54 1376.72 C 3434.52 1377.7 3436.1 1377.7 3437.08 1376.72 L 3490.36 1323.46 C 3490.83 1322.99 3491.09 1322.36 3491.09 1321.69 C 3491.09 1321.03 3490.83 1320.39 3490.36 1319.93 L 3457.26 1286.82 C 3456.79 1286.35 3456.15 1286.09 3455.49 1286.09"/>
    <path id="path2020" style="fill:#364849;fill-opacity:1;fill-rule:nonzero;stroke:none" d="M 3410.66 1350.32 L 3463.96 1297.05 L 3480.15 1313.26 L 3426.86 1366.51 L 3410.66 1350.32"/>
    <path id="path2022" style="fill:#000000;fill-opacity:1;fill-rule:nonzero;stroke:none" d="M 3414.2 1350.32 L 3463.96 1300.59 L 3476.61 1313.26 L 3426.86 1362.97 L 3414.2 1350.32 Z M 3463.96 1294.55 C 3463.29 1294.55 3462.66 1294.82 3462.19 1295.29 L 3408.9 1348.55 C 3408.43 1349.02 3408.16 1349.65 3408.16 1350.32 C 3408.16 1350.98 3408.43 1351.61 3408.9 1352.08 L 3425.09 1368.27 C 3426.05 1369.24 3427.64 1369.26 3428.62 1368.27 L 3481.91 1315.02 C 3482.38 1314.55 3482.65 1313.92 3482.65 1313.26 C 3482.65 1312.59 3482.38 1311.96 3481.91 1311.49 L 3465.72 1295.29 C 3465.25 1294.82 3464.62 1294.55 3463.96 1294.55"/>
    <path id="path2024" style="fill:#c9a88b;fill-opacity:1;fill-rule:nonzero;stroke:none" d="M 3365.77 1305.37 C 3357.1 1296.7 3357.12 1282.63 3365.77 1273.95 L 3386.56 1253.17 C 3395.22 1244.5 3409.3 1244.5 3417.94 1253.19 L 3438.72 1273.95 C 3447.41 1282.63 3447.41 1296.7 3438.74 1305.36 L 3417.96 1326.14 C 3409.3 1334.82 3395.22 1334.8 3386.53 1326.11 L 3365.77 1305.37"/>
    <path id="path2026" style="fill:#000000;fill-opacity:1;fill-rule:nonzero;stroke:none" d="M 3402.29 1330.14 C 3397 1330.14 3392.04 1328.08 3388.3 1324.34 L 3367.54 1303.61 C 3359.86 1295.93 3359.86 1283.42 3367.54 1275.72 L 3388.33 1254.93 C 3395.78 1247.48 3408.77 1247.5 3416.16 1254.95 L 3436.95 1275.72 C 3440.68 1279.45 3442.74 1284.4 3442.74 1289.67 C 3442.74 1294.93 3440.69 1299.88 3436.97 1303.6 L 3416.19 1324.37 C 3412.48 1328.09 3407.54 1330.14 3402.29 1330.14 Z M 3402.25 1244.16 L 3402.25 1244.16 C 3395.65 1244.16 3389.45 1246.73 3384.79 1251.4 L 3364 1272.18 C 3354.38 1281.84 3354.38 1297.52 3364 1307.14 L 3384.77 1327.87 C 3389.45 1332.56 3395.66 1335.14 3402.29 1335.14 C 3408.88 1335.14 3415.08 1332.57 3419.73 1327.9 L 3440.51 1307.13 C 3445.18 1302.47 3447.74 1296.27 3447.74 1289.67 C 3447.74 1283.07 3445.17 1276.85 3440.49 1272.18 L 3419.71 1251.42 C 3415.06 1246.74 3408.86 1244.16 3402.25 1244.16"/>
    <path id="path2028" style="fill:#f4d9bd;fill-opacity:1;fill-rule:nonzero;stroke:none" d="M 3391.78 1331.36 C 3385.99 1325.56 3385.99 1316.2 3391.78 1310.43 L 3400.92 1301.26 C 3406.69 1295.5 3416.08 1295.48 3421.86 1301.26 L 3421.86 1301.26 C 3427.66 1307.05 3427.68 1316.44 3421.88 1322.24 L 3412.76 1331.38 C 3406.94 1337.16 3397.56 1337.13 3391.78 1331.36 L 3391.78 1331.36"/>
    <path id="path2030" style="fill:#000000;fill-opacity:1;fill-rule:nonzero;stroke:none" d="M 3402.28 1333.21 C 3398.97 1333.21 3395.88 1331.92 3393.54 1329.59 C 3391.22 1327.26 3389.93 1324.16 3389.93 1320.88 C 3389.93 1317.61 3391.21 1314.52 3393.54 1312.2 L 3402.69 1303.03 C 3405.01 1300.72 3408.11 1299.44 3411.4 1299.44 L 3411.4 1299.44 C 3414.69 1299.44 3417.77 1300.71 3420.09 1303.03 C 3422.42 1305.36 3423.71 1308.46 3423.72 1311.75 C 3423.72 1315.04 3422.44 1318.14 3420.11 1320.47 L 3411 1329.61 C 3408.67 1331.93 3405.57 1333.21 3402.28 1333.21 Z M 3411.4 1294.44 L 3411.4 1294.44 C 3406.77 1294.44 3402.42 1296.23 3399.15 1299.5 L 3390.01 1308.67 C 3386.74 1311.93 3384.93 1316.26 3384.93 1320.88 C 3384.93 1325.5 3386.74 1329.85 3390.01 1333.13 C 3396.56 1339.66 3407.97 1339.66 3414.52 1333.16 L 3423.64 1324.01 C 3426.92 1320.73 3428.72 1316.37 3428.72 1311.74 C 3428.71 1307.12 3426.9 1302.77 3423.62 1299.5 C 3420.36 1296.23 3416.03 1294.44 3411.4 1294.44"/>
    <path id="path2032" style="fill:#f4d9bd;fill-opacity:1;fill-rule:nonzero;stroke:none" d="M 3543.18 1166.89 L 3509.81 1166.89 L 3509.81 1257.91 L 3576.57 1257.91 L 3543.18 1166.89"/>
    <path id="path2034" style="fill:#000000;fill-opacity:1;fill-rule:nonzero;stroke:none" d="M 3512.31 1169.39 L 3541.44 1169.39 L 3572.99 1255.41 L 3512.31 1255.41 L 3512.31 1169.39 Z M 3543.18 1164.39 L 3509.81 1164.39 C 3508.44 1164.39 3507.31 1165.51 3507.31 1166.89 L 3507.31 1257.91 C 3507.31 1259.29 3508.44 1260.41 3509.81 1260.41 L 3576.57 1260.41 C 3577.39 1260.41 3578.15 1260.01 3578.62 1259.35 C 3579.09 1258.68 3579.2 1257.82 3578.92 1257.05 L 3545.53 1166.03 C 3545.17 1165.04 3544.23 1164.39 3543.18 1164.39"/>
    <path id="path2036" style="fill:#ad713b;fill-opacity:1;fill-rule:nonzero;stroke:none" d="M 3503.29 1209.18 L 3503.29 1166.89 L 3550.84 1166.89 L 3566.35 1209.18 L 3503.29 1209.18"/>
    <path id="path2038" style="fill:#000000;fill-opacity:1;fill-rule:nonzero;stroke:none" d="M 3505.79 1169.39 L 3549.09 1169.39 L 3562.76 1206.68 L 3505.79 1206.68 L 3505.79 1169.39 Z M 3550.84 1164.39 L 3503.29 1164.39 C 3501.91 1164.39 3500.79 1165.51 3500.79 1166.89 L 3500.79 1209.18 C 3500.79 1210.56 3501.91 1211.68 3503.29 1211.68 L 3566.35 1211.68 C 3567.17 1211.68 3567.93 1211.28 3568.4 1210.62 C 3568.87 1209.94 3568.97 1209.09 3568.69 1208.32 L 3553.18 1166.03 C 3552.82 1165.04 3551.88 1164.39 3550.84 1164.39"/>
    <path id="path2040" style="fill:#f4d9bd;fill-opacity:1;fill-rule:nonzero;stroke:none" d="M 3715.9 1166.89 L 3749.29 1166.89 L 3749.29 1257.91 L 3682.53 1257.91 L 3715.9 1166.89"/>
    <path id="path2042" style="fill:#000000;fill-opacity:1;fill-rule:nonzero;stroke:none" d="M 3717.65 1169.39 L 3746.79 1169.39 L 3746.79 1255.41 L 3686.11 1255.41 L 3717.65 1169.39 Z M 3749.29 1164.39 L 3715.9 1164.39 C 3714.85 1164.39 3713.92 1165.04 3713.55 1166.03 L 3680.19 1257.05 C 3679.9 1257.82 3680.01 1258.68 3680.48 1259.35 C 3680.95 1260.01 3681.71 1260.41 3682.53 1260.41 L 3749.29 1260.41 C 3750.66 1260.41 3751.79 1259.29 3751.79 1257.91 L 3751.79 1166.89 C 3751.79 1165.51 3750.66 1164.39 3749.29 1164.39"/>
    <path id="path2044" style="fill:#ad713b;fill-opacity:1;fill-rule:nonzero;stroke:none" d="M 3757.71 1209.18 L 3757.71 1166.89 L 3710.18 1166.89 L 3694.65 1209.18 L 3757.71 1209.18"/>
    <path id="path2046" style="fill:#000000;fill-opacity:1;fill-rule:nonzero;stroke:none" d="M 3711.92 1169.39 L 3755.21 1169.39 L 3755.21 1206.68 L 3698.23 1206.68 L 3711.92 1169.39 Z M 3757.71 1164.39 L 3710.18 1164.39 C 3709.13 1164.39 3708.19 1165.04 3707.83 1166.03 L 3692.3 1208.32 C 3692.02 1209.09 3692.13 1209.94 3692.6 1210.62 C 3693.07 1211.28 3693.83 1211.68 3694.65 1211.68 L 3757.71 1211.68 C 3759.08 1211.68 3760.21 1210.56 3760.21 1209.18 L 3760.21 1166.89 C 3760.21 1165.51 3759.08 1164.39 3757.71 1164.39"/>
    <path id="path2048" style="fill:#f4d9bd;fill-opacity:1;fill-rule:nonzero;stroke:none" d="M 3514.55 1451.19 C 3498.25 1422.49 3488.59 1387.45 3488.59 1349.55 C 3488.59 1311.66 3498.25 1276.62 3514.55 1247.89 C 3547.05 1233.5 3586.66 1224.94 3629.55 1224.94 C 3672.44 1224.94 3712.05 1233.5 3744.55 1247.89 C 3760.84 1276.62 3770.52 1311.65 3770.52 1349.55 C 3770.52 1387.45 3760.83 1422.49 3744.52 1451.22 C 3712.02 1465.62 3672.42 1474.17 3629.55 1474.17 C 3586.68 1474.17 3547.05 1465.62 3514.55 1451.19"/>
    <path id="path2050" style="fill:#000000;fill-opacity:1;fill-rule:nonzero;stroke:none" d="M 3516.32 1249.85 C 3549.74 1235.19 3588.87 1227.44 3629.55 1227.44 C 3670.23 1227.44 3709.37 1235.19 3742.78 1249.85 C 3759.3 1279.27 3768.02 1313.73 3768.02 1349.55 C 3768.02 1385.38 3759.29 1419.85 3742.75 1449.27 C 3709.34 1463.93 3670.21 1471.67 3629.55 1471.67 C 3588.85 1471.67 3549.71 1463.92 3516.32 1449.24 C 3499.81 1419.87 3491.09 1385.42 3491.09 1349.55 C 3491.09 1313.7 3499.81 1279.25 3516.32 1249.85 Z M 3629.55 1222.44 C 3587.87 1222.44 3547.75 1230.45 3513.54 1245.61 C 3513.05 1245.82 3512.64 1246.19 3512.37 1246.66 C 3495.19 1276.97 3486.09 1312.55 3486.09 1349.55 C 3486.09 1386.58 3495.19 1422.15 3512.37 1452.43 C 3512.64 1452.89 3513.05 1453.27 3513.54 1453.48 C 3547.72 1468.66 3587.84 1476.67 3629.55 1476.67 C 3671.21 1476.67 3711.32 1468.67 3745.54 1453.51 C 3746.03 1453.29 3746.44 1452.92 3746.7 1452.45 C 3763.92 1422.12 3773.02 1386.54 3773.02 1349.55 C 3773.02 1312.58 3763.93 1277 3746.73 1246.66 C 3746.46 1246.19 3746.05 1245.82 3745.57 1245.61 C 3711.35 1230.45 3671.23 1222.44 3629.55 1222.44"/>
    <path id="path2052" style="fill:#ad713b;fill-opacity:1;fill-rule:nonzero;stroke:none" d="M 3763.23 1245.87 L 3498.59 1450.43 L 3517.33 1460.43 L 3763.23 1267.05 L 3763.23 1245.87"/>
    <path id="path2054" style="fill:#000000;fill-opacity:1;fill-rule:nonzero;stroke:none" d="M 3503.18 1450.04 L 3760.73 1250.96 L 3760.73 1265.84 L 3517.07 1457.45 L 3503.18 1450.04 Z M 3763.23 1243.37 C 3762.69 1243.37 3762.15 1243.55 3761.7 1243.89 L 3497.06 1448.45 C 3496.4 1448.98 3496.04 1449.8 3496.1 1450.64 C 3496.17 1451.49 3496.67 1452.24 3497.41 1452.64 L 3516.15 1462.64 C 3517.02 1463.11 3518.09 1463.01 3518.88 1462.4 L 3764.78 1269.02 C 3765.38 1268.55 3765.73 1267.83 3765.73 1267.05 L 3765.73 1245.87 C 3765.73 1244.92 3765.19 1244.05 3764.34 1243.63 C 3763.98 1243.46 3763.6 1243.37 3763.23 1243.37"/>
    <path id="path2056" style="fill:#ad713b;fill-opacity:1;fill-rule:nonzero;stroke:none" d="M 3497.54 1247.28 L 3762.18 1451.84 L 3743.46 1461.84 L 3497.54 1268.46 L 3497.54 1247.28"/>
    <path id="path2058" style="fill:#000000;fill-opacity:1;fill-rule:nonzero;stroke:none" d="M 3500.04 1267.25 L 3500.04 1252.37 L 3757.59 1451.46 L 3743.72 1458.86 L 3500.04 1267.25 Z M 3497.54 1244.78 C 3497.17 1244.78 3496.79 1244.87 3496.44 1245.03 C 3495.59 1245.45 3495.04 1246.32 3495.04 1247.28 L 3495.04 1268.46 C 3495.04 1269.23 3495.39 1269.95 3496 1270.42 L 3741.91 1463.8 C 3742.71 1464.41 3743.77 1464.5 3744.64 1464.05 L 3763.36 1454.05 C 3764.1 1453.65 3764.6 1452.89 3764.67 1452.04 C 3764.74 1451.2 3764.38 1450.38 3763.71 1449.86 L 3499.07 1245.3 C 3498.62 1244.95 3498.09 1244.78 3497.54 1244.78"/>
    <path id="path2060" style="fill:#f4d9bd;fill-opacity:1;fill-rule:nonzero;stroke:none" d="M 3831.73 1600.07 C 3831.73 1512.14 3760.42 1440.85 3672.48 1440.85 L 3588.63 1440.85 C 3500.69 1440.85 3429.41 1512.14 3429.41 1600.07 L 3429.41 1600.07 C 3429.41 1688 3500.69 1759.3 3588.63 1759.3 L 3672.48 1759.3 C 3760.42 1759.3 3831.73 1688 3831.73 1600.07 L 3831.73 1600.07"/>
    <path id="path2062" style="fill:#000000;fill-opacity:1;fill-rule:nonzero;stroke:none" d="M 3588.63 1756.8 C 3502.22 1756.8 3431.91 1686.49 3431.91 1600.07 C 3431.91 1513.66 3502.22 1443.35 3588.63 1443.35 L 3672.48 1443.35 C 3758.92 1443.35 3829.23 1513.66 3829.23 1600.07 C 3829.23 1686.49 3758.92 1756.8 3672.48 1756.8 L 3588.63 1756.8 Z M 3672.48 1438.35 L 3588.63 1438.35 C 3499.46 1438.35 3426.91 1510.9 3426.91 1600.07 C 3426.91 1689.25 3499.46 1761.8 3588.63 1761.8 L 3672.48 1761.8 C 3761.67 1761.8 3834.23 1689.25 3834.23 1600.07 C 3834.23 1510.9 3761.67 1438.35 3672.48 1438.35"/>
    <path id="path2064" style="fill:#eb4900;fill-opacity:1;fill-rule:nonzero;stroke:none" d="M 3545.36 1508.81 L 3597.071 1508.81 L 3597.071 1637.392 L 3545.36 1637.392 L 3545.36 1508.81 Z"/>
    <path id="path2066" style="fill:#000000;fill-opacity:1;fill-rule:nonzero;stroke:none" d="M 3547.86 1511.31 L 3594.57 1511.31 L 3594.57 1634.89 L 3547.86 1634.89 L 3547.86 1511.31 Z M 3597.07 1506.31 L 3545.36 1506.31 C 3543.98 1506.31 3542.86 1507.43 3542.86 1508.81 L 3542.86 1637.39 C 3542.86 1638.76 3543.98 1639.89 3545.36 1639.89 L 3597.07 1639.89 C 3598.45 1639.89 3599.57 1638.76 3599.57 1637.39 L 3599.57 1508.81 C 3599.57 1507.43 3598.45 1506.31 3597.07 1506.31"/>
    <path id="path2068" style="fill:#d3d3d3;fill-opacity:1;fill-rule:nonzero;stroke:none" d="M 3756.11 1742.21 C 3749.49 1757.44 3740.21 1771.79 3727.73 1784.25 C 3702.93 1809.06 3671.04 1822.27 3638.57 1824.18 C 3662.56 1807.64 3686.31 1788.14 3708.95 1765.49 C 3709.74 1764.7 3710.46 1763.9 3711.24 1763.1 C 3700.83 1765.61 3689.63 1767 3677.38 1767 C 3677.38 1767 3536.22 1767 3513.5 1767 C 3478.42 1767 3446.52 1753.8 3422.22 1732.19 C 3445.68 1736.5 3470.54 1739.19 3496.32 1740.07 C 3450.28 1710.24 3419.77 1658.52 3419.77 1599.59 C 3419.77 1583.63 3419.77 1540.54 3419.77 1497.93 C 3395.29 1473.21 3382.24 1441.57 3380.36 1409.36 C 3391.96 1426.2 3405.15 1442.93 3419.77 1459.26 C 3419.77 1422.97 3419.77 1394.24 3419.77 1394.24 L 3506.48 1452.91 C 3506.48 1452.91 3506.48 1560.44 3506.48 1590.04 C 3506.48 1635.64 3535.22 1674.42 3575.53 1689.54 L 3589.44 1727.15 L 3631.46 1696.43 L 3642.54 1727.15 L 3687.39 1696.43 L 3695.63 1727.15 L 3743.32 1696.43 L 3748.72 1727.15 L 3799.25 1696.43 C 3786.2 1714.78 3772.25 1730.36 3756.11 1742.21"/>
    <path id="path2070" style="fill:#000000;fill-opacity:1;fill-rule:nonzero;stroke:none" d="M 3419.77 1461.76 C 3420.07 1461.76 3420.37 1461.7 3420.65 1461.6 C 3421.63 1461.22 3422.27 1460.3 3422.27 1459.26 L 3422.27 1398.95 L 3503.98 1454.24 L 3503.98 1590.04 C 3503.98 1634.71 3531.9 1675.33 3573.57 1691.48 L 3587.1 1728.02 C 3587.37 1728.75 3587.97 1729.32 3588.72 1729.54 C 3589.46 1729.75 3590.29 1729.63 3590.92 1729.17 L 3630.23 1700.41 L 3640.19 1728 C 3640.45 1728.72 3641.04 1729.29 3641.77 1729.53 C 3642.52 1729.76 3643.32 1729.65 3643.96 1729.21 L 3685.89 1700.49 L 3693.21 1727.8 C 3693.42 1728.57 3693.98 1729.19 3694.73 1729.49 C 3695.48 1729.76 3696.32 1729.68 3696.98 1729.25 L 3741.51 1700.57 L 3746.26 1727.58 C 3746.41 1728.4 3746.93 1729.09 3747.69 1729.43 C 3748.44 1729.76 3749.31 1729.71 3750.02 1729.29 L 3789.58 1705.24 C 3778.14 1719.88 3766.64 1731.38 3754.63 1740.2 C 3754.28 1740.45 3753.99 1740.8 3753.82 1741.21 C 3746.97 1756.98 3737.6 1770.86 3725.97 1782.48 C 3704.82 1803.63 3677.31 1817.03 3647.7 1820.82 C 3669.99 1804.81 3691.16 1786.82 3710.71 1767.26 L 3713.03 1764.85 C 3713.81 1764.05 3713.96 1762.84 3713.42 1761.86 C 3712.86 1760.89 3711.75 1760.38 3710.65 1760.67 C 3699.97 1763.25 3689.09 1764.5 3677.38 1764.5 L 3513.5 1764.5 C 3483.58 1764.5 3454.64 1754.52 3431.03 1736.25 C 3452.1 1739.69 3473.99 1741.81 3496.23 1742.57 C 3497.26 1742.62 3498.37 1741.9 3498.7 1740.82 C 3499.04 1739.75 3498.62 1738.59 3497.68 1737.97 C 3450.46 1707.37 3422.27 1655.64 3422.27 1599.59 L 3422.27 1497.93 C 3422.27 1497.28 3422 1496.64 3421.54 1496.18 C 3400.68 1475.1 3387.45 1447.79 3383.71 1418.47 C 3394.07 1432.87 3405.55 1447.13 3417.9 1460.93 C 3418.39 1461.47 3419.07 1461.76 3419.77 1461.76 Z M 3419.77 1391.74 C 3419.37 1391.74 3418.96 1391.84 3418.59 1392.03 C 3417.77 1392.46 3417.27 1393.31 3417.27 1394.24 L 3417.27 1452.66 C 3404.55 1438.1 3392.84 1423.08 3382.42 1407.94 C 3381.78 1407.02 3380.6 1406.61 3379.55 1407 C 3378.49 1407.36 3377.8 1408.38 3377.86 1409.51 C 3379.82 1443.18 3393.81 1474.91 3417.27 1498.96 L 3417.27 1599.59 C 3417.27 1654.42 3443.44 1705.22 3487.71 1737.21 C 3465.45 1736.09 3443.6 1733.58 3422.67 1729.73 C 3421.58 1729.49 3420.46 1730.09 3419.97 1731.1 C 3419.48 1732.1 3419.72 1733.31 3420.56 1734.06 C 3446.26 1756.91 3479.27 1769.5 3513.5 1769.5 L 3677.38 1769.5 C 3686.51 1769.5 3695.17 1768.75 3703.61 1767.25 C 3683.02 1787.45 3660.68 1805.9 3637.16 1822.12 C 3636.23 1822.76 3635.85 1823.94 3636.21 1824.99 C 3636.58 1826.06 3637.66 1826.64 3638.72 1826.68 C 3673.07 1824.65 3705.31 1810.22 3729.5 1786.02 C 3741.43 1774.1 3751.05 1759.91 3758.13 1743.82 C 3773.06 1732.76 3787.18 1717.72 3801.29 1697.87 C 3801.97 1696.91 3801.88 1695.6 3801.07 1694.73 C 3800.27 1693.85 3798.96 1693.68 3797.95 1694.29 L 3750.55 1723.12 L 3745.78 1696 C 3745.63 1695.17 3745.09 1694.48 3744.33 1694.13 C 3743.56 1693.8 3742.68 1693.87 3741.96 1694.33 L 3697.15 1723.2 L 3689.8 1695.78 C 3689.6 1695 3689.02 1694.37 3688.26 1694.09 C 3687.5 1693.78 3686.67 1693.9 3685.98 1694.37 L 3643.79 1723.27 L 3633.81 1695.58 C 3633.54 1694.84 3632.94 1694.27 3632.19 1694.04 C 3631.42 1693.81 3630.62 1693.94 3629.98 1694.41 L 3590.63 1723.18 L 3577.87 1688.68 C 3577.62 1687.99 3577.09 1687.45 3576.41 1687.2 C 3536.07 1672.06 3508.98 1633.02 3508.98 1590.04 L 3508.98 1452.91 C 3508.98 1452.08 3508.57 1451.31 3507.88 1450.84 L 3421.16 1392.17 C 3420.74 1391.89 3420.25 1391.74 3419.77 1391.74"/>
    <path id="path2072" style="fill:#d3d3d3;fill-opacity:1;fill-rule:nonzero;stroke:none" d="M 3762.76 1367.88 C 3762.76 1385.26 3762.76 1421.46 3762.76 1471.42 C 3762.76 1501.04 3732.1 1506.04 3713.28 1513.56 C 3727.24 1512.16 3740.87 1510.28 3754.03 1507.86 C 3729.59 1529.61 3697.44 1542.91 3662.11 1542.91 C 3626.81 1542.91 3594.65 1529.61 3570.18 1507.86 C 3583.36 1510.28 3597 1512.16 3610.96 1513.56 C 3592.14 1506.04 3561.46 1501.04 3561.46 1471.42 C 3561.46 1421.46 3561.46 1385.26 3561.46 1367.88 C 3558.96 1364.02 3557.47 1359.43 3557.47 1354.49 C 3557.47 1340.81 3582.25 1309.72 3582.25 1309.72 C 3582.25 1309.72 3607.02 1340.81 3607.02 1354.49 C 3607.02 1359.97 3605.18 1364.99 3602.16 1369.1 C 3602.16 1387.25 3602.16 1420.86 3602.16 1444.12 C 3602.16 1444.12 3620.24 1423.56 3662.11 1423.56 C 3703.99 1423.56 3722.08 1444.12 3722.08 1444.12 C 3722.08 1420.87 3722.08 1387.28 3722.08 1369.12 C 3719.05 1365.01 3717.2 1359.98 3717.2 1354.49 C 3717.2 1340.81 3741.97 1309.72 3741.97 1309.72 C 3741.97 1309.72 3766.75 1340.81 3766.75 1354.49 C 3766.75 1359.43 3765.26 1364.02 3762.76 1367.88"/>
    <path id="path2074" style="fill:#000000;fill-opacity:1;fill-rule:nonzero;stroke:none" d="M 3610.96 1516.06 C 3612.1 1516.06 3613.11 1515.28 3613.39 1514.15 C 3613.68 1512.94 3613.04 1511.7 3611.88 1511.23 C 3608.88 1510.03 3605.57 1508.89 3602.13 1507.71 C 3584.24 1501.56 3563.96 1494.57 3563.96 1471.42 L 3563.96 1367.88 C 3563.96 1367.41 3563.82 1366.93 3563.55 1366.53 C 3561.21 1362.9 3559.97 1358.73 3559.97 1354.49 C 3559.97 1344.89 3574.59 1323.8 3582.25 1313.78 C 3589.9 1323.8 3604.52 1344.9 3604.52 1354.49 C 3604.52 1359.18 3603.01 1363.72 3600.15 1367.63 C 3599.82 1368.05 3599.66 1368.58 3599.66 1369.1 L 3599.66 1444.12 C 3599.66 1445.16 3600.3 1446.09 3601.27 1446.46 C 3602.27 1446.83 3603.33 1446.55 3604.03 1445.78 C 3604.21 1445.58 3622.02 1426.06 3662.11 1426.06 C 3702.22 1426.06 3720.03 1445.58 3720.21 1445.78 C 3720.9 1446.55 3721.96 1446.83 3722.97 1446.46 C 3723.94 1446.09 3724.58 1445.16 3724.58 1444.12 L 3724.58 1369.12 C 3724.58 1368.59 3724.41 1368.07 3724.09 1367.64 C 3721.22 1363.73 3719.7 1359.18 3719.7 1354.49 C 3719.7 1344.89 3734.32 1323.8 3741.97 1313.78 C 3749.63 1323.8 3764.25 1344.9 3764.25 1354.49 C 3764.25 1358.73 3763.01 1362.9 3760.66 1366.53 C 3760.4 1366.93 3760.26 1367.41 3760.26 1367.88 L 3760.26 1471.42 C 3760.26 1494.57 3739.99 1501.56 3722.1 1507.71 C 3718.66 1508.9 3715.36 1510.03 3712.35 1511.23 C 3711.2 1511.7 3710.56 1512.94 3710.85 1514.15 C 3711.15 1515.35 3712.35 1516.18 3713.53 1516.05 C 3724.41 1514.95 3735.05 1513.57 3745.24 1511.92 C 3721.46 1530.35 3692.29 1540.41 3662.11 1540.41 C 3631.95 1540.41 3602.77 1530.35 3578.97 1511.92 C 3589.18 1513.57 3599.81 1514.95 3610.71 1516.05 C 3610.79 1516.06 3610.88 1516.06 3610.96 1516.06 Z M 3741.97 1307.22 C 3741.21 1307.22 3740.49 1307.57 3740.02 1308.16 C 3738.98 1309.46 3714.7 1340.1 3714.7 1354.49 C 3714.7 1359.98 3716.39 1365.31 3719.58 1369.93 L 3719.58 1438.46 C 3711.83 1432.25 3693.5 1421.06 3662.11 1421.06 C 3630.74 1421.06 3612.41 1432.25 3604.66 1438.46 L 3604.66 1369.91 C 3607.84 1365.29 3609.52 1359.97 3609.52 1354.49 C 3609.52 1340.1 3585.23 1309.46 3584.2 1308.16 C 3583.26 1306.99 3581.23 1306.99 3580.29 1308.16 C 3579.26 1309.46 3554.97 1340.1 3554.97 1354.49 C 3554.97 1359.46 3556.35 1364.32 3558.96 1368.61 L 3558.96 1471.42 C 3558.96 1492.98 3573.96 1502.31 3589.48 1508.45 C 3583.04 1507.54 3576.74 1506.53 3570.63 1505.4 C 3569.53 1505.16 3568.42 1505.77 3567.93 1506.77 C 3567.44 1507.78 3567.68 1508.99 3568.52 1509.73 C 3594.4 1532.74 3627.65 1545.41 3662.11 1545.41 C 3696.42 1545.41 3729.48 1532.87 3755.28 1510.1 C 3756.09 1509.69 3756.66 1508.84 3756.66 1507.86 C 3756.66 1506.47 3755.31 1505.43 3754.1 1505.36 C 3753.94 1505.36 3753.75 1505.37 3753.58 1505.4 C 3747.48 1506.53 3741.19 1507.54 3734.76 1508.45 C 3750.26 1502.31 3765.26 1492.98 3765.26 1471.42 L 3765.26 1368.61 C 3767.87 1364.32 3769.25 1359.46 3769.25 1354.49 C 3769.25 1340.1 3744.96 1309.46 3743.93 1308.16 C 3743.46 1307.57 3742.73 1307.22 3741.97 1307.22"/>
    <path id="path2076" style="fill:#ffa364;fill-opacity:1;fill-rule:nonzero;stroke:none" d="M 3696.4 1545.95 L 3696.68 1547.14 C 3696.68 1564.52 3682.62 1578.59 3665.23 1578.59 L 3665.23 1555.95 C 3654.1 1555.95 3645.09 1546.93 3645.09 1535.8 C 3645.09 1524.69 3654.1 1515.68 3665.23 1515.68 L 3689.14 1515.68 C 3698 1515.68 3705.19 1522.85 3705.19 1531.71 C 3705.19 1537.94 3701.59 1543.29 3696.4 1545.95"/>
    <path id="path2078" style="fill:#000000;fill-opacity:1;fill-rule:nonzero;stroke:none" d="M 3667.73 1575.98 L 3667.73 1555.95 C 3667.73 1554.57 3666.61 1553.45 3665.23 1553.45 C 3655.51 1553.45 3647.59 1545.53 3647.59 1535.8 C 3647.59 1526.09 3655.51 1518.18 3665.23 1518.18 L 3689.14 1518.18 C 3696.61 1518.18 3702.69 1524.25 3702.69 1531.71 C 3702.69 1536.78 3699.84 1541.38 3695.25 1543.72 C 3694.23 1544.25 3693.7 1545.4 3693.96 1546.53 L 3694.25 1547.72 C 3694.18 1562.29 3682.53 1574.71 3667.73 1575.98 Z M 3689.14 1513.18 L 3665.23 1513.18 C 3652.74 1513.18 3642.59 1523.32 3642.59 1535.8 C 3642.59 1547.44 3651.42 1557.06 3662.73 1558.31 L 3662.73 1578.59 C 3662.73 1579.96 3663.86 1581.09 3665.23 1581.09 C 3683.93 1581.09 3699.13 1565.91 3699.18 1547.23 C 3704.47 1543.82 3707.69 1538.03 3707.69 1531.71 C 3707.69 1521.49 3699.37 1513.18 3689.14 1513.18"/>
    <path id="path2080" style="fill:#f4d9bd;fill-opacity:1;fill-rule:nonzero;stroke:none" d="M 3697.17 1531.18 C 3697.17 1526.3 3693.2 1522.34 3688.32 1522.34 C 3683.44 1522.34 3679.48 1526.3 3679.48 1531.18 C 3679.48 1536.07 3683.44 1540.02 3688.32 1540.02 C 3693.2 1540.02 3697.17 1536.07 3697.17 1531.18"/>
    <path id="path2082" style="fill:#8ba1a5;fill-opacity:1;fill-rule:nonzero;stroke:none" d="M 3554.61 1366.73 L 3607.071 1366.73 L 3607.071 1416.3 L 3554.61 1416.3 L 3554.61 1366.73 Z"/>
    <path id="path2084" style="fill:#000000;fill-opacity:1;fill-rule:nonzero;stroke:none" d="M 3557.11 1369.23 L 3604.57 1369.23 L 3604.57 1413.8 L 3557.11 1413.8 L 3557.11 1369.23 Z M 3607.07 1364.23 L 3554.61 1364.23 C 3553.23 1364.23 3552.11 1365.35 3552.11 1366.73 L 3552.11 1416.3 C 3552.11 1417.68 3553.23 1418.8 3554.61 1418.8 L 3607.07 1418.8 C 3608.45 1418.8 3609.57 1417.68 3609.57 1416.3 L 3609.57 1366.73 C 3609.57 1365.35 3608.45 1364.23 3607.07 1364.23"/>
    <path id="path2086" style="fill:#8ba1a5;fill-opacity:1;fill-rule:nonzero;stroke:none" d="M 3715.77 1366.73 L 3768.192 1366.73 L 3768.192 1416.3 L 3715.77 1416.3 L 3715.77 1366.73 Z"/>
    <path id="path2088" style="fill:#000000;fill-opacity:1;fill-rule:nonzero;stroke:none" d="M 3718.27 1369.23 L 3765.69 1369.23 L 3765.69 1413.8 L 3718.27 1413.8 L 3718.27 1369.23 Z M 3768.19 1364.23 L 3715.77 1364.23 C 3714.39 1364.23 3713.27 1365.35 3713.27 1366.73 L 3713.27 1416.3 C 3713.27 1417.68 3714.39 1418.8 3715.77 1418.8 L 3768.19 1418.8 C 3769.57 1418.8 3770.69 1417.68 3770.69 1416.3 L 3770.69 1366.73 C 3770.69 1365.35 3769.57 1364.23 3768.19 1364.23"/>
    <path id="path2090" style="fill:#6b7f82;fill-opacity:1;fill-rule:nonzero;stroke:none" d="M 3554.61 1379.37 L 3607.071 1379.37 L 3607.071 1403.671 L 3554.61 1403.671 L 3554.61 1379.37 Z"/>
    <path id="path2092" style="fill:#000000;fill-opacity:1;fill-rule:nonzero;stroke:none" d="M 3557.11 1381.87 L 3604.57 1381.87 L 3604.57 1401.17 L 3557.11 1401.17 L 3557.11 1381.87 Z M 3607.07 1376.87 L 3554.61 1376.87 C 3553.23 1376.87 3552.11 1377.99 3552.11 1379.37 L 3552.11 1403.67 C 3552.11 1405.04 3553.23 1406.17 3554.61 1406.17 L 3607.07 1406.17 C 3608.45 1406.17 3609.57 1405.04 3609.57 1403.67 L 3609.57 1379.37 C 3609.57 1377.99 3608.45 1376.87 3607.07 1376.87"/>
    <path id="path2094" style="fill:#6b7f82;fill-opacity:1;fill-rule:nonzero;stroke:none" d="M 3715.77 1379.37 L 3768.192 1379.37 L 3768.192 1403.671 L 3715.77 1403.671 L 3715.77 1379.37 Z"/>
    <path id="path2096" style="fill:#000000;fill-opacity:1;fill-rule:nonzero;stroke:none" d="M 3718.27 1381.87 L 3765.69 1381.87 L 3765.69 1401.17 L 3718.27 1401.17 L 3718.27 1381.87 Z M 3768.19 1376.87 L 3715.77 1376.87 C 3714.39 1376.87 3713.27 1377.99 3713.27 1379.37 L 3713.27 1403.67 C 3713.27 1405.04 3714.39 1406.17 3715.77 1406.17 L 3768.19 1406.17 C 3769.57 1406.17 3770.69 1405.04 3770.69 1403.67 L 3770.69 1379.37 C 3770.69 1377.99 3769.57 1376.87 3768.19 1376.87"/>
    <path id="path2098" style="fill:#2a5b6a;fill-opacity:1;fill-rule:nonzero;stroke:none" d="M 3571.29 1597.46 C 3556.94 1597.46 3545.36 1585.84 3545.36 1571.51 L 3597.07 1571.51 C 3597.07 1585.84 3585.53 1597.46 3571.29 1597.46"/>
    <path id="path2100" style="fill:#000000;fill-opacity:1;fill-rule:nonzero;stroke:none" d="M 3548 1574.01 L 3594.44 1574.01 C 3593.19 1585.77 3583.29 1594.96 3571.29 1594.96 C 3559.22 1594.96 3549.25 1585.77 3548 1574.01 Z M 3597.07 1569.01 L 3545.36 1569.01 C 3543.98 1569.01 3542.86 1570.13 3542.86 1571.51 C 3542.86 1587.2 3555.62 1599.96 3571.29 1599.96 C 3586.88 1599.96 3599.57 1587.2 3599.57 1571.51 C 3599.57 1570.13 3598.45 1569.01 3597.07 1569.01"/>
    <path id="path2102" style="fill:#f2f1e7;fill-opacity:1;fill-rule:nonzero;stroke:none" d="M 3662.02 1466.93 C 3677.23 1466.93 3689.5 1479.24 3689.5 1494.43 L 3634.72 1494.43 C 3634.72 1479.24 3646.94 1466.93 3662.02 1466.93"/>
    <path id="path2104" style="fill:#000000;fill-opacity:1;fill-rule:nonzero;stroke:none" d="M 3637.34 1491.93 C 3638.58 1479.31 3649.18 1469.43 3662.02 1469.43 C 3674.95 1469.43 3685.63 1479.31 3686.88 1491.93 L 3637.34 1491.93 Z M 3662.02 1464.43 C 3645.59 1464.43 3632.22 1477.88 3632.22 1494.43 C 3632.22 1495.8 3633.34 1496.93 3634.72 1496.93 L 3689.5 1496.93 C 3690.88 1496.93 3692 1495.8 3692 1494.43 C 3692 1477.88 3678.55 1464.43 3662.02 1464.43"/>
    <path id="path2106" style="fill:#2a5b6a;fill-opacity:1;fill-rule:nonzero;stroke:none" d="M 3790.04 1597.46 C 3775.69 1597.46 3764.14 1585.84 3764.14 1571.51 L 3815.87 1571.51 C 3815.87 1585.84 3804.28 1597.46 3790.04 1597.46"/>
    <path id="path2108" style="fill:#000000;fill-opacity:1;fill-rule:nonzero;stroke:none" d="M 3766.78 1574.01 L 3813.24 1574.01 C 3811.99 1585.77 3802.06 1594.96 3790.04 1594.96 C 3777.98 1594.96 3768.02 1585.77 3766.78 1574.01 Z M 3815.87 1569.01 L 3764.14 1569.01 C 3762.76 1569.01 3761.64 1570.13 3761.64 1571.51 C 3761.64 1587.2 3774.38 1599.96 3790.04 1599.96 C 3805.66 1599.96 3818.37 1587.2 3818.37 1571.51 C 3818.37 1570.13 3817.25 1569.01 3815.87 1569.01"/>
    <path id="path2110" style="fill:#d3d3d3;fill-opacity:1;fill-rule:nonzero;stroke:none" d="M 3622.41 1616.71 L 3520.08 1602.44 L 3520.08 1630.89 L 3622.41 1663 L 3622.41 1616.71"/>
    <path id="path2112" style="fill:#000000;fill-opacity:1;fill-rule:nonzero;stroke:none" d="M 3522.58 1629.06 L 3522.58 1605.32 L 3619.91 1618.89 L 3619.91 1659.59 L 3522.58 1629.06 Z M 3520.08 1599.94 C 3519.48 1599.94 3518.9 1600.16 3518.44 1600.56 C 3517.89 1601.04 3517.58 1601.72 3517.58 1602.44 L 3517.58 1630.89 C 3517.58 1631.99 3518.29 1632.95 3519.33 1633.27 L 3621.66 1665.38 C 3622.41 1665.64 3623.24 1665.49 3623.9 1665.01 C 3624.53 1664.54 3624.91 1663.79 3624.91 1663 L 3624.91 1616.71 C 3624.91 1615.46 3623.99 1614.41 3622.75 1614.23 L 3520.42 1599.96 C 3520.31 1599.95 3520.2 1599.94 3520.08 1599.94"/>
    <path id="path2114" style="fill:#d3d3d3;fill-opacity:1;fill-rule:nonzero;stroke:none" d="M 3748.72 1616.68 L 3831.33 1602.44 L 3831.33 1630.97 L 3748.72 1662.96 L 3748.72 1616.68"/>
    <path id="path2116" style="fill:#000000;fill-opacity:1;fill-rule:nonzero;stroke:none" d="M 3751.22 1618.79 L 3828.83 1605.41 L 3828.83 1629.26 L 3751.22 1659.31 L 3751.22 1618.79 Z M 3831.33 1599.94 C 3831.19 1599.94 3831.04 1599.95 3830.91 1599.98 L 3748.3 1614.22 C 3747.1 1614.43 3746.22 1615.46 3746.22 1616.68 L 3746.22 1662.96 C 3746.22 1663.78 3746.63 1664.55 3747.3 1665.02 C 3748 1665.5 3748.87 1665.59 3749.62 1665.3 L 3832.23 1633.3 C 3833.19 1632.93 3833.83 1632.01 3833.83 1630.97 L 3833.83 1602.44 C 3833.83 1601.7 3833.51 1601.01 3832.94 1600.53 C 3832.48 1600.15 3831.91 1599.94 3831.33 1599.94"/>
    <path id="path2118" style="fill:#ff9b00;fill-opacity:1;fill-rule:nonzero;stroke:none" d="M 3497.52 1247.84 L 3497.52 1217.73 L 3530.74 1224.94 L 3563.96 1217.73 L 3597.16 1224.94 L 3630.37 1217.73 L 3663.59 1224.94 L 3696.83 1217.73 L 3730.02 1224.94 L 3763.23 1217.73 L 3763.23 1247.84 L 3497.52 1247.84"/>
    <path id="path2120" style="fill:#000000;fill-opacity:1;fill-rule:nonzero;stroke:none" d="M 3597.16 1227.44 C 3597.33 1227.44 3597.51 1227.43 3597.69 1227.39 L 3630.37 1220.29 L 3663.07 1227.39 C 3663.42 1227.46 3663.77 1227.46 3664.12 1227.39 L 3696.83 1220.29 L 3729.49 1227.39 C 3729.84 1227.46 3730.2 1227.46 3730.55 1227.39 L 3760.73 1220.83 L 3760.73 1245.34 L 3500.02 1245.34 L 3500.02 1220.83 L 3530.21 1227.39 C 3530.57 1227.46 3530.92 1227.46 3531.27 1227.39 L 3563.96 1220.29 L 3596.63 1227.39 C 3596.81 1227.43 3596.98 1227.44 3597.16 1227.44 Z M 3763.23 1215.23 C 3763.06 1215.23 3762.88 1215.25 3762.71 1215.29 L 3730.02 1222.39 L 3697.35 1215.29 C 3697 1215.21 3696.65 1215.21 3696.3 1215.29 L 3663.59 1222.39 L 3630.9 1215.29 C 3630.55 1215.21 3630.2 1215.21 3629.84 1215.29 L 3597.16 1222.39 L 3564.48 1215.29 C 3564.13 1215.21 3563.78 1215.21 3563.43 1215.29 L 3530.74 1222.39 L 3498.05 1215.29 C 3497.3 1215.14 3496.53 1215.32 3495.95 1215.78 C 3495.36 1216.25 3495.02 1216.98 3495.02 1217.73 L 3495.02 1247.84 C 3495.02 1249.21 3496.14 1250.34 3497.52 1250.34 L 3763.23 1250.34 C 3764.61 1250.34 3765.73 1249.21 3765.73 1247.84 L 3765.73 1217.73 C 3765.73 1216.98 3765.39 1216.25 3764.8 1215.78 C 3764.36 1215.42 3763.8 1215.23 3763.23 1215.23"/>
    <path id="path2122" style="fill:#ad713b;fill-opacity:1;fill-rule:nonzero;stroke:none" d="M 3497.54 1245.87 L 3763.231 1245.87 L 3763.231 1287.921 L 3497.54 1287.921 L 3497.54 1245.87 Z"/>
    <path id="path2124" style="fill:#000000;fill-opacity:1;fill-rule:nonzero;stroke:none" d="M 3500.04 1248.37 L 3760.73 1248.37 L 3760.73 1285.42 L 3500.04 1285.42 L 3500.04 1248.37 Z M 3763.23 1243.37 L 3497.54 1243.37 C 3496.16 1243.37 3495.04 1244.5 3495.04 1245.87 L 3495.04 1287.92 C 3495.04 1289.3 3496.16 1290.42 3497.54 1290.42 L 3763.23 1290.42 C 3764.61 1290.42 3765.73 1289.3 3765.73 1287.92 L 3765.73 1245.87 C 3765.73 1244.5 3764.61 1243.37 3763.23 1243.37"/>
    <path id="path2126" style="fill:#8ba1a5;fill-opacity:1;fill-rule:nonzero;stroke:none" d="M 3726.42 1266.9 C 3726.42 1233.94 3699.71 1207.23 3666.75 1207.23 C 3633.8 1207.23 3607.07 1233.94 3607.07 1266.9 C 3607.07 1299.85 3633.8 1326.57 3666.75 1326.57 C 3699.71 1326.57 3726.42 1299.85 3726.42 1266.9"/>
    <path id="path2128" style="fill:#000000;fill-opacity:1;fill-rule:nonzero;stroke:none" d="M 3666.75 1324.07 C 3635.22 1324.07 3609.57 1298.42 3609.57 1266.9 C 3609.57 1235.37 3635.22 1209.73 3666.75 1209.73 C 3698.27 1209.73 3723.92 1235.37 3723.92 1266.9 C 3723.92 1298.42 3698.27 1324.07 3666.75 1324.07 Z M 3666.75 1204.73 C 3632.46 1204.73 3604.57 1232.62 3604.57 1266.9 C 3604.57 1301.18 3632.46 1329.07 3666.75 1329.07 C 3701.03 1329.07 3728.92 1301.18 3728.92 1266.9 C 3728.92 1232.62 3701.03 1204.73 3666.75 1204.73"/>
    <path id="path2130" style="fill:#6b7f82;fill-opacity:1;fill-rule:nonzero;stroke:none" d="M 3708.51 1266.9 C 3708.51 1243.82 3689.8 1225.12 3666.75 1225.12 C 3643.71 1225.12 3624.99 1243.82 3624.99 1266.9 C 3624.99 1289.96 3643.71 1308.65 3666.75 1308.65 C 3689.8 1308.65 3708.51 1289.96 3708.51 1266.9"/>
    <path id="path2132" style="fill:#000000;fill-opacity:1;fill-rule:nonzero;stroke:none" d="M 3666.75 1306.15 C 3645.1 1306.15 3627.49 1288.54 3627.49 1266.9 C 3627.49 1245.24 3645.1 1227.62 3666.75 1227.62 C 3688.4 1227.62 3706.01 1245.24 3706.01 1266.9 C 3706.01 1288.54 3688.4 1306.15 3666.75 1306.15 Z M 3666.75 1222.62 C 3642.34 1222.62 3622.49 1242.48 3622.49 1266.9 C 3622.49 1291.29 3642.34 1311.15 3666.75 1311.15 C 3691.15 1311.15 3711.01 1291.29 3711.01 1266.9 C 3711.01 1242.48 3691.15 1222.62 3666.75 1222.62"/>
    <path id="path2134" style="fill:#ff9b00;fill-opacity:1;fill-rule:nonzero;stroke:none" d="M 3237.62 1414.07 L 3271.8 1448.23 L 3466.41 1253.69 L 3432.22 1219.52 L 3237.62 1414.07"/>
    <path id="path2136" style="fill:#000000;fill-opacity:1;fill-rule:nonzero;stroke:none" d="M 3241.15 1414.07 L 3432.22 1223.06 L 3462.87 1253.69 L 3271.8 1444.69 L 3241.15 1414.07 Z M 3432.22 1217.02 C 3431.58 1217.02 3430.94 1217.27 3430.45 1217.76 L 3235.85 1412.3 C 3235.38 1412.77 3235.12 1413.4 3235.12 1414.07 C 3235.12 1414.73 3235.38 1415.36 3235.85 1415.83 L 3270.03 1449.99 C 3271.01 1450.98 3272.6 1450.96 3273.56 1449.99 L 3468.17 1255.46 C 3468.64 1254.99 3468.91 1254.36 3468.91 1253.69 C 3468.91 1253.03 3468.64 1252.4 3468.17 1251.93 L 3433.98 1217.76 C 3433.5 1217.27 3432.85 1217.02 3432.22 1217.02"/>
    <path id="path2138" style="fill:#bcc4cd;fill-opacity:1;fill-rule:nonzero;stroke:none" d="M 3448.74 1275.75 C 3470.05 1275.72 3487.29 1258.46 3487.31 1237.15 L 3487.31 1237.15 C 3487.31 1215.83 3470.09 1198.59 3448.74 1198.57 L 3448.74 1198.57 C 3427.4 1198.59 3410.16 1215.85 3410.2 1237.11 L 3410.2 1237.11 C 3410.2 1258.46 3427.47 1275.68 3448.74 1275.75 L 3448.74 1275.75"/>
    <path id="path2140" style="fill:#000000;fill-opacity:1;fill-rule:nonzero;stroke:none" d="M 3448.74 1273.25 C 3428.87 1273.18 3412.7 1256.98 3412.7 1237.11 C 3412.68 1227.49 3416.42 1218.45 3423.22 1211.64 C 3430.03 1204.84 3439.09 1201.08 3448.74 1201.07 C 3468.63 1201.09 3484.81 1217.28 3484.81 1237.15 C 3484.79 1257.02 3468.6 1273.22 3448.74 1273.25 Z M 3448.74 1196.07 L 3448.74 1196.07 C 3437.75 1196.08 3427.43 1200.35 3419.69 1208.11 C 3411.93 1215.86 3407.68 1226.17 3407.7 1237.11 C 3407.7 1259.72 3426.1 1278.18 3448.73 1278.25 C 3471.36 1278.22 3489.79 1259.78 3489.81 1237.15 C 3489.81 1214.52 3471.39 1196.09 3448.74 1196.07"/>
    <path id="path2142" style="fill:#8192a4;fill-opacity:1;fill-rule:nonzero;stroke:none" d="M 3448.74 1257.13 C 3459.79 1257.12 3468.72 1248.17 3468.68 1237.15 L 3468.68 1237.15 C 3468.72 1226.13 3459.81 1217.22 3448.74 1217.18 L 3448.74 1217.18 C 3437.72 1217.18 3428.79 1226.13 3428.79 1237.11 L 3428.79 1237.11 C 3428.79 1248.22 3437.71 1257.11 3448.74 1257.13 L 3448.74 1257.13"/>
    <path id="path2144" style="fill:#000000;fill-opacity:1;fill-rule:nonzero;stroke:none" d="M 3448.74 1254.63 C 3439.12 1254.61 3431.29 1246.75 3431.29 1237.11 C 3431.29 1227.5 3439.11 1219.68 3448.73 1219.68 C 3453.43 1219.7 3457.82 1221.52 3461.11 1224.82 C 3464.39 1228.11 3466.2 1232.48 3466.18 1237.14 C 3466.2 1241.81 3464.39 1246.18 3461.11 1249.49 C 3457.81 1252.81 3453.42 1254.63 3448.74 1254.63 Z M 3448.75 1214.68 L 3448.74 1214.68 C 3436.36 1214.68 3426.29 1224.74 3426.29 1237.11 C 3426.29 1249.51 3436.36 1259.61 3448.74 1259.63 C 3454.77 1259.62 3460.41 1257.28 3464.66 1253.01 C 3468.89 1248.76 3471.2 1243.13 3471.18 1237.14 C 3471.2 1231.16 3468.89 1225.52 3464.65 1221.28 C 3460.42 1217.04 3454.78 1214.7 3448.75 1214.68"/>
    <path id="path2146" style="fill:#8192a4;fill-opacity:1;fill-rule:nonzero;stroke:none" d="M 3101.83 1413.38 L 3175.25 1339.91 L 3346.01 1510.62 L 3272.53 1584.08 L 3101.83 1413.38"/>
    <path id="path2148" style="fill:#000000;fill-opacity:1;fill-rule:nonzero;stroke:none" d="M 3105.37 1413.38 L 3175.25 1343.44 L 3342.47 1510.62 L 3272.53 1580.54 L 3105.37 1413.38 Z M 3175.25 1337.41 L 3175.25 1337.41 C 3174.59 1337.41 3173.96 1337.67 3173.49 1338.14 L 3100.06 1411.61 C 3099.09 1412.59 3099.09 1414.17 3100.06 1415.15 L 3270.76 1585.84 C 3271.74 1586.82 3273.32 1586.82 3274.3 1585.84 L 3347.77 1512.39 C 3348.24 1511.92 3348.51 1511.28 3348.51 1510.62 C 3348.51 1509.95 3348.24 1509.32 3347.77 1508.85 L 3177.02 1338.14 C 3176.55 1337.67 3175.92 1337.41 3175.25 1337.41"/>
    <path id="path2150" style="fill:#bcc4cd;fill-opacity:1;fill-rule:nonzero;stroke:none" d="M 3223.87 1489.1 C 3238.82 1489.1 3250.95 1477 3250.93 1462.02 L 3250.93 1462.02 C 3250.95 1447.05 3238.84 1434.94 3223.9 1434.96 L 3223.9 1434.96 C 3208.9 1434.96 3196.78 1447.09 3196.81 1462.04 L 3196.81 1462.04 C 3196.83 1477 3208.9 1489.08 3223.87 1489.1 L 3223.87 1489.1"/>
    <path id="path2152" style="fill:#000000;fill-opacity:1;fill-rule:nonzero;stroke:none" d="M 3223.87 1486.6 C 3210.34 1486.58 3199.33 1475.56 3199.31 1462.04 C 3199.3 1455.48 3201.84 1449.32 3206.46 1444.68 C 3211.11 1440.03 3217.3 1437.46 3223.9 1437.46 L 3223.94 1437.46 C 3230.48 1437.46 3236.63 1440.01 3241.26 1444.64 C 3245.89 1449.28 3248.44 1455.45 3248.43 1462.02 C 3248.44 1468.59 3245.89 1474.76 3241.25 1479.4 C 3236.61 1484.05 3230.44 1486.6 3223.87 1486.6 Z M 3223.94 1432.46 L 3223.9 1432.46 C 3215.97 1432.46 3208.52 1435.55 3202.93 1441.15 C 3197.35 1446.73 3194.29 1454.15 3194.31 1462.04 C 3194.33 1478.31 3207.59 1491.58 3223.86 1491.6 C 3231.78 1491.6 3239.21 1488.53 3244.79 1482.93 C 3250.37 1477.35 3253.44 1469.92 3253.43 1462.02 C 3253.44 1454.12 3250.37 1446.69 3244.79 1441.12 C 3239.23 1435.54 3231.82 1432.46 3223.94 1432.46"/>
    <path id="path2154" style="fill:#425059;fill-opacity:1;fill-rule:nonzero;stroke:none" d="M 3235.46 1547.09 L 3308.92 1473.59 L 3346.01 1510.62 L 3272.53 1584.08 L 3235.46 1547.09"/>
    <path id="path2156" style="fill:#000000;fill-opacity:1;fill-rule:nonzero;stroke:none" d="M 3238.99 1547.09 L 3308.92 1477.12 L 3342.47 1510.62 L 3272.53 1580.54 L 3238.99 1547.09 Z M 3308.92 1471.09 C 3308.27 1471.09 3307.64 1471.33 3307.15 1471.82 L 3233.69 1545.33 C 3233.22 1545.79 3232.96 1546.43 3232.96 1547.09 C 3232.96 1547.76 3233.22 1548.39 3233.69 1548.86 L 3270.76 1585.84 C 3271.75 1586.83 3273.33 1586.81 3274.3 1585.84 L 3347.77 1512.39 C 3348.24 1511.92 3348.51 1511.28 3348.51 1510.62 C 3348.51 1509.95 3348.24 1509.32 3347.77 1508.85 L 3310.68 1471.82 C 3310.2 1471.33 3309.55 1471.09 3308.92 1471.09"/>
    <path id="path2158" style="fill:#425059;fill-opacity:1;fill-rule:nonzero;stroke:none" d="M 3101.82 1413.35 L 3175.25 1339.91 L 3212.32 1377.02 L 3138.89 1450.43 L 3101.82 1413.35"/>
    <path id="path2160" style="fill:#000000;fill-opacity:1;fill-rule:nonzero;stroke:none" d="M 3105.36 1413.35 L 3175.25 1343.44 L 3208.79 1377.02 L 3138.89 1446.9 L 3105.36 1413.35 Z M 3175.25 1337.41 C 3174.59 1337.41 3173.96 1337.67 3173.49 1338.14 L 3100.05 1411.59 C 3099.08 1412.56 3099.08 1414.14 3100.05 1415.12 L 3137.12 1452.2 C 3138.06 1453.14 3139.72 1453.14 3140.66 1452.2 L 3214.09 1378.78 C 3215.07 1377.81 3215.07 1376.22 3214.09 1375.25 L 3177.02 1338.14 C 3176.55 1337.67 3175.92 1337.41 3175.25 1337.41"/>
    <path id="path2162" style="fill:#bcc4cd;fill-opacity:1;fill-rule:nonzero;stroke:none" d="M 3339.24 1466.71 L 3228.58 1577.37 L 3269.12 1617.91 L 3379.78 1507.25 L 3339.24 1466.71"/>
    <path id="path2164" style="fill:#000000;fill-opacity:1;fill-rule:nonzero;stroke:none" d="M 3232.12 1577.37 L 3339.24 1470.25 L 3376.24 1507.25 L 3269.12 1614.38 L 3232.12 1577.37 Z M 3339.24 1464.21 C 3338.59 1464.21 3337.96 1464.46 3337.47 1464.94 L 3226.82 1575.6 C 3225.84 1576.58 3225.84 1578.16 3226.82 1579.13 L 3267.35 1619.68 C 3268.29 1620.62 3269.95 1620.62 3270.89 1619.68 L 3381.54 1509.02 C 3382.52 1508.04 3382.52 1506.46 3381.54 1505.48 L 3341.01 1464.94 C 3340.52 1464.46 3339.88 1464.21 3339.24 1464.21"/>
    <path id="path2166" style="fill:#bcc4cd;fill-opacity:1;fill-rule:nonzero;stroke:none" d="M 3178.64 1306.12 L 3067.99 1416.78 L 3108.52 1457.31 L 3219.17 1346.65 L 3178.64 1306.12"/>
    <path id="path2168" style="fill:#000000;fill-opacity:1;fill-rule:nonzero;stroke:none" d="M 3071.52 1416.78 L 3178.64 1309.65 L 3215.63 1346.65 L 3108.52 1453.77 L 3071.52 1416.78 Z M 3178.64 1303.62 C 3177.98 1303.62 3177.34 1303.88 3176.88 1304.35 L 3066.22 1415.01 C 3065.75 1415.48 3065.49 1416.12 3065.49 1416.78 C 3065.49 1417.44 3065.75 1418.08 3066.22 1418.55 L 3106.75 1459.08 C 3107.73 1460.05 3109.31 1460.05 3110.29 1459.08 L 3220.94 1348.42 C 3221.91 1347.44 3221.91 1345.86 3220.94 1344.89 L 3180.41 1304.35 C 3179.94 1303.88 3179.31 1303.62 3178.64 1303.62"/>
    <path id="path2170" style="fill:#bcc4cd;fill-opacity:1;fill-rule:nonzero;stroke:none" d="M 3792.22 1204.53 L 3766.68 1200.28 L 3771.01 1225.73 L 3784.61 1239.34 L 3805.82 1218.13 L 3792.22 1204.53"/>
    <path id="path2172" style="fill:#000000;fill-opacity:1;fill-rule:nonzero;stroke:none" d="M 3773.34 1224.52 L 3769.74 1203.32 L 3791.02 1206.87 L 3802.29 1218.13 L 3784.61 1235.8 L 3773.34 1224.52 Z M 3766.68 1197.78 C 3766.03 1197.78 3765.38 1198.04 3764.91 1198.51 C 3764.34 1199.09 3764.08 1199.9 3764.22 1200.7 L 3768.54 1226.15 C 3768.63 1226.65 3768.87 1227.12 3769.24 1227.49 L 3782.84 1241.11 C 3783.78 1242.04 3785.44 1242.04 3786.38 1241.11 L 3807.59 1219.9 C 3808.06 1219.43 3808.32 1218.79 3808.32 1218.13 C 3808.32 1217.46 3808.06 1216.83 3807.59 1216.36 L 3793.98 1202.77 C 3793.61 1202.4 3793.14 1202.15 3792.63 1202.06 L 3767.09 1197.81 C 3766.95 1197.79 3766.82 1197.78 3766.68 1197.78"/>
    <path id="path2174" style="fill:#ff9b00;fill-opacity:1;fill-rule:nonzero;stroke:none" d="M 3814.57 1222.24 L 3787.85 1248.95 L 4060.38 1521.52 L 4087.12 1494.8 L 3814.57 1222.24"/>
    <path id="path2176" style="fill:#000000;fill-opacity:1;fill-rule:nonzero;stroke:none" d="M 3791.39 1248.95 L 3814.57 1225.77 L 4083.58 1494.8 L 4060.38 1517.98 L 3791.39 1248.95 Z M 3814.57 1219.74 C 3813.93 1219.74 3813.29 1219.98 3812.8 1220.47 L 3786.08 1247.18 C 3785.62 1247.65 3785.35 1248.28 3785.35 1248.95 C 3785.35 1249.61 3785.62 1250.25 3786.08 1250.72 L 4058.61 1523.28 C 4059.58 1524.25 4061.16 1524.27 4062.15 1523.28 L 4088.89 1496.57 C 4089.36 1496.1 4089.62 1495.46 4089.62 1494.8 C 4089.62 1494.13 4089.36 1493.5 4088.89 1493.03 L 3816.34 1220.47 C 3815.85 1219.98 3815.21 1219.74 3814.57 1219.74"/>
    <path id="path2178" style="fill:#8192a4;fill-opacity:1;fill-rule:nonzero;stroke:none" d="M 4171.26 1278.9 C 4137.62 1245.25 4094.79 1226.33 4050.76 1222.19 C 4070.45 1292.03 4061.82 1368.2 4024.86 1432.49 C 4024.86 1432.49 3998.73 1458.65 3998.15 1459.22 L 4060.41 1521.52 L 4087.14 1494.76 L 4237.13 1344.8 C 4212.22 1319.87 4208.27 1315.94 4171.26 1278.9"/>
    <path id="path2180" style="fill:#000000;fill-opacity:1;fill-rule:nonzero;stroke:none" d="M 4001.69 1459.22 L 4026.63 1434.26 C 4026.79 1434.1 4026.92 1433.93 4027.03 1433.74 C 4063.08 1371.03 4072.88 1295.17 4054.14 1225.05 C 4097.63 1229.97 4138.48 1249.64 4169.49 1280.67 L 4233.59 1344.8 L 4060.41 1517.98 L 4001.69 1459.22 Z M 4050.76 1219.69 C 4050.02 1219.69 4049.32 1220.01 4048.84 1220.59 C 4048.31 1221.22 4048.13 1222.07 4048.36 1222.86 C 4068.01 1292.57 4058.71 1368.4 4022.86 1430.96 L 3996.39 1457.45 C 3995.41 1458.43 3995.41 1460.01 3996.39 1460.99 L 4058.64 1523.28 C 4059.11 1523.75 4059.75 1524.02 4060.41 1524.02 L 4060.41 1524.02 C 4061.07 1524.02 4061.71 1523.75 4062.18 1523.28 L 4238.9 1346.57 C 4239.87 1345.59 4239.87 1344.01 4238.9 1343.03 L 4173.03 1277.13 C 4140.33 1244.43 4096.99 1224.03 4051 1219.7 C 4050.92 1219.69 4050.84 1219.69 4050.76 1219.69"/>
    <path id="path2182" style="fill:#bcc4cd;fill-opacity:1;fill-rule:nonzero;stroke:none" d="M 4011.47 1445.91 L 4073.75 1508.16 L 4087.12 1494.8 L 4024.83 1432.53 C 4024.66 1432.71 4018.08 1439.3 4011.47 1445.91"/>
    <path id="path2184" style="fill:#000000;fill-opacity:1;fill-rule:nonzero;stroke:none" d="M 4015.01 1445.91 L 4024.83 1436.07 L 4083.58 1494.8 L 4073.75 1504.62 L 4015.01 1445.91 Z M 4024.83 1430.03 C 4024.19 1430.03 4023.55 1430.28 4023.07 1430.77 L 4009.71 1444.14 C 4008.73 1445.12 4008.73 1446.7 4009.71 1447.68 L 4071.98 1509.93 C 4072.96 1510.9 4074.54 1510.9 4075.52 1509.93 L 4088.89 1496.57 C 4089.36 1496.1 4089.62 1495.46 4089.62 1494.8 C 4089.62 1494.13 4089.36 1493.5 4088.89 1493.03 L 4026.6 1430.77 C 4026.11 1430.28 4025.47 1430.03 4024.83 1430.03"/>
    <path id="path2186" style="fill:#bcc4cd;fill-opacity:1;fill-rule:nonzero;stroke:none" d="M 4142.45 1317.73 C 4176.81 1352.06 4183.54 1358.78 4203.33 1378.61 L 4237.13 1344.8 C 4212.22 1319.87 4208.27 1315.94 4171.26 1278.9 C 4137.62 1245.25 4094.79 1226.33 4050.76 1222.19 C 4055.11 1237.36 4057.86 1252.82 4059.47 1268.39 C 4089.84 1277.44 4118.53 1293.79 4142.45 1317.73"/>
    <path id="path2188" style="fill:#000000;fill-opacity:1;fill-rule:nonzero;stroke:none" d="M 4061.79 1266.48 C 4060.18 1251.69 4057.68 1238.09 4054.15 1225.05 C 4097.64 1229.98 4138.48 1249.64 4169.49 1280.67 L 4233.59 1344.8 L 4203.33 1375.07 C 4187.25 1358.97 4179.61 1351.33 4155.89 1327.62 L 4144.22 1315.96 C 4121.4 1293.13 4092.93 1276.05 4061.79 1266.48 Z M 4050.76 1219.69 C 4050.02 1219.69 4049.32 1220.02 4048.84 1220.6 C 4048.31 1221.23 4048.13 1222.08 4048.36 1222.88 C 4052.46 1237.18 4055.28 1252.16 4056.98 1268.65 C 4057.09 1269.65 4057.79 1270.5 4058.76 1270.78 C 4089.73 1280.02 4118.06 1296.86 4140.68 1319.5 L 4152.35 1331.16 C 4176.92 1355.72 4184.24 1363.03 4201.56 1380.37 C 4202.5 1381.31 4204.16 1381.31 4205.1 1380.37 L 4238.9 1346.57 C 4239.87 1345.59 4239.87 1344.01 4238.9 1343.03 L 4173.03 1277.13 C 4140.33 1244.43 4096.99 1224.03 4051 1219.7 C 4050.92 1219.69 4050.84 1219.69 4050.76 1219.69"/>
    <path id="path2190" style="fill:#8192a4;fill-opacity:1;fill-rule:nonzero;stroke:none" d="M 3807.75 1197.63 L 3763.23 1242.13 L 3778.92 1257.84 L 3823.45 1213.36 L 3807.75 1197.63"/>
    <path id="path2192" style="fill:#000000;fill-opacity:1;fill-rule:nonzero;stroke:none" d="M 3766.77 1242.13 L 3807.75 1201.17 L 3819.91 1213.36 L 3778.92 1254.3 L 3766.77 1242.13 Z M 3807.75 1195.13 C 3807.09 1195.13 3806.46 1195.39 3805.99 1195.86 L 3761.46 1240.36 C 3760.49 1241.34 3760.49 1242.92 3761.46 1243.9 L 3777.15 1259.6 C 3778.12 1260.57 3779.7 1260.59 3780.68 1259.6 L 3825.21 1215.13 C 3826.19 1214.15 3826.19 1212.57 3825.21 1211.6 L 3809.52 1195.86 C 3809.05 1195.39 3808.42 1195.13 3807.75 1195.13 L 3807.75 1195.13"/>
    <path id="path2194" style="fill:#eb4900;fill-opacity:1;fill-rule:nonzero;stroke:none" d="M 3931.59 1339.27 L 3904.89 1365.96 L 3931.27 1392.36 L 3957.98 1365.64 L 3931.59 1339.27"/>
    <path id="path2196" style="fill:#000000;fill-opacity:1;fill-rule:nonzero;stroke:none" d="M 3908.43 1365.96 L 3931.59 1342.81 L 3954.44 1365.64 L 3931.27 1388.82 L 3908.43 1365.96 Z M 3931.59 1336.77 C 3930.95 1336.77 3930.31 1337.02 3929.82 1337.5 L 3903.13 1364.19 C 3902.15 1365.17 3902.15 1366.75 3903.13 1367.73 L 3929.5 1394.12 C 3930.44 1395.06 3932.1 1395.06 3933.04 1394.12 L 3959.75 1367.41 C 3960.21 1366.94 3960.48 1366.3 3960.48 1365.64 C 3960.48 1364.97 3960.21 1364.34 3959.75 1363.87 L 3933.36 1337.5 C 3932.87 1337.02 3932.23 1336.77 3931.59 1336.77"/>
    <path id="path2198" style="fill:#eb4900;fill-opacity:1;fill-rule:nonzero;stroke:none" d="M 3828.92 1236.6 L 3802.23 1263.29 L 3828.58 1289.65 L 3855.26 1262.94 L 3828.92 1236.6"/>
    <path id="path2200" style="fill:#000000;fill-opacity:1;fill-rule:nonzero;stroke:none" d="M 3805.76 1263.29 L 3828.92 1240.14 L 3851.73 1262.94 L 3828.58 1286.12 L 3805.76 1263.29 Z M 3828.92 1234.1 C 3828.27 1234.1 3827.64 1234.35 3827.15 1234.84 L 3800.46 1261.53 C 3799.48 1262.5 3799.48 1264.09 3800.46 1265.06 L 3826.82 1291.42 C 3827.29 1291.89 3827.92 1292.15 3828.58 1292.15 L 3828.58 1292.15 C 3829.25 1292.15 3829.88 1291.89 3830.35 1291.42 L 3857.03 1264.71 C 3858.01 1263.73 3858.01 1262.15 3857.03 1261.18 L 3830.68 1234.84 C 3830.2 1234.35 3829.55 1234.1 3828.92 1234.1"/>
    <path id="path2202" style="fill:#cd7200;fill-opacity:1;fill-rule:nonzero;stroke:none" d="M 3893.89 1301.58 L 3893.89 1354.98 L 3931.18 1392.28 L 3931.18 1338.85 L 3893.89 1301.58"/>
    <path id="path2204" style="fill:#000000;fill-opacity:1;fill-rule:nonzero;stroke:none" d="M 3896.39 1353.95 L 3896.39 1307.61 L 3928.68 1339.89 L 3928.68 1386.24 L 3896.39 1353.95 Z M 3893.89 1299.08 C 3893.56 1299.08 3893.24 1299.13 3892.93 1299.26 C 3891.99 1299.65 3891.39 1300.56 3891.39 1301.58 L 3891.39 1354.98 C 3891.39 1355.65 3891.65 1356.28 3892.12 1356.75 L 3929.41 1394.05 C 3930.13 1394.76 3931.19 1394.97 3932.14 1394.59 C 3933.08 1394.2 3933.68 1393.29 3933.68 1392.28 L 3933.68 1338.85 C 3933.68 1338.19 3933.42 1337.55 3932.95 1337.08 L 3895.65 1299.81 C 3895.18 1299.33 3894.54 1299.08 3893.89 1299.08"/>
    <path id="path2206" style="fill:#cd7200;fill-opacity:1;fill-rule:nonzero;stroke:none" d="M 3892.27 1299.93 L 3892.27 1353.36 L 3929.59 1390.67 L 3929.55 1337.24 L 3892.27 1299.93"/>
    <path id="path2208" style="fill:#000000;fill-opacity:1;fill-rule:nonzero;stroke:none" d="M 3894.77 1352.33 L 3894.77 1305.96 L 3927.05 1338.27 L 3927.09 1384.63 L 3894.77 1352.33 Z M 3892.27 1297.43 C 3891.94 1297.43 3891.62 1297.48 3891.31 1297.61 C 3890.37 1298 3889.77 1298.91 3889.77 1299.93 L 3889.77 1353.36 C 3889.77 1354.03 3890.03 1354.66 3890.5 1355.13 L 3927.82 1392.43 C 3928.54 1393.15 3929.6 1393.39 3930.55 1392.97 C 3931.48 1392.59 3932.09 1391.67 3932.09 1390.67 L 3932.05 1337.24 C 3932.05 1336.58 3931.79 1335.94 3931.32 1335.47 L 3894.03 1298.16 C 3893.55 1297.68 3892.92 1297.43 3892.27 1297.43"/>
    <path id="path2210" style="fill:#eb4900;fill-opacity:1;fill-rule:nonzero;stroke:none" d="M 3892.38 1300.07 L 3838.99 1300.09 L 3876.29 1337.35 L 3929.71 1337.37 L 3892.38 1300.07"/>
    <path id="path2212" style="fill:#000000;fill-opacity:1;fill-rule:nonzero;stroke:none" d="M 3845.03 1302.59 L 3891.35 1302.57 L 3923.66 1334.87 L 3877.32 1334.85 L 3845.03 1302.59 Z M 3892.38 1297.57 L 3892.38 1297.57 L 3838.99 1297.59 C 3837.98 1297.59 3837.07 1298.2 3836.68 1299.13 C 3836.3 1300.07 3836.51 1301.15 3837.23 1301.86 L 3874.52 1339.11 C 3874.99 1339.58 3875.63 1339.85 3876.29 1339.85 L 3929.71 1339.87 C 3930.71 1339.87 3931.63 1339.26 3932.02 1338.32 C 3932.4 1337.39 3932.19 1336.31 3931.47 1335.6 L 3894.15 1298.3 C 3893.68 1297.84 3893.05 1297.57 3892.38 1297.57"/>
    <path id="path2214" style="fill:#cd7200;fill-opacity:1;fill-rule:nonzero;stroke:none" d="M 3855.63 1263.29 L 3802.23 1263.29 L 3839.5 1300.58 L 3892.92 1300.58 L 3855.63 1263.29"/>
    <path id="path2216" style="fill:#000000;fill-opacity:1;fill-rule:nonzero;stroke:none" d="M 3808.26 1265.79 L 3854.6 1265.79 L 3886.88 1298.08 L 3840.54 1298.08 L 3808.26 1265.79 Z M 3855.63 1260.79 L 3802.23 1260.79 C 3801.21 1260.79 3800.3 1261.4 3799.91 1262.34 C 3799.53 1263.27 3799.75 1264.35 3800.46 1265.06 L 3837.73 1302.35 C 3838.2 1302.82 3838.84 1303.08 3839.5 1303.08 L 3892.92 1303.08 C 3893.94 1303.08 3894.84 1302.47 3895.23 1301.54 C 3895.62 1300.6 3895.4 1299.52 3894.69 1298.81 L 3857.4 1261.53 C 3856.93 1261.06 3856.3 1260.79 3855.63 1260.79"/>
  </g>
</svg>