<?xml version="1.0" encoding="utf-8"?>
<svg viewBox="-0.03099999949336052 257.5920104980469 93.12100219726562 127.47599792480469" width="93.12100219726562" height="127.47599792480469" xmlns="http://www.w3.org/2000/svg">
  <g transform="matrix(0.12500000186264515, 0, 0, -0.12500000186264515, 0, 526.1375122070312)">
    <path id="path44" style="fill:#ddd8bf;fill-opacity:1;fill-rule:nonzero;stroke:none" d="M 598.402 1155.71 C 598.402 1140.71 487.094 1128.55 349.789 1128.55 C 212.484 1128.55 101.176 1140.71 101.176 1155.71 C 101.176 1170.69 212.484 1182.85 349.789 1182.85 C 487.094 1182.85 598.402 1170.69 598.402 1155.71"/>
    <path id="path2754" style="fill:#c9a88b;fill-opacity:1;fill-rule:nonzero;stroke:none" d="M 147.598 1250.89 C 147.598 1238.62 157.539 1228.67 169.809 1228.67 L 199.195 1228.67 C 211.449 1228.67 221.395 1238.62 221.395 1250.89 L 221.395 1280.24 C 221.395 1292.52 211.449 1302.47 199.195 1302.47 L 169.809 1302.47 C 157.539 1302.47 147.598 1292.52 147.598 1280.24 L 147.598 1250.89"/>
    <path id="path2756" style="fill:#000000;fill-opacity:1;fill-rule:nonzero;stroke:none" d="M 169.809 1299.97 C 158.941 1299.97 150.098 1291.12 150.098 1280.24 L 150.098 1250.89 C 150.098 1240.01 158.941 1231.17 169.809 1231.17 L 199.195 1231.17 C 210.059 1231.17 218.895 1240.01 218.895 1250.89 L 218.895 1280.24 C 218.895 1291.12 210.059 1299.97 199.195 1299.97 L 169.809 1299.97 Z M 199.195 1226.17 L 169.809 1226.17 C 156.184 1226.17 145.098 1237.26 145.098 1250.89 L 145.098 1280.24 C 145.098 1293.88 156.184 1304.97 169.809 1304.97 L 199.195 1304.97 C 212.816 1304.97 223.895 1293.88 223.895 1280.24 L 223.895 1250.89 C 223.895 1237.26 212.816 1226.17 199.195 1226.17"/>
    <path id="path2758" style="fill:#f4d9bd;fill-opacity:1;fill-rule:nonzero;stroke:none" d="M 147.598 1287.65 C 147.598 1279.48 154.23 1272.85 162.41 1272.85 L 175.336 1272.85 C 183.52 1272.85 190.152 1279.48 190.152 1287.65 L 190.152 1287.65 C 190.152 1295.82 183.52 1302.47 175.336 1302.47 L 162.41 1302.47 C 154.23 1302.47 147.598 1295.82 147.598 1287.65 L 147.598 1287.65"/>
    <path id="path2760" style="fill:#000000;fill-opacity:1;fill-rule:nonzero;stroke:none" d="M 162.41 1299.97 C 155.621 1299.97 150.098 1294.45 150.098 1287.65 C 150.098 1280.86 155.621 1275.35 162.41 1275.35 L 175.336 1275.35 C 182.129 1275.35 187.652 1280.86 187.652 1287.65 C 187.652 1294.45 182.129 1299.97 175.336 1299.97 L 162.41 1299.97 Z M 175.336 1270.35 L 162.41 1270.35 C 152.867 1270.35 145.098 1278.11 145.098 1287.65 C 145.098 1297.2 152.867 1304.97 162.41 1304.97 L 175.336 1304.97 C 184.883 1304.97 192.652 1297.2 192.652 1287.65 C 192.652 1278.11 184.883 1270.35 175.336 1270.35"/>
    <path id="path2762" style="fill:#884dd3;fill-opacity:1;fill-rule:nonzero;stroke:none" d="M 174.082 1404.88 C 143.977 1352.11 143.359 1304.83 144.004 1293.26 L 222.598 1281.06 C 222.973 1385 242.859 1439.49 246 1450.93 C 246 1450.93 200.164 1450.58 174.082 1404.88"/>
    <path id="path2764" style="fill:#000000;fill-opacity:1;fill-rule:nonzero;stroke:none" d="M 146.422 1295.41 L 220.113 1283.98 C 220.777 1376.59 236.938 1429.65 242.289 1447.21 C 242.387 1447.54 242.484 1447.86 242.578 1448.17 C 231.641 1446.98 197.195 1440.34 176.254 1403.64 C 146.918 1352.23 146.133 1306.43 146.422 1295.41 Z M 222.598 1278.56 C 222.473 1278.56 222.344 1278.57 222.211 1278.59 L 143.617 1290.78 C 142.457 1290.97 141.57 1291.94 141.508 1293.12 C 141.195 1298.68 139.414 1349.16 171.91 1406.12 C 198.402 1452.53 245.508 1453.43 245.98 1453.43 C 245.984 1453.43 245.996 1453.43 246 1453.43 C 246.777 1453.43 247.512 1453.07 247.984 1452.45 C 248.461 1451.83 248.617 1451.03 248.414 1450.27 C 248.109 1449.16 247.652 1447.66 247.07 1445.76 C 241.719 1428.19 225.434 1374.73 225.098 1281.05 C 225.094 1280.32 224.773 1279.63 224.219 1279.15 C 223.766 1278.76 223.188 1278.56 222.598 1278.56"/>
    <path id="path2766" style="fill:#c9a88b;fill-opacity:1;fill-rule:nonzero;stroke:none" d="M 623.984 1426.73 C 636.266 1426.73 646.215 1416.8 646.215 1404.54 L 646.215 1375.14 C 646.215 1362.9 636.266 1352.96 623.984 1352.96 L 594.641 1352.96 C 582.359 1352.96 572.41 1362.9 572.41 1375.14 L 572.41 1404.54 C 572.41 1416.8 582.359 1426.73 594.641 1426.73 L 623.984 1426.73"/>
    <path id="path2768" style="fill:#000000;fill-opacity:1;fill-rule:nonzero;stroke:none" d="M 594.641 1424.23 C 583.762 1424.23 574.91 1415.4 574.91 1404.54 L 574.91 1375.14 C 574.91 1364.29 583.762 1355.46 594.641 1355.46 L 623.984 1355.46 C 634.863 1355.46 643.715 1364.29 643.715 1375.14 L 643.715 1404.54 C 643.715 1415.4 634.863 1424.23 623.984 1424.23 L 594.641 1424.23 Z M 623.984 1350.46 L 594.641 1350.46 C 581.008 1350.46 569.91 1361.54 569.91 1375.14 L 569.91 1404.54 C 569.91 1418.16 581.008 1429.23 594.641 1429.23 L 623.984 1429.23 C 637.621 1429.23 648.715 1418.16 648.715 1404.54 L 648.715 1375.14 C 648.715 1361.54 637.621 1350.46 623.984 1350.46"/>
    <path id="path2770" style="fill:#b39471;fill-opacity:1;fill-rule:nonzero;stroke:none" d="M 612.328 1984.43 C 540.715 1984.43 482.441 1926.16 482.441 1854.54 C 482.441 1819.78 496.145 1787.61 521.039 1763.92 C 551.152 1735.32 596.664 1692.05 596.664 1639.47 L 596.664 1166.89 L 627.988 1166.89 L 627.988 1639.47 C 627.988 1705.5 576.617 1754.34 542.617 1786.64 C 524.016 1804.33 513.77 1828.43 513.77 1854.54 C 513.77 1908.89 557.98 1953.11 612.328 1953.11 C 666.68 1953.11 710.895 1908.89 710.895 1854.54 C 710.895 1845.89 717.91 1838.89 726.555 1838.89 C 735.211 1838.89 742.219 1845.89 742.219 1854.54 C 742.219 1926.16 683.953 1984.43 612.328 1984.43"/>
    <path id="path2772" style="fill:#000000;fill-opacity:1;fill-rule:nonzero;stroke:none" d="M 599.164 1169.39 L 625.488 1169.39 L 625.488 1639.47 C 625.488 1704.46 574.578 1752.83 540.895 1784.83 C 521.793 1802.99 511.27 1827.75 511.27 1854.54 C 511.27 1910.27 556.605 1955.61 612.328 1955.61 C 668.059 1955.61 713.395 1910.27 713.395 1854.54 C 713.395 1847.29 719.297 1841.39 726.555 1841.39 C 733.813 1841.39 739.719 1847.29 739.719 1854.54 C 739.719 1924.78 682.574 1981.93 612.328 1981.93 C 542.086 1981.93 484.941 1924.78 484.941 1854.54 C 484.941 1820.48 498.375 1788.94 522.766 1765.73 C 553.188 1736.83 599.164 1693.16 599.164 1639.47 L 599.164 1169.39 Z M 627.988 1164.39 L 596.664 1164.39 C 595.281 1164.39 594.164 1165.51 594.164 1166.89 L 594.164 1639.47 C 594.164 1691.01 549.121 1733.79 519.316 1762.1 C 493.926 1786.27 479.941 1819.1 479.941 1854.54 C 479.941 1927.54 539.332 1986.93 612.328 1986.93 C 685.328 1986.93 744.719 1927.54 744.719 1854.54 C 744.719 1844.53 736.566 1836.39 726.555 1836.39 C 716.539 1836.39 708.395 1844.53 708.395 1854.54 C 708.395 1907.51 665.297 1950.61 612.328 1950.61 C 559.359 1950.61 516.27 1907.51 516.27 1854.54 C 516.27 1829.13 526.238 1805.67 544.34 1788.46 C 578.645 1755.86 630.488 1706.6 630.488 1639.47 L 630.488 1166.89 C 630.488 1165.51 629.371 1164.39 627.988 1164.39"/>
    <path id="path2774" style="fill:#f4d9bd;fill-opacity:1;fill-rule:nonzero;stroke:none" d="M 587.234 1426.73 C 595.41 1426.73 602.035 1420.12 602.035 1411.94 L 602.035 1399 C 602.035 1390.83 595.41 1384.2 587.234 1384.2 L 587.234 1384.2 C 579.059 1384.2 572.41 1390.83 572.41 1399 L 572.41 1411.94 C 572.41 1420.12 579.059 1426.73 587.234 1426.73 L 587.234 1426.73"/>
    <path id="path2776" style="fill:#000000;fill-opacity:1;fill-rule:nonzero;stroke:none" d="M 587.234 1424.23 C 580.438 1424.23 574.91 1418.71 574.91 1411.94 L 574.91 1399 C 574.91 1392.22 580.438 1386.7 587.234 1386.7 C 594.02 1386.7 599.535 1392.22 599.535 1399 L 599.535 1411.94 C 599.535 1418.71 594.02 1424.23 587.234 1424.23 Z M 587.234 1381.7 C 577.688 1381.7 569.91 1389.46 569.91 1399 L 569.91 1411.94 C 569.91 1421.48 577.688 1429.23 587.234 1429.23 C 596.777 1429.23 604.535 1421.48 604.535 1411.94 L 604.535 1399 C 604.535 1389.46 596.777 1381.7 587.234 1381.7"/>
    <path id="path2778" style="fill:#884dd3;fill-opacity:1;fill-rule:nonzero;stroke:none" d="M 470.035 1379.02 C 522.805 1348.91 570.098 1348.29 581.656 1348.93 L 593.852 1427.53 C 489.906 1427.92 435.43 1447.8 423.988 1450.93 C 423.988 1450.93 424.34 1405.09 470.035 1379.02"/>
    <path id="path2780" style="fill:#000000;fill-opacity:1;fill-rule:nonzero;stroke:none" d="M 426.746 1447.51 C 427.938 1436.58 434.586 1402.12 471.273 1381.18 C 518.551 1354.21 560.586 1351.3 576.465 1351.3 C 577.594 1351.3 578.609 1351.32 579.504 1351.34 L 590.938 1425.05 C 498.336 1425.73 445.27 1441.88 427.715 1447.22 C 427.379 1447.32 427.055 1447.42 426.746 1447.51 Z M 576.465 1346.3 C 560.191 1346.3 517.109 1349.28 468.793 1376.85 C 422.387 1403.32 421.492 1450.44 421.488 1450.91 C 421.484 1451.69 421.848 1452.43 422.465 1452.91 C 423.082 1453.39 423.895 1453.55 424.648 1453.34 C 425.758 1453.04 427.262 1452.58 429.172 1452.01 C 446.734 1446.65 500.195 1430.38 593.863 1430.03 C 594.59 1430.03 595.281 1429.71 595.754 1429.15 C 596.227 1428.6 596.438 1427.86 596.324 1427.15 L 584.125 1348.55 C 583.945 1347.38 582.973 1346.5 581.793 1346.43 C 580.465 1346.36 578.672 1346.3 576.465 1346.3"/>
    <path id="path2782" style="fill:#b664eb;fill-opacity:1;fill-rule:nonzero;stroke:none" d="M 468.09 1166.89 C 468.199 1184.43 449.926 1432.62 445.707 1448.17 L 342.504 1478.17 L 239.301 1448.17 C 234.996 1432.48 204.219 1182.74 204.285 1166.89 L 468.09 1166.89"/>
    <path id="path2784" style="fill:#000000;fill-opacity:1;fill-rule:nonzero;stroke:none" d="M 206.887 1169.39 L 465.551 1169.39 C 464.645 1201.6 447.949 1422.72 443.586 1446.18 L 342.504 1475.56 L 241.402 1446.18 C 236.52 1422.74 208.73 1199.67 206.887 1169.39 Z M 468.09 1164.39 L 204.285 1164.39 C 202.91 1164.39 201.793 1165.5 201.785 1166.88 C 201.715 1183.89 232.883 1434.22 236.891 1448.83 C 237.117 1449.67 237.77 1450.33 238.605 1450.57 L 341.809 1480.57 C 342.266 1480.71 342.742 1480.71 343.203 1480.57 L 446.406 1450.57 C 447.242 1450.33 447.891 1449.66 448.121 1448.82 C 452.789 1431.61 470.676 1180.33 470.59 1166.87 C 470.582 1165.5 469.469 1164.39 468.09 1164.39"/>
    <path id="path2786" style="fill:#884dd3;fill-opacity:1;fill-rule:nonzero;stroke:none" d="M 452.105 1395.55 C 447.043 1397.71 441.5 1398.89 435.66 1398.89 L 315.875 1398.89 C 292.605 1398.89 273.762 1380.02 273.762 1356.78 C 273.762 1333.53 292.605 1314.67 315.875 1314.67 L 435.66 1314.67 C 443.863 1314.67 451.465 1317.11 457.938 1321.18 C 455.969 1347.51 453.945 1373.41 452.105 1395.55"/>
    <path id="path2788" style="fill:#b664eb;fill-opacity:1;fill-rule:nonzero;stroke:none" d="M 477.773 1377.67 C 477.773 1354.42 458.922 1335.55 435.66 1335.55 L 315.875 1335.55 C 292.605 1335.55 273.762 1354.42 273.762 1377.67 L 273.762 1377.67 C 273.762 1400.92 292.605 1419.78 315.875 1419.78 L 435.66 1419.78 C 458.922 1419.78 477.773 1400.92 477.773 1377.67 L 477.773 1377.67"/>
    <path id="path2790" style="fill:#000000;fill-opacity:1;fill-rule:nonzero;stroke:none" d="M 206.887 1169.39 L 465.543 1169.39 C 464.957 1187.04 459.188 1269.13 453.473 1340.78 C 453.395 1341.76 453.891 1342.69 454.746 1343.17 C 467.406 1350.2 475.273 1363.42 475.273 1377.67 C 475.273 1394.41 464.551 1409.38 448.59 1414.93 C 447.668 1415.25 447.016 1416.08 446.918 1417.04 C 445.16 1435.36 444.148 1443.09 443.586 1446.18 L 342.504 1475.56 L 241.402 1446.18 C 236.52 1422.74 208.73 1199.67 206.887 1169.39 Z M 468.09 1164.39 L 204.285 1164.39 C 202.91 1164.39 201.793 1165.5 201.785 1166.88 C 201.715 1183.89 232.883 1434.22 236.891 1448.83 C 237.117 1449.67 237.77 1450.33 238.605 1450.57 L 341.809 1480.57 C 342.266 1480.71 342.742 1480.71 343.203 1480.57 L 446.406 1450.57 C 447.242 1450.33 447.891 1449.66 448.121 1448.82 C 448.895 1445.96 450.082 1436.23 451.746 1419.1 C 468.879 1412.44 480.273 1396 480.273 1377.67 C 480.273 1362.13 472.004 1347.7 458.578 1339.6 C 464.613 1263.88 470.652 1177.04 470.59 1166.87 C 470.582 1165.5 469.469 1164.39 468.09 1164.39"/>
    <path id="path2792" style="fill:#ffb103;fill-opacity:1;fill-rule:nonzero;stroke:none" d="M 208.34 1236.38 L 468.09 1236.38 L 468.09 1273.13 L 208.34 1273.13 L 208.34 1236.38 Z"/>
    <path id="path2794" style="fill:#000000;fill-opacity:1;fill-rule:nonzero;stroke:none" d="M 210.84 1238.88 L 465.59 1238.88 L 465.59 1270.63 L 210.84 1270.63 L 210.84 1238.88 Z M 468.09 1233.88 L 208.34 1233.88 C 206.957 1233.88 205.84 1235 205.84 1236.38 L 205.84 1273.13 C 205.84 1274.51 206.957 1275.63 208.34 1275.63 L 468.09 1275.63 C 469.473 1275.63 470.59 1274.51 470.59 1273.13 L 470.59 1236.38 C 470.59 1235 469.473 1233.88 468.09 1233.88"/>
    <path id="path2796" style="fill:#2b373d;fill-opacity:1;fill-rule:nonzero;stroke:none" d="M 190.754 1178.31 L 329.82 1178.31 L 329.82 1294.591 L 190.754 1294.591 L 190.754 1178.31 Z"/>
    <path id="path2798" style="fill:#000000;fill-opacity:1;fill-rule:nonzero;stroke:none" d="M 193.254 1180.81 L 327.32 1180.81 L 327.32 1292.09 L 193.254 1292.09 L 193.254 1180.81 Z M 329.82 1175.81 L 190.754 1175.81 C 189.371 1175.81 188.254 1176.94 188.254 1178.31 L 188.254 1294.59 C 188.254 1295.97 189.371 1297.09 190.754 1297.09 L 329.82 1297.09 C 331.199 1297.09 332.32 1295.97 332.32 1294.59 L 332.32 1178.31 C 332.32 1176.94 331.199 1175.81 329.82 1175.81"/>
    <path id="path2800" style="fill:#425059;fill-opacity:1;fill-rule:nonzero;stroke:none" d="M 190.754 1178.31 L 273.773 1178.31 L 273.773 1294.591 L 190.754 1294.591 L 190.754 1178.31 Z"/>
    <path id="path2802" style="fill:#000000;fill-opacity:1;fill-rule:nonzero;stroke:none" d="M 193.254 1180.81 L 271.273 1180.81 L 271.273 1292.09 L 193.254 1292.09 L 193.254 1180.81 Z M 273.773 1175.81 L 190.754 1175.81 C 189.371 1175.81 188.254 1176.94 188.254 1178.31 L 188.254 1294.59 C 188.254 1295.97 189.371 1297.09 190.754 1297.09 L 273.773 1297.09 C 275.156 1297.09 276.273 1295.97 276.273 1294.59 L 276.273 1178.31 C 276.273 1176.94 275.156 1175.81 273.773 1175.81"/>
    <path id="path2804" style="fill:#8192a4;fill-opacity:1;fill-rule:nonzero;stroke:none" d="M 258.734 1178.31 L 273.773 1178.31 L 273.773 1294.591 L 258.734 1294.591 L 258.734 1178.31 Z"/>
    <path id="path2806" style="fill:#000000;fill-opacity:1;fill-rule:nonzero;stroke:none" d="M 261.234 1180.81 L 271.273 1180.81 L 271.273 1292.09 L 261.234 1292.09 L 261.234 1180.81 Z M 273.773 1175.81 L 258.734 1175.81 C 257.355 1175.81 256.234 1176.94 256.234 1178.31 L 256.234 1294.59 C 256.234 1295.97 257.355 1297.09 258.734 1297.09 L 273.773 1297.09 C 275.156 1297.09 276.273 1295.97 276.273 1294.59 L 276.273 1178.31 C 276.273 1176.94 275.156 1175.81 273.773 1175.81"/>
    <path id="path2808" style="fill:#8192a4;fill-opacity:1;fill-rule:nonzero;stroke:none" d="M 314.789 1178.31 L 329.82 1178.31 L 329.82 1294.591 L 314.789 1294.591 L 314.789 1178.31 Z"/>
    <path id="path2810" style="fill:#000000;fill-opacity:1;fill-rule:nonzero;stroke:none" d="M 317.289 1180.81 L 327.32 1180.81 L 327.32 1292.09 L 317.289 1292.09 L 317.289 1180.81 Z M 329.82 1175.81 L 314.789 1175.81 C 313.406 1175.81 312.289 1176.94 312.289 1178.31 L 312.289 1294.59 C 312.289 1295.97 313.406 1297.09 314.789 1297.09 L 329.82 1297.09 C 331.199 1297.09 332.32 1295.97 332.32 1294.59 L 332.32 1178.31 C 332.32 1176.94 331.199 1175.81 329.82 1175.81"/>
    <path id="path2812" style="fill:#425059;fill-opacity:1;fill-rule:nonzero;stroke:none" d="M 190.762 1302.12 C 190.762 1306.28 197.727 1309.65 232.074 1309.65 L 294.277 1309.65 L 329.82 1294.59 L 190.762 1294.59 C 190.762 1294.59 190.762 1297.96 190.762 1302.12"/>
    <path id="path2814" style="fill:#000000;fill-opacity:1;fill-rule:nonzero;stroke:none" d="M 193.262 1297.09 L 317.512 1297.09 L 293.77 1307.15 L 232.074 1307.15 C 195.133 1307.15 193.262 1302.96 193.262 1302.12 L 193.262 1297.09 Z M 329.945 1292.09 C 329.898 1292.09 329.859 1292.09 329.82 1292.09 L 190.762 1292.09 C 189.379 1292.09 188.262 1293.22 188.262 1294.59 L 188.262 1302.12 C 188.262 1308.47 195.43 1312.15 232.074 1312.15 L 294.277 1312.15 C 294.613 1312.15 294.945 1312.08 295.254 1311.96 L 330.445 1297.04 C 331.586 1296.81 332.445 1295.8 332.445 1294.59 C 332.445 1293.22 331.324 1292.09 329.945 1292.09"/>
    <path id="path2816" style="fill:#8192a4;fill-opacity:1;fill-rule:nonzero;stroke:none" d="M 258.727 1302.12 C 258.727 1306.28 274.645 1309.65 294.277 1309.65 C 313.906 1309.65 329.82 1306.28 329.82 1302.12 L 329.82 1294.59 L 258.727 1294.59 C 258.727 1294.59 258.727 1297.96 258.727 1302.12"/>
    <path id="path2818" style="fill:#000000;fill-opacity:1;fill-rule:nonzero;stroke:none" d="M 261.199 1297.09 L 327.32 1297.09 L 327.32 1302.12 C 326.289 1303.61 315.113 1307.15 294.277 1307.15 C 273.434 1307.15 262.258 1303.61 261.156 1301.8 L 261.199 1297.09 Z M 329.82 1292.09 L 258.727 1292.09 C 257.344 1292.09 256.227 1293.22 256.227 1294.59 L 256.227 1302.12 C 256.227 1311.87 290.383 1312.15 294.277 1312.15 C 298.168 1312.15 332.32 1311.87 332.32 1302.12 L 332.32 1294.59 C 332.32 1293.22 331.199 1292.09 329.82 1292.09"/>
    <path id="path2820" style="fill:#eae8d8;fill-opacity:1;fill-rule:nonzero;stroke:none" d="M 273.773 1185.18 L 314.789 1185.18 L 314.789 1287.731 L 273.773 1287.731 L 273.773 1185.18 Z"/>
    <path id="path2822" style="fill:#000000;fill-opacity:1;fill-rule:nonzero;stroke:none" d="M 276.273 1187.68 L 312.289 1187.68 L 312.289 1285.23 L 276.273 1285.23 L 276.273 1187.68 Z M 314.789 1182.68 L 273.773 1182.68 C 272.395 1182.68 271.273 1183.8 271.273 1185.18 L 271.273 1287.73 C 271.273 1289.1 272.395 1290.23 273.773 1290.23 L 314.789 1290.23 C 316.172 1290.23 317.289 1289.1 317.289 1287.73 L 317.289 1185.18 C 317.289 1183.8 316.172 1182.68 314.789 1182.68"/>
    <path id="path2824" style="fill:#ffde73;fill-opacity:1;fill-rule:nonzero;stroke:none" d="M 248.59 1240.5 L 233.809 1227.89 L 231.445 1199.56 L 219.934 1220.04 L 203.699 1215.21 L 211.367 1240.5 L 203.699 1265.86 L 219.934 1261.04 L 231.445 1281.52 L 233.809 1253.2 L 248.59 1240.5"/>
    <path id="path2826" style="fill:#000000;fill-opacity:1;fill-rule:nonzero;stroke:none" d="M 219.934 1222.54 C 220.816 1222.54 221.66 1222.07 222.109 1221.26 L 229.629 1207.89 L 231.316 1228.1 C 231.371 1228.76 231.684 1229.37 232.188 1229.8 L 244.746 1240.51 L 232.18 1251.3 C 231.68 1251.73 231.371 1252.34 231.316 1252.99 L 229.633 1273.19 L 222.109 1259.82 C 221.543 1258.79 220.336 1258.27 219.219 1258.65 L 207.438 1262.14 L 213.762 1241.22 C 213.902 1240.76 213.902 1240.25 213.762 1239.78 L 207.441 1218.93 L 219.219 1222.43 C 219.453 1222.51 219.691 1222.54 219.934 1222.54 Z M 231.445 1197.06 C 230.559 1197.06 229.719 1197.54 229.27 1198.34 L 218.73 1217.07 L 204.414 1212.82 C 203.539 1212.52 202.578 1212.79 201.93 1213.44 C 201.277 1214.1 201.039 1215.05 201.309 1215.93 L 208.754 1240.5 L 201.309 1265.14 C 201.039 1266.02 201.277 1266.98 201.93 1267.63 C 202.59 1268.28 203.551 1268.53 204.414 1268.26 L 218.73 1264.01 L 229.27 1282.74 C 229.805 1283.69 230.914 1284.22 231.977 1283.96 C 233.051 1283.72 233.848 1282.82 233.938 1281.72 L 236.215 1254.43 L 250.219 1242.4 C 250.77 1241.92 251.09 1241.22 251.09 1240.5 C 251.09 1239.77 250.766 1239.08 250.211 1238.6 L 236.215 1226.66 L 233.938 1199.36 C 233.848 1198.27 233.051 1197.36 231.977 1197.12 C 231.801 1197.08 231.621 1197.06 231.445 1197.06"/>
    <path id="path2828" style="fill:#00abd3;fill-opacity:1;fill-rule:nonzero;stroke:none" d="M 416.684 1254.73 C 416.684 1236.76 402.117 1222.22 384.148 1222.22 C 366.191 1222.22 351.637 1236.76 351.637 1254.73 C 351.637 1272.7 366.191 1287.26 384.148 1287.26 C 402.117 1287.26 416.684 1272.7 416.684 1254.73"/>
    <path id="path2830" style="fill:#000000;fill-opacity:1;fill-rule:nonzero;stroke:none" d="M 384.148 1284.76 C 367.602 1284.76 354.137 1271.29 354.137 1254.73 C 354.137 1238.19 367.602 1224.72 384.148 1224.72 C 400.715 1224.72 414.184 1238.19 414.184 1254.73 C 414.184 1271.29 400.715 1284.76 384.148 1284.76 Z M 384.148 1219.72 C 364.844 1219.72 349.137 1235.42 349.137 1254.73 C 349.137 1274.05 364.844 1289.76 384.148 1289.76 C 403.469 1289.76 419.184 1274.05 419.184 1254.73 C 419.184 1235.42 403.469 1219.72 384.148 1219.72"/>
    <path id="path2832" style="fill:#5ae8ff;fill-opacity:1;fill-rule:nonzero;stroke:none" d="M 399.824 1254.73 C 399.824 1246.09 392.813 1239.09 384.148 1239.09 C 375.508 1239.09 368.484 1246.09 368.484 1254.73 C 368.484 1263.4 375.508 1270.41 384.148 1270.41 C 392.813 1270.41 399.824 1263.4 399.824 1254.73"/>
    <path id="path2834" style="fill:#000000;fill-opacity:1;fill-rule:nonzero;stroke:none" d="M 384.148 1267.91 C 376.891 1267.91 370.984 1262 370.984 1254.73 C 370.984 1247.48 376.891 1241.59 384.148 1241.59 C 391.418 1241.59 397.324 1247.48 397.324 1254.73 C 397.324 1262 391.418 1267.91 384.148 1267.91 Z M 384.148 1236.59 C 374.137 1236.59 365.984 1244.72 365.984 1254.73 C 365.984 1264.76 374.137 1272.91 384.148 1272.91 C 394.172 1272.91 402.324 1264.76 402.324 1254.73 C 402.324 1244.72 394.172 1236.59 384.148 1236.59"/>
    <path id="path2836" style="fill:#f4d9bd;fill-opacity:1;fill-rule:nonzero;stroke:none" d="M 519.996 1600.07 C 519.996 1512.14 448.723 1440.85 360.777 1440.85 L 316.918 1440.85 C 228.977 1440.85 157.688 1512.14 157.688 1600.07 L 157.688 1600.07 C 157.688 1688.01 228.977 1759.3 316.918 1759.3 L 360.777 1759.3 C 448.723 1759.3 519.996 1688.01 519.996 1600.07 L 519.996 1600.07"/>
    <path id="path2838" style="fill:#000000;fill-opacity:1;fill-rule:nonzero;stroke:none" d="M 316.918 1756.8 C 230.496 1756.8 160.188 1686.49 160.188 1600.07 C 160.188 1513.66 230.496 1443.35 316.918 1443.35 L 360.777 1443.35 C 447.191 1443.35 517.496 1513.66 517.496 1600.07 C 517.496 1686.49 447.191 1756.8 360.777 1756.8 L 316.918 1756.8 Z M 360.777 1438.35 L 316.918 1438.35 C 227.738 1438.35 155.188 1510.9 155.188 1600.07 C 155.188 1689.25 227.738 1761.8 316.918 1761.8 L 360.777 1761.8 C 449.945 1761.8 522.496 1689.25 522.496 1600.07 C 522.496 1510.9 449.945 1438.35 360.777 1438.35"/>
    <path id="path2840" style="fill:#ffac83;fill-opacity:1;fill-rule:nonzero;stroke:none" d="M 332.691 1511.44 C 332.691 1495.71 318.129 1482.95 300.16 1482.95 C 282.211 1482.95 267.633 1495.71 267.633 1511.44 C 267.633 1527.16 282.211 1539.93 300.16 1539.93 C 318.129 1539.93 332.691 1527.16 332.691 1511.44"/>
    <path id="path2842" style="fill:#ffac83;fill-opacity:1;fill-rule:nonzero;stroke:none" d="M 501.16 1524.97 C 495.648 1533.83 485.043 1539.93 472.703 1539.93 C 454.758 1539.93 440.176 1527.16 440.176 1511.44 C 440.176 1496.89 452.691 1485.02 468.762 1483.3 C 481.711 1495.29 492.754 1509.29 501.16 1524.97"/>
    <path id="path2844" style="fill:#000000;fill-opacity:1;fill-rule:nonzero;stroke:none" d="M 316.918 1756.8 C 230.496 1756.8 160.188 1686.49 160.188 1600.07 C 160.188 1513.66 230.496 1443.35 316.918 1443.35 L 360.777 1443.35 C 447.191 1443.35 517.496 1513.66 517.496 1600.07 C 517.496 1686.49 447.191 1756.8 360.777 1756.8 L 316.918 1756.8 Z M 360.777 1438.35 L 316.918 1438.35 C 227.738 1438.35 155.188 1510.9 155.188 1600.07 C 155.188 1689.25 227.738 1761.8 316.918 1761.8 L 360.777 1761.8 C 449.945 1761.8 522.496 1689.25 522.496 1600.07 C 522.496 1510.9 449.945 1438.35 360.777 1438.35"/>
    <path id="path2846" style="fill:#c9a88b;fill-opacity:1;fill-rule:nonzero;stroke:none" d="M 529.996 1600.07 C 529.996 1641.06 514.379 1678.3 488.941 1706.53 L 421.762 1743.56 L 192.875 1703.23 L 164.238 1670.44 C 153.738 1649.2 147.688 1625.36 147.688 1600.07 C 147.688 1572.45 154.73 1546.5 167.102 1523.86 L 529.371 1587.72 C 529.688 1591.81 529.996 1595.9 529.996 1600.07"/>
    <path id="path2848" style="fill:#eb4900;fill-opacity:1;fill-rule:nonzero;stroke:none" d="M 370.738 1474.17 C 385.094 1474.17 396.684 1485.79 396.684 1500.12 L 344.961 1500.12 C 344.961 1485.79 356.5 1474.17 370.738 1474.17"/>
    <path id="path2850" style="fill:#000000;fill-opacity:1;fill-rule:nonzero;stroke:none" d="M 347.594 1497.62 C 348.832 1485.86 358.738 1476.67 370.738 1476.67 C 382.82 1476.67 392.805 1485.86 394.055 1497.62 L 347.594 1497.62 Z M 370.738 1471.67 C 355.145 1471.67 342.461 1484.44 342.461 1500.12 C 342.461 1501.5 343.578 1502.62 344.961 1502.62 L 396.684 1502.62 C 398.066 1502.62 399.184 1501.5 399.184 1500.12 C 399.184 1484.44 386.422 1471.67 370.738 1471.67"/>
    <path id="path2852" style="fill:#f2f1e7;fill-opacity:1;fill-rule:nonzero;stroke:none" d="M 549.973 1585.69 C 551.109 1593.36 549.973 1631.83 549.973 1631.83 C 549.973 1719.78 473.434 1791.07 378.977 1791.07 L 305.953 1791.07 C 211.508 1791.07 134.945 1719.78 134.945 1631.83 L 134.945 1415.13 L 153.773 1394.25 L 160.527 1541.7 L 166.676 1394.25 L 246.152 1331.61 L 246.152 1583.44 C 316.953 1592.39 349.211 1613.13 394.859 1641.75 C 443.52 1613.17 475.852 1592.88 549.973 1585.69"/>
    <path id="path2854" style="fill:#000000;fill-opacity:1;fill-rule:nonzero;stroke:none" d="M 169.125 1395.5 L 243.652 1336.77 L 243.652 1583.44 C 243.652 1584.7 244.59 1585.77 245.84 1585.92 C 315.082 1594.67 347.172 1614.8 391.586 1642.65 L 393.531 1643.87 C 394.32 1644.36 395.32 1644.37 396.121 1643.91 L 400.973 1641.06 C 445.813 1614.68 478.359 1595.53 547.727 1588.42 C 548.418 1599.35 547.48 1631.4 547.473 1631.75 C 547.473 1718.26 471.887 1788.57 378.977 1788.57 L 305.953 1788.57 C 213.035 1788.57 137.445 1718.26 137.445 1631.83 L 137.445 1416.09 L 151.559 1400.44 L 158.031 1541.82 C 158.09 1543.15 159.188 1544.2 160.527 1544.2 L 160.531 1544.2 C 161.871 1544.2 162.969 1543.15 163.027 1541.81 L 169.125 1395.5 Z M 246.152 1329.11 C 245.602 1329.11 245.055 1329.3 244.605 1329.65 L 165.129 1392.29 C 164.555 1392.74 164.211 1393.42 164.176 1394.14 L 160.41 1484.5 L 156.27 1394.13 C 156.227 1393.13 155.57 1392.24 154.617 1391.9 C 153.66 1391.55 152.605 1391.82 151.918 1392.58 L 133.09 1413.46 C 132.676 1413.92 132.445 1414.52 132.445 1415.13 L 132.445 1631.83 C 132.445 1721.01 210.277 1793.57 305.953 1793.57 L 378.977 1793.57 C 474.641 1793.57 552.473 1721.01 552.473 1631.83 C 552.516 1630.33 553.598 1593.13 552.441 1585.32 C 552.246 1584 550.934 1583.04 549.73 1583.2 C 477.543 1590.21 444.359 1609.73 398.438 1636.75 L 394.902 1638.83 L 394.242 1638.41 C 349.758 1610.51 317.48 1590.28 248.652 1581.24 L 248.652 1331.61 C 248.652 1330.66 248.105 1329.78 247.242 1329.37 C 246.895 1329.19 246.523 1329.11 246.152 1329.11"/>
    <path id="path2856" style="fill:#b664eb;fill-opacity:1;fill-rule:nonzero;stroke:none" d="M 662.043 1691.11 L 12.394 1576.59 L 192.875 1783.23 L 421.762 1823.56 L 662.043 1691.11"/>
    <path id="path2858" style="fill:#000000;fill-opacity:1;fill-rule:nonzero;stroke:none" d="M 194.18 1780.92 L 18.934 1580.28 L 654.629 1692.34 L 421.328 1820.94 L 194.18 1780.92 Z M 12.394 1574.09 C 11.5 1574.09 10.664 1574.56 10.215 1575.35 C 9.691 1576.28 9.813 1577.43 10.508 1578.23 L 190.992 1784.87 C 191.367 1785.3 191.879 1785.59 192.441 1785.69 L 421.328 1826.02 C 421.898 1826.14 422.473 1826.02 422.969 1825.75 L 663.246 1693.29 C 664.176 1692.79 664.684 1691.74 664.508 1690.7 C 664.332 1689.65 663.52 1688.83 662.477 1688.65 L 12.828 1574.12 C 12.68 1574.1 12.535 1574.09 12.394 1574.09"/>
    <path id="path2860" style="fill:#b664eb;fill-opacity:1;fill-rule:nonzero;stroke:none" d="M 249.602 2145.76 L 161.977 2083.67 L 2.5 2102.18 L 140.766 2021.18 L 222.98 2035.68 L 196.438 1778.14 L 425.316 1818.49 L 249.602 2145.76"/>
    <path id="path2862" style="fill:#000000;fill-opacity:1;fill-rule:nonzero;stroke:none" d="M 222.98 2038.18 C 223.605 2038.18 224.215 2037.94 224.684 2037.5 C 225.254 2036.98 225.547 2036.2 225.465 2035.42 L 199.262 1781.18 L 421.48 1820.35 L 248.734 2142.08 L 163.422 2081.62 C 162.914 2081.26 162.285 2081.13 161.688 2081.18 L 14.027 2098.32 L 141.234 2023.8 L 222.543 2038.14 C 222.691 2038.17 222.832 2038.18 222.98 2038.18 Z M 196.438 1775.64 C 195.813 1775.64 195.199 1775.87 194.73 1776.31 C 194.16 1776.84 193.867 1777.61 193.949 1778.39 L 220.152 2032.64 L 141.199 2018.72 C 140.605 2018.61 140.02 2018.73 139.504 2019.03 L 1.234 2100.02 C 0.215 2100.62 -0.246 2101.85 0.125 2102.97 C 0.504 2104.1 1.559 2104.78 2.789 2104.66 L 161.313 2086.26 L 248.152 2147.8 C 248.738 2148.21 249.469 2148.36 250.172 2148.19 C 250.867 2148.03 251.465 2147.57 251.801 2146.94 L 427.52 1819.67 C 427.898 1818.97 427.914 1818.12 427.566 1817.4 C 427.219 1816.67 426.543 1816.17 425.754 1816.03 L 196.871 1775.68 C 196.723 1775.65 196.582 1775.64 196.438 1775.64"/>
    <path id="path2864" style="fill:#ffde73;fill-opacity:1;fill-rule:nonzero;stroke:none" d="M 443.75 1811.36 L 175.465 1764.05 L 165.293 1821.72 L 433.578 1869.05 L 443.75 1811.36"/>
    <path id="path2866" style="fill:#000000;fill-opacity:1;fill-rule:nonzero;stroke:none" d="M 168.188 1819.69 L 177.488 1766.95 L 440.855 1813.39 L 431.555 1866.15 L 168.188 1819.69 Z M 175.465 1761.55 C 174.957 1761.55 174.453 1761.7 174.027 1762 C 173.484 1762.38 173.113 1762.96 173.004 1763.62 L 162.832 1821.29 C 162.594 1822.65 163.5 1823.95 164.859 1824.18 L 433.145 1871.51 C 433.801 1871.64 434.465 1871.48 435.016 1871.1 C 435.559 1870.72 435.93 1870.13 436.039 1869.48 L 446.211 1811.79 C 446.449 1810.43 445.543 1809.13 444.184 1808.9 L 175.898 1761.59 C 175.754 1761.56 175.609 1761.55 175.465 1761.55"/>
    <path id="path2868" style="fill:#ffde73;fill-opacity:1;fill-rule:nonzero;stroke:none" d="M 179.797 1511.42 C 179.797 1502.78 172.781 1495.77 164.121 1495.77 C 155.473 1495.77 148.461 1502.78 148.461 1511.42 C 148.461 1520.09 155.473 1527.09 164.121 1527.09 L 164.137 1527.09 L 164.137 1542.87 L 164.121 1542.87 C 146.773 1542.87 132.688 1528.8 132.688 1511.42 C 132.688 1494.07 146.773 1480.01 164.121 1480.01 C 181.5 1480.01 195.57 1494.07 195.57 1511.42 L 179.797 1511.42"/>
    <path id="path2870" style="fill:#000000;fill-opacity:1;fill-rule:nonzero;stroke:none" d="M 161.637 1540.27 C 146.832 1539 135.188 1526.55 135.188 1511.42 C 135.188 1495.48 148.164 1482.51 164.121 1482.51 C 179.238 1482.51 191.688 1494.14 192.965 1508.92 L 182.125 1508.92 C 180.898 1500.09 173.289 1493.27 164.121 1493.27 C 154.105 1493.27 145.961 1501.41 145.961 1511.42 C 145.961 1520.6 152.793 1528.21 161.637 1529.43 L 161.637 1540.27 Z M 164.121 1477.51 C 145.41 1477.51 130.188 1492.73 130.188 1511.42 C 130.188 1530.14 145.41 1545.37 164.121 1545.37 C 165.504 1545.37 166.637 1544.25 166.637 1542.87 L 166.637 1527.09 C 166.637 1525.72 165.52 1524.59 164.137 1524.59 C 156.863 1524.59 150.961 1518.68 150.961 1511.42 C 150.961 1504.16 156.863 1498.27 164.121 1498.27 C 171.387 1498.27 177.297 1504.16 177.297 1511.42 C 177.297 1512.8 178.414 1513.92 179.797 1513.92 L 195.57 1513.92 C 196.953 1513.92 198.07 1512.8 198.07 1511.42 C 198.07 1492.73 182.844 1477.51 164.121 1477.51"/>
    <path id="path2872" style="fill:#f4d9bd;fill-opacity:1;fill-rule:nonzero;stroke:none" d="M 163.059 1534.09 C 163.059 1516.11 177.617 1501.57 195.57 1501.57 L 195.57 1566.6 C 177.617 1566.6 163.059 1552.04 163.059 1534.09"/>
    <path id="path2874" style="fill:#000000;fill-opacity:1;fill-rule:nonzero;stroke:none" d="M 193.07 1564 C 177.688 1562.73 165.559 1549.8 165.559 1534.09 C 165.559 1518.37 177.688 1505.44 193.07 1504.17 L 193.07 1564 Z M 195.57 1499.07 C 176.266 1499.07 160.559 1514.78 160.559 1534.09 C 160.559 1553.39 176.266 1569.1 195.57 1569.1 C 196.953 1569.1 198.07 1567.98 198.07 1566.6 L 198.07 1501.57 C 198.07 1500.19 196.953 1499.07 195.57 1499.07"/>
    <path id="path2876" style="fill:#2a5b6a;fill-opacity:1;fill-rule:nonzero;stroke:none" d="M 299.602 1586.59 C 289.988 1586.59 281.73 1581.32 277.234 1573.6 L 254.859 1573.6 C 251.27 1573.6 248.363 1570.68 248.363 1567.11 C 248.363 1563.52 251.27 1560.6 254.859 1560.6 L 325.371 1560.62 C 325.371 1574.95 313.828 1586.59 299.602 1586.59"/>
    <path id="path2878" style="fill:#000000;fill-opacity:1;fill-rule:nonzero;stroke:none" d="M 254.859 1571.1 C 252.656 1571.1 250.863 1569.31 250.863 1567.11 C 250.863 1564.9 252.656 1563.1 254.859 1563.1 L 322.738 1563.12 C 321.5 1574.89 311.598 1584.09 299.602 1584.09 C 291.227 1584.09 283.676 1579.69 279.398 1572.34 C 278.949 1571.57 278.125 1571.1 277.234 1571.1 L 254.859 1571.1 Z M 254.859 1558.1 L 254.859 1558.1 C 249.898 1558.1 245.863 1562.14 245.863 1567.11 C 245.863 1572.06 249.898 1576.1 254.859 1576.1 L 275.84 1576.1 C 281.129 1584.26 289.906 1589.09 299.602 1589.09 C 315.191 1589.09 327.871 1576.31 327.871 1560.62 C 327.871 1559.24 326.754 1558.12 325.371 1558.12 L 254.859 1558.1"/>
    <path id="path2880" style="fill:#2a5b6a;fill-opacity:1;fill-rule:nonzero;stroke:none" d="M 524.516 1573.6 L 500.586 1573.6 C 496.109 1581.32 487.871 1586.59 478.34 1586.59 C 463.992 1586.59 452.441 1574.95 452.441 1560.62 L 524.516 1560.6 C 528.098 1560.6 531 1563.52 531 1567.11 C 531 1570.68 528.098 1573.6 524.516 1573.6"/>
    <path id="path2882" style="fill:#000000;fill-opacity:1;fill-rule:nonzero;stroke:none" d="M 455.074 1563.12 L 524.516 1563.1 C 526.715 1563.1 528.5 1564.9 528.5 1567.11 C 528.5 1569.31 526.715 1571.1 524.516 1571.1 L 500.586 1571.1 C 499.691 1571.1 498.871 1571.58 498.422 1572.35 C 494.16 1579.7 486.656 1584.09 478.34 1584.09 C 466.277 1584.09 456.324 1574.89 455.074 1563.12 Z M 524.516 1558.1 L 524.516 1558.1 L 452.441 1558.12 C 451.059 1558.12 449.941 1559.24 449.941 1560.62 C 449.941 1576.31 462.68 1589.09 478.34 1589.09 C 487.828 1589.09 496.758 1584.14 501.98 1576.1 L 524.516 1576.1 C 529.473 1576.1 533.5 1572.06 533.5 1567.11 C 533.5 1562.14 529.473 1558.1 524.516 1558.1"/>
  </g>
</svg>