<?xml version="1.0" encoding="utf-8"?>
<svg viewBox="276.72900390625 149.30999755859375 77.36100006103516 88.39299774169922" width="77.36100006103516" height="88.39299774169922" xmlns="http://www.w3.org/2000/svg">
  <g transform="matrix(0.12500000186264515, 0, 0, -0.12500000186264515, 0, 526.1375122070312)">
    <path id="path28" style="fill:#ddd8bf;fill-opacity:1;fill-rule:nonzero;stroke:none" d="M 2711.05 2334.62 C 2711.05 2319.64 2599.75 2307.48 2462.45 2307.48 C 2325.14 2307.48 2213.83 2319.64 2213.83 2334.62 C 2213.83 2349.61 2325.14 2361.77 2462.45 2361.77 C 2599.75 2361.77 2711.05 2349.61 2711.05 2334.62"/>
    <path id="path1544" style="fill:#f4d9bd;fill-opacity:1;fill-rule:nonzero;stroke:none" d="M 2242.77 2426.97 C 2242.77 2414.7 2252.71 2404.74 2264.98 2404.74 L 2294.37 2404.74 C 2306.63 2404.74 2316.57 2414.7 2316.57 2426.97 L 2316.57 2456.32 C 2316.57 2468.6 2306.63 2478.55 2294.37 2478.55 L 2264.98 2478.55 C 2252.71 2478.55 2242.77 2468.6 2242.77 2456.32 L 2242.77 2426.97"/>
    <path id="path1546" style="fill:#000000;fill-opacity:1;fill-rule:nonzero;stroke:none" d="M 2264.98 2476.05 C 2254.11 2476.05 2245.27 2467.2 2245.27 2456.32 L 2245.27 2426.97 C 2245.27 2416.09 2254.11 2407.24 2264.98 2407.24 L 2294.37 2407.24 C 2305.23 2407.24 2314.07 2416.09 2314.07 2426.97 L 2314.07 2456.32 C 2314.07 2467.2 2305.23 2476.05 2294.37 2476.05 L 2264.98 2476.05 Z M 2294.37 2402.24 L 2264.98 2402.24 C 2251.35 2402.24 2240.27 2413.33 2240.27 2426.97 L 2240.27 2456.32 C 2240.27 2469.95 2251.35 2481.05 2264.98 2481.05 L 2294.37 2481.05 C 2307.99 2481.05 2319.07 2469.95 2319.07 2456.32 L 2319.07 2426.97 C 2319.07 2413.33 2307.99 2402.24 2294.37 2402.24"/>
    <path id="path1548" style="fill:#ffb103;fill-opacity:1;fill-rule:nonzero;stroke:none" d="M 2269.25 2580.95 C 2239.15 2528.19 2238.53 2480.89 2239.17 2469.33 L 2317.77 2457.14 C 2318.14 2561.09 2338.03 2615.56 2341.17 2626.99 C 2341.17 2626.99 2295.34 2626.65 2269.25 2580.95"/>
    <path id="path1550" style="fill:#000000;fill-opacity:1;fill-rule:nonzero;stroke:none" d="M 2241.59 2471.48 L 2315.28 2460.05 C 2315.95 2552.7 2332.11 2605.75 2337.47 2623.29 C 2337.56 2623.62 2337.66 2623.93 2337.75 2624.23 C 2326.81 2623.04 2292.37 2616.4 2271.43 2579.71 C 2242.09 2528.3 2241.3 2482.5 2241.59 2471.48 Z M 2317.77 2454.64 C 2317.64 2454.64 2317.51 2454.65 2317.39 2454.67 L 2238.79 2466.86 C 2237.63 2467.04 2236.74 2468.01 2236.68 2469.19 C 2236.37 2474.76 2234.58 2525.24 2267.08 2582.19 C 2293.57 2628.61 2340.68 2629.49 2341.15 2629.49 C 2341.16 2629.49 2341.17 2629.49 2341.17 2629.49 C 2341.95 2629.49 2342.68 2629.13 2343.15 2628.51 C 2343.63 2627.89 2343.79 2627.08 2343.58 2626.33 C 2343.28 2625.23 2342.83 2623.73 2342.25 2621.84 C 2336.89 2604.28 2320.61 2550.84 2320.27 2457.13 C 2320.26 2456.4 2319.95 2455.71 2319.39 2455.24 C 2318.94 2454.85 2318.36 2454.64 2317.77 2454.64"/>
    <path id="path1552" style="fill:#c9a88b;fill-opacity:1;fill-rule:nonzero;stroke:none" d="M 2719.16 2602.81 C 2731.44 2602.81 2741.39 2592.87 2741.39 2580.63 L 2741.39 2551.21 C 2741.39 2538.98 2731.44 2529.04 2719.16 2529.04 L 2689.81 2529.04 C 2677.53 2529.04 2667.58 2538.98 2667.58 2551.21 L 2667.58 2580.63 C 2667.58 2592.87 2677.53 2602.81 2689.81 2602.81 L 2719.16 2602.81"/>
    <path id="path1554" style="fill:#000000;fill-opacity:1;fill-rule:nonzero;stroke:none" d="M 2689.81 2600.31 C 2678.93 2600.31 2670.08 2591.48 2670.08 2580.63 L 2670.08 2551.21 C 2670.08 2540.36 2678.93 2531.54 2689.81 2531.54 L 2719.16 2531.54 C 2730.03 2531.54 2738.89 2540.36 2738.89 2551.21 L 2738.89 2580.63 C 2738.89 2591.48 2730.03 2600.31 2719.16 2600.31 L 2689.81 2600.31 Z M 2719.16 2526.54 L 2689.81 2526.54 C 2676.18 2526.54 2665.08 2537.61 2665.08 2551.21 L 2665.08 2580.63 C 2665.08 2594.24 2676.18 2605.31 2689.81 2605.31 L 2719.16 2605.31 C 2732.79 2605.31 2743.89 2594.24 2743.89 2580.63 L 2743.89 2551.21 C 2743.89 2537.61 2732.79 2526.54 2719.16 2526.54"/>
    <path id="path1556" style="fill:#f4d9bd;fill-opacity:1;fill-rule:nonzero;stroke:none" d="M 2682.4 2602.81 C 2690.58 2602.81 2697.21 2596.2 2697.21 2588.01 L 2697.21 2575.08 C 2697.21 2566.91 2690.58 2560.27 2682.4 2560.27 L 2682.4 2560.27 C 2674.23 2560.27 2667.58 2566.91 2667.58 2575.08 L 2667.58 2588.01 C 2667.58 2596.2 2674.23 2602.81 2682.4 2602.81 L 2682.4 2602.81"/>
    <path id="path1558" style="fill:#000000;fill-opacity:1;fill-rule:nonzero;stroke:none" d="M 2682.4 2600.31 C 2675.61 2600.31 2670.08 2594.79 2670.08 2588.01 L 2670.08 2575.08 C 2670.08 2568.29 2675.61 2562.77 2682.4 2562.77 C 2689.19 2562.77 2694.71 2568.29 2694.71 2575.08 L 2694.71 2588.01 C 2694.71 2594.79 2689.19 2600.31 2682.4 2600.31 Z M 2682.4 2557.77 C 2672.85 2557.77 2665.08 2565.53 2665.08 2575.08 L 2665.08 2588.01 C 2665.08 2597.55 2672.85 2605.31 2682.4 2605.31 C 2691.95 2605.31 2699.71 2597.55 2699.71 2588.01 L 2699.71 2575.08 C 2699.71 2565.53 2691.95 2557.77 2682.4 2557.77"/>
    <path id="path1560" style="fill:#ffb103;fill-opacity:1;fill-rule:nonzero;stroke:none" d="M 2565.21 2555.09 C 2617.97 2524.99 2665.26 2524.37 2676.83 2525 L 2689.02 2603.61 C 2585.07 2603.99 2530.6 2623.87 2519.16 2626.99 C 2519.16 2626.99 2519.51 2581.18 2565.21 2555.09"/>
    <path id="path1562" style="fill:#000000;fill-opacity:1;fill-rule:nonzero;stroke:none" d="M 2521.92 2623.57 C 2523.11 2612.64 2529.76 2578.21 2566.45 2557.26 C 2613.74 2530.29 2655.77 2527.38 2671.65 2527.38 C 2671.65 2527.38 2671.65 2527.38 2671.66 2527.38 C 2672.77 2527.38 2673.78 2527.39 2674.67 2527.42 L 2686.11 2601.13 C 2593.61 2601.8 2540.52 2617.92 2522.95 2623.26 C 2522.59 2623.37 2522.25 2623.47 2521.92 2623.57 Z M 2671.66 2522.38 C 2671.65 2522.38 2671.65 2522.38 2671.65 2522.38 C 2655.37 2522.38 2612.29 2525.35 2563.96 2552.92 C 2517.56 2579.41 2516.67 2626.5 2516.66 2626.97 C 2516.66 2627.75 2517.02 2628.49 2517.64 2628.97 C 2518.25 2629.45 2519.05 2629.61 2519.82 2629.4 C 2520.94 2629.1 2522.47 2628.64 2524.4 2628.05 C 2541.98 2622.7 2595.47 2606.45 2689.03 2606.11 C 2689.76 2606.11 2690.45 2605.79 2690.92 2605.23 C 2691.4 2604.68 2691.61 2603.95 2691.49 2603.23 L 2679.3 2524.62 C 2679.12 2523.45 2678.14 2522.57 2676.96 2522.51 C 2675.63 2522.43 2673.85 2522.38 2671.66 2522.38"/>
    <path id="path1564" style="fill:#ffde73;fill-opacity:1;fill-rule:nonzero;stroke:none" d="M 2563.26 2342.97 C 2563.37 2360.51 2535.1 2608.69 2530.88 2624.25 L 2432.68 2634.25 L 2334.47 2624.25 C 2330.17 2608.57 2299.39 2358.82 2299.46 2342.97 L 2563.26 2342.97"/>
    <path id="path1566" style="fill:#000000;fill-opacity:1;fill-rule:nonzero;stroke:none" d="M 2302.06 2345.47 L 2560.69 2345.47 C 2559.16 2376.64 2533.81 2596.72 2528.83 2621.94 L 2432.42 2631.76 L 2336.5 2621.94 C 2331.45 2596.91 2303.9 2375.61 2302.06 2345.47 Z M 2563.26 2340.47 L 2299.46 2340.47 C 2298.08 2340.47 2296.96 2341.58 2296.96 2342.96 C 2296.88 2359.96 2328.05 2610.29 2332.06 2624.91 C 2332.33 2625.9 2333.19 2626.63 2334.21 2626.73 L 2432.42 2636.73 L 2531.13 2626.73 C 2532.16 2626.63 2533.02 2625.9 2533.29 2624.9 C 2537.35 2609.93 2565.88 2362.23 2565.76 2342.95 C 2565.75 2341.58 2564.64 2340.47 2563.26 2340.47"/>
    <path id="path1568" style="fill:#ffb103;fill-opacity:1;fill-rule:nonzero;stroke:none" d="M 2333.26 2618.02 C 2356.52 2604.7 2383.36 2596.93 2412.09 2596.93 L 2455.95 2596.93 C 2483.63 2596.93 2509.6 2604.1 2532.28 2616.53 C 2531.69 2620.3 2531.21 2623.04 2530.88 2624.25 L 2432.68 2634.25 L 2334.47 2624.25 C 2334.18 2623.2 2333.76 2621.02 2333.26 2618.02"/>
    <path id="path1570" style="fill:#ffb103;fill-opacity:1;fill-rule:nonzero;stroke:none" d="M 2411.04 2490.75 L 2530.83 2490.75 C 2536.79 2490.75 2542.42 2492.07 2547.54 2494.33 C 2544.21 2523.21 2540.84 2551.43 2537.98 2574.25 C 2535.64 2574.65 2533.28 2574.97 2530.83 2574.97 L 2411.04 2574.97 C 2387.78 2574.97 2368.93 2556.11 2368.93 2532.86 C 2368.93 2509.61 2387.78 2490.75 2411.04 2490.75"/>
    <path id="path1572" style="fill:#ffde73;fill-opacity:1;fill-rule:nonzero;stroke:none" d="M 2572.94 2553.75 C 2572.94 2530.49 2554.09 2511.62 2530.83 2511.62 L 2411.04 2511.62 C 2387.78 2511.62 2368.93 2530.49 2368.93 2553.75 L 2368.93 2553.75 C 2368.93 2577 2387.78 2595.85 2411.04 2595.85 L 2530.83 2595.85 C 2554.09 2595.85 2572.94 2577 2572.94 2553.75 L 2572.94 2553.75"/>
    <path id="path1574" style="fill:#000000;fill-opacity:1;fill-rule:nonzero;stroke:none" d="M 2302.06 2345.47 L 2560.68 2345.47 C 2559.74 2362.86 2550.98 2443.71 2542.73 2514.02 C 2542.6 2515.17 2543.28 2516.26 2544.36 2516.66 C 2559.96 2522.37 2570.44 2537.27 2570.44 2553.75 C 2570.44 2573.94 2555.21 2590.78 2535 2592.92 C 2533.85 2593.05 2532.93 2593.93 2532.78 2595.08 C 2530.61 2611.44 2529.45 2618.78 2528.83 2621.94 L 2432.42 2631.76 L 2336.5 2621.94 C 2331.45 2596.91 2303.9 2375.61 2302.06 2345.47 Z M 2563.26 2340.47 L 2299.46 2340.47 C 2298.08 2340.47 2296.96 2341.58 2296.96 2342.96 C 2296.88 2359.96 2328.05 2610.3 2332.06 2624.91 C 2332.33 2625.9 2333.19 2626.63 2334.21 2626.73 L 2432.42 2636.73 L 2531.13 2626.73 C 2532.16 2626.63 2533.02 2625.9 2533.29 2624.9 C 2534.02 2622.21 2535.4 2613.28 2537.49 2597.64 C 2559.26 2594.38 2575.44 2575.85 2575.44 2553.75 C 2575.44 2535.84 2564.47 2519.58 2547.92 2512.69 C 2556.6 2438.62 2565.83 2353.21 2565.76 2342.95 C 2565.75 2341.58 2564.64 2340.47 2563.26 2340.47"/>
    <path id="path1576" style="fill:#ffb103;fill-opacity:1;fill-rule:nonzero;stroke:none" d="M 2303.51 2412.45 L 2563.26 2412.45 L 2563.26 2449.2 L 2303.51 2449.2 L 2303.51 2412.45 Z"/>
    <path id="path1578" style="fill:#000000;fill-opacity:1;fill-rule:nonzero;stroke:none" d="M 2306.01 2414.95 L 2560.76 2414.95 L 2560.76 2446.7 L 2306.01 2446.7 L 2306.01 2414.95 Z M 2563.26 2409.95 L 2303.51 2409.95 C 2302.13 2409.95 2301.01 2411.07 2301.01 2412.45 L 2301.01 2449.2 C 2301.01 2450.58 2302.13 2451.7 2303.51 2451.7 L 2563.26 2451.7 C 2564.64 2451.7 2565.76 2450.58 2565.76 2449.2 L 2565.76 2412.45 C 2565.76 2411.07 2564.64 2409.95 2563.26 2409.95"/>
    <path id="path1580" style="fill:#00abd3;fill-opacity:1;fill-rule:nonzero;stroke:none" d="M 2511.86 2430.81 C 2511.86 2412.84 2497.29 2398.3 2479.32 2398.3 C 2461.36 2398.3 2446.81 2412.84 2446.81 2430.81 C 2446.81 2448.77 2461.36 2463.34 2479.32 2463.34 C 2497.29 2463.34 2511.86 2448.77 2511.86 2430.81"/>
    <path id="path1582" style="fill:#000000;fill-opacity:1;fill-rule:nonzero;stroke:none" d="M 2479.32 2460.84 C 2462.77 2460.84 2449.31 2447.37 2449.31 2430.81 C 2449.31 2414.27 2462.77 2400.8 2479.32 2400.8 C 2495.88 2400.8 2509.36 2414.27 2509.36 2430.81 C 2509.36 2447.37 2495.88 2460.84 2479.32 2460.84 Z M 2479.32 2395.8 C 2460.01 2395.8 2444.31 2411.51 2444.31 2430.81 C 2444.31 2450.13 2460.01 2465.84 2479.32 2465.84 C 2498.64 2465.84 2514.36 2450.13 2514.36 2430.81 C 2514.36 2411.51 2498.64 2395.8 2479.32 2395.8"/>
    <path id="path1584" style="fill:#5ae8ff;fill-opacity:1;fill-rule:nonzero;stroke:none" d="M 2495 2430.81 C 2495 2422.16 2487.98 2415.16 2479.32 2415.16 C 2470.68 2415.16 2463.66 2422.16 2463.66 2430.81 C 2463.66 2439.48 2470.68 2446.49 2479.32 2446.49 C 2487.98 2446.49 2495 2439.48 2495 2430.81"/>
    <path id="path1586" style="fill:#000000;fill-opacity:1;fill-rule:nonzero;stroke:none" d="M 2479.32 2443.99 C 2472.06 2443.99 2466.16 2438.07 2466.16 2430.81 C 2466.16 2423.56 2472.06 2417.66 2479.32 2417.66 C 2486.59 2417.66 2492.5 2423.56 2492.5 2430.81 C 2492.5 2438.07 2486.59 2443.99 2479.32 2443.99 Z M 2479.32 2412.66 C 2469.31 2412.66 2461.16 2420.8 2461.16 2430.81 C 2461.16 2440.83 2469.31 2448.99 2479.32 2448.99 C 2489.34 2448.99 2497.5 2440.83 2497.5 2430.81 C 2497.5 2420.8 2489.34 2412.66 2479.32 2412.66"/>
    <path id="path1588" style="fill:#f4d9bd;fill-opacity:1;fill-rule:nonzero;stroke:none" d="M 2615.17 2776.15 C 2615.17 2688.22 2543.89 2616.93 2455.95 2616.93 L 2412.09 2616.93 C 2324.15 2616.93 2252.86 2688.22 2252.86 2776.15 L 2252.86 2776.15 C 2252.86 2864.09 2324.15 2935.39 2412.09 2935.39 L 2455.95 2935.39 C 2543.89 2935.39 2615.17 2864.09 2615.17 2776.15 L 2615.17 2776.15"/>
    <path id="path1590" style="fill:#000000;fill-opacity:1;fill-rule:nonzero;stroke:none" d="M 2412.09 2932.89 C 2325.67 2932.89 2255.36 2862.58 2255.36 2776.15 C 2255.36 2689.73 2325.67 2619.43 2412.09 2619.43 L 2455.95 2619.43 C 2542.36 2619.43 2612.67 2689.73 2612.67 2776.15 C 2612.67 2862.58 2542.36 2932.89 2455.95 2932.89 L 2412.09 2932.89 Z M 2455.95 2614.43 L 2412.09 2614.43 C 2322.91 2614.43 2250.36 2686.98 2250.36 2776.15 C 2250.36 2865.33 2322.91 2937.89 2412.09 2937.89 L 2455.95 2937.89 C 2545.12 2937.89 2617.67 2865.33 2617.67 2776.15 C 2617.67 2686.98 2545.12 2614.43 2455.95 2614.43"/>
    <path id="path1592" style="fill:#eb4900;fill-opacity:1;fill-rule:nonzero;stroke:none" d="M 2435.91 2640.25 C 2450.26 2640.25 2461.86 2651.87 2461.86 2666.2 L 2410.13 2666.2 C 2410.13 2651.87 2421.67 2640.25 2435.91 2640.25"/>
    <path id="path1594" style="fill:#000000;fill-opacity:1;fill-rule:nonzero;stroke:none" d="M 2412.76 2663.7 C 2414 2651.94 2423.91 2642.75 2435.91 2642.75 C 2447.99 2642.75 2457.97 2651.94 2459.22 2663.7 L 2412.76 2663.7 Z M 2435.91 2637.75 C 2420.32 2637.75 2407.63 2650.52 2407.63 2666.2 C 2407.63 2667.59 2408.75 2668.7 2410.13 2668.7 L 2461.86 2668.7 C 2463.24 2668.7 2464.36 2667.59 2464.36 2666.2 C 2464.36 2650.52 2451.59 2637.75 2435.91 2637.75"/>
    <path id="path1596" style="fill:#2a5b6a;fill-opacity:1;fill-rule:nonzero;stroke:none" d="M 2394.77 2742.66 C 2385.16 2742.66 2376.89 2737.4 2372.41 2729.66 L 2350.03 2729.66 C 2346.44 2729.66 2343.54 2726.75 2343.54 2723.19 C 2343.54 2719.6 2346.44 2716.67 2350.03 2716.67 L 2380.91 2716.67 C 2380.96 2716.67 2381 2716.7 2381.05 2716.7 L 2420.54 2716.7 C 2420.54 2731.03 2409 2742.66 2394.77 2742.66"/>
    <path id="path1598" style="fill:#000000;fill-opacity:1;fill-rule:nonzero;stroke:none" d="M 2350.03 2727.16 C 2347.83 2727.16 2346.04 2725.38 2346.04 2723.19 C 2346.04 2720.97 2347.83 2719.17 2350.03 2719.17 L 2380.69 2719.17 C 2380.82 2719.19 2380.94 2719.2 2381.05 2719.2 L 2417.91 2719.2 C 2416.67 2730.97 2406.76 2740.16 2394.77 2740.16 C 2386.39 2740.16 2378.84 2735.77 2374.57 2728.41 C 2374.12 2727.64 2373.3 2727.16 2372.41 2727.16 L 2350.03 2727.16 Z M 2380.91 2714.17 L 2350.03 2714.17 C 2345.07 2714.17 2341.04 2718.22 2341.04 2723.19 C 2341.04 2728.13 2345.07 2732.16 2350.03 2732.16 L 2371.01 2732.16 C 2376.29 2740.33 2385.06 2745.16 2394.77 2745.16 C 2410.36 2745.16 2423.04 2732.4 2423.04 2716.7 C 2423.04 2715.32 2421.92 2714.2 2420.54 2714.2 L 2381.27 2714.2 C 2381.15 2714.18 2381.02 2714.17 2380.91 2714.17"/>
    <path id="path1600" style="fill:#2a5b6a;fill-opacity:1;fill-rule:nonzero;stroke:none" d="M 2619.69 2729.66 L 2595.76 2729.66 C 2591.28 2737.4 2583.04 2742.66 2573.51 2742.66 C 2559.16 2742.66 2547.61 2731.03 2547.61 2716.7 L 2588.66 2716.7 C 2588.72 2716.7 2588.76 2716.67 2588.81 2716.67 L 2619.69 2716.67 C 2623.27 2716.67 2626.17 2719.6 2626.17 2723.19 C 2626.17 2726.75 2623.27 2729.66 2619.69 2729.66"/>
    <path id="path1602" style="fill:#000000;fill-opacity:1;fill-rule:nonzero;stroke:none" d="M 2589.03 2719.17 L 2619.69 2719.17 C 2621.88 2719.17 2623.67 2720.97 2623.67 2723.19 C 2623.67 2725.38 2621.88 2727.16 2619.69 2727.16 L 2595.76 2727.16 C 2594.86 2727.16 2594.04 2727.64 2593.59 2728.41 C 2589.33 2735.77 2581.83 2740.16 2573.51 2740.16 C 2561.45 2740.16 2551.49 2730.97 2550.24 2719.2 L 2588.66 2719.2 C 2588.77 2719.2 2588.9 2719.19 2589.03 2719.17 Z M 2619.69 2714.17 L 2588.81 2714.17 C 2588.7 2714.17 2588.57 2714.18 2588.44 2714.2 L 2547.61 2714.2 C 2546.23 2714.2 2545.11 2715.32 2545.11 2716.7 C 2545.11 2732.4 2557.85 2745.16 2573.51 2745.16 C 2583 2745.16 2591.93 2740.22 2597.15 2732.16 L 2619.69 2732.16 C 2624.64 2732.16 2628.67 2728.13 2628.67 2723.19 C 2628.67 2718.22 2624.64 2714.17 2619.69 2714.17"/>
    <path id="path1604" style="fill:#f2f1e7;fill-opacity:1;fill-rule:nonzero;stroke:none" d="M 2635.14 2751.77 C 2636.28 2759.44 2635.14 2817.9 2635.14 2817.9 C 2635.14 2905.85 2558.59 2977.14 2464.15 2977.14 L 2401.12 2977.14 C 2306.67 2977.14 2230.12 2905.85 2230.12 2817.9 L 2230.12 2581.21 L 2248.94 2560.33 L 2255.7 2707.79 L 2261.85 2560.33 L 2341.32 2497.69 L 2341.32 2749.52 C 2412.12 2758.47 2444.38 2779.2 2490.03 2807.84 C 2538.69 2779.24 2561.03 2758.96 2635.14 2751.77"/>
    <path id="path1606" style="fill:#000000;fill-opacity:1;fill-rule:nonzero;stroke:none" d="M 2264.3 2561.58 L 2338.82 2502.84 L 2338.82 2749.52 C 2338.82 2750.78 2339.76 2751.84 2341.01 2752 C 2410.28 2760.75 2442.39 2780.9 2486.82 2808.78 L 2488.7 2809.96 C 2489.49 2810.45 2490.49 2810.48 2491.29 2809.99 C 2498.52 2805.75 2505.16 2801.69 2511.47 2797.83 C 2546.61 2776.35 2572.12 2760.75 2632.87 2754.51 C 2633.45 2765.02 2633 2799.52 2632.64 2817.85 C 2632.64 2904.33 2557.06 2974.64 2464.15 2974.64 L 2401.12 2974.64 C 2308.21 2974.64 2232.62 2904.33 2232.62 2817.9 L 2232.62 2582.18 L 2246.72 2566.53 L 2253.2 2707.9 C 2253.26 2709.24 2254.36 2710.29 2255.7 2710.29 L 2255.7 2710.29 C 2257.04 2710.28 2258.14 2709.23 2258.2 2707.89 L 2264.3 2561.58 Z M 2341.32 2495.19 C 2340.77 2495.19 2340.22 2495.37 2339.77 2495.73 L 2260.3 2558.37 C 2259.73 2558.82 2259.38 2559.5 2259.35 2560.23 L 2255.58 2650.6 L 2251.44 2560.22 C 2251.39 2559.2 2250.74 2558.32 2249.79 2557.98 C 2248.83 2557.63 2247.77 2557.89 2247.08 2558.66 L 2228.26 2579.54 C 2227.85 2580 2227.62 2580.59 2227.62 2581.21 L 2227.62 2817.9 C 2227.62 2907.09 2305.45 2979.64 2401.12 2979.64 L 2464.15 2979.64 C 2559.81 2979.64 2637.64 2907.09 2637.64 2817.9 C 2637.69 2815.56 2638.77 2759.19 2637.61 2751.4 C 2637.42 2750.09 2636.1 2749.25 2634.9 2749.28 C 2571.19 2755.46 2545.05 2771.44 2508.87 2793.56 C 2502.96 2797.18 2496.76 2800.97 2490.07 2804.92 L 2489.47 2804.54 C 2444.97 2776.61 2412.68 2756.36 2343.82 2747.32 L 2343.82 2497.69 C 2343.82 2496.73 2343.27 2495.86 2342.41 2495.44 C 2342.06 2495.27 2341.69 2495.19 2341.32 2495.19"/>
    <path id="path1608" style="fill:#ffde73;fill-opacity:1;fill-rule:nonzero;stroke:none" d="M 2288.27 2678.71 C 2288.27 2670.07 2281.25 2663.06 2272.59 2663.06 C 2263.94 2663.06 2256.93 2670.07 2256.93 2678.71 C 2256.93 2687.39 2263.94 2694.38 2272.59 2694.38 L 2272.6 2694.38 L 2272.6 2710.16 L 2272.59 2710.16 C 2255.24 2710.16 2241.16 2696.1 2241.16 2678.71 C 2241.16 2661.36 2255.24 2647.3 2272.59 2647.3 C 2289.97 2647.3 2304.05 2661.36 2304.05 2678.71 L 2288.27 2678.71"/>
    <path id="path1610" style="fill:#000000;fill-opacity:1;fill-rule:nonzero;stroke:none" d="M 2270.1 2707.56 C 2255.31 2706.28 2243.66 2693.84 2243.66 2678.71 C 2243.66 2662.77 2256.64 2649.8 2272.59 2649.8 C 2287.71 2649.8 2300.17 2661.43 2301.44 2676.21 L 2290.6 2676.21 C 2289.37 2667.38 2281.76 2660.56 2272.59 2660.56 C 2262.58 2660.56 2254.43 2668.7 2254.43 2678.71 C 2254.43 2687.88 2261.25 2695.49 2270.09 2696.71 L 2270.1 2707.56 Z M 2272.59 2644.8 C 2253.88 2644.8 2238.66 2660.01 2238.66 2678.71 C 2238.66 2697.43 2253.88 2712.66 2272.59 2712.66 C 2273.97 2712.66 2275.09 2711.55 2275.09 2710.16 L 2275.1 2694.38 C 2275.1 2693.71 2274.84 2693.08 2274.37 2692.61 C 2273.9 2692.14 2273.27 2691.88 2272.6 2691.88 C 2265.34 2691.88 2259.43 2685.97 2259.43 2678.71 C 2259.43 2671.46 2265.33 2665.56 2272.59 2665.56 C 2279.86 2665.56 2285.77 2671.46 2285.77 2678.71 C 2285.77 2680.1 2286.88 2681.21 2288.27 2681.21 L 2304.05 2681.21 C 2305.43 2681.21 2306.55 2680.1 2306.55 2678.71 C 2306.55 2660.01 2291.31 2644.8 2272.59 2644.8"/>
    <path id="path1612" style="fill:#f4d9bd;fill-opacity:1;fill-rule:nonzero;stroke:none" d="M 2268.23 2831.28 L 2268.23 2704.61 C 2268.23 2688.31 2281.45 2675.06 2297.77 2675.06 C 2314.1 2675.06 2327.32 2688.31 2327.32 2704.61 L 2268.23 2831.28"/>
    <path id="path1614" style="fill:#000000;fill-opacity:1;fill-rule:nonzero;stroke:none" d="M 2270.73 2820.01 L 2270.73 2704.61 C 2270.73 2689.7 2282.86 2677.56 2297.77 2677.56 C 2312.51 2677.56 2324.53 2689.4 2324.82 2704.07 L 2270.73 2820.01 Z M 2297.77 2672.56 C 2280.1 2672.56 2265.73 2686.94 2265.73 2704.61 L 2265.73 2831.28 C 2265.73 2832.45 2266.54 2833.47 2267.69 2833.72 C 2268.83 2833.98 2270 2833.41 2270.49 2832.34 L 2329.59 2705.67 C 2329.75 2705.34 2329.82 2704.98 2329.82 2704.61 C 2329.82 2686.94 2315.44 2672.56 2297.77 2672.56"/>
    <path id="path1616" style="fill:#ffde73;fill-opacity:1;fill-rule:nonzero;stroke:none" d="M 2502.44 2822.69 L 2502.44 2822.69 C 2498.96 2822.69 2495.71 2824.42 2493.77 2827.31 C 2465.03 2870.14 2373.83 2937.3 2317.49 2964.31 C 2312.29 2966.83 2310.1 2973.06 2312.59 2978.27 C 2315.07 2983.44 2321.31 2985.66 2326.52 2983.16 C 2381.25 2956.9 2464.18 2896.81 2501.75 2851.38 C 2511.49 2867.08 2519.79 2901.02 2531.2 2974.52 C 2532.08 2980.24 2537.41 2984.15 2543.11 2983.24 C 2548.81 2982.35 2552.72 2977.01 2551.84 2971.33 C 2541.07 2901.92 2522.92 2844.87 2511.11 2827.31 C 2509.17 2824.42 2505.92 2822.69 2502.44 2822.69"/>
    <path id="path1618" style="fill:#000000;fill-opacity:1;fill-rule:nonzero;stroke:none" d="M 2322.02 2981.69 C 2318.97 2981.69 2316.16 2979.92 2314.85 2977.19 C 2312.96 2973.24 2314.63 2968.47 2318.57 2966.57 C 2375.18 2939.42 2466.88 2871.87 2495.84 2828.7 C 2498.8 2824.3 2506.09 2824.32 2509.03 2828.7 C 2520.47 2845.72 2538.5 2901.61 2549.37 2971.71 C 2549.69 2973.8 2549.18 2975.89 2547.92 2977.61 C 2546.67 2979.32 2544.82 2980.44 2542.72 2980.77 C 2538.19 2981.5 2534.34 2978.45 2533.67 2974.14 C 2522.34 2901.14 2513.98 2866.35 2503.87 2850.06 C 2503.45 2849.37 2502.72 2848.93 2501.92 2848.88 C 2501.1 2848.76 2500.34 2849.16 2499.82 2849.78 C 2461.5 2896.13 2377.16 2956.08 2325.44 2980.91 C 2324.36 2981.42 2323.21 2981.69 2322.02 2981.69 Z M 2502.44 2820.19 C 2498.12 2820.19 2494.11 2822.33 2491.69 2825.91 C 2463.14 2868.46 2372.46 2935.18 2316.41 2962.06 C 2309.98 2965.17 2307.27 2972.92 2310.34 2979.34 C 2313.31 2985.55 2321.34 2988.4 2327.6 2985.42 C 2379.87 2960.33 2461.16 2902.78 2501.36 2855.72 C 2510.34 2872.62 2518.18 2906.97 2528.73 2974.91 C 2529.81 2981.92 2536.24 2986.82 2543.5 2985.71 C 2546.91 2985.18 2549.92 2983.35 2551.96 2980.56 C 2554 2977.77 2554.84 2974.35 2554.31 2970.94 C 2543.33 2900.14 2524.92 2843.37 2513.18 2825.91 C 2510.78 2822.33 2506.76 2820.19 2502.44 2820.19"/>
    <path id="path1620" style="fill:#00abd3;fill-opacity:1;fill-rule:nonzero;stroke:none" d="M 2535.69 2838.77 C 2535.69 2820.81 2521.13 2806.26 2503.16 2806.26 C 2485.21 2806.26 2470.65 2820.81 2470.65 2838.77 C 2470.65 2856.74 2485.21 2871.3 2503.16 2871.3 C 2521.13 2871.3 2535.69 2856.74 2535.69 2838.77"/>
    <path id="path1622" style="fill:#000000;fill-opacity:1;fill-rule:nonzero;stroke:none" d="M 2503.16 2868.8 C 2486.62 2868.8 2473.15 2855.33 2473.15 2838.77 C 2473.15 2822.22 2486.62 2808.76 2503.16 2808.76 C 2519.72 2808.76 2533.19 2822.22 2533.19 2838.77 C 2533.19 2855.33 2519.72 2868.8 2503.16 2868.8 Z M 2503.16 2803.76 C 2483.86 2803.76 2468.15 2819.47 2468.15 2838.77 C 2468.15 2858.09 2483.86 2873.8 2503.16 2873.8 C 2522.48 2873.8 2538.19 2858.09 2538.19 2838.77 C 2538.19 2819.47 2522.48 2803.76 2503.16 2803.76"/>
    <path id="path1624" style="fill:#5ae8ff;fill-opacity:1;fill-rule:nonzero;stroke:none" d="M 2518.84 2838.77 C 2518.84 2830.13 2511.83 2823.13 2503.16 2823.13 C 2494.52 2823.13 2487.5 2830.13 2487.5 2838.77 C 2487.5 2847.43 2494.52 2854.46 2503.16 2854.46 C 2511.83 2854.46 2518.84 2847.43 2518.84 2838.77"/>
    <path id="path1626" style="fill:#000000;fill-opacity:1;fill-rule:nonzero;stroke:none" d="M 2503.16 2851.96 C 2495.91 2851.96 2490 2846.04 2490 2838.77 C 2490 2831.53 2495.91 2825.63 2503.16 2825.63 C 2510.43 2825.63 2516.34 2831.53 2516.34 2838.77 C 2516.34 2846.04 2510.43 2851.96 2503.16 2851.96 Z M 2503.16 2820.63 C 2493.15 2820.63 2485 2828.77 2485 2838.77 C 2485 2848.8 2493.15 2856.96 2503.16 2856.96 C 2513.18 2856.96 2521.34 2848.8 2521.34 2838.77 C 2521.34 2828.77 2513.18 2820.63 2503.16 2820.63"/>
    <path id="path1628" style="fill:#00abd3;fill-opacity:1;fill-rule:nonzero;stroke:none" d="M 2699.97 2342.97 L 2731.29 2342.97 L 2731.29 2807.29 L 2699.97 2807.29 L 2699.97 2342.97 Z"/>
    <path id="path1630" style="fill:#000000;fill-opacity:1;fill-rule:nonzero;stroke:none" d="M 2702.47 2345.47 L 2728.79 2345.47 L 2728.79 2804.79 L 2702.47 2804.79 L 2702.47 2345.47 Z M 2731.29 2340.47 L 2699.97 2340.47 C 2698.59 2340.47 2697.47 2341.59 2697.47 2342.97 L 2697.47 2807.29 C 2697.47 2808.67 2698.59 2809.79 2699.97 2809.79 L 2731.29 2809.79 C 2732.67 2809.79 2733.79 2808.67 2733.79 2807.29 L 2733.79 2342.97 C 2733.79 2341.59 2732.67 2340.47 2731.29 2340.47"/>
    <path id="path1632" style="fill:#ffde73;fill-opacity:1;fill-rule:nonzero;stroke:none" d="M 2718 2663.24 L 2713.27 2663.24 C 2701.74 2663.24 2692.39 2672.58 2692.39 2684.13 L 2692.39 2706.13 C 2692.39 2717.66 2701.74 2727.02 2713.27 2727.02 L 2718 2727.02 C 2729.52 2727.02 2738.88 2717.66 2738.88 2706.13 L 2738.88 2684.13 C 2738.88 2672.58 2729.52 2663.24 2718 2663.24"/>
    <path id="path1634" style="fill:#000000;fill-opacity:1;fill-rule:nonzero;stroke:none" d="M 2713.27 2724.52 C 2703.14 2724.52 2694.89 2716.27 2694.89 2706.13 L 2694.89 2684.13 C 2694.89 2673.99 2703.14 2665.74 2713.27 2665.74 L 2718 2665.74 C 2728.13 2665.74 2736.38 2673.99 2736.38 2684.13 L 2736.38 2706.13 C 2736.38 2716.27 2728.13 2724.52 2718 2724.52 L 2713.27 2724.52 Z M 2718 2660.74 L 2713.27 2660.74 C 2700.38 2660.74 2689.89 2671.23 2689.89 2684.13 L 2689.89 2706.13 C 2689.89 2719.03 2700.38 2729.52 2713.27 2729.52 L 2718 2729.52 C 2730.89 2729.52 2741.38 2719.03 2741.38 2706.13 L 2741.38 2684.13 C 2741.38 2671.23 2730.89 2660.74 2718 2660.74"/>
    <path id="path1636" style="fill:#ffde73;fill-opacity:1;fill-rule:nonzero;stroke:none" d="M 2718 2417.32 L 2713.27 2417.32 C 2701.74 2417.32 2692.39 2426.67 2692.39 2438.21 L 2692.39 2460.22 C 2692.39 2471.76 2701.74 2481.1 2713.27 2481.1 L 2718 2481.1 C 2729.52 2481.1 2738.88 2471.76 2738.88 2460.22 L 2738.88 2438.21 C 2738.88 2426.67 2729.52 2417.32 2718 2417.32"/>
    <path id="path1638" style="fill:#000000;fill-opacity:1;fill-rule:nonzero;stroke:none" d="M 2713.27 2478.6 C 2703.14 2478.6 2694.89 2470.35 2694.89 2460.22 L 2694.89 2438.21 C 2694.89 2428.07 2703.14 2419.82 2713.27 2419.82 L 2718 2419.82 C 2728.13 2419.82 2736.38 2428.07 2736.38 2438.21 L 2736.38 2460.22 C 2736.38 2470.35 2728.13 2478.6 2718 2478.6 L 2713.27 2478.6 Z M 2718 2414.82 L 2713.27 2414.82 C 2700.38 2414.82 2689.89 2425.31 2689.89 2438.21 L 2689.89 2460.22 C 2689.89 2473.11 2700.38 2483.6 2713.27 2483.6 L 2718 2483.6 C 2730.89 2483.6 2741.38 2473.11 2741.38 2460.22 L 2741.38 2438.21 C 2741.38 2425.31 2730.89 2414.82 2718 2414.82"/>
    <path id="path1640" style="fill:#ffb103;fill-opacity:1;fill-rule:nonzero;stroke:none" d="M 2748.84 2930.75 C 2729.77 2949.84 2727.34 2979.26 2741.56 3000.97 L 2689.69 3000.97 C 2703.9 2979.26 2701.5 2949.82 2682.42 2930.75 C 2663.33 2911.65 2633.9 2909.26 2612.18 2923.47 L 2612.18 2871.59 C 2633.9 2885.8 2663.33 2883.39 2682.4 2864.31 C 2701.48 2845.23 2703.9 2815.8 2689.69 2794.09 L 2741.57 2794.09 C 2727.34 2815.8 2729.78 2845.21 2748.85 2864.31 C 2767.94 2883.39 2797.36 2885.8 2819.08 2871.59 L 2819.08 2923.47 C 2797.36 2909.26 2767.93 2911.65 2748.84 2930.75"/>
    <path id="path1642" style="fill:#000000;fill-opacity:1;fill-rule:nonzero;stroke:none" d="M 2694.1 2796.59 L 2737.15 2796.59 C 2724.8 2819.09 2728.68 2847.65 2747.08 2866.07 C 2758.13 2877.12 2772.81 2883.2 2788.43 2883.2 C 2798.34 2883.2 2807.99 2880.72 2816.58 2876 L 2816.58 2919.06 C 2807.98 2914.33 2798.33 2911.86 2788.42 2911.86 C 2772.79 2911.86 2758.11 2917.94 2747.07 2928.98 C 2728.67 2947.4 2724.8 2975.96 2737.15 2998.47 L 2694.1 2998.47 C 2706.46 2975.94 2702.6 2947.38 2684.18 2928.98 C 2673.15 2917.94 2658.47 2911.86 2642.85 2911.86 C 2632.93 2911.86 2623.28 2914.33 2614.68 2919.06 L 2614.68 2876 C 2623.28 2880.72 2632.92 2883.2 2642.83 2883.2 C 2658.45 2883.2 2673.13 2877.12 2684.17 2866.07 C 2702.58 2847.67 2706.46 2819.11 2694.1 2796.59 Z M 2741.69 2791.59 C 2741.64 2791.6 2741.6 2791.6 2741.57 2791.59 L 2689.69 2791.59 C 2688.77 2791.59 2687.92 2792.09 2687.49 2792.9 C 2687.05 2793.71 2687.09 2794.69 2687.6 2795.46 C 2701.38 2816.52 2698.45 2844.73 2680.63 2862.54 C 2670.54 2872.64 2657.12 2878.2 2642.83 2878.2 C 2632.38 2878.2 2622.25 2875.19 2613.55 2869.5 C 2612.79 2868.99 2611.8 2868.94 2611 2869.39 C 2610.19 2869.82 2609.68 2870.67 2609.68 2871.59 L 2609.68 2923.47 C 2609.68 2924.39 2610.19 2925.23 2610.99 2925.67 C 2611.8 2926.12 2612.77 2926.08 2613.55 2925.56 C 2622.26 2919.87 2632.39 2916.86 2642.85 2916.86 C 2657.13 2916.86 2670.56 2922.42 2680.65 2932.52 C 2698.47 2950.32 2701.39 2978.53 2687.6 2999.6 C 2687.09 3000.37 2687.05 3001.35 2687.49 3002.16 C 2687.92 3002.97 2688.77 3003.47 2689.69 3003.47 L 2741.56 3003.47 C 2742.48 3003.47 2743.33 3002.97 2743.76 3002.16 C 2744.2 3001.35 2744.16 3000.37 2743.65 2999.6 C 2729.87 2978.56 2732.79 2950.35 2750.61 2932.52 C 2760.7 2922.42 2774.13 2916.86 2788.42 2916.86 C 2798.88 2916.86 2809.01 2919.87 2817.71 2925.56 C 2818.49 2926.08 2819.45 2926.12 2820.27 2925.67 C 2821.08 2925.23 2821.58 2924.39 2821.58 2923.47 L 2821.58 2871.59 C 2821.58 2870.67 2821.08 2869.82 2820.27 2869.39 C 2819.46 2868.94 2818.49 2868.99 2817.71 2869.5 C 2809.01 2875.19 2798.89 2878.2 2788.43 2878.2 C 2774.15 2878.2 2760.72 2872.64 2750.62 2862.54 C 2732.95 2844.86 2729.93 2816.97 2743.32 2795.99 C 2743.85 2795.54 2744.19 2794.85 2744.19 2794.09 C 2744.19 2792.71 2743.07 2791.59 2741.69 2791.59"/>
    <path id="path1644" style="fill:#ffde73;fill-opacity:1;fill-rule:nonzero;stroke:none" d="M 2707.04 2805.23 L 2724.22 2805.23 C 2717.24 2828.43 2723.21 2854.43 2740.98 2872.19 C 2753.65 2884.86 2770.5 2891.86 2788.42 2891.86 C 2795.09 2891.86 2801.65 2890.88 2807.93 2888.96 L 2807.93 2906.09 C 2801.65 2904.17 2795.09 2903.22 2788.42 2903.22 C 2770.49 2903.22 2753.65 2910.19 2740.97 2922.88 C 2723.2 2940.65 2717.23 2966.62 2724.2 2989.84 L 2707.06 2989.84 C 2714.02 2966.62 2708.06 2940.62 2690.29 2922.88 C 2677.63 2910.19 2660.76 2903.22 2642.83 2903.22 C 2636.16 2903.22 2629.61 2904.17 2623.33 2906.09 L 2623.33 2888.96 C 2629.61 2890.88 2636.16 2891.86 2642.83 2891.86 C 2660.76 2891.86 2677.61 2884.86 2690.28 2872.19 C 2708.05 2854.43 2714.02 2828.43 2707.04 2805.23 Z M 2741.8 2782.93 C 2741.71 2782.93 2741.66 2782.95 2741.57 2782.93 L 2689.69 2782.93 C 2685.59 2782.93 2681.83 2785.17 2679.88 2788.79 C 2677.93 2792.38 2678.12 2796.77 2680.36 2800.19 C 2691.91 2817.85 2689.46 2841.51 2674.53 2856.43 C 2659.86 2871.08 2635.52 2873.54 2618.27 2862.26 C 2614.86 2860.02 2610.46 2859.84 2606.88 2861.79 C 2603.28 2863.73 2601.04 2867.51 2601.04 2871.59 L 2601.04 2923.47 C 2601.04 2927.55 2603.28 2931.32 2606.88 2933.27 C 2610.46 2935.21 2614.86 2935.03 2618.27 2932.79 C 2635.52 2921.51 2659.87 2923.98 2674.53 2938.64 C 2689.48 2953.57 2691.92 2977.22 2680.36 2994.88 C 2678.12 2998.29 2677.94 3002.68 2679.88 3006.27 C 2681.83 3009.88 2685.6 3012.12 2689.69 3012.12 L 2741.56 3012.12 C 2745.66 3012.12 2749.42 3009.88 2751.37 3006.27 C 2753.32 3002.68 2753.13 2998.29 2750.89 2994.88 C 2739.33 2977.23 2741.8 2953.57 2756.72 2938.64 C 2771.4 2923.96 2795.73 2921.51 2812.97 2932.81 C 2816.4 2935.03 2820.77 2935.21 2824.38 2933.27 C 2827.98 2931.34 2830.22 2927.57 2830.22 2923.47 L 2830.22 2871.59 C 2830.22 2867.51 2827.98 2863.73 2824.38 2861.79 C 2820.78 2859.84 2816.41 2860.02 2812.98 2862.26 C 2795.75 2873.52 2771.41 2871.08 2756.74 2856.43 C 2742.21 2841.89 2739.48 2819.1 2749.98 2801.63 C 2751.82 2799.66 2752.94 2797.01 2752.94 2794.09 C 2752.94 2787.93 2747.94 2782.93 2741.8 2782.93"/>
    <path id="path1646" style="fill:#000000;fill-opacity:1;fill-rule:nonzero;stroke:none" d="M 2710.32 2807.73 L 2720.94 2807.73 C 2714.99 2831.49 2721.84 2856.6 2739.21 2873.96 C 2752.36 2887.11 2769.84 2894.36 2788.42 2894.36 C 2794.18 2894.36 2799.89 2893.65 2805.43 2892.25 L 2805.43 2902.8 C 2799.95 2901.42 2794.24 2900.72 2788.42 2900.72 C 2769.82 2900.72 2752.34 2907.96 2739.2 2921.11 C 2721.85 2938.47 2714.99 2963.57 2720.92 2987.34 L 2710.34 2987.34 C 2716.27 2963.55 2709.42 2938.44 2692.06 2921.11 C 2678.94 2907.96 2661.46 2900.72 2642.83 2900.72 C 2637.02 2900.72 2631.31 2901.42 2625.83 2902.8 L 2625.83 2892.25 C 2631.37 2893.65 2637.08 2894.36 2642.83 2894.36 C 2661.42 2894.36 2678.9 2887.11 2692.05 2873.96 C 2709.41 2856.6 2716.26 2831.5 2710.32 2807.73 Z M 2724.22 2802.73 L 2707.04 2802.73 C 2706.25 2802.73 2705.51 2803.1 2705.03 2803.74 C 2704.56 2804.37 2704.42 2805.19 2704.65 2805.95 C 2711.54 2828.88 2705.36 2853.59 2688.51 2870.42 C 2676.3 2882.64 2660.08 2889.36 2642.83 2889.36 C 2636.45 2889.36 2630.13 2888.42 2624.05 2886.57 C 2623.31 2886.33 2622.48 2886.47 2621.84 2886.96 C 2621.2 2887.43 2620.83 2888.17 2620.83 2888.96 L 2620.83 2906.09 C 2620.83 2906.88 2621.2 2907.63 2621.84 2908.1 C 2622.48 2908.58 2623.29 2908.72 2624.06 2908.48 C 2630.04 2906.65 2636.36 2905.72 2642.83 2905.72 C 2660.12 2905.72 2676.34 2912.44 2688.52 2924.65 C 2705.37 2941.46 2711.55 2966.17 2704.66 2989.12 C 2704.43 2989.88 2704.58 2990.7 2705.05 2991.33 C 2705.52 2991.96 2706.26 2992.34 2707.06 2992.34 L 2724.2 2992.34 C 2725 2992.34 2725.74 2991.96 2726.21 2991.33 C 2726.68 2990.7 2726.83 2989.88 2726.6 2989.12 C 2719.71 2966.19 2725.9 2941.49 2742.74 2924.65 C 2754.93 2912.44 2771.15 2905.72 2788.42 2905.72 C 2794.9 2905.72 2801.22 2906.65 2807.2 2908.48 C 2807.96 2908.7 2808.78 2908.57 2809.41 2908.1 C 2810.05 2907.63 2810.43 2906.88 2810.43 2906.09 L 2810.43 2888.96 C 2810.43 2888.17 2810.05 2887.43 2809.42 2886.96 C 2808.77 2886.48 2807.95 2886.35 2807.2 2886.57 C 2801.13 2888.42 2794.81 2889.36 2788.42 2889.36 C 2771.18 2889.36 2754.96 2882.64 2742.74 2870.42 C 2725.89 2853.58 2719.71 2828.87 2726.61 2805.95 C 2726.84 2805.19 2726.7 2804.37 2726.23 2803.74 C 2725.75 2803.1 2725.01 2802.73 2724.22 2802.73 Z M 2642.54 2871.82 C 2655.33 2871.82 2667.63 2866.85 2676.29 2858.2 C 2692.06 2842.44 2694.65 2817.47 2682.45 2798.83 C 2680.7 2796.16 2680.56 2792.77 2682.08 2789.98 C 2683.59 2787.17 2686.5 2785.43 2689.69 2785.43 L 2741.8 2785.43 C 2746.56 2785.43 2750.44 2789.31 2750.44 2794.09 C 2750.44 2796.27 2749.63 2798.34 2748.15 2799.93 C 2736.64 2818.99 2739.57 2842.78 2754.97 2858.2 C 2763.63 2866.85 2775.93 2871.81 2788.72 2871.81 C 2798.02 2871.81 2806.88 2869.23 2814.35 2864.36 C 2816.96 2862.65 2820.44 2862.51 2823.19 2863.99 C 2825.99 2865.5 2827.72 2868.41 2827.72 2871.59 L 2827.72 2923.47 C 2827.72 2926.66 2825.99 2929.57 2823.2 2931.07 C 2820.47 2932.55 2816.95 2932.4 2814.33 2930.71 C 2806.88 2925.82 2798 2923.24 2788.69 2923.24 C 2775.92 2923.24 2763.62 2928.21 2754.96 2936.87 C 2739.18 2952.65 2736.59 2977.62 2748.8 2996.25 C 2750.54 2998.9 2750.68 3002.29 2749.17 3005.07 C 2747.66 3007.88 2744.75 3009.62 2741.56 3009.62 L 2689.69 3009.62 C 2686.5 3009.62 2683.59 3007.88 2682.08 3005.08 C 2680.57 3002.29 2680.71 2998.9 2682.45 2996.24 C 2694.66 2977.6 2692.07 2952.63 2676.29 2936.87 C 2667.63 2928.21 2655.33 2923.24 2642.53 2923.24 C 2633.23 2923.24 2624.37 2925.82 2616.9 2930.7 C 2614.3 2932.4 2610.8 2932.55 2608.06 2931.08 C 2605.27 2929.56 2603.54 2926.64 2603.54 2923.47 L 2603.54 2871.59 C 2603.54 2868.41 2605.27 2865.5 2608.07 2863.99 C 2610.8 2862.5 2614.31 2862.64 2616.9 2864.35 C 2624.37 2869.24 2633.24 2871.82 2642.54 2871.82 Z M 2741.8 2780.43 C 2741.74 2780.43 2741.61 2780.44 2741.55 2780.44 L 2689.69 2780.43 C 2684.66 2780.43 2680.06 2783.18 2677.68 2787.6 C 2675.29 2792.01 2675.51 2797.36 2678.27 2801.56 C 2689.17 2818.24 2686.86 2840.57 2672.76 2854.66 C 2665.02 2862.39 2654.01 2866.82 2642.54 2866.82 C 2634.21 2866.82 2626.29 2864.52 2619.64 2860.17 C 2615.55 2857.48 2610 2857.25 2605.68 2859.59 C 2601.27 2861.98 2598.54 2866.57 2598.54 2871.59 L 2598.54 2923.47 C 2598.54 2928.47 2601.27 2933.07 2605.68 2935.47 C 2610.01 2937.81 2615.53 2937.57 2619.64 2934.88 C 2626.29 2930.54 2634.2 2928.24 2642.53 2928.24 C 2654.01 2928.24 2665.03 2932.67 2672.76 2940.4 C 2686.87 2954.5 2689.18 2976.83 2678.27 2993.5 C 2675.52 2997.7 2675.29 3003.05 2677.68 3007.46 C 2680.06 3011.87 2684.66 3014.62 2689.69 3014.62 L 2741.56 3014.62 C 2746.59 3014.62 2751.19 3011.87 2753.57 3007.45 C 2755.96 3003.06 2755.74 2997.71 2752.98 2993.51 C 2742.07 2976.85 2744.38 2954.52 2758.49 2940.4 C 2766.23 2932.67 2777.23 2928.24 2788.69 2928.24 C 2797.03 2928.24 2804.95 2930.54 2811.6 2934.9 C 2815.74 2937.58 2821.24 2937.8 2825.57 2935.48 C 2829.98 2933.1 2832.72 2928.5 2832.72 2923.47 L 2832.72 2871.59 C 2832.72 2866.57 2829.99 2861.98 2825.58 2859.59 C 2821.25 2857.25 2815.72 2857.46 2811.62 2860.17 C 2804.97 2864.52 2797.05 2866.81 2788.72 2866.81 C 2777.25 2866.81 2766.24 2862.38 2758.51 2854.66 C 2744.73 2840.87 2742.1 2819.6 2752.12 2802.92 C 2754.15 2800.82 2755.44 2797.54 2755.44 2794.09 C 2755.44 2786.56 2749.32 2780.43 2741.8 2780.43"/>
    <path id="path1648" style="fill:#00abd3;fill-opacity:1;fill-rule:nonzero;stroke:none" d="M 2745.09 2897.53 C 2745.09 2881.25 2731.91 2868.06 2715.63 2868.06 C 2699.35 2868.06 2686.17 2881.25 2686.17 2897.53 C 2686.17 2913.8 2699.35 2927 2715.63 2927 C 2731.91 2927 2745.09 2913.8 2745.09 2897.53"/>
    <path id="path1650" style="fill:#000000;fill-opacity:1;fill-rule:nonzero;stroke:none" d="M 2715.63 2924.5 C 2700.76 2924.5 2688.67 2912.4 2688.67 2897.53 C 2688.67 2882.66 2700.76 2870.56 2715.63 2870.56 C 2730.49 2870.56 2742.59 2882.66 2742.59 2897.53 C 2742.59 2912.4 2730.49 2924.5 2715.63 2924.5 Z M 2715.63 2865.56 C 2698 2865.56 2683.67 2879.9 2683.67 2897.53 C 2683.67 2915.15 2698 2929.5 2715.63 2929.5 C 2733.25 2929.5 2747.59 2915.15 2747.59 2897.53 C 2747.59 2879.9 2733.25 2865.56 2715.63 2865.56"/>
    <path id="path1652" style="fill:#5ae8ff;fill-opacity:1;fill-rule:nonzero;stroke:none" d="M 2731.28 2897.53 C 2731.28 2888.88 2724.28 2881.86 2715.63 2881.86 C 2706.98 2881.86 2699.98 2888.88 2699.98 2897.53 C 2699.98 2906.18 2706.98 2913.18 2715.63 2913.18 C 2724.28 2913.18 2731.28 2906.18 2731.28 2897.53"/>
    <path id="path1654" style="fill:#000000;fill-opacity:1;fill-rule:nonzero;stroke:none" d="M 2715.63 2910.68 C 2708.37 2910.68 2702.48 2904.78 2702.48 2897.53 C 2702.48 2890.27 2708.37 2884.36 2715.63 2884.36 C 2722.88 2884.36 2728.78 2890.27 2728.78 2897.53 C 2728.78 2904.78 2722.88 2910.68 2715.63 2910.68 Z M 2715.63 2879.36 C 2705.62 2879.36 2697.48 2887.51 2697.48 2897.53 C 2697.48 2907.54 2705.62 2915.68 2715.63 2915.68 C 2725.63 2915.68 2733.78 2907.54 2733.78 2897.53 C 2733.78 2887.51 2725.63 2879.36 2715.63 2879.36"/>
  </g>
</svg>