<?xml version="1.0" encoding="utf-8"?>
<svg viewBox="8.253000259399414 149.30999755859375 77.2959976196289 88.39299774169922" width="77.2959976196289" height="88.39299774169922" xmlns="http://www.w3.org/2000/svg">
  <g transform="matrix(0.12500000186264515, 0, 0, -0.12500000186264515, 0, 526.1375122070312)">
    <path id="path38" style="fill:#ddd8bf;fill-opacity:1;fill-rule:nonzero;stroke:none" d="M 615.977 2334.62 C 615.977 2319.64 504.668 2307.48 367.363 2307.48 C 230.063 2307.48 118.746 2319.64 118.746 2334.62 C 118.746 2349.61 230.063 2361.77 367.363 2361.77 C 504.668 2361.77 615.977 2349.61 615.977 2334.62"/>
    <path id="path42" style="fill:#ddd8bf;fill-opacity:1;fill-rule:nonzero;stroke:none" d="M 563.246 2334.62 C 563.246 2319.64 451.938 2307.48 314.633 2307.48 C 177.336 2307.48 66.027 2319.64 66.027 2334.62 C 66.027 2349.61 177.336 2361.77 314.633 2361.77 C 451.938 2361.77 563.246 2349.61 563.246 2334.62"/>
    <path id="path3076" style="fill:#f4d9bd;fill-opacity:1;fill-rule:nonzero;stroke:none" d="M 94.438 2426.97 C 94.438 2414.7 104.379 2404.74 116.656 2404.74 L 146.039 2404.74 C 158.301 2404.74 168.238 2414.7 168.238 2426.97 L 168.238 2456.32 C 168.238 2468.6 158.301 2478.55 146.039 2478.55 L 116.656 2478.55 C 104.379 2478.55 94.438 2468.6 94.438 2456.32 L 94.438 2426.97"/>
    <path id="path3078" style="fill:#000000;fill-opacity:1;fill-rule:nonzero;stroke:none" d="M 116.656 2476.05 C 105.781 2476.05 96.938 2467.2 96.938 2456.32 L 96.938 2426.97 C 96.938 2416.09 105.781 2407.24 116.656 2407.24 L 146.039 2407.24 C 156.898 2407.24 165.738 2416.09 165.738 2426.97 L 165.738 2456.32 C 165.738 2467.2 156.898 2476.05 146.039 2476.05 L 116.656 2476.05 Z M 146.039 2402.24 L 116.656 2402.24 C 103.027 2402.24 91.938 2413.33 91.938 2426.97 L 91.938 2456.32 C 91.938 2469.95 103.027 2481.05 116.656 2481.05 L 146.039 2481.05 C 159.656 2481.05 170.738 2469.95 170.738 2456.32 L 170.738 2426.97 C 170.738 2413.33 159.656 2402.24 146.039 2402.24"/>
    <path id="path3080" style="fill:#00abd3;fill-opacity:1;fill-rule:nonzero;stroke:none" d="M 120.922 2580.95 C 90.82 2528.19 90.199 2480.89 90.844 2469.33 L 169.441 2457.14 C 169.82 2561.09 189.703 2615.56 192.844 2626.99 C 192.844 2626.99 147.008 2626.65 120.922 2580.95"/>
    <path id="path3082" style="fill:#000000;fill-opacity:1;fill-rule:nonzero;stroke:none" d="M 93.262 2471.48 L 166.957 2460.05 C 167.621 2552.71 183.789 2605.75 189.137 2623.3 C 189.234 2623.62 189.332 2623.93 189.418 2624.23 C 178.48 2623.04 144.039 2616.4 123.098 2579.71 C 93.762 2528.3 92.973 2482.5 93.262 2471.48 Z M 169.441 2454.64 C 169.316 2454.64 169.188 2454.65 169.063 2454.67 L 90.465 2466.86 C 89.297 2467.04 88.414 2468.01 88.348 2469.19 C 88.035 2474.76 86.254 2525.23 118.75 2582.19 C 145.242 2628.61 192.348 2629.49 192.82 2629.49 C 192.832 2629.49 192.836 2629.49 192.844 2629.49 C 193.617 2629.49 194.352 2629.13 194.824 2628.51 C 195.305 2627.89 195.461 2627.08 195.254 2626.33 C 194.949 2625.23 194.496 2623.73 193.914 2621.84 C 188.57 2604.28 172.281 2550.85 171.941 2457.13 C 171.938 2456.4 171.621 2455.71 171.063 2455.24 C 170.609 2454.85 170.035 2454.64 169.441 2454.64"/>
    <path id="path3084" style="fill:#c9a88b;fill-opacity:1;fill-rule:nonzero;stroke:none" d="M 570.824 2602.81 C 583.105 2602.81 593.066 2592.87 593.066 2580.63 L 593.066 2551.21 C 593.066 2538.98 583.105 2529.04 570.824 2529.04 L 541.488 2529.04 C 529.199 2529.04 519.254 2538.98 519.254 2551.21 L 519.254 2580.63 C 519.254 2592.87 529.199 2602.81 541.488 2602.81 L 570.824 2602.81"/>
    <path id="path3086" style="fill:#000000;fill-opacity:1;fill-rule:nonzero;stroke:none" d="M 541.488 2600.31 C 530.605 2600.31 521.754 2591.48 521.754 2580.63 L 521.754 2551.21 C 521.754 2540.36 530.605 2531.54 541.488 2531.54 L 570.824 2531.54 C 581.711 2531.54 590.566 2540.36 590.566 2551.21 L 590.566 2580.63 C 590.566 2591.48 581.711 2600.31 570.824 2600.31 L 541.488 2600.31 Z M 570.824 2526.54 L 541.488 2526.54 C 527.852 2526.54 516.754 2537.61 516.754 2551.21 L 516.754 2580.63 C 516.754 2594.24 527.852 2605.31 541.488 2605.31 L 570.824 2605.31 C 584.469 2605.31 595.566 2594.24 595.566 2580.63 L 595.566 2551.21 C 595.566 2537.61 584.469 2526.54 570.824 2526.54"/>
    <path id="path3088" style="fill:#f4d9bd;fill-opacity:1;fill-rule:nonzero;stroke:none" d="M 534.078 2602.81 C 542.258 2602.81 548.887 2596.2 548.887 2588.01 L 548.887 2575.08 C 548.887 2566.91 542.258 2560.27 534.078 2560.27 L 534.078 2560.27 C 525.898 2560.27 519.254 2566.91 519.254 2575.08 L 519.254 2588.01 C 519.254 2596.2 525.898 2602.81 534.078 2602.81 L 534.078 2602.81"/>
    <path id="path3090" style="fill:#000000;fill-opacity:1;fill-rule:nonzero;stroke:none" d="M 534.078 2600.31 C 527.281 2600.31 521.754 2594.79 521.754 2588.01 L 521.754 2575.08 C 521.754 2568.29 527.281 2562.77 534.078 2562.77 C 540.863 2562.77 546.387 2568.29 546.387 2575.08 L 546.387 2588.01 C 546.387 2594.79 540.863 2600.31 534.078 2600.31 Z M 534.078 2557.77 C 524.527 2557.77 516.754 2565.53 516.754 2575.08 L 516.754 2588.01 C 516.754 2597.55 524.527 2605.31 534.078 2605.31 C 543.621 2605.31 551.387 2597.55 551.387 2588.01 L 551.387 2575.08 C 551.387 2565.53 543.621 2557.77 534.078 2557.77"/>
    <path id="path3092" style="fill:#00abd3;fill-opacity:1;fill-rule:nonzero;stroke:none" d="M 416.879 2555.09 C 469.648 2524.99 516.938 2524.37 528.5 2525 L 540.691 2603.61 C 436.742 2603.99 382.273 2623.87 370.828 2626.99 C 370.828 2626.99 371.184 2581.18 416.879 2555.09"/>
    <path id="path3094" style="fill:#000000;fill-opacity:1;fill-rule:nonzero;stroke:none" d="M 373.59 2623.57 C 374.781 2612.64 381.426 2578.21 418.121 2557.26 C 465.41 2530.29 507.445 2527.38 523.32 2527.38 C 523.324 2527.38 523.324 2527.38 523.328 2527.38 C 524.449 2527.38 525.461 2527.39 526.348 2527.42 L 537.777 2601.13 C 445.293 2601.8 392.195 2617.92 374.629 2623.26 C 374.27 2623.37 373.922 2623.47 373.59 2623.57 Z M 523.328 2522.38 C 523.324 2522.38 523.324 2522.38 523.32 2522.38 C 507.047 2522.38 463.969 2525.35 415.641 2552.92 C 369.23 2579.41 368.336 2626.5 368.328 2626.97 C 368.324 2627.75 368.688 2628.49 369.309 2628.97 C 369.918 2629.45 370.73 2629.61 371.488 2629.4 C 372.605 2629.1 374.141 2628.63 376.078 2628.04 C 393.66 2622.7 447.156 2606.45 540.703 2606.11 C 541.43 2606.11 542.125 2605.79 542.594 2605.23 C 543.066 2604.68 543.277 2603.95 543.164 2603.23 L 530.973 2524.62 C 530.793 2523.46 529.82 2522.57 528.637 2522.51 C 527.309 2522.43 525.527 2522.38 523.328 2522.38"/>
    <path id="path3096" style="fill:#5ae8ff;fill-opacity:1;fill-rule:nonzero;stroke:none" d="M 414.941 2342.97 C 415.039 2360.51 396.773 2608.69 392.555 2624.25 L 289.348 2654.25 L 186.145 2624.25 C 181.836 2608.57 151.063 2358.82 151.129 2342.97 L 414.941 2342.97"/>
    <path id="path3098" style="fill:#000000;fill-opacity:1;fill-rule:nonzero;stroke:none" d="M 153.727 2345.47 L 412.402 2345.47 C 411.484 2377.71 394.781 2598.82 390.43 2622.26 L 289.348 2651.64 L 188.242 2622.25 C 183.363 2598.81 155.574 2375.74 153.727 2345.47 Z M 414.941 2340.47 L 151.129 2340.47 C 149.75 2340.47 148.633 2341.58 148.629 2342.96 C 148.559 2360 179.727 2610.33 183.73 2624.91 C 183.961 2625.75 184.609 2626.4 185.445 2626.65 L 288.648 2656.65 C 289.105 2656.78 289.586 2656.78 290.043 2656.65 L 393.254 2626.65 C 394.086 2626.4 394.734 2625.74 394.965 2624.9 C 399.613 2607.76 417.516 2356.42 417.441 2342.95 C 417.434 2341.58 416.316 2340.47 414.941 2340.47"/>
    <path id="path3100" style="fill:#00abd3;fill-opacity:1;fill-rule:nonzero;stroke:none" d="M 392.555 2624.25 L 289.348 2654.25 L 186.145 2624.25 C 185.504 2621.92 184.273 2614.35 182.656 2603.26 C 203.777 2592.9 227.441 2586.93 252.555 2586.93 L 326.406 2586.93 C 351.133 2586.93 374.441 2592.73 395.32 2602.78 C 394.156 2614.16 393.191 2621.9 392.555 2624.25"/>
    <path id="path3102" style="fill:#000000;fill-opacity:1;fill-rule:nonzero;stroke:none" d="M 153.727 2345.47 L 412.402 2345.47 C 411.484 2377.71 394.781 2598.82 390.43 2622.26 L 289.348 2651.64 L 188.242 2622.25 C 183.363 2598.81 155.574 2375.74 153.727 2345.47 Z M 414.941 2340.47 L 151.129 2340.47 C 149.75 2340.47 148.633 2341.58 148.629 2342.96 C 148.559 2360 179.727 2610.33 183.73 2624.91 C 183.961 2625.75 184.609 2626.4 185.445 2626.65 L 288.648 2656.65 C 289.105 2656.78 289.586 2656.78 290.043 2656.65 L 393.254 2626.65 C 394.086 2626.4 394.734 2625.74 394.965 2624.9 C 399.613 2607.76 417.516 2356.42 417.441 2342.95 C 417.434 2341.58 416.316 2340.47 414.941 2340.47"/>
    <path id="path3104" style="fill:#00abd3;fill-opacity:1;fill-rule:nonzero;stroke:none" d="M 287.41 2560.62 L 324.16 2560.62 L 324.16 2645.01 L 287.41 2645.01 L 287.41 2560.62 Z"/>
    <path id="path3106" style="fill:#000000;fill-opacity:1;fill-rule:nonzero;stroke:none" d="M 289.91 2563.12 L 321.66 2563.12 L 321.66 2642.51 L 289.91 2642.51 L 289.91 2563.12 Z M 324.16 2558.12 L 287.41 2558.12 C 286.031 2558.12 284.91 2559.24 284.91 2560.62 L 284.91 2645.01 C 284.91 2646.39 286.031 2647.51 287.41 2647.51 L 324.16 2647.51 C 325.543 2647.51 326.66 2646.39 326.66 2645.01 L 326.66 2560.62 C 326.66 2559.24 325.543 2558.12 324.16 2558.12"/>
    <path id="path3108" style="fill:#ffde73;fill-opacity:1;fill-rule:nonzero;stroke:none" d="M 155.188 2447.61 L 414.942 2447.61 L 414.942 2484.352 L 155.188 2484.352 L 155.188 2447.61 Z"/>
    <path id="path3110" style="fill:#000000;fill-opacity:1;fill-rule:nonzero;stroke:none" d="M 157.688 2450.11 L 412.441 2450.11 L 412.441 2481.85 L 157.688 2481.85 L 157.688 2450.11 Z M 414.941 2445.11 L 155.188 2445.11 C 153.805 2445.11 152.688 2446.22 152.688 2447.61 L 152.688 2484.35 C 152.688 2485.73 153.805 2486.85 155.188 2486.85 L 414.941 2486.85 C 416.324 2486.85 417.441 2485.73 417.441 2484.35 L 417.441 2447.61 C 417.441 2446.22 416.324 2445.11 414.941 2445.11"/>
    <path id="path3112" style="fill:#ffb103;fill-opacity:1;fill-rule:nonzero;stroke:none" d="M 363.523 2465.97 C 363.523 2448 348.965 2433.46 330.996 2433.46 C 313.031 2433.46 298.477 2448 298.477 2465.97 C 298.477 2483.92 313.031 2498.49 330.996 2498.49 C 348.965 2498.49 363.523 2483.92 363.523 2465.97"/>
    <path id="path3114" style="fill:#000000;fill-opacity:1;fill-rule:nonzero;stroke:none" d="M 330.996 2495.99 C 314.441 2495.99 300.977 2482.52 300.977 2465.97 C 300.977 2449.42 314.441 2435.96 330.996 2435.96 C 347.555 2435.96 361.023 2449.42 361.023 2465.97 C 361.023 2482.52 347.555 2495.99 330.996 2495.99 Z M 330.996 2430.96 C 311.684 2430.96 295.977 2446.66 295.977 2465.97 C 295.977 2485.28 311.684 2500.99 330.996 2500.99 C 350.313 2500.99 366.023 2485.28 366.023 2465.97 C 366.023 2446.66 350.313 2430.96 330.996 2430.96"/>
    <path id="path3116" style="fill:#eb4900;fill-opacity:1;fill-rule:nonzero;stroke:none" d="M 346.672 2465.97 C 346.672 2457.32 339.652 2450.32 330.996 2450.32 C 322.348 2450.32 315.328 2457.32 315.328 2465.97 C 315.328 2474.64 322.348 2481.64 330.996 2481.64 C 339.652 2481.64 346.672 2474.64 346.672 2465.97"/>
    <path id="path3118" style="fill:#000000;fill-opacity:1;fill-rule:nonzero;stroke:none" d="M 330.996 2479.14 C 323.734 2479.14 317.828 2473.23 317.828 2465.97 C 317.828 2458.72 323.734 2452.82 330.996 2452.82 C 338.262 2452.82 344.172 2458.72 344.172 2465.97 C 344.172 2473.23 338.262 2479.14 330.996 2479.14 Z M 330.996 2447.82 C 320.977 2447.82 312.828 2455.96 312.828 2465.97 C 312.828 2475.99 320.977 2484.14 330.996 2484.14 C 341.016 2484.14 349.172 2475.99 349.172 2465.97 C 349.172 2455.96 341.016 2447.82 330.996 2447.82"/>
    <path id="path3120" style="fill:#f4d9bd;fill-opacity:1;fill-rule:nonzero;stroke:none" d="M 485.625 2776.15 C 485.625 2688.22 414.352 2616.93 326.406 2616.93 L 252.555 2616.93 C 164.609 2616.93 93.32 2688.22 93.32 2776.15 L 93.32 2776.15 C 93.32 2864.09 164.609 2935.39 252.555 2935.39 L 326.406 2935.39 C 414.352 2935.39 485.625 2864.09 485.625 2776.15 L 485.625 2776.15"/>
    <path id="path3122" style="fill:#000000;fill-opacity:1;fill-rule:nonzero;stroke:none" d="M 252.555 2932.89 C 166.133 2932.89 95.82 2862.58 95.82 2776.15 C 95.82 2689.73 166.133 2619.43 252.555 2619.43 L 326.406 2619.43 C 412.82 2619.43 483.125 2689.73 483.125 2776.15 C 483.125 2862.58 412.82 2932.89 326.406 2932.89 L 252.555 2932.89 Z M 326.406 2614.43 L 252.555 2614.43 C 163.375 2614.43 90.82 2686.98 90.82 2776.15 C 90.82 2865.33 163.375 2937.89 252.555 2937.89 L 326.406 2937.89 C 415.574 2937.89 488.125 2865.33 488.125 2776.15 C 488.125 2686.98 415.574 2614.43 326.406 2614.43"/>
    <path id="path3124" style="fill:#ffa364;fill-opacity:1;fill-rule:nonzero;stroke:none" d="M 361.309 2713.26 L 361.539 2714.23 C 361.539 2728.4 350.078 2739.86 335.914 2739.86 L 335.914 2721.41 C 326.848 2721.41 319.496 2714.06 319.496 2704.99 C 319.496 2695.94 326.848 2688.59 335.914 2688.59 L 355.395 2688.59 C 362.613 2688.59 368.473 2694.44 368.473 2701.66 C 368.473 2706.74 365.543 2711.1 361.309 2713.26"/>
    <path id="path3126" style="fill:#000000;fill-opacity:1;fill-rule:nonzero;stroke:none" d="M 338.414 2737.22 L 338.414 2721.41 C 338.414 2720.03 337.297 2718.91 335.914 2718.91 C 328.242 2718.91 321.996 2712.66 321.996 2704.99 C 321.996 2697.33 328.242 2691.09 335.914 2691.09 L 355.395 2691.09 C 361.227 2691.09 365.973 2695.83 365.973 2701.66 C 365.973 2705.61 363.75 2709.21 360.172 2711.03 C 359.145 2711.56 358.613 2712.71 358.879 2713.84 L 359.105 2714.81 C 359.043 2726.18 349.996 2735.97 338.414 2737.22 Z M 355.395 2686.09 L 335.914 2686.09 C 325.484 2686.09 316.996 2694.57 316.996 2704.99 C 316.996 2714.58 324.16 2722.52 333.414 2723.74 L 333.414 2739.86 C 333.414 2741.24 334.531 2742.36 335.914 2742.36 C 351.313 2742.36 363.863 2729.92 364.039 2714.55 C 368.355 2711.68 370.973 2706.89 370.973 2701.66 C 370.973 2693.07 363.984 2686.09 355.395 2686.09"/>
    <path id="path3128" style="fill:#f4d9bd;fill-opacity:1;fill-rule:nonzero;stroke:none" d="M 361.938 2701.22 C 361.938 2697.25 358.707 2694.02 354.727 2694.02 C 350.746 2694.02 347.523 2697.25 347.523 2701.22 C 347.523 2705.21 350.746 2708.43 354.727 2708.43 C 358.707 2708.43 361.938 2705.21 361.938 2701.22"/>
    <path id="path3130" style="fill:#f2f1e7;fill-opacity:1;fill-rule:nonzero;stroke:none" d="M 467.633 2856.88 C 439.602 2910.72 383.398 2956.83 318.484 2956.83 L 264.063 2956.83 C 171.191 2956.83 86.633 2872.26 86.633 2779.38 C 86.637 2753.43 86.633 2614.13 86.633 2614.13 L 161.344 2578.96 L 161.344 2766.81 C 161.344 2857.07 229.391 2919.33 341.582 2851.71 C 403.098 2898.88 440.582 2877.35 467.633 2856.88"/>
    <path id="path3132" style="fill:#000000;fill-opacity:1;fill-rule:nonzero;stroke:none" d="M 89.133 2615.72 L 158.844 2582.9 L 158.844 2766.81 C 158.844 2836.17 197.328 2882.76 254.609 2882.76 C 280.941 2882.76 310.137 2873.33 341.418 2854.72 C 366.176 2873.42 388.738 2882.52 410.355 2882.52 C 430.105 2882.52 445.961 2874.95 459.941 2865.49 C 434.172 2908.48 384.039 2954.33 318.484 2954.33 L 264.063 2954.33 C 172.512 2954.33 89.133 2870.95 89.133 2779.38 L 89.133 2615.72 Z M 161.344 2576.46 C 160.98 2576.46 160.613 2576.54 160.277 2576.7 L 85.566 2611.87 C 84.691 2612.28 84.133 2613.17 84.133 2614.13 L 84.133 2779.38 C 84.133 2873.56 169.895 2959.33 264.063 2959.33 L 318.484 2959.33 C 390.969 2959.33 445.051 2905.23 469.531 2858.64 C 469.98 2858.19 470.258 2857.57 470.258 2856.88 C 470.258 2855.47 468.93 2854.29 467.695 2854.38 C 467.012 2854.29 466.586 2854.53 466.121 2854.89 C 450.59 2866.64 433.086 2877.52 410.355 2877.52 C 389.492 2877.52 367.488 2868.43 343.105 2849.72 C 342.285 2849.1 341.168 2849.03 340.293 2849.57 C 309.254 2868.27 280.426 2877.76 254.609 2877.76 C 200.316 2877.76 163.844 2833.17 163.844 2766.81 L 163.844 2578.96 C 163.844 2578.11 163.402 2577.31 162.68 2576.85 C 162.273 2576.6 161.813 2576.46 161.344 2576.46"/>
    <path id="path3134" style="fill:#ffb103;fill-opacity:1;fill-rule:nonzero;stroke:none" d="M 91.715 2831.09 L 481.93 2831.09 L 481.93 2867.039 L 91.715 2867.039 L 91.715 2831.09 Z"/>
    <path id="path3136" style="fill:#000000;fill-opacity:1;fill-rule:nonzero;stroke:none" d="M 94.215 2833.59 L 479.43 2833.59 L 479.43 2864.54 L 94.215 2864.54 L 94.215 2833.59 Z M 481.93 2828.59 L 91.715 2828.59 C 90.332 2828.59 89.215 2829.71 89.215 2831.09 L 89.215 2867.04 C 89.215 2868.43 90.332 2869.54 91.715 2869.54 L 481.93 2869.54 C 483.313 2869.54 484.43 2868.43 484.43 2867.04 L 484.43 2831.09 C 484.43 2829.71 483.313 2828.59 481.93 2828.59"/>
    <path id="path3138" style="fill:#2a5b6a;fill-opacity:1;fill-rule:nonzero;stroke:none" d="M 237.664 2772.26 C 223.316 2772.26 211.715 2760.62 211.715 2746.29 L 263.445 2746.29 C 263.445 2760.62 251.895 2772.26 237.664 2772.26"/>
    <path id="path3140" style="fill:#000000;fill-opacity:1;fill-rule:nonzero;stroke:none" d="M 214.348 2748.79 L 260.816 2748.79 C 259.574 2760.56 249.668 2769.76 237.664 2769.76 C 225.574 2769.76 215.598 2760.56 214.348 2748.79 Z M 263.445 2743.79 L 211.715 2743.79 C 210.332 2743.79 209.215 2744.91 209.215 2746.29 C 209.215 2761.99 221.977 2774.76 237.664 2774.76 C 253.262 2774.76 265.945 2761.99 265.945 2746.29 C 265.945 2744.91 264.828 2743.79 263.445 2743.79"/>
    <path id="path3142" style="fill:#f2f1e7;fill-opacity:1;fill-rule:nonzero;stroke:none" d="M 305.691 2648.96 C 320.059 2648.96 331.648 2660.59 331.648 2674.92 L 279.918 2674.92 C 279.918 2660.59 291.469 2648.96 305.691 2648.96"/>
    <path id="path3144" style="fill:#000000;fill-opacity:1;fill-rule:nonzero;stroke:none" d="M 282.551 2672.42 C 283.789 2660.65 293.695 2651.46 305.691 2651.46 C 317.781 2651.46 327.766 2660.65 329.02 2672.42 L 282.551 2672.42 Z M 305.691 2646.46 C 290.102 2646.46 277.418 2659.23 277.418 2674.92 C 277.418 2676.3 278.535 2677.42 279.918 2677.42 L 331.648 2677.42 C 333.031 2677.42 334.148 2676.3 334.148 2674.92 C 334.148 2659.23 321.387 2646.46 305.691 2646.46"/>
    <path id="path3146" style="fill:#2a5b6a;fill-opacity:1;fill-rule:nonzero;stroke:none" d="M 426.406 2772.26 C 412.063 2772.26 400.508 2760.62 400.508 2746.29 L 452.234 2746.29 C 452.234 2760.62 440.648 2772.26 426.406 2772.26"/>
    <path id="path3148" style="fill:#000000;fill-opacity:1;fill-rule:nonzero;stroke:none" d="M 403.141 2748.79 L 449.605 2748.79 C 448.359 2760.56 438.434 2769.76 426.406 2769.76 C 414.348 2769.76 404.391 2760.56 403.141 2748.79 Z M 452.234 2743.79 L 400.508 2743.79 C 399.125 2743.79 398.008 2744.91 398.008 2746.29 C 398.008 2761.99 410.746 2774.76 426.406 2774.76 C 442.027 2774.76 454.734 2761.99 454.734 2746.29 C 454.734 2744.91 453.617 2743.79 452.234 2743.79"/>
    <path id="path3150" style="fill:#f2f1e7;fill-opacity:1;fill-rule:nonzero;stroke:none" d="M 288.75 2765.14 L 186.43 2777.24 L 186.43 2805.68 L 288.75 2811.41 L 288.75 2765.14"/>
    <path id="path3152" style="fill:#000000;fill-opacity:1;fill-rule:nonzero;stroke:none" d="M 188.93 2779.46 L 286.25 2767.96 L 286.25 2808.77 L 188.93 2803.31 L 188.93 2779.46 Z M 288.75 2762.64 C 288.652 2762.64 288.555 2762.65 288.457 2762.66 L 186.137 2774.76 C 184.879 2774.91 183.93 2775.97 183.93 2777.24 L 183.93 2805.68 C 183.93 2807.01 184.965 2808.1 186.289 2808.17 L 288.609 2813.91 C 289.293 2813.93 289.965 2813.7 290.469 2813.23 C 290.969 2812.76 291.25 2812.1 291.25 2811.41 L 291.25 2765.14 C 291.25 2764.43 290.941 2763.75 290.41 2763.27 C 289.949 2762.87 289.359 2762.64 288.75 2762.64"/>
    <path id="path3154" style="fill:#f2f1e7;fill-opacity:1;fill-rule:nonzero;stroke:none" d="M 385.074 2765.14 L 467.668 2777.24 L 467.668 2805.77 L 385.074 2811.4 L 385.074 2765.14"/>
    <path id="path3156" style="fill:#000000;fill-opacity:1;fill-rule:nonzero;stroke:none" d="M 387.574 2808.72 L 387.574 2768.03 L 465.168 2779.4 L 465.168 2803.44 L 387.574 2808.72 Z M 385.074 2762.64 C 384.477 2762.64 383.895 2762.85 383.438 2763.25 C 382.891 2763.72 382.574 2764.41 382.574 2765.14 L 382.574 2811.4 C 382.574 2812.09 382.859 2812.75 383.363 2813.23 C 383.879 2813.7 384.57 2813.94 385.242 2813.89 L 467.836 2808.27 C 469.145 2808.18 470.168 2807.08 470.168 2805.77 L 470.168 2777.24 C 470.168 2776 469.258 2774.94 468.027 2774.76 L 385.434 2762.66 C 385.316 2762.64 385.195 2762.64 385.074 2762.64"/>
    <path id="path3158" style="fill:#ffde73;fill-opacity:1;fill-rule:nonzero;stroke:none" d="M 119.941 2678.71 C 119.941 2670.07 112.926 2663.06 104.27 2663.06 C 95.613 2663.06 88.598 2670.07 88.598 2678.71 C 88.598 2687.39 95.613 2694.38 104.27 2694.38 L 104.273 2694.38 L 104.273 2710.16 L 104.27 2710.16 C 86.914 2710.16 72.828 2696.1 72.828 2678.71 C 72.828 2661.36 86.914 2647.3 104.27 2647.3 C 121.641 2647.3 135.719 2661.36 135.719 2678.71 L 119.941 2678.71"/>
    <path id="path3160" style="fill:#000000;fill-opacity:1;fill-rule:nonzero;stroke:none" d="M 101.773 2707.56 C 86.977 2706.28 75.328 2693.84 75.328 2678.71 C 75.328 2662.77 88.309 2649.8 104.27 2649.8 C 119.391 2649.8 131.836 2661.43 133.109 2676.21 L 122.27 2676.21 C 121.047 2667.38 113.438 2660.56 104.27 2660.56 C 94.246 2660.56 86.098 2668.7 86.098 2678.71 C 86.098 2687.88 92.93 2695.49 101.77 2696.71 L 101.773 2707.56 Z M 104.27 2644.8 C 85.551 2644.8 70.328 2660.01 70.328 2678.71 C 70.328 2697.43 85.551 2712.66 104.27 2712.66 C 105.648 2712.66 106.77 2711.55 106.77 2710.16 L 106.773 2694.38 C 106.773 2693.71 106.508 2693.08 106.039 2692.61 C 105.57 2692.14 104.938 2691.88 104.273 2691.88 C 97.008 2691.88 91.098 2685.97 91.098 2678.71 C 91.098 2671.46 97.008 2665.56 104.27 2665.56 C 111.531 2665.56 117.441 2671.46 117.441 2678.71 C 117.441 2680.1 118.559 2681.21 119.941 2681.21 L 135.719 2681.21 C 137.102 2681.21 138.219 2680.1 138.219 2678.71 C 138.219 2660.01 122.988 2644.8 104.27 2644.8"/>
    <path id="path3162" style="fill:#f4d9bd;fill-opacity:1;fill-rule:nonzero;stroke:none" d="M 99.898 2831.28 L 99.898 2704.61 C 99.898 2688.31 113.121 2675.06 129.441 2675.06 C 145.766 2675.06 159 2688.31 159 2704.61 L 99.898 2831.28"/>
    <path id="path3164" style="fill:#000000;fill-opacity:1;fill-rule:nonzero;stroke:none" d="M 102.398 2820.01 L 102.398 2704.61 C 102.398 2689.7 114.531 2677.56 129.441 2677.56 C 144.18 2677.56 156.207 2689.4 156.492 2704.07 L 102.398 2820.01 Z M 129.441 2672.56 C 111.773 2672.56 97.398 2686.94 97.398 2704.61 L 97.398 2831.28 C 97.398 2832.45 98.215 2833.47 99.355 2833.72 C 100.504 2833.98 101.672 2833.41 102.164 2832.34 L 161.266 2705.67 C 161.422 2705.34 161.5 2704.98 161.5 2704.61 C 161.5 2686.94 147.117 2672.56 129.441 2672.56"/>
    <path id="path3166" style="fill:#ffde73;fill-opacity:1;fill-rule:nonzero;stroke:none" d="M 360.828 2847.74 C 360.828 2829.78 346.277 2815.24 328.301 2815.24 C 310.348 2815.24 295.785 2829.78 295.785 2847.74 C 295.785 2865.72 310.348 2880.28 328.301 2880.28 C 346.277 2880.28 360.828 2865.72 360.828 2847.74"/>
    <path id="path3168" style="fill:#000000;fill-opacity:1;fill-rule:nonzero;stroke:none" d="M 328.301 2877.78 C 311.754 2877.78 298.285 2864.31 298.285 2847.74 C 298.285 2831.2 311.754 2817.74 328.301 2817.74 C 344.859 2817.74 358.328 2831.2 358.328 2847.74 C 358.328 2864.31 344.859 2877.78 328.301 2877.78 Z M 328.301 2812.74 C 308.992 2812.74 293.285 2828.44 293.285 2847.74 C 293.285 2867.06 308.992 2882.78 328.301 2882.78 C 347.617 2882.78 363.328 2867.06 363.328 2847.74 C 363.328 2828.44 347.617 2812.74 328.301 2812.74"/>
    <path id="path3170" style="fill:#eb4900;fill-opacity:1;fill-rule:nonzero;stroke:none" d="M 343.984 2847.74 C 343.984 2839.1 336.965 2832.11 328.301 2832.11 C 319.652 2832.11 312.641 2839.1 312.641 2847.74 C 312.641 2856.41 319.652 2863.44 328.301 2863.44 C 336.965 2863.44 343.984 2856.41 343.984 2847.74"/>
    <path id="path3172" style="fill:#000000;fill-opacity:1;fill-rule:nonzero;stroke:none" d="M 328.301 2860.94 C 321.047 2860.94 315.141 2855.02 315.141 2847.74 C 315.141 2840.5 321.047 2834.61 328.301 2834.61 C 335.57 2834.61 341.484 2840.5 341.484 2847.74 C 341.484 2855.02 335.57 2860.94 328.301 2860.94 Z M 328.301 2829.61 C 318.285 2829.61 310.141 2837.74 310.141 2847.74 C 310.141 2857.78 318.285 2865.94 328.301 2865.94 C 338.324 2865.94 346.484 2857.78 346.484 2847.74 C 346.484 2837.74 338.324 2829.61 328.301 2829.61"/>
    <path id="path3174" style="fill:#00abd3;fill-opacity:1;fill-rule:nonzero;stroke:none" d="M 551.648 2342.97 L 582.964 2342.97 L 582.964 2807.29 L 551.648 2807.29 L 551.648 2342.97 Z"/>
    <path id="path3176" style="fill:#000000;fill-opacity:1;fill-rule:nonzero;stroke:none" d="M 554.148 2345.47 L 580.465 2345.47 L 580.465 2804.79 L 554.148 2804.79 L 554.148 2345.47 Z M 582.965 2340.47 L 551.648 2340.47 C 550.27 2340.47 549.148 2341.59 549.148 2342.97 L 549.148 2807.29 C 549.148 2808.67 550.27 2809.79 551.648 2809.79 L 582.965 2809.79 C 584.348 2809.79 585.465 2808.67 585.465 2807.29 L 585.465 2342.97 C 585.465 2341.59 584.348 2340.47 582.965 2340.47"/>
    <path id="path3178" style="fill:#ffde73;fill-opacity:1;fill-rule:nonzero;stroke:none" d="M 569.668 2663.24 L 564.949 2663.24 C 553.418 2663.24 544.063 2672.58 544.063 2684.13 L 544.063 2706.13 C 544.063 2717.66 553.418 2727.02 564.949 2727.02 L 569.668 2727.02 C 581.199 2727.02 590.559 2717.66 590.559 2706.13 L 590.559 2684.13 C 590.559 2672.58 581.199 2663.24 569.668 2663.24"/>
    <path id="path3180" style="fill:#000000;fill-opacity:1;fill-rule:nonzero;stroke:none" d="M 564.949 2724.52 C 554.809 2724.52 546.563 2716.27 546.563 2706.13 L 546.563 2684.13 C 546.563 2673.99 554.809 2665.74 564.949 2665.74 L 569.668 2665.74 C 579.809 2665.74 588.059 2673.99 588.059 2684.13 L 588.059 2706.13 C 588.059 2716.27 579.809 2724.52 569.668 2724.52 L 564.949 2724.52 Z M 569.668 2660.74 L 564.949 2660.74 C 552.055 2660.74 541.563 2671.23 541.563 2684.13 L 541.563 2706.13 C 541.563 2719.03 552.055 2729.52 564.949 2729.52 L 569.668 2729.52 C 582.563 2729.52 593.059 2719.03 593.059 2706.13 L 593.059 2684.13 C 593.059 2671.23 582.563 2660.74 569.668 2660.74"/>
    <path id="path3182" style="fill:#ffde73;fill-opacity:1;fill-rule:nonzero;stroke:none" d="M 569.668 2417.32 L 564.949 2417.32 C 553.418 2417.32 544.063 2426.67 544.063 2438.21 L 544.063 2460.22 C 544.063 2471.76 553.418 2481.1 564.949 2481.1 L 569.668 2481.1 C 581.199 2481.1 590.559 2471.76 590.559 2460.22 L 590.559 2438.21 C 590.559 2426.67 581.199 2417.32 569.668 2417.32"/>
    <path id="path3184" style="fill:#000000;fill-opacity:1;fill-rule:nonzero;stroke:none" d="M 564.949 2478.6 C 554.809 2478.6 546.563 2470.35 546.563 2460.22 L 546.563 2438.21 C 546.563 2428.07 554.809 2419.82 564.949 2419.82 L 569.668 2419.82 C 579.809 2419.82 588.059 2428.07 588.059 2438.21 L 588.059 2460.22 C 588.059 2470.35 579.809 2478.6 569.668 2478.6 L 564.949 2478.6 Z M 569.668 2414.82 L 564.949 2414.82 C 552.055 2414.82 541.563 2425.31 541.563 2438.21 L 541.563 2460.22 C 541.563 2473.11 552.055 2483.6 564.949 2483.6 L 569.668 2483.6 C 582.563 2483.6 593.059 2473.11 593.059 2460.22 L 593.059 2438.21 C 593.059 2425.31 582.563 2414.82 569.668 2414.82"/>
    <path id="path3186" style="fill:#ffb103;fill-opacity:1;fill-rule:nonzero;stroke:none" d="M 600.508 2930.75 C 581.441 2949.84 579.023 2979.26 593.23 3000.97 L 541.363 3000.97 C 555.574 2979.26 553.176 2949.82 534.094 2930.75 C 515.004 2911.65 485.57 2909.26 463.852 2923.47 L 463.852 2871.59 C 485.57 2885.8 515.004 2883.39 534.078 2864.31 C 553.152 2845.23 555.574 2815.8 541.363 2794.09 L 593.242 2794.09 C 579.023 2815.8 581.441 2845.21 600.523 2864.31 C 619.613 2883.39 649.031 2885.8 670.746 2871.59 L 670.746 2923.47 C 649.031 2909.26 619.594 2911.65 600.508 2930.75"/>
    <path id="path3188" style="fill:#000000;fill-opacity:1;fill-rule:nonzero;stroke:none" d="M 545.777 2796.59 L 588.828 2796.59 C 576.48 2819.1 580.352 2847.66 598.754 2866.07 C 609.801 2877.12 624.488 2883.2 640.102 2883.2 C 650.016 2883.2 659.656 2880.72 668.246 2876 L 668.246 2919.06 C 659.652 2914.33 650.004 2911.86 640.082 2911.86 C 624.465 2911.86 609.773 2917.94 598.738 2928.98 C 580.344 2947.4 576.477 2975.96 588.816 2998.47 L 545.777 2998.47 C 558.141 2975.94 554.273 2947.38 535.859 2928.98 C 524.824 2917.94 510.141 2911.86 494.516 2911.86 C 484.602 2911.86 474.949 2914.33 466.352 2919.06 L 466.352 2876 C 474.945 2880.72 484.59 2883.2 494.508 2883.2 C 510.129 2883.2 524.809 2877.12 535.844 2866.07 C 554.254 2847.67 558.125 2819.11 545.777 2796.59 Z M 593.367 2791.59 C 593.32 2791.59 593.281 2791.59 593.242 2791.59 L 541.363 2791.59 C 540.445 2791.59 539.602 2792.09 539.164 2792.9 C 538.727 2793.71 538.77 2794.69 539.273 2795.46 C 553.051 2816.52 550.129 2844.72 532.309 2862.54 C 522.219 2872.64 508.793 2878.2 494.508 2878.2 C 484.047 2878.2 473.922 2875.19 465.219 2869.5 C 464.449 2868.99 463.469 2868.94 462.668 2869.39 C 461.855 2869.82 461.352 2870.67 461.352 2871.59 L 461.352 2923.47 C 461.352 2924.39 461.855 2925.23 462.66 2925.67 C 463.469 2926.12 464.449 2926.08 465.219 2925.56 C 473.926 2919.87 484.059 2916.86 494.516 2916.86 C 508.805 2916.86 522.23 2922.42 532.324 2932.52 C 550.141 2950.32 553.063 2978.53 539.273 2999.6 C 538.77 3000.37 538.727 3001.35 539.164 3002.16 C 539.602 3002.97 540.445 3003.47 541.363 3003.47 L 593.23 3003.47 C 594.148 3003.47 594.996 3002.97 595.43 3002.16 C 595.867 3001.35 595.824 3000.37 595.32 2999.6 C 581.547 2978.55 584.473 2950.34 602.273 2932.52 C 612.367 2922.42 625.797 2916.86 640.082 2916.86 C 650.547 2916.86 660.676 2919.87 669.379 2925.56 C 670.152 2926.08 671.117 2926.12 671.938 2925.67 C 672.742 2925.23 673.246 2924.39 673.246 2923.47 L 673.246 2871.59 C 673.246 2870.67 672.742 2869.82 671.934 2869.39 C 671.117 2868.94 670.133 2868.99 669.379 2869.5 C 660.68 2875.19 650.559 2878.2 640.102 2878.2 C 625.82 2878.2 612.395 2872.64 602.289 2862.54 C 584.629 2844.87 581.602 2816.98 594.988 2795.99 C 595.527 2795.54 595.867 2794.85 595.867 2794.09 C 595.867 2792.71 594.746 2791.59 593.367 2791.59"/>
    <path id="path3190" style="fill:#ffde73;fill-opacity:1;fill-rule:nonzero;stroke:none" d="M 558.715 2805.23 L 575.891 2805.23 C 568.918 2828.43 574.887 2854.43 592.652 2872.19 C 605.32 2884.86 622.168 2891.86 640.094 2891.86 C 646.77 2891.86 653.328 2890.88 659.609 2888.96 L 659.609 2906.09 C 653.328 2904.17 646.77 2903.22 640.094 2903.22 C 622.164 2903.22 605.32 2910.19 592.641 2922.88 C 574.867 2940.65 568.895 2966.62 575.883 2989.84 L 558.727 2989.84 C 565.703 2966.62 559.727 2940.62 541.965 2922.88 C 529.297 2910.19 512.441 2903.22 494.508 2903.22 C 487.828 2903.22 481.285 2904.17 474.988 2906.09 L 474.988 2888.96 C 481.285 2890.88 487.828 2891.86 494.508 2891.86 C 512.426 2891.86 529.277 2884.86 541.949 2872.19 C 559.727 2854.43 565.684 2828.43 558.715 2805.23 Z M 593.469 2782.93 C 593.391 2782.93 593.32 2782.95 593.242 2782.93 L 541.363 2782.93 C 537.262 2782.93 533.508 2785.17 531.547 2788.79 C 529.605 2792.38 529.785 2796.77 532.027 2800.19 C 543.578 2817.85 541.129 2841.51 526.191 2856.43 C 511.531 2871.08 487.191 2873.54 469.945 2862.26 C 466.531 2860.02 462.141 2859.84 458.551 2861.79 C 454.957 2863.73 452.703 2867.51 452.703 2871.59 L 452.703 2923.47 C 452.703 2927.55 454.957 2931.32 458.551 2933.27 C 462.141 2935.21 466.531 2935.03 469.945 2932.79 C 487.191 2921.51 511.543 2923.98 526.191 2938.64 C 541.148 2953.57 543.594 2977.22 532.027 2994.88 C 529.801 2998.29 529.605 3002.68 531.547 3006.27 C 533.508 3009.88 537.27 3012.12 541.363 3012.12 L 593.23 3012.12 C 597.34 3012.12 601.094 3009.88 603.035 3006.27 C 604.996 3002.68 604.801 2998.29 602.563 2994.88 C 591.008 2977.23 593.469 2953.57 608.391 2938.64 C 623.066 2923.96 647.406 2921.51 664.648 2932.81 C 668.07 2935.03 672.445 2935.21 676.051 2933.27 C 679.656 2931.34 681.895 2927.57 681.895 2923.47 L 681.895 2871.59 C 681.895 2867.51 679.656 2863.73 676.051 2861.79 C 672.457 2859.84 668.082 2860.02 664.652 2862.26 C 647.422 2873.52 623.082 2871.08 608.406 2856.43 C 593.887 2841.89 591.152 2819.1 601.656 2801.63 C 603.492 2799.66 604.609 2797.01 604.609 2794.09 C 604.609 2787.93 599.617 2782.93 593.469 2782.93"/>
    <path id="path3192" style="fill:#000000;fill-opacity:1;fill-rule:nonzero;stroke:none" d="M 561.996 2807.73 L 572.605 2807.73 C 566.672 2831.49 573.52 2856.6 590.883 2873.96 C 604.039 2887.11 621.516 2894.36 640.094 2894.36 C 645.859 2894.36 651.566 2893.65 657.109 2892.25 L 657.109 2902.8 C 651.625 2901.42 645.918 2900.72 640.094 2900.72 C 621.492 2900.72 604.016 2907.96 590.875 2921.11 C 573.508 2938.47 566.656 2963.58 572.602 2987.34 L 562.008 2987.34 C 567.949 2963.56 561.098 2938.46 543.73 2921.11 C 530.605 2907.96 513.125 2900.72 494.508 2900.72 C 488.691 2900.72 482.984 2901.42 477.488 2902.8 L 477.488 2892.25 C 483.043 2893.65 488.75 2894.36 494.508 2894.36 C 513.086 2894.36 530.563 2887.11 543.715 2873.96 C 561.078 2856.61 567.934 2831.51 561.996 2807.73 Z M 575.891 2802.73 L 558.715 2802.73 C 557.926 2802.73 557.184 2803.1 556.711 2803.73 C 556.238 2804.37 556.094 2805.19 556.324 2805.95 C 563.215 2828.89 557.027 2853.59 540.18 2870.42 C 527.969 2882.64 511.746 2889.36 494.508 2889.36 C 488.121 2889.36 481.797 2888.42 475.719 2886.57 C 474.961 2886.34 474.137 2886.48 473.5 2886.96 C 472.867 2887.43 472.488 2888.17 472.488 2888.96 L 472.488 2906.09 C 472.488 2906.88 472.867 2907.63 473.5 2908.1 C 474.141 2908.58 474.965 2908.72 475.723 2908.48 C 481.719 2906.65 488.035 2905.72 494.508 2905.72 C 511.785 2905.72 528.012 2912.44 540.195 2924.65 C 557.047 2941.47 563.227 2966.18 556.332 2989.12 C 556.105 2989.88 556.25 2990.7 556.719 2991.33 C 557.191 2991.96 557.934 2992.34 558.727 2992.34 L 575.883 2992.34 C 576.676 2992.34 577.418 2991.96 577.891 2991.33 C 578.363 2990.69 578.508 2989.87 578.277 2989.11 C 571.379 2966.19 577.559 2941.49 594.41 2924.65 C 606.605 2912.44 622.828 2905.72 640.094 2905.72 C 646.578 2905.72 652.895 2906.65 658.879 2908.48 C 659.645 2908.7 660.461 2908.57 661.094 2908.1 C 661.734 2907.63 662.109 2906.88 662.109 2906.09 L 662.109 2888.96 C 662.109 2888.17 661.734 2887.43 661.098 2886.96 C 660.453 2886.48 659.629 2886.35 658.883 2886.57 C 652.813 2888.42 646.492 2889.36 640.094 2889.36 C 622.852 2889.36 606.633 2882.64 594.418 2870.42 C 577.574 2853.58 571.391 2828.88 578.281 2805.95 C 578.512 2805.19 578.363 2804.37 577.895 2803.73 C 577.422 2803.1 576.68 2802.73 575.891 2802.73 Z M 494.215 2871.82 C 506.996 2871.82 519.297 2866.85 527.961 2858.2 C 543.73 2842.44 546.316 2817.47 534.117 2798.83 C 532.379 2796.17 532.234 2792.77 533.746 2789.98 C 535.266 2787.18 538.184 2785.43 541.363 2785.43 L 593.469 2785.43 C 598.23 2785.43 602.109 2789.31 602.109 2794.09 C 602.109 2796.27 601.301 2798.35 599.828 2799.93 C 588.305 2818.99 591.234 2842.78 606.641 2858.2 C 615.305 2866.85 627.605 2871.81 640.391 2871.81 C 649.695 2871.81 658.559 2869.23 666.02 2864.36 C 668.629 2862.65 672.125 2862.51 674.859 2863.99 C 677.66 2865.5 679.395 2868.41 679.395 2871.59 L 679.395 2923.47 C 679.395 2926.66 677.66 2929.57 674.867 2931.07 C 672.117 2932.54 668.633 2932.41 666.008 2930.71 C 658.551 2925.82 649.684 2923.24 640.367 2923.24 C 627.59 2923.24 615.289 2928.21 606.621 2936.87 C 590.855 2952.64 588.266 2977.62 600.473 2996.25 C 602.219 2998.91 602.359 3002.29 600.844 3005.07 C 599.332 3007.88 596.418 3009.62 593.23 3009.62 L 541.363 3009.62 C 538.184 3009.62 535.266 3007.88 533.746 3005.08 C 532.234 3002.3 532.383 2998.91 534.121 2996.24 C 546.332 2977.6 543.738 2952.63 527.961 2936.87 C 519.301 2928.21 506.996 2923.24 494.203 2923.24 C 484.902 2923.24 476.039 2925.82 468.578 2930.7 C 465.977 2932.4 462.473 2932.55 459.734 2931.08 C 456.941 2929.56 455.203 2926.64 455.203 2923.47 L 455.203 2871.59 C 455.203 2868.41 456.941 2865.5 459.742 2863.99 C 462.477 2862.5 465.977 2862.64 468.574 2864.35 C 476.047 2869.24 484.906 2871.82 494.215 2871.82 Z M 593.469 2780.43 C 593.414 2780.43 593.281 2780.44 593.227 2780.44 L 541.363 2780.43 C 536.344 2780.43 531.742 2783.18 529.352 2787.6 C 526.965 2792.02 527.188 2797.37 529.938 2801.56 C 540.844 2818.24 538.531 2840.57 524.426 2854.66 C 516.695 2862.39 505.684 2866.82 494.215 2866.82 C 485.883 2866.82 477.965 2864.52 471.313 2860.17 C 467.219 2857.48 461.672 2857.25 457.359 2859.59 C 452.949 2861.98 450.203 2866.58 450.203 2871.59 L 450.203 2923.47 C 450.203 2928.47 452.945 2933.07 457.359 2935.47 C 461.688 2937.81 467.207 2937.57 471.316 2934.88 C 477.961 2930.54 485.879 2928.24 494.203 2928.24 C 505.684 2928.24 516.695 2932.67 524.426 2940.4 C 538.539 2954.5 540.859 2976.83 529.938 2993.5 C 527.191 2997.72 526.969 3003.06 529.352 3007.46 C 531.746 3011.87 536.348 3014.62 541.363 3014.62 L 593.23 3014.62 C 598.258 3014.62 602.855 3011.87 605.238 3007.45 C 607.633 3003.07 607.41 2997.72 604.652 2993.51 C 593.738 2976.85 596.055 2954.52 610.156 2940.4 C 617.891 2932.67 628.906 2928.24 640.367 2928.24 C 648.707 2928.24 656.625 2930.54 663.277 2934.9 C 667.418 2937.59 672.926 2937.81 677.234 2935.48 C 681.648 2933.11 684.395 2928.51 684.395 2923.47 L 684.395 2871.59 C 684.395 2866.57 681.648 2861.97 677.234 2859.59 C 672.922 2857.25 667.41 2857.47 663.285 2860.17 C 656.641 2864.52 648.723 2866.81 640.391 2866.81 C 628.922 2866.81 617.906 2862.38 610.176 2854.66 C 596.402 2840.87 593.773 2819.59 603.801 2802.92 C 605.82 2800.83 607.109 2797.55 607.109 2794.09 C 607.109 2786.56 600.992 2780.43 593.469 2780.43"/>
    <path id="path3194" style="fill:#d33605;fill-opacity:1;fill-rule:nonzero;stroke:none" d="M 596.762 2897.53 C 596.762 2881.25 583.578 2868.06 567.297 2868.06 C 551.031 2868.06 537.848 2881.25 537.848 2897.53 C 537.848 2913.8 551.031 2927 567.297 2927 C 583.578 2927 596.762 2913.8 596.762 2897.53"/>
    <path id="path3196" style="fill:#000000;fill-opacity:1;fill-rule:nonzero;stroke:none" d="M 567.297 2924.5 C 552.438 2924.5 540.348 2912.4 540.348 2897.53 C 540.348 2882.66 552.438 2870.56 567.297 2870.56 C 582.164 2870.56 594.262 2882.66 594.262 2897.53 C 594.262 2912.4 582.164 2924.5 567.297 2924.5 Z M 567.297 2865.56 C 549.68 2865.56 535.348 2879.9 535.348 2897.53 C 535.348 2915.15 549.68 2929.5 567.297 2929.5 C 584.922 2929.5 599.262 2915.15 599.262 2897.53 C 599.262 2879.9 584.922 2865.56 567.297 2865.56"/>
    <path id="path3198" style="fill:#f15a24;fill-opacity:1;fill-rule:nonzero;stroke:none" d="M 582.949 2897.53 C 582.949 2888.88 575.945 2881.86 567.297 2881.86 C 558.656 2881.86 551.648 2888.88 551.648 2897.53 C 551.648 2906.18 558.656 2913.18 567.297 2913.18 C 575.945 2913.18 582.949 2906.18 582.949 2897.53"/>
    <path id="path3200" style="fill:#000000;fill-opacity:1;fill-rule:nonzero;stroke:none" d="M 567.297 2910.68 C 560.051 2910.68 554.148 2904.78 554.148 2897.53 C 554.148 2890.27 560.051 2884.36 567.297 2884.36 C 574.547 2884.36 580.449 2890.27 580.449 2897.53 C 580.449 2904.78 574.547 2910.68 567.297 2910.68 Z M 567.297 2879.36 C 557.289 2879.36 549.148 2887.51 549.148 2897.53 C 549.148 2907.54 557.289 2915.68 567.297 2915.68 C 577.305 2915.68 585.449 2907.54 585.449 2897.53 C 585.449 2887.51 577.305 2879.36 567.297 2879.36"/>
  </g>
</svg>