<?xml version="1.0" encoding="utf-8"?>
<svg viewBox="131.906005859375 288.9309997558594 75.28500366210938 96.13800048828125" width="75.28500366210938" height="96.13800048828125" xmlns="http://www.w3.org/2000/svg">
  <g transform="matrix(0.12500000186264515, 0, 0, -0.12500000186264515, 0, 526.1375122070312)">
    <path id="path58" style="fill:#ddd8bf;fill-opacity:1;fill-rule:nonzero;stroke:none" d="M 1578.84 1155.71 C 1578.84 1140.71 1467.53 1128.55 1330.23 1128.55 C 1192.92 1128.55 1081.62 1140.71 1081.62 1155.71 C 1081.62 1170.69 1192.92 1182.85 1330.23 1182.85 C 1467.53 1182.85 1578.84 1170.69 1578.84 1155.71"/>
    <path id="path4348" style="fill:#41996b;fill-opacity:1;fill-rule:nonzero;stroke:none" d="M 1191.67 1400.9 C 1187.06 1374.72 1162.09 1357.25 1135.92 1361.87 C 1109.76 1366.46 1092.29 1391.42 1096.9 1417.57 C 1101.51 1443.78 1126.46 1461.26 1152.66 1456.61 C 1178.81 1452.01 1196.28 1427.04 1191.67 1400.9"/>
    <path id="path4350" style="fill:#000000;fill-opacity:1;fill-rule:nonzero;stroke:none" d="M 1144.19 1454.87 C 1122.06 1454.87 1103.21 1439 1099.37 1417.14 C 1097.25 1405.14 1099.94 1393.04 1106.92 1383.07 C 1113.91 1373.09 1124.36 1366.44 1136.35 1364.33 C 1139 1363.86 1141.68 1363.63 1144.34 1363.63 C 1166.49 1363.63 1185.36 1379.49 1189.21 1401.33 C 1191.32 1413.32 1188.64 1425.42 1181.65 1435.4 C 1174.66 1445.38 1164.21 1452.03 1152.23 1454.15 C 1149.57 1454.62 1146.87 1454.87 1144.19 1454.87 Z M 1144.34 1358.63 C 1141.39 1358.63 1138.41 1358.89 1135.49 1359.41 C 1122.18 1361.74 1110.58 1369.12 1102.82 1380.2 C 1095.07 1391.27 1092.09 1404.7 1094.44 1418 C 1098.71 1442.26 1119.63 1459.87 1144.19 1459.87 C 1147.16 1459.87 1150.15 1459.6 1153.1 1459.08 C 1166.4 1456.73 1177.99 1449.34 1185.75 1438.27 C 1193.5 1427.19 1196.48 1413.77 1194.13 1400.47 C 1189.86 1376.22 1168.92 1358.63 1144.34 1358.63"/>
    <path id="path4352" style="fill:#41996b;fill-opacity:1;fill-rule:nonzero;stroke:none" d="M 1168.21 1336.16 C 1163.59 1310.01 1143.86 1291.6 1124.16 1295.08 C 1104.45 1298.55 1092.19 1322.59 1096.82 1348.76 C 1101.44 1374.93 1121.16 1393.29 1140.9 1389.84 C 1160.61 1386.36 1172.85 1362.34 1168.21 1336.16"/>
    <path id="path4354" style="fill:#000000;fill-opacity:1;fill-rule:nonzero;stroke:none" d="M 1136.09 1387.76 C 1119.08 1387.76 1103.25 1370.8 1099.28 1348.32 C 1097.13 1336.2 1098.67 1324.2 1103.59 1314.54 C 1108.39 1305.12 1115.85 1299.09 1124.59 1297.54 C 1126.04 1297.29 1127.51 1297.16 1128.98 1297.16 C 1145.97 1297.16 1161.77 1314.11 1165.75 1336.6 C 1167.9 1348.72 1166.37 1360.72 1161.46 1370.37 C 1156.66 1379.8 1149.21 1385.83 1140.47 1387.38 C 1139.01 1387.63 1137.55 1387.76 1136.09 1387.76 Z M 1128.98 1292.16 C 1127.22 1292.16 1125.45 1292.32 1123.72 1292.62 C 1113.4 1294.44 1104.66 1301.42 1099.14 1312.27 C 1093.72 1322.89 1092.03 1336.01 1094.36 1349.2 C 1098.74 1374.03 1116.68 1392.76 1136.09 1392.76 C 1137.85 1392.76 1139.61 1392.6 1141.33 1392.3 C 1151.66 1390.48 1160.39 1383.5 1165.91 1372.65 C 1171.32 1362.02 1173.01 1348.91 1170.67 1335.72 C 1166.28 1310.88 1148.36 1292.16 1128.98 1292.16"/>
    <path id="path4356" style="fill:#41996b;fill-opacity:1;fill-rule:nonzero;stroke:none" d="M 1169.48 1250.74 C 1169.48 1238.35 1159.4 1228.31 1147.03 1228.27 L 1117.35 1228.29 C 1104.98 1228.29 1094.93 1238.34 1094.94 1250.72 L 1094.94 1280.38 C 1094.94 1292.79 1104.98 1302.85 1117.35 1302.84 L 1147.05 1302.83 C 1159.42 1302.85 1169.46 1292.79 1169.46 1280.36 L 1169.48 1250.74"/>
    <path id="path4358" style="fill:#000000;fill-opacity:1;fill-rule:nonzero;stroke:none" d="M 1117.35 1300.34 C 1106.36 1300.34 1097.44 1291.39 1097.44 1280.38 L 1097.44 1250.72 C 1097.44 1245.4 1099.5 1240.4 1103.26 1236.64 C 1107.03 1232.87 1112.03 1230.79 1117.35 1230.79 L 1147.03 1230.77 C 1158.03 1230.81 1166.98 1239.77 1166.98 1250.74 L 1166.96 1280.36 C 1166.96 1291.37 1158.04 1300.33 1147.08 1300.33 L 1117.35 1300.34 Z M 1147.04 1225.77 L 1147.03 1225.77 L 1117.35 1225.79 C 1110.69 1225.79 1104.43 1228.39 1099.73 1233.11 C 1095.02 1237.82 1092.43 1244.08 1092.44 1250.72 L 1092.44 1280.38 C 1092.44 1294.14 1103.61 1305.34 1117.33 1305.34 L 1147.05 1305.33 C 1160.8 1305.33 1171.96 1294.12 1171.96 1280.36 L 1171.98 1250.74 C 1171.98 1237.02 1160.79 1225.81 1147.04 1225.77"/>
    <path id="path4360" style="fill:#59b587;fill-opacity:1;fill-rule:nonzero;stroke:none" d="M 1137.91 1287.86 C 1137.91 1279.58 1131.23 1272.9 1122.97 1272.92 L 1109.9 1272.9 C 1101.65 1272.9 1094.94 1279.6 1094.94 1287.86 L 1094.94 1287.86 C 1094.93 1296.14 1101.63 1302.85 1109.9 1302.85 L 1122.93 1302.85 C 1131.23 1302.84 1137.91 1296.13 1137.91 1287.86 L 1137.91 1287.86"/>
    <path id="path4362" style="fill:#000000;fill-opacity:1;fill-rule:nonzero;stroke:none" d="M 1109.9 1300.35 C 1103.02 1300.35 1097.43 1294.75 1097.44 1287.86 C 1097.44 1280.99 1103.03 1275.4 1109.89 1275.4 L 1122.96 1275.42 C 1129.84 1275.42 1135.41 1281.01 1135.41 1287.86 C 1135.41 1294.74 1129.81 1300.34 1122.93 1300.35 L 1109.9 1300.35 Z M 1109.9 1270.4 L 1109.9 1270.4 C 1100.27 1270.4 1092.44 1278.24 1092.44 1287.86 C 1092.43 1297.49 1100.26 1305.35 1109.89 1305.35 L 1122.93 1305.35 C 1132.57 1305.34 1140.41 1297.48 1140.41 1287.86 C 1140.41 1278.25 1132.6 1270.42 1123 1270.42 L 1109.9 1270.4"/>
    <path id="path4364" style="fill:#ffde73;fill-opacity:1;fill-rule:nonzero;stroke:none" d="M 1168.56 1302.85 L 1095.23 1302.86 L 1095.24 1326 L 1168.56 1325.97 L 1168.56 1302.85"/>
    <path id="path4366" style="fill:#000000;fill-opacity:1;fill-rule:nonzero;stroke:none" d="M 1097.73 1305.36 L 1166.06 1305.35 L 1166.06 1323.47 L 1097.74 1323.5 L 1097.73 1305.36 Z M 1168.56 1300.35 L 1168.56 1300.35 L 1095.23 1300.36 C 1094.57 1300.36 1093.93 1300.63 1093.46 1301.1 C 1092.99 1301.57 1092.73 1302.2 1092.73 1302.86 L 1092.74 1326 C 1092.74 1327.38 1093.86 1328.5 1095.24 1328.5 L 1095.24 1328.5 L 1168.56 1328.47 C 1169.95 1328.47 1171.06 1327.35 1171.06 1325.97 L 1171.06 1302.85 C 1171.06 1302.19 1170.8 1301.56 1170.33 1301.09 C 1169.86 1300.62 1169.23 1300.35 1168.56 1300.35"/>
    <path id="path4368" style="fill:#997755;fill-opacity:1;fill-rule:nonzero;stroke:none" d="M 1111.01 1399.51 L 1123.61 1381.5 L 1141.62 1394.11 L 1154.23 1376.11 L 1172.23 1388.7 L 1186.04 1369 L 1192.17 1403.8 C 1196.81 1429.96 1179.33 1454.92 1153.15 1459.52 C 1126.98 1464.14 1102.04 1446.67 1097.42 1420.5 L 1091.27 1385.7 L 1111.01 1399.51"/>
    <path id="path4370" style="fill:#000000;fill-opacity:1;fill-rule:nonzero;stroke:none" d="M 1172.23 1391.2 C 1173.02 1391.2 1173.79 1390.83 1174.28 1390.14 L 1184.63 1375.37 L 1189.71 1404.23 C 1191.83 1416.22 1189.16 1428.32 1182.18 1438.29 C 1175.19 1448.28 1164.73 1454.94 1152.71 1457.06 C 1150.07 1457.53 1147.39 1457.77 1144.73 1457.77 C 1122.6 1457.77 1103.74 1441.91 1099.88 1420.07 L 1094.79 1391.2 L 1109.57 1401.56 C 1110.71 1402.34 1112.27 1402.07 1113.05 1400.94 L 1124.23 1384.98 L 1140.19 1396.17 C 1140.73 1396.55 1141.4 1396.71 1142.06 1396.58 C 1142.71 1396.46 1143.29 1396.09 1143.67 1395.55 L 1154.84 1379.58 L 1170.8 1390.76 C 1171.24 1391.06 1171.73 1391.2 1172.23 1391.2 Z M 1186.04 1366.5 C 1185.24 1366.5 1184.47 1366.89 1184 1367.56 L 1171.62 1385.23 L 1155.66 1374.06 C 1154.53 1373.27 1152.97 1373.54 1152.18 1374.67 L 1141.01 1390.63 L 1125.05 1379.45 C 1124.5 1379.07 1123.82 1378.91 1123.18 1379.04 C 1122.52 1379.15 1121.94 1379.52 1121.57 1380.06 L 1110.39 1396.03 L 1092.71 1383.65 C 1091.88 1383.06 1090.78 1383.04 1089.93 1383.59 C 1089.08 1384.13 1088.64 1385.14 1088.81 1386.14 L 1094.96 1420.94 C 1099.24 1445.17 1120.17 1462.77 1144.73 1462.77 C 1147.68 1462.77 1150.66 1462.5 1153.58 1461.99 C 1166.91 1459.64 1178.52 1452.24 1186.27 1441.17 C 1194.02 1430.09 1196.99 1416.66 1194.63 1403.36 L 1188.51 1368.57 C 1188.33 1367.57 1187.57 1366.78 1186.59 1366.56 C 1186.41 1366.52 1186.23 1366.5 1186.04 1366.5"/>
    <path id="path4372" style="fill:#41996b;fill-opacity:1;fill-rule:nonzero;stroke:none" d="M 1458.2 1462.31 C 1484.36 1457.7 1501.83 1432.74 1497.22 1406.58 C 1492.63 1380.4 1467.67 1362.94 1441.51 1367.55 C 1415.31 1372.16 1397.84 1397.1 1402.47 1423.29 C 1407.08 1449.45 1432.04 1466.93 1458.2 1462.31"/>
    <path id="path4374" style="fill:#000000;fill-opacity:1;fill-rule:nonzero;stroke:none" d="M 1449.79 1460.55 C 1427.64 1460.55 1408.78 1444.7 1404.93 1422.86 C 1402.81 1410.85 1405.49 1398.74 1412.48 1388.76 C 1419.46 1378.78 1429.93 1372.13 1441.94 1370.01 C 1444.58 1369.55 1447.26 1369.31 1449.91 1369.31 C 1472.07 1369.31 1490.93 1385.17 1494.76 1407.01 C 1499.13 1431.78 1482.53 1455.48 1457.77 1459.85 C 1455.13 1460.32 1452.45 1460.55 1449.79 1460.55 Z M 1449.91 1364.31 C 1446.97 1364.31 1444 1364.57 1441.07 1365.09 C 1427.74 1367.43 1416.13 1374.83 1408.38 1385.89 C 1400.63 1396.97 1397.65 1410.4 1400.01 1423.73 C 1404.28 1447.96 1425.21 1465.55 1449.79 1465.55 C 1452.73 1465.55 1455.71 1465.29 1458.64 1464.77 C 1486.11 1459.93 1504.53 1433.63 1499.68 1406.15 C 1495.43 1381.91 1474.5 1364.31 1449.91 1364.31"/>
    <path id="path4376" style="fill:#41996b;fill-opacity:1;fill-rule:nonzero;stroke:none" d="M 1522.93 1438.87 C 1549.08 1434.24 1567.5 1414.52 1563.99 1394.8 C 1560.53 1375.09 1536.5 1362.83 1510.32 1367.45 C 1484.15 1372.08 1465.78 1391.81 1469.24 1411.56 C 1472.71 1431.24 1496.75 1443.49 1522.93 1438.87"/>
    <path id="path4378" style="fill:#000000;fill-opacity:1;fill-rule:nonzero;stroke:none" d="M 1511.91 1437.35 C 1490.96 1437.35 1474.43 1426.57 1471.7 1411.12 C 1468.49 1392.78 1486.01 1374.29 1510.76 1369.92 C 1514.28 1369.29 1517.84 1368.98 1521.34 1368.98 C 1542.29 1368.98 1558.81 1379.77 1561.53 1395.23 C 1562.8 1402.37 1560.97 1409.72 1556.25 1416.48 C 1549.29 1426.45 1536.67 1433.9 1522.5 1436.41 C 1518.97 1437.03 1515.41 1437.35 1511.91 1437.35 Z M 1521.34 1363.98 C 1517.55 1363.98 1513.7 1364.32 1509.89 1364.99 C 1482.43 1369.85 1463.09 1390.93 1466.78 1411.99 C 1469.93 1429.87 1488.49 1442.35 1511.91 1442.35 C 1515.7 1442.35 1519.56 1442.01 1523.36 1441.33 C 1539.05 1438.56 1552.52 1430.54 1560.35 1419.34 C 1565.85 1411.47 1567.96 1402.83 1566.45 1394.36 C 1563.31 1376.48 1544.76 1363.98 1521.34 1363.98"/>
    <path id="path4380" style="fill:#41996b;fill-opacity:1;fill-rule:nonzero;stroke:none" d="M 1608.35 1440.13 C 1620.74 1440.13 1630.77 1430.05 1630.8 1417.67 L 1630.78 1388 C 1630.79 1375.62 1620.75 1365.56 1608.37 1365.59 L 1578.69 1365.58 C 1566.3 1365.58 1556.24 1375.62 1556.24 1388 L 1556.25 1417.69 C 1556.24 1430.07 1566.3 1440.11 1578.71 1440.11 L 1608.35 1440.13"/>
    <path id="path4382" style="fill:#000000;fill-opacity:1;fill-rule:nonzero;stroke:none" d="M 1608.35 1437.63 L 1578.71 1437.61 C 1573.36 1437.61 1568.34 1435.53 1564.57 1431.75 C 1560.82 1427.99 1558.75 1423 1558.75 1417.69 L 1558.74 1388 C 1558.74 1377.02 1567.69 1368.08 1578.69 1368.08 L 1608.37 1368.09 C 1613.72 1368.09 1618.71 1370.16 1622.46 1373.91 C 1626.22 1377.68 1628.28 1382.68 1628.28 1388 L 1628.3 1417.67 C 1628.27 1428.68 1619.33 1437.63 1608.35 1437.63 Z M 1578.69 1363.08 L 1578.69 1363.08 C 1564.93 1363.08 1553.74 1374.26 1553.74 1388 L 1553.75 1417.69 C 1553.75 1424.33 1556.33 1430.58 1561.03 1435.29 C 1565.75 1440.01 1572.03 1442.61 1578.71 1442.61 L 1608.35 1442.63 C 1622.08 1442.63 1633.26 1431.44 1633.3 1417.68 L 1633.28 1388 C 1633.29 1381.35 1630.7 1375.09 1625.99 1370.37 C 1621.3 1365.68 1615.06 1363.09 1608.42 1363.09 L 1578.69 1363.08"/>
    <path id="path4384" style="fill:#59b587;fill-opacity:1;fill-rule:nonzero;stroke:none" d="M 1571.23 1436.27 C 1579.5 1436.27 1586.19 1429.58 1586.17 1421.33 L 1586.19 1408.26 C 1586.18 1400.01 1579.48 1393.29 1571.23 1393.29 L 1571.23 1393.29 C 1562.95 1393.28 1556.24 1399.99 1556.24 1408.26 L 1556.24 1421.3 C 1556.24 1429.58 1562.97 1436.27 1571.23 1436.27 L 1571.23 1436.27"/>
    <path id="path4386" style="fill:#000000;fill-opacity:1;fill-rule:nonzero;stroke:none" d="M 1571.23 1433.77 C 1564.34 1433.77 1558.74 1428.18 1558.74 1421.3 L 1558.74 1408.26 C 1558.74 1401.38 1564.34 1395.79 1571.21 1395.79 L 1571.21 1393.29 L 1571.22 1395.79 C 1578.09 1395.79 1583.68 1401.39 1583.69 1408.26 L 1583.67 1421.33 C 1583.68 1424.65 1582.39 1427.77 1580.05 1430.12 C 1577.71 1432.47 1574.57 1433.77 1571.23 1433.77 Z M 1571.23 1390.79 L 1571.21 1390.79 C 1561.58 1390.79 1553.74 1398.63 1553.74 1408.26 L 1553.74 1421.3 C 1553.74 1430.94 1561.59 1438.77 1571.23 1438.77 C 1575.91 1438.77 1580.3 1436.96 1583.59 1433.65 C 1586.88 1430.35 1588.68 1425.98 1588.67 1421.32 L 1588.69 1408.26 C 1588.68 1398.63 1580.84 1390.79 1571.23 1390.79"/>
    <path id="path4388" style="fill:#ffde73;fill-opacity:1;fill-rule:nonzero;stroke:none" d="M 1556.24 1439.21 L 1556.23 1365.87 L 1533.08 1365.89 L 1533.11 1439.21 L 1556.24 1439.21"/>
    <path id="path4390" style="fill:#000000;fill-opacity:1;fill-rule:nonzero;stroke:none" d="M 1535.58 1368.39 L 1553.73 1368.37 L 1553.74 1436.71 L 1535.61 1436.71 L 1535.58 1368.39 Z M 1556.23 1363.37 L 1556.23 1363.37 L 1533.08 1363.39 C 1531.69 1363.39 1530.58 1364.52 1530.58 1365.89 L 1530.61 1439.21 C 1530.61 1440.59 1531.72 1441.71 1533.11 1441.71 L 1556.24 1441.71 C 1556.9 1441.71 1557.53 1441.45 1558 1440.98 C 1558.47 1440.51 1558.74 1439.88 1558.74 1439.21 L 1558.73 1365.87 C 1558.73 1365.21 1558.46 1364.57 1557.99 1364.1 C 1557.52 1363.64 1556.89 1363.37 1556.23 1363.37"/>
    <path id="path4392" style="fill:#997755;fill-opacity:1;fill-rule:nonzero;stroke:none" d="M 1459.58 1381.65 L 1477.57 1394.26 L 1464.98 1412.26 L 1482.97 1424.88 L 1470.38 1442.86 L 1490.1 1456.69 L 1455.29 1462.83 C 1429.13 1467.45 1404.17 1449.97 1399.55 1423.8 C 1394.94 1397.63 1412.41 1372.69 1438.58 1368.06 L 1473.39 1361.93 L 1459.58 1381.65"/>
    <path id="path4394" style="fill:#000000;fill-opacity:1;fill-rule:nonzero;stroke:none" d="M 1446.87 1461.07 C 1424.73 1461.07 1405.86 1445.21 1402.01 1423.37 C 1397.65 1398.61 1414.25 1374.91 1439.01 1370.52 L 1467.89 1365.43 L 1457.54 1380.22 C 1456.74 1381.35 1457.02 1382.91 1458.15 1383.7 L 1474.09 1394.88 L 1462.93 1410.82 C 1462.14 1411.96 1462.42 1413.51 1463.54 1414.31 L 1479.49 1425.49 L 1468.33 1441.43 C 1467.54 1442.56 1467.82 1444.11 1468.95 1444.92 L 1483.73 1455.28 L 1454.86 1460.36 C 1452.21 1460.83 1449.53 1461.07 1446.87 1461.07 Z M 1473.39 1359.43 C 1473.25 1359.43 1473.11 1359.44 1472.96 1359.47 L 1438.14 1365.6 C 1410.67 1370.46 1392.25 1396.76 1397.09 1424.23 C 1401.36 1448.48 1422.29 1466.07 1446.87 1466.07 C 1449.81 1466.07 1452.8 1465.8 1455.73 1465.29 L 1490.54 1459.15 C 1491.53 1458.98 1492.32 1458.23 1492.54 1457.24 C 1492.76 1456.24 1492.36 1455.23 1491.54 1454.64 L 1473.86 1442.25 L 1485.02 1426.31 C 1485.82 1425.18 1485.54 1423.63 1484.41 1422.83 L 1468.46 1411.64 L 1479.62 1395.7 C 1480.42 1394.56 1480.14 1393 1479.01 1392.21 L 1463.07 1381.04 L 1475.44 1363.36 C 1476.02 1362.53 1476.04 1361.44 1475.5 1360.58 C 1475.04 1359.86 1474.24 1359.43 1473.39 1359.43"/>
    <path id="path4396" style="fill:#846244;fill-opacity:1;fill-rule:nonzero;stroke:none" d="M 1425.07 1279.49 L 1425.07 1324.17 L 1433.66 1334.01 C 1428.96 1396.22 1424.12 1453.96 1422.19 1461.05 L 1171.54 1461.05 C 1169.56 1453.89 1162.11 1396.56 1154.55 1334.01 L 1161.42 1324.17 L 1161.66 1279.49 L 1146.5 1265.88 C 1140.66 1215.43 1136.15 1173 1136.18 1166.89 L 1444.8 1166.89 C 1444.83 1173.65 1442.17 1215.41 1438.63 1265.88 L 1425.07 1279.49"/>
    <path id="path4398" style="fill:#000000;fill-opacity:1;fill-rule:nonzero;stroke:none" d="M 1138.78 1169.39 L 1442.25 1169.39 C 1441.88 1180.2 1439.59 1216.3 1436.2 1264.78 L 1423.3 1277.72 C 1422.83 1278.19 1422.57 1278.82 1422.57 1279.49 L 1422.57 1324.17 C 1422.57 1324.78 1422.79 1325.36 1423.18 1325.81 L 1431.09 1334.87 C 1425.89 1403.55 1421.96 1447.9 1420.16 1458.55 L 1173.54 1458.55 C 1171.33 1447.43 1165.06 1400.13 1157.14 1334.65 L 1163.47 1325.61 C 1163.76 1325.19 1163.92 1324.69 1163.92 1324.18 L 1164.16 1279.5 C 1164.16 1278.78 1163.86 1278.1 1163.33 1277.62 L 1148.87 1264.65 C 1143.25 1215.95 1139.44 1179.95 1138.78 1169.39 Z M 1444.8 1164.39 L 1136.18 1164.39 C 1134.8 1164.39 1133.68 1165.5 1133.68 1166.88 C 1133.64 1173.89 1138.99 1222.77 1144.01 1266.17 C 1144.09 1266.77 1144.38 1267.34 1144.83 1267.75 L 1159.15 1280.6 L 1158.93 1323.38 L 1152.5 1332.57 C 1152.14 1333.08 1151.99 1333.69 1152.07 1334.31 C 1158.89 1390.75 1166.96 1453.85 1169.14 1461.71 C 1169.43 1462.8 1170.42 1463.55 1171.54 1463.55 L 1422.19 1463.55 C 1423.32 1463.55 1424.31 1462.8 1424.6 1461.7 C 1426.9 1453.24 1432.83 1378.19 1436.16 1334.19 C 1436.21 1333.53 1435.99 1332.86 1435.55 1332.37 L 1427.57 1323.24 L 1427.57 1280.52 L 1440.4 1267.65 C 1440.83 1267.22 1441.08 1266.65 1441.12 1266.06 C 1444.14 1223.12 1447.34 1174.52 1447.3 1166.88 C 1447.29 1165.5 1446.18 1164.39 1444.8 1164.39"/>
    <path id="path4400" style="fill:#ffde73;fill-opacity:1;fill-rule:nonzero;stroke:none" d="M 1161.42 1324.17 L 1161.66 1279.49 L 1425.07 1279.49 L 1425.07 1324.17 L 1161.42 1324.17"/>
    <path id="path4402" style="fill:#000000;fill-opacity:1;fill-rule:nonzero;stroke:none" d="M 1164.14 1281.99 L 1422.57 1281.99 L 1422.57 1321.67 L 1163.94 1321.67 L 1164.14 1281.99 Z M 1425.07 1276.99 L 1161.66 1276.99 C 1160.28 1276.99 1159.16 1278.1 1159.16 1279.48 L 1158.92 1324.16 C 1158.92 1324.83 1159.18 1325.46 1159.65 1325.94 C 1160.12 1326.41 1160.76 1326.67 1161.42 1326.67 L 1425.07 1326.67 C 1426.45 1326.67 1427.57 1325.55 1427.57 1324.17 L 1427.57 1279.49 C 1427.57 1278.11 1426.45 1276.99 1425.07 1276.99"/>
    <path id="path4404" style="fill:#ffde73;fill-opacity:1;fill-rule:nonzero;stroke:none" d="M 1208.26 1471.42 L 1302.18 1377.51 L 1396.08 1471.42 L 1302.18 1565.33 L 1208.26 1471.42 Z M 1302.18 1366.79 C 1301.01 1366.79 1299.87 1367.27 1299.05 1368.1 L 1198.86 1468.29 C 1198.02 1469.11 1197.56 1470.24 1197.56 1471.42 C 1197.56 1472.61 1198.02 1473.73 1198.86 1474.56 L 1299.05 1574.74 C 1300.78 1576.48 1303.59 1576.48 1305.32 1574.74 L 1405.5 1474.56 C 1406.33 1473.73 1406.8 1472.61 1406.8 1471.42 C 1406.8 1470.24 1406.33 1469.11 1405.5 1468.29 L 1305.32 1368.1 C 1304.49 1367.27 1303.35 1366.79 1302.18 1366.79"/>
    <path id="path4406" style="fill:#000000;fill-opacity:1;fill-rule:nonzero;stroke:none" d="M 1211.8 1471.42 L 1302.18 1381.05 L 1392.55 1471.42 L 1302.18 1561.79 L 1211.8 1471.42 Z M 1302.18 1375.01 C 1301.54 1375.01 1300.9 1375.26 1300.42 1375.75 L 1206.49 1469.65 C 1206.03 1470.12 1205.76 1470.76 1205.76 1471.42 C 1205.76 1472.08 1206.03 1472.72 1206.49 1473.19 L 1300.42 1567.09 C 1301.39 1568.07 1302.97 1568.07 1303.95 1567.09 L 1397.85 1473.19 C 1398.83 1472.21 1398.83 1470.63 1397.85 1469.65 L 1303.95 1375.75 C 1303.46 1375.26 1302.82 1375.01 1302.18 1375.01 Z M 1302.18 1573.54 C 1301.67 1573.54 1301.18 1573.34 1300.82 1572.97 L 1200.63 1472.8 C 1200.25 1472.43 1200.06 1471.95 1200.06 1471.42 C 1200.06 1470.9 1200.25 1470.42 1200.61 1470.08 L 1300.82 1369.87 C 1301.55 1369.12 1302.82 1369.14 1303.55 1369.87 L 1403.74 1470.06 C 1404.1 1470.42 1404.3 1470.9 1404.3 1471.42 C 1404.3 1471.95 1404.1 1472.43 1403.74 1472.8 L 1303.55 1572.97 C 1303.18 1573.34 1302.7 1573.54 1302.18 1573.54 Z M 1302.18 1364.29 C 1300.36 1364.29 1298.57 1365.03 1297.28 1366.34 L 1197.09 1466.53 C 1195.79 1467.8 1195.06 1469.54 1195.06 1471.42 C 1195.06 1473.29 1195.78 1475.04 1197.1 1476.34 L 1297.28 1576.51 C 1299.89 1579.12 1304.47 1579.12 1307.09 1576.51 L 1407.27 1476.33 C 1408.58 1475.02 1409.3 1473.28 1409.3 1471.42 C 1409.3 1469.55 1408.57 1467.82 1407.26 1466.52 L 1307.08 1366.33 C 1305.79 1365.03 1304 1364.29 1302.18 1364.29"/>
    <path id="path4408" style="fill:#ffde73;fill-opacity:1;fill-rule:nonzero;stroke:none" d="M 1304.93 1354.77 C 1304.93 1342.2 1294.74 1332.02 1282.18 1332.02 C 1269.61 1332.02 1259.44 1342.2 1259.44 1354.77 C 1259.44 1367.32 1269.61 1377.51 1282.18 1377.51 C 1294.74 1377.51 1304.93 1367.32 1304.93 1354.77"/>
    <path id="path4410" style="fill:#000000;fill-opacity:1;fill-rule:nonzero;stroke:none" d="M 1282.18 1375.01 C 1271.02 1375.01 1261.94 1365.93 1261.94 1354.77 C 1261.94 1343.61 1271.02 1334.52 1282.18 1334.52 C 1293.34 1334.52 1302.43 1343.61 1302.43 1354.77 C 1302.43 1365.93 1293.34 1375.01 1282.18 1375.01 Z M 1282.18 1329.52 C 1268.26 1329.52 1256.94 1340.85 1256.94 1354.77 C 1256.94 1368.68 1268.26 1380.01 1282.18 1380.01 C 1296.1 1380.01 1307.43 1368.68 1307.43 1354.77 C 1307.43 1340.85 1296.1 1329.52 1282.18 1329.52"/>
    <path id="path4412" style="fill:#59b587;fill-opacity:1;fill-rule:nonzero;stroke:none" d="M 1494.81 1602.1 C 1494.81 1513.29 1422.82 1441.3 1334 1441.3 L 1248.91 1441.3 C 1160.09 1441.3 1088.08 1513.29 1088.08 1602.1 L 1088.08 1602.1 C 1088.08 1690.91 1160.09 1762.92 1248.91 1762.92 L 1334 1762.92 C 1422.82 1762.92 1494.81 1690.91 1494.81 1602.1 L 1494.81 1602.1"/>
    <path id="path4414" style="fill:#000000;fill-opacity:1;fill-rule:nonzero;stroke:none" d="M 1248.91 1760.42 C 1161.61 1760.42 1090.58 1689.4 1090.58 1602.1 C 1090.58 1514.82 1161.61 1443.8 1248.91 1443.8 L 1334 1443.8 C 1421.29 1443.8 1492.31 1514.82 1492.31 1602.1 C 1492.31 1689.4 1421.29 1760.42 1334 1760.42 L 1248.91 1760.42 Z M 1334 1438.8 L 1248.91 1438.8 C 1158.85 1438.8 1085.58 1512.05 1085.58 1602.1 C 1085.58 1692.16 1158.85 1765.42 1248.91 1765.42 L 1334 1765.42 C 1424.05 1765.42 1497.31 1692.16 1497.31 1602.1 C 1497.31 1512.05 1424.05 1438.8 1334 1438.8"/>
    <path id="path4416" style="fill:#41996b;fill-opacity:1;fill-rule:nonzero;stroke:none" d="M 1398.81 1557.59 C 1397.84 1579.62 1379.82 1597.21 1357.56 1597.21 L 1357.56 1557.57 C 1347.14 1555.89 1339.17 1546.94 1339.17 1536.05 C 1339.17 1523.97 1348.96 1514.17 1361.04 1514.17 L 1395.51 1514.17 C 1407.59 1514.17 1417.39 1523.97 1417.39 1536.05 C 1417.39 1547 1409.31 1555.99 1398.81 1557.59"/>
    <path id="path4418" style="fill:#000000;fill-opacity:1;fill-rule:nonzero;stroke:none" d="M 1360.06 1594.63 L 1360.06 1557.57 C 1360.06 1556.34 1359.17 1555.3 1357.96 1555.1 C 1348.52 1553.58 1341.67 1545.57 1341.67 1536.05 C 1341.67 1525.36 1350.36 1516.67 1361.04 1516.67 L 1395.51 1516.67 C 1406.2 1516.67 1414.89 1525.36 1414.89 1536.05 C 1414.89 1545.65 1407.97 1553.67 1398.43 1555.12 C 1397.25 1555.3 1396.36 1556.29 1396.31 1557.48 C 1395.43 1577.51 1379.72 1593.38 1360.06 1594.63 Z M 1395.51 1511.67 L 1361.04 1511.67 C 1347.6 1511.67 1336.67 1522.61 1336.67 1536.05 C 1336.67 1547.32 1344.28 1556.91 1355.06 1559.61 L 1355.06 1597.21 C 1355.06 1598.59 1356.18 1599.71 1357.56 1599.71 C 1380.39 1599.71 1399.18 1582.28 1401.18 1559.68 C 1412.13 1557.09 1419.89 1547.45 1419.89 1536.05 C 1419.89 1522.61 1408.96 1511.67 1395.51 1511.67"/>
    <path id="path4420" style="fill:#59b587;fill-opacity:1;fill-rule:nonzero;stroke:none" d="M 1409.75 1535.54 C 1409.75 1526.72 1402.6 1519.56 1393.77 1519.56 C 1384.94 1519.56 1377.79 1526.72 1377.79 1535.54 C 1377.79 1544.37 1384.94 1551.53 1393.77 1551.53 C 1402.6 1551.53 1409.75 1544.37 1409.75 1535.54"/>
    <path id="path4422" style="fill:#2a5b6a;fill-opacity:1;fill-rule:nonzero;stroke:none" d="M 1291.81 1585.64 C 1291.81 1568.76 1278.14 1555.11 1261.28 1555.11 C 1244.44 1555.11 1230.77 1568.76 1230.77 1585.64 C 1230.77 1602.48 1244.44 1616.15 1261.28 1616.15 C 1278.14 1616.15 1291.81 1602.48 1291.81 1585.64"/>
    <path id="path4424" style="fill:#000000;fill-opacity:1;fill-rule:nonzero;stroke:none" d="M 1261.28 1613.65 C 1245.83 1613.65 1233.27 1601.08 1233.27 1585.64 C 1233.27 1570.18 1245.83 1557.61 1261.28 1557.61 C 1276.74 1557.61 1289.31 1570.18 1289.31 1585.64 C 1289.31 1601.08 1276.74 1613.65 1261.28 1613.65 Z M 1261.28 1552.61 C 1243.08 1552.61 1228.27 1567.43 1228.27 1585.64 C 1228.27 1603.84 1243.08 1618.65 1261.28 1618.65 C 1279.5 1618.65 1294.31 1603.84 1294.31 1585.64 C 1294.31 1567.43 1279.5 1552.61 1261.28 1552.61"/>
    <path id="path4426" style="fill:#2a5b6a;fill-opacity:1;fill-rule:nonzero;stroke:none" d="M 1472.77 1585.64 C 1472.77 1568.76 1459.11 1555.11 1442.27 1555.11 C 1425.42 1555.11 1411.74 1568.76 1411.74 1585.64 C 1411.74 1602.48 1425.42 1616.15 1442.27 1616.15 C 1459.11 1616.15 1472.77 1602.48 1472.77 1585.64"/>
    <path id="path4428" style="fill:#000000;fill-opacity:1;fill-rule:nonzero;stroke:none" d="M 1442.27 1613.65 C 1426.81 1613.65 1414.24 1601.08 1414.24 1585.64 C 1414.24 1570.18 1426.81 1557.61 1442.27 1557.61 C 1457.71 1557.61 1470.27 1570.18 1470.27 1585.64 C 1470.27 1601.08 1457.71 1613.65 1442.27 1613.65 Z M 1442.27 1552.61 C 1424.05 1552.61 1409.24 1567.43 1409.24 1585.64 C 1409.24 1603.84 1424.05 1618.65 1442.27 1618.65 C 1460.46 1618.65 1475.27 1603.84 1475.27 1585.64 C 1475.27 1567.43 1460.46 1552.61 1442.27 1552.61"/>
    <path id="path4430" style="fill:#41996b;fill-opacity:1;fill-rule:nonzero;stroke:none" d="M 1312.96 1589.12 L 1209.63 1610.21 L 1209.63 1640.76 L 1312.96 1619.67 L 1312.96 1589.12"/>
    <path id="path4432" style="fill:#000000;fill-opacity:1;fill-rule:nonzero;stroke:none" d="M 1212.13 1612.25 L 1310.46 1592.19 L 1310.46 1617.63 L 1212.13 1637.69 L 1212.13 1612.25 Z M 1312.96 1586.62 C 1312.8 1586.62 1312.63 1586.64 1312.47 1586.67 L 1209.14 1607.76 C 1207.97 1607.99 1207.13 1609.02 1207.13 1610.21 L 1207.13 1640.76 C 1207.13 1641.51 1207.47 1642.22 1208.05 1642.69 C 1208.63 1643.17 1209.4 1643.31 1210.13 1643.21 L 1313.46 1622.12 C 1314.63 1621.89 1315.46 1620.86 1315.46 1619.67 L 1315.46 1589.12 C 1315.46 1588.37 1315.13 1587.66 1314.55 1587.19 C 1314.1 1586.82 1313.54 1586.62 1312.96 1586.62"/>
    <path id="path4434" style="fill:#41996b;fill-opacity:1;fill-rule:nonzero;stroke:none" d="M 1400.54 1589.12 L 1483.97 1610.21 L 1483.97 1640.76 L 1400.54 1619.67 L 1400.54 1589.12"/>
    <path id="path4436" style="fill:#000000;fill-opacity:1;fill-rule:nonzero;stroke:none" d="M 1403.04 1617.73 L 1403.04 1592.34 L 1481.47 1612.15 L 1481.47 1637.54 L 1403.04 1617.73 Z M 1400.54 1586.62 C 1399.99 1586.62 1399.45 1586.81 1399 1587.15 C 1398.4 1587.63 1398.04 1588.35 1398.04 1589.12 L 1398.04 1619.67 C 1398.04 1620.81 1398.82 1621.81 1399.93 1622.09 L 1483.36 1643.18 C 1484.1 1643.36 1484.9 1643.21 1485.51 1642.73 C 1486.12 1642.25 1486.47 1641.53 1486.47 1640.76 L 1486.47 1610.21 C 1486.47 1609.07 1485.7 1608.07 1484.58 1607.79 L 1401.15 1586.7 C 1400.95 1586.65 1400.75 1586.62 1400.54 1586.62"/>
    <path id="path4438" style="fill:#41996b;fill-opacity:1;fill-rule:nonzero;stroke:none" d="M 1078.47 1698.74 L 1078.47 1570.8 C 1078.47 1554.34 1091.82 1540.96 1108.31 1540.96 C 1124.79 1540.96 1138.15 1554.34 1138.15 1570.8 L 1078.47 1698.74"/>
    <path id="path4440" style="fill:#000000;fill-opacity:1;fill-rule:nonzero;stroke:none" d="M 1080.97 1687.47 L 1080.97 1570.8 C 1080.97 1555.73 1093.24 1543.46 1108.31 1543.46 C 1123.21 1543.46 1135.36 1555.43 1135.65 1570.26 L 1080.97 1687.47 Z M 1108.31 1538.46 C 1090.48 1538.46 1075.97 1552.97 1075.97 1570.8 L 1075.97 1698.74 C 1075.97 1699.92 1076.79 1700.93 1077.93 1701.18 C 1079.08 1701.42 1080.24 1700.87 1080.74 1699.8 L 1140.42 1571.86 C 1140.58 1571.53 1140.65 1571.17 1140.65 1570.8 C 1140.65 1552.97 1126.14 1538.46 1108.31 1538.46"/>
    <path id="path4442" style="fill:#ffde73;fill-opacity:1;fill-rule:nonzero;stroke:none" d="M 1265.76 1537.96 L 1253.89 1488.24 L 1279.82 1488.24 L 1265.76 1537.96"/>
    <path id="path4444" style="fill:#000000;fill-opacity:1;fill-rule:nonzero;stroke:none" d="M 1257.06 1490.74 L 1276.52 1490.74 L 1265.96 1528.05 L 1257.06 1490.74 Z M 1279.82 1485.74 L 1253.89 1485.74 C 1253.12 1485.74 1252.4 1486.09 1251.92 1486.68 C 1251.45 1487.29 1251.28 1488.07 1251.46 1488.81 L 1263.33 1538.54 C 1263.59 1539.65 1264.57 1540.44 1265.7 1540.46 C 1265.72 1540.46 1265.74 1540.46 1265.76 1540.46 C 1266.88 1540.46 1267.86 1539.72 1268.16 1538.65 L 1282.23 1488.92 C 1282.44 1488.17 1282.29 1487.36 1281.82 1486.73 C 1281.35 1486.11 1280.61 1485.74 1279.82 1485.74"/>
    <path id="path4446" style="fill:#ffde73;fill-opacity:1;fill-rule:nonzero;stroke:none" d="M 1433.56 1537.96 L 1379.5 1488.24 L 1445.43 1488.24 L 1433.56 1537.96"/>
    <path id="path4448" style="fill:#000000;fill-opacity:1;fill-rule:nonzero;stroke:none" d="M 1385.91 1490.74 L 1442.26 1490.74 L 1432.12 1533.24 L 1385.91 1490.74 Z M 1445.43 1485.74 L 1379.5 1485.74 C 1378.47 1485.74 1377.54 1486.37 1377.17 1487.33 C 1376.79 1488.28 1377.05 1489.38 1377.8 1490.07 L 1431.87 1539.8 C 1432.51 1540.4 1433.43 1540.6 1434.29 1540.35 C 1435.14 1540.09 1435.79 1539.41 1435.99 1538.54 L 1447.86 1488.81 C 1448.04 1488.07 1447.87 1487.29 1447.39 1486.68 C 1446.92 1486.09 1446.2 1485.74 1445.43 1485.74"/>
    <path id="path4450" style="fill:#b39471;fill-opacity:1;fill-rule:nonzero;stroke:none" d="M 1399.87 1360.67 C 1399.87 1360.67 1384.23 1403.94 1384.23 1488.16 L 1283.64 1488.16 C 1283.64 1437.73 1270.01 1419.52 1333.95 1364.72 L 1334.48 1390.19 C 1334.48 1390.19 1360.78 1341.71 1382.07 1341.71 C 1382.07 1341.71 1370.94 1370.77 1375.54 1391.93 C 1375.54 1391.93 1382.88 1370.01 1399.87 1360.67"/>
    <path id="path4452" style="fill:#000000;fill-opacity:1;fill-rule:nonzero;stroke:none" d="M 1334.48 1392.69 C 1335.39 1392.69 1336.24 1392.2 1336.68 1391.38 C 1343.27 1379.24 1362.64 1349.16 1378.35 1344.76 C 1375.46 1353.56 1369.36 1375.27 1373.1 1392.45 C 1373.34 1393.56 1374.28 1394.36 1375.41 1394.43 C 1376.61 1394.31 1377.56 1393.78 1377.91 1392.72 C 1377.97 1392.54 1383.45 1376.6 1395.42 1366.73 C 1391.17 1381.98 1381.97 1422.27 1381.73 1485.66 L 1286.13 1485.66 C 1286.06 1478.47 1285.74 1471.85 1285.46 1465.94 C 1283.81 1431.96 1282.89 1412.84 1331.56 1370.1 L 1331.98 1390.24 C 1332.01 1391.37 1332.79 1392.35 1333.89 1392.62 C 1334.09 1392.67 1334.29 1392.69 1334.48 1392.69 Z M 1382.2 1339.21 C 1382.13 1339.22 1382.1 1339.22 1382.07 1339.21 C 1364.81 1339.21 1345.42 1367.26 1336.8 1381.28 L 1336.45 1364.67 C 1336.43 1363.7 1335.85 1362.84 1334.97 1362.43 C 1334.08 1362.04 1333.05 1362.18 1332.32 1362.83 C 1277.72 1409.61 1278.75 1430.91 1280.46 1466.18 C 1280.8 1473.03 1281.14 1480.11 1281.14 1488.16 C 1281.14 1489.53 1282.26 1490.66 1283.64 1490.66 L 1384.23 1490.66 C 1385.61 1490.66 1386.73 1489.53 1386.73 1488.16 C 1386.73 1405.45 1402.07 1361.95 1402.23 1361.52 C 1402.58 1360.54 1402.29 1359.45 1401.5 1358.76 C 1400.69 1358.1 1399.57 1357.97 1398.67 1358.48 C 1387.86 1364.42 1380.84 1374.98 1376.96 1382.49 C 1376.46 1365.63 1382.85 1346.91 1384.17 1343.25 C 1384.5 1342.83 1384.7 1342.29 1384.7 1341.71 C 1384.7 1340.34 1383.57 1339.21 1382.2 1339.21"/>
    <path id="path4454" style="fill:#41996b;fill-opacity:1;fill-rule:nonzero;stroke:none" d="M 1468.37 1480.48 C 1468.37 1469.19 1459.23 1460.06 1447.93 1460.06 L 1243.31 1460.06 C 1232.03 1460.06 1222.88 1469.19 1222.88 1480.48 L 1222.88 1480.48 C 1222.88 1491.79 1232.03 1500.93 1243.31 1500.93 L 1447.93 1500.93 C 1459.23 1500.93 1468.37 1491.79 1468.37 1480.48 L 1468.37 1480.48"/>
    <path id="path4456" style="fill:#000000;fill-opacity:1;fill-rule:nonzero;stroke:none" d="M 1243.31 1498.43 C 1233.42 1498.43 1225.38 1490.37 1225.38 1480.48 C 1225.38 1470.6 1233.42 1462.56 1243.31 1462.56 L 1447.93 1462.56 C 1457.83 1462.56 1465.87 1470.6 1465.87 1480.48 C 1465.87 1490.37 1457.83 1498.43 1447.93 1498.43 L 1243.31 1498.43 Z M 1447.93 1457.56 L 1243.31 1457.56 C 1230.66 1457.56 1220.38 1467.85 1220.38 1480.48 C 1220.38 1493.14 1230.66 1503.43 1243.31 1503.43 L 1447.93 1503.43 C 1460.58 1503.43 1470.87 1493.14 1470.87 1480.48 C 1470.87 1467.85 1460.58 1457.56 1447.93 1457.56"/>
    <path id="path4458" style="fill:#ffde73;fill-opacity:1;fill-rule:nonzero;stroke:none" d="M 1105.34 1540.94 C 1105.34 1532.2 1098.25 1525.13 1089.51 1525.13 C 1080.78 1525.13 1073.69 1532.2 1073.69 1540.94 C 1073.69 1549.7 1080.78 1556.76 1089.51 1556.76 L 1089.52 1556.76 L 1089.52 1572.71 L 1089.51 1572.71 C 1071.97 1572.71 1057.75 1558.49 1057.75 1540.94 C 1057.75 1523.41 1071.97 1509.19 1089.51 1509.19 C 1107.06 1509.19 1121.28 1523.41 1121.28 1540.94 L 1105.34 1540.94"/>
    <path id="path4460" style="fill:#000000;fill-opacity:1;fill-rule:nonzero;stroke:none" d="M 1087.02 1570.1 C 1072.05 1568.83 1060.25 1556.23 1060.25 1540.94 C 1060.25 1524.82 1073.38 1511.69 1089.51 1511.69 C 1104.8 1511.69 1117.4 1523.48 1118.67 1538.44 L 1107.67 1538.44 C 1106.44 1529.52 1098.76 1522.63 1089.51 1522.63 C 1079.4 1522.63 1071.19 1530.84 1071.19 1540.94 C 1071.19 1550.2 1078.09 1557.86 1087.01 1559.1 L 1087.02 1570.1 Z M 1089.51 1506.69 C 1070.62 1506.69 1055.25 1522.05 1055.25 1540.94 C 1055.25 1559.84 1070.62 1575.21 1089.51 1575.21 C 1090.89 1575.21 1092.01 1574.09 1092.01 1572.71 L 1092.02 1556.76 C 1092.02 1556.1 1091.75 1555.46 1091.28 1554.99 C 1090.82 1554.52 1090.18 1554.26 1089.52 1554.26 C 1082.17 1554.26 1076.19 1548.28 1076.19 1540.94 C 1076.19 1533.6 1082.16 1527.63 1089.51 1527.63 C 1096.86 1527.63 1102.84 1533.6 1102.84 1540.94 C 1102.84 1542.32 1103.96 1543.44 1105.34 1543.44 L 1121.28 1543.44 C 1122.66 1543.44 1123.78 1542.32 1123.78 1540.94 C 1123.78 1522.05 1108.4 1506.69 1089.51 1506.69"/>
    <path id="path4462" style="fill:#b39471;fill-opacity:1;fill-rule:nonzero;stroke:none" d="M 1580.36 1166.89 L 1612.012 1166.89 L 1612.012 1786.179 L 1580.36 1786.179 L 1580.36 1166.89 Z"/>
    <path id="path4464" style="fill:#000000;fill-opacity:1;fill-rule:nonzero;stroke:none" d="M 1582.86 1169.39 L 1609.51 1169.39 L 1609.51 1783.68 L 1582.86 1783.68 L 1582.86 1169.39 Z M 1612.01 1164.39 L 1580.36 1164.39 C 1578.98 1164.39 1577.86 1165.51 1577.86 1166.89 L 1577.86 1786.18 C 1577.86 1787.56 1578.98 1788.68 1580.36 1788.68 L 1612.01 1788.68 C 1613.39 1788.68 1614.51 1787.56 1614.51 1786.18 L 1614.51 1166.89 C 1614.51 1165.51 1613.39 1164.39 1612.01 1164.39"/>
    <path id="path4466" style="fill:#ffde73;fill-opacity:1;fill-rule:nonzero;stroke:none" d="M 1622.16 1893.18 L 1570.21 1893.18 C 1552.07 1893.18 1537.34 1878.47 1537.34 1860.32 L 1537.34 1817.91 C 1537.34 1805.35 1544.49 1794.55 1554.86 1789.03 C 1553.54 1787.12 1552.59 1784.93 1552.59 1782.43 C 1552.59 1775.92 1557.86 1770.64 1564.37 1770.64 L 1568.75 1770.64 L 1568.75 1769.67 C 1568.75 1754.51 1581.04 1742.23 1596.19 1742.23 C 1611.35 1742.23 1623.64 1754.51 1623.64 1769.67 L 1623.64 1770.64 L 1628 1770.64 C 1634.52 1770.64 1639.79 1775.92 1639.79 1782.43 C 1639.79 1784.93 1638.84 1787.12 1637.52 1789.03 C 1647.9 1794.55 1655.03 1805.34 1655.03 1817.91 L 1655.03 1860.32 C 1655.03 1878.47 1640.32 1893.18 1622.16 1893.18"/>
    <path id="path4468" style="fill:#000000;fill-opacity:1;fill-rule:nonzero;stroke:none" d="M 1570.21 1890.68 C 1553.47 1890.68 1539.84 1877.05 1539.84 1860.32 L 1539.84 1817.91 C 1539.84 1806.78 1546.05 1796.56 1556.04 1791.23 C 1556.67 1790.9 1557.12 1790.31 1557.29 1789.61 C 1557.46 1788.92 1557.32 1788.19 1556.91 1787.6 C 1555.68 1785.83 1555.09 1784.14 1555.09 1782.43 C 1555.09 1777.31 1559.25 1773.14 1564.37 1773.14 L 1568.75 1773.14 C 1570.13 1773.14 1571.25 1772.02 1571.25 1770.64 L 1571.25 1769.67 C 1571.25 1755.92 1582.44 1744.73 1596.19 1744.73 C 1609.95 1744.73 1621.14 1755.92 1621.14 1769.67 L 1621.14 1770.64 C 1621.14 1772.02 1622.26 1773.14 1623.64 1773.14 L 1628 1773.14 C 1633.12 1773.14 1637.29 1777.31 1637.29 1782.43 C 1637.29 1784.14 1636.69 1785.83 1635.47 1787.6 C 1635.06 1788.19 1634.92 1788.92 1635.09 1789.61 C 1635.26 1790.31 1635.71 1790.9 1636.34 1791.23 C 1646.33 1796.56 1652.53 1806.78 1652.53 1817.91 L 1652.53 1860.32 C 1652.53 1877.05 1638.91 1890.68 1622.16 1890.68 L 1570.21 1890.68 Z M 1596.19 1739.73 C 1580.2 1739.73 1567.09 1752.34 1566.29 1768.14 L 1564.37 1768.14 C 1556.49 1768.14 1550.09 1774.55 1550.09 1782.43 C 1550.09 1784.35 1550.54 1786.25 1551.44 1788.12 C 1541.14 1794.59 1534.84 1805.78 1534.84 1817.91 L 1534.84 1860.32 C 1534.84 1879.82 1550.71 1895.68 1570.21 1895.68 L 1622.16 1895.68 C 1641.67 1895.68 1657.53 1879.82 1657.53 1860.32 L 1657.53 1817.91 C 1657.53 1805.78 1651.24 1794.59 1640.94 1788.12 C 1641.84 1786.25 1642.29 1784.35 1642.29 1782.43 C 1642.29 1774.55 1635.88 1768.14 1628 1768.14 L 1626.1 1768.14 C 1625.3 1752.34 1612.19 1739.73 1596.19 1739.73"/>
    <path id="path4470" style="fill:#ffde73;fill-opacity:1;fill-rule:nonzero;stroke:none" d="M 1623.64 1754.97 C 1623.64 1752.51 1621.65 1750.51 1619.19 1750.51 L 1619.19 1750.51 C 1616.74 1750.51 1614.73 1752.51 1614.73 1754.97 L 1614.73 1763.66 C 1614.73 1766.13 1616.74 1768.1 1619.19 1768.1 L 1619.19 1768.1 C 1621.65 1768.1 1623.64 1766.13 1623.64 1763.66 L 1623.64 1754.97"/>
    <path id="path4472" style="fill:#000000;fill-opacity:1;fill-rule:nonzero;stroke:none" d="M 1619.19 1765.6 C 1618.11 1765.6 1617.23 1764.73 1617.23 1763.66 L 1617.23 1754.97 C 1617.23 1753.89 1618.11 1753.01 1619.19 1753.01 C 1620.26 1753.01 1621.14 1753.89 1621.14 1754.97 L 1621.14 1763.66 C 1621.14 1764.73 1620.26 1765.6 1619.19 1765.6 Z M 1619.19 1748.01 C 1615.36 1748.01 1612.23 1751.14 1612.23 1754.97 L 1612.23 1763.66 C 1612.23 1767.48 1615.36 1770.6 1619.19 1770.6 C 1623.02 1770.6 1626.14 1767.48 1626.14 1763.66 L 1626.14 1754.97 C 1626.14 1751.14 1623.02 1748.01 1619.19 1748.01"/>
    <path id="path4474" style="fill:#ffde73;fill-opacity:1;fill-rule:nonzero;stroke:none" d="M 1577.64 1754.97 C 1577.64 1752.51 1575.65 1750.51 1573.21 1750.51 L 1573.21 1750.51 C 1570.74 1750.51 1568.75 1752.51 1568.75 1754.97 L 1568.75 1763.66 C 1568.75 1766.13 1570.74 1768.1 1573.21 1768.1 L 1573.21 1768.1 C 1575.65 1768.1 1577.64 1766.13 1577.64 1763.66 L 1577.64 1754.97"/>
    <path id="path4476" style="fill:#000000;fill-opacity:1;fill-rule:nonzero;stroke:none" d="M 1573.21 1765.6 C 1572.11 1765.6 1571.25 1764.75 1571.25 1763.66 L 1571.25 1754.97 C 1571.25 1753.89 1572.13 1753.01 1573.21 1753.01 C 1574.27 1753.01 1575.14 1753.89 1575.14 1754.97 L 1575.14 1763.66 C 1575.14 1764.73 1574.27 1765.6 1573.21 1765.6 Z M 1573.21 1748.01 C 1569.37 1748.01 1566.25 1751.14 1566.25 1754.97 L 1566.25 1763.66 C 1566.25 1767.48 1569.37 1770.6 1573.21 1770.6 C 1577.03 1770.6 1580.14 1767.48 1580.14 1763.66 L 1580.14 1754.97 C 1580.14 1751.14 1577.03 1748.01 1573.21 1748.01"/>
    <path id="path4478" style="fill:#ffde73;fill-opacity:1;fill-rule:nonzero;stroke:none" d="M 1608.31 1745.05 C 1608.31 1742.58 1606.32 1740.59 1603.86 1740.59 L 1603.86 1740.59 C 1601.39 1740.59 1599.4 1742.58 1599.4 1745.05 L 1599.4 1753.72 C 1599.4 1756.18 1601.39 1758.19 1603.86 1758.19 L 1603.86 1758.19 C 1606.32 1758.18 1608.31 1756.18 1608.31 1753.72 L 1608.31 1745.05"/>
    <path id="path4480" style="fill:#000000;fill-opacity:1;fill-rule:nonzero;stroke:none" d="M 1603.85 1755.69 C 1602.78 1755.69 1601.9 1754.81 1601.9 1753.72 L 1601.9 1745.05 C 1601.9 1743.97 1602.78 1743.09 1603.86 1743.09 C 1604.93 1743.09 1605.81 1743.97 1605.81 1745.05 L 1605.81 1753.72 C 1605.81 1754.8 1604.93 1755.69 1603.85 1755.69 Z M 1603.86 1738.09 C 1600.02 1738.09 1596.9 1741.21 1596.9 1745.05 L 1596.9 1753.72 C 1596.9 1757.56 1600.02 1760.69 1603.86 1760.69 C 1607.7 1760.67 1610.81 1757.55 1610.81 1753.72 L 1610.81 1745.05 C 1610.81 1741.21 1607.69 1738.09 1603.86 1738.09"/>
    <path id="path4482" style="fill:#ffde73;fill-opacity:1;fill-rule:nonzero;stroke:none" d="M 1592.98 1745.05 C 1592.98 1742.58 1590.99 1740.59 1588.53 1740.59 L 1588.53 1740.59 C 1586.06 1740.59 1584.07 1742.58 1584.07 1745.05 L 1584.07 1753.72 C 1584.07 1756.18 1586.06 1758.19 1588.53 1758.19 L 1588.53 1758.19 C 1590.99 1758.18 1592.98 1756.18 1592.98 1753.72 L 1592.98 1745.05"/>
    <path id="path4484" style="fill:#000000;fill-opacity:1;fill-rule:nonzero;stroke:none" d="M 1588.52 1755.69 C 1587.45 1755.69 1586.57 1754.81 1586.57 1753.72 L 1586.57 1745.05 C 1586.57 1743.97 1587.45 1743.09 1588.53 1743.09 C 1589.6 1743.09 1590.48 1743.97 1590.48 1745.05 L 1590.48 1753.72 C 1590.48 1754.8 1589.6 1755.69 1588.52 1755.69 Z M 1588.53 1738.09 C 1584.69 1738.09 1581.57 1741.21 1581.57 1745.05 L 1581.57 1753.72 C 1581.57 1757.56 1584.69 1760.69 1588.53 1760.69 C 1592.37 1760.67 1595.48 1757.55 1595.48 1753.72 L 1595.48 1745.05 C 1595.48 1741.21 1592.36 1738.09 1588.53 1738.09"/>
    <path id="path4486" style="fill:#2a5b6a;fill-opacity:1;fill-rule:nonzero;stroke:none" d="M 1556.36 1813.96 C 1563.6 1806.69 1575.32 1806.71 1582.54 1813.96 L 1556.45 1840.05 C 1549.21 1832.83 1549.17 1821.13 1556.36 1813.96"/>
    <path id="path4488" style="fill:#000000;fill-opacity:1;fill-rule:nonzero;stroke:none" d="M 1556.58 1836.38 C 1554.58 1833.65 1553.5 1830.36 1553.5 1826.92 C 1553.5 1822.68 1555.14 1818.7 1558.13 1815.73 C 1563.59 1810.25 1572.75 1809.59 1578.87 1814.1 L 1556.58 1836.38 Z M 1569.45 1806.02 L 1569.45 1806.02 C 1563.83 1806.02 1558.55 1808.21 1554.58 1812.19 C 1550.66 1816.11 1548.5 1821.34 1548.5 1826.92 C 1548.5 1832.54 1550.69 1837.84 1554.68 1841.82 C 1555.66 1842.8 1557.24 1842.8 1558.22 1841.82 L 1584.31 1815.73 C 1585.28 1814.75 1585.28 1813.17 1584.31 1812.19 C 1580.34 1808.21 1575.06 1806.02 1569.45 1806.02"/>
    <path id="path4490" style="fill:#2a5b6a;fill-opacity:1;fill-rule:nonzero;stroke:none" d="M 1636.03 1813.96 C 1628.78 1806.69 1617.08 1806.71 1609.82 1813.96 L 1635.93 1840.05 C 1643.16 1832.83 1643.21 1821.13 1636.03 1813.96"/>
    <path id="path4492" style="fill:#000000;fill-opacity:1;fill-rule:nonzero;stroke:none" d="M 1613.5 1814.1 C 1619.61 1809.6 1628.79 1810.26 1634.25 1815.73 C 1637.24 1818.7 1638.88 1822.68 1638.88 1826.91 C 1638.89 1830.36 1637.8 1833.65 1635.8 1836.38 L 1613.5 1814.1 Z M 1622.93 1806.02 C 1617.32 1806.02 1612.04 1808.21 1608.06 1812.19 C 1607.59 1812.66 1607.32 1813.29 1607.32 1813.96 C 1607.32 1814.62 1607.59 1815.26 1608.06 1815.73 L 1634.16 1841.82 C 1635.14 1842.8 1636.72 1842.8 1637.7 1841.82 C 1641.68 1837.84 1643.89 1832.54 1643.88 1826.91 C 1643.88 1821.34 1641.72 1816.11 1637.79 1812.19 C 1633.82 1808.21 1628.54 1806.02 1622.93 1806.02"/>
    <path id="path4494" style="fill:#f15a24;fill-opacity:1;fill-rule:nonzero;stroke:none" d="M 1596.19 1847.34 C 1594.93 1847.34 1593.92 1846.3 1593.92 1845.05 L 1593.92 1841.09 L 1590.96 1841.09 L 1590.96 1849.29 C 1592.62 1848.77 1594.36 1848.41 1596.19 1848.41 C 1598.03 1848.41 1599.77 1848.77 1601.44 1849.29 L 1601.44 1841.09 L 1598.46 1841.09 L 1598.46 1845.05 C 1598.46 1846.3 1597.45 1847.34 1596.19 1847.34 Z M 1582.91 1866.25 C 1582.91 1873.58 1588.86 1879.54 1596.19 1879.54 C 1603.52 1879.54 1609.48 1873.58 1609.48 1866.25 C 1609.48 1862.85 1608.1 1859.81 1605.99 1857.45 L 1605.99 1861.78 C 1605.99 1863.04 1604.97 1864.06 1603.72 1864.06 C 1602.45 1864.06 1601.44 1863.04 1601.44 1861.78 L 1601.44 1854.06 C 1599.82 1853.36 1598.06 1852.96 1596.19 1852.96 C 1594.33 1852.96 1592.56 1853.36 1590.96 1854.06 L 1590.96 1861.78 C 1590.96 1863.04 1589.94 1864.06 1588.68 1864.06 C 1587.41 1864.06 1586.4 1863.04 1586.4 1861.78 L 1586.4 1857.44 C 1584.29 1859.8 1582.91 1862.85 1582.91 1866.25 Z M 1609.79 1841.09 L 1605.99 1841.09 L 1605.99 1851.36 C 1610.83 1854.56 1614.03 1860.03 1614.03 1866.25 C 1614.03 1876.1 1606.04 1884.1 1596.19 1884.1 C 1586.36 1884.1 1578.35 1876.1 1578.35 1866.25 C 1578.35 1860.03 1581.56 1854.56 1586.4 1851.37 L 1586.4 1841.09 L 1582.59 1841.09 C 1581.33 1841.09 1580.32 1840.05 1580.32 1838.8 C 1580.32 1837.55 1581.33 1836.54 1582.59 1836.54 L 1593.92 1836.54 L 1593.92 1831.36 C 1593.92 1830.11 1594.93 1829.1 1596.19 1829.1 C 1597.45 1829.1 1598.46 1830.11 1598.46 1831.36 L 1598.46 1836.54 L 1609.79 1836.54 C 1611.06 1836.54 1612.07 1837.55 1612.07 1838.8 C 1612.07 1840.05 1611.06 1841.09 1609.79 1841.09"/>
    <path id="path4496" style="fill:#cccaba;fill-opacity:1;fill-rule:nonzero;stroke:none" d="M 1500.32 1860.25 C 1498.17 1872.43 1493.99 1884.11 1488.33 1895.03 C 1481.34 1852.61 1446.63 1822.06 1399.32 1822.06 C 1380.11 1822.06 1367.29 1806.5 1370.67 1787.29 C 1374.07 1768.08 1392.37 1752.51 1411.59 1752.51 L 1411.6 1752.51 C 1471.08 1752.51 1510.81 1800.75 1500.32 1860.25"/>
    <path id="path4498" style="fill:#000000;fill-opacity:1;fill-rule:nonzero;stroke:none" d="M 1489.3 1887.29 C 1479.29 1846.48 1444.01 1819.56 1399.32 1819.56 C 1390.88 1819.56 1383.53 1816.33 1378.6 1810.47 C 1373.55 1804.46 1371.61 1796.38 1373.13 1787.72 C 1376.33 1769.69 1393.58 1755.01 1411.59 1755.01 L 1411.6 1755.01 C 1439.3 1755.01 1463.52 1765.69 1479.79 1785.08 C 1496.44 1804.92 1502.86 1831.46 1497.86 1859.82 C 1496.24 1869.04 1493.36 1878.25 1489.3 1887.29 Z M 1411.6 1750.01 C 1391.27 1750.01 1371.81 1766.54 1368.21 1786.85 C 1366.43 1797 1368.76 1806.52 1374.78 1813.68 C 1380.66 1820.7 1389.38 1824.56 1399.32 1824.56 C 1444.1 1824.56 1478.88 1853.05 1485.87 1895.44 C 1486.04 1896.5 1486.88 1897.34 1487.94 1897.5 C 1489.05 1897.65 1490.07 1897.13 1490.56 1896.18 C 1496.56 1884.6 1500.67 1872.65 1502.78 1860.68 C 1508.04 1830.84 1501.24 1802.85 1483.62 1781.87 C 1466.38 1761.32 1440.8 1750.01 1411.6 1750.01"/>
    <path id="path4500" style="fill:#f2f1e7;fill-opacity:1;fill-rule:nonzero;stroke:none" d="M 1458.47 1607.9 C 1456.73 1617.83 1448.94 1626.19 1439.57 1629.42 C 1450.56 1641.16 1455.83 1658.12 1452.5 1677.05 L 1437.92 1759.7 C 1431.68 1795.07 1397.94 1823.76 1362.54 1823.76 L 1261.34 1823.76 C 1225.94 1823.76 1202.31 1795.07 1208.55 1759.7 L 1223.12 1677.05 C 1228.75 1645.09 1256.85 1618.67 1288.33 1613.84 C 1288.15 1611.94 1288.13 1609.97 1288.5 1607.9 C 1290.74 1595.21 1302.84 1584.92 1315.53 1584.92 L 1328.82 1584.92 L 1329.16 1583.03 C 1334.36 1553.49 1362.53 1529.52 1392.09 1529.52 C 1421.62 1529.52 1441.36 1553.49 1436.15 1583.03 L 1435.82 1584.92 L 1439.54 1584.92 C 1452.23 1584.92 1460.72 1595.21 1458.47 1607.9"/>
    <path id="path4502" style="fill:#000000;fill-opacity:1;fill-rule:nonzero;stroke:none" d="M 1261.34 1821.26 C 1245.15 1821.26 1231.01 1815.03 1221.53 1803.73 C 1211.83 1792.17 1208.1 1776.68 1211.02 1760.14 L 1225.58 1677.48 C 1230.9 1647.31 1258.04 1621.01 1288.71 1616.31 C 1290.01 1616.12 1290.94 1614.93 1290.82 1613.61 C 1290.63 1611.62 1290.68 1609.94 1290.96 1608.34 C 1293 1596.8 1304.02 1587.42 1315.53 1587.42 L 1328.82 1587.42 C 1330.04 1587.42 1331.07 1586.55 1331.28 1585.35 L 1331.62 1583.46 C 1336.61 1555.1 1363.74 1532.02 1392.09 1532.02 C 1405.46 1532.02 1417.14 1537.17 1424.99 1546.52 C 1433.01 1556.08 1436.1 1568.89 1433.69 1582.6 L 1433.36 1584.49 C 1433.23 1585.21 1433.43 1585.96 1433.91 1586.53 C 1434.38 1587.09 1435.08 1587.42 1435.82 1587.42 L 1439.54 1587.42 C 1444.86 1587.42 1449.5 1589.45 1452.6 1593.14 C 1455.77 1596.92 1456.98 1602.01 1456.01 1607.46 C 1454.49 1616.16 1447.55 1624.03 1438.75 1627.05 C 1437.95 1627.33 1437.34 1627.99 1437.14 1628.81 C 1436.93 1629.64 1437.16 1630.51 1437.74 1631.13 C 1448.61 1642.73 1453.09 1659.31 1450.03 1676.62 L 1435.46 1759.27 C 1429.43 1793.45 1396.72 1821.26 1362.54 1821.26 L 1261.34 1821.26 Z M 1392.09 1527.02 C 1361.48 1527.02 1332.2 1551.86 1326.72 1582.42 L 1315.53 1582.42 C 1301.71 1582.42 1288.48 1593.66 1286.04 1607.47 C 1285.8 1608.85 1285.68 1610.25 1285.71 1611.75 C 1253.46 1617.7 1226.29 1644.64 1220.65 1676.62 L 1206.09 1759.27 C 1202.91 1777.3 1207.03 1794.23 1217.7 1806.95 C 1228.15 1819.4 1243.65 1826.26 1261.34 1826.26 L 1362.54 1826.26 C 1399.03 1826.26 1433.96 1796.6 1440.38 1760.13 L 1454.96 1677.48 C 1458.06 1659.91 1453.98 1642.95 1443.75 1630.4 C 1452.69 1626.11 1459.28 1617.78 1460.93 1608.33 C 1462.16 1601.4 1460.56 1594.86 1456.43 1589.93 C 1452.37 1585.08 1446.37 1582.42 1439.54 1582.42 L 1438.79 1582.42 C 1441.13 1567.62 1437.6 1553.77 1428.81 1543.29 C 1420.01 1532.81 1406.97 1527.02 1392.09 1527.02"/>
    <path id="path4504" style="fill:#f2f1e7;fill-opacity:1;fill-rule:nonzero;stroke:none" d="M 1441.2 1554.37 C 1442.04 1549.58 1438.85 1545.7 1434.06 1545.7 L 1434.06 1545.7 C 1429.27 1545.7 1424.69 1549.58 1423.84 1554.37 L 1420.86 1571.28 C 1420.02 1576.09 1423.22 1579.97 1428.02 1579.97 L 1428.02 1579.97 C 1432.81 1579.97 1437.37 1576.09 1438.21 1571.28 L 1441.2 1554.37"/>
    <path id="path4506" style="fill:#000000;fill-opacity:1;fill-rule:nonzero;stroke:none" d="M 1428.02 1577.47 C 1426.47 1577.47 1425.15 1576.91 1424.28 1575.87 C 1423.38 1574.8 1423.04 1573.32 1423.32 1571.71 L 1426.3 1554.8 C 1426.94 1551.22 1430.49 1548.2 1434.06 1548.2 C 1435.6 1548.2 1436.92 1548.76 1437.78 1549.8 C 1438.68 1550.86 1439.02 1552.34 1438.74 1553.94 L 1435.75 1570.84 C 1435.12 1574.44 1431.58 1577.47 1428.02 1577.47 Z M 1434.06 1543.2 C 1428.01 1543.2 1422.44 1547.91 1421.38 1553.93 L 1418.4 1570.85 C 1417.86 1573.94 1418.59 1576.87 1420.45 1579.09 C 1422.29 1581.27 1424.98 1582.47 1428.02 1582.47 C 1434.05 1582.47 1439.61 1577.75 1440.67 1571.71 L 1443.66 1554.81 C 1444.2 1551.71 1443.48 1548.79 1441.61 1546.58 C 1439.78 1544.4 1437.1 1543.2 1434.06 1543.2"/>
    <path id="path4508" style="fill:#f2f1e7;fill-opacity:1;fill-rule:nonzero;stroke:none" d="M 1351.55 1554.37 C 1352.41 1549.58 1349.2 1545.7 1344.42 1545.7 L 1344.42 1545.7 C 1339.61 1545.7 1335.05 1549.58 1334.2 1554.37 L 1331.21 1571.28 C 1330.37 1576.09 1333.57 1579.97 1338.37 1579.97 L 1338.37 1579.97 C 1343.17 1579.97 1347.72 1576.09 1348.57 1571.28 L 1351.55 1554.37"/>
    <path id="path4510" style="fill:#000000;fill-opacity:1;fill-rule:nonzero;stroke:none" d="M 1338.37 1577.47 C 1336.83 1577.47 1335.5 1576.91 1334.63 1575.87 C 1333.73 1574.8 1333.39 1573.32 1333.67 1571.71 L 1336.67 1554.81 C 1337.3 1551.22 1340.85 1548.2 1344.42 1548.2 C 1345.96 1548.2 1347.28 1548.76 1348.15 1549.8 C 1349.04 1550.87 1349.38 1552.34 1349.09 1553.93 L 1346.11 1570.85 C 1345.48 1574.44 1341.93 1577.47 1338.37 1577.47 Z M 1344.42 1543.2 C 1338.37 1543.2 1332.8 1547.91 1331.74 1553.93 L 1328.75 1570.84 C 1328.21 1573.94 1328.94 1576.87 1330.81 1579.09 C 1332.64 1581.27 1335.33 1582.47 1338.37 1582.47 C 1344.41 1582.47 1349.97 1577.75 1351.04 1571.72 L 1354.01 1554.8 C 1354.56 1551.78 1353.81 1548.78 1351.98 1546.6 C 1350.15 1544.4 1347.46 1543.2 1344.42 1543.2"/>
    <path id="path4512" style="fill:#f2f1e7;fill-opacity:1;fill-rule:nonzero;stroke:none" d="M 1414.72 1535.01 C 1415.58 1530.23 1412.39 1526.34 1407.6 1526.34 L 1407.6 1526.34 C 1402.79 1526.34 1398.22 1530.23 1397.38 1535.03 L 1394.39 1551.95 C 1393.54 1556.75 1396.74 1560.63 1401.55 1560.63 L 1401.55 1560.63 C 1406.33 1560.62 1410.9 1556.74 1411.75 1551.95 L 1414.72 1535.01"/>
    <path id="path4514" style="fill:#000000;fill-opacity:1;fill-rule:nonzero;stroke:none" d="M 1401.55 1558.13 C 1400 1558.13 1398.67 1557.56 1397.8 1556.53 C 1396.91 1555.46 1396.57 1553.99 1396.86 1552.39 L 1399.84 1535.46 C 1400.47 1531.88 1404.02 1528.84 1407.6 1528.84 C 1409.14 1528.84 1410.45 1529.41 1411.32 1530.44 C 1412.21 1531.51 1412.54 1532.97 1412.26 1534.57 L 1409.29 1551.52 C 1408.65 1555.09 1405.11 1558.12 1401.55 1558.13 Z M 1407.6 1523.84 C 1401.54 1523.84 1395.97 1528.57 1394.92 1534.6 L 1391.93 1551.52 C 1391.39 1554.6 1392.11 1557.52 1393.97 1559.74 C 1395.81 1561.93 1398.5 1563.13 1401.55 1563.13 C 1407.59 1563.12 1413.14 1558.39 1414.21 1552.39 L 1417.18 1535.44 C 1417.73 1532.37 1417.01 1529.45 1415.15 1527.23 C 1413.33 1525.04 1410.64 1523.84 1407.6 1523.84"/>
    <path id="path4516" style="fill:#f2f1e7;fill-opacity:1;fill-rule:nonzero;stroke:none" d="M 1384.85 1535.01 C 1385.7 1530.23 1382.5 1526.34 1377.71 1526.34 L 1377.71 1526.34 C 1372.91 1526.34 1368.33 1530.23 1367.5 1535.03 L 1364.5 1551.95 C 1363.67 1556.75 1366.86 1560.63 1371.66 1560.63 L 1371.66 1560.63 C 1376.45 1560.62 1381.03 1556.74 1381.86 1551.95 L 1384.85 1535.01"/>
    <path id="path4518" style="fill:#000000;fill-opacity:1;fill-rule:nonzero;stroke:none" d="M 1371.66 1558.13 C 1370.12 1558.13 1368.79 1557.56 1367.93 1556.54 C 1367.03 1555.46 1366.68 1553.99 1366.97 1552.38 L 1369.97 1535.47 C 1370.59 1531.87 1374.13 1528.84 1377.71 1528.84 C 1379.25 1528.84 1380.57 1529.41 1381.44 1530.44 C 1382.33 1531.51 1382.68 1532.98 1382.39 1534.57 L 1379.39 1551.51 C 1378.77 1555.09 1375.23 1558.12 1371.66 1558.13 Z M 1377.71 1523.84 C 1371.65 1523.84 1366.08 1528.57 1365.04 1534.6 L 1362.04 1551.51 C 1361.5 1554.61 1362.24 1557.54 1364.1 1559.76 C 1365.94 1561.93 1368.62 1563.13 1371.66 1563.13 C 1377.72 1563.12 1383.28 1558.39 1384.32 1552.38 L 1387.31 1535.45 C 1387.86 1532.37 1387.13 1529.45 1385.27 1527.23 C 1383.44 1525.04 1380.75 1523.84 1377.71 1523.84"/>
    <path id="path4520" style="fill:#2a5b6a;fill-opacity:1;fill-rule:nonzero;stroke:none" d="M 1288.11 1669.33 C 1304.72 1655.2 1327.54 1655.23 1339.17 1669.35 L 1279.34 1720.21 C 1267.71 1706.11 1271.65 1683.31 1288.11 1669.33"/>
    <path id="path4522" style="fill:#000000;fill-opacity:1;fill-rule:nonzero;stroke:none" d="M 1279.75 1716.58 C 1270.93 1703.45 1275.1 1683.67 1289.73 1671.23 C 1297.3 1664.79 1306.45 1661.24 1315.48 1661.24 L 1315.49 1661.24 C 1323.46 1661.24 1330.5 1664.02 1335.59 1669.11 L 1279.75 1716.58 Z M 1315.49 1656.24 L 1315.48 1656.24 C 1305.26 1656.24 1294.97 1660.22 1286.49 1667.43 C 1269.01 1682.28 1264.93 1706.67 1277.41 1721.8 C 1277.83 1722.32 1278.45 1722.64 1279.12 1722.7 C 1279.75 1722.81 1280.45 1722.55 1280.96 1722.11 L 1340.79 1671.25 C 1341.83 1670.36 1341.97 1668.81 1341.1 1667.76 C 1334.99 1660.34 1325.89 1656.24 1315.49 1656.24"/>
    <path id="path4524" style="fill:#2a5b6a;fill-opacity:1;fill-rule:nonzero;stroke:none" d="M 1443.41 1669.33 C 1431.77 1655.2 1408.94 1655.23 1392.34 1669.35 L 1434.24 1720.21 C 1450.85 1706.11 1454.94 1683.31 1443.41 1669.33"/>
    <path id="path4526" style="fill:#000000;fill-opacity:1;fill-rule:nonzero;stroke:none" d="M 1395.87 1669.71 C 1403.06 1664.23 1411.46 1661.24 1419.76 1661.24 C 1428.63 1661.24 1436.34 1664.68 1441.48 1670.92 C 1451.69 1683.31 1448.47 1703.34 1434.51 1716.6 L 1395.87 1669.71 Z M 1419.76 1656.24 C 1409.52 1656.24 1399.21 1660.22 1390.72 1667.44 C 1389.68 1668.33 1389.54 1669.89 1390.41 1670.94 L 1432.31 1721.8 C 1432.73 1722.32 1433.35 1722.64 1434.02 1722.7 C 1434.65 1722.81 1435.34 1722.55 1435.85 1722.11 C 1453.47 1707.16 1457.72 1682.77 1445.34 1667.74 C 1439.23 1660.33 1430.15 1656.24 1419.76 1656.24"/>
    <path id="path4528" style="fill:#cccaba;fill-opacity:1;fill-rule:nonzero;stroke:none" d="M 1101.49 1860.25 C 1099.35 1872.43 1099.4 1884.11 1101.21 1895.03 C 1123.17 1852.61 1168.65 1822.06 1215.96 1822.06 C 1235.16 1822.06 1253.48 1806.5 1256.87 1787.29 C 1260.25 1768.08 1247.43 1752.51 1228.23 1752.51 L 1228.22 1752.51 L 1228.21 1752.51 C 1168.73 1752.51 1112 1800.75 1101.49 1860.25"/>
    <path id="path4530" style="fill:#000000;fill-opacity:1;fill-rule:nonzero;stroke:none" d="M 1102.73 1887.13 C 1101.99 1878.43 1102.39 1869.57 1103.96 1860.68 C 1114.24 1802.42 1169.98 1755.01 1228.21 1755.01 L 1228.23 1755.01 C 1236.66 1755.01 1244.01 1758.25 1248.94 1764.11 C 1253.99 1770.13 1255.93 1778.21 1254.4 1786.86 C 1251.23 1804.89 1233.98 1819.56 1215.96 1819.56 C 1171.43 1819.56 1126.85 1846.43 1102.73 1887.13 Z M 1228.23 1750.01 L 1228.21 1750.01 C 1167.67 1750.01 1109.72 1799.27 1099.03 1859.81 C 1096.92 1871.83 1096.82 1883.82 1098.75 1895.44 C 1098.92 1896.51 1099.76 1897.34 1100.82 1897.5 C 1101.91 1897.65 1102.94 1897.13 1103.43 1896.18 C 1125.61 1853.34 1170.83 1824.56 1215.96 1824.56 C 1236.29 1824.56 1255.75 1808.04 1259.33 1787.72 C 1261.11 1777.59 1258.78 1768.06 1252.77 1760.9 C 1246.88 1753.88 1238.16 1750.01 1228.23 1750.01"/>
    <path id="path4532" style="fill:#f15a24;fill-opacity:1;fill-rule:nonzero;stroke:none" d="M 1361.18 1729.94 C 1360.76 1732.4 1358.42 1734.39 1355.96 1734.39 C 1353.51 1734.39 1351.88 1732.4 1352.3 1729.94 L 1353.67 1722.2 L 1347.9 1722.2 L 1345.08 1738.19 C 1348.51 1737.18 1352.02 1736.48 1355.59 1736.48 C 1359.17 1736.48 1362.43 1737.18 1365.5 1738.19 L 1368.33 1722.2 L 1362.54 1722.2 L 1361.18 1729.94 Z M 1323.55 1771.26 C 1321.04 1785.55 1330.61 1797.16 1344.9 1797.16 C 1359.18 1797.16 1372.84 1785.55 1375.37 1771.26 C 1376.55 1764.56 1374.99 1758.5 1371.61 1753.89 L 1370.08 1762.54 C 1369.65 1764.99 1367.32 1766.99 1364.86 1766.99 C 1362.41 1766.99 1360.77 1764.99 1361.21 1762.54 L 1363.87 1747.47 C 1360.97 1746.12 1357.65 1745.35 1354.02 1745.35 C 1350.4 1745.35 1346.82 1746.12 1343.44 1747.47 L 1340.79 1762.54 C 1340.35 1764.99 1338.02 1766.99 1335.57 1766.99 C 1333.12 1766.99 1331.48 1764.99 1331.91 1762.54 L 1333.43 1753.9 C 1328.43 1758.5 1324.73 1764.56 1323.55 1771.26 Z M 1384.61 1722.2 L 1377.2 1722.2 L 1373.66 1742.24 C 1382 1748.47 1386.38 1759.13 1384.23 1771.26 C 1380.86 1790.43 1362.51 1806.05 1343.33 1806.05 C 1324.14 1806.05 1311.29 1790.43 1314.68 1771.26 C 1316.81 1759.13 1324.95 1748.47 1335.49 1742.24 L 1339.02 1722.2 L 1331.59 1722.2 C 1329.16 1722.2 1327.52 1720.22 1327.95 1717.77 C 1328.38 1715.32 1330.71 1713.33 1333.16 1713.33 L 1355.23 1713.33 L 1357.01 1703.27 C 1357.45 1700.81 1359.78 1698.84 1362.23 1698.84 C 1364.68 1698.84 1366.32 1700.81 1365.89 1703.27 L 1364.11 1713.33 L 1386.19 1713.33 C 1388.63 1713.33 1390.28 1715.32 1389.84 1717.77 C 1389.41 1720.22 1387.07 1722.2 1384.61 1722.2"/>
    <path id="path4534" style="fill:#000000;fill-opacity:1;fill-rule:nonzero;stroke:none" d="M 1345.65 1749.31 C 1350.93 1747.48 1356.42 1747.39 1361.05 1749.02 L 1358.75 1762.1 C 1358.4 1764.02 1358.88 1765.91 1360.06 1767.32 C 1361.22 1768.69 1362.96 1769.49 1364.86 1769.49 C 1368.53 1769.49 1371.9 1766.62 1372.54 1762.97 L 1372.7 1762.1 C 1373.35 1764.86 1373.44 1767.82 1372.91 1770.83 C 1370.58 1783.97 1358.01 1794.66 1344.9 1794.66 C 1338.81 1794.66 1333.51 1792.33 1329.96 1788.1 C 1326.32 1783.76 1324.92 1777.94 1326.02 1771.69 C 1326.55 1768.64 1327.7 1765.63 1329.36 1762.82 C 1329.24 1764.49 1329.74 1766.1 1330.77 1767.32 C 1331.92 1768.69 1333.68 1769.49 1335.57 1769.49 C 1339.23 1769.49 1342.6 1766.62 1343.25 1762.98 L 1345.65 1749.31 Z M 1354.02 1742.85 C 1350.18 1742.85 1346.31 1743.63 1342.51 1745.15 C 1341.71 1745.47 1341.13 1746.18 1340.98 1747.04 L 1338.33 1762.11 C 1338.1 1763.37 1336.81 1764.49 1335.57 1764.49 C 1335.27 1764.49 1334.86 1764.42 1334.59 1764.1 C 1334.37 1763.83 1334.29 1763.43 1334.37 1762.97 L 1335.89 1754.33 C 1336.08 1753.27 1335.57 1752.22 1334.63 1751.7 C 1333.7 1751.18 1332.52 1751.33 1331.74 1752.06 C 1326.09 1757.26 1322.3 1763.92 1321.09 1770.83 C 1319.73 1778.56 1321.52 1785.83 1326.12 1791.32 C 1330.64 1796.7 1337.31 1799.66 1344.9 1799.66 C 1360.33 1799.66 1375.1 1787.11 1377.83 1771.7 C 1379.07 1764.65 1377.58 1757.8 1373.62 1752.42 C 1373.02 1751.6 1371.99 1751.22 1371.04 1751.46 C 1370.06 1751.68 1369.32 1752.47 1369.15 1753.45 L 1367.62 1762.1 C 1367.31 1763.81 1364.7 1765.08 1363.89 1764.1 C 1363.67 1763.83 1363.59 1763.44 1363.67 1762.98 L 1366.33 1747.91 C 1366.52 1746.8 1365.95 1745.69 1364.93 1745.21 C 1361.59 1743.65 1357.92 1742.85 1354.02 1742.85 Z M 1350 1724.7 L 1350.69 1724.7 L 1349.84 1729.51 C 1349.54 1731.25 1349.91 1732.98 1350.86 1734.33 C 1350 1734.46 1349.12 1734.61 1348.22 1734.81 L 1350 1724.7 Z M 1364.64 1724.7 L 1365.35 1724.7 L 1363.53 1735.01 C 1362.82 1734.83 1362.13 1734.68 1361.44 1734.54 C 1362.57 1733.42 1363.37 1731.97 1363.64 1730.36 L 1364.64 1724.7 Z M 1368.33 1719.7 L 1362.54 1719.7 C 1361.33 1719.7 1360.29 1720.57 1360.08 1721.77 L 1358.72 1729.51 C 1358.5 1730.77 1357.19 1731.89 1355.96 1731.89 C 1355.66 1731.89 1355.25 1731.82 1354.99 1731.51 C 1354.77 1731.24 1354.69 1730.83 1354.77 1730.37 L 1356.13 1722.64 C 1356.26 1721.91 1356.06 1721.16 1355.59 1720.59 C 1355.11 1720.02 1354.41 1719.7 1353.67 1719.7 L 1347.9 1719.7 C 1346.69 1719.7 1345.65 1720.57 1345.44 1721.77 L 1342.62 1737.76 C 1342.47 1738.61 1342.77 1739.48 1343.42 1740.05 C 1344.07 1740.61 1344.97 1740.83 1345.79 1740.59 C 1353.24 1738.39 1358.11 1738.4 1364.73 1740.56 C 1365.42 1740.79 1366.17 1740.71 1366.79 1740.34 C 1367.41 1739.95 1367.84 1739.34 1367.96 1738.63 L 1370.79 1722.64 C 1370.92 1721.91 1370.72 1721.16 1370.24 1720.59 C 1369.77 1720.02 1369.06 1719.7 1368.33 1719.7 Z M 1331.59 1719.7 C 1331.3 1719.7 1330.89 1719.63 1330.63 1719.32 C 1330.41 1719.06 1330.33 1718.66 1330.41 1718.2 C 1330.63 1716.94 1331.92 1715.83 1333.16 1715.83 L 1355.23 1715.83 C 1356.45 1715.83 1357.49 1714.96 1357.7 1713.77 L 1359.47 1703.71 C 1359.7 1702.44 1360.99 1701.34 1362.23 1701.34 C 1362.53 1701.34 1362.94 1701.41 1363.21 1701.72 C 1363.43 1701.99 1363.51 1702.39 1363.43 1702.84 L 1361.65 1712.89 C 1361.52 1713.63 1361.72 1714.38 1362.2 1714.94 C 1362.67 1715.51 1363.37 1715.83 1364.11 1715.83 L 1386.19 1715.83 C 1386.62 1715.83 1386.95 1715.97 1387.16 1716.21 C 1387.38 1716.48 1387.46 1716.88 1387.38 1717.33 C 1387.15 1718.6 1385.86 1719.7 1384.61 1719.7 L 1377.2 1719.7 C 1375.99 1719.7 1374.95 1720.57 1374.74 1721.76 L 1371.2 1741.8 C 1371.04 1742.74 1371.41 1743.68 1372.17 1744.24 C 1380.08 1750.16 1383.67 1760.09 1381.77 1770.82 C 1378.59 1788.87 1361.35 1803.55 1343.33 1803.55 C 1334.9 1803.55 1327.55 1800.31 1322.61 1794.43 C 1317.56 1788.4 1315.62 1780.34 1317.14 1771.7 C 1319.07 1760.73 1326.41 1750.51 1336.76 1744.39 C 1337.39 1744.02 1337.82 1743.39 1337.95 1742.67 L 1341.48 1722.63 C 1341.62 1721.91 1341.42 1721.16 1340.94 1720.59 C 1340.46 1720.02 1339.76 1719.7 1339.02 1719.7 L 1331.59 1719.7 Z M 1362.23 1696.34 C 1358.57 1696.34 1355.2 1699.19 1354.55 1702.84 L 1353.14 1710.83 L 1333.16 1710.83 C 1329.5 1710.83 1326.13 1713.68 1325.49 1717.34 C 1325.15 1719.24 1325.63 1721.15 1326.8 1722.54 C 1327.96 1723.91 1329.7 1724.7 1331.59 1724.7 L 1336.04 1724.7 L 1333.22 1740.69 C 1322.15 1747.61 1314.33 1758.79 1312.22 1770.83 C 1310.43 1780.94 1312.76 1790.46 1318.78 1797.64 C 1324.68 1804.67 1333.4 1808.55 1343.33 1808.55 C 1363.67 1808.55 1383.12 1792.02 1386.69 1771.69 C 1388.83 1759.62 1384.99 1748.34 1376.38 1741.2 L 1379.3 1724.7 L 1384.61 1724.7 C 1388.29 1724.7 1391.66 1721.85 1392.3 1718.2 C 1392.64 1716.3 1392.17 1714.41 1391 1713.01 C 1389.84 1711.62 1388.09 1710.83 1386.19 1710.83 L 1367.09 1710.83 L 1368.35 1703.71 C 1368.69 1701.8 1368.21 1699.91 1367.04 1698.51 C 1365.88 1697.13 1364.13 1696.34 1362.23 1696.34"/>
  </g>
</svg>