<?xml version="1.0" encoding="utf-8"?>
<svg viewBox="654.1409912109375 298.3479919433594 146.7989959716797 86.72000122070312" width="146.7989959716797" height="86.72000122070312" xmlns="http://www.w3.org/2000/svg">
  <g transform="matrix(0.12500000186264515, 0, 0, -0.12500000186264515, 0, 526.1375122070312)">
    <path id="path16" style="fill:#ddd8bf;fill-opacity:1;fill-rule:nonzero;stroke:none" d="M 6068.81 1155.71 C 6068.81 1140.72 5957.51 1128.56 5820.21 1128.56 C 5682.91 1128.56 5571.59 1140.72 5571.59 1155.71 C 5571.59 1170.7 5682.91 1182.85 5820.21 1182.85 C 5957.51 1182.85 6068.81 1170.7 6068.81 1155.71"/>
    <path id="path64" style="fill:#c9a88b;fill-opacity:1;fill-rule:nonzero;stroke:none" d="M 5993.6 1355.08 C 6012.23 1336.49 6015.94 1310.01 6001.92 1296.01 C 5987.88 1282.02 5961.44 1285.72 5942.84 1304.32 C 5924.25 1322.94 5920.54 1349.37 5934.55 1363.4 C 5948.56 1377.41 5975.01 1373.69 5993.6 1355.08"/>
    <path id="path66" style="fill:#000000;fill-opacity:1;fill-rule:nonzero;stroke:none" d="M 5956.56 1369.39 C 5948.4 1369.39 5941.4 1366.7 5936.32 1361.63 C 5923.31 1348.61 5927.03 1323.69 5944.61 1306.09 C 5954.66 1296.03 5967.84 1290.02 5979.88 1290.02 C 5988.06 1290.02 5995.07 1292.71 6000.16 1297.78 C 6005.23 1302.85 6007.92 1309.86 6007.92 1318.04 C 6007.91 1330.07 6001.9 1343.27 5991.84 1353.31 C 5981.78 1363.38 5968.59 1369.39 5956.56 1369.39 Z M 5979.88 1285.02 C 5966.35 1285.02 5952.21 1291.42 5941.07 1302.55 C 5921.55 1322.1 5917.83 1350.2 5932.78 1365.17 C 5938.82 1371.2 5947.04 1374.39 5956.56 1374.39 C 5970.1 1374.39 5984.24 1367.99 5995.37 1356.85 C 6006.51 1345.72 6012.91 1331.58 6012.92 1318.04 C 6012.92 1308.5 6009.73 1300.28 6003.69 1294.24 C 5997.65 1288.22 5989.4 1285.02 5979.88 1285.02"/>
    <path id="path68" style="fill:#f4d9bd;fill-opacity:1;fill-rule:nonzero;stroke:none" d="M 5938.4 1438.77 C 5952.13 1425.05 5952.13 1402.8 5938.4 1389.04 C 5924.7 1375.33 5902.43 1375.33 5888.7 1389.04 C 5874.97 1402.8 5874.97 1425.05 5888.7 1438.77 C 5902.43 1452.5 5924.7 1452.5 5938.4 1438.77"/>
    <path id="path70" style="fill:#000000;fill-opacity:1;fill-rule:nonzero;stroke:none" d="M 5913.56 1446.58 C 5904.83 1446.58 5896.64 1443.18 5890.47 1437.01 C 5877.74 1424.28 5877.74 1403.56 5890.47 1390.8 C 5896.64 1384.64 5904.83 1381.25 5913.56 1381.25 C 5922.29 1381.25 5930.48 1384.64 5936.63 1390.8 C 5949.36 1403.56 5949.36 1424.28 5936.63 1437.01 C 5930.48 1443.18 5922.29 1446.58 5913.56 1446.58 Z M 5913.56 1376.25 C 5903.51 1376.25 5894.04 1380.17 5886.93 1387.27 C 5872.26 1401.98 5872.26 1425.87 5886.93 1440.54 C 5894.04 1447.65 5903.51 1451.58 5913.56 1451.58 C 5923.62 1451.58 5933.07 1447.65 5940.17 1440.54 C 5954.84 1425.87 5954.84 1401.98 5940.17 1387.27 C 5933.07 1380.17 5923.62 1376.25 5913.56 1376.25"/>
    <path id="path72" style="fill:#f4d9bd;fill-opacity:1;fill-rule:nonzero;stroke:none" d="M 5957.85 1396.74 C 5971.58 1382.99 5971.58 1360.74 5957.85 1347.01 C 5944.14 1333.27 5921.88 1333.27 5908.15 1347.01 C 5894.42 1360.74 5894.42 1382.99 5908.15 1396.74 C 5921.88 1410.44 5944.14 1410.44 5957.85 1396.74"/>
    <path id="path74" style="fill:#000000;fill-opacity:1;fill-rule:nonzero;stroke:none" d="M 5933.01 1404.52 C 5924.29 1404.52 5916.09 1401.13 5909.92 1394.97 C 5897.2 1382.23 5897.2 1361.5 5909.92 1348.77 C 5916.09 1342.6 5924.29 1339.2 5933.01 1339.2 C 5941.73 1339.2 5949.92 1342.6 5956.08 1348.77 C 5968.81 1361.5 5968.81 1382.23 5956.08 1394.97 C 5949.92 1401.13 5941.73 1404.52 5933.01 1404.52 Z M 5933.01 1334.2 C 5922.96 1334.2 5913.5 1338.13 5906.39 1345.24 C 5891.71 1359.92 5891.71 1383.81 5906.39 1398.51 C 5913.51 1405.61 5922.96 1409.52 5933.01 1409.52 C 5943.07 1409.52 5952.52 1405.61 5959.62 1398.51 C 5974.3 1383.81 5974.3 1359.92 5959.62 1345.24 C 5952.52 1338.13 5943.07 1334.2 5933.01 1334.2"/>
    <path id="path76" style="fill:#c9a88b;fill-opacity:1;fill-rule:nonzero;stroke:none" d="M 5595.91 1355.08 C 5577.33 1336.49 5573.59 1310.01 5587.64 1296.01 C 5601.62 1282.02 5628.07 1285.72 5646.69 1304.32 C 5665.28 1322.94 5669 1349.37 5654.98 1363.4 C 5640.97 1377.41 5614.52 1373.69 5595.91 1355.08"/>
    <path id="path78" style="fill:#000000;fill-opacity:1;fill-rule:nonzero;stroke:none" d="M 5632.97 1369.39 C 5620.93 1369.39 5607.74 1363.38 5597.68 1353.31 C 5589.07 1344.7 5583.51 1334.1 5582.02 1323.48 C 5580.56 1313.11 5583.18 1303.98 5589.4 1297.78 C 5594.47 1292.71 5601.46 1290.03 5609.64 1290.02 C 5621.66 1290.02 5634.85 1296.03 5644.92 1306.09 C 5662.5 1323.69 5666.22 1348.62 5653.21 1361.63 C 5648.13 1366.7 5641.13 1369.39 5632.97 1369.39 Z M 5609.64 1285.02 L 5609.64 1285.02 C 5600.11 1285.03 5591.89 1288.22 5585.87 1294.24 C 5578.52 1301.58 5575.38 1312.21 5577.06 1324.17 C 5578.71 1335.86 5584.78 1347.47 5594.14 1356.85 C 5605.28 1367.99 5619.43 1374.39 5632.97 1374.39 C 5642.49 1374.39 5650.71 1371.2 5656.75 1365.17 C 5671.71 1350.2 5667.99 1322.11 5648.46 1302.55 C 5637.3 1291.42 5623.15 1285.02 5609.64 1285.02"/>
    <path id="path80" style="fill:#f4d9bd;fill-opacity:1;fill-rule:nonzero;stroke:none" d="M 5683.27 1396.74 C 5697 1382.99 5697 1360.74 5683.27 1347.01 C 5669.55 1333.27 5647.29 1333.27 5633.55 1347.01 C 5619.82 1360.74 5619.82 1382.99 5633.55 1396.74 C 5647.29 1410.44 5669.55 1410.44 5683.27 1396.74"/>
    <path id="path82" style="fill:#000000;fill-opacity:1;fill-rule:nonzero;stroke:none" d="M 5658.42 1404.52 C 5649.69 1404.52 5641.49 1401.13 5635.32 1394.97 C 5622.6 1382.23 5622.6 1361.5 5635.32 1348.77 C 5641.49 1342.6 5649.7 1339.2 5658.42 1339.2 C 5667.14 1339.2 5675.34 1342.6 5681.5 1348.77 C 5694.23 1361.5 5694.23 1382.23 5681.5 1394.97 C 5675.34 1401.13 5667.14 1404.52 5658.42 1404.52 Z M 5658.42 1334.2 C 5648.36 1334.2 5638.9 1338.13 5631.79 1345.24 C 5617.11 1359.92 5617.11 1383.81 5631.79 1398.51 C 5638.91 1405.61 5648.36 1409.52 5658.42 1409.52 C 5668.48 1409.52 5677.93 1405.61 5685.04 1398.51 C 5699.72 1383.81 5699.72 1359.92 5685.04 1345.24 C 5677.93 1338.13 5668.48 1334.2 5658.42 1334.2"/>
    <path id="path84" style="fill:#4d6466;fill-opacity:1;fill-rule:nonzero;stroke:none" d="M 6019.69 1331.87 L 5966.41 1278.58 L 5933.3 1311.68 L 5986.58 1364.94 L 6019.69 1331.87"/>
    <path id="path86" style="fill:#000000;fill-opacity:1;fill-rule:nonzero;stroke:none" d="M 5936.84 1311.68 L 5966.41 1282.11 L 6016.15 1331.87 L 5986.58 1361.41 L 5936.84 1311.68 Z M 5966.41 1276.08 C 5965.74 1276.08 5965.11 1276.34 5964.64 1276.81 L 5931.53 1309.92 C 5931.06 1310.38 5930.8 1311.02 5930.8 1311.68 C 5930.8 1312.35 5931.06 1312.98 5931.53 1313.45 L 5984.81 1366.71 C 5985.79 1367.69 5987.37 1367.7 5988.35 1366.71 L 6021.46 1333.64 C 6021.92 1333.17 6022.19 1332.53 6022.19 1331.87 C 6022.19 1331.2 6021.92 1330.57 6021.46 1330.1 L 5968.17 1276.81 C 5967.71 1276.34 5967.07 1276.08 5966.41 1276.08"/>
    <path id="path88" style="fill:#364849;fill-opacity:1;fill-rule:nonzero;stroke:none" d="M 6011.23 1340.31 L 5957.95 1287.04 L 5941.75 1303.25 L 5995.03 1356.5 L 6011.23 1340.31"/>
    <path id="path90" style="fill:#000000;fill-opacity:1;fill-rule:nonzero;stroke:none" d="M 5945.28 1303.25 L 5957.95 1290.58 L 6007.7 1340.31 L 5995.03 1352.96 L 5945.28 1303.25 Z M 5957.95 1284.54 C 5957.3 1284.54 5956.67 1284.79 5956.18 1285.28 L 5939.98 1301.48 C 5939.51 1301.95 5939.25 1302.58 5939.25 1303.25 C 5939.25 1303.91 5939.51 1304.54 5939.98 1305.01 L 5993.26 1358.27 C 5994.24 1359.24 5995.82 1359.24 5996.8 1358.27 L 6013 1342.07 C 6013.47 1341.6 6013.73 1340.97 6013.73 1340.31 C 6013.73 1339.64 6013.47 1339.01 6013 1338.54 L 5959.72 1285.28 C 5959.23 1284.79 5958.58 1284.54 5957.95 1284.54"/>
    <path id="path92" style="fill:#c9a88b;fill-opacity:1;fill-rule:nonzero;stroke:none" d="M 6056.14 1295.35 C 6064.85 1286.67 6064.82 1272.62 6056.17 1263.94 L 6035.42 1243.16 C 6026.73 1234.51 6012.64 1234.52 6003.97 1243.19 L 5983.23 1263.94 C 5974.52 1272.62 5974.57 1286.67 5983.2 1295.35 L 6004 1316.13 C 6012.64 1324.81 6026.73 1324.8 6035.42 1316.13 L 6056.14 1295.35"/>
    <path id="path94" style="fill:#000000;fill-opacity:1;fill-rule:nonzero;stroke:none" d="M 6019.69 1320.13 C 6014.41 1320.13 6009.47 1318.09 6005.78 1314.36 L 5984.97 1293.59 C 5977.3 1285.87 5977.31 1273.37 5985 1265.71 L 6005.74 1244.95 C 6013.16 1237.51 6026.2 1237.5 6033.65 1244.93 L 6054.4 1265.71 C 6062.08 1273.41 6062.07 1285.92 6054.38 1293.59 L 6033.65 1314.36 C 6029.92 1318.08 6024.96 1320.13 6019.69 1320.13 Z M 6019.71 1234.17 C 6013.09 1234.17 6006.88 1236.75 6002.21 1241.42 L 5981.46 1262.17 C 5971.84 1271.77 5971.82 1287.44 5981.43 1297.12 L 6002.24 1317.89 C 6011.51 1327.22 6027.82 1327.24 6037.19 1317.89 L 6057.91 1297.12 C 6067.55 1287.51 6067.57 1271.83 6057.94 1262.17 L 6037.19 1241.39 C 6032.51 1236.73 6026.31 1234.17 6019.71 1234.17"/>
    <path id="path96" style="fill:#f4d9bd;fill-opacity:1;fill-rule:nonzero;stroke:none" d="M 6030.17 1321.35 C 6035.97 1315.58 6035.97 1306.19 6030.17 1300.42 L 6021.02 1291.25 C 6015.23 1285.47 6005.85 1285.47 6000.08 1291.25 L 6000.08 1291.25 C 5994.31 1297.04 5994.26 1306.43 6000.08 1312.24 L 6009.21 1321.37 C 6015 1327.15 6024.39 1327.12 6030.17 1321.35 L 6030.17 1321.35"/>
    <path id="path98" style="fill:#000000;fill-opacity:1;fill-rule:nonzero;stroke:none" d="M 6019.67 1323.2 C 6016.39 1323.2 6013.29 1321.92 6010.98 1319.6 L 6001.85 1310.47 C 5997.04 1305.67 5997.04 1297.85 6001.85 1293.02 C 6006.48 1288.38 6014.59 1288.37 6019.25 1293.02 L 6028.4 1302.19 C 6030.73 1304.52 6032.01 1307.6 6032.01 1310.89 C 6032.01 1314.17 6030.73 1317.26 6028.4 1319.58 C 6026.07 1321.91 6022.97 1323.2 6019.67 1323.2 Z M 6010.55 1284.42 C 6005.92 1284.42 6001.57 1286.21 5998.31 1289.49 C 5991.55 1296.26 5991.55 1307.27 5998.31 1314.01 L 6007.44 1323.14 C 6013.98 1329.67 6025.41 1329.64 6031.93 1323.12 C 6035.21 1319.86 6037.01 1315.51 6037.01 1310.89 C 6037.01 1306.26 6035.21 1301.92 6031.93 1298.66 L 6022.78 1289.49 C 6019.51 1286.21 6015.17 1284.42 6010.55 1284.42"/>
    <path id="path100" style="fill:#f4d9bd;fill-opacity:1;fill-rule:nonzero;stroke:none" d="M 5651.13 1438.77 C 5637.4 1425.05 5637.4 1402.8 5651.13 1389.04 C 5664.84 1375.33 5687.1 1375.33 5700.83 1389.04 C 5714.58 1402.8 5714.58 1425.05 5700.83 1438.77 C 5687.1 1452.5 5664.84 1452.5 5651.13 1438.77"/>
    <path id="path102" style="fill:#000000;fill-opacity:1;fill-rule:nonzero;stroke:none" d="M 5675.98 1446.58 C 5667.26 1446.58 5659.06 1443.18 5652.9 1437.01 C 5640.18 1424.28 5640.18 1403.56 5652.9 1390.8 C 5659.06 1384.64 5667.26 1381.25 5675.98 1381.25 C 5684.7 1381.25 5692.89 1384.64 5699.06 1390.8 C 5705.24 1396.99 5708.64 1405.2 5708.64 1413.92 C 5708.64 1422.64 5705.24 1430.84 5699.06 1437.01 C 5692.89 1443.18 5684.7 1446.58 5675.98 1446.58 Z M 5675.98 1376.25 C 5665.92 1376.25 5656.46 1380.17 5649.37 1387.27 C 5634.69 1401.98 5634.69 1425.87 5649.37 1440.54 C 5656.46 1447.65 5665.92 1451.58 5675.98 1451.58 C 5686.03 1451.58 5695.49 1447.65 5702.6 1440.54 C 5709.72 1433.43 5713.64 1423.98 5713.64 1413.92 C 5713.64 1403.86 5709.72 1394.4 5702.6 1387.27 C 5695.49 1380.17 5686.03 1376.25 5675.98 1376.25"/>
    <path id="path104" style="fill:#4d6466;fill-opacity:1;fill-rule:nonzero;stroke:none" d="M 5569.87 1331.87 L 5623.13 1278.58 L 5656.23 1311.68 L 5602.95 1364.94 L 5569.87 1331.87"/>
    <path id="path106" style="fill:#000000;fill-opacity:1;fill-rule:nonzero;stroke:none" d="M 5573.41 1331.87 L 5623.13 1282.11 L 5652.7 1311.68 L 5602.95 1361.41 L 5573.41 1331.87 Z M 5623.13 1276.08 C 5622.47 1276.08 5621.84 1276.34 5621.37 1276.81 L 5568.11 1330.1 C 5567.13 1331.08 5567.13 1332.66 5568.11 1333.64 L 5601.18 1366.71 C 5602.16 1367.69 5603.74 1367.69 5604.72 1366.71 L 5658 1313.45 C 5658.47 1312.98 5658.73 1312.35 5658.73 1311.68 C 5658.73 1311.02 5658.47 1310.38 5658 1309.92 L 5624.9 1276.81 C 5624.43 1276.34 5623.8 1276.08 5623.13 1276.08"/>
    <path id="path108" style="fill:#364849;fill-opacity:1;fill-rule:nonzero;stroke:none" d="M 5578.3 1340.31 L 5631.61 1287.04 L 5647.78 1303.25 L 5594.5 1356.5 L 5578.3 1340.31"/>
    <path id="path110" style="fill:#000000;fill-opacity:1;fill-rule:nonzero;stroke:none" d="M 5581.84 1340.31 L 5631.61 1290.58 L 5644.25 1303.25 L 5594.5 1352.96 L 5581.84 1340.31 Z M 5631.61 1284.54 C 5630.95 1284.54 5630.31 1284.81 5629.84 1285.28 L 5576.53 1338.54 C 5576.06 1339.01 5575.8 1339.64 5575.8 1340.31 C 5575.8 1340.97 5576.06 1341.6 5576.53 1342.07 L 5592.73 1358.27 C 5593.71 1359.24 5595.29 1359.24 5596.27 1358.27 L 5649.55 1305.01 C 5650.53 1304.04 5650.53 1302.45 5649.55 1301.48 L 5633.38 1285.28 C 5632.91 1284.81 5632.28 1284.54 5631.61 1284.54 L 5631.61 1284.54"/>
    <path id="path112" style="fill:#c9a88b;fill-opacity:1;fill-rule:nonzero;stroke:none" d="M 5533.42 1295.36 C 5524.76 1286.69 5524.79 1272.62 5533.42 1263.94 L 5554.22 1243.16 C 5562.88 1234.51 5576.92 1234.51 5585.58 1243.19 L 5606.36 1263.94 C 5615.04 1272.62 5615.04 1286.69 5606.39 1295.35 L 5585.61 1316.13 C 5576.92 1324.81 5562.88 1324.8 5554.17 1316.12 L 5533.42 1295.36"/>
    <path id="path114" style="fill:#000000;fill-opacity:1;fill-rule:nonzero;stroke:none" d="M 5569.91 1320.13 C 5564.64 1320.13 5559.68 1318.08 5555.94 1314.35 L 5535.19 1293.6 C 5527.52 1285.92 5527.53 1273.41 5535.2 1265.71 L 5555.99 1244.93 C 5563.42 1237.48 5576.39 1237.51 5583.81 1244.95 L 5604.59 1265.71 C 5612.28 1273.4 5612.29 1285.9 5604.62 1293.59 L 5583.84 1314.36 C 5580.12 1318.08 5575.17 1320.13 5569.91 1320.13 Z M 5569.88 1234.17 L 5569.88 1234.17 C 5563.3 1234.17 5557.11 1236.73 5552.45 1241.39 L 5531.65 1262.17 C 5522.04 1271.83 5522.04 1287.51 5531.65 1297.13 L 5552.4 1317.88 C 5561.78 1327.23 5578.04 1327.24 5587.37 1317.89 L 5608.15 1297.12 C 5617.77 1287.48 5617.76 1271.81 5608.13 1262.17 L 5587.34 1241.42 C 5582.69 1236.75 5576.48 1234.17 5569.88 1234.17"/>
    <path id="path116" style="fill:#f4d9bd;fill-opacity:1;fill-rule:nonzero;stroke:none" d="M 5559.42 1321.35 C 5553.62 1315.57 5553.62 1306.19 5559.42 1300.42 L 5568.54 1291.25 C 5574.35 1285.49 5583.73 1285.47 5589.51 1291.25 L 5589.51 1291.25 C 5595.3 1297.04 5595.3 1306.43 5589.53 1312.24 L 5580.41 1321.37 C 5574.61 1327.15 5565.22 1327.12 5559.42 1321.35 L 5559.42 1321.35"/>
    <path id="path118" style="fill:#000000;fill-opacity:1;fill-rule:nonzero;stroke:none" d="M 5569.94 1323.2 C 5566.64 1323.2 5563.53 1321.91 5561.19 1319.58 C 5558.86 1317.26 5557.57 1314.16 5557.58 1310.88 C 5557.58 1307.6 5558.86 1304.52 5561.19 1302.19 L 5570.32 1293.02 C 5572.65 1290.71 5575.75 1289.43 5579.04 1289.43 L 5579.04 1289.43 C 5582.33 1289.43 5585.42 1290.71 5587.74 1293.02 C 5592.55 1297.83 5592.55 1305.65 5587.75 1310.48 L 5578.64 1319.6 C 5576.32 1321.92 5573.23 1323.2 5569.94 1323.2 Z M 5579.04 1284.43 L 5579.04 1284.43 C 5574.42 1284.43 5570.07 1286.22 5566.79 1289.48 L 5557.65 1298.66 C 5554.38 1301.92 5552.58 1306.25 5552.58 1310.87 C 5552.57 1315.5 5554.38 1319.85 5557.66 1323.12 C 5564.24 1329.65 5575.63 1329.66 5582.18 1323.14 L 5591.3 1314.01 C 5598.04 1307.23 5598.03 1296.22 5591.28 1289.49 C 5588.02 1286.22 5583.67 1284.43 5579.04 1284.43"/>
    <path id="path120" style="fill:#f4d9bd;fill-opacity:1;fill-rule:nonzero;stroke:none" d="M 5710.84 1166.89 L 5677.45 1166.89 L 5677.45 1257.9 L 5744.2 1257.9 L 5710.84 1166.89"/>
    <path id="path122" style="fill:#000000;fill-opacity:1;fill-rule:nonzero;stroke:none" d="M 5679.95 1169.39 L 5709.09 1169.39 L 5740.63 1255.4 L 5679.95 1255.4 L 5679.95 1169.39 Z M 5710.84 1164.39 L 5677.45 1164.39 C 5676.07 1164.39 5674.95 1165.51 5674.95 1166.89 L 5674.95 1257.9 C 5674.95 1259.28 5676.07 1260.4 5677.45 1260.4 L 5744.2 1260.4 C 5745.02 1260.4 5745.78 1260 5746.25 1259.34 C 5746.72 1258.67 5746.83 1257.81 5746.54 1257.04 L 5713.18 1166.03 C 5712.82 1165.04 5711.88 1164.39 5710.84 1164.39"/>
    <path id="path124" style="fill:#ad713b;fill-opacity:1;fill-rule:nonzero;stroke:none" d="M 5670.95 1209.17 L 5670.95 1166.89 L 5718.49 1166.89 L 5734.01 1209.17 L 5670.95 1209.17"/>
    <path id="path126" style="fill:#000000;fill-opacity:1;fill-rule:nonzero;stroke:none" d="M 5673.45 1169.39 L 5716.74 1169.39 L 5730.43 1206.67 L 5673.45 1206.67 L 5673.45 1169.39 Z M 5718.49 1164.39 L 5670.95 1164.39 C 5669.57 1164.39 5668.45 1165.51 5668.45 1166.89 L 5668.45 1209.17 C 5668.45 1210.55 5669.57 1211.67 5670.95 1211.67 L 5734.01 1211.67 C 5734.83 1211.67 5735.6 1211.27 5736.06 1210.61 C 5736.53 1209.93 5736.64 1209.08 5736.36 1208.31 L 5720.83 1166.03 C 5720.47 1165.04 5719.53 1164.39 5718.49 1164.39"/>
    <path id="path128" style="fill:#f4d9bd;fill-opacity:1;fill-rule:nonzero;stroke:none" d="M 5883.55 1166.89 L 5916.94 1166.89 L 5916.94 1257.9 L 5850.2 1257.9 L 5883.55 1166.89"/>
    <path id="path130" style="fill:#000000;fill-opacity:1;fill-rule:nonzero;stroke:none" d="M 5885.3 1169.39 L 5914.44 1169.39 L 5914.44 1255.4 L 5853.77 1255.4 L 5885.3 1169.39 Z M 5916.94 1164.39 L 5883.55 1164.39 C 5882.51 1164.39 5881.57 1165.04 5881.21 1166.03 L 5847.85 1257.04 C 5847.57 1257.81 5847.68 1258.67 5848.14 1259.34 C 5848.61 1260 5849.38 1260.4 5850.2 1260.4 L 5916.94 1260.4 C 5918.32 1260.4 5919.44 1259.28 5919.44 1257.9 L 5919.44 1166.89 C 5919.44 1165.51 5918.32 1164.39 5916.94 1164.39"/>
    <path id="path132" style="fill:#ad713b;fill-opacity:1;fill-rule:nonzero;stroke:none" d="M 5925.37 1209.17 L 5925.37 1166.89 L 5877.81 1166.89 L 5862.31 1209.17 L 5925.37 1209.17"/>
    <path id="path134" style="fill:#000000;fill-opacity:1;fill-rule:nonzero;stroke:none" d="M 5879.56 1169.39 L 5922.87 1169.39 L 5922.87 1206.67 L 5865.89 1206.67 L 5879.56 1169.39 Z M 5925.37 1164.39 L 5877.81 1164.39 C 5876.77 1164.39 5875.83 1165.04 5875.47 1166.03 L 5859.97 1208.31 C 5859.69 1209.08 5859.79 1209.93 5860.26 1210.61 C 5860.73 1211.27 5861.49 1211.67 5862.31 1211.67 L 5925.37 1211.67 C 5926.75 1211.67 5927.87 1210.55 5927.87 1209.17 L 5927.87 1166.89 C 5927.87 1165.51 5926.75 1164.39 5925.37 1164.39"/>
    <path id="path136" style="fill:#f4d9bd;fill-opacity:1;fill-rule:nonzero;stroke:none" d="M 5682.21 1451.18 C 5665.91 1422.48 5693.31 1387.44 5693.31 1349.54 C 5693.31 1311.66 5665.91 1276.61 5682.21 1247.88 C 5714.69 1233.49 5754.32 1224.93 5797.2 1224.93 C 5840.08 1224.93 5879.68 1233.49 5912.22 1247.88 C 5928.49 1276.61 5901.08 1311.65 5901.08 1349.54 C 5901.08 1387.44 5928.47 1422.48 5912.19 1451.21 C 5879.68 1465.61 5840.05 1474.16 5797.2 1474.16 C 5754.32 1474.16 5714.69 1465.61 5682.21 1451.18"/>
    <path id="path138" style="fill:#000000;fill-opacity:1;fill-rule:nonzero;stroke:none" d="M 5683.98 1249.83 C 5717.38 1235.18 5756.5 1227.43 5797.2 1227.43 C 5837.85 1227.43 5876.98 1235.18 5910.44 1249.83 C 5919.05 1265.88 5913.39 1284.69 5907.4 1304.57 C 5903.07 1318.99 5898.58 1333.89 5898.58 1349.54 C 5898.58 1365.2 5903.07 1380.1 5907.39 1394.52 C 5913.38 1414.41 5919.03 1433.22 5910.41 1449.27 C 5876.98 1463.92 5837.86 1471.66 5797.2 1471.66 C 5756.47 1471.66 5717.35 1463.91 5683.98 1449.24 C 5675.35 1433.2 5681.01 1414.4 5686.99 1394.51 C 5691.33 1380.1 5695.81 1365.2 5695.81 1349.54 C 5695.81 1333.9 5691.33 1319.01 5687 1304.6 C 5681.02 1284.7 5675.35 1265.89 5683.98 1249.83 Z M 5797.2 1222.43 C 5755.5 1222.43 5715.39 1230.44 5681.19 1245.6 C 5680.7 1245.81 5680.29 1246.18 5680.03 1246.65 C 5669.78 1264.72 5675.82 1284.79 5682.21 1306.04 C 5686.44 1320.1 5690.81 1334.63 5690.81 1349.54 C 5690.81 1364.47 5686.44 1379.01 5682.21 1393.07 C 5675.82 1414.31 5669.79 1434.37 5680.03 1452.42 C 5680.29 1452.88 5680.7 1453.26 5681.19 1453.47 C 5715.36 1468.65 5755.48 1476.66 5797.2 1476.66 C 5838.87 1476.66 5878.97 1468.66 5913.2 1453.5 C 5913.69 1453.28 5914.1 1452.91 5914.37 1452.44 C 5924.6 1434.38 5918.56 1414.31 5912.19 1393.07 C 5907.96 1379.01 5903.58 1364.47 5903.58 1349.54 C 5903.58 1334.62 5907.96 1320.08 5912.2 1306.02 C 5918.58 1284.78 5924.62 1264.72 5914.39 1246.65 C 5914.13 1246.18 5913.72 1245.81 5913.23 1245.6 C 5878.97 1230.44 5838.85 1222.43 5797.2 1222.43"/>
    <path id="path140" style="fill:#c9a88b;fill-opacity:1;fill-rule:nonzero;stroke:none" d="M 5797.2 1474.16 C 5754.32 1474.16 5714.69 1465.61 5682.21 1451.18 C 5680.11 1447.52 5723.12 1423.27 5748.44 1423.27 L 5845.93 1423.27 C 5871.26 1423.27 5914.27 1447.53 5912.19 1451.21 C 5879.68 1465.61 5840.05 1474.16 5797.2 1474.16"/>
    <path id="path142" style="fill:#ad713b;fill-opacity:1;fill-rule:nonzero;stroke:none" d="M 5685.6 1390.47 C 5687.85 1382.85 5690.07 1375.02 5691.54 1367.05 L 5902.85 1367.05 C 5904.34 1375.02 5906.51 1382.85 5908.81 1390.47 L 5685.6 1390.47"/>
    <path id="path144" style="fill:#000000;fill-opacity:1;fill-rule:nonzero;stroke:none" d="M 5693.6 1369.55 L 5900.79 1369.55 C 5902.1 1376.08 5903.81 1382.37 5905.46 1387.97 L 5688.94 1387.97 C 5690.6 1382.26 5692.32 1375.95 5693.6 1369.55 Z M 5902.85 1364.55 L 5691.54 1364.55 C 5690.34 1364.55 5689.31 1365.41 5689.08 1366.6 C 5687.59 1374.68 5685.26 1382.8 5683.2 1389.76 C 5682.98 1390.52 5683.13 1391.33 5683.59 1391.97 C 5684.06 1392.6 5684.8 1392.97 5685.6 1392.97 L 5908.81 1392.97 C 5909.6 1392.97 5910.34 1392.6 5910.81 1391.97 C 5911.29 1391.33 5911.43 1390.51 5911.2 1389.75 C 5909.16 1382.96 5906.86 1374.9 5905.31 1366.6 C 5905.09 1365.41 5904.05 1364.55 5902.85 1364.55"/>
    <path id="path146" style="fill:#ff9b00;fill-opacity:1;fill-rule:nonzero;stroke:none" d="M 5665.16 1247.83 L 5665.16 1217.73 L 5698.39 1224.93 L 5731.59 1217.73 L 5764.82 1224.93 L 5798.01 1217.73 L 5831.24 1224.93 L 5864.47 1217.73 L 5897.65 1224.93 L 5930.88 1217.73 L 5930.88 1247.83 L 5665.16 1247.83"/>
    <path id="path148" style="fill:#000000;fill-opacity:1;fill-rule:nonzero;stroke:none" d="M 5698.39 1227.43 C 5698.56 1227.43 5698.74 1227.42 5698.92 1227.38 L 5731.59 1220.29 L 5764.3 1227.38 C 5764.65 1227.45 5765 1227.45 5765.35 1227.38 L 5798.01 1220.29 L 5830.71 1227.38 C 5831.06 1227.45 5831.42 1227.45 5831.77 1227.38 L 5864.47 1220.29 L 5897.12 1227.38 C 5897.47 1227.45 5897.82 1227.45 5898.17 1227.38 L 5928.38 1220.82 L 5928.38 1245.33 L 5667.66 1245.33 L 5667.66 1220.82 L 5697.86 1227.38 C 5698.04 1227.42 5698.21 1227.43 5698.39 1227.43 Z M 5930.88 1215.23 C 5930.7 1215.23 5930.53 1215.25 5930.35 1215.29 L 5897.65 1222.38 L 5865 1215.29 C 5864.65 1215.21 5864.3 1215.21 5863.95 1215.29 L 5831.24 1222.38 L 5798.54 1215.29 C 5798.18 1215.21 5797.83 1215.21 5797.48 1215.29 L 5764.82 1222.38 L 5732.12 1215.29 C 5731.77 1215.21 5731.42 1215.21 5731.06 1215.29 L 5698.39 1222.38 L 5665.68 1215.29 C 5664.94 1215.14 5664.17 1215.32 5663.58 1215.78 C 5663 1216.25 5662.66 1216.98 5662.66 1217.73 L 5662.66 1247.83 C 5662.66 1249.2 5663.78 1250.33 5665.16 1250.33 L 5930.88 1250.33 C 5932.26 1250.33 5933.38 1249.2 5933.38 1247.83 L 5933.38 1217.73 C 5933.38 1216.98 5933.04 1216.25 5932.45 1215.78 C 5932 1215.42 5931.45 1215.23 5930.88 1215.23"/>
    <path id="path150" style="fill:#ad713b;fill-opacity:1;fill-rule:nonzero;stroke:none" d="M 5930.88 1245.86 L 5665.21 1245.86 L 5673.96 1287.91 L 5922.09 1287.91 L 5930.88 1245.86"/>
    <path id="path152" style="fill:#000000;fill-opacity:1;fill-rule:nonzero;stroke:none" d="M 5668.28 1248.36 L 5927.8 1248.36 L 5920.06 1285.41 L 5676 1285.41 L 5668.28 1248.36 Z M 5931.01 1243.36 C 5930.97 1243.36 5930.93 1243.36 5930.88 1243.36 L 5665.21 1243.36 C 5664.45 1243.36 5663.74 1243.7 5663.26 1244.28 C 5662.79 1244.87 5662.61 1245.64 5662.75 1246.37 L 5671.51 1288.42 C 5671.76 1289.58 5672.78 1290.41 5673.96 1290.41 L 5922.09 1290.41 C 5923.27 1290.41 5924.3 1289.58 5924.54 1288.42 L 5933.17 1247.1 C 5933.38 1246.74 5933.51 1246.31 5933.51 1245.86 C 5933.51 1244.49 5932.38 1243.36 5931.01 1243.36"/>
    <path id="path154" style="fill:#8ba1a5;fill-opacity:1;fill-rule:nonzero;stroke:none" d="M 5818.31 1378.75 C 5818.31 1352.45 5796.99 1331.12 5770.67 1331.12 C 5744.36 1331.12 5723.01 1352.45 5723.01 1378.75 C 5723.01 1405.07 5744.36 1426.41 5770.67 1426.41 C 5796.99 1426.41 5818.31 1405.07 5818.31 1378.75"/>
    <path id="path156" style="fill:#000000;fill-opacity:1;fill-rule:nonzero;stroke:none" d="M 5770.67 1423.91 C 5745.77 1423.91 5725.51 1403.66 5725.51 1378.75 C 5725.51 1353.86 5745.77 1333.62 5770.67 1333.62 C 5795.57 1333.62 5815.81 1353.86 5815.81 1378.75 C 5815.81 1403.66 5795.57 1423.91 5770.67 1423.91 Z M 5770.67 1328.62 C 5743.01 1328.62 5720.51 1351.11 5720.51 1378.75 C 5720.51 1406.41 5743.01 1428.91 5770.67 1428.91 C 5798.32 1428.91 5820.81 1406.41 5820.81 1378.75 C 5820.81 1351.11 5798.32 1328.62 5770.67 1328.62"/>
    <path id="path158" style="fill:#6b7f82;fill-opacity:1;fill-rule:nonzero;stroke:none" d="M 5804.01 1378.75 C 5804.01 1360.34 5789.06 1345.39 5770.67 1345.39 C 5752.24 1345.39 5737.29 1360.34 5737.29 1378.75 C 5737.29 1397.19 5752.24 1412.1 5770.67 1412.1 C 5789.06 1412.1 5804.01 1397.19 5804.01 1378.75"/>
    <path id="path160" style="fill:#000000;fill-opacity:1;fill-rule:nonzero;stroke:none" d="M 5770.67 1409.6 C 5753.64 1409.6 5739.79 1395.77 5739.79 1378.75 C 5739.79 1361.74 5753.64 1347.89 5770.67 1347.89 C 5787.68 1347.89 5801.51 1361.74 5801.51 1378.75 C 5801.51 1395.77 5787.68 1409.6 5770.67 1409.6 Z M 5770.67 1342.89 C 5750.89 1342.89 5734.79 1358.98 5734.79 1378.75 C 5734.79 1398.52 5750.89 1414.6 5770.67 1414.6 C 5790.44 1414.6 5806.51 1398.52 5806.51 1378.75 C 5806.51 1358.98 5790.44 1342.89 5770.67 1342.89"/>
    <path id="path162" style="fill:#8ba1a5;fill-opacity:1;fill-rule:nonzero;stroke:none" d="M 5921.29 1378.75 C 5921.29 1352.43 5899.94 1331.09 5873.62 1331.09 C 5847.3 1331.09 5825.99 1352.43 5825.99 1378.75 C 5825.99 1405.07 5847.3 1426.41 5873.62 1426.41 C 5899.94 1426.41 5921.29 1405.07 5921.29 1378.75"/>
    <path id="path164" style="fill:#000000;fill-opacity:1;fill-rule:nonzero;stroke:none" d="M 5873.62 1423.91 C 5848.73 1423.91 5828.49 1403.66 5828.49 1378.75 C 5828.49 1353.85 5848.73 1333.59 5873.62 1333.59 C 5898.53 1333.59 5918.79 1353.85 5918.79 1378.75 C 5918.79 1403.66 5898.53 1423.91 5873.62 1423.91 Z M 5873.62 1328.59 C 5845.98 1328.59 5823.49 1351.09 5823.49 1378.75 C 5823.49 1406.41 5845.98 1428.91 5873.62 1428.91 C 5901.29 1428.91 5923.79 1406.41 5923.79 1378.75 C 5923.79 1351.09 5901.29 1328.59 5873.62 1328.59"/>
    <path id="path166" style="fill:#6b7f82;fill-opacity:1;fill-rule:nonzero;stroke:none" d="M 5906.98 1378.75 C 5906.98 1360.34 5892.03 1345.39 5873.62 1345.39 C 5855.23 1345.39 5840.28 1360.34 5840.28 1378.75 C 5840.28 1397.18 5855.23 1412.09 5873.62 1412.09 C 5892.03 1412.09 5906.98 1397.18 5906.98 1378.75"/>
    <path id="path168" style="fill:#000000;fill-opacity:1;fill-rule:nonzero;stroke:none" d="M 5873.62 1409.59 C 5856.62 1409.59 5842.78 1395.76 5842.78 1378.75 C 5842.78 1361.74 5856.62 1347.89 5873.62 1347.89 C 5890.63 1347.89 5904.48 1361.74 5904.48 1378.75 C 5904.48 1395.76 5890.63 1409.59 5873.62 1409.59 Z M 5873.62 1342.89 C 5853.86 1342.89 5837.78 1358.98 5837.78 1378.75 C 5837.78 1398.52 5853.86 1414.59 5873.62 1414.59 C 5893.4 1414.59 5909.48 1398.52 5909.48 1378.75 C 5909.48 1358.98 5893.4 1342.89 5873.62 1342.89"/>
    <path id="path170" style="fill:#8ba1a5;fill-opacity:1;fill-rule:nonzero;stroke:none" d="M 5914.39 1266.89 C 5914.39 1253.64 5903.65 1242.88 5890.39 1242.88 C 5877.16 1242.88 5866.4 1253.64 5866.4 1266.89 C 5866.4 1280.14 5877.16 1290.88 5890.39 1290.88 C 5903.65 1290.88 5914.39 1280.14 5914.39 1266.89"/>
    <path id="path172" style="fill:#000000;fill-opacity:1;fill-rule:nonzero;stroke:none" d="M 5890.39 1288.38 C 5878.54 1288.38 5868.9 1278.74 5868.9 1266.89 C 5868.9 1255.03 5878.54 1245.38 5890.39 1245.38 C 5902.25 1245.38 5911.89 1255.03 5911.89 1266.89 C 5911.89 1278.74 5902.25 1288.38 5890.39 1288.38 Z M 5890.39 1240.38 C 5875.78 1240.38 5863.9 1252.27 5863.9 1266.89 C 5863.9 1281.5 5875.78 1293.38 5890.39 1293.38 C 5905.01 1293.38 5916.89 1281.5 5916.89 1266.89 C 5916.89 1252.27 5905.01 1240.38 5890.39 1240.38"/>
    <path id="path174" style="fill:#6b7f82;fill-opacity:1;fill-rule:nonzero;stroke:none" d="M 5907.2 1266.89 C 5907.2 1257.6 5899.68 1250.08 5890.39 1250.08 C 5881.14 1250.08 5873.59 1257.6 5873.59 1266.89 C 5873.59 1276.16 5881.14 1283.68 5890.39 1283.68 C 5899.68 1283.68 5907.2 1276.16 5907.2 1266.89"/>
    <path id="path176" style="fill:#000000;fill-opacity:1;fill-rule:nonzero;stroke:none" d="M 5890.39 1281.18 C 5882.51 1281.18 5876.09 1274.77 5876.09 1266.89 C 5876.09 1259 5882.51 1252.58 5890.39 1252.58 C 5898.28 1252.58 5904.7 1259 5904.7 1266.89 C 5904.7 1274.77 5898.28 1281.18 5890.39 1281.18 Z M 5890.39 1247.58 C 5879.75 1247.58 5871.09 1256.24 5871.09 1266.89 C 5871.09 1277.52 5879.75 1286.18 5890.39 1286.18 C 5901.04 1286.18 5909.7 1277.52 5909.7 1266.89 C 5909.7 1256.24 5901.04 1247.58 5890.39 1247.58"/>
    <path id="path178" style="fill:#8ba1a5;fill-opacity:1;fill-rule:nonzero;stroke:none" d="M 5801.15 1266.89 C 5801.15 1253.64 5790.41 1242.88 5777.18 1242.88 C 5763.92 1242.88 5753.14 1253.64 5753.14 1266.89 C 5753.14 1280.14 5763.92 1290.88 5777.18 1290.88 C 5790.41 1290.88 5801.15 1280.14 5801.15 1266.89"/>
    <path id="path180" style="fill:#000000;fill-opacity:1;fill-rule:nonzero;stroke:none" d="M 5777.18 1288.38 C 5765.3 1288.38 5755.64 1278.74 5755.64 1266.89 C 5755.64 1255.03 5765.3 1245.38 5777.18 1245.38 C 5789.02 1245.38 5798.65 1255.03 5798.65 1266.89 C 5798.65 1278.74 5789.02 1288.38 5777.18 1288.38 Z M 5777.18 1240.38 C 5762.55 1240.38 5750.64 1252.27 5750.64 1266.89 C 5750.64 1281.5 5762.55 1293.38 5777.18 1293.38 C 5791.78 1293.38 5803.65 1281.5 5803.65 1266.89 C 5803.65 1252.27 5791.78 1240.38 5777.18 1240.38"/>
    <path id="path182" style="fill:#6b7f82;fill-opacity:1;fill-rule:nonzero;stroke:none" d="M 5793.95 1266.89 C 5793.95 1257.6 5786.44 1250.08 5777.18 1250.08 C 5767.89 1250.08 5760.38 1257.6 5760.38 1266.89 C 5760.38 1276.18 5767.89 1283.68 5777.18 1283.68 C 5786.44 1283.68 5793.95 1276.18 5793.95 1266.89"/>
    <path id="path184" style="fill:#000000;fill-opacity:1;fill-rule:nonzero;stroke:none" d="M 5777.18 1281.18 C 5769.3 1281.18 5762.88 1274.77 5762.88 1266.89 C 5762.88 1259 5769.3 1252.58 5777.18 1252.58 C 5785.05 1252.58 5791.45 1259 5791.45 1266.89 C 5791.45 1274.77 5785.05 1281.18 5777.18 1281.18 Z M 5777.18 1247.58 C 5766.53 1247.58 5757.88 1256.24 5757.88 1266.89 C 5757.88 1277.52 5766.53 1286.18 5777.18 1286.18 C 5787.8 1286.18 5796.45 1277.52 5796.45 1266.89 C 5796.45 1256.24 5787.8 1247.58 5777.18 1247.58"/>
    <path id="path186" style="fill:#ff9b00;fill-opacity:1;fill-rule:nonzero;stroke:none" d="M 5405.24 1404.06 L 5439.44 1438.22 L 5634.05 1243.68 L 5599.85 1209.52 L 5405.24 1404.06"/>
    <path id="path188" style="fill:#000000;fill-opacity:1;fill-rule:nonzero;stroke:none" d="M 5408.78 1404.06 L 5599.85 1213.05 L 5630.52 1243.68 L 5439.44 1434.68 L 5408.78 1404.06 Z M 5599.85 1207.02 C 5599.21 1207.02 5598.57 1207.26 5598.09 1207.75 L 5403.48 1402.29 C 5403.01 1402.76 5402.74 1403.39 5402.74 1404.06 C 5402.74 1404.72 5403.01 1405.35 5403.48 1405.82 L 5437.68 1439.98 C 5438.66 1440.97 5440.24 1440.95 5441.21 1439.98 L 5635.82 1245.45 C 5636.29 1244.98 5636.55 1244.35 5636.55 1243.68 C 5636.55 1243.02 5636.29 1242.39 5635.82 1241.92 L 5601.62 1207.75 C 5601.13 1207.26 5600.49 1207.02 5599.85 1207.02"/>
    <path id="path190" style="fill:#bcc4cd;fill-opacity:1;fill-rule:nonzero;stroke:none" d="M 5616.4 1265.74 C 5637.7 1265.72 5654.93 1248.45 5654.96 1227.15 L 5654.96 1227.15 C 5654.96 1205.82 5637.71 1188.58 5616.4 1188.57 L 5616.4 1188.57 C 5595.05 1188.58 5577.78 1205.84 5577.83 1227.1 L 5577.83 1227.1 C 5577.83 1248.45 5595.1 1265.67 5616.4 1265.74 L 5616.4 1265.74"/>
    <path id="path192" style="fill:#000000;fill-opacity:1;fill-rule:nonzero;stroke:none" d="M 5616.4 1263.24 C 5596.51 1263.17 5580.33 1246.97 5580.33 1227.1 C 5580.31 1217.5 5584.03 1208.48 5590.82 1201.67 C 5597.64 1194.84 5606.72 1191.07 5616.4 1191.07 C 5636.28 1191.08 5652.46 1207.27 5652.46 1227.15 C 5652.43 1247.02 5636.25 1263.22 5616.4 1263.24 Z M 5616.4 1186.07 L 5616.4 1186.07 C 5605.38 1186.08 5595.04 1190.36 5587.28 1198.15 C 5579.55 1205.89 5575.3 1216.18 5575.33 1227.11 C 5575.33 1249.71 5593.75 1268.17 5616.39 1268.24 C 5639.01 1268.22 5657.43 1249.79 5657.46 1227.15 C 5657.46 1204.51 5639.04 1186.08 5616.4 1186.07"/>
    <path id="path194" style="fill:#8192a4;fill-opacity:1;fill-rule:nonzero;stroke:none" d="M 5616.4 1247.12 C 5627.42 1247.11 5636.37 1238.16 5636.32 1227.15 L 5636.32 1227.15 C 5636.37 1216.12 5627.47 1207.21 5616.4 1207.17 L 5616.4 1207.17 C 5605.37 1207.17 5596.43 1216.12 5596.43 1227.1 L 5596.43 1227.1 C 5596.43 1238.21 5605.37 1247.1 5616.4 1247.12 L 5616.4 1247.12"/>
    <path id="path196" style="fill:#000000;fill-opacity:1;fill-rule:nonzero;stroke:none" d="M 5616.4 1244.62 C 5606.77 1244.6 5598.93 1236.74 5598.93 1227.1 C 5598.93 1217.49 5606.76 1209.67 5616.39 1209.67 C 5621.08 1209.69 5625.48 1211.51 5628.76 1214.81 C 5632.04 1218.1 5633.84 1222.47 5633.82 1227.14 C 5633.84 1231.8 5632.04 1236.18 5628.76 1239.48 C 5625.46 1242.79 5621.07 1244.62 5616.4 1244.62 Z M 5616.41 1204.67 L 5616.4 1204.67 C 5604 1204.67 5593.93 1214.73 5593.93 1227.1 C 5593.93 1239.5 5604 1249.6 5616.4 1249.62 C 5622.41 1249.61 5628.07 1247.27 5632.3 1243 C 5636.53 1238.75 5638.85 1233.12 5638.82 1227.14 C 5638.85 1221.16 5636.53 1215.51 5632.29 1211.27 C 5628.08 1207.03 5622.43 1204.69 5616.41 1204.67"/>
    <path id="path198" style="fill:#8192a4;fill-opacity:1;fill-rule:nonzero;stroke:none" d="M 5269.48 1403.37 L 5342.89 1329.9 L 5513.65 1500.61 L 5440.17 1574.07 L 5269.48 1403.37"/>
    <path id="path200" style="fill:#000000;fill-opacity:1;fill-rule:nonzero;stroke:none" d="M 5273.02 1403.37 L 5342.89 1333.43 L 5510.12 1500.61 L 5440.17 1570.53 L 5273.02 1403.37 Z M 5342.89 1327.4 L 5342.89 1327.4 C 5342.23 1327.4 5341.59 1327.66 5341.12 1328.13 L 5267.71 1401.6 C 5266.74 1402.58 5266.74 1404.16 5267.71 1405.14 L 5438.4 1575.83 C 5439.38 1576.8 5440.96 1576.82 5441.93 1575.83 L 5515.42 1502.38 C 5515.89 1501.91 5516.15 1501.27 5516.15 1500.61 C 5516.15 1499.94 5515.89 1499.31 5515.42 1498.84 L 5344.66 1328.13 C 5344.19 1327.66 5343.55 1327.4 5342.89 1327.4"/>
    <path id="path202" style="fill:#bcc4cd;fill-opacity:1;fill-rule:nonzero;stroke:none" d="M 5391.51 1479.1 C 5406.46 1479.1 5418.58 1466.99 5418.58 1452.02 L 5418.58 1452.02 C 5418.58 1437.05 5406.46 1424.93 5391.54 1424.95 L 5391.54 1424.95 C 5376.53 1424.95 5364.42 1437.08 5364.44 1452.03 L 5364.44 1452.03 C 5364.47 1466.99 5376.53 1479.07 5391.51 1479.1 L 5391.51 1479.1"/>
    <path id="path204" style="fill:#000000;fill-opacity:1;fill-rule:nonzero;stroke:none" d="M 5391.51 1476.6 C 5378 1476.57 5366.97 1465.54 5366.94 1452.03 C 5366.93 1445.47 5369.48 1439.31 5374.11 1434.67 C 5378.76 1430.01 5384.95 1427.45 5391.54 1427.45 L 5391.58 1427.45 C 5405.09 1427.45 5416.08 1438.48 5416.08 1452.02 C 5416.08 1465.58 5405.06 1476.6 5391.51 1476.6 Z M 5391.58 1422.45 L 5391.54 1422.45 C 5383.61 1422.45 5376.16 1425.54 5370.58 1431.14 C 5365 1436.72 5361.93 1444.14 5361.94 1452.03 C 5361.97 1468.3 5375.23 1481.57 5391.5 1481.6 C 5407.82 1481.6 5421.08 1468.33 5421.08 1452.02 C 5421.08 1435.72 5407.85 1422.45 5391.58 1422.45"/>
    <path id="path206" style="fill:#425059;fill-opacity:1;fill-rule:nonzero;stroke:none" d="M 5403.12 1537.08 L 5476.55 1463.58 L 5513.65 1500.61 L 5440.17 1574.07 L 5403.12 1537.08"/>
    <path id="path208" style="fill:#000000;fill-opacity:1;fill-rule:nonzero;stroke:none" d="M 5406.65 1537.08 L 5476.55 1467.11 L 5510.12 1500.61 L 5440.17 1570.53 L 5406.65 1537.08 Z M 5476.55 1461.08 C 5475.91 1461.08 5475.27 1461.32 5474.79 1461.81 L 5401.35 1535.32 C 5400.88 1535.78 5400.62 1536.42 5400.62 1537.08 C 5400.62 1537.75 5400.88 1538.38 5401.35 1538.85 L 5438.4 1575.83 C 5439.38 1576.82 5440.96 1576.8 5441.93 1575.83 L 5515.42 1502.38 C 5515.89 1501.91 5516.15 1501.27 5516.15 1500.61 C 5516.15 1499.94 5515.89 1499.31 5515.42 1498.84 L 5478.32 1461.81 C 5477.83 1461.32 5477.19 1461.08 5476.55 1461.08"/>
    <path id="path210" style="fill:#425059;fill-opacity:1;fill-rule:nonzero;stroke:none" d="M 5269.45 1403.35 L 5342.89 1329.9 L 5379.97 1367.01 L 5306.53 1440.43 L 5269.45 1403.35"/>
    <path id="path212" style="fill:#000000;fill-opacity:1;fill-rule:nonzero;stroke:none" d="M 5272.99 1403.35 L 5342.89 1333.43 L 5376.44 1367.01 L 5306.53 1436.9 L 5272.99 1403.35 Z M 5342.89 1327.4 C 5342.23 1327.4 5341.59 1327.66 5341.12 1328.13 L 5267.69 1401.59 C 5266.71 1402.56 5266.71 1404.14 5267.69 1405.12 L 5304.77 1442.2 C 5305.74 1443.18 5307.32 1443.18 5308.3 1442.2 L 5381.74 1368.77 C 5382.71 1367.8 5382.71 1366.21 5381.74 1365.24 L 5344.66 1328.13 C 5344.19 1327.66 5343.55 1327.4 5342.89 1327.4"/>
    <path id="path214" style="fill:#bcc4cd;fill-opacity:1;fill-rule:nonzero;stroke:none" d="M 5506.89 1456.7 L 5396.22 1567.36 L 5436.76 1607.9 L 5547.43 1497.24 L 5506.89 1456.7"/>
    <path id="path216" style="fill:#000000;fill-opacity:1;fill-rule:nonzero;stroke:none" d="M 5399.76 1567.36 L 5506.89 1460.24 L 5543.9 1497.24 L 5436.76 1604.37 L 5399.76 1567.36 Z M 5506.89 1454.2 C 5506.25 1454.2 5505.62 1454.45 5505.13 1454.93 L 5394.45 1565.59 C 5393.48 1566.57 5393.48 1568.15 5394.45 1569.12 L 5434.99 1609.67 C 5435.93 1610.61 5437.59 1610.61 5438.53 1609.67 L 5549.2 1499.01 C 5549.67 1498.54 5549.93 1497.9 5549.93 1497.24 C 5549.93 1496.58 5549.67 1495.94 5549.2 1495.47 L 5508.66 1454.93 C 5508.17 1454.45 5507.54 1454.2 5506.89 1454.2"/>
    <path id="path218" style="fill:#bcc4cd;fill-opacity:1;fill-rule:nonzero;stroke:none" d="M 5346.27 1296.11 L 5235.63 1406.77 L 5276.16 1447.3 L 5386.84 1336.64 L 5346.27 1296.11"/>
    <path id="path220" style="fill:#000000;fill-opacity:1;fill-rule:nonzero;stroke:none" d="M 5239.16 1406.77 L 5346.27 1299.64 L 5383.3 1336.64 L 5276.16 1443.76 L 5239.16 1406.77 Z M 5346.27 1293.61 C 5345.63 1293.61 5344.99 1293.85 5344.5 1294.34 L 5233.86 1405 C 5233.39 1405.47 5233.13 1406.11 5233.13 1406.77 C 5233.13 1407.43 5233.39 1408.07 5233.86 1408.54 L 5274.39 1449.07 C 5275.37 1450.04 5276.95 1450.04 5277.93 1449.07 L 5388.6 1338.41 C 5389.07 1337.94 5389.34 1337.31 5389.34 1336.64 C 5389.34 1335.98 5389.07 1335.35 5388.6 1334.88 L 5348.04 1294.34 C 5347.55 1293.85 5346.9 1293.61 5346.27 1293.61"/>
    <path id="path222" style="fill:#bcc4cd;fill-opacity:1;fill-rule:nonzero;stroke:none" d="M 5959.87 1194.52 L 5934.32 1190.27 L 5938.66 1215.72 L 5952.26 1229.33 L 5973.45 1208.12 L 5959.87 1194.52"/>
    <path id="path224" style="fill:#000000;fill-opacity:1;fill-rule:nonzero;stroke:none" d="M 5941 1214.52 L 5937.37 1193.31 L 5958.67 1196.86 L 5969.91 1208.12 L 5952.26 1225.79 L 5941 1214.52 Z M 5934.32 1187.77 C 5933.65 1187.77 5933.02 1188.03 5932.55 1188.5 C 5931.97 1189.08 5931.72 1189.89 5931.86 1190.69 L 5936.2 1216.14 C 5936.29 1216.64 5936.52 1217.11 5936.89 1217.48 L 5950.49 1231.1 C 5951.43 1232.03 5953.09 1232.03 5954.02 1231.1 L 5975.21 1209.89 C 5976.19 1208.91 5976.19 1207.33 5975.21 1206.35 L 5961.64 1192.76 C 5961.27 1192.39 5960.8 1192.14 5960.28 1192.05 L 5934.73 1187.8 C 5934.59 1187.78 5934.45 1187.77 5934.32 1187.77"/>
    <path id="path226" style="fill:#ff9b00;fill-opacity:1;fill-rule:nonzero;stroke:none" d="M 5982.22 1212.23 L 5955.48 1238.95 L 6228.03 1511.51 L 6254.76 1484.79 L 5982.22 1212.23"/>
    <path id="path228" style="fill:#000000;fill-opacity:1;fill-rule:nonzero;stroke:none" d="M 5959.01 1238.95 L 5982.22 1215.77 L 6251.22 1484.79 L 6228.03 1507.97 L 5959.01 1238.95 Z M 5982.22 1209.73 C 5981.58 1209.73 5980.94 1209.97 5980.45 1210.46 L 5953.71 1237.18 C 5953.24 1237.65 5952.98 1238.28 5952.98 1238.95 C 5952.98 1239.61 5953.24 1240.25 5953.71 1240.72 L 6226.26 1513.27 C 6227.24 1514.25 6228.82 1514.25 6229.79 1513.27 L 6256.52 1486.56 C 6256.99 1486.09 6257.26 1485.45 6257.26 1484.79 C 6257.26 1484.12 6256.99 1483.49 6256.52 1483.02 L 5983.98 1210.46 C 5983.5 1209.97 5982.86 1209.73 5982.22 1209.73"/>
    <path id="path230" style="fill:#8192a4;fill-opacity:1;fill-rule:nonzero;stroke:none" d="M 6338.91 1268.89 C 6305.25 1235.26 6262.43 1216.32 6218.41 1212.18 C 6238.09 1282.02 6229.48 1358.19 6192.51 1422.48 C 6192.51 1422.48 6166.37 1448.66 6165.8 1449.21 L 6228.06 1511.51 L 6254.79 1484.75 L 6404.78 1334.79 C 6379.86 1309.86 6375.94 1305.93 6338.91 1268.89"/>
    <path id="path232" style="fill:#000000;fill-opacity:1;fill-rule:nonzero;stroke:none" d="M 6169.34 1449.21 C 6175.33 1443.23 6194.28 1424.25 6194.28 1424.25 C 6194.43 1424.1 6194.57 1423.92 6194.68 1423.73 C 6230.72 1361.05 6240.54 1285.2 6221.79 1215.04 C 6265.24 1219.96 6306.09 1239.62 6337.14 1270.66 L 6401.24 1334.79 L 6228.06 1507.97 L 6169.34 1449.21 Z M 6218.41 1209.68 C 6217.67 1209.68 6216.96 1210 6216.48 1210.58 C 6215.96 1211.21 6215.78 1212.06 6216.01 1212.85 C 6235.65 1282.6 6226.36 1358.42 6190.51 1420.95 C 6187.91 1423.55 6164.58 1446.91 6164.05 1447.43 C 6163.57 1447.89 6163.3 1448.54 6163.3 1449.2 C 6163.3 1449.87 6163.56 1450.51 6164.03 1450.98 L 6226.29 1513.27 C 6226.76 1513.74 6227.39 1514.01 6228.06 1514.01 L 6228.06 1514.01 C 6228.72 1514.01 6229.36 1513.74 6229.82 1513.27 L 6406.54 1336.56 C 6407.52 1335.58 6407.52 1334 6406.54 1333.02 L 6340.67 1267.12 C 6307.94 1234.41 6264.61 1214.02 6218.64 1209.69 C 6218.56 1209.68 6218.49 1209.68 6218.41 1209.68"/>
    <path id="path234" style="fill:#bcc4cd;fill-opacity:1;fill-rule:nonzero;stroke:none" d="M 6179.11 1435.9 L 6241.4 1498.15 L 6254.76 1484.79 L 6192.48 1422.53 C 6192.32 1422.7 6185.72 1429.29 6179.11 1435.9"/>
    <path id="path236" style="fill:#000000;fill-opacity:1;fill-rule:nonzero;stroke:none" d="M 6182.65 1435.9 L 6188.04 1430.51 C 6189.82 1428.72 6191.38 1427.18 6192.48 1426.07 L 6251.22 1484.79 L 6241.4 1494.61 L 6182.65 1435.9 Z M 6192.48 1420.03 C 6191.91 1420.01 6191.15 1420.31 6190.67 1420.8 C 6190.46 1421.03 6187.93 1423.56 6184.5 1426.98 L 6177.34 1434.13 C 6176.88 1434.6 6176.61 1435.24 6176.61 1435.9 C 6176.61 1436.57 6176.88 1437.2 6177.34 1437.67 L 6239.63 1499.92 C 6240.62 1500.9 6242.2 1500.88 6243.16 1499.92 L 6256.52 1486.56 C 6256.99 1486.09 6257.26 1485.45 6257.26 1484.79 C 6257.26 1484.12 6256.99 1483.49 6256.52 1483.02 L 6194.25 1420.77 C 6193.78 1420.3 6193.14 1420.03 6192.48 1420.03"/>
    <path id="path238" style="fill:#bcc4cd;fill-opacity:1;fill-rule:nonzero;stroke:none" d="M 6310.12 1307.72 C 6344.47 1342.05 6351.18 1348.77 6370.97 1368.6 L 6404.78 1334.79 C 6379.86 1309.86 6375.94 1305.93 6338.91 1268.89 C 6305.25 1235.26 6262.43 1216.32 6218.41 1212.18 C 6222.74 1227.35 6225.51 1242.81 6227.12 1258.38 C 6257.49 1267.43 6286.17 1283.78 6310.12 1307.72"/>
    <path id="path240" style="fill:#000000;fill-opacity:1;fill-rule:nonzero;stroke:none" d="M 6229.43 1256.47 C 6227.83 1241.72 6225.32 1228.12 6221.8 1215.04 C 6265.25 1219.96 6306.09 1239.63 6337.14 1270.66 L 6401.24 1334.79 L 6370.97 1365.06 C 6352.52 1346.58 6345.2 1339.24 6311.88 1305.95 C 6289.04 1283.12 6260.57 1266.04 6229.43 1256.47 Z M 6218.41 1209.68 C 6217.67 1209.68 6216.96 1210.01 6216.48 1210.58 C 6215.96 1211.22 6215.78 1212.07 6216.01 1212.86 C 6220.11 1227.23 6222.93 1242.2 6224.63 1258.64 C 6224.74 1259.64 6225.44 1260.49 6226.41 1260.77 C 6257.37 1270 6285.7 1286.85 6308.35 1309.49 C 6342.71 1343.82 6349.41 1350.54 6369.2 1370.36 C 6370.14 1371.3 6371.8 1371.3 6372.73 1370.36 L 6406.54 1336.56 C 6407.52 1335.58 6407.52 1334 6406.54 1333.02 L 6340.67 1267.12 C 6307.94 1234.41 6264.61 1214.02 6218.64 1209.69 C 6218.56 1209.68 6218.49 1209.68 6218.41 1209.68"/>
    <path id="path242" style="fill:#8192a4;fill-opacity:1;fill-rule:nonzero;stroke:none" d="M 5975.4 1187.62 L 5930.88 1232.12 L 5946.56 1247.83 L 5991.1 1203.35 L 5975.4 1187.62"/>
    <path id="path244" style="fill:#000000;fill-opacity:1;fill-rule:nonzero;stroke:none" d="M 5934.41 1232.12 L 5975.4 1191.16 L 5987.57 1203.35 L 5946.56 1244.29 L 5934.41 1232.12 Z M 5975.4 1185.12 C 5974.74 1185.12 5974.1 1185.38 5973.63 1185.85 L 5929.11 1230.35 C 5928.13 1231.33 5928.13 1232.91 5929.11 1233.89 L 5944.79 1249.59 C 5945.76 1250.56 5947.34 1250.58 5948.33 1249.59 L 5992.87 1205.12 C 5993.85 1204.14 5993.85 1202.56 5992.87 1201.59 L 5977.17 1185.85 C 5976.7 1185.38 5976.06 1185.12 5975.4 1185.12 L 5975.4 1185.12"/>
    <path id="path246" style="fill:#eb4900;fill-opacity:1;fill-rule:nonzero;stroke:none" d="M 6099.23 1329.26 L 6072.53 1355.95 L 6098.92 1382.35 L 6125.63 1355.63 L 6099.23 1329.26"/>
    <path id="path248" style="fill:#000000;fill-opacity:1;fill-rule:nonzero;stroke:none" d="M 6076.06 1355.95 L 6099.23 1332.8 L 6122.09 1355.63 L 6098.92 1378.81 L 6076.06 1355.95 Z M 6099.23 1326.76 C 6098.58 1326.76 6097.95 1327.01 6097.46 1327.49 L 6070.76 1354.18 C 6069.79 1355.16 6069.79 1356.74 6070.76 1357.72 L 6097.15 1384.11 C 6098.09 1385.05 6099.75 1385.05 6100.68 1384.11 L 6127.39 1357.4 C 6127.86 1356.93 6128.13 1356.29 6128.13 1355.63 C 6128.13 1354.96 6127.86 1354.33 6127.39 1353.86 L 6101 1327.49 C 6100.51 1327.01 6099.86 1326.76 6099.23 1326.76"/>
    <path id="path250" style="fill:#eb4900;fill-opacity:1;fill-rule:nonzero;stroke:none" d="M 5996.57 1226.6 L 5969.86 1253.28 L 5996.23 1279.64 L 6022.91 1252.95 L 5996.57 1226.6"/>
    <path id="path252" style="fill:#000000;fill-opacity:1;fill-rule:nonzero;stroke:none" d="M 5973.4 1253.28 L 5996.57 1230.13 L 6019.38 1252.95 L 5996.23 1276.11 L 5973.4 1253.28 Z M 5996.57 1224.1 C 5995.91 1224.1 5995.27 1224.36 5994.8 1224.83 L 5968.1 1251.52 C 5967.63 1251.99 5967.36 1252.62 5967.36 1253.28 C 5967.36 1253.95 5967.63 1254.58 5968.1 1255.05 L 5994.46 1281.41 C 5995.45 1282.4 5997.03 1282.38 5998 1281.41 L 6024.68 1254.72 C 6025.65 1253.74 6025.65 1252.16 6024.68 1251.18 L 5998.34 1224.83 C 5997.87 1224.36 5997.24 1224.1 5996.57 1224.1"/>
    <path id="path254" style="fill:#cd7200;fill-opacity:1;fill-rule:nonzero;stroke:none" d="M 6061.55 1291.57 L 6061.55 1344.97 L 6098.82 1382.27 L 6098.82 1328.84 L 6061.55 1291.57"/>
    <path id="path256" style="fill:#000000;fill-opacity:1;fill-rule:nonzero;stroke:none" d="M 6064.05 1343.94 L 6064.05 1297.6 L 6096.32 1329.88 L 6096.32 1376.23 L 6064.05 1343.94 Z M 6061.55 1289.07 C 6061.23 1289.07 6060.91 1289.12 6060.6 1289.25 C 6059.66 1289.64 6059.05 1290.55 6059.05 1291.57 L 6059.05 1344.97 C 6059.05 1345.64 6059.32 1346.27 6059.79 1346.74 L 6097.05 1384.04 C 6097.76 1384.76 6098.82 1384.97 6099.78 1384.58 C 6100.71 1384.19 6101.32 1383.28 6101.32 1382.27 L 6101.32 1328.84 C 6101.32 1328.18 6101.05 1327.54 6100.59 1327.07 L 6063.32 1289.8 C 6062.84 1289.32 6062.21 1289.07 6061.55 1289.07"/>
    <path id="path258" style="fill:#cd7200;fill-opacity:1;fill-rule:nonzero;stroke:none" d="M 6059.91 1289.92 L 6059.91 1343.35 L 6097.23 1380.66 L 6097.2 1327.23 L 6059.91 1289.92"/>
    <path id="path260" style="fill:#000000;fill-opacity:1;fill-rule:nonzero;stroke:none" d="M 6062.41 1342.32 L 6062.41 1295.95 L 6094.7 1328.27 L 6094.73 1374.62 L 6062.41 1342.32 Z M 6059.91 1287.42 C 6059.59 1287.42 6059.27 1287.47 6058.96 1287.6 C 6058.02 1287.99 6057.41 1288.9 6057.41 1289.92 L 6057.41 1343.35 C 6057.41 1344.02 6057.68 1344.65 6058.14 1345.12 L 6095.46 1382.43 C 6096.17 1383.14 6097.24 1383.37 6098.18 1382.96 C 6099.12 1382.58 6099.73 1381.66 6099.73 1380.66 L 6099.7 1327.23 C 6099.7 1326.57 6099.43 1325.93 6098.96 1325.46 L 6061.68 1288.15 C 6061.2 1287.67 6060.57 1287.42 6059.91 1287.42"/>
    <path id="path262" style="fill:#eb4900;fill-opacity:1;fill-rule:nonzero;stroke:none" d="M 6060.04 1290.06 L 6006.63 1290.1 L 6043.95 1327.34 L 6097.35 1327.36 L 6060.04 1290.06"/>
    <path id="path264" style="fill:#000000;fill-opacity:1;fill-rule:nonzero;stroke:none" d="M 6012.68 1292.6 L 6059 1292.56 L 6091.32 1324.86 L 6044.98 1324.84 L 6012.68 1292.6 Z M 6060.04 1287.56 L 6060.04 1287.56 L 6006.63 1287.6 C 6005.62 1287.6 6004.71 1288.22 6004.32 1289.14 C 6003.94 1290.08 6004.15 1291.16 6004.86 1291.87 L 6042.18 1329.1 C 6042.65 1329.57 6043.28 1329.84 6043.95 1329.84 L 6097.35 1329.86 C 6098.36 1329.86 6099.28 1329.25 6099.67 1328.31 C 6100.05 1327.38 6099.83 1326.3 6099.12 1325.59 L 6061.81 1288.29 C 6061.34 1287.83 6060.7 1287.56 6060.04 1287.56"/>
    <path id="path266" style="fill:#cd7200;fill-opacity:1;fill-rule:nonzero;stroke:none" d="M 6023.27 1253.28 L 5969.86 1253.28 L 6007.15 1290.57 L 6060.57 1290.57 L 6023.27 1253.28"/>
    <path id="path268" style="fill:#000000;fill-opacity:1;fill-rule:nonzero;stroke:none" d="M 5975.9 1255.78 L 6022.24 1255.78 L 6054.53 1288.07 L 6008.18 1288.07 L 5975.9 1255.78 Z M 6023.27 1250.78 L 5969.86 1250.78 C 5968.85 1250.78 5967.94 1251.39 5967.55 1252.33 C 5967.17 1253.27 5967.38 1254.34 5968.1 1255.05 L 6005.38 1292.34 C 6005.85 1292.81 6006.48 1293.07 6007.15 1293.07 L 6060.57 1293.07 C 6061.58 1293.07 6062.49 1292.46 6062.88 1291.53 C 6063.26 1290.59 6063.05 1289.52 6062.33 1288.8 L 6025.04 1251.52 C 6024.57 1251.05 6023.94 1250.78 6023.27 1250.78"/>
    <path id="path270" style="fill:#f4d9bd;fill-opacity:1;fill-rule:nonzero;stroke:none" d="M 5995.15 1600.06 C 5995.15 1512.14 5923.88 1440.84 5835.93 1440.84 L 5768.44 1440.84 C 5680.5 1440.84 5609.22 1512.14 5609.22 1600.06 L 5609.22 1600.06 C 5609.22 1687.99 5680.5 1759.29 5768.44 1759.29 L 5835.93 1759.29 C 5923.88 1759.29 5995.15 1687.99 5995.15 1600.06 L 5995.15 1600.06"/>
    <path id="path272" style="fill:#000000;fill-opacity:1;fill-rule:nonzero;stroke:none" d="M 5768.44 1756.79 C 5682.02 1756.79 5611.72 1686.48 5611.72 1600.06 C 5611.72 1513.65 5682.02 1443.34 5768.44 1443.34 L 5835.93 1443.34 C 5922.34 1443.34 5992.65 1513.65 5992.65 1600.06 C 5992.65 1686.48 5922.34 1756.79 5835.93 1756.79 L 5768.44 1756.79 Z M 5835.93 1438.34 L 5768.44 1438.34 C 5679.27 1438.34 5606.72 1510.89 5606.72 1600.06 C 5606.72 1689.24 5679.27 1761.79 5768.44 1761.79 L 5835.93 1761.79 C 5925.1 1761.79 5997.65 1689.24 5997.65 1600.06 C 5997.65 1510.89 5925.1 1438.34 5835.93 1438.34"/>
    <path id="path274" style="fill:#ffac83;fill-opacity:1;fill-rule:nonzero;stroke:none" d="M 5961.4 1514.58 C 5961.4 1498.85 5946.84 1486.09 5928.87 1486.09 C 5910.9 1486.09 5896.34 1498.85 5896.34 1514.58 C 5896.34 1530.31 5910.9 1543.07 5928.87 1543.07 C 5946.84 1543.07 5961.4 1530.31 5961.4 1514.58"/>
    <path id="path276" style="fill:#ffac83;fill-opacity:1;fill-rule:nonzero;stroke:none" d="M 5771.39 1514.58 C 5771.39 1498.85 5756.83 1486.09 5738.86 1486.09 C 5720.89 1486.09 5706.33 1498.85 5706.33 1514.58 C 5706.33 1530.31 5720.89 1543.07 5738.86 1543.07 C 5756.83 1543.07 5771.39 1530.31 5771.39 1514.58"/>
    <path id="path278" style="fill:#eb4900;fill-opacity:1;fill-rule:nonzero;stroke:none" d="M 5713.01 1508.81 L 5764.709 1508.81 L 5764.709 1611.013 L 5713.01 1611.013 L 5713.01 1508.81 Z"/>
    <path id="path280" style="fill:#000000;fill-opacity:1;fill-rule:nonzero;stroke:none" d="M 5715.51 1511.31 L 5762.21 1511.31 L 5762.21 1608.51 L 5715.51 1608.51 L 5715.51 1511.31 Z M 5764.71 1506.31 L 5713.01 1506.31 C 5711.63 1506.31 5710.51 1507.43 5710.51 1508.81 L 5710.51 1611.01 C 5710.51 1612.39 5711.63 1613.51 5713.01 1613.51 L 5764.71 1613.51 C 5766.08 1613.51 5767.21 1612.39 5767.21 1611.01 L 5767.21 1508.81 C 5767.21 1507.43 5766.08 1506.31 5764.71 1506.31"/>
    <path id="path282" style="fill:#ffb103;fill-opacity:1;fill-rule:nonzero;stroke:none" d="M 5935.75 1735.52 C 5929.11 1751.63 5919.42 1766.78 5906.32 1779.89 C 5881.51 1804.69 5849.61 1817.9 5817.16 1819.82 C 5840.1 1804.01 5862.82 1785.36 5884.59 1763.95 C 5875.57 1765.93 5865.73 1766.99 5855.04 1766.99 L 5754.81 1766.99 C 5735.4 1766.99 5703.88 1766.99 5681.14 1766.99 C 5646.06 1766.99 5614.16 1753.79 5589.87 1732.18 C 5613.33 1736.49 5638.18 1739.18 5663.96 1740.06 C 5617.93 1710.23 5587.4 1658.51 5587.4 1599.58 C 5587.4 1583.53 5587.4 1540.05 5587.4 1497.22 C 5584.59 1494.83 5581.82 1492.37 5579.16 1489.71 C 5554.33 1464.91 5541.09 1433.01 5539.22 1400.56 C 5553.1 1420.71 5569.22 1440.66 5587.4 1459.95 C 5587.4 1423.33 5587.4 1394.23 5587.4 1394.23 L 5674.13 1452.9 C 5674.13 1452.9 5674.13 1560.43 5674.13 1590.03 C 5674.13 1635.63 5702.86 1674.42 5743.19 1689.55 L 5757.1 1727.14 L 5808.05 1696.42 L 5823.52 1727.14 L 5844.46 1696.42 L 5859.93 1727.14 L 5910.9 1696.42 L 5926.37 1727.14 L 5959.32 1696.42 C 5953.78 1711.33 5946.01 1724.59 5935.75 1735.52"/>
    <path id="path284" style="fill:#000000;fill-opacity:1;fill-rule:nonzero;stroke:none" d="M 5587.4 1462.45 C 5587.71 1462.45 5588.03 1462.4 5588.32 1462.28 C 5589.28 1461.9 5589.9 1460.98 5589.9 1459.95 L 5589.9 1398.94 L 5671.63 1454.23 L 5671.63 1590.03 C 5671.63 1634.71 5699.56 1675.34 5741.24 1691.49 L 5754.76 1728.01 C 5755.01 1728.7 5755.57 1729.25 5756.27 1729.51 C 5756.98 1729.73 5757.75 1729.67 5758.39 1729.28 L 5807.03 1699.95 L 5821.28 1728.27 C 5821.68 1729.06 5822.47 1729.57 5823.35 1729.63 C 5824.2 1729.75 5825.08 1729.28 5825.59 1728.55 L 5844.14 1701.33 L 5857.7 1728.27 C 5858.01 1728.89 5858.57 1729.35 5859.24 1729.54 C 5859.89 1729.76 5860.63 1729.66 5861.22 1729.28 L 5909.88 1699.95 L 5924.13 1728.27 C 5924.49 1728.97 5925.16 1729.47 5925.93 1729.6 C 5926.68 1729.77 5927.5 1729.52 5928.08 1728.97 L 5952.48 1706.21 C 5947.47 1716.75 5941.25 1726 5933.93 1733.81 C 5933.72 1734.03 5933.55 1734.29 5933.44 1734.56 C 5926.62 1751.12 5916.9 1765.77 5904.55 1778.12 C 5883.41 1799.26 5855.9 1812.67 5826.27 1816.46 C 5847.23 1801.41 5867.39 1784.37 5886.35 1765.73 C 5887.14 1764.94 5887.31 1763.73 5886.79 1762.76 C 5886.26 1761.77 5885.16 1761.25 5884.05 1761.51 C 5875.06 1763.48 5865.29 1764.49 5855.04 1764.49 L 5681.14 1764.49 C 5651.22 1764.49 5622.28 1754.52 5598.67 1736.24 C 5619.75 1739.68 5641.64 1741.8 5663.88 1742.56 C 5664.74 1742.62 5666.02 1741.89 5666.35 1740.81 C 5666.69 1739.74 5666.27 1738.58 5665.32 1737.96 C 5618.1 1707.36 5589.9 1655.63 5589.9 1599.58 L 5589.9 1497.22 C 5589.9 1496.49 5589.58 1495.79 5589.02 1495.32 C 5585.68 1492.47 5583.18 1490.2 5580.93 1487.94 C 5559.75 1466.78 5546.32 1439.27 5542.57 1409.66 C 5555.38 1427.47 5569.81 1444.93 5585.59 1461.67 C 5586.06 1462.18 5586.73 1462.45 5587.4 1462.45 Z M 5587.4 1391.73 C 5587 1391.73 5586.6 1391.83 5586.23 1392.02 C 5585.41 1392.45 5584.9 1393.3 5584.9 1394.23 L 5584.9 1453.6 C 5568.76 1436.06 5554.1 1417.77 5541.28 1399.14 C 5540.64 1398.21 5539.44 1397.82 5538.41 1398.2 C 5537.34 1398.56 5536.66 1399.58 5536.72 1400.71 C 5538.71 1435.02 5553.15 1467.27 5577.39 1491.48 C 5579.54 1493.63 5581.88 1495.78 5584.9 1498.37 L 5584.9 1599.58 C 5584.9 1654.4 5611.07 1705.21 5655.35 1737.2 C 5633.09 1736.08 5611.25 1733.57 5590.32 1729.72 C 5589.25 1729.49 5588.12 1730.08 5587.63 1731.09 C 5587.14 1732.09 5587.37 1733.3 5588.21 1734.05 C 5613.9 1756.9 5646.89 1769.49 5681.14 1769.49 L 5855.04 1769.49 C 5862.62 1769.49 5869.94 1768.96 5876.91 1767.9 C 5857.57 1786.34 5837.02 1803.09 5815.74 1817.76 C 5814.81 1818.39 5814.43 1819.57 5814.79 1820.63 C 5815.17 1821.69 5816.23 1822.31 5817.3 1822.32 C 5851.65 1820.29 5883.9 1805.84 5908.09 1781.65 C 5920.8 1768.94 5930.83 1753.88 5937.89 1736.9 C 5947.9 1726.13 5955.9 1712.81 5961.66 1697.29 C 5962.06 1696.2 5961.67 1694.98 5960.7 1694.34 C 5959.74 1693.69 5958.46 1693.8 5957.61 1694.59 L 5927.1 1723.04 L 5913.13 1695.3 C 5912.82 1694.67 5912.26 1694.21 5911.59 1694.02 C 5910.94 1693.82 5910.2 1693.91 5909.61 1694.28 L 5860.95 1723.61 L 5846.7 1695.3 C 5846.3 1694.51 5845.51 1693.99 5844.63 1693.93 C 5843.76 1693.79 5842.9 1694.28 5842.39 1695.01 L 5823.84 1722.23 L 5810.28 1695.3 C 5809.97 1694.67 5809.4 1694.21 5808.74 1694.02 C 5808.09 1693.82 5807.34 1693.91 5806.76 1694.28 L 5758.4 1723.44 L 5745.54 1688.68 C 5745.28 1688 5744.76 1687.46 5744.07 1687.21 C 5703.73 1672.07 5676.63 1633.02 5676.63 1590.03 L 5676.63 1452.9 C 5676.63 1452.07 5676.22 1451.3 5675.53 1450.83 L 5588.8 1392.16 C 5588.38 1391.88 5587.89 1391.73 5587.4 1391.73"/>
    <path id="path286" style="fill:#ffb103;fill-opacity:1;fill-rule:nonzero;stroke:none" d="M 5781.27 1591.56 L 5678.92 1577.28 L 5678.92 1605.75 L 5781.27 1637.83 L 5781.27 1591.56"/>
    <path id="path288" style="fill:#000000;fill-opacity:1;fill-rule:nonzero;stroke:none" d="M 5681.42 1603.91 L 5681.42 1580.15 L 5778.77 1593.73 L 5778.77 1634.42 L 5681.42 1603.91 Z M 5678.92 1574.78 C 5678.32 1574.78 5677.73 1574.99 5677.28 1575.39 C 5676.73 1575.87 5676.42 1576.56 5676.42 1577.28 L 5676.42 1605.75 C 5676.42 1606.84 5677.13 1607.81 5678.16 1608.13 L 5780.52 1640.21 C 5781.29 1640.45 5782.1 1640.32 5782.75 1639.84 C 5783.39 1639.37 5783.77 1638.62 5783.77 1637.83 L 5783.77 1591.56 C 5783.77 1590.31 5782.85 1589.25 5781.61 1589.08 L 5679.26 1574.8 C 5679.15 1574.79 5679.03 1574.78 5678.92 1574.78"/>
    <path id="path290" style="fill:#ffb103;fill-opacity:1;fill-rule:nonzero;stroke:none" d="M 5907.4 1616.67 L 5990.02 1602.43 L 5990.02 1630.96 L 5907.4 1662.95 L 5907.4 1616.67"/>
    <path id="path292" style="fill:#000000;fill-opacity:1;fill-rule:nonzero;stroke:none" d="M 5909.9 1618.78 L 5987.52 1605.4 L 5987.52 1629.25 L 5909.9 1659.3 L 5909.9 1618.78 Z M 5990.02 1599.93 C 5989.88 1599.93 5989.74 1599.94 5989.6 1599.97 L 5906.98 1614.21 C 5905.78 1614.42 5904.9 1615.45 5904.9 1616.67 L 5904.9 1662.95 C 5904.9 1663.77 5905.31 1664.54 5905.99 1665.01 C 5906.68 1665.48 5907.56 1665.57 5908.3 1665.29 L 5990.92 1633.29 C 5991.88 1632.92 5992.52 1632 5992.52 1630.96 L 5992.52 1602.43 C 5992.52 1601.7 5992.2 1601 5991.63 1600.52 C 5991.17 1600.14 5990.61 1599.93 5990.02 1599.93"/>
    <path id="path294" style="fill:#eb4900;fill-opacity:1;fill-rule:nonzero;stroke:none" d="M 5814.96 1465.21 C 5829.29 1465.21 5840.89 1476.84 5840.89 1491.17 L 5789.16 1491.17 C 5789.16 1476.84 5800.71 1465.21 5814.96 1465.21"/>
    <path id="path296" style="fill:#000000;fill-opacity:1;fill-rule:nonzero;stroke:none" d="M 5791.79 1488.67 C 5793.04 1476.9 5802.95 1467.71 5814.96 1467.71 C 5827.03 1467.71 5837 1476.9 5838.25 1488.67 L 5791.79 1488.67 Z M 5814.96 1462.71 C 5799.36 1462.71 5786.66 1475.47 5786.66 1491.17 C 5786.66 1492.54 5787.78 1493.67 5789.16 1493.67 L 5840.89 1493.67 C 5842.27 1493.67 5843.39 1492.54 5843.39 1491.17 C 5843.39 1475.47 5830.63 1462.71 5814.96 1462.71"/>
    <path id="path298" style="fill:#2a5b6a;fill-opacity:1;fill-rule:nonzero;stroke:none" d="M 5738.96 1577.62 C 5729.37 1577.62 5721.09 1572.36 5716.6 1564.63 L 5694.24 1564.63 C 5690.64 1564.63 5687.71 1561.72 5687.71 1558.14 C 5687.71 1554.55 5690.64 1551.64 5694.24 1551.64 L 5764.73 1551.65 C 5764.73 1565.98 5753.18 1577.62 5738.96 1577.62"/>
    <path id="path300" style="fill:#000000;fill-opacity:1;fill-rule:nonzero;stroke:none" d="M 5694.24 1562.13 C 5692.01 1562.13 5690.21 1560.35 5690.21 1558.14 C 5690.21 1555.93 5692.01 1554.14 5694.24 1554.14 L 5762.1 1554.15 C 5760.86 1565.92 5750.96 1575.12 5738.96 1575.12 C 5730.6 1575.12 5723.04 1570.73 5718.76 1563.37 C 5718.31 1562.6 5717.49 1562.13 5716.6 1562.13 L 5694.24 1562.13 Z M 5694.24 1549.14 L 5694.24 1549.14 C 5689.26 1549.14 5685.21 1553.18 5685.21 1558.14 C 5685.21 1563.1 5689.26 1567.13 5694.24 1567.13 L 5715.21 1567.13 C 5720.5 1575.3 5729.28 1580.12 5738.96 1580.12 C 5754.55 1580.12 5767.23 1567.35 5767.23 1551.65 C 5767.23 1550.28 5766.1 1549.15 5764.73 1549.15 L 5694.24 1549.14"/>
    <path id="path302" style="fill:#2a5b6a;fill-opacity:1;fill-rule:nonzero;stroke:none" d="M 5987.52 1564.63 L 5963.56 1564.63 C 5959.12 1572.36 5950.85 1577.62 5941.34 1577.62 C 5926.98 1577.62 5915.44 1565.98 5915.44 1551.65 L 5987.52 1551.64 C 5991.08 1551.64 5993.99 1554.55 5993.99 1558.14 C 5993.99 1561.72 5991.08 1564.63 5987.52 1564.63"/>
    <path id="path304" style="fill:#000000;fill-opacity:1;fill-rule:nonzero;stroke:none" d="M 5918.08 1554.15 L 5987.52 1554.14 C 5989.71 1554.14 5991.49 1555.93 5991.49 1558.14 C 5991.49 1560.35 5989.71 1562.13 5987.52 1562.13 L 5963.56 1562.13 C 5962.67 1562.13 5961.85 1562.61 5961.4 1563.38 C 5957.24 1570.63 5949.55 1575.12 5941.34 1575.12 C 5929.28 1575.12 5919.32 1565.92 5918.08 1554.15 Z M 5987.52 1549.14 L 5987.52 1549.14 L 5915.44 1549.15 C 5914.06 1549.15 5912.94 1550.28 5912.94 1551.65 C 5912.94 1567.35 5925.68 1580.12 5941.34 1580.12 C 5950.85 1580.12 5959.78 1575.18 5964.97 1567.13 L 5987.52 1567.13 C 5992.47 1567.13 5996.49 1563.1 5996.49 1558.14 C 5996.49 1553.18 5992.47 1549.14 5987.52 1549.14"/>
    <path id="path306" style="fill:#ffde73;fill-opacity:1;fill-rule:nonzero;stroke:none" d="M 5636.96 1517.74 C 5636.96 1509.1 5629.95 1502.09 5621.31 1502.09 C 5612.66 1502.09 5605.63 1509.1 5605.63 1517.74 C 5605.63 1526.41 5612.66 1533.41 5621.31 1533.41 L 5621.31 1549.19 C 5603.95 1549.19 5589.87 1535.13 5589.87 1517.74 C 5589.87 1500.38 5603.95 1486.33 5621.31 1486.33 C 5638.68 1486.33 5652.75 1500.38 5652.75 1517.74 L 5636.96 1517.74"/>
    <path id="path308" style="fill:#000000;fill-opacity:1;fill-rule:nonzero;stroke:none" d="M 5618.81 1546.59 C 5604.02 1545.32 5592.37 1532.86 5592.37 1517.74 C 5592.37 1501.8 5605.35 1488.83 5621.31 1488.83 C 5636.43 1488.83 5648.88 1500.46 5650.15 1515.24 L 5639.29 1515.24 C 5638.07 1506.41 5630.47 1499.59 5621.31 1499.59 C 5611.29 1499.59 5603.13 1507.73 5603.13 1517.74 C 5603.13 1526.91 5609.96 1534.52 5618.81 1535.74 L 5618.81 1546.59 Z M 5621.31 1483.83 C 5602.6 1483.83 5587.37 1499.05 5587.37 1517.74 C 5587.37 1536.46 5602.6 1551.69 5621.31 1551.69 C 5622.69 1551.69 5623.81 1550.57 5623.81 1549.19 L 5623.81 1533.41 C 5623.81 1532.03 5622.69 1530.91 5621.31 1530.91 C 5614.04 1530.91 5608.13 1525 5608.13 1517.74 C 5608.13 1510.49 5614.04 1504.59 5621.31 1504.59 C 5628.56 1504.59 5634.46 1510.49 5634.46 1517.74 C 5634.46 1519.11 5635.59 1520.24 5636.96 1520.24 L 5652.75 1520.24 C 5654.13 1520.24 5655.25 1519.11 5655.25 1517.74 C 5655.25 1499.05 5640.03 1483.83 5621.31 1483.83"/>
    <path id="path310" style="fill:#f4d9bd;fill-opacity:1;fill-rule:nonzero;stroke:none" d="M 5620.24 1540.39 C 5620.24 1522.43 5634.8 1507.89 5652.75 1507.89 L 5652.75 1572.92 C 5634.8 1572.92 5620.24 1558.36 5620.24 1540.39"/>
    <path id="path312" style="fill:#000000;fill-opacity:1;fill-rule:nonzero;stroke:none" d="M 5650.25 1570.32 C 5634.87 1569.05 5622.74 1556.11 5622.74 1540.39 C 5622.74 1524.69 5634.87 1511.77 5650.25 1510.5 L 5650.25 1570.32 Z M 5652.75 1505.39 C 5633.45 1505.39 5617.74 1521.1 5617.74 1540.39 C 5617.74 1559.71 5633.45 1575.42 5652.75 1575.42 C 5654.13 1575.42 5655.25 1574.3 5655.25 1572.92 L 5655.25 1507.89 C 5655.25 1506.52 5654.13 1505.39 5652.75 1505.39"/>
    <path id="path314" style="fill:#8ba1a5;fill-opacity:1;fill-rule:nonzero;stroke:none" d="M 5873.62 1266.9 C 5873.62 1244.88 5855.78 1227.05 5833.79 1227.05 C 5811.76 1227.05 5793.93 1244.88 5793.93 1266.9 C 5793.93 1288.9 5811.76 1306.74 5833.79 1306.74 C 5855.78 1306.74 5873.62 1288.9 5873.62 1266.9"/>
    <path id="path316" style="fill:#000000;fill-opacity:1;fill-rule:nonzero;stroke:none" d="M 5833.79 1304.24 C 5813.18 1304.24 5796.43 1287.49 5796.43 1266.9 C 5796.43 1246.3 5813.18 1229.55 5833.79 1229.55 C 5854.38 1229.55 5871.12 1246.3 5871.12 1266.9 C 5871.12 1287.49 5854.38 1304.24 5833.79 1304.24 Z M 5833.79 1224.55 C 5810.43 1224.55 5791.43 1243.55 5791.43 1266.9 C 5791.43 1290.25 5810.43 1309.24 5833.79 1309.24 C 5857.13 1309.24 5876.12 1290.25 5876.12 1266.9 C 5876.12 1243.55 5857.13 1224.55 5833.79 1224.55"/>
    <path id="path318" style="fill:#6b7f82;fill-opacity:1;fill-rule:nonzero;stroke:none" d="M 5861.66 1266.9 C 5861.66 1251.5 5849.18 1239 5833.79 1239 C 5818.39 1239 5805.88 1251.5 5805.88 1266.9 C 5805.88 1282.32 5818.39 1294.78 5833.79 1294.78 C 5849.18 1294.78 5861.66 1282.32 5861.66 1266.9"/>
    <path id="path320" style="fill:#000000;fill-opacity:1;fill-rule:nonzero;stroke:none" d="M 5833.79 1292.28 C 5819.78 1292.28 5808.38 1280.89 5808.38 1266.9 C 5808.38 1252.89 5819.78 1241.5 5833.79 1241.5 C 5847.78 1241.5 5859.16 1252.89 5859.16 1266.9 C 5859.16 1280.89 5847.78 1292.28 5833.79 1292.28 Z M 5833.79 1236.5 C 5817.02 1236.5 5803.38 1250.13 5803.38 1266.9 C 5803.38 1283.65 5817.02 1297.28 5833.79 1297.28 C 5850.54 1297.28 5864.16 1283.65 5864.16 1266.9 C 5864.16 1250.13 5850.54 1236.5 5833.79 1236.5"/>
  </g>
</svg>