<?xml version="1.0" encoding="utf-8"?>
<svg viewBox="696.448974609375 442.5249938964844 62.323001861572266 83.61199951171875" width="62.323001861572266" height="83.61199951171875" xmlns="http://www.w3.org/2000/svg">
  <g transform="matrix(0.12500000186264515, 0, 0, -0.12500000186264515, 0, 526.1375122070312)">
    <path id="path14" style="fill:#ddd8bf;fill-opacity:1;fill-rule:nonzero;stroke:none" d="M 6068.81 27.141 C 6068.81 12.16 5957.51 0 5820.21 0 C 5682.89 0 5571.59 12.16 5571.59 27.141 C 5571.59 42.129 5682.89 54.289 5820.21 54.289 C 5957.51 54.289 6068.81 42.129 6068.81 27.141"/>
    <path id="path322" style="fill:#c9a88b;fill-opacity:1;fill-rule:nonzero;stroke:none" d="M 5948.38 277 C 5987.18 230.242 5996 183.781 5997.37 172.281 C 6002.91 125.898 5946.04 131.531 5942.67 150.23 C 5924.25 252.551 5895.21 302.75 5890.11 313.48 C 5890.11 313.48 5914.76 317.461 5948.38 277"/>
    <path id="path324" style="fill:#000000;fill-opacity:1;fill-rule:nonzero;stroke:none" d="M 5894.14 310.988 C 5894.22 310.832 5894.31 310.68 5894.38 310.52 C 5902.79 294 5928.38 243.719 5945.13 150.672 C 5946.3 144.211 5956.48 138.949 5967.84 138.949 C 5972.94 138.949 5982.48 140.051 5989.03 147.43 C 5994.17 153.219 5996.14 161.48 5994.89 171.992 C 5994.25 177.371 5987.41 226.051 5946.46 275.398 C 5921.6 305.32 5901.99 310.309 5894.14 310.988 Z M 5967.84 133.949 C 5953.72 133.949 5941.84 140.762 5940.21 149.781 C 5923.58 242.109 5898.25 291.898 5889.93 308.262 C 5889.04 310 5888.34 311.379 5887.85 312.41 C 5887.51 313.109 5887.54 313.941 5887.9 314.629 C 5888.26 315.332 5888.94 315.809 5889.71 315.949 C 5889.71 315.949 5890.52 316.09 5892.04 316.09 C 5898.4 316.09 5921.4 313.379 5950.3 278.602 C 5992.17 228.141 5999.19 178.109 5999.85 172.57 C 6001.29 160.602 5998.9 151.02 5992.76 144.102 C 5986.95 137.559 5978.11 133.949 5967.84 133.949"/>
    <path id="path326" style="fill:#c9a88b;fill-opacity:1;fill-rule:nonzero;stroke:none" d="M 6013.29 132.082 C 6015.42 119.988 6007.36 108.449 5995.26 106.332 L 5966.35 101.191 C 5954.26 99.082 5942.74 107.16 5940.61 119.25 L 5935.51 148.16 C 5933.41 160.25 5941.44 171.77 5953.51 173.898 L 5982.45 179.02 C 5994.54 181.129 6006.05 173.082 6008.19 160.988 L 6013.29 132.082"/>
    <path id="path328" style="fill:#000000;fill-opacity:1;fill-rule:nonzero;stroke:none" d="M 5986.31 176.852 C 5985.19 176.852 5984.03 176.75 5982.88 176.559 L 5953.95 171.441 C 5943.27 169.551 5936.11 159.301 5937.97 148.59 L 5943.07 119.68 C 5944.93 109.121 5954.92 101.711 5965.92 103.66 L 5994.82 108.789 C 6000.02 109.699 6004.54 112.582 6007.57 116.898 C 6010.59 121.211 6011.75 126.461 6010.83 131.648 L 6005.73 160.559 C 6004.06 169.988 5995.9 176.852 5986.31 176.852 Z M 5962.49 98.352 C 5950.48 98.352 5940.24 106.969 5938.14 118.809 L 5933.05 147.73 C 5930.71 161.16 5939.7 174.012 5953.08 176.359 L 5982.01 181.48 C 5995.89 183.898 6008.32 174.648 6010.65 161.43 L 6015.75 132.512 C 6016.89 126.012 6015.45 119.449 6011.66 114.039 C 6007.87 108.621 6002.21 105.012 5995.69 103.871 L 5966.79 98.73 C 5965.34 98.48 5963.9 98.352 5962.49 98.352"/>
    <path id="path330" style="fill:#f4d9bd;fill-opacity:1;fill-rule:nonzero;stroke:none" d="M 6006.89 168.262 C 6008.32 160.211 6002.97 152.52 5994.9 151.09 L 5982.19 148.852 C 5974.1 147.441 5966.43 152.801 5965 160.859 L 5965 160.859 C 5963.56 168.91 5968.96 176.629 5977.01 178.051 L 5989.73 180.301 C 5997.79 181.699 6005.49 176.32 6006.89 168.262 L 6006.89 168.262"/>
    <path id="path332" style="fill:#000000;fill-opacity:1;fill-rule:nonzero;stroke:none" d="M 5992.29 178.02 C 5991.59 178.02 5990.88 177.961 5990.16 177.84 L 5977.45 175.59 C 5974.21 175.02 5971.39 173.219 5969.5 170.512 C 5967.61 167.809 5966.88 164.531 5967.46 161.301 C 5968.63 154.699 5975 150.109 5981.76 151.309 L 5994.47 153.551 C 6001.14 154.738 6005.62 161.141 6004.43 167.82 C 6003.4 173.73 5998.3 178.02 5992.29 178.02 Z M 5979.6 146.129 C 5971.18 146.129 5964 152.141 5962.54 160.422 C 5961.73 164.969 5962.74 169.582 5965.4 173.379 C 5968.06 177.18 5972.03 179.711 5976.58 180.512 L 5989.29 182.762 C 5998.99 184.461 6007.74 177.969 6009.36 168.68 C 6011.02 159.301 6004.74 150.301 5995.34 148.629 L 5982.62 146.391 C 5981.6 146.211 5980.6 146.129 5979.6 146.129"/>
    <path id="path334" style="fill:#72716d;fill-opacity:1;fill-rule:nonzero;stroke:none" d="M 5944.69 168.75 L 5989.29 180.012 C 5994.9 181.43 5998.28 187.109 5996.86 192.691 L 5987.16 231.102 C 5985.72 236.691 5980.06 240.082 5974.46 238.66 L 5929.87 227.371 C 5924.28 225.949 5920.9 220.27 5922.3 214.691 L 5932 176.309 C 5933.43 170.719 5939.1 167.332 5944.69 168.75"/>
    <path id="path336" style="fill:#000000;fill-opacity:1;fill-rule:nonzero;stroke:none" d="M 5977.05 236.48 C 5976.39 236.48 5975.72 236.398 5975.08 236.23 L 5930.49 224.941 C 5926.24 223.871 5923.66 219.539 5924.73 215.309 L 5934.42 176.93 C 5935.49 172.762 5939.84 170.09 5944.07 171.18 L 5988.67 182.43 C 5990.74 182.961 5992.48 184.25 5993.56 186.082 C 5994.65 187.891 5994.96 190.02 5994.43 192.07 L 5984.74 230.48 C 5983.83 234.012 5980.66 236.48 5977.05 236.48 Z M 5942.11 165.93 C 5936.2 165.93 5931.04 169.941 5929.58 175.699 L 5919.88 214.082 C 5918.13 220.988 5922.34 228.039 5929.26 229.789 L 5973.85 241.082 C 5980.63 242.809 5987.83 238.512 5989.58 231.719 L 5999.28 193.301 C 6000.14 189.961 5999.63 186.492 5997.86 183.52 C 5996.09 180.539 5993.26 178.441 5989.9 177.59 L 5945.3 166.332 C 5944.26 166.07 5943.18 165.93 5942.11 165.93"/>
    <path id="path338" style="fill:#72716d;fill-opacity:1;fill-rule:nonzero;stroke:none" d="M 5969.19 267.5 C 5964.33 254.09 5949.5 247.18 5936.08 252.07 L 5897.36 266.172 C 5883.97 271.039 5877.05 285.871 5881.91 299.281 L 5886.45 311.68 C 5891.31 325.059 5906.15 331.98 5919.54 327.09 L 5958.24 313.02 C 5971.66 308.129 5978.6 293.289 5973.68 279.879 L 5969.19 267.5"/>
    <path id="path340" style="fill:#000000;fill-opacity:1;fill-rule:nonzero;stroke:none" d="M 5910.71 326.16 C 5900.94 326.16 5892.13 320 5888.8 310.832 L 5884.26 298.422 C 5879.87 286.332 5886.13 272.91 5898.22 268.52 L 5936.94 254.43 C 5939.53 253.48 5942.22 253 5944.94 253 C 5954.71 253 5963.51 259.172 5966.84 268.352 L 5971.33 280.73 C 5973.48 286.582 5973.21 292.898 5970.6 298.551 C 5967.96 304.219 5963.27 308.531 5957.38 310.672 L 5918.69 324.738 C 5916.11 325.691 5913.43 326.16 5910.71 326.16 Z M 5944.94 248 C 5941.63 248 5938.37 248.582 5935.22 249.719 L 5896.5 263.809 C 5881.84 269.148 5874.24 285.441 5879.56 300.129 L 5884.1 312.539 C 5888.14 323.68 5898.84 331.16 5910.71 331.16 C 5914.01 331.16 5917.28 330.582 5920.4 329.449 L 5959.09 315.371 C 5966.24 312.77 5971.92 307.539 5975.13 300.66 C 5978.31 293.801 5978.63 286.121 5976.03 279.02 L 5971.54 266.648 C 5967.5 255.492 5956.81 248 5944.94 248"/>
    <path id="path342" style="fill:#59abe2;fill-opacity:1;fill-rule:nonzero;stroke:none" d="M 5963.91 292.75 C 5960.68 283.879 5950.88 279.332 5942.04 282.559 L 5916.47 291.859 C 5907.64 295.082 5903.06 304.898 5906.28 313.711 L 5909.28 321.922 C 5912.45 330.75 5922.28 335.309 5931.09 332.09 L 5956.68 322.789 C 5965.52 319.57 5970.1 309.789 5966.89 300.93 L 5963.91 292.75"/>
    <path id="path344" style="fill:#000000;fill-opacity:1;fill-rule:nonzero;stroke:none" d="M 5925.28 330.621 C 5919.17 330.621 5913.68 326.781 5911.63 321.07 L 5908.62 312.852 C 5907.29 309.219 5907.47 305.281 5909.12 301.742 C 5910.77 298.219 5913.68 295.539 5917.33 294.211 L 5942.89 284.922 C 5950.33 282.172 5958.9 286.281 5961.55 293.602 L 5964.55 301.789 C 5967.28 309.332 5963.36 317.699 5955.83 320.43 L 5930.23 329.738 C 5928.64 330.332 5926.97 330.621 5925.28 330.621 Z M 5947.89 279.02 C 5945.61 279.02 5943.35 279.43 5941.18 280.219 L 5915.63 289.512 C 5910.71 291.301 5906.8 294.898 5904.59 299.629 C 5902.37 304.371 5902.14 309.68 5903.94 314.57 L 5906.93 322.781 C 5909.69 330.449 5917.07 335.621 5925.28 335.621 C 5927.56 335.621 5929.8 335.23 5931.95 334.449 L 5957.54 325.141 C 5967.66 321.461 5972.91 310.219 5969.25 300.082 L 5966.25 291.891 C 5963.46 284.191 5956.07 279.02 5947.89 279.02"/>
    <path id="path346" style="fill:#0c3841;fill-opacity:1;fill-rule:nonzero;stroke:none" d="M 5722.57 31.352 L 5689.21 31.352 L 5689.21 117.359 L 5755.99 122.379 L 5722.57 31.352"/>
    <path id="path348" style="fill:#000000;fill-opacity:1;fill-rule:nonzero;stroke:none" d="M 5691.71 33.852 L 5720.82 33.852 L 5752.3 119.59 L 5691.71 115.039 L 5691.71 33.852 Z M 5722.57 28.852 L 5689.21 28.852 C 5687.83 28.852 5686.71 29.969 5686.71 31.352 L 5686.71 117.359 C 5686.71 118.672 5687.71 119.75 5689.02 119.852 L 5755.8 124.871 C 5756.58 125.012 5757.47 124.559 5757.98 123.879 C 5758.5 123.211 5758.62 122.309 5758.33 121.52 L 5724.91 30.492 C 5724.55 29.512 5723.61 28.852 5722.57 28.852"/>
    <path id="path350" style="fill:#59abe2;fill-opacity:1;fill-rule:nonzero;stroke:none" d="M 5680.42 75.531 L 5742.02 75.531 L 5755.99 122.379 L 5689.21 117.359 L 5680.42 75.531"/>
    <path id="path352" style="fill:#000000;fill-opacity:1;fill-rule:nonzero;stroke:none" d="M 5683.5 78.031 L 5740.16 78.031 L 5752.55 119.609 L 5691.27 115 L 5683.5 78.031 Z M 5742.02 73.031 L 5680.42 73.031 C 5679.67 73.031 5678.96 73.371 5678.48 73.961 C 5678.01 74.539 5677.82 75.309 5677.97 76.051 L 5686.76 117.871 C 5686.99 118.961 5687.91 119.77 5689.02 119.852 L 5755.8 124.871 C 5756.66 124.98 5757.42 124.57 5757.93 123.949 C 5758.45 123.301 5758.61 122.449 5758.38 121.66 L 5744.41 74.82 C 5744.1 73.75 5743.13 73.031 5742.02 73.031"/>
    <path id="path354" style="fill:#0c3841;fill-opacity:1;fill-rule:nonzero;stroke:none" d="M 5886.52 31.352 L 5919.91 31.352 L 5919.91 122.379 L 5853.15 122.379 L 5886.52 31.352"/>
    <path id="path356" style="fill:#000000;fill-opacity:1;fill-rule:nonzero;stroke:none" d="M 5888.27 33.852 L 5917.41 33.852 L 5917.41 119.879 L 5856.74 119.879 L 5888.27 33.852 Z M 5919.91 28.852 L 5886.52 28.852 C 5885.48 28.852 5884.54 29.512 5884.18 30.492 L 5850.81 121.52 C 5850.53 122.281 5850.63 123.141 5851.1 123.809 C 5851.57 124.48 5852.33 124.879 5853.15 124.879 L 5919.91 124.879 C 5921.29 124.879 5922.41 123.75 5922.41 122.379 L 5922.41 31.352 C 5922.41 29.969 5921.29 28.852 5919.91 28.852"/>
    <path id="path358" style="fill:#59abe2;fill-opacity:1;fill-rule:nonzero;stroke:none" d="M 5867.12 75.531 L 5928.7 75.531 L 5919.91 122.379 L 5853.15 122.379 L 5867.12 75.531"/>
    <path id="path360" style="fill:#000000;fill-opacity:1;fill-rule:nonzero;stroke:none" d="M 5868.98 78.031 L 5925.69 78.031 L 5917.84 119.879 L 5856.5 119.879 L 5868.98 78.031 Z M 5928.7 73.031 L 5867.12 73.031 C 5866.02 73.031 5865.04 73.75 5864.73 74.82 L 5850.76 121.66 C 5850.54 122.422 5850.67 123.242 5851.15 123.871 C 5851.62 124.512 5852.36 124.879 5853.15 124.879 L 5919.91 124.879 C 5921.11 124.879 5922.15 124.02 5922.37 122.84 L 5931.16 75.992 C 5931.3 75.262 5931.1 74.512 5930.63 73.941 C 5930.15 73.359 5929.44 73.031 5928.7 73.031"/>
    <path id="path362" style="fill:#59abe2;fill-opacity:1;fill-rule:nonzero;stroke:none" d="M 5688.99 314.82 C 5672.7 286.102 5663.02 251.07 5663.02 213.172 C 5663.02 175.281 5672.7 140.23 5688.99 111.512 C 5721.5 97.102 5761.1 88.559 5803.98 88.559 C 5846.89 88.559 5886.49 97.102 5918.99 111.512 C 5935.27 140.23 5944.95 175.262 5944.95 213.172 C 5944.95 251.07 5935.27 286.102 5918.97 314.832 C 5886.46 329.219 5846.87 337.781 5803.98 337.781 C 5761.13 337.781 5721.5 329.219 5688.99 314.82"/>
    <path id="path364" style="fill:#000000;fill-opacity:1;fill-rule:nonzero;stroke:none" d="M 5690.76 113.461 C 5724.17 98.801 5763.29 91.059 5803.98 91.059 C 5844.7 91.059 5883.83 98.801 5917.23 113.461 C 5933.73 142.879 5942.45 177.352 5942.45 213.172 C 5942.45 249 5933.72 283.449 5917.21 312.871 C 5883.78 327.531 5844.65 335.281 5803.98 335.281 C 5763.31 335.281 5724.18 327.531 5690.76 312.859 C 5674.25 283.449 5665.52 249 5665.52 213.172 C 5665.52 177.332 5674.25 142.871 5690.76 113.461 Z M 5803.98 86.059 C 5762.29 86.059 5722.18 94.07 5687.98 109.219 C 5687.49 109.441 5687.08 109.809 5686.82 110.281 C 5669.61 140.602 5660.52 176.18 5660.52 213.172 C 5660.52 250.148 5669.61 285.73 5686.82 316.051 C 5687.08 316.52 5687.49 316.891 5687.98 317.102 C 5722.2 332.262 5762.31 340.281 5803.98 340.281 C 5845.65 340.281 5885.76 332.27 5919.99 317.109 C 5920.48 316.898 5920.89 316.531 5921.15 316.059 C 5938.36 285.73 5947.45 250.148 5947.45 213.172 C 5947.45 176.18 5938.36 140.609 5921.17 110.281 C 5920.91 109.809 5920.5 109.441 5920.01 109.219 C 5885.82 94.07 5845.69 86.059 5803.98 86.059"/>
    <path id="path366" style="fill:#318bbc;fill-opacity:1;fill-rule:nonzero;stroke:none" d="M 5918.97 314.832 C 5886.46 329.219 5846.87 337.781 5803.98 337.781 C 5761.13 337.781 5721.5 329.219 5688.99 314.82 C 5687.35 311.941 5685.84 308.949 5684.35 305.941 C 5706.42 290.398 5732.53 280.219 5760.9 277.582 C 5762.67 262.121 5769.04 247.75 5781.2 238.582 C 5787.19 234.09 5808.22 253.941 5808.22 253.941 C 5808.22 253.941 5825.25 223.23 5835.26 222.012 C 5845.25 220.789 5862.29 246.648 5862.29 246.648 C 5862.29 246.648 5879.42 221.039 5889.3 222.379 C 5899.21 223.73 5916.35 254.691 5916.35 254.691 C 5916.35 254.691 5937.93 234.48 5943.36 238.582 C 5943.38 238.59 5943.39 238.621 5943.41 238.629 C 5940.13 266.719 5931.55 292.66 5918.97 314.832"/>
    <path id="path368" style="fill:#000000;fill-opacity:1;fill-rule:nonzero;stroke:none" d="M 5690.76 113.461 C 5724.17 98.801 5763.29 91.059 5803.98 91.059 C 5844.7 91.059 5883.83 98.801 5917.23 113.461 C 5933.73 142.879 5942.45 177.352 5942.45 213.172 C 5942.45 249 5933.72 283.449 5917.21 312.871 C 5883.78 327.531 5844.65 335.281 5803.98 335.281 C 5763.31 335.281 5724.18 327.531 5690.76 312.859 C 5674.25 283.449 5665.52 249 5665.52 213.172 C 5665.52 177.332 5674.25 142.871 5690.76 113.461 Z M 5803.98 86.059 C 5762.29 86.059 5722.18 94.07 5687.98 109.219 C 5687.49 109.441 5687.08 109.809 5686.82 110.281 C 5669.61 140.602 5660.52 176.18 5660.52 213.172 C 5660.52 250.148 5669.61 285.73 5686.82 316.051 C 5687.08 316.52 5687.49 316.891 5687.98 317.102 C 5722.2 332.262 5762.31 340.281 5803.98 340.281 C 5845.65 340.281 5885.76 332.27 5919.99 317.109 C 5920.48 316.898 5920.89 316.531 5921.15 316.059 C 5938.36 285.73 5947.45 250.148 5947.45 213.172 C 5947.45 176.18 5938.36 140.609 5921.17 110.281 C 5920.91 109.809 5920.5 109.441 5920.01 109.219 C 5885.82 94.07 5845.69 86.059 5803.98 86.059"/>
    <path id="path370" style="fill:#f4d9bd;fill-opacity:1;fill-rule:nonzero;stroke:none" d="M 6026.21 464.809 C 6026.21 376.871 5954.91 305.57 5866.99 305.57 L 5793.12 305.57 C 5705.17 305.57 5633.89 376.871 5633.89 464.809 L 5633.89 464.809 C 5633.89 552.742 5705.17 624.039 5793.12 624.039 L 5866.99 624.039 C 5954.91 624.039 6026.21 552.742 6026.21 464.809 L 6026.21 464.809"/>
    <path id="path372" style="fill:#000000;fill-opacity:1;fill-rule:nonzero;stroke:none" d="M 5793.12 621.539 C 5706.7 621.539 5636.39 551.219 5636.39 464.809 C 5636.39 378.379 5706.7 308.07 5793.12 308.07 L 5866.99 308.07 C 5953.41 308.07 6023.71 378.379 6023.71 464.809 C 6023.71 551.219 5953.41 621.539 5866.99 621.539 L 5793.12 621.539 Z M 5866.99 303.07 L 5793.12 303.07 C 5703.94 303.07 5631.39 375.629 5631.39 464.809 C 5631.39 553.992 5703.94 626.539 5793.12 626.539 L 5866.99 626.539 C 5956.16 626.539 6028.71 553.992 6028.71 464.809 C 6028.71 375.629 5956.16 303.07 5866.99 303.07"/>
    <path id="path374" style="fill:#bcc4cd;fill-opacity:1;fill-rule:nonzero;stroke:none" d="M 5837.34 452.762 L 5735.02 473.648 L 5735.02 502.09 L 5837.34 499.051 L 5837.34 452.762"/>
    <path id="path376" style="fill:#000000;fill-opacity:1;fill-rule:nonzero;stroke:none" d="M 5737.52 475.691 L 5834.84 455.82 L 5834.84 496.621 L 5737.52 499.52 L 5737.52 475.691 Z M 5837.34 450.262 C 5837.18 450.262 5837.01 450.281 5836.85 450.309 L 5734.52 471.191 C 5733.36 471.441 5732.52 472.449 5732.52 473.648 L 5732.52 502.09 C 5732.52 502.77 5732.79 503.41 5733.28 503.891 C 5733.77 504.359 5734.46 504.629 5735.1 504.59 L 5837.42 501.551 C 5838.77 501.512 5839.84 500.391 5839.84 499.051 L 5839.84 452.762 C 5839.84 452.012 5839.5 451.289 5838.93 450.82 C 5838.48 450.449 5837.91 450.262 5837.34 450.262"/>
    <path id="path378" style="fill:#bcc4cd;fill-opacity:1;fill-rule:nonzero;stroke:none" d="M 5933.47 452.762 L 6016.05 473.66 L 6016.05 502.191 L 5933.47 499.039 L 5933.47 452.762"/>
    <path id="path380" style="fill:#000000;fill-opacity:1;fill-rule:nonzero;stroke:none" d="M 5935.97 496.629 L 5935.97 455.969 L 6013.55 475.602 L 6013.55 499.59 L 5935.97 496.629 Z M 5933.47 450.262 C 5932.92 450.262 5932.37 450.441 5931.93 450.781 C 5931.32 451.262 5930.97 451.992 5930.97 452.762 L 5930.97 499.039 C 5930.97 500.379 5932.03 501.492 5933.37 501.539 L 6015.96 504.691 C 6016.66 504.77 6017.3 504.461 6017.79 503.992 C 6018.28 503.52 6018.55 502.871 6018.55 502.191 L 6018.55 473.66 C 6018.55 472.512 6017.77 471.52 6016.67 471.23 L 5934.08 450.34 C 5933.88 450.289 5933.67 450.262 5933.47 450.262"/>
    <path id="path382" style="fill:#bcc4cd;fill-opacity:1;fill-rule:nonzero;stroke:none" d="M 5859.16 632.18 L 5790.15 632.18 C 5747.1 632.18 5707.97 615.781 5678.3 589.082 C 5677.69 595.492 5677.26 601.98 5677.26 608.609 C 5677.26 628.84 5680.24 648.172 5685.53 666.238 C 5663.92 650.91 5650.72 630.781 5650.73 608.629 C 5650.72 598.641 5653.53 589.102 5658.45 580.18 C 5652.71 583.461 5646.66 585.262 5640.4 585.25 C 5623.27 585.262 5607.71 572.059 5595.84 550.449 C 5609.82 555.742 5624.78 558.719 5640.42 558.719 C 5644.07 558.719 5647.68 558.531 5651.24 558.219 C 5633.25 531.52 5622.73 499.371 5622.73 464.75 C 5622.73 429.23 5622.73 291.719 5622.73 291.719 L 5638.67 309.301 L 5654.59 291.719 L 5670.51 309.301 L 5686.42 291.719 L 5702.33 309.301 L 5718.24 291.719 C 5718.24 291.719 5718.24 425.602 5718.24 455.211 C 5718.24 500.801 5747 539.57 5787.31 554.719 L 5858.24 537.98 L 5839.88 561.602 L 5908 537.98 L 5892.45 561.602 L 5957.75 537.98 L 5945.02 561.602 L 6007.51 537.98 C 6007.51 537.98 5982.58 631.352 5859.16 632.18"/>
    <path id="path384" style="fill:#000000;fill-opacity:1;fill-rule:nonzero;stroke:none" d="M 5638.67 311.801 L 5638.67 311.801 C 5639.38 311.801 5640.05 311.5 5640.53 310.98 L 5654.59 295.441 L 5668.65 310.98 C 5669.13 311.5 5669.8 311.801 5670.51 311.801 L 5670.51 311.801 C 5671.21 311.801 5671.88 311.5 5672.36 310.98 L 5686.42 295.441 L 5700.48 310.98 C 5700.96 311.5 5701.63 311.801 5702.33 311.801 L 5702.33 311.801 C 5703.04 311.801 5703.71 311.5 5704.19 310.98 L 5715.74 298.211 L 5715.74 455.211 C 5715.74 500.242 5744.15 541.18 5786.44 557.059 C 5786.89 557.238 5787.39 557.281 5787.89 557.148 L 5851.91 542.039 L 5837.91 560.059 C 5837.23 560.93 5837.21 562.148 5837.85 563.051 C 5838.51 563.949 5839.65 564.289 5840.7 563.961 L 5901.87 542.762 L 5890.36 560.219 C 5889.78 561.121 5889.82 562.301 5890.49 563.148 C 5891.16 563.992 5892.29 564.301 5893.3 563.949 L 5952.44 542.559 L 5942.82 560.398 C 5942.32 561.332 5942.45 562.449 5943.13 563.25 C 5943.82 564.02 5944.93 564.34 5945.9 563.93 L 6003.42 542.199 C 5996.14 561.16 5962.85 628.992 5859.14 629.68 L 5790.15 629.68 C 5749.52 629.68 5710.39 614.602 5679.97 587.219 C 5679.26 586.602 5678.26 586.43 5677.39 586.742 C 5676.51 587.082 5675.9 587.891 5675.81 588.84 C 5675.09 596.352 5674.76 602.629 5674.76 608.609 C 5674.76 625.852 5676.91 643.039 5681.18 659.809 C 5663.09 645.102 5653.22 627.129 5653.23 608.629 C 5653.22 599.469 5655.71 590.309 5660.63 581.391 C 5661.18 580.398 5661 579.18 5660.21 578.398 C 5659.4 577.602 5658.18 577.441 5657.21 578.012 C 5637.9 589.031 5617.2 580.121 5601.45 555.051 C 5614.21 559.148 5627.29 561.219 5640.42 561.219 C 5643.88 561.219 5647.49 561.059 5651.46 560.711 C 5652.34 560.629 5653.12 560.09 5653.5 559.289 C 5653.88 558.488 5653.81 557.551 5653.31 556.82 C 5634.94 529.551 5625.23 497.719 5625.23 464.75 L 5625.23 298.199 L 5636.82 310.98 C 5637.29 311.5 5637.97 311.801 5638.67 311.801 Z M 5622.73 289.219 C 5622.43 289.219 5622.13 289.281 5621.84 289.391 C 5620.87 289.762 5620.23 290.691 5620.23 291.719 L 5620.23 464.75 C 5620.23 497.281 5629.41 528.75 5646.82 556.031 C 5644.59 556.172 5642.48 556.219 5640.42 556.219 C 5625.67 556.219 5610.97 553.5 5596.72 548.121 C 5595.75 547.711 5594.64 548.02 5593.96 548.809 C 5593.26 549.602 5593.14 550.742 5593.65 551.648 C 5606.43 574.93 5623.03 587.75 5640.38 587.75 C 5644.67 587.75 5648.93 586.98 5653.11 585.43 C 5649.86 593.059 5648.22 600.832 5648.23 608.629 C 5648.22 630.691 5660.96 651.879 5684.08 668.281 C 5684.94 668.891 5686.1 668.898 5686.98 668.27 C 5687.84 667.66 5688.22 666.57 5687.93 665.539 C 5682.51 647 5679.76 627.84 5679.76 608.609 C 5679.76 604.129 5679.95 599.469 5680.36 594.199 C 5711.13 620.34 5749.92 634.68 5790.15 634.68 L 5859.16 634.68 C 5983.07 633.852 6009.67 539.582 6009.92 538.629 C 6010.17 537.719 6009.88 536.762 6009.19 536.129 C 6008.49 535.5 6007.49 535.301 6006.63 535.648 L 5950.4 556.891 L 5959.64 539.762 C 5960.1 539.309 5960.38 538.68 5960.38 537.98 C 5960.38 536.602 5959.26 535.48 5957.88 535.48 C 5957.82 535.492 5957.78 535.48 5957.75 535.48 C 5957.47 535.48 5957.18 535.531 5956.9 535.629 L 5898.68 556.68 L 5909.73 539.898 C 5910.27 539.441 5910.63 538.75 5910.63 537.98 C 5910.63 536.602 5909.5 535.48 5908.13 535.48 C 5908.07 535.492 5908.03 535.48 5908 535.48 C 5907.72 535.48 5907.45 535.531 5907.18 535.621 L 5847.03 556.469 L 5859.83 540 C 5860.46 539.551 5860.87 538.809 5860.87 537.98 C 5860.87 536.602 5859.75 535.48 5858.37 535.48 C 5858.33 535.48 5858.28 535.48 5858.24 535.48 C 5858.06 535.48 5857.86 535.5 5857.67 535.551 L 5787.49 552.109 C 5747.53 536.762 5720.74 497.922 5720.74 455.211 L 5720.74 291.719 C 5720.74 290.691 5720.11 289.762 5719.14 289.391 C 5718.17 289.031 5717.09 289.281 5716.39 290.039 L 5702.33 305.582 L 5688.27 290.039 C 5687.79 289.52 5687.12 289.219 5686.42 289.219 L 5686.42 289.219 C 5685.71 289.219 5685.04 289.52 5684.56 290.039 L 5670.51 305.582 L 5656.45 290.039 C 5655.49 289.012 5653.69 289.012 5652.73 290.039 L 5638.67 305.582 L 5624.59 290.039 C 5624.1 289.512 5623.43 289.219 5622.73 289.219"/>
    <path id="path386" style="fill:#bcc4cd;fill-opacity:1;fill-rule:nonzero;stroke:none" d="M 5974.52 349.109 C 5964.04 372.75 5917 390.039 5879.61 390.039 C 5842.22 390.039 5795.18 372.75 5784.7 349.109 C 5772.75 322.211 5775.02 285.039 5798.53 267.32 C 5804.51 262.832 5825.55 282.68 5825.55 282.68 C 5825.55 282.68 5842.58 251.969 5852.59 250.75 C 5862.58 249.531 5879.61 275.391 5879.61 275.391 C 5879.61 275.391 5896.75 249.781 5906.62 251.121 C 5916.53 252.469 5933.67 283.43 5933.67 283.43 C 5933.67 283.43 5955.25 263.219 5960.68 267.32 C 5984.19 285.039 5986.46 322.211 5974.52 349.109"/>
    <path id="path388" style="fill:#000000;fill-opacity:1;fill-rule:nonzero;stroke:none" d="M 5825.55 285.18 C 5825.67 285.18 5825.8 285.172 5825.93 285.148 C 5826.69 285.031 5827.36 284.559 5827.73 283.891 C 5834.08 272.441 5846.52 254.012 5852.89 253.23 L 5853.28 253.211 C 5859.64 253.211 5871.52 267.66 5877.52 276.77 C 5877.98 277.461 5878.76 277.891 5879.6 277.891 L 5879.61 277.891 C 5880.44 277.891 5881.22 277.469 5881.69 276.781 C 5887.7 267.809 5899.57 253.57 5905.85 253.57 C 5912.6 254.461 5925.09 273.102 5931.48 284.641 C 5931.86 285.32 5932.52 285.781 5933.28 285.898 C 5934.05 286 5934.82 285.781 5935.38 285.262 C 5942.47 278.621 5954.42 269.27 5958.8 269.27 C 5981.7 286.289 5983.5 322.711 5972.24 348.102 C 5961.93 371.34 5915.15 387.539 5879.61 387.539 C 5844.07 387.539 5797.29 371.34 5786.98 348.102 C 5775.71 322.711 5777.51 286.289 5800.03 269.309 C 5800.17 269.211 5800.43 269.148 5800.78 269.148 C 5805.73 269.148 5817.55 278.57 5823.83 284.5 C 5824.3 284.93 5824.91 285.18 5825.55 285.18 Z M 5853.28 248.211 C 5852.95 248.211 5852.62 248.23 5852.29 248.27 C 5842.84 249.422 5829.89 270.148 5824.92 278.719 C 5819.74 274.102 5807.73 264.148 5800.78 264.148 C 5799.32 264.148 5798.06 264.539 5797.02 265.32 C 5771.59 284.5 5770.52 323.32 5782.41 350.129 C 5793.5 375.121 5842.53 392.539 5879.61 392.539 C 5916.69 392.539 5965.72 375.121 5976.81 350.129 C 5988.69 323.32 5987.62 284.5 5962.19 265.332 C 5961.26 264.621 5960.13 264.27 5958.8 264.27 L 5958.8 264.27 C 5952.13 264.27 5939.85 274.512 5934.3 279.48 C 5929.31 270.84 5916.31 249.922 5906.96 248.641 C 5897.77 247.371 5884.8 263.801 5879.63 271 C 5874.67 264.012 5862.44 248.211 5853.28 248.211"/>
    <path id="path390" style="fill:#f2f1e7;fill-opacity:1;fill-rule:nonzero;stroke:none" d="M 5858.25 327.832 C 5872.61 327.832 5884.21 339.461 5884.21 353.789 L 5832.48 353.789 C 5832.48 339.461 5844.03 327.832 5858.25 327.832"/>
    <path id="path392" style="fill:#000000;fill-opacity:1;fill-rule:nonzero;stroke:none" d="M 5835.11 351.289 C 5836.36 339.52 5846.26 330.332 5858.25 330.332 C 5870.34 330.332 5880.32 339.52 5881.57 351.289 L 5835.11 351.289 Z M 5858.25 325.332 C 5842.67 325.332 5829.98 338.102 5829.98 353.789 C 5829.98 355.172 5831.1 356.289 5832.48 356.289 L 5884.21 356.289 C 5885.59 356.289 5886.71 355.172 5886.71 353.789 C 5886.71 338.102 5873.95 325.332 5858.25 325.332"/>
    <path id="path394" style="fill:#2a5b6a;fill-opacity:1;fill-rule:nonzero;stroke:none" d="M 5786.93 451.32 C 5772.61 451.32 5761.01 439.68 5761.01 425.352 L 5812.72 425.352 C 5812.72 439.68 5801.18 451.32 5786.93 451.32"/>
    <path id="path396" style="fill:#000000;fill-opacity:1;fill-rule:nonzero;stroke:none" d="M 5763.64 427.852 L 5810.1 427.852 C 5808.85 439.621 5798.94 448.82 5786.93 448.82 C 5774.85 448.82 5764.88 439.621 5763.64 427.852 Z M 5812.72 422.852 L 5761.01 422.852 C 5759.63 422.852 5758.51 423.98 5758.51 425.352 C 5758.51 441.051 5771.26 453.82 5786.93 453.82 C 5802.53 453.82 5815.22 441.051 5815.22 425.352 C 5815.22 423.98 5814.1 422.852 5812.72 422.852"/>
    <path id="path398" style="fill:#2a5b6a;fill-opacity:1;fill-rule:nonzero;stroke:none" d="M 5965.7 451.32 C 5951.32 451.32 5939.8 439.68 5939.8 425.352 L 5991.52 425.352 C 5991.52 439.68 5979.92 451.32 5965.7 451.32"/>
    <path id="path400" style="fill:#000000;fill-opacity:1;fill-rule:nonzero;stroke:none" d="M 5942.43 427.852 L 5988.9 427.852 C 5987.65 439.621 5977.72 448.82 5965.7 448.82 C 5953.64 448.82 5943.68 439.621 5942.43 427.852 Z M 5991.52 422.852 L 5939.8 422.852 C 5938.43 422.852 5937.3 423.98 5937.3 425.352 C 5937.3 441.051 5950.05 453.82 5965.7 453.82 C 5981.32 453.82 5994.02 441.051 5994.02 425.352 C 5994.02 423.98 5992.9 422.852 5991.52 422.852"/>
    <path id="path402" style="fill:#2a5b6a;fill-opacity:1;fill-rule:nonzero;stroke:none" d="M 5779.57 431.852 C 5779.57 428.25 5776.69 425.34 5773.08 425.34 L 5742.21 425.34 C 5738.62 425.34 5735.73 428.25 5735.73 431.852 L 5735.73 431.852 C 5735.73 435.398 5738.62 438.32 5742.21 438.32 L 5773.08 438.32 C 5776.69 438.32 5779.57 435.398 5779.57 431.852 L 5779.57 431.852"/>
    <path id="path404" style="fill:#000000;fill-opacity:1;fill-rule:nonzero;stroke:none" d="M 5742.21 435.82 C 5740.02 435.82 5738.23 434.039 5738.23 431.852 C 5738.23 429.629 5740.02 427.84 5742.21 427.84 L 5773.08 427.84 C 5775.31 427.84 5777.07 429.602 5777.07 431.852 C 5777.07 434.039 5775.28 435.82 5773.08 435.82 L 5742.21 435.82 Z M 5773.08 422.84 L 5742.21 422.84 C 5737.26 422.84 5733.23 426.879 5733.23 431.852 C 5733.23 436.801 5737.26 440.82 5742.21 440.82 L 5773.08 440.82 C 5778.04 440.82 5782.07 436.801 5782.07 431.852 C 5782.07 426.879 5778.04 422.84 5773.08 422.84"/>
    <path id="path406" style="fill:#2a5b6a;fill-opacity:1;fill-rule:nonzero;stroke:none" d="M 6018.36 431.852 C 6018.36 428.25 6015.42 425.34 6011.88 425.34 L 5981 425.34 C 5977.4 425.34 5974.49 428.25 5974.49 431.852 L 5974.49 431.852 C 5974.49 435.398 5977.4 438.32 5981 438.32 L 6011.88 438.32 C 6015.42 438.32 6018.36 435.398 6018.36 431.852 L 6018.36 431.852"/>
    <path id="path408" style="fill:#000000;fill-opacity:1;fill-rule:nonzero;stroke:none" d="M 5981 435.82 C 5978.79 435.82 5976.99 434.039 5976.99 431.852 C 5976.99 429.629 5978.79 427.84 5981 427.84 L 6011.88 427.84 C 6014.07 427.84 6015.86 429.629 6015.86 431.852 C 6015.86 434.012 6014.04 435.82 6011.88 435.82 L 5981 435.82 Z M 6011.88 422.84 L 5981 422.84 C 5976.04 422.84 5971.99 426.879 5971.99 431.852 C 5971.99 436.801 5976.04 440.82 5981 440.82 L 6011.88 440.82 C 6016.84 440.82 6020.86 436.801 6020.86 431.852 C 6020.86 426.879 6016.84 422.84 6011.88 422.84"/>
    <path id="path410" style="fill:#7f5e2f;fill-opacity:1;fill-rule:nonzero;stroke:none" d="M 5935.18 450.379 C 5935.18 441.949 5928.36 435.148 5919.96 435.148 L 5838.6 435.148 C 5830.18 435.148 5823.37 441.949 5823.37 450.379 L 5823.37 450.379 C 5823.37 458.781 5830.18 465.59 5838.6 465.59 L 5919.96 465.59 C 5928.36 465.59 5935.18 458.781 5935.18 450.379 L 5935.18 450.379"/>
    <path id="path412" style="fill:#000000;fill-opacity:1;fill-rule:nonzero;stroke:none" d="M 5838.6 463.09 C 5831.58 463.09 5825.87 457.391 5825.87 450.379 C 5825.87 443.359 5831.58 437.648 5838.6 437.648 L 5919.96 437.648 C 5926.97 437.648 5932.68 443.359 5932.68 450.379 C 5932.68 457.391 5926.97 463.09 5919.96 463.09 L 5838.6 463.09 Z M 5919.96 432.648 L 5838.6 432.648 C 5828.83 432.648 5820.87 440.609 5820.87 450.379 C 5820.87 460.148 5828.83 468.09 5838.6 468.09 L 5919.96 468.09 C 5929.73 468.09 5937.68 460.148 5937.68 450.379 C 5937.68 440.609 5929.73 432.648 5919.96 432.648"/>
    <path id="path414" style="fill:#7f5e2f;fill-opacity:1;fill-rule:nonzero;stroke:none" d="M 5621.59 416.898 L 5747.012 416.898 L 5747.012 457.379 L 5621.59 457.379 L 5621.59 416.898 Z"/>
    <path id="path416" style="fill:#000000;fill-opacity:1;fill-rule:nonzero;stroke:none" d="M 5624.09 419.398 L 5744.51 419.398 L 5744.51 454.879 L 5624.09 454.879 L 5624.09 419.398 Z M 5747.01 414.398 L 5621.59 414.398 C 5620.21 414.398 5619.09 415.52 5619.09 416.898 L 5619.09 457.379 C 5619.09 458.75 5620.21 459.879 5621.59 459.879 L 5747.01 459.879 C 5748.39 459.879 5749.51 458.75 5749.51 457.379 L 5749.51 416.898 C 5749.51 415.52 5748.39 414.398 5747.01 414.398"/>
    <path id="path418" style="fill:#a47a3c;fill-opacity:1;fill-rule:nonzero;stroke:none" d="M 5854.31 431.852 C 5854.31 399.07 5827.76 372.539 5795.02 372.539 C 5762.29 372.539 5735.73 399.07 5735.73 431.852 C 5735.73 464.59 5762.29 491.148 5795.02 491.148 C 5827.76 491.148 5854.31 464.59 5854.31 431.852"/>
    <path id="path420" style="fill:#000000;fill-opacity:1;fill-rule:nonzero;stroke:none" d="M 5795.02 488.648 C 5763.71 488.648 5738.23 463.172 5738.23 431.852 C 5738.23 400.52 5763.71 375.039 5795.02 375.039 C 5826.33 375.039 5851.81 400.52 5851.81 431.852 C 5851.81 463.172 5826.33 488.648 5795.02 488.648 Z M 5795.02 370.039 C 5760.95 370.039 5733.23 397.77 5733.23 431.852 C 5733.23 465.922 5760.95 493.648 5795.02 493.648 C 5829.09 493.648 5856.81 465.922 5856.81 431.852 C 5856.81 397.77 5829.09 370.039 5795.02 370.039"/>
    <path id="path422" style="fill:#cda465;fill-opacity:1;fill-rule:nonzero;stroke:none" d="M 5854.31 431.832 C 5854.31 405.602 5833.06 384.379 5806.85 384.379 C 5780.67 384.379 5759.42 405.602 5759.42 431.832 C 5759.42 458.02 5780.67 479.281 5806.85 479.281 C 5833.06 479.281 5854.31 458.02 5854.31 431.832"/>
    <path id="path424" style="fill:#000000;fill-opacity:1;fill-rule:nonzero;stroke:none" d="M 5806.85 476.781 C 5782.08 476.781 5761.92 456.609 5761.92 431.832 C 5761.92 407.039 5782.08 386.879 5806.85 386.879 C 5831.64 386.879 5851.81 407.039 5851.81 431.832 C 5851.81 456.609 5831.64 476.781 5806.85 476.781 Z M 5806.85 381.879 C 5779.32 381.879 5756.92 404.289 5756.92 431.832 C 5756.92 459.371 5779.32 481.781 5806.85 481.781 C 5834.39 481.781 5856.81 459.371 5856.81 431.832 C 5856.81 404.289 5834.39 381.879 5806.85 381.879"/>
    <path id="path426" style="fill:#5ae8ff;fill-opacity:1;fill-rule:nonzero;stroke:none" d="M 5835.74 432.551 C 5835.74 416.75 5822.95 404.012 5807.19 404.012 C 5791.41 404.012 5778.61 416.75 5778.61 432.551 C 5778.61 448.32 5791.41 461.141 5807.19 461.141 C 5822.95 461.141 5835.74 448.32 5835.74 432.551"/>
    <path id="path428" style="fill:#000000;fill-opacity:1;fill-rule:nonzero;stroke:none" d="M 5807.19 458.641 C 5792.81 458.641 5781.11 446.941 5781.11 432.551 C 5781.11 418.191 5792.81 406.512 5807.19 406.512 C 5821.55 406.512 5833.24 418.191 5833.24 432.551 C 5833.24 446.941 5821.55 458.641 5807.19 458.641 Z M 5807.19 401.512 C 5790.05 401.512 5776.11 415.43 5776.11 432.551 C 5776.11 449.691 5790.05 463.641 5807.19 463.641 C 5824.31 463.641 5838.24 449.691 5838.24 432.551 C 5838.24 415.43 5824.31 401.512 5807.19 401.512"/>
    <path id="path430" style="fill:#ffffff;fill-opacity:1;fill-rule:nonzero;stroke:none" d="M 5806.02 451.992 C 5806.02 444.102 5799.62 437.73 5791.74 437.73 C 5783.87 437.73 5777.44 444.102 5777.44 451.992 C 5777.44 459.898 5783.87 466.289 5791.74 466.289 C 5799.62 466.289 5806.02 459.898 5806.02 451.992"/>
    <path id="path432" style="fill:#000000;fill-opacity:1;fill-rule:nonzero;stroke:none" d="M 5791.74 463.789 C 5785.23 463.789 5779.94 458.5 5779.94 451.992 C 5779.94 445.5 5785.23 440.23 5791.74 440.23 C 5798.23 440.23 5803.52 445.5 5803.52 451.992 C 5803.52 458.5 5798.23 463.789 5791.74 463.789 Z M 5791.74 435.23 C 5782.48 435.23 5774.94 442.75 5774.94 451.992 C 5774.94 461.25 5782.48 468.789 5791.74 468.789 C 5800.99 468.789 5808.52 461.25 5808.52 451.992 C 5808.52 442.75 5800.99 435.23 5791.74 435.23"/>
    <path id="path434" style="fill:#a47a3c;fill-opacity:1;fill-rule:nonzero;stroke:none" d="M 6026.45 431.891 C 6026.45 399.102 5999.89 372.59 5967.13 372.59 C 5934.42 372.59 5907.87 399.102 5907.87 431.891 C 5907.87 464.621 5934.42 491.18 5967.13 491.18 C 5999.89 491.18 6026.45 464.621 6026.45 431.891"/>
    <path id="path436" style="fill:#000000;fill-opacity:1;fill-rule:nonzero;stroke:none" d="M 5967.13 488.68 C 5935.83 488.68 5910.37 463.211 5910.37 431.891 C 5910.37 400.57 5935.83 375.09 5967.13 375.09 C 5998.46 375.09 6023.95 400.57 6023.95 431.891 C 6023.95 463.211 5998.46 488.68 5967.13 488.68 Z M 5967.13 370.09 C 5933.08 370.09 5905.37 397.82 5905.37 431.891 C 5905.37 465.961 5933.08 493.68 5967.13 493.68 C 6001.21 493.68 6028.95 465.961 6028.95 431.891 C 6028.95 397.82 6001.21 370.09 5967.13 370.09"/>
    <path id="path438" style="fill:#ffa364;fill-opacity:1;fill-rule:nonzero;stroke:none" d="M 5916.13 402.43 L 5916.5 404.031 C 5916.5 427.082 5897.84 445.762 5874.79 445.762 L 5874.79 415.711 C 5860.01 415.711 5848.05 403.73 5848.05 388.98 C 5848.05 374.23 5860.01 362.27 5874.79 362.27 L 5906.5 362.27 C 5918.26 362.27 5927.79 371.789 5927.79 383.551 C 5927.79 391.82 5923.03 398.91 5916.13 402.43"/>
    <path id="path440" style="fill:#000000;fill-opacity:1;fill-rule:nonzero;stroke:none" d="M 5877.29 443.18 L 5877.29 415.711 C 5877.29 414.332 5876.16 413.211 5874.79 413.211 C 5861.42 413.211 5850.55 402.34 5850.55 388.98 C 5850.55 375.629 5861.42 364.77 5874.79 364.77 L 5906.5 364.77 C 5916.87 364.77 5925.29 373.199 5925.29 383.551 C 5925.29 390.582 5921.35 396.961 5914.99 400.211 C 5913.97 400.742 5913.44 401.891 5913.7 403 L 5914.07 404.59 C 5914 424.84 5897.75 441.891 5877.29 443.18 Z M 5906.5 359.77 L 5874.79 359.77 C 5858.66 359.77 5845.55 372.871 5845.55 388.98 C 5845.55 404.25 5857.33 416.832 5872.29 418.102 L 5872.29 445.762 C 5872.29 447.129 5873.41 448.262 5874.79 448.262 C 5899.17 448.262 5919 428.41 5919 404.031 L 5918.95 403.719 C 5925.99 399.398 5930.29 391.832 5930.29 383.551 C 5930.29 370.43 5919.62 359.77 5906.5 359.77"/>
    <path id="path442" style="fill:#f4d9bd;fill-opacity:1;fill-rule:nonzero;stroke:none" d="M 5917.15 382.84 C 5917.15 376.359 5911.89 371.109 5905.41 371.109 C 5898.94 371.109 5893.68 376.359 5893.68 382.84 C 5893.68 389.32 5898.94 394.57 5905.41 394.57 C 5911.89 394.57 5917.15 389.32 5917.15 382.84"/>
    <path id="path444" style="fill:#cda465;fill-opacity:1;fill-rule:nonzero;stroke:none" d="M 6026.45 431.891 C 6026.45 405.66 6005.2 384.441 5978.98 384.441 C 5952.81 384.441 5931.56 405.66 5931.56 431.891 C 5931.56 458.082 5952.81 479.34 5978.98 479.34 C 6005.2 479.34 6026.45 458.082 6026.45 431.891"/>
    <path id="path446" style="fill:#000000;fill-opacity:1;fill-rule:nonzero;stroke:none" d="M 5978.98 476.84 C 5954.22 476.84 5934.06 456.672 5934.06 431.891 C 5934.06 407.102 5954.22 386.941 5978.98 386.941 C 6003.78 386.941 6023.95 407.102 6023.95 431.891 C 6023.95 456.672 6003.78 476.84 5978.98 476.84 Z M 5978.98 381.941 C 5951.46 381.941 5929.06 404.352 5929.06 431.891 C 5929.06 459.43 5951.46 481.84 5978.98 481.84 C 6006.53 481.84 6028.95 459.43 6028.95 431.891 C 6028.95 404.352 6006.53 381.941 5978.98 381.941"/>
    <path id="path448" style="fill:#5ae8ff;fill-opacity:1;fill-rule:nonzero;stroke:none" d="M 6007.88 432.559 C 6007.88 416.781 5995.11 404.039 5979.3 404.039 C 5963.54 404.039 5950.72 416.781 5950.72 432.559 C 5950.72 448.359 5963.54 461.16 5979.3 461.16 C 5995.11 461.16 6007.88 448.359 6007.88 432.559"/>
    <path id="path450" style="fill:#000000;fill-opacity:1;fill-rule:nonzero;stroke:none" d="M 5979.3 458.66 C 5964.92 458.66 5953.22 446.949 5953.22 432.559 C 5953.22 418.219 5964.92 406.539 5979.3 406.539 C 5993.68 406.539 6005.38 418.219 6005.38 432.559 C 6005.38 446.949 5993.68 458.66 5979.3 458.66 Z M 5979.3 401.539 C 5962.16 401.539 5948.22 415.449 5948.22 432.559 C 5948.22 449.711 5962.16 463.66 5979.3 463.66 C 5996.44 463.66 6010.38 449.711 6010.38 432.559 C 6010.38 415.449 5996.44 401.539 5979.3 401.539"/>
    <path id="path452" style="fill:#ffffff;fill-opacity:1;fill-rule:nonzero;stroke:none" d="M 5977.59 451.992 C 5977.59 444.102 5971.18 437.73 5963.28 437.73 C 5955.4 437.73 5949 444.102 5949 451.992 C 5949 459.898 5955.4 466.289 5963.28 466.289 C 5971.18 466.289 5977.59 459.898 5977.59 451.992"/>
    <path id="path454" style="fill:#000000;fill-opacity:1;fill-rule:nonzero;stroke:none" d="M 5963.28 463.789 C 5956.79 463.789 5951.5 458.5 5951.5 451.992 C 5951.5 445.5 5956.79 440.23 5963.28 440.23 C 5969.79 440.23 5975.09 445.5 5975.09 451.992 C 5975.09 458.5 5969.79 463.789 5963.28 463.789 Z M 5963.28 435.23 C 5954.03 435.23 5946.5 442.75 5946.5 451.992 C 5946.5 461.25 5954.03 468.789 5963.28 468.789 C 5972.55 468.789 5980.09 461.25 5980.09 451.992 C 5980.09 442.75 5972.55 435.23 5963.28 435.23"/>
    <path id="path456" style="fill:#425059;fill-opacity:1;fill-rule:nonzero;stroke:none" d="M 5982.58 411.879 C 5982.58 410.09 5981.12 408.629 5979.3 408.629 L 5979.3 408.629 C 5977.51 408.629 5976.07 410.09 5976.07 411.879 L 5976.07 453.309 C 5976.07 455.121 5977.51 456.57 5979.3 456.57 L 5979.3 456.57 C 5981.12 456.57 5982.58 455.121 5982.58 453.309 L 5982.58 411.879"/>
    <path id="path458" style="fill:#000000;fill-opacity:1;fill-rule:nonzero;stroke:none" d="M 5979.3 454.07 C 5978.89 454.07 5978.57 453.73 5978.57 453.309 L 5978.57 411.879 C 5978.58 411.02 5980.08 411.082 5980.08 411.879 L 5980.08 453.309 C 5980.08 453.738 5979.75 454.07 5979.3 454.07 Z M 5979.3 406.129 C 5976.14 406.129 5973.57 408.699 5973.57 411.879 L 5973.57 453.309 C 5973.57 456.492 5976.14 459.07 5979.3 459.07 C 5982.48 459.07 5985.08 456.492 5985.08 453.309 L 5985.08 411.879 C 5985.08 408.699 5982.48 406.129 5979.3 406.129"/>
    <path id="path460" style="fill:#425059;fill-opacity:1;fill-rule:nonzero;stroke:none" d="M 5958.6 429.32 C 5956.78 429.32 5955.35 430.789 5955.35 432.59 L 5955.35 432.59 C 5955.35 434.398 5956.78 435.859 5958.6 435.852 L 6000.03 435.852 C 6001.85 435.852 6003.3 434.398 6003.3 432.602 L 6003.3 432.602 C 6003.3 430.789 6001.85 429.34 6000.03 429.32 L 5958.6 429.32"/>
    <path id="path462" style="fill:#000000;fill-opacity:1;fill-rule:nonzero;stroke:none" d="M 5958.6 433.352 C 5958.16 433.352 5957.85 433.02 5957.85 432.59 C 5957.85 432.148 5958.17 431.82 5958.6 431.82 L 6000.01 431.82 C 6000.45 431.832 6000.8 432.172 6000.8 432.602 C 6000.8 433.02 6000.46 433.352 6000.03 433.352 L 5958.6 433.352 Z M 6000.03 426.82 L 5958.6 426.82 C 5955.43 426.82 5952.85 429.41 5952.85 432.59 C 5952.85 435.77 5955.42 438.352 5958.58 438.352 L 6000.03 438.352 C 6003.21 438.352 6005.8 435.77 6005.8 432.602 C 6005.8 429.449 6003.22 426.859 6000.06 426.82 C 6000.05 426.82 6000.04 426.82 6000.03 426.82"/>
    <path id="path464" style="fill:#cda465;fill-opacity:1;fill-rule:nonzero;stroke:none" d="M 5762.94 490.48 C 5762.94 471 5747.16 455.242 5727.71 455.242 C 5708.25 455.242 5692.47 471 5692.47 490.48 C 5692.47 509.93 5708.25 525.719 5727.71 525.719 C 5747.16 525.719 5762.94 509.93 5762.94 490.48"/>
    <path id="path466" style="fill:#000000;fill-opacity:1;fill-rule:nonzero;stroke:none" d="M 5727.71 523.219 C 5709.66 523.219 5694.97 508.531 5694.97 490.48 C 5694.97 472.43 5709.66 457.742 5727.71 457.742 C 5745.75 457.742 5760.44 472.43 5760.44 490.48 C 5760.44 508.531 5745.75 523.219 5727.71 523.219 Z M 5727.71 452.742 C 5706.89 452.742 5689.97 469.672 5689.97 490.48 C 5689.97 511.289 5706.89 528.219 5727.71 528.219 C 5748.52 528.219 5765.44 511.289 5765.44 490.48 C 5765.44 469.672 5748.52 452.742 5727.71 452.742"/>
    <path id="path468" style="fill:#59abe2;fill-opacity:1;fill-rule:nonzero;stroke:none" d="M 5754.68 490.48 C 5754.68 481.09 5747.07 473.52 5737.71 473.52 C 5728.33 473.52 5720.72 481.09 5720.72 490.48 C 5720.72 499.852 5728.33 507.461 5737.71 507.461 C 5747.07 507.461 5754.68 499.852 5754.68 490.48"/>
    <path id="path470" style="fill:#000000;fill-opacity:1;fill-rule:nonzero;stroke:none" d="M 5737.71 504.961 C 5729.72 504.961 5723.22 498.469 5723.22 490.48 C 5723.22 482.5 5729.72 476.02 5737.71 476.02 C 5745.68 476.02 5752.18 482.5 5752.18 490.48 C 5752.18 498.469 5745.68 504.961 5737.71 504.961 Z M 5737.71 471.02 C 5726.96 471.02 5718.22 479.75 5718.22 490.48 C 5718.22 501.219 5726.96 509.961 5737.71 509.961 C 5748.44 509.961 5757.18 501.219 5757.18 490.48 C 5757.18 479.75 5748.44 471.02 5737.71 471.02"/>
    <path id="path472" style="fill:#ffffff;fill-opacity:1;fill-rule:nonzero;stroke:none" d="M 5737.01 502.02 C 5737.01 497.352 5733.21 493.559 5728.53 493.559 C 5723.85 493.559 5720.03 497.352 5720.03 502.02 C 5720.03 506.73 5723.85 510.531 5728.53 510.531 C 5733.21 510.531 5737.01 506.73 5737.01 502.02"/>
    <path id="path474" style="fill:#000000;fill-opacity:1;fill-rule:nonzero;stroke:none" d="M 5728.53 508.031 C 5725.21 508.031 5722.53 505.34 5722.53 502.02 C 5722.53 498.73 5725.21 496.059 5728.53 496.059 C 5731.83 496.059 5734.51 498.73 5734.51 502.02 C 5734.51 505.34 5731.83 508.031 5728.53 508.031 Z M 5728.53 491.059 C 5722.46 491.059 5717.53 495.98 5717.53 502.02 C 5717.53 508.09 5722.46 513.031 5728.53 513.031 C 5734.58 513.031 5739.51 508.09 5739.51 502.02 C 5739.51 495.98 5734.58 491.059 5728.53 491.059"/>
    <path id="path476" style="fill:#a47a3c;fill-opacity:1;fill-rule:nonzero;stroke:none" d="M 5710.72 437.121 C 5710.72 432.441 5706.92 428.66 5702.24 428.66 C 5697.56 428.66 5693.74 432.441 5693.74 437.121 C 5693.74 441.832 5697.56 445.629 5702.24 445.629 C 5706.92 445.629 5710.72 441.832 5710.72 437.121"/>
    <path id="path478" style="fill:#000000;fill-opacity:1;fill-rule:nonzero;stroke:none" d="M 5702.24 443.129 C 5698.93 443.129 5696.24 440.43 5696.24 437.121 C 5696.24 433.832 5698.93 431.16 5702.24 431.16 C 5705.54 431.16 5708.22 433.832 5708.22 437.121 C 5708.22 440.43 5705.54 443.129 5702.24 443.129 Z M 5702.24 426.16 C 5696.17 426.16 5691.24 431.082 5691.24 437.121 C 5691.24 443.191 5696.17 448.129 5702.24 448.129 C 5708.29 448.129 5713.22 443.191 5713.22 437.121 C 5713.22 431.082 5708.29 426.16 5702.24 426.16"/>
    <path id="path480" style="fill:#a47a3c;fill-opacity:1;fill-rule:nonzero;stroke:none" d="M 5661.89 437.012 C 5661.89 432.332 5658.1 428.539 5653.41 428.539 C 5648.73 428.539 5644.91 432.332 5644.91 437.012 C 5644.91 441.711 5648.73 445.512 5653.41 445.512 C 5658.1 445.512 5661.89 441.711 5661.89 437.012"/>
    <path id="path482" style="fill:#000000;fill-opacity:1;fill-rule:nonzero;stroke:none" d="M 5653.41 443.012 C 5650.1 443.012 5647.41 440.32 5647.41 437.012 C 5647.41 433.711 5650.1 431.039 5653.41 431.039 C 5656.71 431.039 5659.39 433.711 5659.39 437.012 C 5659.39 440.32 5656.71 443.012 5653.41 443.012 Z M 5653.41 426.039 C 5647.34 426.039 5642.41 430.961 5642.41 437.012 C 5642.41 443.07 5647.34 448.012 5653.41 448.012 C 5659.46 448.012 5664.39 443.07 5664.39 437.012 C 5664.39 430.961 5659.46 426.039 5653.41 426.039"/>
    <path id="path484" style="fill:#59abe2;fill-opacity:1;fill-rule:nonzero;stroke:none" d="M 5689.21 57.09 L 5689.21 31.352 L 5722.57 31.352 L 5732.03 57.09 L 5689.21 57.09"/>
    <path id="path486" style="fill:#000000;fill-opacity:1;fill-rule:nonzero;stroke:none" d="M 5691.71 33.852 L 5720.82 33.852 L 5728.45 54.59 L 5691.71 54.59 L 5691.71 33.852 Z M 5722.57 28.852 L 5689.21 28.852 C 5687.83 28.852 5686.71 29.969 5686.71 31.352 L 5686.71 57.09 C 5686.71 58.469 5687.83 59.59 5689.21 59.59 L 5732.03 59.59 C 5732.85 59.59 5733.61 59.191 5734.08 58.531 C 5734.55 57.852 5734.66 57 5734.38 56.23 L 5724.91 30.492 C 5724.55 29.512 5723.61 28.852 5722.57 28.852"/>
    <path id="path488" style="fill:#59abe2;fill-opacity:1;fill-rule:nonzero;stroke:none" d="M 5877.08 57.09 L 5886.52 31.352 L 5919.91 31.352 L 5919.91 57.09 L 5877.08 57.09"/>
    <path id="path490" style="fill:#000000;fill-opacity:1;fill-rule:nonzero;stroke:none" d="M 5888.27 33.852 L 5917.41 33.852 L 5917.41 54.59 L 5880.66 54.59 L 5888.27 33.852 Z M 5919.91 28.852 L 5886.52 28.852 C 5885.48 28.852 5884.54 29.512 5884.18 30.492 L 5874.74 56.23 C 5874.45 57 5874.56 57.852 5875.03 58.531 C 5875.5 59.191 5876.26 59.59 5877.08 59.59 L 5919.91 59.59 C 5921.29 59.59 5922.41 58.469 5922.41 57.09 L 5922.41 31.352 C 5922.41 29.969 5921.29 28.852 5919.91 28.852"/>
    <path id="path492" style="fill:#ad713b;fill-opacity:1;fill-rule:nonzero;stroke:none" d="M 5803.98 149.879 C 5758.87 149.879 5718.88 158.461 5697.11 172.852 L 5687.72 179.07 L 5694.59 187.941 C 5700.33 195.379 5706.37 201.23 5710.4 204.969 L 5715.94 210.09 L 5722.54 206.461 C 5728.89 202.969 5753.44 191.629 5803.98 191.629 C 5853.34 191.629 5878.07 202.602 5884.52 205.949 L 5892.55 210.148 L 5916.5 176.32 L 5906.65 170.648 C 5883.99 157.648 5845.62 149.879 5803.98 149.879"/>
    <path id="path494" style="fill:#000000;fill-opacity:1;fill-rule:nonzero;stroke:none" d="M 5691.35 179.66 L 5698.49 174.93 C 5719.86 160.801 5759.3 152.379 5803.98 152.379 C 5845.19 152.379 5883.1 160.012 5905.41 172.82 L 5912.88 177.121 L 5891.77 206.922 L 5885.68 203.73 C 5879.07 200.309 5853.68 189.129 5803.98 189.129 C 5752.86 189.129 5727.8 200.719 5721.34 204.27 L 5716.31 207.031 L 5712.1 203.141 C 5708.13 199.469 5702.22 193.73 5696.57 186.422 L 5691.35 179.66 Z M 5803.98 147.379 C 5758.36 147.379 5717.89 156.121 5695.73 170.762 L 5686.35 176.992 C 5685.76 177.371 5685.37 177.969 5685.25 178.66 C 5685.15 179.34 5685.32 180.039 5685.74 180.602 L 5692.61 189.48 C 5698.49 197.082 5704.61 203.012 5708.7 206.809 L 5714.24 211.93 C 5715.04 212.66 5716.21 212.82 5717.14 212.281 L 5723.74 208.648 C 5729.94 205.25 5754.05 194.129 5803.98 194.129 C 5852.55 194.129 5877.02 204.879 5883.37 208.172 L 5891.39 212.371 C 5892.5 212.961 5893.87 212.621 5894.59 211.602 L 5918.54 177.77 C 5918.96 177.191 5919.09 176.469 5918.95 175.781 C 5918.8 175.102 5918.36 174.512 5917.75 174.148 L 5907.9 168.48 C 5884.86 155.27 5846.02 147.379 5803.98 147.379"/>
    <path id="path496" style="fill:#ffb103;fill-opacity:1;fill-rule:nonzero;stroke:none" d="M 5814.75 197.129 C 5814.75 191.199 5809.91 186.398 5804.01 186.398 C 5798.06 186.398 5793.24 191.199 5793.24 197.129 C 5793.24 203.082 5798.06 207.879 5804.01 207.879 C 5809.91 207.879 5814.75 203.082 5814.75 197.129"/>
    <path id="path498" style="fill:#000000;fill-opacity:1;fill-rule:nonzero;stroke:none" d="M 5804.01 205.379 C 5799.45 205.379 5795.74 201.68 5795.74 197.129 C 5795.74 192.59 5799.45 188.898 5804.01 188.898 C 5808.55 188.898 5812.25 192.59 5812.25 197.129 C 5812.25 201.68 5808.55 205.379 5804.01 205.379 Z M 5804.01 183.898 C 5796.7 183.898 5790.74 189.84 5790.74 197.129 C 5790.74 204.441 5796.7 210.379 5804.01 210.379 C 5811.31 210.379 5817.25 204.441 5817.25 197.129 C 5817.25 189.84 5811.31 183.898 5804.01 183.898"/>
    <path id="path500" style="fill:#8192a4;fill-opacity:1;fill-rule:nonzero;stroke:none" d="M 5793.24 142.5 L 5814.751 142.5 L 5814.751 197.129 L 5793.24 197.129 L 5793.24 142.5 Z"/>
    <path id="path502" style="fill:#000000;fill-opacity:1;fill-rule:nonzero;stroke:none" d="M 5795.74 145 L 5812.25 145 L 5812.25 194.629 L 5795.74 194.629 L 5795.74 145 Z M 5814.75 140 L 5793.24 140 C 5791.87 140 5790.74 141.129 5790.74 142.5 L 5790.74 197.129 C 5790.74 198.512 5791.87 199.629 5793.24 199.629 L 5814.75 199.629 C 5816.12 199.629 5817.25 198.512 5817.25 197.129 L 5817.25 142.5 C 5817.25 141.129 5816.12 140 5814.75 140"/>
    <path id="path504" style="fill:#6b7f82;fill-opacity:1;fill-rule:nonzero;stroke:none" d="M 5790.75 142.5 L 5817.219 142.5 L 5817.219 150 L 5790.75 150 L 5790.75 142.5 Z"/>
    <path id="path506" style="fill:#000000;fill-opacity:1;fill-rule:nonzero;stroke:none" d="M 5793.25 145 L 5814.72 145 L 5814.72 147.5 L 5793.25 147.5 L 5793.25 145 Z M 5817.22 140 L 5790.75 140 C 5789.38 140 5788.25 141.129 5788.25 142.5 L 5788.25 150 C 5788.25 151.379 5789.38 152.5 5790.75 152.5 L 5817.22 152.5 C 5818.59 152.5 5819.72 151.379 5819.72 150 L 5819.72 142.5 C 5819.72 141.129 5818.59 140 5817.22 140"/>
    <path id="path508" style="fill:#ffb103;fill-opacity:1;fill-rule:nonzero;stroke:none" d="M 5777.8 197.641 C 5776.79 191.789 5771.27 187.852 5765.42 188.801 C 5759.54 189.809 5755.6 195.332 5756.58 201.18 C 5757.54 207.031 5763.11 211 5768.96 210.02 C 5774.8 209.059 5778.76 203.488 5777.8 197.641"/>
    <path id="path510" style="fill:#000000;fill-opacity:1;fill-rule:nonzero;stroke:none" d="M 5767.18 207.672 C 5763.18 207.672 5759.69 204.711 5759.05 200.781 C 5758.29 196.301 5761.34 192.031 5765.84 191.262 C 5770.23 190.57 5774.57 193.629 5775.34 198.07 C 5776.07 202.551 5773.03 206.82 5768.54 207.551 C 5768.09 207.629 5767.63 207.672 5767.18 207.672 Z M 5767.16 186.172 C 5766.46 186.172 5765.74 186.211 5765.02 186.332 C 5757.79 187.57 5752.91 194.422 5754.12 201.602 C 5755.27 208.719 5762.01 213.68 5769.37 212.488 C 5776.56 211.301 5781.46 204.461 5780.27 197.238 C 5779.15 190.809 5773.64 186.172 5767.16 186.172"/>
    <path id="path512" style="fill:#8192a4;fill-opacity:1;fill-rule:nonzero;stroke:none" d="M 5768.8 143.762 L 5747.59 147.301 L 5756.58 201.18 L 5777.8 197.641 L 5768.8 143.762"/>
    <path id="path514" style="fill:#000000;fill-opacity:1;fill-rule:nonzero;stroke:none" d="M 5750.47 149.352 L 5766.75 146.641 L 5774.92 195.59 L 5758.63 198.301 L 5750.47 149.352 Z M 5768.8 141.262 C 5768.66 141.262 5768.53 141.27 5768.39 141.289 L 5747.18 144.832 C 5746.52 144.941 5745.94 145.309 5745.56 145.84 C 5745.17 146.379 5745.01 147.051 5745.12 147.711 L 5754.11 201.602 C 5754.23 202.25 5754.59 202.84 5755.13 203.219 C 5755.67 203.609 5756.35 203.781 5756.99 203.648 L 5778.21 200.102 C 5778.87 199.988 5779.45 199.629 5779.83 199.102 C 5780.22 198.551 5780.38 197.879 5780.26 197.23 L 5771.26 143.352 C 5771.06 142.129 5770 141.262 5768.8 141.262"/>
    <path id="path516" style="fill:#6b7f82;fill-opacity:1;fill-rule:nonzero;stroke:none" d="M 5771.27 143.332 L 5745.17 147.691 L 5746.39 155.109 L 5772.49 150.75 L 5771.27 143.332"/>
    <path id="path518" style="fill:#000000;fill-opacity:1;fill-rule:nonzero;stroke:none" d="M 5748.04 149.738 L 5769.21 146.211 L 5769.62 148.691 L 5748.45 152.23 L 5748.04 149.738 Z M 5771.27 140.832 C 5771.13 140.832 5771 140.84 5770.86 140.859 L 5744.76 145.219 C 5743.4 145.449 5742.47 146.73 5742.7 148.102 L 5743.92 155.52 C 5744.02 156.18 5744.39 156.762 5744.93 157.141 C 5745.48 157.52 5746.15 157.68 5746.8 157.582 L 5772.9 153.211 C 5774.26 152.98 5775.19 151.699 5774.96 150.34 L 5773.74 142.922 C 5773.63 142.27 5773.26 141.68 5772.72 141.301 C 5772.29 141 5771.79 140.832 5771.27 140.832"/>
    <path id="path520" style="fill:#ffb103;fill-opacity:1;fill-rule:nonzero;stroke:none" d="M 5743.35 202.219 C 5741.1 196.691 5734.86 194.059 5729.38 196.289 C 5723.87 198.531 5721.22 204.801 5723.43 210.27 C 5725.66 215.781 5731.95 218.43 5737.44 216.191 C 5742.93 213.98 5745.61 207.711 5743.35 202.219"/>
    <path id="path522" style="fill:#000000;fill-opacity:1;fill-rule:nonzero;stroke:none" d="M 5733.4 214.492 C 5730.02 214.492 5727.01 212.461 5725.74 209.332 C 5724.05 205.129 5726.1 200.32 5730.32 198.609 C 5734.48 196.93 5739.36 199.039 5741.04 203.16 C 5741.87 205.191 5741.86 207.422 5741.01 209.441 C 5740.15 211.48 5738.55 213.051 5736.5 213.879 C 5735.51 214.281 5734.46 214.492 5733.4 214.492 Z M 5733.42 193 C 5731.71 193 5730.04 193.32 5728.44 193.98 C 5721.67 196.719 5718.38 204.449 5721.11 211.199 C 5723.8 217.832 5731.73 221.219 5738.39 218.512 C 5741.67 217.18 5744.24 214.648 5745.62 211.379 C 5746.98 208.121 5747 204.531 5745.66 201.27 C 5743.62 196.238 5738.81 193 5733.42 193"/>
    <path id="path524" style="fill:#8192a4;fill-opacity:1;fill-rule:nonzero;stroke:none" d="M 5722.85 151.582 L 5702.91 159.648 L 5723.43 210.27 L 5743.35 202.219 L 5722.85 151.582"/>
    <path id="path526" style="fill:#000000;fill-opacity:1;fill-rule:nonzero;stroke:none" d="M 5706.16 161.031 L 5721.47 154.832 L 5740.1 200.84 L 5724.8 207.02 L 5706.16 161.031 Z M 5722.85 149.082 C 5722.53 149.082 5722.22 149.129 5721.91 149.262 L 5701.97 157.34 C 5701.36 157.582 5700.87 158.07 5700.61 158.68 C 5700.35 159.289 5700.34 159.969 5700.6 160.59 L 5721.11 211.199 C 5721.62 212.488 5723.07 213.109 5724.37 212.582 L 5744.29 204.531 C 5744.9 204.289 5745.39 203.801 5745.65 203.199 C 5745.91 202.582 5745.92 201.898 5745.66 201.281 L 5725.17 150.641 C 5724.92 150.02 5724.43 149.531 5723.83 149.27 C 5723.52 149.141 5723.18 149.082 5722.85 149.082"/>
    <path id="path528" style="fill:#6b7f82;fill-opacity:1;fill-rule:nonzero;stroke:none" d="M 5725.12 150.629 L 5700.6 160.59 L 5703.43 167.539 L 5727.95 157.602 L 5725.12 150.629"/>
    <path id="path530" style="fill:#000000;fill-opacity:1;fill-rule:nonzero;stroke:none" d="M 5703.86 161.969 L 5723.74 153.891 L 5724.69 156.219 L 5704.8 164.289 L 5703.86 161.969 Z M 5725.12 148.129 C 5724.79 148.129 5724.48 148.191 5724.18 148.309 L 5699.66 158.27 C 5699.04 158.52 5698.55 159.012 5698.29 159.621 C 5698.04 160.23 5698.03 160.922 5698.28 161.539 L 5701.11 168.488 C 5701.63 169.77 5703.1 170.391 5704.37 169.859 L 5728.89 159.922 C 5729.5 159.672 5729.99 159.18 5730.25 158.582 C 5730.51 157.961 5730.52 157.281 5730.26 156.66 L 5727.43 149.691 C 5727.19 149.082 5726.7 148.59 5726.09 148.32 C 5725.78 148.199 5725.45 148.129 5725.12 148.129"/>
    <path id="path532" style="fill:#ffb103;fill-opacity:1;fill-rule:nonzero;stroke:none" d="M 5831.01 197.512 C 5831.99 191.629 5837.53 187.699 5843.38 188.66 C 5849.23 189.66 5853.18 195.199 5852.23 201.039 C 5851.26 206.891 5845.69 210.852 5839.81 209.871 C 5833.99 208.922 5830.04 203.359 5831.01 197.512"/>
    <path id="path534" style="fill:#000000;fill-opacity:1;fill-rule:nonzero;stroke:none" d="M 5841.61 207.512 C 5841.15 207.512 5840.69 207.48 5840.22 207.41 C 5838.08 207.051 5836.19 205.879 5834.92 204.102 C 5833.62 202.301 5833.12 200.102 5833.48 197.922 C 5834.22 193.48 5838.36 190.34 5842.98 191.129 C 5847.44 191.891 5850.49 196.16 5849.76 200.641 C 5849.1 204.621 5845.67 207.512 5841.61 207.512 Z M 5841.62 186.012 C 5835.12 186.012 5829.62 190.68 5828.54 197.102 C 5827.96 200.609 5828.78 204.129 5830.86 207.02 C 5832.91 209.891 5835.96 211.77 5839.41 212.34 C 5846.71 213.531 5853.52 208.582 5854.7 201.449 C 5855.87 194.27 5850.99 187.43 5843.8 186.191 C 5843.06 186.07 5842.33 186.012 5841.62 186.012"/>
    <path id="path536" style="fill:#8192a4;fill-opacity:1;fill-rule:nonzero;stroke:none" d="M 5840 143.641 L 5861.19 147.16 L 5852.23 201.039 L 5831.01 197.512 L 5840 143.641"/>
    <path id="path538" style="fill:#000000;fill-opacity:1;fill-rule:nonzero;stroke:none" d="M 5833.89 195.449 L 5842.05 146.52 L 5858.31 149.219 L 5850.17 198.172 L 5833.89 195.449 Z M 5840 141.141 C 5838.8 141.141 5837.73 142.012 5837.53 143.23 L 5828.54 197.102 C 5828.43 197.762 5828.58 198.43 5828.97 198.969 C 5829.36 199.512 5829.94 199.871 5830.6 199.98 L 5851.82 203.512 C 5853.15 203.711 5854.47 202.809 5854.7 201.449 L 5863.66 147.57 C 5863.77 146.922 5863.61 146.238 5863.22 145.711 C 5862.84 145.172 5862.26 144.809 5861.6 144.691 L 5840.41 141.172 C 5840.27 141.148 5840.14 141.141 5840 141.141"/>
    <path id="path540" style="fill:#6b7f82;fill-opacity:1;fill-rule:nonzero;stroke:none" d="M 5837.53 143.211 L 5863.63 147.551 L 5862.39 154.969 L 5836.31 150.602 L 5837.53 143.211"/>
    <path id="path542" style="fill:#000000;fill-opacity:1;fill-rule:nonzero;stroke:none" d="M 5839.18 148.551 L 5839.59 146.09 L 5860.75 149.602 L 5860.34 152.09 L 5839.18 148.551 Z M 5837.53 140.711 C 5837.01 140.711 5836.5 140.871 5836.07 141.18 C 5835.54 141.559 5835.17 142.141 5835.06 142.801 L 5833.84 150.191 C 5833.61 151.559 5834.53 152.84 5835.9 153.059 L 5861.98 157.43 C 5862.64 157.559 5863.3 157.398 5863.85 157.012 C 5864.38 156.621 5864.75 156.039 5864.86 155.379 L 5866.09 147.961 C 5866.21 147.309 5866.05 146.629 5865.66 146.102 C 5865.28 145.559 5864.7 145.199 5864.04 145.082 L 5837.94 140.742 C 5837.8 140.719 5837.67 140.711 5837.53 140.711"/>
    <path id="path544" style="fill:#ffb103;fill-opacity:1;fill-rule:nonzero;stroke:none" d="M 5865.46 202.07 C 5867.67 196.559 5873.94 193.93 5879.42 196.141 C 5884.93 198.379 5887.59 204.648 5885.35 210.141 C 5883.14 215.641 5876.85 218.289 5871.36 216.059 C 5865.87 213.832 5863.19 207.559 5865.46 202.07"/>
    <path id="path546" style="fill:#000000;fill-opacity:1;fill-rule:nonzero;stroke:none" d="M 5875.39 214.352 C 5874.34 214.352 5873.29 214.141 5872.3 213.738 C 5870.24 212.91 5868.64 211.332 5867.79 209.289 C 5866.94 207.27 5866.93 205.039 5867.77 203.031 C 5869.42 198.891 5874.32 196.789 5878.49 198.461 C 5882.71 200.172 5884.75 204.988 5883.04 209.191 C 5881.78 212.34 5878.78 214.352 5875.39 214.352 Z M 5875.41 192.852 L 5875.41 192.852 C 5869.97 192.852 5865.16 196.109 5863.13 201.148 C 5861.81 204.379 5861.82 207.961 5863.18 211.219 C 5864.55 214.5 5867.13 217.031 5870.42 218.371 C 5877.02 221.129 5885.01 217.68 5887.68 211.07 C 5890.42 204.332 5887.15 196.59 5880.37 193.82 C 5878.77 193.18 5877.11 192.852 5875.41 192.852"/>
    <path id="path548" style="fill:#8192a4;fill-opacity:1;fill-rule:nonzero;stroke:none" d="M 5885.95 151.449 L 5905.89 159.52 L 5885.35 210.141 L 5865.46 202.07 L 5885.95 151.449"/>
    <path id="path550" style="fill:#000000;fill-opacity:1;fill-rule:nonzero;stroke:none" d="M 5868.71 200.699 L 5887.32 154.699 L 5902.63 160.898 L 5883.97 206.891 L 5868.71 200.699 Z M 5885.95 148.949 C 5885.62 148.949 5885.28 149.02 5884.97 149.141 C 5884.37 149.41 5883.88 149.898 5883.63 150.512 L 5863.14 201.141 C 5862.63 202.422 5863.24 203.871 5864.52 204.391 L 5884.41 212.449 C 5885.66 212.992 5887.15 212.371 5887.67 211.082 L 5908.2 160.461 C 5908.46 159.852 5908.45 159.16 5908.19 158.551 C 5907.93 157.941 5907.44 157.449 5906.83 157.211 L 5886.88 149.129 C 5886.58 149.012 5886.27 148.949 5885.95 148.949"/>
    <path id="path552" style="fill:#6b7f82;fill-opacity:1;fill-rule:nonzero;stroke:none" d="M 5883.68 150.48 L 5908.2 160.461 L 5905.37 167.422 L 5880.85 157.449 L 5883.68 150.48"/>
    <path id="path554" style="fill:#000000;fill-opacity:1;fill-rule:nonzero;stroke:none" d="M 5884.11 156.082 L 5885.06 153.738 L 5904.94 161.84 L 5903.99 164.16 L 5884.11 156.082 Z M 5883.68 147.98 C 5883.35 147.98 5883.02 148.051 5882.71 148.18 C 5882.1 148.441 5881.61 148.93 5881.37 149.539 L 5878.54 156.52 C 5878.02 157.801 5878.63 159.25 5879.91 159.77 L 5904.43 169.73 C 5905.69 170.281 5907.17 169.629 5907.69 168.359 L 5910.52 161.41 C 5910.77 160.789 5910.76 160.102 5910.51 159.5 C 5910.25 158.879 5909.76 158.391 5909.15 158.148 L 5884.63 148.172 C 5884.33 148.039 5884 147.98 5883.68 147.98"/>
    <path id="path556" style="fill:#8192a4;fill-opacity:1;fill-rule:nonzero;stroke:none" d="M 5793.85 121.262 C 5796.73 121.262 5799.07 123.602 5799.07 126.469 C 5799.07 129.359 5796.73 131.699 5793.85 131.699 C 5785.19 131.699 5778.13 138.73 5778.13 147.41 C 5778.13 150.281 5775.8 152.629 5772.94 152.629 C 5770.03 152.629 5767.71 150.281 5767.71 147.41 C 5767.71 132.98 5779.41 121.262 5793.85 121.262"/>
    <path id="path558" style="fill:#000000;fill-opacity:1;fill-rule:nonzero;stroke:none" d="M 5772.94 150.129 C 5771.44 150.129 5770.21 148.91 5770.21 147.41 C 5770.21 134.371 5780.82 123.762 5793.85 123.762 C 5795.35 123.762 5796.57 124.969 5796.57 126.469 C 5796.57 127.969 5795.35 129.199 5793.85 129.199 C 5783.81 129.199 5775.63 137.371 5775.63 147.41 C 5775.63 148.91 5774.42 150.129 5772.94 150.129 Z M 5793.85 118.762 C 5778.06 118.762 5765.21 131.609 5765.21 147.41 C 5765.21 151.66 5768.68 155.129 5772.94 155.129 C 5777.19 155.129 5780.63 151.66 5780.63 147.41 C 5780.63 140.129 5786.56 134.199 5793.85 134.199 C 5798.11 134.199 5801.57 130.742 5801.57 126.469 C 5801.57 122.219 5798.11 118.762 5793.85 118.762"/>
    <path id="path560" style="fill:#8192a4;fill-opacity:1;fill-rule:nonzero;stroke:none" d="M 5749.06 142.07 C 5749.06 124.512 5769.92 110.18 5795.56 110.18 C 5821.17 110.18 5842.05 124.512 5842.05 142.07 C 5842.05 159.68 5821.17 174 5795.56 174 C 5769.92 174 5749.06 159.68 5749.06 142.07 Z M 5738.61 142.07 C 5738.61 165.422 5764.15 184.441 5795.56 184.441 C 5826.92 184.441 5852.48 165.422 5852.48 142.07 C 5852.48 118.719 5826.92 99.742 5795.56 99.742 C 5764.15 99.742 5738.61 118.719 5738.61 142.07"/>
    <path id="path562" style="fill:#000000;fill-opacity:1;fill-rule:nonzero;stroke:none" d="M 5795.56 171.5 C 5771.3 171.5 5751.56 158.289 5751.56 142.07 C 5751.56 125.859 5771.3 112.68 5795.56 112.68 C 5819.81 112.68 5839.55 125.859 5839.55 142.07 C 5839.55 158.289 5819.81 171.5 5795.56 171.5 Z M 5795.56 107.68 C 5768.54 107.68 5746.56 123.109 5746.56 142.07 C 5746.56 161.059 5768.54 176.5 5795.56 176.5 C 5822.57 176.5 5844.55 161.059 5844.55 142.07 C 5844.55 123.109 5822.57 107.68 5795.56 107.68 Z M 5795.56 181.941 C 5765.54 181.941 5741.11 164.059 5741.11 142.07 C 5741.11 120.109 5765.54 102.242 5795.56 102.242 C 5825.57 102.242 5849.98 120.109 5849.98 142.07 C 5849.98 164.059 5825.57 181.941 5795.56 181.941 Z M 5795.56 97.242 C 5762.78 97.242 5736.11 117.359 5736.11 142.07 C 5736.11 166.809 5762.78 186.941 5795.56 186.941 C 5828.32 186.941 5854.98 166.809 5854.98 142.07 C 5854.98 117.359 5828.32 97.242 5795.56 97.242"/>
    <path id="path564" style="fill:#ad713b;fill-opacity:1;fill-rule:nonzero;stroke:none" d="M 5702.71 198.961 L 5859.55 198.961 L 5859.55 143.32 L 5782.64 143.32 C 5769.38 143.32 5757.38 138.371 5748.7 130.352 C 5733.96 116.77 5716.72 99.07 5694.67 99.07 C 5672.59 99.07 5654.7 111.512 5654.7 126.879 L 5654.7 154.699 C 5654.7 179.129 5676.2 198.961 5702.71 198.961"/>
    <path id="path566" style="fill:#000000;fill-opacity:1;fill-rule:nonzero;stroke:none" d="M 5702.71 196.461 C 5677.61 196.461 5657.2 177.73 5657.2 154.699 L 5657.2 126.879 C 5657.2 112.922 5674 101.57 5694.67 101.57 C 5714.08 101.57 5729.78 116.18 5743.62 129.059 L 5747.01 132.191 C 5756.52 140.98 5769.18 145.82 5782.64 145.82 L 5857.05 145.82 L 5857.05 196.461 L 5702.71 196.461 Z M 5694.67 96.57 C 5671.25 96.57 5652.2 110.16 5652.2 126.879 L 5652.2 154.699 C 5652.2 180.48 5674.85 201.461 5702.71 201.461 L 5859.55 201.461 C 5860.93 201.461 5862.05 200.34 5862.05 198.961 L 5862.05 143.32 C 5862.05 141.949 5860.93 140.82 5859.55 140.82 L 5782.64 140.82 C 5770.44 140.82 5758.99 136.449 5750.4 128.52 L 5747.03 125.398 C 5732.51 111.891 5716.04 96.57 5694.67 96.57"/>
    <path id="path568" style="fill:#894b19;fill-opacity:1;fill-rule:nonzero;stroke:none" d="M 5655.27 122.969 C 5656.81 124.25 5658.29 125.672 5659.79 127.129 C 5662.89 130.148 5666.08 133.281 5670.27 135.672 C 5681.22 141.961 5692.45 140.941 5703.33 139.91 C 5707.3 139.52 5711.28 139.16 5715.26 139.16 L 5717.6 139.102 C 5720.02 139.051 5722.46 138.961 5723.97 139.789 C 5725.38 140.551 5726.46 141.809 5727.9 143.43 C 5728.53 144.141 5729.17 144.859 5729.85 145.57 C 5736.74 152.75 5743.16 154.371 5751.22 154.699 C 5754.32 154.801 5757.46 154.582 5760.69 154.332 C 5764.9 153.992 5768.91 153.68 5772.39 154.27 C 5774.11 154.539 5775.66 155.48 5777.43 156.582 C 5778.82 157.391 5780.2 158.211 5781.73 158.879 C 5785.75 160.621 5790.07 160.859 5793.9 161.09 C 5798.48 161.34 5803.23 161.32 5807.75 161.09 C 5811.29 160.898 5814.44 159.891 5817.48 158.879 C 5818.89 158.422 5820.29 157.93 5821.72 157.602 C 5827.94 156.051 5839.72 154.52 5848.9 161.82 L 5853.68 153.09 C 5841.89 143.75 5827.47 145.48 5819.95 147.371 C 5818.34 147.77 5816.75 148.281 5815.2 148.809 C 5812.49 149.68 5809.97 150.52 5807.39 150.641 C 5803.11 150.859 5798.63 150.91 5794.32 150.641 C 5790.96 150.461 5787.47 150.281 5784.67 149.051 C 5783.5 148.551 5782.4 147.871 5781.36 147.238 C 5779.18 145.91 5776.73 144.43 5773.58 143.922 C 5769.19 143.211 5764.59 143.57 5760.12 143.922 C 5757.18 144.141 5754.27 144.34 5751.51 144.27 C 5743.92 143.961 5740.07 142.359 5735.52 137.68 L 5733.91 135.859 C 5732.22 133.949 5730.31 131.801 5727.67 130.309 C 5724.31 128.43 5720.64 128.512 5717.39 128.68 L 5715.26 128.719 C 5711.04 128.719 5706.84 129.109 5702.65 129.512 C 5692.51 130.43 5682.86 131.352 5674.02 126.25 C 5670.74 124.41 5668.12 121.789 5665.23 119.039 C 5663.46 117.281 5661.61 115.48 5659.59 113.82 C 5657.43 116.629 5655.95 119.68 5655.27 122.969"/>
    <path id="path570" style="fill:#000000;fill-opacity:1;fill-rule:nonzero;stroke:none" d="M 5658.07 122.082 C 5658.52 120.539 5659.19 119.02 5660.07 117.551 C 5661.25 118.629 5662.37 119.73 5663.48 120.809 L 5664.11 121.43 C 5666.87 124.07 5669.47 126.57 5672.8 128.43 C 5677.87 131.359 5683.66 132.73 5690.99 132.73 C 5694.84 132.73 5698.84 132.371 5702.7 132.02 C 5706.94 131.609 5711.14 131.219 5715.26 131.219 L 5717.44 131.18 C 5721.19 130.98 5724.19 131.219 5726.45 132.488 C 5728.73 133.781 5730.49 135.77 5732.03 137.512 L 5733.64 139.34 C 5738.74 144.57 5743.2 146.43 5751.41 146.77 L 5752.67 146.781 C 5755.14 146.781 5757.71 146.609 5760.31 146.41 C 5764.78 146.059 5769.6 145.809 5773.18 146.391 C 5775.87 146.82 5778 148.121 5780.06 149.379 C 5781.29 150.129 5782.45 150.82 5783.69 151.352 C 5786.89 152.762 5790.77 152.949 5794.19 153.141 C 5798.53 153.398 5803.15 153.359 5807.52 153.141 C 5810.31 153.012 5812.9 152.172 5815.64 151.289 C 5817.49 150.68 5819.01 150.18 5820.56 149.789 C 5823.13 149.141 5827.16 148.379 5831.73 148.379 C 5838.9 148.379 5845.18 150.199 5850.44 153.801 L 5848.06 158.16 C 5840.89 153.648 5831.26 152.629 5821.11 155.18 C 5819.87 155.461 5818.6 155.879 5817.34 156.289 L 5816.71 156.512 C 5813.99 157.41 5810.93 158.422 5807.63 158.59 C 5803.21 158.82 5798.54 158.84 5794.03 158.59 C 5790.38 158.371 5786.32 158.141 5782.72 156.59 C 5781.39 156 5780.17 155.281 5778.95 154.559 C 5776.93 153.32 5775.05 152.16 5772.78 151.801 C 5769.18 151.191 5764.95 151.48 5760.49 151.84 C 5757.88 152.039 5755.31 152.219 5752.79 152.219 L 5751.3 152.199 C 5743.64 151.891 5737.97 150.41 5731.66 143.84 C 5731 143.16 5730.38 142.461 5729.78 141.781 C 5728.15 139.941 5726.9 138.531 5725.17 137.59 C 5723.53 136.691 5721.49 136.57 5719.55 136.57 L 5715.2 136.66 C 5715.19 136.66 5715.18 136.66 5715.18 136.66 C 5711.27 136.66 5707.38 137.012 5703.1 137.422 C 5699.35 137.781 5695.1 138.18 5691 138.18 C 5683.26 138.18 5677.07 136.691 5671.52 133.5 C 5667.66 131.301 5664.61 128.332 5661.66 125.449 C 5660.41 124.242 5659.24 123.121 5658.07 122.082 Z M 5659.59 111.32 C 5659.49 111.32 5659.4 111.332 5659.31 111.34 C 5658.63 111.422 5658.02 111.762 5657.61 112.301 C 5655.17 115.48 5653.55 118.91 5652.82 122.469 C 5652.64 123.371 5652.97 124.301 5653.67 124.898 C 5655.16 126.129 5656.59 127.5 5658.05 128.922 C 5661.34 132.129 5664.62 135.332 5669.03 137.852 C 5675.37 141.48 5682.35 143.18 5691 143.18 C 5695.33 143.18 5699.71 142.762 5703.56 142.398 C 5707.74 142 5711.5 141.66 5715.26 141.66 L 5719.55 141.57 C 5720.16 141.57 5722.01 141.57 5722.77 141.98 C 5723.74 142.5 5724.63 143.512 5725.86 144.898 C 5726.67 145.82 5727.34 146.559 5728.05 147.301 C 5735.47 155.031 5742.64 156.852 5751.11 157.199 L 5752.79 157.219 C 5755.44 157.219 5758.13 157.031 5760.89 156.82 C 5764.89 156.5 5768.69 156.18 5771.98 156.73 C 5773.18 156.93 5774.39 157.641 5776.11 158.699 C 5777.8 159.691 5779.19 160.5 5780.72 161.172 C 5785.14 163.082 5789.68 163.34 5793.68 163.582 C 5798.52 163.859 5803.28 163.809 5807.88 163.59 C 5811.86 163.371 5815.41 162.199 5818.26 161.25 L 5818.91 161.039 C 5820.03 160.68 5821.15 160.301 5822.29 160.031 C 5832.13 157.59 5841.16 158.859 5847.34 163.77 C 5847.92 164.242 5848.67 164.41 5849.39 164.27 C 5850.12 164.121 5850.73 163.672 5851.08 163.02 L 5855.87 154.289 C 5856.46 153.23 5856.19 151.891 5855.23 151.129 C 5848.74 145.988 5840.83 143.379 5831.73 143.379 C 5826.65 143.379 5822.19 144.23 5819.35 144.941 C 5817.67 145.352 5816.01 145.891 5814.39 146.449 C 5811.59 147.352 5809.42 148.039 5807.28 148.141 C 5803.07 148.359 5798.69 148.391 5794.47 148.148 C 5791.31 147.98 5788.07 147.809 5785.67 146.762 C 5784.63 146.309 5783.69 145.742 5782.78 145.18 C 5780.42 143.738 5777.64 142.039 5773.98 141.449 C 5769.96 140.801 5764.81 141.031 5759.92 141.43 C 5757.46 141.609 5755.01 141.781 5752.67 141.781 L 5751.57 141.77 C 5744.65 141.492 5741.44 140.18 5737.3 135.93 L 5735.78 134.199 C 5734.06 132.262 5731.92 129.84 5728.9 128.129 C 5725.63 126.309 5722.26 126.102 5720 126.102 C 5719.06 126.102 5718.14 126.141 5717.26 126.18 L 5715.21 126.219 C 5710.91 126.219 5706.59 126.621 5702.41 127.02 C 5698.32 127.391 5694.62 127.73 5690.99 127.73 C 5684.48 127.73 5679.64 126.602 5675.27 124.09 C 5672.48 122.512 5670.1 120.23 5667.58 117.82 L 5666.96 117.23 C 5665.17 115.449 5663.26 113.602 5661.17 111.891 C 5660.72 111.52 5660.17 111.32 5659.59 111.32"/>
    <path id="path572" style="fill:#894b19;fill-opacity:1;fill-rule:nonzero;stroke:none" d="M 5714.22 182.961 C 5718.9 181.629 5723.76 180.301 5728.31 181.129 C 5731.83 181.789 5735.78 183.91 5739.57 185.941 C 5742.04 187.238 5744.46 188.559 5746.88 189.582 C 5753.44 192.289 5763.94 191.832 5770.31 189.781 C 5771.85 189.281 5773.35 188.73 5774.76 188.191 C 5779.78 186.289 5783.45 184.91 5788.14 186.969 C 5794.49 189.77 5803.05 192.961 5812.51 192.961 C 5816.96 192.961 5821.09 192.238 5825.1 191.512 C 5828.95 190.832 5832.54 190.172 5836.34 190.172 L 5836.34 179.73 C 5831.91 179.73 5827.78 180.449 5823.83 181.18 C 5819.95 181.859 5816.37 182.52 5812.51 182.52 C 5804.38 182.52 5796.84 179.66 5791.14 177.18 C 5783.59 173.809 5777.8 176.082 5772.16 178.242 C 5770.83 178.75 5769.48 179.262 5768.08 179.711 C 5762.54 181.43 5753.96 181.52 5749.75 179.711 C 5747.56 178.789 5745.37 177.59 5743.12 176.398 C 5738.8 174.082 5734.3 171.691 5729.64 170.82 C 5723.43 169.719 5717.44 171.309 5712.25 172.809 C 5710.37 173.34 5708.53 173.859 5706.73 174.242 C 5698.91 175.781 5691.86 175.781 5687.38 174.082 C 5684.74 173.082 5682.29 171.57 5679.84 170.109 C 5675.68 167.57 5671.4 164.969 5666.14 164.23 C 5662.81 163.73 5659.33 163.84 5655.82 164.082 C 5656.67 167.711 5658.15 171.121 5659.9 174.391 C 5661.72 174.371 5663.49 174.352 5665.13 174.59 C 5668.85 175.121 5672.3 177.219 5675.95 179.422 C 5678.73 181.09 5681.56 182.832 5684.74 184.031 C 5692.56 187.031 5702.8 185.641 5708.18 184.52 C 5710.17 184.129 5712.2 183.57 5714.22 182.961"/>
    <path id="path574" style="fill:#000000;fill-opacity:1;fill-rule:nonzero;stroke:none" d="M 5659.09 166.41 C 5661.37 166.332 5663.6 166.391 5665.77 166.699 C 5670.58 167.391 5674.63 169.859 5678.54 172.25 L 5679.12 172.59 C 5681.45 173.98 5683.85 175.41 5686.5 176.422 C 5691.33 178.262 5698.81 178.359 5707.22 176.691 C 5709.1 176.289 5711.01 175.77 5712.93 175.211 C 5718.3 173.66 5723.58 172.281 5729.2 173.281 C 5733.57 174.102 5738.01 176.492 5741.93 178.602 L 5742.89 179.102 C 5744.88 180.172 5746.83 181.191 5748.78 182.02 C 5753.26 183.949 5762.85 183.961 5768.82 182.09 C 5770.29 181.621 5771.69 181.102 5773.07 180.57 C 5778.83 178.352 5784.22 176.82 5790.13 179.469 C 5796.07 182.051 5803.97 185.02 5812.51 185.02 C 5816.38 185.02 5819.89 184.41 5823.62 183.75 L 5824.26 183.648 C 5827.59 183.031 5830.66 182.5 5833.84 182.309 L 5833.84 187.762 C 5830.93 187.941 5828.13 188.441 5825.21 188.949 C 5821.2 189.68 5816.91 190.461 5812.51 190.461 C 5803.42 190.461 5795.25 187.379 5789.15 184.68 C 5784.09 182.461 5779.35 183.781 5773.88 185.84 C 5772.49 186.391 5771.03 186.922 5769.54 187.41 C 5763.32 189.391 5753.1 189.449 5747.84 187.27 C 5745.83 186.422 5743.79 185.352 5741.73 184.25 L 5740.73 183.719 C 5736.78 181.602 5732.68 179.41 5728.78 178.672 C 5723.57 177.73 5718.16 179.25 5713.54 180.559 C 5711.56 181.148 5709.61 181.691 5707.71 182.059 C 5704.89 182.648 5700.63 183.332 5696.05 183.332 C 5691.98 183.332 5688.48 182.789 5685.63 181.691 C 5682.81 180.629 5680.2 179.051 5677.66 177.52 C 5673.48 175 5669.67 172.711 5665.48 172.121 C 5664.2 171.93 5662.82 171.879 5661.42 171.879 C 5660.44 169.93 5659.68 168.141 5659.09 166.41 Z M 5660.87 161.379 C 5659.15 161.379 5657.4 161.469 5655.65 161.59 C 5654.92 161.629 5654.25 162 5653.81 162.59 C 5653.38 163.18 5653.22 163.93 5653.39 164.641 C 5654.2 168.109 5655.57 171.582 5657.7 175.57 C 5658.14 176.379 5659.13 176.781 5659.94 176.891 L 5661.38 176.879 C 5662.55 176.879 5663.68 176.91 5664.76 177.059 C 5667.96 177.52 5671.17 179.461 5674.57 181.512 C 5677.8 183.449 5680.63 185.141 5683.85 186.359 C 5687.26 187.672 5691.36 188.332 5696.05 188.332 C 5701.05 188.332 5705.68 187.59 5708.69 186.969 C 5710.72 186.582 5712.83 185.988 5714.93 185.352 C 5719.01 184.199 5723.7 182.82 5727.86 183.59 C 5730.99 184.172 5734.75 186.191 5738.39 188.148 L 5739.39 188.68 C 5741.59 189.84 5743.75 190.969 5745.91 191.891 C 5750.08 193.609 5754.95 193.969 5758.31 193.969 C 5762.85 193.969 5767.51 193.301 5771.07 192.16 C 5772.67 191.641 5774.21 191.082 5775.66 190.52 C 5780.36 188.73 5783.53 187.68 5787.14 189.25 C 5793.17 191.922 5802.37 195.461 5812.51 195.461 C 5817 195.461 5821.07 194.789 5825.55 193.969 C 5829.6 193.262 5832.94 192.672 5836.34 192.672 C 5837.71 192.672 5838.84 191.551 5838.84 190.172 L 5838.84 179.73 C 5838.84 178.352 5837.71 177.23 5836.34 177.23 C 5831.83 177.23 5827.64 177.941 5823.37 178.719 L 5822.76 178.832 C 5819.26 179.449 5815.94 180.02 5812.51 180.02 C 5804.9 180.02 5797.63 177.281 5792.14 174.891 C 5789.25 173.602 5786.4 172.961 5783.45 172.961 C 5778.95 172.961 5775.11 174.43 5771.41 175.84 C 5769.97 176.41 5768.67 176.898 5767.31 177.332 C 5762.49 178.82 5754.12 178.871 5750.73 177.422 C 5748.9 176.641 5747.09 175.68 5745.23 174.691 L 5744.29 174.191 C 5740.06 171.922 5735.25 169.332 5730.1 168.359 C 5723.47 167.199 5717.24 168.77 5711.55 170.398 C 5709.74 170.922 5707.95 171.43 5706.21 171.801 C 5698.89 173.242 5692.14 173.219 5688.27 171.742 C 5686.03 170.891 5683.93 169.629 5681.69 168.301 L 5681.12 167.961 C 5677 165.441 5672.29 162.582 5666.49 161.762 C 5664.8 161.512 5662.96 161.379 5660.87 161.379"/>
    <path id="path576" style="fill:#425059;fill-opacity:1;fill-rule:nonzero;stroke:none" d="M 5851.45 201.602 L 5887.92 201.602 L 5887.92 142.102 L 5851.45 142.102 L 5851.45 201.602"/>
    <path id="path578" style="fill:#000000;fill-opacity:1;fill-rule:nonzero;stroke:none" d="M 5853.95 144.602 L 5885.42 144.602 L 5885.42 199.102 L 5853.95 199.102 L 5853.95 144.602 Z M 5887.92 139.602 L 5851.45 139.602 C 5850.07 139.602 5848.95 140.73 5848.95 142.102 L 5848.95 201.602 C 5848.95 202.98 5850.07 204.102 5851.45 204.102 L 5887.92 204.102 C 5889.3 204.102 5890.42 202.98 5890.42 201.602 L 5890.42 142.102 C 5890.42 140.73 5889.3 139.602 5887.92 139.602"/>
    <path id="path580" style="fill:#8192a4;fill-opacity:1;fill-rule:nonzero;stroke:none" d="M 5887.92 117.52 L 5990.619 117.52 L 5990.619 223.629 L 5887.92 223.629 L 5887.92 117.52 Z"/>
    <path id="path582" style="fill:#000000;fill-opacity:1;fill-rule:nonzero;stroke:none" d="M 5890.42 120.02 L 5988.12 120.02 L 5988.12 221.129 L 5890.42 221.129 L 5890.42 120.02 Z M 5990.62 115.02 L 5887.92 115.02 C 5886.54 115.02 5885.42 116.148 5885.42 117.52 L 5885.42 223.629 C 5885.42 225 5886.54 226.129 5887.92 226.129 L 5990.62 226.129 C 5991.99 226.129 5993.12 225 5993.12 223.629 L 5993.12 117.52 C 5993.12 116.148 5991.99 115.02 5990.62 115.02"/>
    <path id="path584" style="fill:#eb4900;fill-opacity:1;fill-rule:nonzero;stroke:none" d="M 5990.62 130.469 L 6008.089 130.469 L 6008.089 210.672 L 5990.62 210.672 L 5990.62 130.469 Z"/>
    <path id="path586" style="fill:#000000;fill-opacity:1;fill-rule:nonzero;stroke:none" d="M 5993.12 132.969 L 6005.59 132.969 L 6005.59 208.172 L 5993.12 208.172 L 5993.12 132.969 Z M 6008.09 127.969 L 5990.62 127.969 C 5989.24 127.969 5988.12 129.102 5988.12 130.469 L 5988.12 210.672 C 5988.12 212.039 5989.24 213.172 5990.62 213.172 L 6008.09 213.172 C 6009.46 213.172 6010.59 212.039 6010.59 210.672 L 6010.59 130.469 C 6010.59 129.102 6009.46 127.969 6008.09 127.969"/>
    <path id="path588" style="fill:#425059;fill-opacity:1;fill-rule:nonzero;stroke:none" d="M 6008.09 134.98 L 6027.621 134.98 L 6027.621 206.14 L 6008.09 206.14 L 6008.09 134.98 Z"/>
    <path id="path590" style="fill:#000000;fill-opacity:1;fill-rule:nonzero;stroke:none" d="M 6010.59 137.48 L 6025.12 137.48 L 6025.12 203.641 L 6010.59 203.641 L 6010.59 137.48 Z M 6027.62 132.48 L 6008.09 132.48 C 6006.71 132.48 6005.59 133.609 6005.59 134.98 L 6005.59 206.141 C 6005.59 207.512 6006.71 208.641 6008.09 208.641 L 6027.62 208.641 C 6028.99 208.641 6030.12 207.512 6030.12 206.141 L 6030.12 134.98 C 6030.12 133.609 6028.99 132.48 6027.62 132.48"/>
    <path id="path592" style="fill:#8192a4;fill-opacity:1;fill-rule:nonzero;stroke:none" d="M 5848.92 154.441 L 6027.619 154.441 L 6027.619 186.679 L 5848.92 186.679 L 5848.92 154.441 Z"/>
    <path id="path594" style="fill:#000000;fill-opacity:1;fill-rule:nonzero;stroke:none" d="M 5851.42 156.941 L 6025.12 156.941 L 6025.12 184.18 L 5851.42 184.18 L 5851.42 156.941 Z M 6027.62 151.941 L 5848.92 151.941 C 5847.54 151.941 5846.42 153.059 5846.42 154.441 L 5846.42 186.68 C 5846.42 188.059 5847.54 189.18 5848.92 189.18 L 6027.62 189.18 C 6028.99 189.18 6030.12 188.059 6030.12 186.68 L 6030.12 154.441 C 6030.12 153.059 6028.99 151.941 6027.62 151.941"/>
    <path id="path596" style="fill:#425059;fill-opacity:1;fill-rule:nonzero;stroke:none" d="M 6030.19 127.398 L 6049.67 127.398 L 6049.67 213.718 L 6030.19 213.718 L 6030.19 127.398 Z"/>
    <path id="path598" style="fill:#000000;fill-opacity:1;fill-rule:nonzero;stroke:none" d="M 6032.69 129.898 L 6047.17 129.898 L 6047.17 211.219 L 6032.69 211.219 L 6032.69 129.898 Z M 6049.67 124.898 L 6030.19 124.898 C 6028.81 124.898 6027.69 126.02 6027.69 127.398 L 6027.69 213.719 C 6027.69 215.102 6028.81 216.219 6030.19 216.219 L 6049.67 216.219 C 6051.04 216.219 6052.17 215.102 6052.17 213.719 L 6052.17 127.398 C 6052.17 126.02 6051.04 124.898 6049.67 124.898"/>
    <path id="path600" style="fill:#8192a4;fill-opacity:1;fill-rule:nonzero;stroke:none" d="M 6027.62 117.52 L 6039.94 117.52 L 6039.94 223.629 L 6027.62 223.629 L 6027.62 117.52 Z"/>
    <path id="path602" style="fill:#000000;fill-opacity:1;fill-rule:nonzero;stroke:none" d="M 6030.12 120.02 L 6037.44 120.02 L 6037.44 221.129 L 6030.12 221.129 L 6030.12 120.02 Z M 6039.94 115.02 L 6027.62 115.02 C 6026.24 115.02 6025.12 116.148 6025.12 117.52 L 6025.12 223.629 C 6025.12 225 6026.24 226.129 6027.62 226.129 L 6039.94 226.129 C 6041.32 226.129 6042.44 225 6042.44 223.629 L 6042.44 117.52 C 6042.44 116.148 6041.32 115.02 6039.94 115.02"/>
    <path id="path604" style="fill:#8192a4;fill-opacity:1;fill-rule:nonzero;stroke:none" d="M 5811.35 136.941 L 5836.03 136.941 L 5836.03 223.628 L 5811.35 223.628 L 5811.35 136.941 Z"/>
    <path id="path606" style="fill:#000000;fill-opacity:1;fill-rule:nonzero;stroke:none" d="M 5813.85 139.441 L 5833.53 139.441 L 5833.53 221.129 L 5813.85 221.129 L 5813.85 139.441 Z M 5836.03 134.441 L 5811.35 134.441 C 5809.97 134.441 5808.85 135.559 5808.85 136.941 L 5808.85 223.629 C 5808.85 225 5809.97 226.129 5811.35 226.129 L 5836.03 226.129 C 5837.4 226.129 5838.53 225 5838.53 223.629 L 5838.53 136.941 C 5838.53 135.559 5837.4 134.441 5836.03 134.441"/>
    <path id="path608" style="fill:#8192a4;fill-opacity:1;fill-rule:nonzero;stroke:none" d="M 5836.03 123.012 L 5879.241 123.012 L 5879.241 223.629 L 5836.03 223.629 L 5836.03 123.012 Z"/>
    <path id="path610" style="fill:#000000;fill-opacity:1;fill-rule:nonzero;stroke:none" d="M 5838.53 125.512 L 5876.74 125.512 L 5876.74 221.129 L 5838.53 221.129 L 5838.53 125.512 Z M 5879.24 120.512 L 5836.03 120.512 C 5834.65 120.512 5833.53 121.629 5833.53 123.012 L 5833.53 223.629 C 5833.53 225 5834.65 226.129 5836.03 226.129 L 5879.24 226.129 C 5880.62 226.129 5881.74 225 5881.74 223.629 L 5881.74 123.012 C 5881.74 121.629 5880.62 120.512 5879.24 120.512"/>
    <path id="path612" style="fill:#bcc4cd;fill-opacity:1;fill-rule:nonzero;stroke:none" d="M 5887.92 146.52 L 5990.619 146.52 L 5990.619 194.583 L 5887.92 194.583 L 5887.92 146.52 Z"/>
    <path id="path614" style="fill:#000000;fill-opacity:1;fill-rule:nonzero;stroke:none" d="M 5890.42 149.02 L 5988.12 149.02 L 5988.12 192.082 L 5890.42 192.082 L 5890.42 149.02 Z M 5990.62 144.02 L 5887.92 144.02 C 5886.54 144.02 5885.42 145.141 5885.42 146.52 L 5885.42 194.582 C 5885.42 195.961 5886.54 197.082 5887.92 197.082 L 5990.62 197.082 C 5991.99 197.082 5993.12 195.961 5993.12 194.582 L 5993.12 146.52 C 5993.12 145.141 5991.99 144.02 5990.62 144.02"/>
    <path id="path616" style="fill:#d33605;fill-opacity:1;fill-rule:nonzero;stroke:none" d="M 5990.62 152.398 L 6008.089 152.398 L 6008.089 188.73 L 5990.62 188.73 L 5990.62 152.398 Z"/>
    <path id="path618" style="fill:#000000;fill-opacity:1;fill-rule:nonzero;stroke:none" d="M 5993.12 154.898 L 6005.59 154.898 L 6005.59 186.23 L 5993.12 186.23 L 5993.12 154.898 Z M 6008.09 149.898 L 5990.62 149.898 C 5989.24 149.898 5988.12 151.02 5988.12 152.398 L 5988.12 188.73 C 5988.12 190.109 5989.24 191.23 5990.62 191.23 L 6008.09 191.23 C 6009.46 191.23 6010.59 190.109 6010.59 188.73 L 6010.59 152.398 C 6010.59 151.02 6009.46 149.898 6008.09 149.898"/>
    <path id="path620" style="fill:#8192a4;fill-opacity:1;fill-rule:nonzero;stroke:none" d="M 6030.19 151.02 L 6049.67 151.02 L 6049.67 190.129 L 6030.19 190.129 L 6030.19 151.02 Z"/>
    <path id="path622" style="fill:#000000;fill-opacity:1;fill-rule:nonzero;stroke:none" d="M 6032.69 153.52 L 6047.17 153.52 L 6047.17 187.629 L 6032.69 187.629 L 6032.69 153.52 Z M 6049.67 148.52 L 6030.19 148.52 C 6028.81 148.52 6027.69 149.641 6027.69 151.02 L 6027.69 190.129 C 6027.69 191.512 6028.81 192.629 6030.19 192.629 L 6049.67 192.629 C 6051.04 192.629 6052.17 191.512 6052.17 190.129 L 6052.17 151.02 C 6052.17 149.641 6051.04 148.52 6049.67 148.52"/>
    <path id="path624" style="fill:#8192a4;fill-opacity:1;fill-rule:nonzero;stroke:none" d="M 6049.2 117.52 L 6067.673 117.52 L 6067.673 223.629 L 6049.2 223.629 L 6049.2 117.52 Z"/>
    <path id="path626" style="fill:#000000;fill-opacity:1;fill-rule:nonzero;stroke:none" d="M 6051.7 120.02 L 6065.17 120.02 L 6065.17 221.129 L 6051.7 221.129 L 6051.7 120.02 Z M 6067.67 115.02 L 6049.2 115.02 C 6047.82 115.02 6046.7 116.148 6046.7 117.52 L 6046.7 223.629 C 6046.7 225 6047.82 226.129 6049.2 226.129 L 6067.67 226.129 C 6069.04 226.129 6070.17 225 6070.17 223.629 L 6070.17 117.52 C 6070.17 116.148 6069.04 115.02 6067.67 115.02"/>
    <path id="path628" style="fill:#bcc4cd;fill-opacity:1;fill-rule:nonzero;stroke:none" d="M 6049.2 146.551 L 6067.673 146.551 L 6067.673 194.582 L 6049.2 194.582 L 6049.2 146.551 Z"/>
    <path id="path630" style="fill:#000000;fill-opacity:1;fill-rule:nonzero;stroke:none" d="M 6051.7 149.051 L 6065.17 149.051 L 6065.17 192.082 L 6051.7 192.082 L 6051.7 149.051 Z M 6067.67 144.051 L 6049.2 144.051 C 6047.82 144.051 6046.7 145.172 6046.7 146.551 L 6046.7 194.582 C 6046.7 195.961 6047.82 197.082 6049.2 197.082 L 6067.67 197.082 C 6069.04 197.082 6070.17 195.961 6070.17 194.582 L 6070.17 146.551 C 6070.17 145.172 6069.04 144.051 6067.67 144.051"/>
    <path id="path632" style="fill:#bcc4cd;fill-opacity:1;fill-rule:nonzero;stroke:none" d="M 6027.62 146.52 L 6039.94 146.52 L 6039.94 194.583 L 6027.62 194.583 L 6027.62 146.52 Z"/>
    <path id="path634" style="fill:#000000;fill-opacity:1;fill-rule:nonzero;stroke:none" d="M 6030.12 149.02 L 6037.44 149.02 L 6037.44 192.082 L 6030.12 192.082 L 6030.12 149.02 Z M 6039.94 144.02 L 6027.62 144.02 C 6026.24 144.02 6025.12 145.141 6025.12 146.52 L 6025.12 194.582 C 6025.12 195.961 6026.24 197.082 6027.62 197.082 L 6039.94 197.082 C 6041.32 197.082 6042.44 195.961 6042.44 194.582 L 6042.44 146.52 C 6042.44 145.141 6041.32 144.02 6039.94 144.02"/>
    <path id="path636" style="fill:#8192a4;fill-opacity:1;fill-rule:nonzero;stroke:none" d="M 5833.01 172.98 L 5800.65 172.98 C 5799.33 172.98 5798.26 171.891 5798.26 170.559 C 5798.26 169.25 5799.33 168.16 5800.65 168.16 L 5833.01 168.16 L 5833.01 172.98 Z M 5785.42 170.559 C 5785.42 178.992 5792.24 185.789 5800.65 185.789 L 5845.85 185.789 L 5845.85 155.34 L 5800.65 155.34 C 5792.24 155.34 5785.42 162.148 5785.42 170.559"/>
    <path id="path638" style="fill:#000000;fill-opacity:1;fill-rule:nonzero;stroke:none" d="M 5833.01 165.66 L 5800.65 165.66 C 5797.96 165.66 5795.76 167.852 5795.76 170.559 C 5795.76 173.27 5797.96 175.48 5800.65 175.48 L 5833.01 175.48 C 5834.38 175.48 5835.51 174.359 5835.51 172.98 L 5835.51 168.16 C 5835.51 166.781 5834.38 165.66 5833.01 165.66 Z M 5800.65 183.289 C 5793.63 183.289 5787.92 177.582 5787.92 170.559 C 5787.92 163.551 5793.63 157.84 5800.65 157.84 L 5843.35 157.84 L 5843.35 183.289 L 5800.65 183.289 Z M 5845.85 152.84 L 5800.65 152.84 C 5790.88 152.84 5782.92 160.781 5782.92 170.559 C 5782.92 180.34 5790.88 188.289 5800.65 188.289 L 5845.85 188.289 C 5847.23 188.289 5848.35 187.172 5848.35 185.789 L 5848.35 155.34 C 5848.35 153.961 5847.23 152.84 5845.85 152.84"/>
    <path id="path640" style="fill:#bcc4cd;fill-opacity:1;fill-rule:nonzero;stroke:none" d="M 5851.45 149.02 C 5836.1 149.02 5831.87 158.672 5831.87 170.551 C 5831.87 182.469 5836.1 192.121 5851.45 192.121 L 5879.24 192.121 L 5879.24 149.02 C 5879.24 149.02 5866.79 149.02 5851.45 149.02"/>
    <path id="path642" style="fill:#000000;fill-opacity:1;fill-rule:nonzero;stroke:none" d="M 5851.45 189.621 C 5839.63 189.621 5834.37 183.738 5834.37 170.551 C 5834.37 157.391 5839.63 151.52 5851.45 151.52 L 5876.74 151.52 L 5876.74 189.621 L 5851.45 189.621 Z M 5879.24 146.52 L 5851.45 146.52 C 5836.8 146.52 5829.37 154.602 5829.37 170.551 C 5829.37 186.531 5836.8 194.621 5851.45 194.621 L 5879.24 194.621 C 5880.62 194.621 5881.74 193.5 5881.74 192.121 L 5881.74 149.02 C 5881.74 147.641 5880.62 146.52 5879.24 146.52"/>
    <path id="path644" style="fill:#8192a4;fill-opacity:1;fill-rule:nonzero;stroke:none" d="M 5990.62 146.52 L 5990.62 117.52 L 5887.92 117.52 L 5887.92 146.52 L 5990.62 146.52"/>
    <path id="path646" style="fill:#000000;fill-opacity:1;fill-rule:nonzero;stroke:none" d="M 5890.42 120.02 L 5988.12 120.02 L 5988.12 144.02 L 5890.42 144.02 L 5890.42 120.02 Z M 5990.62 115.02 L 5887.92 115.02 C 5886.54 115.02 5885.42 116.148 5885.42 117.52 L 5885.42 146.52 C 5885.42 147.891 5886.54 149.02 5887.92 149.02 L 5990.62 149.02 C 5991.99 149.02 5993.12 147.891 5993.12 146.52 L 5993.12 117.52 C 5993.12 116.148 5991.99 115.02 5990.62 115.02"/>
    <path id="path648" style="fill:#eb4900;fill-opacity:1;fill-rule:nonzero;stroke:none" d="M 6008.09 152.398 L 6008.09 130.469 L 5990.62 130.469 L 5990.62 152.398 L 6008.09 152.398"/>
    <path id="path650" style="fill:#000000;fill-opacity:1;fill-rule:nonzero;stroke:none" d="M 5993.12 132.969 L 6005.59 132.969 L 6005.59 149.898 L 5993.12 149.898 L 5993.12 132.969 Z M 6008.09 127.969 L 5990.62 127.969 C 5989.24 127.969 5988.12 129.102 5988.12 130.469 L 5988.12 152.398 C 5988.12 153.77 5989.24 154.898 5990.62 154.898 L 6008.09 154.898 C 6009.46 154.898 6010.59 153.77 6010.59 152.398 L 6010.59 130.469 C 6010.59 129.102 6009.46 127.969 6008.09 127.969"/>
    <path id="path652" style="fill:#425059;fill-opacity:1;fill-rule:nonzero;stroke:none" d="M 5896.74 138.23 L 5912.217 138.23 L 5912.217 202.921 L 5896.74 202.921 L 5896.74 138.23 Z"/>
    <path id="path654" style="fill:#000000;fill-opacity:1;fill-rule:nonzero;stroke:none" d="M 5899.24 140.73 L 5909.72 140.73 L 5909.72 200.422 L 5899.24 200.422 L 5899.24 140.73 Z M 5912.22 135.73 L 5896.74 135.73 C 5895.36 135.73 5894.24 136.852 5894.24 138.23 L 5894.24 202.922 C 5894.24 204.301 5895.36 205.422 5896.74 205.422 L 5912.22 205.422 C 5913.59 205.422 5914.72 204.301 5914.72 202.922 L 5914.72 138.23 C 5914.72 136.852 5913.59 135.73 5912.22 135.73"/>
    <path id="path656" style="fill:#425059;fill-opacity:1;fill-rule:nonzero;stroke:none" d="M 5966.35 138.23 L 5981.799 138.23 L 5981.799 202.921 L 5966.35 202.921 L 5966.35 138.23 Z"/>
    <path id="path658" style="fill:#000000;fill-opacity:1;fill-rule:nonzero;stroke:none" d="M 5968.85 140.73 L 5979.3 140.73 L 5979.3 200.422 L 5968.85 200.422 L 5968.85 140.73 Z M 5981.8 135.73 L 5966.35 135.73 C 5964.97 135.73 5963.85 136.852 5963.85 138.23 L 5963.85 202.922 C 5963.85 204.301 5964.97 205.422 5966.35 205.422 L 5981.8 205.422 C 5983.17 205.422 5984.3 204.301 5984.3 202.922 L 5984.3 138.23 C 5984.3 136.852 5983.17 135.73 5981.8 135.73"/>
    <path id="path660" style="fill:#425059;fill-opacity:1;fill-rule:nonzero;stroke:none" d="M 5931.56 138.23 L 5946.982 138.23 L 5946.982 202.921 L 5931.56 202.921 L 5931.56 138.23 Z"/>
    <path id="path662" style="fill:#000000;fill-opacity:1;fill-rule:nonzero;stroke:none" d="M 5934.06 140.73 L 5944.48 140.73 L 5944.48 200.422 L 5934.06 200.422 L 5934.06 140.73 Z M 5946.98 135.73 L 5931.56 135.73 C 5930.19 135.73 5929.06 136.852 5929.06 138.23 L 5929.06 202.922 C 5929.06 204.301 5930.19 205.422 5931.56 205.422 L 5946.98 205.422 C 5948.36 205.422 5949.48 204.301 5949.48 202.922 L 5949.48 138.23 C 5949.48 136.852 5948.36 135.73 5946.98 135.73"/>
    <path id="path664" style="fill:#425059;fill-opacity:1;fill-rule:nonzero;stroke:none" d="M 5817.51 194.582 C 5817.51 189.051 5822 184.559 5827.55 184.559 L 5864.18 184.559 C 5869.73 184.559 5874.22 189.051 5874.22 194.582 L 5874.22 194.582 C 5874.22 200.141 5869.73 204.648 5864.18 204.648 L 5827.55 204.648 C 5822 204.648 5817.51 200.141 5817.51 194.582 L 5817.51 194.582"/>
    <path id="path666" style="fill:#000000;fill-opacity:1;fill-rule:nonzero;stroke:none" d="M 5827.55 202.148 C 5823.39 202.148 5820.01 198.75 5820.01 194.582 C 5820.01 190.43 5823.39 187.059 5827.55 187.059 L 5864.18 187.059 C 5868.34 187.059 5871.72 190.43 5871.72 194.582 C 5871.72 198.75 5868.34 202.148 5864.18 202.148 L 5827.55 202.148 Z M 5864.18 182.059 L 5827.55 182.059 C 5820.63 182.059 5815.01 187.68 5815.01 194.582 C 5815.01 201.52 5820.63 207.148 5827.55 207.148 L 5864.18 207.148 C 5871.09 207.148 5876.72 201.52 5876.72 194.582 C 5876.72 187.68 5871.09 182.059 5864.18 182.059"/>
    <path id="path668" style="fill:#222b30;fill-opacity:1;fill-rule:nonzero;stroke:none" d="M 5827.55 194.609 L 5864.18 194.609 C 5867.85 194.609 5870.92 192.531 5872.66 189.582 C 5870.92 186.641 5867.85 184.559 5864.18 184.559 L 5827.55 184.559 C 5823.88 184.559 5820.81 186.641 5819.04 189.582 C 5820.81 192.531 5823.88 194.609 5827.55 194.609"/>
    <path id="path670" style="fill:#000000;fill-opacity:1;fill-rule:nonzero;stroke:none" d="M 5822.13 189.582 C 5823.55 187.98 5825.5 187.059 5827.55 187.059 L 5864.18 187.059 C 5866.24 187.059 5868.17 187.98 5869.58 189.582 C 5868.17 191.18 5866.24 192.109 5864.18 192.109 L 5827.55 192.109 C 5825.5 192.109 5823.55 191.191 5822.13 189.582 Z M 5864.18 182.059 L 5827.55 182.059 C 5823.22 182.059 5819.25 184.398 5816.9 188.289 C 5816.43 189.09 5816.43 190.07 5816.89 190.871 C 5819.24 194.781 5823.22 197.109 5827.55 197.109 L 5864.18 197.109 C 5868.53 197.109 5872.5 194.77 5874.81 190.852 C 5875.27 190.07 5875.27 189.102 5874.8 188.309 C 5872.49 184.398 5868.53 182.059 5864.18 182.059"/>
    <path id="path672" style="fill:#f4d9bd;fill-opacity:1;fill-rule:nonzero;stroke:none" d="M 5683.64 274.891 C 5667.99 256.02 5657.2 237.191 5649.81 220.699 C 5638.89 196.34 5708.4 154.582 5714.33 150.988 C 5754.16 126.648 5772.72 180.711 5757.13 191.59 C 5738.35 204.641 5700.94 206.492 5705.63 224.102 C 5722.36 286.449 5737.94 303.012 5741.88 311.371 C 5741.88 311.371 5717.27 315.371 5683.64 274.891"/>
    <path id="path674" style="fill:#000000;fill-opacity:1;fill-rule:nonzero;stroke:none" d="M 5737.62 308.859 C 5729.64 308.102 5710.18 302.922 5685.57 273.281 C 5671.91 256.84 5660.65 238.801 5652.1 219.672 C 5644.79 203.379 5681.63 173.711 5715.41 153.262 C 5722 149.23 5728.1 147.262 5733.74 147.262 C 5747.18 147.262 5755.51 158.582 5758.55 168.27 C 5761.47 177.582 5760.3 186.32 5755.7 189.531 C 5749.08 194.129 5739.91 197.332 5731.05 200.422 C 5714.9 206.051 5699.65 211.371 5703.22 224.75 C 5716.83 275.441 5729.95 296.539 5736.26 306.672 C 5736.75 307.461 5737.21 308.191 5737.62 308.859 Z M 5733.74 142.262 L 5733.74 142.262 C 5727.16 142.262 5720.19 144.48 5713.03 148.859 C 5689.67 163 5636.96 198.16 5647.53 221.719 C 5656.28 241.262 5667.78 259.68 5681.72 276.48 C 5710.62 311.27 5733.58 313.98 5739.94 313.98 C 5741.47 313.98 5742.29 313.84 5742.29 313.84 C 5743.06 313.699 5743.73 313.219 5744.09 312.52 C 5744.45 311.832 5744.48 311.012 5744.15 310.309 C 5743.32 308.559 5742.08 306.57 5740.51 304.039 C 5733.85 293.34 5721.46 273.43 5708.05 223.461 C 5705.84 215.16 5715.89 211 5732.7 205.141 C 5741.88 201.949 5751.37 198.641 5758.55 193.641 C 5765.04 189.109 5766.95 178.32 5763.32 166.781 C 5759.77 155.461 5749.88 142.262 5733.74 142.262"/>
    <path id="path676" style="fill:#f4d9bd;fill-opacity:1;fill-rule:nonzero;stroke:none" d="M 5792.99 145.66 C 5795.15 133.57 5787.08 122.02 5774.99 119.91 L 5746.04 114.781 C 5733.96 112.66 5722.46 120.742 5720.33 132.852 L 5715.23 161.742 C 5713.11 173.84 5721.19 185.352 5733.25 187.469 L 5762.17 192.602 C 5774.27 194.719 5785.75 186.648 5787.89 174.559 L 5792.99 145.66"/>
    <path id="path678" style="fill:#000000;fill-opacity:1;fill-rule:nonzero;stroke:none" d="M 5766.04 190.441 C 5764.9 190.441 5763.76 190.352 5762.6 190.141 L 5733.69 185.012 C 5728.51 184.102 5723.99 181.219 5720.97 176.922 C 5717.95 172.602 5716.79 167.371 5717.7 162.172 L 5722.79 133.27 C 5724.66 122.691 5734.76 115.301 5745.62 117.238 L 5774.55 122.371 C 5779.75 123.27 5784.26 126.16 5787.28 130.469 C 5790.3 134.789 5791.46 140.02 5790.53 145.219 L 5785.43 174.129 C 5783.76 183.582 5775.61 190.441 5766.04 190.441 Z M 5742.18 111.941 C 5730.18 111.941 5719.95 120.551 5717.87 132.422 L 5712.77 161.309 C 5711.63 167.82 5713.09 174.379 5716.88 179.789 C 5720.66 185.191 5726.33 188.789 5732.82 189.93 L 5761.73 195.059 C 5775.51 197.469 5788.02 188.242 5790.35 175 L 5795.45 146.09 C 5796.61 139.582 5795.17 133.02 5791.38 127.602 C 5787.59 122.191 5781.92 118.59 5775.42 117.441 L 5746.48 112.32 C 5745.03 112.059 5743.59 111.941 5742.18 111.941"/>
    <path id="path680" style="fill:#72716d;fill-opacity:1;fill-rule:nonzero;stroke:none" d="M 5752.86 182.898 L 5725.01 146.27 C 5721.5 141.691 5714.97 140.781 5710.37 144.301 L 5678.88 168.309 C 5674.28 171.801 5673.37 178.332 5676.9 182.922 L 5704.79 219.52 C 5708.26 224.102 5714.81 225 5719.42 221.492 L 5750.89 197.512 C 5755.49 194.031 5756.38 187.469 5752.86 182.898"/>
    <path id="path682" style="fill:#000000;fill-opacity:1;fill-rule:nonzero;stroke:none" d="M 5713.09 221.141 C 5710.59 221.141 5708.28 219.988 5706.78 218 L 5678.9 181.41 C 5677.6 179.719 5677.03 177.648 5677.31 175.559 C 5677.6 173.461 5678.69 171.602 5680.39 170.309 L 5711.88 146.289 C 5715.28 143.68 5720.43 144.398 5723.03 147.801 L 5750.87 184.422 C 5752.17 186.109 5752.72 188.18 5752.44 190.27 C 5752.16 192.379 5751.07 194.242 5749.38 195.52 L 5717.91 219.5 C 5716.5 220.57 5714.83 221.141 5713.09 221.141 Z M 5716.69 139.648 C 5713.84 139.648 5711.13 140.57 5708.86 142.32 L 5677.36 166.32 C 5674.6 168.422 5672.82 171.469 5672.36 174.898 C 5671.9 178.309 5672.81 181.711 5674.92 184.449 L 5702.79 221.031 C 5706.97 226.539 5715.4 227.711 5720.94 223.48 L 5752.4 199.512 C 5755.17 197.422 5756.93 194.371 5757.4 190.93 C 5757.86 187.512 5756.95 184.109 5754.84 181.379 L 5727 144.762 C 5724.51 141.52 5720.76 139.648 5716.69 139.648"/>
    <path id="path684" style="fill:#72716d;fill-opacity:1;fill-rule:nonzero;stroke:none" d="M 5667.13 259.57 C 5671.96 246.16 5686.82 239.25 5700.23 244.121 L 5738.93 258.242 C 5752.34 263.102 5759.23 277.949 5754.38 291.352 L 5749.87 303.75 C 5744.98 317.109 5730.14 324.02 5716.75 319.148 L 5678.08 305.09 C 5664.63 300.191 5657.71 285.359 5662.61 271.949 L 5667.13 259.57"/>
    <path id="path686" style="fill:#000000;fill-opacity:1;fill-rule:nonzero;stroke:none" d="M 5725.57 318.219 C 5722.85 318.219 5720.18 317.742 5717.6 316.801 L 5678.93 302.742 C 5673.06 300.602 5668.37 296.309 5665.73 290.66 C 5663.1 285 5662.82 278.672 5664.96 272.809 L 5669.47 260.43 C 5672.79 251.23 5681.6 245.059 5691.4 245.059 L 5691.4 245.059 C 5694.11 245.059 5696.8 245.539 5699.38 246.48 L 5738.07 260.59 C 5750.16 264.961 5756.42 278.379 5752.02 290.5 L 5747.52 302.898 C 5744.17 312.051 5735.34 318.219 5725.57 318.219 Z M 5691.4 240.059 L 5691.4 240.059 C 5679.49 240.059 5668.8 247.559 5664.78 258.719 L 5660.26 271.09 C 5657.67 278.211 5658 285.91 5661.2 292.77 C 5664.4 299.629 5670.09 304.84 5677.22 307.441 L 5715.9 321.512 C 5719.01 322.641 5722.27 323.219 5725.57 323.219 C 5737.43 323.219 5748.14 315.742 5752.22 304.609 L 5756.73 292.199 C 5762.05 277.488 5754.45 261.199 5739.78 255.879 L 5701.09 241.77 C 5697.96 240.641 5694.7 240.059 5691.4 240.059"/>
    <path id="path688" style="fill:#59abe2;fill-opacity:1;fill-rule:nonzero;stroke:none" d="M 5672.4 284.82 C 5675.61 275.941 5685.38 271.398 5694.25 274.609 L 5719.83 283.922 C 5728.68 287.148 5733.25 296.949 5730.03 305.77 L 5727.04 313.992 C 5723.82 322.82 5714.04 327.391 5705.18 324.16 L 5679.61 314.871 C 5670.74 311.641 5666.19 301.84 5669.44 293 L 5672.4 284.82"/>
    <path id="path690" style="fill:#000000;fill-opacity:1;fill-rule:nonzero;stroke:none" d="M 5711.02 322.699 C 5709.32 322.699 5707.64 322.398 5706.03 321.809 L 5680.46 312.512 C 5676.81 311.18 5673.89 308.512 5672.25 304.98 C 5670.62 301.461 5670.45 297.512 5671.79 293.859 L 5674.76 285.672 C 5676.83 279.93 5682.3 276.082 5688.41 276.082 L 5688.41 276.082 C 5690.11 276.082 5691.78 276.379 5693.4 276.969 L 5718.97 286.27 C 5726.52 289.031 5730.43 297.398 5727.69 304.922 L 5724.69 313.129 C 5722.61 318.852 5717.11 322.699 5711.02 322.699 Z M 5688.41 271.082 L 5688.41 271.082 C 5680.21 271.082 5672.83 276.262 5670.05 283.969 L 5667.09 292.148 C 5665.29 297.039 5665.51 302.352 5667.71 307.09 C 5669.91 311.832 5673.84 315.43 5678.76 317.219 L 5704.33 326.52 C 5706.48 327.301 5708.73 327.699 5711.02 327.699 C 5719.2 327.699 5726.58 322.531 5729.38 314.852 L 5732.38 306.629 C 5736.07 296.52 5730.83 285.281 5720.69 281.582 L 5695.11 272.262 C 5692.94 271.48 5690.68 271.082 5688.41 271.082"/>
  </g>
</svg>