<?xml version="1.0" encoding="utf-8"?>
<svg viewBox="271.4100036621094 9.210000038146973 103.57499694824219 83.95099639892578" width="103.57499694824219" height="83.95099639892578" xmlns="http://www.w3.org/2000/svg">
  <g transform="matrix(0.12500000186264515, 0, 0, -0.12500000186264515, 0, 526.1375122070312)">
    <path id="path22" style="fill:#ddd8bf;fill-opacity:1;fill-rule:nonzero;stroke:none" d="M 2755 3490.96 C 2755 3475.97 2643.69 3463.81 2506.39 3463.81 C 2369.08 3463.81 2257.77 3475.97 2257.77 3490.96 C 2257.77 3505.95 2369.08 3518.11 2506.39 3518.11 C 2643.69 3518.11 2755 3505.95 2755 3490.96"/>
    <path id="path1024" style="fill:#7f5e2f;fill-opacity:1;fill-rule:nonzero;stroke:none" d="M 2407.57 3491.19 L 2374.21 3491.19 L 2374.21 3582.21 L 2440.96 3582.21 L 2407.57 3491.19"/>
    <path id="path1026" style="fill:#000000;fill-opacity:1;fill-rule:nonzero;stroke:none" d="M 2376.71 3493.69 L 2405.82 3493.69 L 2437.38 3579.71 L 2376.71 3579.71 L 2376.71 3493.69 Z M 2407.57 3488.69 L 2374.21 3488.69 C 2372.83 3488.69 2371.71 3489.81 2371.71 3491.19 L 2371.71 3582.21 C 2371.71 3583.59 2372.83 3584.71 2374.21 3584.71 L 2440.96 3584.71 C 2441.77 3584.71 2442.54 3584.3 2443.01 3583.64 C 2443.48 3582.97 2443.58 3582.11 2443.31 3581.35 L 2409.92 3490.33 C 2409.56 3489.34 2408.62 3488.69 2407.57 3488.69"/>
    <path id="path1028" style="fill:#7f5e2f;fill-opacity:1;fill-rule:nonzero;stroke:none" d="M 2580.29 3491.19 L 2613.67 3491.19 L 2613.67 3582.21 L 2546.92 3582.21 L 2580.29 3491.19"/>
    <path id="path1030" style="fill:#000000;fill-opacity:1;fill-rule:nonzero;stroke:none" d="M 2582.04 3493.69 L 2611.17 3493.69 L 2611.17 3579.71 L 2550.5 3579.71 L 2582.04 3493.69 Z M 2613.67 3488.69 L 2580.29 3488.69 C 2579.24 3488.69 2578.3 3489.34 2577.94 3490.33 L 2544.58 3581.35 C 2544.3 3582.11 2544.4 3582.97 2544.87 3583.64 C 2545.34 3584.3 2546.11 3584.71 2546.92 3584.71 L 2613.67 3584.71 C 2615.05 3584.71 2616.17 3583.59 2616.17 3582.21 L 2616.17 3491.19 C 2616.17 3489.81 2615.05 3488.69 2613.67 3488.69"/>
    <path id="path1032" style="fill:#593e1c;fill-opacity:1;fill-rule:nonzero;stroke:none" d="M 2608.62 3534.71 C 2608.62 3524.8 2600.58 3516.76 2590.67 3516.76 C 2580.78 3516.76 2572.74 3524.8 2572.74 3534.71 C 2572.74 3544.63 2580.78 3552.66 2590.67 3552.66 C 2600.58 3552.66 2608.62 3544.63 2608.62 3534.71"/>
    <path id="path1034" style="fill:#000000;fill-opacity:1;fill-rule:nonzero;stroke:none" d="M 2590.67 3550.16 C 2582.16 3550.16 2575.24 3543.23 2575.24 3534.71 C 2575.24 3526.19 2582.16 3519.26 2590.67 3519.26 C 2599.19 3519.26 2606.12 3526.19 2606.12 3534.71 C 2606.12 3543.23 2599.19 3550.16 2590.67 3550.16 Z M 2590.67 3514.26 C 2579.4 3514.26 2570.24 3523.44 2570.24 3534.71 C 2570.24 3545.98 2579.4 3555.16 2590.67 3555.16 C 2601.94 3555.16 2611.12 3545.98 2611.12 3534.71 C 2611.12 3523.44 2601.94 3514.26 2590.67 3514.26"/>
    <path id="path1036" style="fill:#593e1c;fill-opacity:1;fill-rule:nonzero;stroke:none" d="M 2415.13 3534.71 C 2415.13 3524.8 2407.1 3516.76 2397.18 3516.76 C 2387.28 3516.76 2379.24 3524.8 2379.24 3534.71 C 2379.24 3544.63 2387.28 3552.66 2397.18 3552.66 C 2407.1 3552.66 2415.13 3544.63 2415.13 3534.71"/>
    <path id="path1038" style="fill:#000000;fill-opacity:1;fill-rule:nonzero;stroke:none" d="M 2397.18 3550.16 C 2388.67 3550.16 2381.74 3543.23 2381.74 3534.71 C 2381.74 3526.19 2388.67 3519.26 2397.18 3519.26 C 2405.7 3519.26 2412.63 3526.19 2412.63 3534.71 C 2412.63 3543.23 2405.7 3550.16 2397.18 3550.16 Z M 2397.18 3514.26 C 2385.91 3514.26 2376.74 3523.44 2376.74 3534.71 C 2376.74 3545.98 2385.91 3555.16 2397.18 3555.16 C 2408.46 3555.16 2417.63 3545.98 2417.63 3534.71 C 2417.63 3523.44 2408.46 3514.26 2397.18 3514.26"/>
    <path id="path1040" style="fill:#593e1c;fill-opacity:1;fill-rule:nonzero;stroke:none" d="M 2378.94 3798.46 C 2362.64 3765.96 2398.35 3726.34 2398.35 3683.46 C 2398.35 3640.59 2362.64 3600.97 2378.94 3568.46 C 2411.45 3552.17 2451.05 3542.5 2493.94 3542.5 C 2536.83 3542.5 2576.44 3552.17 2608.95 3568.46 C 2625.23 3600.97 2589.52 3640.58 2589.52 3683.46 C 2589.52 3726.34 2625.21 3765.96 2608.92 3798.46 C 2576.42 3814.77 2536.8 3824.43 2493.94 3824.43 C 2451.07 3824.43 2411.45 3814.77 2378.94 3798.46"/>
    <path id="path1042" style="fill:#000000;fill-opacity:1;fill-rule:nonzero;stroke:none" d="M 2380.81 3570.33 C 2414.18 3553.75 2453.28 3545 2493.94 3545 C 2534.6 3545 2573.7 3553.75 2607.07 3570.33 C 2615.34 3587.79 2607.84 3608.14 2599.91 3629.66 C 2593.57 3646.88 2587.02 3664.67 2587.02 3683.46 C 2587.02 3702.25 2593.57 3720.04 2599.9 3737.25 C 2607.83 3758.79 2615.31 3779.13 2607.05 3796.61 C 2573.68 3813.18 2534.58 3821.93 2493.94 3821.93 C 2453.27 3821.93 2414.17 3813.17 2380.81 3796.59 C 2372.54 3779.13 2380.03 3758.79 2387.96 3737.26 C 2394.3 3720.05 2400.85 3702.25 2400.85 3683.46 C 2400.85 3664.68 2394.3 3646.89 2387.96 3629.68 C 2380.03 3608.15 2372.54 3587.8 2380.81 3570.33 Z M 2493.94 3540 C 2452.2 3540 2412.05 3549.07 2377.82 3566.23 C 2377.33 3566.47 2376.94 3566.86 2376.7 3567.35 C 2366.88 3586.92 2374.84 3608.53 2383.27 3631.41 C 2389.46 3648.21 2395.85 3665.57 2395.85 3683.46 C 2395.85 3701.36 2389.46 3718.73 2383.27 3735.53 C 2374.84 3758.41 2366.89 3780.01 2376.7 3799.58 C 2376.94 3800.06 2377.33 3800.45 2377.81 3800.69 C 2412.04 3817.86 2452.19 3826.93 2493.94 3826.93 C 2535.67 3826.93 2575.82 3817.86 2610.04 3800.7 C 2610.52 3800.46 2610.91 3800.07 2611.16 3799.58 C 2620.97 3780.01 2613.01 3758.4 2604.59 3735.53 C 2598.41 3718.72 2592.02 3701.36 2592.02 3683.46 C 2592.02 3665.57 2598.42 3648.19 2604.6 3631.39 C 2613.03 3608.52 2620.99 3586.91 2611.18 3567.35 C 2610.94 3566.86 2610.55 3566.47 2610.06 3566.23 C 2575.83 3549.07 2535.68 3540 2493.94 3540"/>
    <path id="path1044" style="fill:#a47a3c;fill-opacity:1;fill-rule:nonzero;stroke:none" d="M 2611.41 3618.02 C 2591.71 3632.05 2396.14 3632.05 2376.44 3618.02 C 2358.17 3605 2355.57 3536.55 2355.57 3536.55 C 2355.57 3536.55 2434.16 3525.77 2456.29 3536.55 C 2467.96 3542.22 2482.29 3561.84 2493.94 3580.42 C 2505.57 3561.84 2519.9 3542.22 2531.57 3536.55 C 2553.69 3525.77 2632.29 3536.55 2632.29 3536.55 C 2632.29 3536.55 2629.68 3605 2611.41 3618.02"/>
    <path id="path1046" style="fill:#000000;fill-opacity:1;fill-rule:nonzero;stroke:none" d="M 2493.94 3582.92 L 2493.94 3582.92 C 2494.79 3582.92 2495.6 3582.47 2496.05 3581.75 C 2510.86 3558.09 2523.52 3543.24 2532.67 3538.8 C 2538.85 3535.79 2550.57 3534.26 2567.51 3534.26 C 2592.52 3534.26 2621.5 3537.7 2629.69 3538.73 C 2628.69 3558.97 2623.58 3606.27 2609.96 3615.98 C 2601.64 3621.91 2553.93 3626.04 2493.93 3626.04 C 2433.92 3626.04 2386.21 3621.91 2377.89 3615.98 C 2364.27 3606.27 2359.17 3558.97 2358.16 3538.73 C 2366.36 3537.7 2395.33 3534.26 2420.34 3534.26 C 2437.29 3534.26 2449.01 3535.79 2455.2 3538.8 C 2464.34 3543.24 2477 3558.09 2491.82 3581.75 C 2492.28 3582.47 2493.08 3582.92 2493.94 3582.92 Z M 2567.52 3529.26 C 2567.51 3529.26 2567.51 3529.26 2567.51 3529.26 C 2549.8 3529.26 2537.34 3530.96 2530.48 3534.3 C 2520.81 3539 2508.53 3552.93 2493.94 3575.75 C 2479.34 3552.93 2467.05 3539 2457.38 3534.3 C 2450.51 3530.96 2438.05 3529.26 2420.34 3529.26 C 2390.67 3529.26 2355.58 3534.03 2355.22 3534.08 C 2353.96 3534.25 2353.02 3535.36 2353.07 3536.64 C 2353.18 3539.49 2355.94 3606.47 2374.99 3620.06 C 2386.38 3628.17 2446.18 3631.04 2493.93 3631.04 C 2541.67 3631.04 2601.47 3628.17 2612.86 3620.06 C 2631.91 3606.47 2634.68 3539.49 2634.79 3536.64 C 2634.84 3535.36 2633.9 3534.25 2632.63 3534.08 C 2632.28 3534.03 2597.19 3529.26 2567.52 3529.26"/>
    <path id="path1048" style="fill:#7f5e2f;fill-opacity:1;fill-rule:nonzero;stroke:none" d="M 2493.86 3586.47 C 2536.29 3586.47 2576.24 3609.04 2612.15 3617.71 C 2612.15 3617.71 2599.19 3638.07 2593.56 3658.83 C 2563.05 3663.93 2530.58 3666.8 2496.64 3666.8 C 2460.63 3666.8 2426.22 3663.59 2394.06 3657.9 C 2388.38 3637.47 2375.72 3617.67 2375.72 3617.67 C 2411.58 3609.03 2451.48 3586.47 2493.86 3586.47"/>
    <path id="path1050" style="fill:#000000;fill-opacity:1;fill-rule:nonzero;stroke:none" d="M 2379.63 3619.27 C 2391.14 3616.25 2402.9 3612 2415.28 3607.53 C 2440.52 3598.41 2466.62 3588.97 2493.86 3588.97 C 2521.15 3588.97 2547.3 3598.43 2572.59 3607.57 C 2584.98 3612.04 2596.74 3616.29 2608.25 3619.31 C 2604.57 3625.54 2596.17 3640.71 2591.59 3656.63 C 2527.5 3667.14 2459.6 3666.78 2396.03 3655.71 C 2391.45 3640.13 2383.26 3625.38 2379.63 3619.27 Z M 2493.86 3583.97 C 2465.75 3583.97 2439.23 3593.56 2413.58 3602.83 C 2400.14 3607.68 2387.44 3612.27 2375.14 3615.24 C 2374.35 3615.43 2373.71 3615.98 2373.4 3616.74 C 2373.1 3617.48 2373.18 3618.33 2373.62 3619.02 C 2373.74 3619.21 2386.15 3638.76 2391.65 3658.57 C 2391.9 3659.5 2392.68 3660.2 2393.62 3660.37 C 2458.74 3671.88 2528.38 3672.25 2593.97 3661.3 C 2594.94 3661.14 2595.72 3660.43 2595.98 3659.48 C 2601.45 3639.32 2614.13 3619.26 2614.26 3619.05 C 2614.69 3618.37 2614.77 3617.53 2614.47 3616.78 C 2614.17 3616.03 2613.52 3615.47 2612.73 3615.28 C 2600.43 3612.31 2587.73 3607.72 2574.29 3602.87 C 2548.6 3593.58 2522.03 3583.97 2493.86 3583.97"/>
    <path id="path1052" style="fill:#593e1c;fill-opacity:1;fill-rule:nonzero;stroke:none" d="M 2672.33 3633.95 L 2720.76 3682.39 L 2647.01 3756.16 L 2598.54 3707.73 L 2672.33 3633.95"/>
    <path id="path1054" style="fill:#000000;fill-opacity:1;fill-rule:nonzero;stroke:none" d="M 2602.08 3707.73 L 2672.33 3637.48 L 2717.23 3682.39 L 2647.01 3752.63 L 2602.08 3707.73 Z M 2672.33 3631.45 C 2671.67 3631.45 2671.03 3631.71 2670.56 3632.18 L 2596.78 3705.96 C 2596.31 3706.43 2596.04 3707.06 2596.04 3707.73 C 2596.04 3708.39 2596.31 3709.03 2596.78 3709.5 L 2645.24 3757.93 C 2646.22 3758.91 2647.8 3758.91 2648.77 3757.93 L 2722.53 3684.15 C 2723.51 3683.18 2723.51 3681.59 2722.53 3680.62 L 2674.1 3632.18 C 2673.63 3631.71 2672.99 3631.45 2672.33 3631.45"/>
    <path id="path1056" style="fill:#a47a3c;fill-opacity:1;fill-rule:nonzero;stroke:none" d="M 2606.9 3844.79 C 2680.71 3844.79 2740.46 3784.97 2740.46 3711.25 L 2592.14 3711.25 L 2606.9 3844.79"/>
    <path id="path1058" style="fill:#000000;fill-opacity:1;fill-rule:nonzero;stroke:none" d="M 2594.93 3713.75 L 2737.94 3713.75 C 2736.62 3784.11 2679.55 3841.08 2609.14 3842.27 L 2594.93 3713.75 Z M 2740.59 3708.75 C 2740.54 3708.75 2740.5 3708.75 2740.46 3708.75 L 2592.14 3708.75 C 2591.43 3708.75 2590.75 3709.05 2590.28 3709.57 C 2589.8 3710.11 2589.58 3710.81 2589.65 3711.52 L 2604.42 3845.06 C 2604.56 3846.33 2605.63 3847.29 2606.9 3847.29 C 2681.66 3847.29 2742.53 3786.68 2742.96 3712.04 C 2743.04 3711.79 2743.09 3711.52 2743.09 3711.25 C 2743.09 3709.86 2741.97 3708.75 2740.59 3708.75"/>
    <path id="path1060" style="fill:#cda465;fill-opacity:1;fill-rule:nonzero;stroke:none" d="M 2666.03 3725.25 C 2666.03 3700.84 2646.26 3681.1 2621.85 3681.1 C 2597.47 3681.1 2577.64 3700.84 2577.66 3725.25 C 2577.66 3749.65 2597.47 3769.43 2621.85 3769.43 C 2646.26 3769.43 2666.03 3749.65 2666.03 3725.25"/>
    <path id="path1062" style="fill:#000000;fill-opacity:1;fill-rule:nonzero;stroke:none" d="M 2621.85 3766.93 C 2598.86 3766.93 2580.16 3748.23 2580.16 3725.25 C 2580.15 3714.12 2584.48 3703.66 2592.37 3695.79 C 2600.24 3687.93 2610.72 3683.6 2621.85 3683.6 C 2644.83 3683.6 2663.53 3702.29 2663.53 3725.25 C 2663.53 3748.23 2644.83 3766.93 2621.85 3766.93 Z M 2621.85 3678.6 C 2609.38 3678.6 2597.66 3683.45 2588.84 3692.25 C 2580 3701.07 2575.15 3712.79 2575.16 3725.25 C 2575.16 3750.99 2596.1 3771.93 2621.85 3771.93 C 2647.59 3771.93 2668.53 3750.99 2668.53 3725.25 C 2668.53 3699.52 2647.59 3678.6 2621.85 3678.6"/>
    <path id="path1064" style="fill:#a47a3c;fill-opacity:1;fill-rule:nonzero;stroke:none" d="M 2651.46 3725.25 C 2651.44 3708.89 2638.21 3695.68 2621.85 3695.68 C 2605.49 3695.68 2592.28 3708.89 2592.28 3725.25 C 2592.28 3741.59 2605.49 3754.85 2621.87 3754.85 C 2638.18 3754.85 2651.44 3741.59 2651.46 3725.25"/>
    <path id="path1066" style="fill:#000000;fill-opacity:1;fill-rule:nonzero;stroke:none" d="M 2621.87 3752.35 C 2606.93 3752.35 2594.78 3740.2 2594.78 3725.25 C 2594.78 3710.33 2606.92 3698.18 2621.85 3698.18 C 2636.78 3698.18 2648.94 3710.33 2648.96 3725.26 C 2648.94 3740.19 2636.79 3752.35 2621.87 3752.35 Z M 2621.85 3693.18 C 2604.17 3693.18 2589.78 3707.57 2589.78 3725.25 C 2589.78 3742.95 2604.17 3757.35 2621.87 3757.35 C 2639.54 3757.35 2653.94 3742.95 2653.96 3725.26 C 2653.94 3707.57 2639.53 3693.18 2621.85 3693.18"/>
    <path id="path1068" style="fill:#a47a3c;fill-opacity:1;fill-rule:nonzero;stroke:none" d="M 2595.14 3668.05 C 2574.7 3647.7 2541.72 3647.71 2521.32 3668.11 C 2500.92 3688.51 2500.93 3721.47 2521.32 3741.87 C 2541.69 3762.23 2574.7 3762.29 2595.12 3741.86 C 2615.47 3721.51 2615.47 3688.46 2595.14 3668.05"/>
    <path id="path1070" style="fill:#000000;fill-opacity:1;fill-rule:nonzero;stroke:none" d="M 2558.22 3754.66 C 2544.96 3754.66 2532.49 3749.49 2523.09 3740.1 C 2503.73 3720.73 2503.73 3689.23 2523.09 3669.87 C 2532.49 3660.47 2544.98 3655.3 2558.25 3655.3 C 2571.49 3655.3 2583.97 3660.46 2593.37 3669.82 C 2612.71 3689.22 2612.7 3720.75 2593.35 3740.09 C 2583.96 3749.48 2571.48 3754.66 2558.22 3754.66 Z M 2558.25 3650.3 C 2543.64 3650.3 2529.9 3656 2519.56 3666.34 C 2498.25 3687.64 2498.25 3722.32 2519.56 3743.64 C 2529.89 3753.97 2543.62 3759.66 2558.22 3759.66 C 2572.82 3759.66 2586.55 3753.96 2596.88 3743.63 C 2618.18 3722.34 2618.19 3687.64 2596.91 3666.29 C 2586.55 3655.98 2572.83 3650.3 2558.25 3650.3"/>
    <path id="path1072" style="fill:#cda465;fill-opacity:1;fill-rule:nonzero;stroke:none" d="M 2595.13 3704.96 C 2584.91 3694.78 2568.42 3694.79 2558.23 3704.98 C 2548.02 3715.18 2548.03 3731.66 2558.23 3741.86 C 2568.42 3752.04 2584.91 3752.07 2595.12 3741.86 C 2605.3 3731.68 2605.3 3715.16 2595.13 3704.96"/>
    <path id="path1074" style="fill:#000000;fill-opacity:1;fill-rule:nonzero;stroke:none" d="M 2576.68 3747 C 2570.39 3747 2564.46 3744.55 2560 3740.09 C 2555.54 3735.63 2553.08 3729.71 2553.08 3723.42 C 2553.08 3717.13 2555.54 3711.21 2560 3706.75 C 2568.92 3697.83 2584.43 3697.82 2593.37 3706.73 C 2602.54 3715.94 2602.54 3730.91 2593.35 3740.09 C 2588.9 3744.55 2582.97 3747 2576.68 3747 Z M 2576.68 3694.83 C 2569.05 3694.83 2561.87 3697.8 2556.46 3703.21 C 2551.05 3708.62 2548.08 3715.79 2548.08 3723.42 C 2548.08 3731.05 2551.06 3738.22 2556.46 3743.63 C 2561.87 3749.03 2569.05 3752 2576.68 3752 C 2584.31 3752 2591.48 3749.03 2596.89 3743.63 C 2608.02 3732.5 2608.03 3714.36 2596.9 3703.2 C 2591.48 3697.8 2584.31 3694.83 2576.68 3694.83"/>
    <path id="path1076" style="fill:#a47a3c;fill-opacity:1;fill-rule:nonzero;stroke:none" d="M 2499.54 3668.06 C 2479.11 3647.7 2446.12 3647.71 2425.73 3668.11 C 2405.32 3688.51 2405.33 3721.47 2425.73 3741.88 C 2446.1 3762.25 2479.1 3762.29 2499.52 3741.87 C 2519.88 3721.52 2519.88 3688.46 2499.54 3668.06"/>
    <path id="path1078" style="fill:#000000;fill-opacity:1;fill-rule:nonzero;stroke:none" d="M 2462.62 3754.67 C 2449.36 3754.67 2436.88 3749.5 2427.5 3740.11 C 2408.14 3720.74 2408.14 3689.23 2427.5 3669.87 C 2436.89 3660.47 2449.38 3655.3 2462.65 3655.3 C 2475.89 3655.3 2488.37 3660.46 2497.78 3669.83 C 2517.11 3689.23 2517.11 3720.75 2497.75 3740.1 C 2488.36 3749.5 2475.88 3754.67 2462.62 3754.67 Z M 2462.65 3650.3 C 2448.04 3650.3 2434.3 3656 2423.96 3666.34 C 2402.65 3687.64 2402.65 3722.32 2423.96 3743.64 C 2434.29 3753.98 2448.02 3759.67 2462.62 3759.67 C 2477.22 3759.67 2490.95 3753.97 2501.29 3743.64 C 2522.59 3722.35 2522.6 3687.65 2501.31 3666.3 C 2490.96 3655.98 2477.23 3650.3 2462.65 3650.3"/>
    <path id="path1080" style="fill:#cda465;fill-opacity:1;fill-rule:nonzero;stroke:none" d="M 2499.54 3704.96 C 2489.32 3694.78 2472.83 3694.8 2462.64 3704.99 C 2452.44 3715.18 2452.44 3731.66 2462.64 3741.86 C 2472.82 3752.05 2489.32 3752.07 2499.53 3741.86 C 2509.71 3731.68 2509.71 3715.17 2499.54 3704.96"/>
    <path id="path1082" style="fill:#000000;fill-opacity:1;fill-rule:nonzero;stroke:none" d="M 2481.08 3747.01 C 2474.79 3747.01 2468.86 3744.55 2464.4 3740.09 C 2459.94 3735.63 2457.49 3729.71 2457.49 3723.42 C 2457.49 3717.13 2459.94 3711.21 2464.4 3706.76 C 2473.32 3697.84 2488.84 3697.82 2497.77 3706.73 C 2506.95 3715.94 2506.94 3730.91 2497.76 3740.09 C 2493.3 3744.55 2487.38 3747.01 2481.08 3747.01 Z M 2481.1 3694.84 C 2473.46 3694.84 2466.27 3697.81 2460.87 3703.22 C 2455.46 3708.62 2452.49 3715.8 2452.49 3723.42 C 2452.49 3731.05 2455.46 3738.23 2460.87 3743.63 C 2466.27 3749.03 2473.45 3752.01 2481.08 3752.01 C 2488.71 3752.01 2495.89 3749.03 2501.29 3743.63 C 2512.43 3732.5 2512.43 3714.36 2501.31 3703.2 C 2495.89 3697.8 2488.72 3694.84 2481.1 3694.84"/>
    <path id="path1084" style="fill:#c9a88b;fill-opacity:1;fill-rule:nonzero;stroke:none" d="M 2785.84 3621.06 C 2794.53 3612.37 2794.53 3598.3 2785.86 3589.63 L 2765.08 3568.85 C 2756.41 3560.18 2742.34 3560.18 2733.67 3568.87 L 2712.92 3589.6 C 2704.22 3598.3 2704.22 3612.37 2712.89 3621.04 L 2733.67 3641.82 C 2742.34 3650.49 2756.41 3650.49 2765.1 3641.8 L 2785.84 3621.06"/>
    <path id="path1086" style="fill:#000000;fill-opacity:1;fill-rule:nonzero;stroke:none" d="M 2749.37 3645.82 C 2744.11 3645.82 2739.16 3643.77 2735.44 3640.05 L 2714.65 3619.27 C 2706.98 3611.59 2706.99 3599.07 2714.68 3591.37 L 2735.44 3570.63 C 2742.88 3563.18 2755.87 3563.18 2763.32 3570.61 L 2784.09 3591.4 C 2791.77 3599.09 2791.76 3611.6 2784.07 3619.29 L 2763.33 3640.04 C 2759.6 3643.76 2754.64 3645.82 2749.37 3645.82 Z M 2749.38 3559.85 C 2742.78 3559.85 2736.57 3562.43 2731.9 3567.1 L 2711.15 3587.84 C 2701.5 3597.49 2701.49 3613.18 2711.12 3622.8 L 2731.9 3643.59 C 2741.24 3652.92 2757.52 3652.91 2766.87 3643.57 L 2787.61 3622.83 C 2797.25 3613.18 2797.26 3597.5 2787.63 3587.87 L 2766.85 3567.08 C 2762.19 3562.42 2755.98 3559.85 2749.38 3559.85"/>
    <path id="path1088" style="fill:#f4d9bd;fill-opacity:1;fill-rule:nonzero;stroke:none" d="M 2759.86 3647.04 C 2765.65 3641.25 2765.63 3631.89 2759.86 3626.1 L 2750.72 3616.96 C 2744.92 3611.19 2735.54 3611.19 2729.78 3616.94 L 2729.78 3616.94 C 2724 3622.73 2723.96 3632.11 2729.78 3637.9 L 2738.89 3647.04 C 2744.68 3652.84 2754.08 3652.82 2759.86 3647.04 L 2759.86 3647.04"/>
    <path id="path1090" style="fill:#000000;fill-opacity:1;fill-rule:nonzero;stroke:none" d="M 2749.37 3648.88 C 2746.08 3648.88 2742.98 3647.6 2740.66 3645.27 L 2731.55 3636.13 C 2729.21 3633.81 2727.92 3630.71 2727.93 3627.43 C 2727.93 3624.13 2729.22 3621.04 2731.55 3618.7 C 2736.18 3614.09 2744.3 3614.09 2748.96 3618.73 L 2758.09 3627.87 C 2762.88 3632.68 2762.88 3640.48 2758.09 3645.27 C 2755.77 3647.6 2752.67 3648.88 2749.37 3648.88 Z M 2740.22 3610.13 C 2735.61 3610.13 2731.27 3611.92 2728.01 3615.16 C 2724.74 3618.45 2722.93 3622.8 2722.93 3627.42 C 2722.92 3632.05 2724.73 3636.41 2728.01 3639.67 L 2737.12 3648.81 C 2743.67 3655.36 2755.09 3655.34 2761.63 3648.81 C 2768.36 3642.07 2768.36 3631.09 2761.63 3624.34 L 2752.49 3615.2 C 2749.2 3611.93 2744.85 3610.13 2740.22 3610.13"/>
    <path id="path1092" style="fill:#a47a3c;fill-opacity:1;fill-rule:nonzero;stroke:none" d="M 2689.99 3598.14 L 2756.55 3664.71 L 2725.49 3695.77 L 2658.93 3629.2 L 2689.99 3598.14"/>
    <path id="path1094" style="fill:#000000;fill-opacity:1;fill-rule:nonzero;stroke:none" d="M 2662.46 3629.2 L 2689.99 3601.68 L 2753.01 3664.71 L 2725.49 3692.23 L 2662.46 3629.2 Z M 2689.99 3595.64 C 2689.35 3595.64 2688.71 3595.89 2688.22 3596.38 L 2657.16 3627.43 C 2656.69 3627.9 2656.43 3628.54 2656.43 3629.2 C 2656.43 3629.86 2656.69 3630.5 2657.16 3630.96 L 2723.73 3697.54 C 2724.66 3698.47 2726.32 3698.47 2727.26 3697.54 L 2758.32 3666.47 C 2759.29 3665.5 2759.29 3663.91 2758.32 3662.94 L 2691.75 3596.38 C 2691.26 3595.89 2690.63 3595.64 2689.99 3595.64"/>
    <path id="path1096" style="fill:#a47a3c;fill-opacity:1;fill-rule:nonzero;stroke:none" d="M 2374.21 3511.81 L 2374.21 3491.19 L 2407.57 3491.19 L 2415.13 3511.81 L 2374.21 3511.81"/>
    <path id="path1098" style="fill:#000000;fill-opacity:1;fill-rule:nonzero;stroke:none" d="M 2376.71 3493.69 L 2405.82 3493.69 L 2411.55 3509.31 L 2376.71 3509.31 L 2376.71 3493.69 Z M 2407.57 3488.69 L 2374.21 3488.69 C 2372.83 3488.69 2371.71 3489.81 2371.71 3491.19 L 2371.71 3511.81 C 2371.71 3513.19 2372.83 3514.31 2374.21 3514.31 L 2415.13 3514.31 C 2415.95 3514.31 2416.71 3513.91 2417.18 3513.24 C 2417.65 3512.57 2417.76 3511.72 2417.48 3510.95 L 2409.92 3490.33 C 2409.56 3489.34 2408.62 3488.69 2407.57 3488.69"/>
    <path id="path1100" style="fill:#a47a3c;fill-opacity:1;fill-rule:nonzero;stroke:none" d="M 2613.67 3511.81 L 2613.67 3491.19 L 2580.31 3491.19 L 2572.74 3511.81 L 2613.67 3511.81"/>
    <path id="path1102" style="fill:#000000;fill-opacity:1;fill-rule:nonzero;stroke:none" d="M 2582.05 3493.69 L 2611.17 3493.69 L 2611.17 3509.31 L 2576.32 3509.31 L 2582.05 3493.69 Z M 2613.67 3488.69 L 2580.31 3488.69 C 2579.26 3488.69 2578.32 3489.34 2577.96 3490.33 L 2570.39 3510.95 C 2570.11 3511.72 2570.22 3512.57 2570.69 3513.24 C 2571.16 3513.91 2571.92 3514.31 2572.74 3514.31 L 2613.67 3514.31 C 2615.05 3514.31 2616.17 3513.19 2616.17 3511.81 L 2616.17 3491.19 C 2616.17 3489.81 2615.05 3488.69 2613.67 3488.69"/>
    <path id="path1104" style="fill:#9f582c;fill-opacity:1;fill-rule:nonzero;stroke:none" d="M 2713.8 3549.25 L 2693.7 3569.38 L 2770.46 3646.14 L 2790.59 3626.04 L 2713.8 3549.25"/>
    <path id="path1106" style="fill:#000000;fill-opacity:1;fill-rule:nonzero;stroke:none" d="M 2697.23 3569.38 L 2713.8 3552.78 L 2787.05 3626.04 L 2770.46 3642.61 L 2697.23 3569.38 Z M 2713.8 3546.75 L 2713.8 3546.75 C 2713.14 3546.75 2712.5 3547.01 2712.04 3547.48 L 2691.93 3567.62 C 2690.95 3568.59 2690.95 3570.18 2691.93 3571.15 L 2768.69 3647.91 C 2769.67 3648.89 2771.25 3648.89 2772.23 3647.91 L 2792.35 3627.8 C 2792.82 3627.34 2793.09 3626.7 2793.09 3626.04 C 2793.09 3625.38 2792.82 3624.74 2792.35 3624.27 L 2715.57 3547.48 C 2715.1 3547.01 2714.47 3546.75 2713.8 3546.75"/>
    <path id="path1108" style="fill:#593e1c;fill-opacity:1;fill-rule:nonzero;stroke:none" d="M 2829.48 3663.21 L 2807.64 3685.05 L 2921.48 3798.88 L 2943.33 3777.04 L 2829.48 3663.21"/>
    <path id="path1110" style="fill:#000000;fill-opacity:1;fill-rule:nonzero;stroke:none" d="M 2811.17 3685.05 L 2829.48 3666.75 L 2939.79 3777.04 L 2921.48 3795.34 L 2811.17 3685.05 Z M 2829.48 3660.71 C 2828.84 3660.71 2828.2 3660.96 2827.71 3661.45 L 2805.87 3683.29 C 2805.4 3683.75 2805.14 3684.39 2805.14 3685.05 C 2805.14 3685.71 2805.4 3686.35 2805.87 3686.82 L 2919.71 3800.64 C 2920.69 3801.62 2922.27 3801.62 2923.25 3800.64 L 2945.09 3778.8 C 2945.56 3778.33 2945.83 3777.7 2945.83 3777.04 C 2945.83 3776.37 2945.56 3775.73 2945.09 3775.27 L 2831.25 3661.45 C 2830.76 3660.96 2830.12 3660.71 2829.48 3660.71"/>
    <path id="path1112" style="fill:#cda465;fill-opacity:1;fill-rule:nonzero;stroke:none" d="M 2775.36 3689.89 L 2810.15 3673.86 L 2916.81 3780.52 L 2926.87 3782.43 L 2997.16 3852.74 L 2923.68 3838.26 L 2775.36 3689.89"/>
    <path id="path1114" style="fill:#000000;fill-opacity:1;fill-rule:nonzero;stroke:none" d="M 2779.66 3690.66 L 2809.61 3676.86 L 2915.04 3782.29 C 2915.4 3782.64 2915.84 3782.88 2916.34 3782.97 L 2925.64 3784.75 L 2989.58 3848.7 L 2924.91 3835.96 L 2779.66 3690.66 Z M 2810.15 3671.36 C 2809.79 3671.36 2809.43 3671.43 2809.1 3671.59 L 2774.32 3687.63 C 2773.57 3687.97 2773.04 3688.65 2772.9 3689.46 C 2772.76 3690.26 2773.02 3691.09 2773.59 3691.66 L 2921.91 3840.03 C 2922.26 3840.38 2922.71 3840.62 2923.19 3840.71 L 2996.67 3855.19 C 2997.75 3855.4 2998.85 3854.89 2999.37 3853.91 C 2999.88 3852.94 2999.7 3851.75 2998.93 3850.97 L 2928.63 3780.67 C 2928.28 3780.31 2927.83 3780.07 2927.33 3779.98 L 2918.03 3778.21 L 2811.91 3672.09 C 2811.44 3671.61 2810.8 3671.36 2810.15 3671.36"/>
    <path id="path1116" style="fill:#a47a3c;fill-opacity:1;fill-rule:nonzero;stroke:none" d="M 2818.29 3665.73 L 2834.36 3630.87 L 2982.69 3779.24 L 2997.16 3852.74 L 2926.87 3782.43 L 2924.95 3772.39 L 2818.29 3665.73"/>
    <path id="path1118" style="fill:#000000;fill-opacity:1;fill-rule:nonzero;stroke:none" d="M 2821.28 3665.19 L 2835.12 3635.18 L 2980.38 3780.47 L 2993.12 3845.16 L 2929.17 3781.21 L 2927.41 3771.92 C 2927.31 3771.43 2927.08 3770.98 2926.72 3770.62 L 2821.28 3665.19 Z M 2834.36 3628.37 C 2834.21 3628.37 2834.06 3628.39 2833.92 3628.41 C 2833.11 3628.55 2832.43 3629.09 2832.08 3629.83 L 2816.02 3664.68 C 2815.58 3665.63 2815.78 3666.75 2816.52 3667.5 L 2922.64 3773.61 L 2924.41 3782.9 C 2924.5 3783.4 2924.74 3783.85 2925.1 3784.2 L 2995.39 3854.5 C 2996.16 3855.28 2997.36 3855.45 2998.33 3854.95 C 2999.31 3854.43 2999.82 3853.33 2999.61 3852.25 L 2985.14 3778.75 C 2985.04 3778.27 2984.8 3777.82 2984.45 3777.47 L 2836.12 3629.11 C 2835.65 3628.63 2835.01 3628.37 2834.36 3628.37"/>
    <path id="path1120" style="fill:#a47a3c;fill-opacity:1;fill-rule:nonzero;stroke:none" d="M 2779.03 3634.58 L 2841.62 3618.96 L 2825.99 3681.55 L 2763.41 3697.17 L 2779.03 3634.58"/>
    <path id="path1122" style="fill:#000000;fill-opacity:1;fill-rule:nonzero;stroke:none" d="M 2781.09 3636.64 L 2838.18 3622.39 L 2823.93 3679.5 L 2766.84 3693.74 L 2781.09 3636.64 Z M 2841.62 3616.46 C 2841.42 3616.46 2841.21 3616.48 2841.01 3616.53 L 2778.42 3632.16 C 2777.52 3632.38 2776.83 3633.08 2776.6 3633.98 L 2760.98 3696.57 C 2760.77 3697.41 2761.02 3698.32 2761.64 3698.94 C 2762.26 3699.56 2763.16 3699.81 2764.01 3699.6 L 2826.6 3683.98 C 2827.5 3683.76 2828.19 3683.06 2828.42 3682.16 L 2844.04 3619.56 C 2844.25 3618.71 2844 3617.81 2843.38 3617.19 C 2842.91 3616.72 2842.27 3616.46 2841.62 3616.46"/>
    <path id="path1124" style="fill:#a47a3c;fill-opacity:1;fill-rule:nonzero;stroke:none" d="M 2728.61 3541.16 C 2734.55 3547.11 2735.22 3555.98 2730.08 3561.12 L 2705.61 3585.62 C 2700.49 3590.73 2691.56 3590.14 2685.63 3584.21 C 2680.3 3578.87 2679.23 3571.05 2682.85 3565.83 C 2679.34 3561.59 2679.12 3555.77 2682.58 3552.31 L 2696.73 3538.18 C 2700.22 3534.71 2705.98 3534.89 2710.26 3538.37 C 2715.5 3534.75 2723.27 3535.81 2728.61 3541.16"/>
    <path id="path1126" style="fill:#000000;fill-opacity:1;fill-rule:nonzero;stroke:none" d="M 2696.9 3586.59 C 2693.5 3586.59 2690.03 3585.08 2687.39 3582.44 C 2683.02 3578.05 2681.95 3571.53 2684.9 3567.25 C 2685.54 3566.34 2685.49 3565.1 2684.77 3564.24 C 2682.04 3560.94 2681.86 3556.57 2684.35 3554.08 L 2698.5 3539.95 C 2700.96 3537.5 2705.44 3537.68 2708.69 3540.31 C 2709.54 3541 2710.76 3541.06 2711.68 3540.42 C 2713.27 3539.32 2715.22 3538.75 2717.31 3538.75 L 2717.31 3538.75 C 2720.72 3538.75 2724.19 3540.27 2726.85 3542.93 C 2729.3 3545.38 2730.78 3548.48 2731.01 3551.63 C 2731.24 3554.65 2730.28 3557.39 2728.32 3559.35 L 2703.84 3583.85 C 2702.07 3585.62 2699.6 3586.59 2696.9 3586.59 Z M 2703 3533.17 C 2699.93 3533.17 2697.07 3534.32 2694.97 3536.41 L 2680.81 3550.54 C 2676.87 3554.48 2676.56 3560.86 2679.85 3565.97 C 2676.65 3572.16 2678.19 3580.3 2683.85 3585.98 C 2690.49 3592.6 2701.48 3593.25 2707.37 3587.39 L 2731.85 3562.88 C 2734.86 3559.88 2736.33 3555.75 2736 3551.26 C 2735.67 3546.91 2733.68 3542.7 2730.38 3539.39 C 2726.8 3535.8 2722.04 3533.75 2717.31 3533.75 L 2717.31 3533.75 C 2714.83 3533.75 2712.47 3534.31 2710.39 3535.38 C 2708.12 3533.95 2705.55 3533.17 2703 3533.17"/>
    <path id="path1128" style="fill:#593e1c;fill-opacity:1;fill-rule:nonzero;stroke:none" d="M 2825.89 3634.48 C 2838.87 3647.45 2838.82 3668.5 2825.87 3681.45 C 2812.9 3694.41 2791.88 3694.41 2778.91 3681.46 C 2765.93 3668.48 2765.93 3647.45 2778.93 3634.46 C 2791.89 3621.49 2812.9 3621.51 2825.89 3634.48"/>
    <path id="path1130" style="fill:#000000;fill-opacity:1;fill-rule:nonzero;stroke:none" d="M 2802.38 3688.68 C 2794.18 3688.68 2786.47 3685.49 2780.67 3679.7 C 2768.7 3667.71 2768.71 3648.21 2780.69 3636.23 C 2786.48 3630.43 2794.19 3627.25 2802.38 3627.25 C 2810.58 3627.25 2818.31 3630.44 2824.13 3636.25 C 2829.92 3642.04 2833.11 3649.75 2833.11 3657.97 C 2833.1 3666.18 2829.9 3673.89 2824.11 3679.68 C 2818.3 3685.48 2810.59 3688.68 2802.38 3688.68 Z M 2802.38 3622.25 L 2802.38 3622.25 C 2792.85 3622.25 2783.9 3625.96 2777.16 3632.7 C 2763.22 3646.62 2763.21 3669.29 2777.14 3683.23 C 2783.89 3689.96 2792.85 3693.68 2802.38 3693.68 C 2811.92 3693.68 2820.89 3689.96 2827.64 3683.21 C 2834.38 3676.48 2838.1 3667.51 2838.11 3657.97 C 2838.12 3648.42 2834.4 3639.45 2827.66 3632.71 C 2820.89 3625.96 2811.91 3622.25 2802.38 3622.25"/>
    <path id="path1132" style="fill:#eb4900;fill-opacity:1;fill-rule:nonzero;stroke:none" d="M 2814.15 3646.23 C 2820.63 3652.71 2820.62 3663.23 2814.15 3669.7 C 2807.66 3676.18 2797.16 3676.18 2790.67 3669.7 C 2784.17 3663.21 2784.17 3652.71 2790.66 3646.21 C 2797.14 3639.72 2807.66 3639.74 2814.15 3646.23"/>
    <path id="path1134" style="fill:#000000;fill-opacity:1;fill-rule:nonzero;stroke:none" d="M 2802.41 3672.06 C 2798.64 3672.06 2795.1 3670.59 2792.44 3667.93 C 2789.77 3665.27 2788.29 3661.73 2788.29 3657.97 C 2788.29 3654.2 2789.76 3650.65 2792.43 3647.98 C 2795.08 3645.32 2798.62 3643.85 2802.38 3643.85 L 2802.38 3643.85 C 2806.16 3643.85 2809.71 3645.33 2812.38 3648 C 2815.04 3650.66 2816.51 3654.2 2816.5 3657.97 C 2816.5 3661.74 2815.04 3665.28 2812.38 3667.93 C 2809.72 3670.59 2806.17 3672.06 2802.41 3672.06 Z M 2802.38 3638.85 L 2802.38 3638.85 C 2797.28 3638.85 2792.49 3640.84 2788.89 3644.44 C 2785.27 3648.06 2783.29 3652.87 2783.29 3657.97 C 2783.3 3663.07 2785.29 3667.87 2788.91 3671.47 C 2796.12 3678.68 2808.69 3678.68 2815.92 3671.47 C 2819.52 3667.87 2821.5 3663.07 2821.5 3657.97 C 2821.51 3652.87 2819.53 3648.07 2815.92 3644.46 C 2812.3 3640.84 2807.49 3638.85 2802.38 3638.85"/>
    <path id="path1136" style="fill:#a47a3c;fill-opacity:1;fill-rule:nonzero;stroke:none" d="M 2658.1 4126.46 C 2658.01 4126.55 2657.94 4126.66 2657.85 4126.76 C 2657.76 4126.85 2657.65 4126.91 2657.55 4127 C 2655.71 4128.78 2653.56 4130.25 2651.16 4131.26 C 2651.12 4131.28 2651.07 4131.29 2651.03 4131.31 C 2648.54 4132.34 2645.83 4132.92 2642.98 4132.92 L 2514.25 4132.92 C 2502.64 4132.92 2493.22 4123.5 2493.22 4111.88 C 2493.22 4100.26 2502.64 4090.85 2514.25 4090.85 L 2555.73 4090.85 C 2544.11 4090.85 2534.7 4081.43 2534.7 4069.81 C 2534.7 4058.2 2544.11 4048.79 2555.73 4048.79 L 2597.2 4048.79 C 2585.59 4048.79 2576.17 4039.37 2576.17 4027.75 C 2576.17 4016.13 2585.59 4006.72 2597.2 4006.72 L 2621.94 4006.72 L 2621.94 3983.16 C 2621.94 3971.55 2631.36 3962.13 2642.97 3962.13 C 2654.59 3962.13 2664.01 3971.55 2664.01 3983.16 L 2664.01 4111.89 C 2664.01 4117.55 2661.74 4122.68 2658.1 4126.46"/>
    <path id="path1138" style="fill:#000000;fill-opacity:1;fill-rule:nonzero;stroke:none" d="M 2599.7 4048.79 C 2599.7 4047.4 2598.58 4046.29 2597.2 4046.29 C 2586.98 4046.29 2578.67 4037.97 2578.67 4027.75 C 2578.67 4017.53 2586.98 4009.22 2597.2 4009.22 L 2621.94 4009.22 C 2623.33 4009.22 2624.44 4008.1 2624.44 4006.72 L 2624.44 3983.16 C 2624.44 3972.94 2632.75 3964.63 2642.97 3964.63 C 2653.19 3964.63 2661.51 3972.94 2661.51 3983.16 L 2661.51 4111.89 C 2661.51 4116.68 2659.66 4121.23 2656.29 4124.73 C 2656.29 4124.73 2655.82 4125.2 2655.81 4125.21 C 2654.13 4126.84 2652.24 4128.1 2650.19 4128.96 C 2647.8 4129.94 2645.42 4130.42 2642.98 4130.42 L 2514.25 4130.42 C 2504.03 4130.42 2495.72 4122.1 2495.72 4111.88 C 2495.72 4101.66 2504.03 4093.35 2514.25 4093.35 L 2555.73 4093.35 C 2557.11 4093.35 2558.23 4092.23 2558.23 4090.85 C 2558.23 4089.47 2557.11 4088.35 2555.73 4088.35 C 2545.51 4088.35 2537.2 4080.04 2537.2 4069.81 C 2537.2 4059.59 2545.51 4051.29 2555.73 4051.29 L 2597.2 4051.29 C 2598.58 4051.29 2599.7 4050.16 2599.7 4048.79 Z M 2642.97 3959.63 C 2630 3959.63 2619.44 3970.18 2619.44 3983.16 L 2619.44 4004.22 L 2597.2 4004.22 C 2584.22 4004.22 2573.67 4014.77 2573.67 4027.75 C 2573.67 4035.27 2577.21 4041.97 2582.71 4046.29 L 2555.73 4046.29 C 2542.75 4046.29 2532.2 4056.84 2532.2 4069.81 C 2532.2 4077.33 2535.74 4084.04 2541.25 4088.35 L 2514.25 4088.35 C 2501.28 4088.35 2490.72 4098.91 2490.72 4111.88 C 2490.72 4124.86 2501.28 4135.42 2514.25 4135.42 L 2642.98 4135.42 C 2646.07 4135.42 2649.11 4134.81 2651.98 4133.62 C 2654.75 4132.46 2657.15 4130.86 2659.29 4128.8 C 2659.37 4128.72 2659.89 4128.21 2659.96 4128.13 C 2664.16 4123.77 2666.51 4117.98 2666.51 4111.89 L 2666.51 3983.16 C 2666.51 3970.18 2655.95 3959.63 2642.97 3959.63"/>
    <path id="path1140" style="fill:#cda465;fill-opacity:1;fill-rule:nonzero;stroke:none" d="M 2605.02 4122.15 C 2605.02 4118.21 2601.82 4115.02 2597.88 4115.02 L 2512.35 4115.02 C 2508.42 4115.02 2505.23 4118.21 2505.23 4122.15 L 2505.23 4122.15 C 2505.23 4126.09 2508.42 4129.29 2512.35 4129.29 L 2597.88 4129.29 C 2601.82 4129.29 2605.02 4126.09 2605.02 4122.15 L 2605.02 4122.15"/>
    <path id="path1142" style="fill:#000000;fill-opacity:1;fill-rule:nonzero;stroke:none" d="M 2512.35 4126.79 C 2509.8 4126.79 2507.73 4124.71 2507.73 4122.15 C 2507.73 4119.6 2509.8 4117.52 2512.35 4117.52 L 2597.88 4117.52 C 2600.44 4117.52 2602.52 4119.6 2602.52 4122.15 C 2602.52 4124.71 2600.44 4126.79 2597.88 4126.79 L 2512.35 4126.79 Z M 2597.88 4112.52 L 2512.35 4112.52 C 2507.05 4112.52 2502.73 4116.84 2502.73 4122.15 C 2502.73 4127.46 2507.05 4131.79 2512.35 4131.79 L 2597.88 4131.79 C 2603.19 4131.79 2607.52 4127.46 2607.52 4122.15 C 2607.52 4116.84 2603.19 4112.52 2597.88 4112.52"/>
    <path id="path1144" style="fill:#cda465;fill-opacity:1;fill-rule:nonzero;stroke:none" d="M 2605.02 4080.09 C 2605.02 4076.14 2601.82 4072.95 2597.88 4072.95 L 2553.83 4072.95 C 2549.89 4072.95 2546.7 4076.14 2546.7 4080.09 L 2546.7 4080.09 C 2546.7 4084.03 2549.89 4087.21 2553.83 4087.21 L 2597.88 4087.21 C 2601.82 4087.21 2605.02 4084.03 2605.02 4080.09 L 2605.02 4080.09"/>
    <path id="path1146" style="fill:#000000;fill-opacity:1;fill-rule:nonzero;stroke:none" d="M 2553.83 4084.71 C 2551.28 4084.71 2549.2 4082.64 2549.2 4080.09 C 2549.2 4077.54 2551.28 4075.45 2553.83 4075.45 L 2597.88 4075.45 C 2600.44 4075.45 2602.52 4077.54 2602.52 4080.09 C 2602.52 4082.64 2600.44 4084.71 2597.88 4084.71 L 2553.83 4084.71 Z M 2597.88 4070.45 L 2553.83 4070.45 C 2548.52 4070.45 2544.2 4074.77 2544.2 4080.09 C 2544.2 4085.39 2548.52 4089.71 2553.83 4089.71 L 2597.88 4089.71 C 2603.19 4089.71 2607.52 4085.39 2607.52 4080.09 C 2607.52 4074.77 2603.19 4070.45 2597.88 4070.45"/>
    <path id="path1148" style="fill:#cda465;fill-opacity:1;fill-rule:nonzero;stroke:none" d="M 2605.01 4038.42 C 2605.01 4034.48 2601.82 4031.3 2597.88 4031.3 C 2593.95 4031.3 2590.76 4034.48 2590.76 4038.42 C 2590.76 4042.36 2593.95 4045.55 2597.88 4045.55 C 2601.82 4045.55 2605.01 4042.36 2605.01 4038.42"/>
    <path id="path1150" style="fill:#000000;fill-opacity:1;fill-rule:nonzero;stroke:none" d="M 2597.88 4043.05 C 2595.33 4043.05 2593.26 4040.98 2593.26 4038.42 C 2593.26 4035.87 2595.33 4033.8 2597.88 4033.8 C 2600.43 4033.8 2602.51 4035.87 2602.51 4038.42 C 2602.51 4040.98 2600.43 4043.05 2597.88 4043.05 Z M 2597.88 4028.8 C 2592.57 4028.8 2588.26 4033.11 2588.26 4038.42 C 2588.26 4043.73 2592.57 4048.05 2597.88 4048.05 C 2603.19 4048.05 2607.51 4043.73 2607.51 4038.42 C 2607.51 4033.11 2603.19 4028.8 2597.88 4028.8"/>
    <path id="path1152" style="fill:#f4d9bd;fill-opacity:1;fill-rule:nonzero;stroke:none" d="M 2677.3 3924.36 C 2677.3 3836.45 2606.03 3765.14 2518.09 3765.14 L 2478.17 3765.14 C 2390.23 3765.14 2318.94 3836.45 2318.94 3924.36 L 2318.94 3924.36 C 2318.94 4012.3 2390.23 4083.6 2478.17 4083.6 L 2518.09 4083.6 C 2606.03 4083.6 2677.3 4012.3 2677.3 3924.36 L 2677.3 3924.36"/>
    <path id="path1154" style="fill:#000000;fill-opacity:1;fill-rule:nonzero;stroke:none" d="M 2478.17 4081.1 C 2391.75 4081.1 2321.44 4010.79 2321.44 3924.36 C 2321.44 3837.95 2391.75 3767.64 2478.17 3767.64 L 2518.09 3767.64 C 2604.5 3767.64 2674.8 3837.95 2674.8 3924.36 C 2674.8 4010.79 2604.5 4081.1 2518.09 4081.1 L 2478.17 4081.1 Z M 2518.09 3762.64 L 2478.17 3762.64 C 2388.99 3762.64 2316.44 3835.2 2316.44 3924.36 C 2316.44 4013.55 2388.99 4086.1 2478.17 4086.1 L 2518.09 4086.1 C 2607.26 4086.1 2679.8 4013.55 2679.8 3924.36 C 2679.8 3835.2 2607.26 3762.64 2518.09 3762.64"/>
    <path id="path1156" style="fill:#c9a88b;fill-opacity:1;fill-rule:nonzero;stroke:none" d="M 2524.25 4066.88 L 2475.17 4066.88 C 2422.34 4066.88 2375.15 4044.56 2343.78 4009.52 C 2328.13 3984.88 2318.94 3955.72 2318.94 3924.36 C 2318.94 3904.19 2322.84 3884.96 2329.69 3867.2 L 2329.74 3867.83 L 2329.81 3866.88 C 2346.56 3823.7 2381.54 3789.73 2425.36 3774.3 L 2425.36 3874.42 C 2507.17 3885.8 2554.07 3942.73 2554.07 3942.73 C 2554.07 3942.73 2605.02 3885.8 2670.97 3880.2 C 2675.01 3894.24 2677.3 3909.03 2677.3 3924.36 C 2677.3 3960.59 2665.07 3993.89 2644.69 4020.65 C 2613.78 4049.21 2571.24 4066.88 2524.25 4066.88"/>
    <path id="path1158" style="fill:#000000;fill-opacity:1;fill-rule:nonzero;stroke:none" d="M 2478.17 4081.1 C 2391.75 4081.1 2321.44 4010.79 2321.44 3924.36 C 2321.44 3837.95 2391.75 3767.64 2478.17 3767.64 L 2518.09 3767.64 C 2604.5 3767.64 2674.8 3837.95 2674.8 3924.36 C 2674.8 4010.79 2604.5 4081.1 2518.09 4081.1 L 2478.17 4081.1 Z M 2518.09 3762.64 L 2478.17 3762.64 C 2388.99 3762.64 2316.44 3835.2 2316.44 3924.36 C 2316.44 4013.55 2388.99 4086.1 2478.17 4086.1 L 2518.09 4086.1 C 2607.26 4086.1 2679.8 4013.55 2679.8 3924.36 C 2679.8 3835.2 2607.26 3762.64 2518.09 3762.64"/>
    <path id="path1160" style="fill:#f2f1e7;fill-opacity:1;fill-rule:nonzero;stroke:none" d="M 2695.24 3916.66 C 2696.38 3924.34 2695.24 3947.64 2695.24 3947.64 C 2695.24 4035.59 2618.7 4106.88 2524.25 4106.88 L 2475.17 4106.88 C 2380.72 4106.88 2304.16 4035.59 2304.16 3947.64 L 2304.16 3842.77 L 2322.98 3821.89 L 2329.74 3907.83 L 2335.89 3821.89 L 2415.36 3759.24 L 2415.36 3914.42 C 2486.16 3923.35 2508.42 3944.09 2554.07 3972.73 C 2602.73 3944.13 2621.13 3923.86 2695.24 3916.66"/>
    <path id="path1162" style="fill:#000000;fill-opacity:1;fill-rule:nonzero;stroke:none" d="M 2338.31 3823.17 L 2412.86 3764.4 L 2412.86 3914.42 C 2412.86 3915.68 2413.8 3916.74 2415.05 3916.9 C 2475.07 3924.47 2499.88 3940.61 2534.21 3962.94 C 2540.04 3966.74 2546.15 3970.71 2552.74 3974.85 C 2553.54 3975.34 2554.53 3975.36 2555.34 3974.88 C 2564.2 3969.67 2572.07 3964.74 2579.45 3960.11 C 2611.5 3940 2634.78 3925.39 2693.02 3919.39 C 2693.67 3928.36 2692.76 3947.31 2692.75 3947.52 C 2692.74 4034.07 2617.16 4104.38 2524.25 4104.38 L 2475.17 4104.38 C 2382.25 4104.38 2306.66 4034.07 2306.66 3947.64 L 2306.66 3843.73 L 2320.95 3827.88 L 2327.25 3908.02 C 2327.35 3909.32 2328.44 3910.33 2329.74 3910.33 C 2329.75 3910.33 2329.75 3910.33 2329.75 3910.33 C 2331.06 3910.32 2332.14 3909.31 2332.24 3908.01 L 2338.31 3823.17 Z M 2415.36 3756.74 C 2414.81 3756.74 2414.26 3756.92 2413.81 3757.28 L 2334.34 3819.93 C 2333.79 3820.36 2333.45 3821.01 2333.39 3821.71 L 2329.62 3874.44 L 2325.47 3821.69 C 2325.4 3820.7 2324.73 3819.84 2323.79 3819.52 C 2322.84 3819.22 2321.8 3819.48 2321.13 3820.21 L 2302.3 3841.1 C 2301.89 3841.55 2301.66 3842.15 2301.66 3842.77 L 2301.66 3947.64 C 2301.66 4036.82 2379.49 4109.38 2475.17 4109.38 L 2524.25 4109.38 C 2619.91 4109.38 2697.74 4036.82 2697.74 3947.64 C 2697.79 3946.8 2698.88 3924.13 2697.71 3916.29 C 2697.52 3914.97 2696.23 3914.08 2695 3914.17 C 2633.77 3920.12 2609.87 3935.12 2576.79 3955.87 C 2569.81 3960.25 2562.4 3964.9 2554.12 3969.8 C 2548.04 3965.97 2542.37 3962.29 2536.94 3958.75 C 2502.47 3936.33 2477.44 3920.05 2417.86 3912.22 L 2417.86 3759.24 C 2417.86 3758.29 2417.31 3757.41 2416.45 3756.99 C 2416.1 3756.82 2415.73 3756.74 2415.36 3756.74"/>
    <path id="path1164" style="fill:#ffac83;fill-opacity:1;fill-rule:nonzero;stroke:none" d="M 2646.86 3844.64 C 2646.86 3828.91 2632.29 3816.16 2614.32 3816.16 C 2596.35 3816.16 2581.78 3828.91 2581.78 3844.64 C 2581.78 3860.37 2596.35 3873.13 2614.32 3873.13 C 2632.29 3873.13 2646.86 3860.37 2646.86 3844.64"/>
    <path id="path1166" style="fill:#ffac83;fill-opacity:1;fill-rule:nonzero;stroke:none" d="M 2500.18 3844.64 C 2500.18 3828.91 2485.61 3816.16 2467.64 3816.16 C 2449.67 3816.16 2435.11 3828.91 2435.11 3844.64 C 2435.11 3860.37 2449.67 3873.13 2467.64 3873.13 C 2485.61 3873.13 2500.18 3860.37 2500.18 3844.64"/>
    <path id="path1168" style="fill:#eb4900;fill-opacity:1;fill-rule:nonzero;stroke:none" d="M 2530.4 3795.26 C 2544.76 3795.26 2556.35 3806.89 2556.35 3821.22 L 2504.62 3821.22 C 2504.62 3806.89 2516.17 3795.26 2530.4 3795.26"/>
    <path id="path1170" style="fill:#000000;fill-opacity:1;fill-rule:nonzero;stroke:none" d="M 2507.26 3818.72 C 2508.5 3806.96 2518.4 3797.76 2530.4 3797.76 C 2542.49 3797.76 2552.47 3806.96 2553.72 3818.72 L 2507.26 3818.72 Z M 2530.4 3792.76 C 2514.81 3792.76 2502.12 3805.53 2502.12 3821.22 C 2502.12 3822.61 2503.24 3823.72 2504.62 3823.72 L 2556.35 3823.72 C 2557.73 3823.72 2558.85 3822.61 2558.85 3821.22 C 2558.85 3805.53 2546.08 3792.76 2530.4 3792.76"/>
    <path id="path1172" style="fill:#2a5b6a;fill-opacity:1;fill-rule:nonzero;stroke:none" d="M 2464.42 3907.68 C 2454.81 3907.68 2446.54 3902.42 2442.06 3894.69 L 2419.68 3894.69 C 2416.09 3894.69 2413.18 3891.77 2413.18 3888.21 C 2413.18 3884.61 2416.09 3881.69 2419.68 3881.69 L 2490.2 3881.72 C 2490.2 3896.05 2478.65 3907.68 2464.42 3907.68"/>
    <path id="path1174" style="fill:#000000;fill-opacity:1;fill-rule:nonzero;stroke:none" d="M 2419.68 3892.19 C 2417.47 3892.19 2415.68 3890.4 2415.68 3888.21 C 2415.68 3886 2417.47 3884.19 2419.68 3884.19 L 2487.56 3884.22 C 2486.32 3895.98 2476.42 3905.18 2464.42 3905.18 C 2456.04 3905.18 2448.49 3900.79 2444.22 3893.43 C 2443.77 3892.66 2442.95 3892.19 2442.06 3892.19 L 2419.68 3892.19 Z M 2419.68 3879.19 L 2419.68 3879.19 C 2414.72 3879.19 2410.68 3883.23 2410.68 3888.21 C 2410.68 3893.16 2414.72 3897.19 2419.68 3897.19 L 2440.65 3897.19 C 2445.94 3905.35 2454.72 3910.18 2464.42 3910.18 C 2480.01 3910.18 2492.7 3897.41 2492.7 3881.72 C 2492.7 3880.34 2491.58 3879.22 2490.2 3879.22 L 2419.68 3879.19"/>
    <path id="path1176" style="fill:#2a5b6a;fill-opacity:1;fill-rule:nonzero;stroke:none" d="M 2662.97 3894.69 L 2639.03 3894.69 C 2634.56 3902.42 2626.32 3907.68 2616.79 3907.68 C 2602.44 3907.68 2590.89 3896.05 2590.89 3881.72 L 2662.97 3881.69 C 2666.55 3881.69 2669.46 3884.61 2669.46 3888.21 C 2669.46 3891.77 2666.55 3894.69 2662.97 3894.69"/>
    <path id="path1178" style="fill:#000000;fill-opacity:1;fill-rule:nonzero;stroke:none" d="M 2593.53 3884.22 L 2662.97 3884.19 C 2665.17 3884.19 2666.96 3886 2666.96 3888.21 C 2666.96 3890.4 2665.17 3892.19 2662.97 3892.19 L 2639.03 3892.19 C 2638.14 3892.19 2637.31 3892.66 2636.87 3893.44 C 2632.62 3900.79 2625.11 3905.18 2616.79 3905.18 C 2604.73 3905.18 2594.78 3895.98 2593.53 3884.22 Z M 2662.97 3879.19 L 2662.97 3879.19 L 2590.89 3879.22 C 2589.51 3879.22 2588.39 3880.34 2588.39 3881.72 C 2588.39 3897.41 2601.13 3910.18 2616.79 3910.18 C 2626.28 3910.18 2635.21 3905.24 2640.43 3897.19 L 2662.97 3897.19 C 2667.92 3897.19 2671.96 3893.16 2671.96 3888.21 C 2671.96 3883.23 2667.92 3879.19 2662.97 3879.19"/>
    <path id="path1180" style="fill:#a47a3c;fill-opacity:1;fill-rule:nonzero;stroke:none" d="M 2301.66 3943.21 L 2698.262 3943.21 L 2698.262 3994.03 L 2301.66 3994.03 L 2301.66 3943.21 Z"/>
    <path id="path1182" style="fill:#000000;fill-opacity:1;fill-rule:nonzero;stroke:none" d="M 2304.16 3945.71 L 2695.76 3945.71 L 2695.76 3991.53 L 2304.16 3991.53 L 2304.16 3945.71 Z M 2698.26 3940.71 L 2301.66 3940.71 C 2300.27 3940.71 2299.16 3941.82 2299.16 3943.21 L 2299.16 3994.03 C 2299.16 3995.41 2300.27 3996.53 2301.66 3996.53 L 2698.26 3996.53 C 2699.64 3996.53 2700.76 3995.41 2700.76 3994.03 L 2700.76 3943.21 C 2700.76 3941.82 2699.64 3940.71 2698.26 3940.71"/>
    <path id="path1184" style="fill:#a47a3c;fill-opacity:1;fill-rule:nonzero;stroke:none" d="M 2380.03 4124.75 C 2376.18 4129.69 2370.25 4132.92 2363.51 4132.92 L 2234.78 4132.92 C 2223.16 4132.92 2213.75 4123.5 2213.75 4111.88 C 2213.75 4100.26 2223.16 4090.85 2234.78 4090.85 L 2276.25 4090.85 C 2264.64 4090.85 2255.22 4081.43 2255.22 4069.81 C 2255.22 4058.2 2264.64 4048.79 2276.25 4048.79 L 2317.72 4048.79 C 2306.11 4048.79 2296.69 4039.37 2296.69 4027.75 C 2296.69 4016.13 2306.11 4006.72 2317.72 4006.72 L 2342.47 4006.72 L 2342.47 3983.16 C 2342.47 3971.55 2351.89 3962.13 2363.5 3962.13 C 2375.12 3962.13 2384.54 3971.55 2384.54 3983.16 L 2384.54 4111.89 C 2384.54 4116.76 2382.81 4121.18 2380.03 4124.75"/>
    <path id="path1186" style="fill:#000000;fill-opacity:1;fill-rule:nonzero;stroke:none" d="M 2320.22 4048.79 C 2320.22 4047.4 2319.11 4046.29 2317.72 4046.29 C 2307.5 4046.29 2299.19 4037.97 2299.19 4027.75 C 2299.19 4017.53 2307.5 4009.22 2317.72 4009.22 L 2342.47 4009.22 C 2343.85 4009.22 2344.97 4008.1 2344.97 4006.72 L 2344.97 3983.16 C 2344.97 3972.94 2353.28 3964.63 2363.5 3964.63 C 2373.72 3964.63 2382.04 3972.94 2382.04 3983.16 L 2382.04 4111.89 C 2382.04 4115.96 2380.66 4119.88 2378.06 4123.21 C 2374.49 4127.79 2369.18 4130.42 2363.51 4130.42 L 2234.78 4130.42 C 2224.56 4130.42 2216.25 4122.1 2216.25 4111.88 C 2216.25 4101.66 2224.56 4093.35 2234.78 4093.35 L 2276.25 4093.35 C 2277.64 4093.35 2278.75 4092.23 2278.75 4090.85 C 2278.75 4089.47 2277.64 4088.35 2276.25 4088.35 C 2266.04 4088.35 2257.72 4080.04 2257.72 4069.81 C 2257.72 4059.59 2266.04 4051.29 2276.25 4051.29 L 2317.72 4051.29 C 2319.11 4051.29 2320.22 4050.16 2320.22 4048.79 Z M 2363.5 3959.63 C 2350.52 3959.63 2339.97 3970.18 2339.97 3983.16 L 2339.97 4004.22 L 2317.72 4004.22 C 2304.75 4004.22 2294.19 4014.77 2294.19 4027.75 C 2294.19 4035.27 2297.73 4041.97 2303.24 4046.29 L 2276.25 4046.29 C 2263.28 4046.29 2252.72 4056.84 2252.72 4069.81 C 2252.72 4077.33 2256.27 4084.04 2261.77 4088.35 L 2234.78 4088.35 C 2221.81 4088.35 2211.25 4098.91 2211.25 4111.88 C 2211.25 4124.86 2221.81 4135.42 2234.78 4135.42 L 2363.51 4135.42 C 2370.73 4135.42 2377.48 4132.09 2382 4126.29 C 2385.29 4122.07 2387.04 4117.09 2387.04 4111.89 L 2387.04 3983.16 C 2387.04 3970.18 2376.47 3959.63 2363.5 3959.63"/>
    <path id="path1188" style="fill:#cda465;fill-opacity:1;fill-rule:nonzero;stroke:none" d="M 2325.55 4122.15 C 2325.55 4118.21 2322.35 4115.02 2318.41 4115.02 L 2232.88 4115.02 C 2228.94 4115.02 2225.75 4118.21 2225.75 4122.15 L 2225.75 4122.15 C 2225.75 4126.09 2228.94 4129.29 2232.88 4129.29 L 2318.41 4129.29 C 2322.35 4129.29 2325.55 4126.09 2325.55 4122.15 L 2325.55 4122.15"/>
    <path id="path1190" style="fill:#000000;fill-opacity:1;fill-rule:nonzero;stroke:none" d="M 2232.88 4126.79 C 2230.33 4126.79 2228.25 4124.71 2228.25 4122.15 C 2228.25 4119.6 2230.33 4117.52 2232.88 4117.52 L 2318.41 4117.52 C 2320.97 4117.52 2323.05 4119.6 2323.05 4122.15 C 2323.05 4124.71 2320.97 4126.79 2318.41 4126.79 L 2232.88 4126.79 Z M 2318.41 4112.52 L 2232.88 4112.52 C 2227.57 4112.52 2223.25 4116.84 2223.25 4122.15 C 2223.25 4127.46 2227.57 4131.79 2232.88 4131.79 L 2318.41 4131.79 C 2323.72 4131.79 2328.05 4127.46 2328.05 4122.15 C 2328.05 4116.84 2323.72 4112.52 2318.41 4112.52"/>
    <path id="path1192" style="fill:#cda465;fill-opacity:1;fill-rule:nonzero;stroke:none" d="M 2325.55 4080.09 C 2325.55 4076.14 2322.35 4072.95 2318.41 4072.95 L 2274.35 4072.95 C 2270.42 4072.95 2267.23 4076.14 2267.23 4080.09 L 2267.23 4080.09 C 2267.23 4084.03 2270.42 4087.21 2274.35 4087.21 L 2318.41 4087.21 C 2322.35 4087.21 2325.55 4084.03 2325.55 4080.09 L 2325.55 4080.09"/>
    <path id="path1194" style="fill:#000000;fill-opacity:1;fill-rule:nonzero;stroke:none" d="M 2274.35 4084.71 C 2271.8 4084.71 2269.73 4082.64 2269.73 4080.09 C 2269.73 4077.54 2271.8 4075.45 2274.35 4075.45 L 2318.41 4075.45 C 2320.97 4075.45 2323.05 4077.54 2323.05 4080.09 C 2323.05 4082.64 2320.97 4084.71 2318.41 4084.71 L 2274.35 4084.71 Z M 2318.41 4070.45 L 2274.35 4070.45 C 2269.04 4070.45 2264.73 4074.77 2264.73 4080.09 C 2264.73 4085.39 2269.04 4089.71 2274.35 4089.71 L 2318.41 4089.71 C 2323.72 4089.71 2328.05 4085.39 2328.05 4080.09 C 2328.05 4074.77 2323.72 4070.45 2318.41 4070.45"/>
    <path id="path1196" style="fill:#cda465;fill-opacity:1;fill-rule:nonzero;stroke:none" d="M 2325.54 4038.42 C 2325.54 4034.48 2322.35 4031.3 2318.41 4031.3 C 2314.47 4031.3 2311.28 4034.48 2311.28 4038.42 C 2311.28 4042.36 2314.47 4045.55 2318.41 4045.55 C 2322.35 4045.55 2325.54 4042.36 2325.54 4038.42"/>
    <path id="path1198" style="fill:#000000;fill-opacity:1;fill-rule:nonzero;stroke:none" d="M 2318.41 4043.05 C 2315.86 4043.05 2313.78 4040.98 2313.78 4038.42 C 2313.78 4035.87 2315.86 4033.8 2318.41 4033.8 C 2320.96 4033.8 2323.04 4035.87 2323.04 4038.42 C 2323.04 4040.98 2320.96 4043.05 2318.41 4043.05 Z M 2318.41 4028.8 C 2313.1 4028.8 2308.78 4033.11 2308.78 4038.42 C 2308.78 4043.73 2313.1 4048.05 2318.41 4048.05 C 2323.72 4048.05 2328.04 4043.73 2328.04 4038.42 C 2328.04 4033.11 2323.72 4028.8 2318.41 4028.8"/>
    <path id="path1200" style="fill:#593e1c;fill-opacity:1;fill-rule:nonzero;stroke:none" d="M 2291.77 3664.87 L 2360.27 3664.87 L 2360.27 3726.507 L 2291.77 3726.507 L 2291.77 3664.87 Z"/>
    <path id="path1202" style="fill:#000000;fill-opacity:1;fill-rule:nonzero;stroke:none" d="M 2294.27 3667.37 L 2357.77 3667.37 L 2357.77 3724 L 2294.27 3724 L 2294.27 3667.37 Z M 2360.27 3662.37 L 2291.77 3662.37 C 2290.39 3662.37 2289.27 3663.48 2289.27 3664.87 L 2289.27 3726.5 C 2289.27 3727.88 2290.39 3729 2291.77 3729 L 2360.27 3729 C 2361.66 3729 2362.77 3727.88 2362.77 3726.5 L 2362.77 3664.87 C 2362.77 3663.48 2361.66 3662.37 2360.27 3662.37"/>
    <path id="path1204" style="fill:#c9a88b;fill-opacity:1;fill-rule:nonzero;stroke:none" d="M 2289.14 3575.48 C 2289.14 3563.2 2299.07 3553.25 2311.35 3553.25 L 2340.74 3553.25 C 2352.99 3553.25 2362.92 3563.2 2362.92 3575.48 L 2362.92 3604.83 C 2362.92 3617.1 2352.99 3627.06 2340.74 3627.06 L 2311.35 3627.06 C 2299.07 3627.06 2289.14 3617.1 2289.14 3604.83 L 2289.14 3575.48"/>
    <path id="path1206" style="fill:#000000;fill-opacity:1;fill-rule:nonzero;stroke:none" d="M 2311.35 3624.56 C 2300.48 3624.56 2291.64 3615.71 2291.64 3604.83 L 2291.64 3575.48 C 2291.64 3564.6 2300.48 3555.75 2311.35 3555.75 L 2340.74 3555.75 C 2351.59 3555.75 2360.42 3564.6 2360.42 3575.48 L 2360.42 3604.83 C 2360.42 3615.71 2351.59 3624.56 2340.74 3624.56 L 2311.35 3624.56 Z M 2340.74 3550.75 L 2311.35 3550.75 C 2297.72 3550.75 2286.64 3561.84 2286.64 3575.48 L 2286.64 3604.83 C 2286.64 3618.46 2297.72 3629.56 2311.35 3629.56 L 2340.74 3629.56 C 2354.35 3629.56 2365.42 3618.46 2365.42 3604.83 L 2365.42 3575.48 C 2365.42 3561.84 2354.35 3550.75 2340.74 3550.75"/>
    <path id="path1208" style="fill:#f4d9bd;fill-opacity:1;fill-rule:nonzero;stroke:none" d="M 2289.14 3612.23 C 2289.14 3604.05 2295.77 3597.43 2303.94 3597.43 L 2316.87 3597.43 C 2325.06 3597.43 2331.68 3604.05 2331.68 3612.23 L 2331.68 3612.23 C 2331.68 3620.41 2325.06 3627.06 2316.87 3627.06 L 2303.94 3627.06 C 2295.77 3627.06 2289.14 3620.41 2289.14 3612.23 L 2289.14 3612.23"/>
    <path id="path1210" style="fill:#000000;fill-opacity:1;fill-rule:nonzero;stroke:none" d="M 2303.94 3624.56 C 2297.16 3624.56 2291.64 3619.03 2291.64 3612.23 C 2291.64 3605.44 2297.16 3599.93 2303.94 3599.93 L 2316.87 3599.93 C 2323.66 3599.93 2329.18 3605.44 2329.18 3612.23 C 2329.18 3619.03 2323.66 3624.56 2316.87 3624.56 L 2303.94 3624.56 Z M 2316.87 3594.93 L 2303.94 3594.93 C 2294.4 3594.93 2286.64 3602.69 2286.64 3612.23 C 2286.64 3621.79 2294.4 3629.56 2303.94 3629.56 L 2316.87 3629.56 C 2326.42 3629.56 2334.18 3621.79 2334.18 3612.23 C 2334.18 3602.69 2326.42 3594.93 2316.87 3594.93"/>
    <path id="path1212" style="fill:#a47a3c;fill-opacity:1;fill-rule:nonzero;stroke:none" d="M 2374.81 3844.79 C 2301.01 3844.79 2241.25 3784.97 2241.25 3711.25 L 2389.58 3711.25 L 2374.81 3844.79"/>
    <path id="path1214" style="fill:#000000;fill-opacity:1;fill-rule:nonzero;stroke:none" d="M 2243.78 3713.75 L 2386.79 3713.75 L 2372.58 3842.27 C 2302.17 3841.08 2245.1 3784.11 2243.78 3713.75 Z M 2389.58 3708.75 L 2241.25 3708.75 C 2239.87 3708.75 2238.75 3709.86 2238.75 3711.25 C 2238.75 3786.26 2299.79 3847.29 2374.81 3847.29 C 2376.09 3847.29 2377.16 3846.33 2377.3 3845.06 L 2392.07 3711.52 C 2392.15 3710.81 2391.92 3710.11 2391.45 3709.57 C 2390.97 3709.05 2390.3 3708.75 2389.58 3708.75"/>
    <path id="path1216" style="fill:#cda465;fill-opacity:1;fill-rule:nonzero;stroke:none" d="M 2333.27 3725.25 C 2333.27 3700.84 2353.04 3681.1 2377.45 3681.1 C 2401.84 3681.1 2421.66 3700.84 2421.66 3725.25 C 2421.66 3749.65 2401.84 3769.43 2377.45 3769.43 C 2353.04 3769.43 2333.27 3749.65 2333.27 3725.25"/>
    <path id="path1218" style="fill:#000000;fill-opacity:1;fill-rule:nonzero;stroke:none" d="M 2377.45 3766.93 C 2354.47 3766.93 2335.77 3748.23 2335.77 3725.25 C 2335.77 3702.29 2354.47 3683.6 2377.45 3683.6 C 2400.45 3683.6 2419.16 3702.29 2419.16 3725.25 C 2419.16 3748.23 2400.45 3766.93 2377.45 3766.93 Z M 2377.45 3678.6 C 2351.71 3678.6 2330.77 3699.52 2330.77 3725.25 C 2330.77 3750.99 2351.71 3771.93 2377.45 3771.93 C 2403.2 3771.93 2424.16 3750.99 2424.16 3725.25 C 2424.16 3699.52 2403.2 3678.6 2377.45 3678.6"/>
    <path id="path1220" style="fill:#a47a3c;fill-opacity:1;fill-rule:nonzero;stroke:none" d="M 2347.85 3725.25 C 2347.85 3708.89 2361.11 3695.68 2377.45 3695.68 C 2393.8 3695.68 2407.01 3708.89 2407.01 3725.25 C 2407.01 3741.59 2393.8 3754.85 2377.45 3754.85 C 2361.11 3754.85 2347.85 3741.59 2347.85 3725.25"/>
    <path id="path1222" style="fill:#000000;fill-opacity:1;fill-rule:nonzero;stroke:none" d="M 2377.45 3752.35 C 2362.5 3752.35 2350.35 3740.2 2350.35 3725.25 C 2350.35 3710.33 2362.5 3698.18 2377.45 3698.18 C 2392.37 3698.18 2404.51 3710.33 2404.51 3725.25 C 2404.51 3740.2 2392.37 3752.35 2377.45 3752.35 Z M 2377.45 3693.18 C 2359.75 3693.18 2345.35 3707.57 2345.35 3725.25 C 2345.35 3742.95 2359.75 3757.35 2377.45 3757.35 C 2395.13 3757.35 2409.51 3742.95 2409.51 3725.25 C 2409.51 3707.57 2395.13 3693.18 2377.45 3693.18"/>
    <path id="path1224" style="fill:#a47a3c;fill-opacity:1;fill-rule:nonzero;stroke:none" d="M 2278.96 3627.06 L 2373.101 3627.06 L 2373.101 3670.986 L 2278.96 3670.986 L 2278.96 3627.06 Z"/>
    <path id="path1226" style="fill:#000000;fill-opacity:1;fill-rule:nonzero;stroke:none" d="M 2281.46 3629.56 L 2370.6 3629.56 L 2370.6 3668.48 L 2281.46 3668.48 L 2281.46 3629.56 Z M 2373.1 3624.56 L 2278.96 3624.56 C 2277.58 3624.56 2276.46 3625.68 2276.46 3627.06 L 2276.46 3670.98 C 2276.46 3672.37 2277.58 3673.48 2278.96 3673.48 L 2373.1 3673.48 C 2374.48 3673.48 2375.6 3672.37 2375.6 3670.98 L 2375.6 3627.06 C 2375.6 3625.68 2374.48 3624.56 2373.1 3624.56"/>
    <path id="path1228" style="fill:#cda465;fill-opacity:1;fill-rule:nonzero;stroke:none" d="M 2428.77 3673.85 C 2428.77 3603.46 2371.69 3546.36 2301.27 3546.36 C 2230.87 3546.36 2173.78 3603.46 2173.78 3673.85 C 2173.78 3744.29 2230.87 3801.35 2301.27 3801.35 C 2371.69 3801.35 2428.77 3744.29 2428.77 3673.85"/>
    <path id="path1230" style="fill:#000000;fill-opacity:1;fill-rule:nonzero;stroke:none" d="M 2301.27 3798.85 C 2232.35 3798.85 2176.28 3742.78 2176.28 3673.85 C 2176.28 3604.93 2232.35 3548.86 2301.27 3548.86 C 2370.2 3548.86 2426.27 3604.93 2426.27 3673.85 C 2426.27 3742.78 2370.2 3798.85 2301.27 3798.85 Z M 2301.27 3543.86 C 2229.59 3543.86 2171.28 3602.18 2171.28 3673.85 C 2171.28 3745.54 2229.59 3803.85 2301.27 3803.85 C 2372.96 3803.85 2431.27 3745.54 2431.27 3673.85 C 2431.27 3602.18 2372.96 3543.86 2301.27 3543.86"/>
    <path id="path1232" style="fill:#a47a3c;fill-opacity:1;fill-rule:nonzero;stroke:none" d="M 2390.54 3673.85 C 2390.54 3624.57 2350.57 3584.6 2301.27 3584.6 C 2251.99 3584.6 2212.03 3624.57 2212.03 3673.85 C 2212.03 3723.16 2251.99 3763.13 2301.27 3763.13 C 2350.57 3763.13 2390.54 3723.16 2390.54 3673.85"/>
    <path id="path1234" style="fill:#000000;fill-opacity:1;fill-rule:nonzero;stroke:none" d="M 2301.27 3760.63 C 2253.44 3760.63 2214.53 3721.7 2214.53 3673.85 C 2214.53 3626.02 2253.44 3587.1 2301.27 3587.1 C 2349.12 3587.1 2388.04 3626.02 2388.04 3673.85 C 2388.04 3721.7 2349.12 3760.63 2301.27 3760.63 Z M 2301.27 3582.1 C 2250.68 3582.1 2209.53 3623.26 2209.53 3673.85 C 2209.53 3724.46 2250.68 3765.63 2301.27 3765.63 C 2351.88 3765.63 2393.04 3724.46 2393.04 3673.85 C 2393.04 3623.26 2351.88 3582.1 2301.27 3582.1"/>
    <path id="path1236" style="fill:#593e1c;fill-opacity:1;fill-rule:nonzero;stroke:none" d="M 2323.59 3673.87 C 2323.59 3661.55 2313.61 3651.55 2301.27 3651.55 C 2288.96 3651.55 2278.96 3661.55 2278.96 3673.87 C 2278.96 3686.18 2288.96 3696.18 2301.27 3696.18 C 2313.61 3696.18 2323.59 3686.18 2323.59 3673.87"/>
    <path id="path1238" style="fill:#000000;fill-opacity:1;fill-rule:nonzero;stroke:none" d="M 2301.27 3693.68 C 2290.35 3693.68 2281.46 3684.79 2281.46 3673.87 C 2281.46 3662.94 2290.35 3654.05 2301.27 3654.05 C 2312.2 3654.05 2321.09 3662.94 2321.09 3673.87 C 2321.09 3684.79 2312.2 3693.68 2301.27 3693.68 Z M 2301.27 3649.05 C 2287.59 3649.05 2276.46 3660.18 2276.46 3673.87 C 2276.46 3687.55 2287.59 3698.68 2301.27 3698.68 C 2314.96 3698.68 2326.09 3687.55 2326.09 3673.87 C 2326.09 3660.18 2314.96 3649.05 2301.27 3649.05"/>
  </g>
</svg>