<?xml version="1.0" encoding="utf-8"?>
<svg viewBox="420.70001220703125 138.89999389648438 73.97899627685547 98.802001953125" width="73.97899627685547" height="98.802001953125" xmlns="http://www.w3.org/2000/svg">
  <g transform="matrix(0.12500000186264515, 0, 0, -0.12500000186264515, 0, 526.1375122070312)">
    <path id="path30" style="fill:#ddd8bf;fill-opacity:1;fill-rule:nonzero;stroke:none" d="M 3901.16 2334.62 C 3901.16 2319.64 3789.87 2307.48 3652.57 2307.48 C 3515.26 2307.48 3403.95 2319.64 3403.95 2334.62 C 3403.95 2349.61 3515.26 2361.77 3652.57 2361.77 C 3789.87 2361.77 3901.16 2349.61 3901.16 2334.62"/>
    <path id="path1838" style="fill:#ffb103;fill-opacity:1;fill-rule:nonzero;stroke:none" d="M 3831.35 2605.49 C 3851.86 2543.12 3889.6 2566.73 3898.67 2559.51 C 3915.25 2546.32 3885.48 2511.07 3866.46 2510.08 C 3762.69 2504.77 3773 2596.07 3762.69 2601.95 C 3762.69 2601.95 3814.92 2655.47 3831.35 2605.49"/>
    <path id="path1840" style="fill:#000000;fill-opacity:1;fill-rule:nonzero;stroke:none" d="M 3766.17 2601.85 C 3767.94 2599.04 3769.01 2594.24 3770.52 2587.47 C 3776.62 2560.21 3788.21 2508.62 3866.34 2512.58 C 3878.13 2513.19 3895.42 2528.87 3899.97 2543.08 C 3902.04 2549.53 3901.07 2554.4 3897.12 2557.55 C 3895.95 2558.48 3893.35 2558.59 3891.5 2558.59 C 3890.09 2558.59 3888.53 2558.52 3886.85 2558.45 C 3884.83 2558.36 3882.68 2558.27 3880.39 2558.27 C 3863.56 2558.27 3842.51 2563.54 3828.97 2604.71 C 3824.64 2617.9 3817.65 2624.32 3807.62 2624.32 C 3791.27 2624.32 3771.92 2607.29 3766.17 2601.85 Z M 3857.95 2507.36 C 3783.31 2507.36 3771.38 2560.73 3765.64 2586.38 C 3764.38 2592 3762.82 2599 3761.45 2599.78 C 3760.77 2600.16 3760.32 2600.84 3760.21 2601.6 C 3760.1 2602.37 3760.35 2603.14 3760.9 2603.7 C 3761.91 2604.74 3786.15 2629.32 3807.62 2629.32 C 3819.91 2629.32 3828.69 2621.57 3833.72 2606.27 C 3846.25 2568.15 3865.24 2563.27 3880.39 2563.27 C 3882.6 2563.27 3884.69 2563.36 3886.63 2563.45 C 3888.38 2563.52 3890.02 2563.59 3891.5 2563.59 C 3894.5 2563.59 3897.87 2563.34 3900.22 2561.47 C 3905.82 2557.02 3907.42 2549.94 3904.74 2541.55 C 3899.57 2525.44 3880.32 2508.3 3866.59 2507.59 C 3863.62 2507.43 3860.74 2507.36 3857.95 2507.36"/>
    <path id="path1842" style="fill:#ffb103;fill-opacity:1;fill-rule:nonzero;stroke:none" d="M 3831.27 2638.66 C 3854.08 2615.83 3854.06 2578.82 3831.25 2556 C 3808.43 2533.18 3771.4 2533.16 3748.59 2555.99 C 3725.75 2578.82 3725.75 2615.86 3748.59 2638.68 C 3771.39 2661.51 3808.43 2661.51 3831.27 2638.66"/>
    <path id="path1844" style="fill:#000000;fill-opacity:1;fill-rule:nonzero;stroke:none" d="M 3789.9 2653.3 C 3774.95 2653.3 3760.91 2647.48 3750.36 2636.91 C 3739.79 2626.35 3733.96 2612.29 3733.96 2597.34 C 3733.96 2582.39 3739.79 2568.33 3750.36 2557.76 C 3760.91 2547.2 3774.95 2541.38 3789.9 2541.38 C 3804.85 2541.38 3818.91 2547.2 3829.48 2557.77 C 3851.29 2579.59 3851.3 2615.08 3829.5 2636.89 C 3818.93 2647.47 3804.86 2653.3 3789.9 2653.3 Z M 3789.9 2536.38 C 3773.61 2536.38 3758.32 2542.71 3746.83 2554.22 C 3735.3 2565.74 3728.96 2581.05 3728.96 2597.34 C 3728.96 2613.63 3735.3 2628.94 3746.83 2640.45 C 3758.32 2651.96 3773.61 2658.3 3789.9 2658.3 C 3806.2 2658.3 3821.51 2651.95 3833.04 2640.42 C 3856.79 2616.66 3856.78 2578 3833.02 2554.23 C 3821.5 2542.72 3806.19 2536.38 3789.9 2536.38"/>
    <path id="path1846" style="fill:#2a5b6a;fill-opacity:1;fill-rule:nonzero;stroke:none" d="M 3774.73 2582.14 C 3758.99 2597.89 3747.41 2613.99 3741.75 2626.56 C 3736.16 2609.72 3743.1 2586.53 3761.11 2568.52 C 3779.15 2550.52 3802.29 2543.58 3819.16 2549.13 C 3806.58 2554.8 3790.49 2566.39 3774.73 2582.14"/>
    <path id="path1848" style="fill:#000000;fill-opacity:1;fill-rule:nonzero;stroke:none" d="M 3742.66 2619.2 C 3740.72 2603.68 3748.32 2584.85 3762.88 2570.29 C 3775.75 2557.44 3792.23 2549.77 3806.94 2549.77 L 3806.94 2549.77 C 3808.59 2549.77 3810.21 2549.86 3811.77 2550.05 C 3799.67 2556.72 3785.88 2567.46 3772.96 2580.37 C 3760.06 2593.29 3749.32 2607.09 3742.66 2619.2 Z M 3806.94 2544.77 L 3806.94 2544.77 C 3790.69 2544.77 3773.34 2552.78 3759.35 2566.76 C 3741.35 2584.74 3733.32 2609.1 3739.38 2627.35 C 3739.7 2628.32 3740.59 2629 3741.62 2629.06 C 3742.66 2629.19 3743.6 2628.52 3744.02 2627.59 C 3749.85 2614.66 3761.69 2598.73 3776.49 2583.9 C 3791.33 2569.09 3807.26 2557.24 3820.19 2551.41 C 3821.12 2550.99 3821.71 2550.03 3821.66 2549 C 3821.6 2547.97 3820.92 2547.08 3819.94 2546.76 C 3815.93 2545.44 3811.55 2544.77 3806.94 2544.77"/>
    <path id="path1850" style="fill:#2a5b6a;fill-opacity:1;fill-rule:nonzero;stroke:none" d="M 3760.68 2645.52 C 3773.27 2639.86 3789.37 2628.28 3805.12 2612.52 C 3820.87 2596.78 3832.46 2580.68 3838.13 2568.1 C 3843.66 2584.95 3836.74 2608.14 3818.74 2626.12 C 3800.72 2644.14 3777.55 2651.08 3760.68 2645.52"/>
    <path id="path1852" style="fill:#000000;fill-opacity:1;fill-rule:nonzero;stroke:none" d="M 3768.08 2644.6 C 3780.19 2637.94 3793.98 2627.2 3806.88 2614.29 C 3819.79 2601.39 3830.54 2587.6 3837.21 2575.5 C 3839.1 2591.03 3831.5 2609.84 3816.97 2624.35 C 3802.67 2638.66 3783.67 2646.53 3768.08 2644.6 Z M 3838.13 2565.6 C 3837.15 2565.6 3836.25 2566.18 3835.85 2567.08 C 3830.02 2580.02 3818.17 2595.94 3803.35 2610.75 C 3788.54 2625.58 3772.61 2637.42 3759.66 2643.24 C 3758.72 2643.67 3758.13 2644.62 3758.18 2645.65 C 3758.24 2646.68 3758.93 2647.57 3759.9 2647.89 C 3763.92 2649.22 3768.3 2649.89 3772.91 2649.89 C 3788.94 2649.89 3806.73 2641.67 3820.51 2627.89 C 3838.47 2609.94 3846.5 2585.6 3840.5 2567.32 C 3840.18 2566.34 3839.29 2565.66 3838.26 2565.61 C 3838.21 2565.6 3838.16 2565.6 3838.13 2565.6"/>
    <path id="path1854" style="fill:#2a5b6a;fill-opacity:1;fill-rule:nonzero;stroke:none" d="M 3569.16 2342.97 L 3535.79 2342.97 L 3535.79 2433.99 L 3602.52 2433.99 L 3569.16 2342.97"/>
    <path id="path1856" style="fill:#000000;fill-opacity:1;fill-rule:nonzero;stroke:none" d="M 3538.29 2345.47 L 3567.41 2345.47 L 3598.95 2431.49 L 3538.29 2431.49 L 3538.29 2345.47 Z M 3569.16 2340.47 L 3535.79 2340.47 C 3534.41 2340.47 3533.29 2341.59 3533.29 2342.97 L 3533.29 2433.99 C 3533.29 2435.37 3534.41 2436.49 3535.79 2436.49 L 3602.52 2436.49 C 3603.34 2436.49 3604.1 2436.09 3604.57 2435.42 C 3605.04 2434.75 3605.15 2433.9 3604.86 2433.13 L 3571.5 2342.11 C 3571.14 2341.12 3570.21 2340.47 3569.16 2340.47"/>
    <path id="path1858" style="fill:#2a5b6a;fill-opacity:1;fill-rule:nonzero;stroke:none" d="M 3741.86 2342.97 L 3775.26 2342.97 L 3775.26 2433.99 L 3708.5 2433.99 L 3741.86 2342.97"/>
    <path id="path1860" style="fill:#000000;fill-opacity:1;fill-rule:nonzero;stroke:none" d="M 3743.6 2345.47 L 3772.76 2345.47 L 3772.76 2431.49 L 3712.07 2431.49 L 3743.6 2345.47 Z M 3775.26 2340.47 L 3741.86 2340.47 C 3740.81 2340.47 3739.87 2341.12 3739.51 2342.11 L 3706.15 2433.13 C 3705.87 2433.9 3705.98 2434.75 3706.45 2435.42 C 3706.91 2436.09 3707.68 2436.49 3708.5 2436.49 L 3775.26 2436.49 C 3776.64 2436.49 3777.76 2435.37 3777.76 2433.99 L 3777.76 2342.97 C 3777.76 2341.59 3776.64 2340.47 3775.26 2340.47"/>
    <path id="path1862" style="fill:#f15a24;fill-opacity:1;fill-rule:nonzero;stroke:none" d="M 3549.82 2627.29 C 3527.33 2605.46 3552.36 2563.53 3552.36 2525.64 C 3552.36 2487.74 3519.48 2452.71 3535.79 2423.97 C 3568.3 2409.57 3612.64 2401.03 3655.52 2401.03 C 3698.42 2401.03 3742.75 2409.57 3775.26 2423.97 C 3791.54 2452.71 3758.67 2487.73 3758.67 2525.64 C 3758.67 2563.53 3783.71 2605.49 3761.21 2627.3 C 3736.97 2650.8 3698.38 2650.25 3655.52 2650.25 C 3612.64 2650.25 3574.04 2650.8 3549.82 2627.29"/>
    <path id="path1864" style="fill:#000000;fill-opacity:1;fill-rule:nonzero;stroke:none" d="M 3537.57 2425.92 C 3569.64 2411.89 3613.65 2403.53 3655.52 2403.53 C 3697.39 2403.53 3741.42 2411.89 3773.48 2425.92 C 3781.73 2441.39 3774.9 2459.53 3767.68 2478.71 C 3762.02 2493.72 3756.17 2509.24 3756.17 2525.64 C 3756.17 2539.55 3759.42 2553.77 3762.58 2567.53 C 3768.1 2591.67 3772.87 2612.52 3759.47 2625.51 C 3736.52 2647.75 3699.94 2647.75 3661.21 2647.75 L 3649.82 2647.75 C 3611.08 2647.75 3574.49 2647.75 3551.56 2625.5 C 3538.17 2612.5 3542.94 2591.65 3548.47 2567.52 C 3551.61 2553.77 3554.86 2539.55 3554.86 2525.64 C 3554.86 2509.26 3549.02 2493.74 3543.37 2478.74 C 3536.13 2459.54 3529.31 2441.4 3537.57 2425.92 Z M 3655.52 2398.53 C 3612.65 2398.53 3567.52 2407.19 3534.78 2421.68 C 3534.29 2421.9 3533.88 2422.27 3533.61 2422.73 C 3523.58 2440.41 3530.92 2459.89 3538.69 2480.5 C 3544.18 2495.08 3549.86 2510.16 3549.86 2525.64 C 3549.86 2538.99 3546.67 2552.93 3543.59 2566.4 C 3537.98 2590.95 3532.68 2614.12 3548.09 2629.08 C 3572.47 2652.75 3611.8 2652.75 3649.82 2652.75 L 3661.21 2652.75 C 3699.23 2652.75 3738.54 2652.75 3762.95 2629.1 C 3778.37 2614.15 3773.07 2590.96 3767.45 2566.41 C 3764.37 2552.93 3761.17 2538.98 3761.17 2525.64 C 3761.17 2510.15 3766.86 2495.06 3772.35 2480.47 C 3780.12 2459.87 3787.45 2440.41 3777.44 2422.74 C 3777.18 2422.27 3776.77 2421.9 3776.28 2421.68 C 3743.54 2407.19 3698.4 2398.53 3655.52 2398.53"/>
    <path id="path1866" style="fill:#f15a24;fill-opacity:1;fill-rule:nonzero;stroke:none" d="M 3794.68 2572.04 C 3794.68 2589.13 3784.44 2603.77 3769.8 2610.37 C 3768.67 2616.79 3766.11 2622.55 3761.21 2627.3 C 3736.97 2650.8 3698.38 2650.25 3655.52 2650.25 C 3612.64 2650.25 3574.04 2650.8 3549.82 2627.29 C 3527.33 2605.46 3552.36 2563.53 3552.36 2525.64 C 3552.36 2487.74 3519.48 2452.71 3535.79 2423.97 C 3568.3 2409.57 3612.64 2401.03 3655.52 2401.03 C 3698.42 2401.03 3742.75 2409.57 3775.26 2423.97 C 3791.54 2452.71 3758.67 2487.73 3758.67 2525.64 C 3758.67 2527.27 3758.78 2528.91 3758.86 2530.56 C 3779.1 2533.62 3794.68 2550.95 3794.68 2572.04"/>
    <path id="path1868" style="fill:#000000;fill-opacity:1;fill-rule:nonzero;stroke:none" d="M 3537.57 2425.92 C 3569.64 2411.89 3613.65 2403.53 3655.52 2403.53 C 3697.39 2403.53 3741.42 2411.89 3773.48 2425.92 C 3781.73 2441.39 3774.9 2459.53 3767.68 2478.71 C 3762.02 2493.72 3756.17 2509.24 3756.17 2525.64 C 3756.17 2526.96 3756.24 2528.29 3756.31 2529.63 L 3756.36 2530.67 C 3756.42 2531.86 3757.3 2532.85 3758.49 2533.03 C 3778.01 2535.98 3792.18 2552.39 3792.18 2572.04 C 3792.18 2587.54 3782.99 2601.68 3768.78 2608.09 C 3768.03 2608.43 3767.49 2609.12 3767.34 2609.93 C 3766.2 2616.38 3763.63 2621.47 3759.47 2625.51 C 3736.52 2647.75 3699.94 2647.75 3661.21 2647.75 L 3649.82 2647.75 C 3611.08 2647.75 3574.49 2647.75 3551.56 2625.5 C 3538.17 2612.5 3542.94 2591.65 3548.47 2567.52 C 3551.61 2553.77 3554.86 2539.55 3554.86 2525.64 C 3554.86 2509.26 3549.02 2493.74 3543.37 2478.74 C 3536.13 2459.54 3529.31 2441.4 3537.57 2425.92 Z M 3655.52 2398.53 C 3612.65 2398.53 3567.52 2407.19 3534.78 2421.68 C 3534.29 2421.9 3533.88 2422.27 3533.61 2422.73 C 3523.58 2440.41 3530.92 2459.89 3538.69 2480.5 C 3544.18 2495.08 3549.86 2510.16 3549.86 2525.64 C 3549.86 2538.99 3546.67 2552.93 3543.59 2566.4 C 3537.98 2590.95 3532.68 2614.12 3548.09 2629.08 C 3572.47 2652.75 3611.8 2652.75 3649.82 2652.75 L 3661.21 2652.75 C 3699.23 2652.75 3738.54 2652.75 3762.95 2629.1 C 3767.61 2624.58 3770.59 2619.01 3772.02 2612.09 C 3787.34 2604.64 3797.18 2589.06 3797.18 2572.04 C 3797.18 2550.59 3782.19 2532.56 3761.25 2528.44 C 3761.21 2527.5 3761.17 2526.57 3761.17 2525.64 C 3761.17 2510.15 3766.86 2495.06 3772.35 2480.47 C 3780.12 2459.87 3787.45 2440.41 3777.44 2422.74 C 3777.18 2422.27 3776.77 2421.9 3776.28 2421.68 C 3743.54 2407.19 3698.4 2398.53 3655.52 2398.53"/>
    <path id="path1870" style="fill:#d33605;fill-opacity:1;fill-rule:nonzero;stroke:none" d="M 3760.41 2509.91 C 3759.35 2515.09 3758.67 2520.34 3758.67 2525.64 C 3758.67 2543.75 3765.08 2561.21 3770.01 2577.65 C 3769.67 2581.81 3769.34 2585.99 3769 2589.93 C 3763.96 2592.08 3758.4 2593.27 3752.56 2593.27 L 3632.76 2593.27 C 3609.51 2593.27 3590.66 2574.41 3590.66 2551.15 C 3590.66 2527.9 3609.51 2509.05 3632.76 2509.05 L 3752.56 2509.05 C 3755.26 2509.05 3757.86 2509.4 3760.41 2509.91"/>
    <path id="path1872" style="fill:#f15a24;fill-opacity:1;fill-rule:nonzero;stroke:none" d="M 3794.68 2572.04 C 3794.68 2548.79 3775.81 2529.92 3752.56 2529.92 L 3632.76 2529.92 C 3609.51 2529.92 3590.66 2548.79 3590.66 2572.04 L 3590.66 2572.04 C 3590.66 2595.29 3609.51 2614.14 3632.76 2614.14 L 3752.56 2614.14 C 3775.81 2614.14 3794.68 2595.29 3794.68 2572.04 L 3794.68 2572.04"/>
    <path id="path1874" style="fill:#d33605;fill-opacity:1;fill-rule:nonzero;stroke:none" d="M 3655.52 2650.25 C 3614.06 2650.25 3576.74 2650.56 3552.41 2629.34 C 3576.64 2614.45 3605.06 2605.71 3635.58 2605.71 L 3686.69 2605.71 C 3714.37 2605.71 3740.37 2612.78 3763.04 2625.19 C 3762.44 2625.9 3761.9 2626.63 3761.21 2627.3 C 3736.97 2650.8 3698.38 2650.25 3655.52 2650.25"/>
    <path id="path1876" style="fill:#000000;fill-opacity:1;fill-rule:nonzero;stroke:none" d="M 3537.57 2425.92 C 3569.64 2411.89 3613.65 2403.53 3655.52 2403.53 C 3697.39 2403.53 3741.42 2411.89 3773.48 2425.92 C 3781.73 2441.39 3774.9 2459.53 3767.68 2478.71 C 3762.02 2493.72 3756.17 2509.24 3756.17 2525.64 C 3756.17 2526.96 3756.24 2528.29 3756.31 2529.63 L 3756.36 2530.67 C 3756.42 2531.86 3757.3 2532.85 3758.49 2533.03 C 3778.01 2535.98 3792.18 2552.39 3792.18 2572.04 C 3792.18 2587.54 3782.99 2601.68 3768.78 2608.09 C 3768.03 2608.43 3767.49 2609.12 3767.34 2609.93 C 3766.2 2616.38 3763.63 2621.47 3759.47 2625.51 C 3736.52 2647.75 3699.94 2647.75 3661.21 2647.75 L 3649.82 2647.75 C 3611.08 2647.75 3574.49 2647.75 3551.56 2625.5 C 3538.17 2612.5 3542.94 2591.65 3548.47 2567.52 C 3551.61 2553.77 3554.86 2539.55 3554.86 2525.64 C 3554.86 2509.26 3549.02 2493.74 3543.37 2478.74 C 3536.13 2459.54 3529.31 2441.4 3537.57 2425.92 Z M 3655.52 2398.53 C 3612.65 2398.53 3567.52 2407.19 3534.78 2421.68 C 3534.29 2421.9 3533.88 2422.27 3533.61 2422.73 C 3523.58 2440.41 3530.92 2459.89 3538.69 2480.5 C 3544.18 2495.08 3549.86 2510.16 3549.86 2525.64 C 3549.86 2538.99 3546.67 2552.93 3543.59 2566.4 C 3537.98 2590.95 3532.68 2614.12 3548.09 2629.08 C 3572.47 2652.75 3611.8 2652.75 3649.82 2652.75 L 3661.21 2652.75 C 3699.23 2652.75 3738.54 2652.75 3762.95 2629.1 C 3767.61 2624.58 3770.59 2619.01 3772.02 2612.09 C 3787.34 2604.64 3797.18 2589.06 3797.18 2572.04 C 3797.18 2550.59 3782.19 2532.56 3761.25 2528.44 C 3761.21 2527.5 3761.17 2526.57 3761.17 2525.64 C 3761.17 2510.15 3766.86 2495.06 3772.35 2480.47 C 3780.12 2459.87 3787.45 2440.41 3777.44 2422.74 C 3777.18 2422.27 3776.77 2421.9 3776.28 2421.68 C 3743.54 2407.19 3698.4 2398.53 3655.52 2398.53"/>
    <path id="path1878" style="fill:#f4d9bd;fill-opacity:1;fill-rule:nonzero;stroke:none" d="M 3845.93 2784.93 C 3845.93 2697.01 3774.65 2625.71 3686.69 2625.71 L 3635.58 2625.71 C 3547.65 2625.71 3476.33 2697.01 3476.33 2784.93 L 3476.33 2784.93 C 3476.33 2872.87 3547.65 2944.17 3635.58 2944.17 L 3686.69 2944.17 C 3774.65 2944.17 3845.93 2872.87 3845.93 2784.93 L 3845.93 2784.93"/>
    <path id="path1880" style="fill:#000000;fill-opacity:1;fill-rule:nonzero;stroke:none" d="M 3635.58 2941.67 C 3549.14 2941.67 3478.83 2871.36 3478.83 2784.93 C 3478.83 2698.51 3549.14 2628.21 3635.58 2628.21 L 3686.69 2628.21 C 3773.12 2628.21 3843.43 2698.51 3843.43 2784.93 C 3843.43 2871.36 3773.12 2941.67 3686.69 2941.67 L 3635.58 2941.67 Z M 3686.69 2623.21 L 3635.58 2623.21 C 3546.39 2623.21 3473.83 2695.76 3473.83 2784.93 C 3473.83 2874.11 3546.39 2946.67 3635.58 2946.67 L 3686.69 2946.67 C 3775.87 2946.67 3848.43 2874.11 3848.43 2784.93 C 3848.43 2695.76 3775.87 2623.21 3686.69 2623.21"/>
    <path id="path1882" style="fill:#0c3841;fill-opacity:1;fill-rule:nonzero;stroke:none" d="M 3615.77 2809.69 L 3558.79 2798.84 L 3558.79 2814.68 L 3615.77 2835.45 L 3615.77 2809.69"/>
    <path id="path1884" style="fill:#000000;fill-opacity:1;fill-rule:nonzero;stroke:none" d="M 3561.29 2812.93 L 3561.29 2801.86 L 3613.27 2811.76 L 3613.27 2831.87 L 3561.29 2812.93 Z M 3558.79 2796.34 C 3558.21 2796.34 3557.65 2796.54 3557.2 2796.92 C 3556.62 2797.39 3556.29 2798.09 3556.29 2798.84 L 3556.29 2814.68 C 3556.29 2815.73 3556.94 2816.67 3557.93 2817.03 L 3614.91 2837.8 C 3615.69 2838.08 3616.53 2837.97 3617.21 2837.49 C 3617.87 2837.03 3618.27 2836.26 3618.27 2835.45 L 3618.27 2809.69 C 3618.27 2808.48 3617.42 2807.45 3616.24 2807.23 L 3559.26 2796.39 C 3559.1 2796.36 3558.95 2796.34 3558.79 2796.34"/>
    <path id="path1886" style="fill:#ffac83;fill-opacity:1;fill-rule:nonzero;stroke:none" d="M 3824.09 2709.66 C 3824.09 2693.92 3809.52 2681.17 3791.56 2681.17 C 3773.59 2681.17 3759.02 2693.92 3759.02 2709.66 C 3759.02 2725.37 3773.59 2738.14 3791.56 2738.14 C 3809.52 2738.14 3824.09 2725.37 3824.09 2709.66"/>
    <path id="path1888" style="fill:#ffac83;fill-opacity:1;fill-rule:nonzero;stroke:none" d="M 3631.04 2709.66 C 3631.04 2693.92 3616.48 2681.17 3598.52 2681.17 C 3580.57 2681.17 3565.99 2693.92 3565.99 2709.66 C 3565.99 2725.37 3580.57 2738.14 3598.52 2738.14 C 3616.48 2738.14 3631.04 2725.37 3631.04 2709.66"/>
    <path id="path1890" style="fill:#eb4900;fill-opacity:1;fill-rule:nonzero;stroke:none" d="M 3676.44 2660.28 C 3690.79 2660.28 3702.37 2671.91 3702.37 2686.24 L 3650.65 2686.24 C 3650.65 2671.91 3662.2 2660.28 3676.44 2660.28"/>
    <path id="path1892" style="fill:#000000;fill-opacity:1;fill-rule:nonzero;stroke:none" d="M 3653.28 2683.74 C 3654.53 2671.97 3664.43 2662.78 3676.44 2662.78 C 3688.52 2662.78 3698.49 2671.97 3699.74 2683.74 L 3653.28 2683.74 Z M 3676.44 2657.78 C 3660.84 2657.78 3648.15 2670.55 3648.15 2686.24 C 3648.15 2687.62 3649.28 2688.74 3650.65 2688.74 L 3702.37 2688.74 C 3703.75 2688.74 3704.87 2687.62 3704.87 2686.24 C 3704.87 2670.55 3692.12 2657.78 3676.44 2657.78"/>
    <path id="path1894" style="fill:#2a5b6a;fill-opacity:1;fill-rule:nonzero;stroke:none" d="M 3595.29 2772.69 C 3585.68 2772.69 3577.41 2767.43 3572.93 2759.7 L 3550.56 2759.7 C 3546.96 2759.7 3544.06 2756.79 3544.06 2753.23 C 3544.06 2749.62 3546.96 2746.71 3550.56 2746.71 L 3621.06 2746.74 C 3621.06 2761.07 3609.53 2772.69 3595.29 2772.69"/>
    <path id="path1896" style="fill:#000000;fill-opacity:1;fill-rule:nonzero;stroke:none" d="M 3550.56 2757.2 C 3548.35 2757.2 3546.56 2755.42 3546.56 2753.23 C 3546.56 2751.01 3548.35 2749.21 3550.56 2749.21 L 3618.44 2749.24 C 3617.19 2761 3607.29 2770.19 3595.29 2770.19 C 3586.9 2770.19 3579.36 2765.8 3575.09 2758.45 C 3574.65 2757.67 3573.82 2757.2 3572.93 2757.2 L 3550.56 2757.2 Z M 3550.56 2744.21 L 3550.56 2744.21 C 3545.6 2744.21 3541.56 2748.26 3541.56 2753.23 C 3541.56 2758.17 3545.6 2762.2 3550.56 2762.2 L 3571.53 2762.2 C 3576.81 2770.36 3585.59 2775.19 3595.29 2775.19 C 3610.88 2775.19 3623.56 2762.43 3623.56 2746.74 C 3623.56 2745.35 3622.44 2744.24 3621.06 2744.24 L 3550.56 2744.21"/>
    <path id="path1898" style="fill:#2a5b6a;fill-opacity:1;fill-rule:nonzero;stroke:none" d="M 3840.21 2759.7 L 3816.28 2759.7 C 3811.81 2767.43 3803.55 2772.69 3794.03 2772.69 C 3779.68 2772.69 3768.13 2761.07 3768.13 2746.74 L 3840.21 2746.71 C 3843.8 2746.71 3846.71 2749.62 3846.71 2753.23 C 3846.71 2756.79 3843.8 2759.7 3840.21 2759.7"/>
    <path id="path1900" style="fill:#000000;fill-opacity:1;fill-rule:nonzero;stroke:none" d="M 3770.77 2749.24 L 3840.21 2749.21 C 3842.42 2749.21 3844.21 2751.01 3844.21 2753.23 C 3844.21 2755.42 3842.42 2757.2 3840.21 2757.2 L 3816.28 2757.2 C 3815.39 2757.2 3814.56 2757.67 3814.11 2758.45 C 3809.93 2765.69 3802.24 2770.19 3794.03 2770.19 C 3781.97 2770.19 3772.01 2761 3770.77 2749.24 Z M 3840.21 2744.21 L 3840.21 2744.21 L 3768.13 2744.24 C 3766.76 2744.24 3765.63 2745.35 3765.63 2746.74 C 3765.63 2762.43 3778.38 2775.19 3794.03 2775.19 C 3803.53 2775.19 3812.46 2770.25 3817.68 2762.2 L 3840.21 2762.2 C 3845.18 2762.2 3849.21 2758.17 3849.21 2753.23 C 3849.21 2748.26 3845.18 2744.21 3840.21 2744.21"/>
    <path id="path1902" style="fill:#0c3841;fill-opacity:1;fill-rule:nonzero;stroke:none" d="M 3866.14 2969.41 C 3778.24 3046.86 3545.94 2993.89 3484.21 2905.65 C 3454.03 2862.5 3458.12 2773.16 3474.55 2713.26 C 3473.63 2713.31 3472.73 2713.4 3471.82 2713.4 C 3440 2713.4 3414.21 2687.62 3414.21 2655.79 C 3414.21 2623.97 3440 2598.19 3471.82 2598.19 C 3503.63 2598.19 3529.42 2623.97 3529.42 2655.79 C 3529.42 2711.45 3511.5 2815.05 3562.81 2854.07 C 3607.6 2888.13 3904.09 2753.36 3904.09 2753.36 C 3904.09 2753.36 3955.53 2890.65 3866.14 2969.41"/>
    <path id="path1904" style="fill:#000000;fill-opacity:1;fill-rule:nonzero;stroke:none" d="M 3471.82 2710.9 C 3441.43 2710.9 3416.71 2686.18 3416.71 2655.79 C 3416.71 2625.41 3441.43 2600.69 3471.82 2600.69 C 3502.21 2600.69 3526.92 2625.41 3526.92 2655.79 C 3526.92 2666.28 3526.28 2678.64 3525.59 2691.72 C 3522.67 2747.39 3518.66 2823.64 3561.3 2856.06 C 3566.63 2860.11 3574.91 2862.08 3586.62 2862.08 C 3666.29 2862.08 3875.91 2768.8 3902.63 2756.77 C 3908.94 2775.75 3944.93 2896.65 3864.49 2967.53 C 3837.1 2991.66 3793.82 3004.42 3739.32 3004.42 C 3638.43 3004.42 3524.9 2959.47 3486.26 2904.22 C 3457.56 2863.18 3460.05 2775.55 3476.96 2713.92 C 3477.18 2713.15 3477 2712.32 3476.49 2711.69 C 3476 2711.06 3475.19 2710.66 3474.41 2710.77 L 3473.49 2710.82 C 3472.93 2710.86 3472.38 2710.9 3471.82 2710.9 Z M 3471.82 2595.69 C 3438.67 2595.69 3411.71 2622.65 3411.71 2655.79 C 3411.71 2688.75 3438.37 2715.59 3471.25 2715.9 C 3454.43 2779.86 3452.78 2865.07 3482.16 2907.08 C 3522.3 2964.47 3635.26 3009.42 3739.32 3009.42 C 3795.06 3009.42 3839.48 2996.23 3867.79 2971.28 C 3957.43 2892.3 3906.95 2753.87 3906.44 2752.48 C 3906.19 2751.83 3905.69 2751.31 3905.05 2751.05 C 3904.41 2750.79 3903.69 2750.79 3903.06 2751.08 C 3900.72 2752.14 3668.9 2857.08 3586.62 2857.08 C 3576.19 2857.08 3568.69 2855.4 3564.33 2852.07 C 3523.8 2821.26 3527.71 2746.54 3530.59 2691.99 C 3531.27 2678.83 3531.92 2666.41 3531.92 2655.79 C 3531.92 2622.65 3504.96 2595.69 3471.82 2595.69"/>
    <path id="path1906" style="fill:#eb4900;fill-opacity:1;fill-rule:nonzero;stroke:none" d="M 3933.49 3027.32 C 3934.03 2989.44 3903.6 2958.25 3865.9 2954.72 C 3731.82 2942.49 3601.18 2905.28 3480.8 2844.95 C 3446.9 2828.03 3404.61 2838.54 3385.1 2871.03 L 3385.1 2871.03 C 3365.6 2903.42 3380.3 2948.01 3419.38 2967.55 C 3555.07 3035.52 3702.32 3077.53 3853.47 3091.28 C 3896.95 3095.25 3932.98 3065.15 3933.49 3027.32 L 3933.49 3027.32"/>
    <path id="path1908" style="fill:#000000;fill-opacity:1;fill-rule:nonzero;stroke:none" d="M 3861.17 3089.13 C 3858.71 3089.13 3856.21 3089.02 3853.69 3088.79 C 3702.3 3075.02 3556.56 3033.47 3420.51 2965.31 C 3401.35 2955.74 3387.17 2939.21 3381.58 2919.98 C 3376.75 2903.33 3378.76 2886.41 3387.24 2872.32 C 3399.6 2851.74 3421.88 2839.46 3446.87 2839.46 C 3458.2 2839.46 3469.55 2842.13 3479.69 2847.19 C 3600.79 2907.88 3730.65 2944.9 3865.67 2957.21 C 3902.81 2960.68 3931.5 2991.46 3930.99 3027.28 C 3930.52 3061.97 3899.85 3089.13 3861.17 3089.13 Z M 3446.87 2834.46 C 3420.12 2834.46 3396.22 2847.65 3382.96 2869.74 C 3373.75 2885.04 3371.55 2903.37 3376.78 2921.38 C 3382.75 2941.94 3397.87 2959.58 3418.27 2969.78 C 3554.88 3038.23 3701.23 3079.94 3853.24 3093.77 C 3898.13 3097.9 3935.46 3067.16 3935.99 3027.35 C 3936.54 2988.94 3905.86 2955.95 3866.13 2952.23 C 3731.74 2939.97 3602.47 2903.13 3481.92 2842.72 C 3471.09 2837.31 3458.97 2834.46 3446.87 2834.46"/>
    <path id="path1910" style="fill:#d33605;fill-opacity:1;fill-rule:nonzero;stroke:none" d="M 3490.8 3000.48 C 3481.52 2996.57 3472.3 2992.5 3463.09 2988.36 C 3481.91 2946.72 3500.71 2905.08 3519.57 2863.44 C 3527.73 2867.12 3535.95 2870.68 3544.19 2874.21 C 3526.39 2916.27 3508.59 2958.39 3490.8 3000.48"/>
    <path id="path1912" style="fill:#000000;fill-opacity:1;fill-rule:nonzero;stroke:none" d="M 3466.4 2987.11 L 3483.18 2949.97 C 3495.72 2922.23 3508.25 2894.49 3520.82 2866.74 C 3527.49 2869.73 3534.19 2872.64 3540.92 2875.53 L 3489.47 2997.21 C 3481.76 2993.92 3474.07 2990.55 3466.4 2987.11 Z M 3519.57 2860.94 C 3518.62 2860.94 3517.71 2861.48 3517.29 2862.41 C 3504.38 2890.91 3491.5 2919.41 3478.62 2947.91 L 3460.81 2987.33 C 3460.54 2987.94 3460.52 2988.63 3460.75 2989.25 C 3460.99 2989.87 3461.46 2990.37 3462.06 2990.64 C 3471.3 2994.79 3480.54 2998.86 3489.82 3002.79 C 3491.13 3003.3 3492.58 3002.72 3493.11 3001.45 L 3546.49 2875.19 C 3547.03 2873.92 3546.44 2872.45 3545.18 2871.91 C 3536.94 2868.39 3528.75 2864.84 3520.6 2861.16 C 3520.26 2861 3519.91 2860.94 3519.57 2860.94"/>
    <path id="path1914" style="fill:#d33605;fill-opacity:1;fill-rule:nonzero;stroke:none" d="M 3645.2 3053.77 C 3635.44 3051.12 3625.78 3048.39 3616.13 3045.51 C 3629.2 3001.72 3642.29 2957.92 3655.32 2914.15 C 3663.91 2916.68 3672.51 2919.15 3681.12 2921.48 C 3669.14 2965.58 3657.18 3009.7 3645.2 3053.77"/>
    <path id="path1916" style="fill:#000000;fill-opacity:1;fill-rule:nonzero;stroke:none" d="M 3619.25 3043.83 L 3657 2917.25 C 3664.01 2919.31 3671.03 2921.31 3678.06 2923.24 L 3643.44 3050.7 C 3635.33 3048.48 3627.28 3046.2 3619.25 3043.83 Z M 3655.32 2911.65 C 3654.25 2911.65 3653.25 2912.36 3652.93 2913.44 L 3613.74 3044.8 C 3613.54 3045.43 3613.62 3046.12 3613.94 3046.7 C 3614.25 3047.28 3614.79 3047.72 3615.42 3047.91 C 3625.09 3050.79 3634.77 3053.52 3644.54 3056.18 C 3645.87 3056.55 3647.25 3055.75 3647.61 3054.42 L 3683.54 2922.13 C 3683.71 2921.49 3683.62 2920.81 3683.29 2920.23 C 3682.96 2919.66 3682.41 2919.24 3681.78 2919.07 C 3673.18 2916.74 3664.59 2914.28 3656.03 2911.76 C 3655.79 2911.69 3655.56 2911.65 3655.32 2911.65"/>
    <path id="path1918" style="fill:#d33605;fill-opacity:1;fill-rule:nonzero;stroke:none" d="M 3805.38 3085.93 C 3795.36 3084.58 3785.35 3083.18 3775.35 3081.58 C 3782.44 3036.46 3789.55 2991.31 3796.64 2946.17 C 3805.5 2947.54 3814.35 2948.8 3823.24 2949.95 C 3817.28 2995.28 3811.33 3040.59 3805.38 3085.93"/>
    <path id="path1920" style="fill:#000000;fill-opacity:1;fill-rule:nonzero;stroke:none" d="M 3778.21 3079.5 L 3798.72 2949.02 C 3805.96 2950.12 3813.18 2951.15 3820.44 2952.11 C 3814.69 2995.78 3808.96 3039.43 3803.23 3083.12 C 3794.88 3081.99 3786.54 3080.8 3778.21 3079.5 Z M 3796.64 2943.67 C 3795.43 2943.67 3794.37 2944.55 3794.17 2945.78 L 3772.88 3081.19 C 3772.67 3082.55 3773.59 3083.83 3774.96 3084.05 C 3784.98 3085.65 3795.01 3087.06 3805.05 3088.41 C 3805.69 3088.51 3806.38 3088.32 3806.9 3087.92 C 3807.43 3087.51 3807.77 3086.92 3807.86 3086.26 C 3813.81 3040.92 3819.76 2995.61 3825.72 2950.28 C 3825.81 2949.62 3825.63 2948.96 3825.22 2948.43 C 3824.82 2947.9 3824.22 2947.56 3823.56 2947.47 C 3814.69 2946.32 3805.86 2945.06 3797.02 2943.7 C 3796.89 2943.68 3796.77 2943.67 3796.64 2943.67"/>
    <path id="path1922" style="fill:#d33605;fill-opacity:1;fill-rule:nonzero;stroke:none" d="M 3535.79 2375.95 L 3535.79 2342.97 L 3569.16 2342.97 L 3581.22 2375.95 L 3535.79 2375.95"/>
    <path id="path1924" style="fill:#000000;fill-opacity:1;fill-rule:nonzero;stroke:none" d="M 3538.29 2345.47 L 3567.41 2345.47 L 3577.65 2373.45 L 3538.29 2373.45 L 3538.29 2345.47 Z M 3569.16 2340.47 L 3535.79 2340.47 C 3534.41 2340.47 3533.29 2341.59 3533.29 2342.97 L 3533.29 2375.95 C 3533.29 2377.33 3534.41 2378.45 3535.79 2378.45 L 3581.22 2378.45 C 3582.04 2378.45 3582.8 2378.05 3583.27 2377.38 C 3583.74 2376.71 3583.85 2375.86 3583.56 2375.09 L 3571.5 2342.11 C 3571.15 2341.12 3570.21 2340.47 3569.16 2340.47"/>
    <path id="path1926" style="fill:#d33605;fill-opacity:1;fill-rule:nonzero;stroke:none" d="M 3729.79 2375.95 L 3741.86 2342.97 L 3775.26 2342.97 L 3775.26 2375.95 L 3729.79 2375.95"/>
    <path id="path1928" style="fill:#000000;fill-opacity:1;fill-rule:nonzero;stroke:none" d="M 3743.6 2345.47 L 3772.76 2345.47 L 3772.76 2373.45 L 3733.37 2373.45 L 3743.6 2345.47 Z M 3775.26 2340.47 L 3741.86 2340.47 C 3740.81 2340.47 3739.86 2341.12 3739.51 2342.11 L 3727.45 2375.09 C 3727.17 2375.86 3727.28 2376.71 3727.74 2377.38 C 3728.21 2378.05 3728.97 2378.45 3729.79 2378.45 L 3775.26 2378.45 C 3776.64 2378.45 3777.76 2377.33 3777.76 2375.95 L 3777.76 2342.97 C 3777.76 2341.59 3776.64 2340.47 3775.26 2340.47"/>
    <path id="path1930" style="fill:#b39471;fill-opacity:1;fill-rule:nonzero;stroke:none" d="M 3696.28 2397.85 C 3656.82 2379.75 3610.13 2397.08 3592.01 2436.54 C 3573.93 2476 3591.26 2522.68 3630.72 2540.8 C 3670.21 2558.89 3746.23 2555 3764.3 2515.55 C 3782.4 2476.07 3735.73 2415.93 3696.28 2397.85"/>
    <path id="path1932" style="fill:#000000;fill-opacity:1;fill-rule:nonzero;stroke:none" d="M 3684.66 2548.67 C 3665.11 2548.67 3645.82 2544.97 3631.77 2538.53 C 3593.61 2521.01 3576.81 2475.73 3594.29 2437.58 C 3606.67 2410.6 3633.86 2393.17 3663.56 2393.17 C 3674.53 2393.17 3685.19 2395.51 3695.23 2400.12 C 3714.8 2409.09 3735.7 2428.21 3749.78 2450.03 C 3758.9 2464.18 3772.63 2491.38 3762.02 2514.51 C 3750.49 2539.69 3714.5 2548.67 3684.66 2548.67 Z M 3663.56 2388.17 C 3631.91 2388.17 3602.94 2406.75 3589.74 2435.5 C 3571.11 2476.15 3589.02 2524.4 3629.68 2543.07 C 3644.38 2549.81 3664.41 2553.67 3684.66 2553.67 C 3716.05 2553.67 3754.05 2543.92 3766.57 2516.59 C 3775.17 2497.85 3770.69 2473.25 3753.97 2447.32 C 3739.41 2424.74 3717.71 2404.92 3697.32 2395.57 C 3686.61 2390.66 3675.25 2388.17 3663.56 2388.17"/>
    <path id="path1934" style="fill:#735846;fill-opacity:1;fill-rule:nonzero;stroke:none" d="M 3675.86 2449.78 C 3664.37 2444.51 3650.74 2449.54 3645.49 2461.05 C 3640.21 2472.56 3645.28 2486.14 3656.77 2491.42 C 3668.25 2496.67 3681.86 2491.65 3687.12 2480.14 C 3692.37 2468.63 3687.34 2455.06 3675.86 2449.78"/>
    <path id="path1936" style="fill:#000000;fill-opacity:1;fill-rule:nonzero;stroke:none" d="M 3666.29 2491 C 3663.36 2491 3660.5 2490.38 3657.8 2489.14 C 3647.59 2484.45 3643.08 2472.31 3647.76 2462.09 C 3651.06 2454.86 3658.35 2450.19 3666.32 2450.19 C 3669.26 2450.19 3672.12 2450.81 3674.81 2452.05 C 3685.02 2456.74 3689.51 2468.87 3684.84 2479.1 C 3681.54 2486.33 3674.26 2491 3666.29 2491 Z M 3666.32 2445.19 C 3656.4 2445.19 3647.32 2451 3643.21 2460.01 C 3637.38 2472.73 3643 2487.84 3655.72 2493.69 C 3659.08 2495.22 3662.64 2496 3666.29 2496 C 3676.21 2496 3685.27 2490.18 3689.39 2481.18 C 3695.21 2468.45 3689.6 2453.34 3676.9 2447.51 C 3673.54 2445.97 3669.99 2445.19 3666.32 2445.19"/>
    <path id="path1938" style="fill:#baaf98;fill-opacity:1;fill-rule:nonzero;stroke:none" d="M 3638.07 2429.44 L 3616.72 2476.07 L 3633.76 2483.89 L 3655.11 2437.27 L 3638.07 2429.44"/>
    <path id="path1940" style="fill:#000000;fill-opacity:1;fill-rule:nonzero;stroke:none" d="M 3620.03 2474.84 L 3639.3 2432.76 L 3651.8 2438.5 L 3632.53 2480.58 L 3620.03 2474.84 Z M 3638.07 2426.94 C 3637.77 2426.94 3637.48 2427 3637.2 2427.1 C 3636.57 2427.33 3636.07 2427.8 3635.79 2428.4 L 3614.44 2475.03 C 3613.87 2476.28 3614.42 2477.76 3615.67 2478.34 L 3632.71 2486.17 C 3633.32 2486.44 3634 2486.47 3634.63 2486.24 C 3635.25 2486.01 3635.75 2485.54 3636.04 2484.93 L 3657.38 2438.31 C 3657.96 2437.05 3657.4 2435.57 3656.15 2435 L 3639.11 2427.17 C 3638.78 2427.02 3638.43 2426.94 3638.07 2426.94"/>
    <path id="path1942" style="fill:#c9a88b;fill-opacity:1;fill-rule:nonzero;stroke:none" d="M 3906.4 2563.9 C 3911.58 2552.76 3906.76 2539.54 3895.67 2534.37 L 3869.03 2521.92 C 3857.93 2516.78 3844.71 2521.59 3839.5 2532.7 L 3827.1 2559.31 C 3821.93 2570.43 3826.74 2583.64 3837.82 2588.85 L 3864.46 2601.27 C 3875.61 2606.42 3888.82 2601.61 3894 2590.5 L 3906.4 2563.9"/>
    <path id="path1944" style="fill:#000000;fill-opacity:1;fill-rule:nonzero;stroke:none" d="M 3873.82 2600.84 C 3870.94 2600.84 3868.14 2600.22 3865.51 2599 L 3838.88 2586.58 C 3829.06 2581.97 3824.79 2570.21 3829.37 2560.37 L 3841.77 2533.76 C 3845.01 2526.83 3852.05 2522.36 3859.71 2522.36 C 3862.58 2522.36 3865.36 2522.98 3867.98 2524.19 L 3894.62 2536.63 C 3904.45 2541.22 3908.72 2552.98 3904.13 2562.85 L 3891.74 2589.44 C 3888.51 2596.37 3881.47 2600.84 3873.82 2600.84 Z M 3859.71 2517.36 C 3850.12 2517.36 3841.3 2522.97 3837.24 2531.64 L 3824.83 2558.26 C 3819.1 2570.59 3824.45 2585.33 3836.76 2591.11 L 3863.41 2603.54 C 3866.71 2605.07 3870.21 2605.84 3873.82 2605.84 C 3883.41 2605.84 3892.22 2600.23 3896.27 2591.55 L 3908.66 2564.96 C 3914.41 2552.6 3909.06 2537.85 3896.73 2532.1 L 3870.09 2519.66 C 3866.8 2518.13 3863.31 2517.36 3859.71 2517.36"/>
    <path id="path1946" style="fill:#baaf98;fill-opacity:1;fill-rule:nonzero;stroke:none" d="M 3712.11 2471.02 L 3696.49 2505.05 L 3895.37 2592.25 L 3907.95 2564.79 L 3712.11 2471.02"/>
    <path id="path1948" style="fill:#000000;fill-opacity:1;fill-rule:nonzero;stroke:none" d="M 3699.82 2503.78 L 3713.32 2474.37 L 3904.65 2565.98 L 3894.12 2588.97 L 3699.82 2503.78 Z M 3712.11 2468.52 C 3711.83 2468.52 3711.53 2468.57 3711.26 2468.67 C 3710.63 2468.89 3710.12 2469.37 3709.83 2469.97 L 3694.22 2504 C 3693.95 2504.61 3693.92 2505.31 3694.16 2505.94 C 3694.39 2506.56 3694.87 2507.07 3695.49 2507.34 L 3894.37 2594.54 C 3895.64 2595.09 3897.08 2594.53 3897.65 2593.29 L 3910.22 2565.83 C 3910.79 2564.59 3910.26 2563.12 3909.03 2562.53 L 3713.19 2468.76 C 3712.85 2468.6 3712.48 2468.52 3712.11 2468.52"/>
    <path id="path1950" style="fill:#baaf98;fill-opacity:1;fill-rule:nonzero;stroke:none" d="M 3907.95 2564.79 L 3895.37 2592.25 L 3946.93 2592.21 L 3948.6 2562.75 L 3907.95 2564.79"/>
    <path id="path1952" style="fill:#000000;fill-opacity:1;fill-rule:nonzero;stroke:none" d="M 3909.59 2567.21 L 3945.95 2565.38 L 3944.57 2589.71 L 3899.27 2589.74 L 3909.59 2567.21 Z M 3948.6 2560.25 C 3948.56 2560.25 3948.52 2560.25 3948.48 2560.25 L 3907.82 2562.29 C 3906.89 2562.34 3906.06 2562.9 3905.67 2563.75 L 3893.1 2591.21 C 3892.74 2591.98 3892.8 2592.88 3893.27 2593.6 C 3893.73 2594.31 3894.52 2594.75 3895.37 2594.75 L 3895.37 2594.75 L 3946.93 2594.71 C 3948.26 2594.71 3949.36 2593.68 3949.43 2592.35 L 3951.05 2563.66 C 3951.17 2563.38 3951.23 2563.07 3951.23 2562.75 C 3951.23 2561.37 3950.11 2560.25 3948.73 2560.25 C 3948.69 2560.25 3948.65 2560.25 3948.6 2560.25"/>
    <path id="path1954" style="fill:#0c3841;fill-opacity:1;fill-rule:nonzero;stroke:none" d="M 3631.47 2463.87 L 3630.34 2466.32 L 3897.62 2588.87 L 3898.74 2586.44 L 3631.47 2463.87"/>
    <path id="path1956" style="fill:#0c3841;fill-opacity:1;fill-rule:nonzero;stroke:none" d="M 3639.44 2446.45 L 3638.34 2448.9 L 3905.63 2571.45 L 3906.72 2569.02 L 3639.44 2446.45"/>
    <path id="path1958" style="fill:#0c3841;fill-opacity:1;fill-rule:nonzero;stroke:none" d="M 3635.53 2455.02 L 3634.41 2457.46 L 3901.68 2580.01 L 3902.81 2577.56 L 3635.53 2455.02"/>
    <path id="path1960" style="fill:#ffb103;fill-opacity:1;fill-rule:nonzero;stroke:none" d="M 3516.46 2563.37 C 3532.49 2504.77 3565.49 2470.88 3574.12 2463.17 C 3608.93 2432.03 3636.96 2481.85 3623.55 2495.36 C 3550.33 2569.12 3525.86 2621.7 3519.98 2632.02 C 3519.98 2632.02 3502.6 2614.13 3516.46 2563.37"/>
    <path id="path1962" style="fill:#000000;fill-opacity:1;fill-rule:nonzero;stroke:none" d="M 3519.72 2627.26 C 3515.84 2620.43 3508.67 2601.39 3518.88 2564.03 C 3535.82 2502.08 3571.75 2468.64 3575.79 2465.03 C 3582.78 2458.78 3589.82 2455.6 3596.72 2455.6 C 3608.67 2455.6 3618.12 2465.42 3622.17 2475.16 C 3625.38 2482.88 3625.23 2490.12 3621.78 2493.6 C 3555.25 2560.61 3528.7 2610.41 3519.98 2626.78 C 3519.89 2626.95 3519.8 2627.11 3519.72 2627.26 Z M 3596.73 2450.6 L 3596.72 2450.6 C 3588.55 2450.6 3580.39 2454.2 3572.45 2461.3 C 3568.3 2465.01 3531.38 2499.37 3514.05 2562.71 C 3499.97 2614.26 3517.44 2633 3518.18 2633.77 C 3518.74 2634.33 3519.58 2634.62 3520.29 2634.51 C 3521.07 2634.41 3521.77 2633.94 3522.15 2633.26 C 3522.72 2632.26 3523.46 2630.88 3524.39 2629.13 C 3533.03 2612.93 3559.32 2563.62 3625.33 2497.12 C 3630.28 2492.13 3630.84 2482.98 3626.79 2473.24 C 3622.44 2462.8 3611.95 2450.6 3596.73 2450.6"/>
    <path id="path1964" style="fill:#f4d9bd;fill-opacity:1;fill-rule:nonzero;stroke:none" d="M 3597.93 2427.07 C 3606.59 2418.39 3620.68 2418.39 3629.37 2427.06 L 3650.12 2447.84 C 3658.81 2456.51 3658.79 2470.56 3650.12 2479.27 L 3629.37 2500 C 3620.68 2508.69 3606.59 2508.69 3597.96 2500.03 L 3577.16 2479.24 C 3568.51 2470.56 3568.51 2456.51 3577.21 2447.84 L 3597.93 2427.07"/>
    <path id="path1966" style="fill:#000000;fill-opacity:1;fill-rule:nonzero;stroke:none" d="M 3613.63 2504.02 C 3608.37 2504.02 3603.43 2501.98 3599.73 2498.27 L 3578.93 2477.47 C 3575.21 2473.75 3573.17 2468.8 3573.17 2463.54 C 3573.18 2458.28 3575.24 2453.33 3578.97 2449.61 L 3599.7 2428.84 C 3607.14 2421.39 3620.16 2421.39 3627.6 2428.83 L 3648.35 2449.61 C 3656.04 2457.28 3656.04 2469.79 3648.35 2477.5 L 3627.6 2498.24 C 3623.87 2501.97 3618.91 2504.02 3613.63 2504.02 Z M 3613.64 2418.06 L 3613.64 2418.06 C 3607.03 2418.06 3600.82 2420.63 3596.16 2425.31 L 3575.44 2446.07 C 3570.76 2450.73 3568.18 2456.94 3568.17 2463.53 C 3568.16 2470.13 3570.73 2476.33 3575.39 2481 L 3596.19 2501.8 C 3605.48 2511.12 3621.81 2511.12 3631.13 2501.77 L 3651.88 2481.03 C 3661.52 2471.37 3661.51 2455.68 3651.88 2446.07 L 3631.13 2425.3 C 3626.46 2420.63 3620.25 2418.06 3613.64 2418.06"/>
    <path id="path1968" style="fill:#ffb103;fill-opacity:1;fill-rule:nonzero;stroke:none" d="M 3483.27 2563.43 C 3506.1 2540.61 3543.11 2540.63 3565.94 2563.45 C 3588.74 2586.27 3588.76 2623.28 3565.94 2646.1 C 3543.11 2668.95 3506.08 2668.95 3483.27 2646.13 C 3460.42 2623.28 3460.42 2586.27 3483.27 2563.43"/>
    <path id="path1970" style="fill:#000000;fill-opacity:1;fill-rule:nonzero;stroke:none" d="M 3524.58 2660.74 C 3509.64 2660.74 3495.6 2654.93 3485.04 2644.36 C 3474.46 2633.79 3468.63 2619.72 3468.63 2604.78 C 3468.63 2589.83 3474.46 2575.77 3485.04 2565.19 C 3495.6 2554.64 3509.64 2548.83 3524.58 2548.83 L 3524.58 2548.83 C 3539.53 2548.83 3553.59 2554.65 3564.17 2565.22 C 3585.98 2587.04 3585.98 2622.53 3564.17 2644.33 C 3553.59 2654.92 3539.54 2660.74 3524.58 2660.74 Z M 3524.58 2543.83 L 3524.58 2543.83 C 3508.31 2543.83 3493.01 2550.16 3481.5 2561.66 C 3469.98 2573.18 3463.63 2588.49 3463.63 2604.78 C 3463.63 2621.06 3469.98 2636.38 3481.5 2647.9 C 3493.01 2659.4 3508.3 2665.74 3524.58 2665.74 C 3540.87 2665.74 3556.19 2659.39 3567.71 2647.87 C 3591.46 2624.12 3591.46 2585.46 3567.71 2561.68 C 3556.18 2550.17 3540.87 2543.83 3524.58 2543.83"/>
    <path id="path1972" style="fill:#2a5b6a;fill-opacity:1;fill-rule:nonzero;stroke:none" d="M 3539.79 2619.96 C 3524.04 2635.73 3507.95 2647.31 3495.37 2652.97 C 3512.23 2658.53 3535.4 2651.59 3553.41 2633.57 C 3571.41 2615.57 3578.34 2592.39 3572.78 2575.54 C 3567.13 2588.13 3555.53 2604.2 3539.79 2619.96"/>
    <path id="path1974" style="fill:#000000;fill-opacity:1;fill-rule:nonzero;stroke:none" d="M 3502.76 2652.05 C 3514.86 2645.39 3528.65 2634.65 3541.56 2621.73 C 3554.49 2608.77 3565.22 2594.99 3571.88 2582.93 C 3573.77 2598.46 3566.18 2617.27 3551.64 2631.8 C 3537.34 2646.1 3518.35 2653.94 3502.76 2652.05 Z M 3572.78 2573.04 C 3571.81 2573.04 3570.91 2573.62 3570.5 2574.52 C 3564.72 2587.39 3552.88 2603.31 3538.03 2618.19 C 3523.2 2633.03 3507.29 2644.87 3494.35 2650.69 C 3493.41 2651.11 3492.82 2652.07 3492.87 2653.09 C 3492.93 2654.12 3493.6 2655.02 3494.59 2655.34 C 3498.6 2656.67 3502.98 2657.34 3507.6 2657.34 C 3523.62 2657.34 3541.41 2649.11 3555.18 2635.34 C 3573.15 2617.37 3581.18 2593.02 3575.16 2574.76 C 3574.83 2573.78 3573.95 2573.1 3572.91 2573.05 C 3572.87 2573.04 3572.82 2573.04 3572.78 2573.04"/>
    <path id="path1976" style="fill:#2a5b6a;fill-opacity:1;fill-rule:nonzero;stroke:none" d="M 3476.41 2634.01 C 3482.08 2621.42 3493.65 2605.35 3509.4 2589.57 C 3525.19 2573.83 3541.27 2562.24 3553.83 2556.59 C 3536.98 2551.03 3513.8 2557.96 3495.8 2575.95 C 3477.79 2593.98 3470.84 2617.18 3476.41 2634.01"/>
    <path id="path1978" style="fill:#000000;fill-opacity:1;fill-rule:nonzero;stroke:none" d="M 3477.31 2626.63 C 3475.41 2611.12 3483.02 2592.29 3497.57 2577.71 C 3511.86 2563.44 3530.97 2555.57 3546.44 2557.5 C 3534.37 2564.16 3520.58 2574.89 3507.64 2587.81 C 3494.73 2600.73 3483.98 2614.53 3477.31 2626.63 Z M 3541.61 2552.22 C 3525.58 2552.22 3507.79 2560.43 3494.03 2574.18 C 3476.04 2592.2 3468 2616.56 3474.03 2634.8 C 3474.36 2635.77 3475.24 2636.45 3476.28 2636.51 C 3477.32 2636.55 3478.26 2635.97 3478.68 2635.04 C 3484.52 2622.1 3496.36 2606.18 3511.17 2591.34 C 3526.04 2576.51 3541.96 2564.67 3554.85 2558.87 C 3555.79 2558.44 3556.38 2557.48 3556.33 2556.45 C 3556.27 2555.42 3555.59 2554.53 3554.61 2554.21 C 3550.6 2552.89 3546.22 2552.22 3541.61 2552.22"/>
    <path id="path1980" style="fill:#f4d9bd;fill-opacity:1;fill-rule:nonzero;stroke:none" d="M 3890.86 2597.21 C 3894.34 2589.78 3891.1 2580.99 3883.68 2577.52 L 3871.97 2572.06 C 3864.56 2568.59 3855.77 2571.81 3852.31 2579.24 L 3852.31 2579.24 C 3848.85 2586.62 3852.02 2595.45 3859.45 2598.92 L 3871.16 2604.37 C 3878.57 2607.83 3887.4 2604.6 3890.86 2597.21 L 3890.86 2597.21"/>
    <path id="path1982" style="fill:#000000;fill-opacity:1;fill-rule:nonzero;stroke:none" d="M 3877.4 2603.26 C 3875.61 2603.26 3873.86 2602.87 3872.22 2602.1 L 3860.51 2596.65 C 3857.53 2595.26 3855.27 2592.79 3854.15 2589.7 C 3853.03 2586.61 3853.18 2583.27 3854.58 2580.3 C 3857.37 2574.31 3864.93 2571.51 3870.91 2574.32 L 3882.63 2579.78 C 3885.62 2581.18 3887.88 2583.65 3889.01 2586.74 C 3890.14 2589.82 3889.99 2593.16 3888.59 2596.15 C 3886.57 2600.47 3882.19 2603.26 3877.4 2603.26 Z M 3865.72 2568.16 C 3859.03 2568.16 3852.88 2572.09 3850.05 2578.18 C 3848.09 2582.36 3847.87 2587.05 3849.44 2591.4 C 3851.03 2595.75 3854.2 2599.23 3858.4 2601.18 L 3870.11 2606.63 C 3878.54 2610.57 3889.21 2606.62 3893.13 2598.27 C 3895.09 2594.07 3895.29 2589.36 3893.7 2585.02 C 3892.12 2580.69 3888.94 2577.22 3884.74 2575.25 L 3873.03 2569.79 C 3870.72 2568.71 3868.26 2568.16 3865.72 2568.16"/>
  </g>
</svg>