<?xml version="1.0" encoding="utf-8"?>
<svg viewBox="413.2550048828125 442.2850036621094 77.83499908447266 83.85299682617188" width="77.83499908447266" height="83.85299682617188" xmlns="http://www.w3.org/2000/svg">
  <g transform="matrix(0.12500000186264515, 0, 0, -0.12500000186264515, 0, 526.1375122070312)">
    <path id="path36" style="fill:#ddd8bf;fill-opacity:1;fill-rule:nonzero;stroke:none" d="M 3901.17 27.141 C 3901.17 12.16 3789.86 0 3652.57 0 C 3515.25 0 3403.95 12.16 3403.95 27.141 C 3403.95 42.129 3515.25 54.289 3652.57 54.289 C 3789.86 54.289 3901.17 42.129 3901.17 27.141"/>
    <path id="path2218" style="fill:#c9a88b;fill-opacity:1;fill-rule:nonzero;stroke:none" d="M 3806.94 276.719 C 3845.76 229.961 3854.56 183.512 3855.95 172.012 C 3861.47 125.629 3804.59 131.238 3801.24 149.949 C 3782.81 252.281 3753.77 302.461 3748.67 313.191 C 3748.67 313.191 3773.32 317.191 3806.94 276.719"/>
    <path id="path2220" style="fill:#000000;fill-opacity:1;fill-rule:nonzero;stroke:none" d="M 3752.71 310.699 C 3752.78 310.551 3752.86 310.398 3752.94 310.25 C 3761.35 293.73 3786.94 243.469 3803.7 150.391 C 3804.85 143.93 3815.04 138.68 3826.4 138.68 C 3831.5 138.68 3841.04 139.781 3847.6 147.148 C 3852.74 152.949 3854.72 161.211 3853.47 171.711 C 3852.81 177.102 3845.93 225.852 3805.02 275.121 C 3780.17 305.039 3760.55 310.02 3752.71 310.699 Z M 3826.4 133.68 C 3812.27 133.68 3800.4 140.48 3798.78 149.52 C 3782.15 241.859 3756.82 291.621 3748.49 307.969 C 3747.6 309.719 3746.9 311.09 3746.42 312.109 C 3746.07 312.82 3746.1 313.648 3746.46 314.34 C 3746.83 315.031 3747.5 315.52 3748.27 315.66 C 3748.27 315.66 3749.08 315.789 3750.62 315.789 C 3756.98 315.789 3779.97 313.09 3808.87 278.32 C 3850.69 227.941 3857.76 177.852 3858.43 172.309 C 3859.85 160.332 3857.47 150.75 3851.34 143.832 C 3845.52 137.281 3836.66 133.68 3826.4 133.68"/>
    <path id="path2222" style="fill:#c9a88b;fill-opacity:1;fill-rule:nonzero;stroke:none" d="M 3871.87 131.82 C 3873.97 119.719 3865.93 108.172 3853.85 106.051 L 3824.91 100.922 C 3812.84 98.801 3801.31 106.891 3799.17 118.98 L 3794.07 147.879 C 3791.97 159.969 3800.02 171.5 3812.08 173.629 L 3841.03 178.738 C 3853.11 180.859 3864.64 172.801 3866.77 160.711 L 3871.87 131.82"/>
    <path id="path2224" style="fill:#000000;fill-opacity:1;fill-rule:nonzero;stroke:none" d="M 3844.89 176.59 C 3843.76 176.59 3842.61 176.492 3841.46 176.281 L 3812.52 171.172 C 3801.85 169.281 3794.68 159.031 3796.53 148.309 L 3801.63 119.41 C 3803.5 108.84 3813.56 101.461 3824.48 103.379 L 3853.41 108.512 C 3864.1 110.379 3871.28 120.648 3869.4 131.391 L 3864.31 160.281 C 3862.64 169.719 3854.47 176.59 3844.89 176.59 Z M 3821.05 98.082 C 3809.04 98.082 3798.81 106.691 3796.71 118.539 L 3791.61 147.449 C 3789.28 160.879 3798.26 173.719 3811.64 176.09 L 3840.59 181.199 C 3854.41 183.609 3866.9 174.379 3869.23 161.141 L 3874.33 132.25 C 3876.67 118.789 3867.68 105.941 3854.28 103.59 L 3825.35 98.461 C 3823.91 98.211 3822.47 98.082 3821.05 98.082"/>
    <path id="path2226" style="fill:#f4d9bd;fill-opacity:1;fill-rule:nonzero;stroke:none" d="M 3865.46 167.98 C 3866.88 159.93 3861.53 152.262 3853.47 150.809 L 3840.74 148.559 C 3832.67 147.172 3824.99 152.52 3823.56 160.59 L 3823.56 160.59 C 3822.13 168.641 3827.53 176.359 3835.58 177.781 L 3848.29 180.02 C 3856.37 181.43 3864.05 176.051 3865.46 167.98 L 3865.46 167.98"/>
    <path id="path2228" style="fill:#000000;fill-opacity:1;fill-rule:nonzero;stroke:none" d="M 3850.86 177.75 C 3850.16 177.75 3849.44 177.691 3848.72 177.559 L 3836.02 175.32 C 3832.77 174.75 3829.95 172.941 3828.07 170.242 C 3826.17 167.531 3825.45 164.262 3826.03 161.031 C 3827.2 154.43 3833.42 149.922 3840.32 151.02 L 3853.03 153.27 C 3859.71 154.48 3864.18 160.871 3863 167.539 C 3861.96 173.461 3856.87 177.75 3850.86 177.75 Z M 3838.18 145.84 C 3829.76 145.84 3822.57 151.859 3821.1 160.148 C 3820.29 164.699 3821.31 169.301 3823.96 173.102 C 3826.62 176.91 3830.6 179.441 3835.15 180.242 L 3847.85 182.48 C 3857.54 184.172 3866.3 177.699 3867.92 168.41 C 3869.58 159.039 3863.3 150.031 3853.91 148.352 L 3841.18 146.102 C 3840.17 145.922 3839.17 145.84 3838.18 145.84"/>
    <path id="path2230" style="fill:#d33605;fill-opacity:1;fill-rule:nonzero;stroke:none" d="M 3803.25 168.48 L 3847.85 179.738 C 3853.47 181.16 3856.85 186.84 3855.42 192.422 L 3845.72 230.82 C 3844.3 236.422 3838.62 239.809 3833.04 238.379 L 3788.45 227.09 C 3782.85 225.66 3779.44 219.988 3780.87 214.41 L 3790.58 176.039 C 3791.99 170.441 3797.67 167.051 3803.25 168.48"/>
    <path id="path2232" style="fill:#000000;fill-opacity:1;fill-rule:nonzero;stroke:none" d="M 3835.62 236.199 C 3834.96 236.199 3834.3 236.129 3833.65 235.961 L 3789.06 224.672 C 3784.8 223.582 3782.22 219.25 3783.29 215.02 L 3793 176.648 C 3794.06 172.469 3798.43 169.832 3802.64 170.898 L 3847.24 182.16 C 3849.31 182.691 3851.04 183.98 3852.13 185.801 C 3853.21 187.621 3853.53 189.75 3853 191.801 L 3843.3 230.211 C 3842.4 233.738 3839.24 236.199 3835.62 236.199 Z M 3800.67 165.66 C 3794.76 165.66 3789.61 169.672 3788.15 175.422 L 3778.45 213.789 C 3776.69 220.691 3780.9 227.742 3787.82 229.52 L 3832.42 240.801 C 3839.2 242.531 3846.41 238.25 3848.14 231.441 L 3857.84 193.031 C 3858.7 189.691 3858.19 186.211 3856.43 183.25 C 3854.66 180.27 3851.83 178.172 3848.47 177.32 L 3803.87 166.059 C 3802.82 165.789 3801.75 165.66 3800.67 165.66"/>
    <path id="path2234" style="fill:#d33605;fill-opacity:1;fill-rule:nonzero;stroke:none" d="M 3827.75 267.23 C 3822.87 253.809 3808.07 246.91 3794.65 251.801 L 3755.94 265.891 C 3742.54 270.762 3735.63 285.602 3740.5 299.012 L 3745.01 311.41 C 3749.85 324.789 3764.71 331.699 3778.11 326.82 L 3816.82 312.75 C 3830.22 307.859 3837.17 293.02 3832.25 279.602 L 3827.75 267.23"/>
    <path id="path2236" style="fill:#000000;fill-opacity:1;fill-rule:nonzero;stroke:none" d="M 3769.27 325.879 C 3759.48 325.879 3750.68 319.73 3747.36 310.559 L 3742.85 298.148 C 3738.46 286.051 3744.71 272.629 3756.79 268.25 L 3795.51 254.148 C 3798.1 253.211 3800.78 252.73 3803.51 252.73 C 3813.26 252.73 3822.06 258.898 3825.4 268.09 L 3829.89 280.449 C 3832.04 286.309 3831.78 292.641 3829.15 298.289 C 3826.51 303.961 3821.84 308.262 3815.96 310.391 L 3777.26 324.469 C 3774.67 325.41 3771.98 325.879 3769.27 325.879 Z M 3803.51 247.73 C 3800.2 247.73 3796.93 248.301 3793.79 249.449 L 3755.08 263.539 C 3740.41 268.871 3732.81 285.16 3738.14 299.859 L 3742.66 312.27 C 3746.69 323.398 3757.38 330.879 3769.27 330.879 C 3772.57 330.879 3775.83 330.309 3778.96 329.172 L 3817.67 315.102 C 3824.8 312.5 3830.49 307.281 3833.68 300.398 C 3836.88 293.539 3837.2 285.84 3834.59 278.738 L 3830.11 266.379 C 3826.04 255.219 3815.35 247.73 3803.51 247.73"/>
    <path id="path2238" style="fill:#eb4900;fill-opacity:1;fill-rule:nonzero;stroke:none" d="M 3822.47 292.461 C 3819.26 283.609 3809.45 279.059 3800.62 282.289 L 3775.04 291.59 C 3766.2 294.809 3761.64 304.609 3764.84 313.441 L 3767.84 321.641 C 3771.03 330.469 3780.84 335.031 3789.67 331.82 L 3815.24 322.512 C 3824.09 319.301 3828.66 309.52 3825.45 300.66 L 3822.47 292.461"/>
    <path id="path2240" style="fill:#000000;fill-opacity:1;fill-rule:nonzero;stroke:none" d="M 3783.85 330.352 C 3777.74 330.352 3772.26 326.512 3770.2 320.789 L 3767.19 312.582 C 3764.46 305.051 3768.36 296.68 3775.9 293.941 L 3801.46 284.641 C 3808.9 281.91 3817.47 285.988 3820.12 293.309 L 3823.1 301.512 C 3825.84 309.059 3821.93 317.43 3814.39 320.16 L 3788.81 329.469 C 3787.21 330.051 3785.54 330.352 3783.85 330.352 Z M 3806.46 278.738 C 3804.18 278.738 3801.92 279.148 3799.76 279.941 L 3774.19 289.23 C 3764.06 292.922 3758.82 304.16 3762.49 314.289 L 3765.5 322.5 C 3768.26 330.18 3775.64 335.352 3783.85 335.352 C 3786.12 335.352 3788.37 334.949 3790.53 334.172 L 3816.1 324.871 C 3826.23 321.18 3831.47 309.941 3827.8 299.809 L 3824.82 291.609 C 3822.03 283.922 3814.65 278.738 3806.46 278.738"/>
    <path id="path2242" style="fill:#0c3841;fill-opacity:1;fill-rule:nonzero;stroke:none" d="M 3576.23 31.352 L 3542.86 31.352 L 3542.86 117.359 L 3609.63 122.379 L 3576.23 31.352"/>
    <path id="path2244" style="fill:#000000;fill-opacity:1;fill-rule:nonzero;stroke:none" d="M 3545.36 33.852 L 3574.48 33.852 L 3605.95 119.59 L 3545.36 115.039 L 3545.36 33.852 Z M 3576.23 28.852 L 3542.86 28.852 C 3541.48 28.852 3540.36 29.969 3540.36 31.352 L 3540.36 117.359 C 3540.36 118.672 3541.37 119.75 3542.68 119.852 L 3609.44 124.871 C 3610.22 125.012 3611.11 124.559 3611.62 123.879 C 3612.14 123.211 3612.27 122.32 3611.97 121.52 L 3578.57 30.492 C 3578.21 29.512 3577.28 28.852 3576.23 28.852"/>
    <path id="path2246" style="fill:#0c3841;fill-opacity:1;fill-rule:nonzero;stroke:none" d="M 3748.97 31.352 L 3782.33 31.352 L 3782.33 122.379 L 3715.6 122.379 L 3748.97 31.352"/>
    <path id="path2248" style="fill:#000000;fill-opacity:1;fill-rule:nonzero;stroke:none" d="M 3750.72 33.852 L 3779.83 33.852 L 3779.83 119.879 L 3719.18 119.879 L 3750.72 33.852 Z M 3782.33 28.852 L 3748.97 28.852 C 3747.93 28.852 3746.99 29.512 3746.63 30.492 L 3713.25 121.52 C 3712.97 122.281 3713.08 123.141 3713.54 123.809 C 3714.01 124.48 3714.78 124.879 3715.6 124.879 L 3782.33 124.879 C 3783.71 124.879 3784.83 123.75 3784.83 122.379 L 3784.83 31.352 C 3784.83 29.969 3783.71 28.852 3782.33 28.852"/>
    <path id="path2250" style="fill:#eb4900;fill-opacity:1;fill-rule:nonzero;stroke:none" d="M 3735.52 221.602 C 3735.52 229.461 3737.97 236.742 3742.17 242.711 C 3749.3 252.879 3755.2 269.898 3748.82 286.391 C 3743.75 299.441 3739.16 309.809 3735.84 315.691 C 3703.31 330.082 3705.5 338.629 3662.62 338.629 C 3619.76 338.629 3621.87 330.082 3589.37 315.68 C 3586.14 309.988 3581.74 299.879 3576.88 287.129 C 3570.75 271.07 3578.59 255.531 3587.25 244.75 C 3592.32 238.422 3595.39 230.352 3595.39 221.602 C 3595.39 201.031 3540.08 190.539 3542.86 117.359 C 3542.86 117.359 3599.71 89.422 3662.62 89.422 C 3742.19 89.422 3782.33 122.379 3782.33 122.379 C 3782.33 167.059 3735.52 201.051 3735.52 221.602"/>
    <path id="path2252" style="fill:#000000;fill-opacity:1;fill-rule:nonzero;stroke:none" d="M 3545.31 118.969 C 3554.25 114.832 3606.32 91.922 3662.62 91.922 C 3733.9 91.922 3773.42 118.852 3779.82 123.602 C 3779.32 148.91 3763.22 171 3750.25 188.809 C 3740.63 202.031 3733.02 212.469 3733.02 221.602 C 3733.02 229.738 3735.48 237.539 3740.13 244.141 C 3747.08 254.09 3752.41 270.16 3746.48 285.492 C 3741.66 297.898 3737.28 307.879 3734.06 313.738 C 3725 317.789 3718.77 321.309 3713.24 324.43 C 3699.86 331.969 3692.5 336.129 3662.62 336.129 C 3632.71 336.129 3625.33 331.961 3611.91 324.398 C 3606.4 321.281 3600.17 317.781 3591.14 313.73 C 3588.08 308.129 3583.86 298.43 3579.22 286.238 C 3573.34 270.84 3581.4 256.031 3589.2 246.309 C 3594.8 239.332 3597.89 230.551 3597.89 221.602 C 3597.89 213.441 3590.95 207.16 3582.15 199.219 C 3566.04 184.68 3544.05 164.832 3545.31 118.969 Z M 3662.62 86.922 C 3599.85 86.922 3542.33 114.832 3541.76 115.109 C 3540.94 115.52 3540.4 116.34 3540.36 117.262 C 3538.49 166.539 3562.74 188.441 3578.8 202.93 C 3586.67 210.039 3592.89 215.66 3592.89 221.602 C 3592.89 229.422 3590.2 237.082 3585.29 243.191 C 3576.68 253.922 3567.82 270.41 3574.55 288.02 C 3579.55 301.16 3583.93 311.148 3587.19 316.91 C 3587.45 317.379 3587.86 317.75 3588.35 317.961 C 3597.58 322.051 3603.89 325.609 3609.45 328.75 C 3623.14 336.469 3631.41 341.129 3662.62 341.129 C 3693.81 341.129 3702.05 336.48 3715.7 328.781 C 3721.28 325.629 3727.6 322.059 3736.86 317.969 C 3737.34 317.762 3737.75 317.391 3738.02 316.922 C 3741.38 310.969 3746.04 300.449 3751.15 287.301 C 3757.78 270.129 3751.91 252.27 3744.22 241.27 C 3740.16 235.512 3738.02 228.699 3738.02 221.602 C 3738.02 214.102 3745.56 203.75 3754.3 191.762 C 3767.9 173.07 3784.83 149.82 3784.83 122.379 C 3784.83 121.621 3784.5 120.922 3783.92 120.441 C 3782.26 119.082 3742.17 86.922 3662.62 86.922"/>
    <path id="path2254" style="fill:#f4d9bd;fill-opacity:1;fill-rule:nonzero;stroke:none" d="M 3884.78 464.52 C 3884.78 376.602 3813.49 305.301 3725.56 305.301 L 3641.69 305.301 C 3553.74 305.301 3482.47 376.602 3482.47 464.52 L 3482.47 464.52 C 3482.47 552.461 3553.74 623.762 3641.69 623.762 L 3725.56 623.762 C 3813.49 623.762 3884.78 552.461 3884.78 464.52 L 3884.78 464.52"/>
    <path id="path2256" style="fill:#000000;fill-opacity:1;fill-rule:nonzero;stroke:none" d="M 3641.69 621.262 C 3555.27 621.262 3484.97 550.949 3484.97 464.52 C 3484.97 378.102 3555.27 307.801 3641.69 307.801 L 3725.56 307.801 C 3811.97 307.801 3882.28 378.102 3882.28 464.52 C 3882.28 550.949 3811.97 621.262 3725.56 621.262 L 3641.69 621.262 Z M 3725.56 302.801 L 3641.69 302.801 C 3552.52 302.801 3479.97 375.352 3479.97 464.52 C 3479.97 553.699 3552.52 626.262 3641.69 626.262 L 3725.56 626.262 C 3814.73 626.262 3887.28 553.699 3887.28 464.52 C 3887.28 375.352 3814.73 302.801 3725.56 302.801"/>
    <path id="path2258" style="fill:#c9a88b;fill-opacity:1;fill-rule:nonzero;stroke:none" d="M 3697.67 532.02 C 3705.69 505.859 3709.26 478.609 3708.42 451.469 L 3722.24 451.469 C 3724.65 486.18 3721.29 520.809 3712.61 554.059 C 3732.79 523.051 3735.65 487.91 3740.55 451.469 L 3787.23 451.469 C 3781.71 485.77 3770.61 518.738 3754.61 549.109 C 3782.94 521.941 3804.37 488.34 3817.22 451.469 L 3880.63 451.469 C 3880.63 540.48 3845.17 612.559 3729.5 612.559 C 3613.85 612.559 3598.43 540.48 3598.43 451.469 L 3685.25 451.469 C 3692.82 477.781 3697.03 504.852 3697.67 532.02"/>
    <path id="path2260" style="fill:#ffac83;fill-opacity:1;fill-rule:nonzero;stroke:none" d="M 3854.33 388 C 3854.33 372.27 3839.74 359.52 3821.79 359.52 C 3803.82 359.52 3789.21 372.27 3789.21 388 C 3789.21 403.73 3803.82 416.492 3821.79 416.492 C 3839.74 416.492 3854.33 403.73 3854.33 388"/>
    <path id="path2262" style="fill:#ffac83;fill-opacity:1;fill-rule:nonzero;stroke:none" d="M 3681.28 388 C 3681.28 372.27 3666.7 359.52 3648.73 359.52 C 3630.76 359.52 3616.18 372.27 3616.18 388 C 3616.18 403.73 3630.76 416.492 3648.73 416.492 C 3666.7 416.492 3681.28 403.73 3681.28 388"/>
    <path id="path2264" style="fill:#2a5b6a;fill-opacity:1;fill-rule:nonzero;stroke:none" d="M 3645.51 451.039 C 3631.15 451.039 3619.57 439.41 3619.57 425.082 L 3671.29 425.082 C 3671.29 439.41 3659.76 451.039 3645.51 451.039"/>
    <path id="path2266" style="fill:#000000;fill-opacity:1;fill-rule:nonzero;stroke:none" d="M 3622.21 427.582 L 3668.66 427.582 C 3667.41 439.352 3657.51 448.539 3645.51 448.539 C 3633.43 448.539 3623.46 439.352 3622.21 427.582 Z M 3671.29 422.582 L 3619.57 422.582 C 3618.19 422.582 3617.07 423.699 3617.07 425.082 C 3617.07 440.77 3629.82 453.539 3645.51 453.539 C 3661.1 453.539 3673.79 440.77 3673.79 425.082 C 3673.79 423.699 3672.67 422.582 3671.29 422.582"/>
    <path id="path2268" style="fill:#eb4900;fill-opacity:1;fill-rule:nonzero;stroke:none" d="M 3686.66 328.629 C 3701.01 328.629 3712.59 340.262 3712.59 354.582 L 3660.88 354.582 C 3660.88 340.262 3672.41 328.629 3686.66 328.629"/>
    <path id="path2270" style="fill:#000000;fill-opacity:1;fill-rule:nonzero;stroke:none" d="M 3663.51 352.082 C 3664.76 340.32 3674.66 331.129 3686.66 331.129 C 3698.73 331.129 3708.7 340.32 3709.95 352.082 L 3663.51 352.082 Z M 3686.66 326.129 C 3671.06 326.129 3658.38 338.891 3658.38 354.582 C 3658.38 355.961 3659.5 357.082 3660.88 357.082 L 3712.59 357.082 C 3713.96 357.082 3715.09 355.961 3715.09 354.582 C 3715.09 338.891 3702.33 326.129 3686.66 326.129"/>
    <path id="path2272" style="fill:#2a5b6a;fill-opacity:1;fill-rule:nonzero;stroke:none" d="M 3824.27 451.039 C 3809.9 451.039 3798.37 439.41 3798.37 425.082 L 3850.09 425.082 C 3850.09 439.41 3838.51 451.039 3824.27 451.039"/>
    <path id="path2274" style="fill:#000000;fill-opacity:1;fill-rule:nonzero;stroke:none" d="M 3801.01 427.582 L 3847.46 427.582 C 3846.21 439.352 3836.29 448.539 3824.27 448.539 C 3812.21 448.539 3802.25 439.352 3801.01 427.582 Z M 3850.09 422.582 L 3798.37 422.582 C 3796.99 422.582 3795.87 423.699 3795.87 425.082 C 3795.87 440.77 3808.61 453.539 3824.27 453.539 C 3839.88 453.539 3852.59 440.77 3852.59 425.082 C 3852.59 423.699 3851.46 422.582 3850.09 422.582"/>
    <path id="path2276" style="fill:#2a5b6a;fill-opacity:1;fill-rule:nonzero;stroke:none" d="M 3638.13 431.582 C 3638.13 427.969 3635.25 425.059 3631.64 425.059 L 3600.76 425.059 C 3597.19 425.059 3594.3 427.969 3594.3 431.582 L 3594.3 431.582 C 3594.3 435.129 3597.19 438.051 3600.76 438.051 L 3631.64 438.051 C 3635.25 438.051 3638.13 435.129 3638.13 431.582 L 3638.13 431.582"/>
    <path id="path2278" style="fill:#000000;fill-opacity:1;fill-rule:nonzero;stroke:none" d="M 3600.76 435.551 C 3598.57 435.551 3596.8 433.762 3596.8 431.582 C 3596.8 429.359 3598.57 427.559 3600.76 427.559 L 3631.64 427.559 C 3633.88 427.559 3635.63 429.332 3635.63 431.582 C 3635.63 433.762 3633.84 435.551 3631.64 435.551 L 3600.76 435.551 Z M 3631.64 422.559 L 3600.76 422.559 C 3595.82 422.559 3591.8 426.602 3591.8 431.582 C 3591.8 436.531 3595.82 440.551 3600.76 440.551 L 3631.64 440.551 C 3636.59 440.551 3640.63 436.531 3640.63 431.582 C 3640.63 426.602 3636.59 422.559 3631.64 422.559"/>
    <path id="path2280" style="fill:#2a5b6a;fill-opacity:1;fill-rule:nonzero;stroke:none" d="M 3876.92 431.582 C 3876.92 427.969 3873.99 425.059 3870.44 425.059 L 3839.56 425.059 C 3835.98 425.059 3833.06 427.969 3833.06 431.582 L 3833.06 431.582 C 3833.06 435.129 3835.98 438.051 3839.56 438.051 L 3870.44 438.051 C 3873.99 438.051 3876.92 435.129 3876.92 431.582 L 3876.92 431.582"/>
    <path id="path2282" style="fill:#000000;fill-opacity:1;fill-rule:nonzero;stroke:none" d="M 3839.56 435.551 C 3837.35 435.551 3835.56 433.762 3835.56 431.582 C 3835.56 429.359 3837.35 427.559 3839.56 427.559 L 3870.44 427.559 C 3872.64 427.559 3874.42 429.359 3874.42 431.582 C 3874.42 433.73 3872.6 435.551 3870.44 435.551 L 3839.56 435.551 Z M 3870.44 422.559 L 3839.56 422.559 C 3834.6 422.559 3830.56 426.602 3830.56 431.582 C 3830.56 436.531 3834.6 440.551 3839.56 440.551 L 3870.44 440.551 C 3875.39 440.551 3879.42 436.531 3879.42 431.582 C 3879.42 426.602 3875.39 422.559 3870.44 422.559"/>
    <path id="path2284" style="fill:#ffb103;fill-opacity:1;fill-rule:nonzero;stroke:none" d="M 3661.57 668.32 C 3542.74 668.32 3471.52 586.492 3471.71 481.879 C 3471.71 481.879 3306.04 281.359 3561.52 294.809 C 3575.54 295.531 3594.3 347.281 3583.54 476.98 C 3576.94 556.852 3657.54 552.391 3657.54 552.391 L 3877.13 553.961 C 3858.36 621.73 3778.51 668.32 3661.57 668.32"/>
    <path id="path2286" style="fill:#000000;fill-opacity:1;fill-rule:nonzero;stroke:none" d="M 3661.57 665.82 C 3606.2 665.82 3559.06 647.922 3525.26 614.07 C 3492.25 580.988 3474.12 534.051 3474.21 481.879 C 3474.21 481.301 3474 480.742 3473.63 480.289 C 3472.91 479.41 3401.64 392.129 3426.79 338.75 C 3441.56 307.41 3486.88 293.371 3561.4 297.309 C 3562.85 297.379 3564.52 298.441 3566.21 300.371 C 3578.62 314.582 3589.96 369.309 3581.04 476.77 C 3579.1 500.301 3584.39 519.039 3596.77 532.469 C 3619.32 556.969 3657.69 554.891 3657.68 554.891 L 3873.8 556.441 C 3853.01 624 3772.12 665.82 3661.57 665.82 Z M 3537.97 291.66 C 3475.24 291.66 3436.32 306.789 3422.27 336.621 C 3396.72 390.871 3461.83 473.672 3469.21 482.77 C 3469.33 535.91 3487.96 583.77 3521.72 617.602 C 3556.48 652.422 3604.84 670.82 3661.57 670.82 C 3776.17 670.82 3859.69 626.301 3879.54 554.621 C 3879.75 553.879 3879.59 553.07 3879.12 552.449 C 3878.65 551.832 3877.92 551.469 3877.15 551.461 L 3657.56 549.891 C 3656.13 549.961 3621.11 551.539 3600.44 529.09 C 3589.05 516.711 3584.21 499.25 3586.03 477.18 C 3595.06 368.281 3583.66 312.75 3569.97 297.09 C 3567.33 294.07 3564.53 292.461 3561.65 292.309 C 3553.45 291.879 3545.48 291.66 3537.97 291.66"/>
    <path id="path2288" style="fill:#8192a4;fill-opacity:1;fill-rule:nonzero;stroke:none" d="M 3793.75 450.109 C 3793.75 441.672 3786.93 434.879 3778.53 434.879 L 3697.18 434.879 C 3688.74 434.879 3681.92 441.672 3681.92 450.109 L 3681.92 450.109 C 3681.92 458.512 3688.74 465.32 3697.18 465.32 L 3778.53 465.32 C 3786.93 465.32 3793.75 458.512 3793.75 450.109 L 3793.75 450.109"/>
    <path id="path2290" style="fill:#000000;fill-opacity:1;fill-rule:nonzero;stroke:none" d="M 3697.18 462.82 C 3690.15 462.82 3684.42 457.109 3684.42 450.109 C 3684.42 443.09 3690.15 437.379 3697.18 437.379 L 3778.53 437.379 C 3785.54 437.379 3791.25 443.09 3791.25 450.109 C 3791.25 457.109 3785.54 462.82 3778.53 462.82 L 3697.18 462.82 Z M 3778.53 432.379 L 3697.18 432.379 C 3687.39 432.379 3679.42 440.34 3679.42 450.109 C 3679.42 459.879 3687.39 467.82 3697.18 467.82 L 3778.53 467.82 C 3788.3 467.82 3796.25 459.879 3796.25 450.109 C 3796.25 440.34 3788.3 432.379 3778.53 432.379"/>
    <path id="path2292" style="fill:#8192a4;fill-opacity:1;fill-rule:nonzero;stroke:none" d="M 3712.88 431.582 C 3712.88 398.789 3686.32 372.27 3653.58 372.27 C 3620.85 372.27 3594.3 398.789 3594.3 431.582 C 3594.3 464.32 3620.85 490.871 3653.58 490.871 C 3686.32 490.871 3712.88 464.32 3712.88 431.582"/>
    <path id="path2294" style="fill:#000000;fill-opacity:1;fill-rule:nonzero;stroke:none" d="M 3653.58 488.371 C 3622.28 488.371 3596.8 462.891 3596.8 431.582 C 3596.8 400.25 3622.28 374.77 3653.58 374.77 C 3684.9 374.77 3710.38 400.25 3710.38 431.582 C 3710.38 462.891 3684.9 488.371 3653.58 488.371 Z M 3653.58 369.77 C 3619.51 369.77 3591.8 397.488 3591.8 431.582 C 3591.8 465.648 3619.51 493.371 3653.58 493.371 C 3687.66 493.371 3715.38 465.648 3715.38 431.582 C 3715.38 397.488 3687.66 369.77 3653.58 369.77"/>
    <path id="path2296" style="fill:#eb4900;fill-opacity:1;fill-rule:nonzero;stroke:none" d="M 3682.14 431.582 C 3682.14 415.77 3669.36 403.031 3653.58 403.031 C 3637.8 403.031 3624.99 415.77 3624.99 431.582 C 3624.99 447.352 3637.8 460.148 3653.58 460.148 C 3669.36 460.148 3682.14 447.352 3682.14 431.582"/>
    <path id="path2298" style="fill:#000000;fill-opacity:1;fill-rule:nonzero;stroke:none" d="M 3653.58 457.648 C 3639.2 457.648 3627.49 445.949 3627.49 431.582 C 3627.49 417.211 3639.2 405.531 3653.58 405.531 C 3667.95 405.531 3679.64 417.211 3679.64 431.582 C 3679.64 445.949 3667.95 457.648 3653.58 457.648 Z M 3653.58 400.531 C 3636.44 400.531 3622.49 414.461 3622.49 431.582 C 3622.49 448.711 3636.44 462.648 3653.58 462.648 C 3670.7 462.648 3684.64 448.711 3684.64 431.582 C 3684.64 414.461 3670.7 400.531 3653.58 400.531"/>
    <path id="path2300" style="fill:#bcc4cd;fill-opacity:1;fill-rule:nonzero;stroke:none" d="M 3652.41 451.012 C 3652.41 443.129 3646.03 436.75 3638.13 436.75 C 3630.24 436.75 3623.85 443.129 3623.85 451.012 C 3623.85 458.922 3630.24 465.32 3638.13 465.32 C 3646.03 465.32 3652.41 458.922 3652.41 451.012"/>
    <path id="path2302" style="fill:#8192a4;fill-opacity:1;fill-rule:nonzero;stroke:none" d="M 3885.01 431.602 C 3885.01 398.832 3858.46 372.32 3825.71 372.32 C 3792.98 372.32 3766.42 398.832 3766.42 431.602 C 3766.42 464.352 3792.98 490.898 3825.71 490.898 C 3858.46 490.898 3885.01 464.352 3885.01 431.602"/>
    <path id="path2304" style="fill:#000000;fill-opacity:1;fill-rule:nonzero;stroke:none" d="M 3825.71 488.398 C 3794.39 488.398 3768.92 462.922 3768.92 431.602 C 3768.92 400.289 3794.39 374.82 3825.71 374.82 C 3857.03 374.82 3882.51 400.289 3882.51 431.602 C 3882.51 462.922 3857.03 488.398 3825.71 488.398 Z M 3825.71 369.82 C 3791.64 369.82 3763.92 397.531 3763.92 431.602 C 3763.92 465.68 3791.64 493.398 3825.71 493.398 C 3859.79 493.398 3887.51 465.68 3887.51 431.602 C 3887.51 397.531 3859.79 369.82 3825.71 369.82"/>
    <path id="path2306" style="fill:#eb4900;fill-opacity:1;fill-rule:nonzero;stroke:none" d="M 3854.29 431.59 C 3854.29 415.801 3841.5 403.051 3825.71 403.051 C 3809.95 403.051 3797.13 415.801 3797.13 431.59 C 3797.13 447.391 3809.95 460.18 3825.71 460.18 C 3841.5 460.18 3854.29 447.391 3854.29 431.59"/>
    <path id="path2308" style="fill:#000000;fill-opacity:1;fill-rule:nonzero;stroke:none" d="M 3825.71 457.68 C 3811.33 457.68 3799.63 445.969 3799.63 431.59 C 3799.63 417.23 3811.33 405.551 3825.71 405.551 C 3840.09 405.551 3851.79 417.23 3851.79 431.59 C 3851.79 445.969 3840.09 457.68 3825.71 457.68 Z M 3825.71 400.551 C 3808.57 400.551 3794.63 414.48 3794.63 431.59 C 3794.63 448.73 3808.57 462.68 3825.71 462.68 C 3842.85 462.68 3856.79 448.73 3856.79 431.59 C 3856.79 414.48 3842.85 400.551 3825.71 400.551"/>
    <path id="path2310" style="fill:#bcc4cd;fill-opacity:1;fill-rule:nonzero;stroke:none" d="M 3819.84 451.012 C 3819.84 443.129 3813.44 436.75 3805.55 436.75 C 3797.67 436.75 3791.27 443.129 3791.27 451.012 C 3791.27 458.922 3797.67 465.32 3805.55 465.32 C 3813.44 465.32 3819.84 458.922 3819.84 451.012"/>
    <path id="path2312" style="fill:#425059;fill-opacity:1;fill-rule:nonzero;stroke:none" d="M 3828.97 410.898 C 3828.97 409.102 3827.53 407.648 3825.71 407.648 L 3825.71 407.648 C 3823.91 407.648 3822.47 409.102 3822.47 410.898 L 3822.47 452.32 C 3822.47 454.141 3823.91 455.59 3825.71 455.59 L 3825.71 455.59 C 3827.53 455.59 3828.97 454.141 3828.97 452.32 L 3828.97 410.898"/>
    <path id="path2314" style="fill:#425059;fill-opacity:1;fill-rule:nonzero;stroke:none" d="M 3805.01 428.34 C 3803.19 428.34 3801.75 429.82 3801.75 431.602 L 3801.75 431.602 C 3801.75 433.422 3803.19 434.891 3805.01 434.879 L 3846.42 434.879 C 3848.24 434.879 3849.69 433.422 3849.69 431.621 L 3849.69 431.621 C 3849.69 429.82 3848.24 428.359 3846.42 428.34 L 3805.01 428.34"/>
    <path id="path2316" style="fill:#ffb103;fill-opacity:1;fill-rule:nonzero;stroke:none" d="M 3711.19 555.742 C 3719.22 529.582 3722.78 502.332 3721.94 475.191 L 3735.76 475.191 C 3738.17 509.898 3734.81 544.531 3726.13 577.781 C 3746.32 546.77 3749.18 511.629 3754.07 475.191 L 3800.75 475.191 C 3795.23 509.5 3784.13 542.461 3768.13 572.84 C 3796.46 545.66 3817.89 512.059 3830.74 475.191 L 3894.15 475.191 C 3894.15 564.199 3858.69 636.281 3743.03 636.281 C 3627.37 636.281 3611.95 564.199 3611.95 475.191 L 3698.78 475.191 C 3706.35 501.5 3710.56 528.57 3711.19 555.742"/>
    <path id="path2318" style="fill:#000000;fill-opacity:1;fill-rule:nonzero;stroke:none" d="M 3832.51 477.691 L 3891.64 477.691 C 3890.85 581.27 3840.86 633.781 3743.03 633.781 C 3636.88 633.781 3614.82 574.129 3614.45 477.691 L 3696.89 477.691 C 3704.11 503.34 3708.08 529.609 3708.69 555.789 C 3708.72 557.02 3709.64 558.039 3710.85 558.219 C 3712.15 558.332 3713.22 557.629 3713.58 556.469 C 3721.4 531.012 3725.07 504.52 3724.51 477.691 L 3733.42 477.691 C 3735.5 511.09 3732.23 544.531 3723.71 577.141 C 3723.41 578.332 3724 579.559 3725.12 580.059 C 3726.25 580.57 3727.56 580.172 3728.23 579.141 C 3746.82 550.59 3750.89 519.109 3755.21 485.789 L 3756.27 477.691 L 3797.8 477.691 C 3792.22 510.5 3781.49 542.102 3765.92 571.672 C 3765.35 572.762 3765.65 574.102 3766.63 574.84 C 3767.62 575.57 3768.97 575.492 3769.86 574.641 C 3797.8 547.84 3819.44 514.34 3832.51 477.691 Z M 3894.28 472.691 C 3894.25 472.691 3894.21 472.691 3894.15 472.691 L 3830.74 472.691 C 3829.68 472.691 3828.73 473.359 3828.38 474.371 C 3817.37 505.949 3799.88 535.199 3777.4 559.77 C 3789.76 533.23 3798.38 505.242 3803.1 476.332 C 3803.28 475.988 3803.38 475.602 3803.38 475.191 C 3803.38 473.809 3802.26 472.691 3800.88 472.691 C 3800.84 472.691 3800.8 472.691 3800.75 472.691 L 3754.07 472.691 C 3752.82 472.691 3751.76 473.621 3751.59 474.859 L 3750.24 485.148 C 3746.79 511.871 3743.49 537.391 3732.62 560.859 C 3738.36 532.559 3740.25 503.762 3738.25 475.012 C 3738.16 473.699 3737.07 472.691 3735.76 472.691 L 3721.94 472.691 C 3721.27 472.691 3720.62 472.961 3720.15 473.449 C 3719.68 473.941 3719.42 474.59 3719.44 475.27 C 3720.12 497.141 3717.93 518.809 3712.92 539.871 C 3711.3 517.898 3707.36 495.98 3701.18 474.5 C 3700.87 473.43 3699.89 472.691 3698.78 472.691 L 3611.95 472.691 C 3610.58 472.691 3609.45 473.809 3609.45 475.191 C 3609.45 554.34 3619.78 638.781 3743.03 638.781 C 3844.72 638.781 3896.4 584 3896.65 475.969 C 3896.73 475.73 3896.78 475.461 3896.78 475.191 C 3896.78 473.809 3895.65 472.691 3894.28 472.691"/>
    <path id="path2320" style="fill:#8192a4;fill-opacity:1;fill-rule:nonzero;stroke:none" d="M 3590.45 505.43 L 3536.71 559.219 L 3562.03 584.52 L 3615.78 530.77 L 3590.45 505.43"/>
    <path id="path2322" style="fill:#000000;fill-opacity:1;fill-rule:nonzero;stroke:none" d="M 3540.24 559.219 L 3590.45 508.969 L 3612.25 530.77 L 3562.03 580.988 L 3540.24 559.219 Z M 3590.45 502.93 L 3590.45 502.93 C 3589.79 502.93 3589.15 503.199 3588.68 503.672 L 3534.94 557.449 C 3533.96 558.43 3533.96 560.012 3534.94 560.988 L 3560.26 586.289 C 3561.25 587.27 3562.83 587.27 3563.8 586.289 L 3617.55 532.531 C 3618.53 531.559 3618.53 529.969 3617.55 529 L 3592.22 503.672 C 3591.75 503.199 3591.11 502.93 3590.45 502.93"/>
    <path id="path2324" style="fill:#bcc4cd;fill-opacity:1;fill-rule:nonzero;stroke:none" d="M 3573.89 522.02 L 3553.29 542.609 L 3578.6 567.93 L 3599.2 547.34 L 3573.89 522.02"/>
    <path id="path2326" style="fill:#000000;fill-opacity:1;fill-rule:nonzero;stroke:none" d="M 3556.83 542.609 L 3573.89 525.551 L 3595.66 547.34 L 3578.6 564.398 L 3556.83 542.609 Z M 3573.89 519.52 C 3573.22 519.52 3572.59 519.781 3572.12 520.25 L 3551.52 540.84 C 3550.55 541.82 3550.55 543.398 3551.52 544.379 L 3576.84 569.699 C 3577.77 570.641 3579.43 570.641 3580.37 569.699 L 3600.97 549.102 C 3601.94 548.129 3601.94 546.551 3600.97 545.57 L 3575.65 520.25 C 3575.19 519.781 3574.55 519.52 3573.89 519.52"/>
    <path id="path2328" style="fill:#d33605;fill-opacity:1;fill-rule:nonzero;stroke:none" d="M 3741.68 195.82 C 3743.79 195.82 3745.84 196.148 3747.89 196.461 C 3740.94 206.219 3735.52 214.719 3735.52 221.602 C 3735.52 229.461 3737.97 236.742 3742.17 242.711 C 3748.24 251.391 3752.96 265.07 3750.38 279.129 C 3747.56 279.719 3744.64 280.051 3741.68 280.051 L 3642.76 280.051 C 3619.5 280.051 3600.64 261.18 3600.64 237.949 C 3600.64 214.691 3619.5 195.82 3642.76 195.82 L 3741.68 195.82"/>
    <path id="path2330" style="fill:#eb4900;fill-opacity:1;fill-rule:nonzero;stroke:none" d="M 3783.78 261.629 C 3783.78 238.391 3764.91 219.531 3741.68 219.531 L 3642.76 219.531 C 3619.5 219.531 3600.64 238.391 3600.64 261.629 L 3600.64 261.629 C 3600.64 284.891 3619.5 303.75 3642.76 303.75 L 3741.68 303.75 C 3764.91 303.75 3783.78 284.891 3783.78 261.629 L 3783.78 261.629"/>
    <path id="path2332" style="fill:#000000;fill-opacity:1;fill-rule:nonzero;stroke:none" d="M 3642.76 301.25 C 3620.92 301.25 3603.14 283.48 3603.14 261.629 C 3603.14 239.801 3620.92 222.031 3642.76 222.031 L 3741.68 222.031 C 3763.52 222.031 3781.28 239.801 3781.28 261.629 C 3781.28 283.48 3763.52 301.25 3741.68 301.25 L 3642.76 301.25 Z M 3741.68 217.031 L 3642.76 217.031 C 3618.16 217.031 3598.14 237.039 3598.14 261.629 C 3598.14 286.23 3618.16 306.25 3642.76 306.25 L 3741.68 306.25 C 3766.27 306.25 3786.28 286.23 3786.28 261.629 C 3786.28 237.039 3766.27 217.031 3741.68 217.031"/>
    <path id="path2334" style="fill:#eb4900;fill-opacity:1;fill-rule:nonzero;stroke:none" d="M 3542.86 57.09 L 3542.86 31.352 L 3576.23 31.352 L 3585.68 57.09 L 3542.86 57.09"/>
    <path id="path2336" style="fill:#000000;fill-opacity:1;fill-rule:nonzero;stroke:none" d="M 3545.36 33.852 L 3574.48 33.852 L 3582.1 54.59 L 3545.36 54.59 L 3545.36 33.852 Z M 3576.23 28.852 L 3542.86 28.852 C 3541.48 28.852 3540.36 29.969 3540.36 31.352 L 3540.36 57.09 C 3540.36 58.469 3541.48 59.59 3542.86 59.59 L 3585.68 59.59 C 3586.5 59.59 3587.27 59.191 3587.73 58.531 C 3588.2 57.852 3588.31 57 3588.03 56.23 L 3578.57 30.492 C 3578.21 29.512 3577.28 28.852 3576.23 28.852"/>
    <path id="path2338" style="fill:#eb4900;fill-opacity:1;fill-rule:nonzero;stroke:none" d="M 3739.53 57.09 L 3748.97 31.352 L 3782.33 31.352 L 3782.33 57.09 L 3739.53 57.09"/>
    <path id="path2340" style="fill:#000000;fill-opacity:1;fill-rule:nonzero;stroke:none" d="M 3750.72 33.852 L 3779.83 33.852 L 3779.83 54.59 L 3743.12 54.59 L 3750.72 33.852 Z M 3782.33 28.852 L 3748.97 28.852 C 3747.93 28.852 3746.99 29.512 3746.63 30.492 L 3737.19 56.23 C 3736.9 57 3737.01 57.852 3737.48 58.531 C 3737.95 59.191 3738.71 59.59 3739.53 59.59 L 3782.33 59.59 C 3783.71 59.59 3784.83 58.469 3784.83 57.09 L 3784.83 31.352 C 3784.83 29.969 3783.71 28.852 3782.33 28.852"/>
    <path id="path2342" style="fill:#ad713b;fill-opacity:1;fill-rule:nonzero;stroke:none" d="M 3662.56 149.602 C 3617.42 149.602 3577.45 158.191 3555.66 172.57 L 3546.28 178.789 L 3553.13 187.672 C 3558.9 195.109 3564.93 200.949 3568.97 204.699 L 3574.51 209.82 L 3581.1 206.18 C 3587.45 202.699 3612 191.352 3662.56 191.352 C 3711.89 191.352 3736.65 202.309 3743.09 205.68 L 3751.13 209.879 L 3775.08 176.051 L 3765.21 170.371 C 3742.56 157.379 3704.19 149.602 3662.56 149.602"/>
    <path id="path2344" style="fill:#000000;fill-opacity:1;fill-rule:nonzero;stroke:none" d="M 3549.9 179.391 L 3557.04 174.648 C 3578.43 160.531 3617.88 152.102 3662.56 152.102 C 3703.75 152.102 3741.66 159.738 3763.97 172.539 L 3771.46 176.852 L 3750.35 206.648 L 3744.24 203.461 C 3737.7 200.031 3712.46 188.852 3662.56 188.852 C 3611.45 188.852 3586.37 200.441 3579.9 204 L 3574.88 206.762 L 3570.67 202.859 C 3566.7 199.18 3560.76 193.43 3555.11 186.141 L 3549.9 179.391 Z M 3662.56 147.102 C 3616.93 147.102 3576.46 155.84 3554.29 170.48 L 3544.9 176.711 C 3544.32 177.09 3543.93 177.699 3543.81 178.379 C 3543.7 179.07 3543.88 179.77 3544.3 180.32 L 3551.15 189.191 C 3557.03 196.781 3563.16 202.73 3567.28 206.539 L 3572.81 211.648 C 3573.6 212.391 3574.78 212.539 3575.72 212.012 L 3582.31 208.371 C 3588.52 204.961 3612.64 193.852 3662.56 193.852 C 3711.32 193.852 3735.63 204.602 3741.92 207.891 L 3749.98 212.09 C 3751.07 212.68 3752.44 212.352 3753.17 211.32 L 3777.12 177.488 C 3777.53 176.922 3777.67 176.191 3777.52 175.512 C 3777.37 174.832 3776.93 174.23 3776.33 173.879 L 3766.46 168.211 C 3743.43 154.988 3704.59 147.102 3662.56 147.102"/>
    <path id="path2346" style="fill:#ffb103;fill-opacity:1;fill-rule:nonzero;stroke:none" d="M 3673.31 196.871 C 3673.31 190.93 3668.49 186.129 3662.59 186.129 C 3656.62 186.129 3651.8 190.93 3651.8 196.871 C 3651.8 202.801 3656.62 207.621 3662.59 207.621 C 3668.49 207.621 3673.31 202.801 3673.31 196.871"/>
    <path id="path2348" style="fill:#000000;fill-opacity:1;fill-rule:nonzero;stroke:none" d="M 3662.59 205.121 C 3658.02 205.121 3654.3 201.422 3654.3 196.871 C 3654.3 192.332 3658.02 188.629 3662.59 188.629 C 3667.12 188.629 3670.81 192.332 3670.81 196.871 C 3670.81 201.422 3667.12 205.121 3662.59 205.121 Z M 3662.59 183.629 C 3655.26 183.629 3649.3 189.559 3649.3 196.871 C 3649.3 204.172 3655.26 210.121 3662.59 210.121 C 3669.88 210.121 3675.81 204.172 3675.81 196.871 C 3675.81 189.559 3669.88 183.629 3662.59 183.629"/>
    <path id="path2350" style="fill:#8192a4;fill-opacity:1;fill-rule:nonzero;stroke:none" d="M 3651.8 142.23 L 3673.308 142.23 L 3673.308 196.871 L 3651.8 196.871 L 3651.8 142.23 Z"/>
    <path id="path2352" style="fill:#000000;fill-opacity:1;fill-rule:nonzero;stroke:none" d="M 3654.3 144.73 L 3670.81 144.73 L 3670.81 194.371 L 3654.3 194.371 L 3654.3 144.73 Z M 3673.31 139.73 L 3651.8 139.73 C 3650.42 139.73 3649.3 140.852 3649.3 142.23 L 3649.3 196.871 C 3649.3 198.25 3650.42 199.371 3651.8 199.371 L 3673.31 199.371 C 3674.69 199.371 3675.81 198.25 3675.81 196.871 L 3675.81 142.23 C 3675.81 140.852 3674.69 139.73 3673.31 139.73"/>
    <path id="path2354" style="fill:#6b7f82;fill-opacity:1;fill-rule:nonzero;stroke:none" d="M 3649.32 142.23 L 3675.801 142.23 L 3675.801 149.73 L 3649.32 149.73 L 3649.32 142.23 Z"/>
    <path id="path2356" style="fill:#000000;fill-opacity:1;fill-rule:nonzero;stroke:none" d="M 3651.82 144.73 L 3673.3 144.73 L 3673.3 147.23 L 3651.82 147.23 L 3651.82 144.73 Z M 3675.8 139.73 L 3649.32 139.73 C 3647.94 139.73 3646.82 140.852 3646.82 142.23 L 3646.82 149.73 C 3646.82 151.109 3647.94 152.23 3649.32 152.23 L 3675.8 152.23 C 3677.18 152.23 3678.3 151.109 3678.3 149.73 L 3678.3 142.23 C 3678.3 140.852 3677.18 139.73 3675.8 139.73"/>
    <path id="path2358" style="fill:#ffb103;fill-opacity:1;fill-rule:nonzero;stroke:none" d="M 3636.35 197.371 C 3635.36 191.512 3629.85 187.57 3623.99 188.531 C 3618.11 189.531 3614.16 195.051 3615.15 200.891 C 3616.12 206.762 3621.69 210.73 3627.54 209.738 C 3633.37 208.77 3637.33 203.219 3636.35 197.371"/>
    <path id="path2360" style="fill:#000000;fill-opacity:1;fill-rule:nonzero;stroke:none" d="M 3625.75 207.391 C 3621.7 207.391 3618.28 204.492 3617.62 200.48 C 3616.86 196.02 3619.91 191.762 3624.41 190.988 C 3628.82 190.301 3633.13 193.332 3633.89 197.781 C 3634.25 199.949 3633.74 202.141 3632.46 203.941 C 3631.18 205.742 3629.29 206.922 3627.13 207.27 C 3626.66 207.359 3626.2 207.391 3625.75 207.391 Z M 3625.75 185.879 C 3625.04 185.879 3624.32 185.941 3623.59 186.059 C 3616.36 187.301 3611.47 194.129 3612.69 201.309 C 3613.87 208.441 3620.57 213.441 3627.96 212.199 C 3631.43 211.621 3634.47 209.719 3636.53 206.84 C 3638.59 203.961 3639.4 200.441 3638.81 196.949 C 3637.73 190.539 3632.24 185.879 3625.75 185.879"/>
    <path id="path2362" style="fill:#8192a4;fill-opacity:1;fill-rule:nonzero;stroke:none" d="M 3627.38 143.488 L 3606.16 147.02 L 3615.15 200.891 L 3636.35 197.371 L 3627.38 143.488"/>
    <path id="path2364" style="fill:#000000;fill-opacity:1;fill-rule:nonzero;stroke:none" d="M 3609.04 149.082 L 3625.32 146.371 L 3633.47 195.309 L 3617.2 198.02 L 3609.04 149.082 Z M 3627.38 140.988 C 3627.25 140.988 3627.11 141 3626.97 141.02 L 3605.75 144.551 C 3605.1 144.672 3604.51 145.031 3604.13 145.57 C 3603.74 146.109 3603.58 146.781 3603.69 147.43 L 3612.68 201.301 C 3612.9 202.66 3614.19 203.582 3615.56 203.359 L 3636.76 199.84 C 3637.41 199.719 3638 199.359 3638.38 198.82 C 3638.77 198.281 3638.93 197.609 3638.82 196.961 L 3629.85 143.082 C 3629.74 142.43 3629.38 141.84 3628.84 141.461 C 3628.41 141.148 3627.9 140.988 3627.38 140.988"/>
    <path id="path2366" style="fill:#6b7f82;fill-opacity:1;fill-rule:nonzero;stroke:none" d="M 3629.83 143.059 L 3603.73 147.422 L 3604.96 154.84 L 3631.04 150.469 L 3629.83 143.059"/>
    <path id="path2368" style="fill:#000000;fill-opacity:1;fill-rule:nonzero;stroke:none" d="M 3606.6 149.469 L 3627.77 145.941 L 3628.17 148.422 L 3607.02 151.961 L 3606.6 149.469 Z M 3629.83 140.559 C 3629.7 140.559 3629.56 140.57 3629.42 140.59 L 3603.32 144.941 C 3601.96 145.18 3601.04 146.461 3601.26 147.832 L 3602.49 155.25 C 3602.61 155.898 3602.97 156.492 3603.51 156.871 C 3604.05 157.27 3604.72 157.441 3605.37 157.301 L 3631.46 152.93 C 3632.81 152.711 3633.73 151.43 3633.52 150.07 L 3632.3 142.66 C 3632.2 142.012 3631.83 141.422 3631.29 141.031 C 3630.86 140.73 3630.35 140.559 3629.83 140.559"/>
    <path id="path2370" style="fill:#ffb103;fill-opacity:1;fill-rule:nonzero;stroke:none" d="M 3601.92 201.949 C 3599.67 196.422 3593.45 193.781 3587.93 196.02 C 3582.42 198.262 3579.78 204.512 3581.99 209.988 C 3584.23 215.512 3590.51 218.16 3596.02 215.922 C 3601.49 213.699 3604.17 207.43 3601.92 201.949"/>
    <path id="path2372" style="fill:#000000;fill-opacity:1;fill-rule:nonzero;stroke:none" d="M 3591.96 214.211 C 3588.58 214.211 3585.58 212.191 3584.31 209.059 C 3582.62 204.859 3584.66 200.039 3588.87 198.332 C 3593.04 196.672 3597.92 198.75 3599.61 202.891 C 3600.44 204.922 3600.42 207.141 3599.57 209.172 C 3598.71 211.199 3597.12 212.781 3595.08 213.609 C 3594.08 214.012 3593.03 214.211 3591.96 214.211 Z M 3591.98 192.73 C 3590.27 192.73 3588.59 193.051 3586.99 193.699 C 3580.22 196.449 3576.94 204.172 3579.68 210.93 C 3582.36 217.559 3590.33 220.961 3596.95 218.242 C 3600.23 216.91 3602.8 214.379 3604.18 211.109 C 3605.56 207.852 3605.58 204.262 3604.24 201 C 3602.19 195.969 3597.37 192.73 3591.98 192.73"/>
    <path id="path2374" style="fill:#8192a4;fill-opacity:1;fill-rule:nonzero;stroke:none" d="M 3581.42 151.301 L 3561.47 159.379 L 3581.99 209.988 L 3601.92 201.949 L 3581.42 151.301"/>
    <path id="path2376" style="fill:#000000;fill-opacity:1;fill-rule:nonzero;stroke:none" d="M 3564.73 160.762 L 3580.04 154.551 L 3598.67 200.57 L 3583.37 206.742 L 3564.73 160.762 Z M 3581.42 148.801 C 3581.09 148.801 3580.78 148.859 3580.48 148.992 L 3560.54 157.059 C 3559.92 157.309 3559.43 157.801 3559.17 158.398 C 3558.92 159.02 3558.91 159.699 3559.16 160.32 L 3579.68 210.93 C 3580.2 212.219 3581.62 212.852 3582.93 212.309 L 3602.86 204.262 C 3603.48 204.02 3603.96 203.539 3604.23 202.922 C 3604.48 202.309 3604.49 201.621 3604.24 201.012 L 3583.73 150.359 C 3583.49 149.75 3583 149.262 3582.39 149 C 3582.08 148.871 3581.75 148.801 3581.42 148.801"/>
    <path id="path2378" style="fill:#6b7f82;fill-opacity:1;fill-rule:nonzero;stroke:none" d="M 3583.69 150.352 L 3559.15 160.32 L 3562 167.27 L 3586.51 157.332 L 3583.69 150.352"/>
    <path id="path2380" style="fill:#000000;fill-opacity:1;fill-rule:nonzero;stroke:none" d="M 3562.41 161.691 L 3582.31 153.621 L 3583.26 155.949 L 3563.37 164.02 L 3562.41 161.691 Z M 3583.69 147.852 C 3583.37 147.852 3583.06 147.91 3582.75 148.039 L 3558.21 158 C 3557.6 158.25 3557.1 158.73 3556.85 159.352 C 3556.59 159.961 3556.58 160.648 3556.84 161.262 L 3559.69 168.219 C 3560.21 169.492 3561.68 170.109 3562.94 169.582 L 3587.45 159.641 C 3588.73 159.121 3589.35 157.672 3588.83 156.391 L 3586.01 149.422 C 3585.76 148.801 3585.27 148.309 3584.67 148.051 C 3584.36 147.922 3584.02 147.852 3583.69 147.852"/>
    <path id="path2382" style="fill:#ffb103;fill-opacity:1;fill-rule:nonzero;stroke:none" d="M 3689.58 197.238 C 3690.56 191.352 3696.08 187.43 3701.94 188.371 C 3707.81 189.391 3711.76 194.922 3710.77 200.77 C 3709.82 206.609 3704.26 210.57 3698.38 209.59 C 3692.55 208.648 3688.6 203.09 3689.58 197.238"/>
    <path id="path2384" style="fill:#000000;fill-opacity:1;fill-rule:nonzero;stroke:none" d="M 3700.17 207.238 C 3699.72 207.238 3699.25 207.199 3698.79 207.121 C 3696.64 206.781 3694.76 205.609 3693.49 203.832 C 3692.19 202.031 3691.68 199.84 3692.05 197.648 C 3692.79 193.199 3697.04 190.039 3701.54 190.84 C 3706.02 191.609 3709.06 195.879 3708.31 200.352 C 3707.66 204.352 3704.24 207.238 3700.17 207.238 Z M 3700.2 185.742 C 3693.68 185.742 3688.18 190.398 3687.11 196.832 C 3686.53 200.34 3687.34 203.859 3689.41 206.742 C 3691.47 209.609 3694.51 211.5 3697.98 212.059 C 3705.37 213.219 3712.08 208.289 3713.24 201.172 C 3714.44 194.012 3709.57 187.148 3702.37 185.91 C 3701.62 185.781 3700.91 185.742 3700.2 185.742"/>
    <path id="path2386" style="fill:#8192a4;fill-opacity:1;fill-rule:nonzero;stroke:none" d="M 3698.56 143.359 L 3719.76 146.891 L 3710.77 200.77 L 3689.58 197.238 L 3698.56 143.359"/>
    <path id="path2388" style="fill:#000000;fill-opacity:1;fill-rule:nonzero;stroke:none" d="M 3692.46 195.18 L 3700.62 146.238 L 3716.88 148.949 L 3708.72 197.879 L 3692.46 195.18 Z M 3698.56 140.859 C 3697.36 140.859 3696.3 141.73 3696.09 142.949 L 3687.11 196.832 C 3687 197.48 3687.16 198.16 3687.55 198.691 C 3687.93 199.23 3688.52 199.59 3689.17 199.711 L 3710.36 203.242 C 3711.72 203.43 3713.02 202.531 3713.24 201.18 L 3722.23 147.301 C 3722.33 146.641 3722.18 145.969 3721.79 145.43 C 3721.41 144.898 3720.82 144.531 3720.17 144.422 L 3698.97 140.891 C 3698.84 140.871 3698.7 140.859 3698.56 140.859"/>
    <path id="path2390" style="fill:#6b7f82;fill-opacity:1;fill-rule:nonzero;stroke:none" d="M 3696.1 142.93 L 3722.22 147.281 L 3720.96 154.699 L 3694.88 150.332 L 3696.1 142.93"/>
    <path id="path2392" style="fill:#000000;fill-opacity:1;fill-rule:nonzero;stroke:none" d="M 3697.75 148.27 L 3698.16 145.809 L 3719.34 149.332 L 3718.91 151.82 L 3697.75 148.27 Z M 3696.1 140.43 C 3695.59 140.43 3695.08 140.602 3694.65 140.898 C 3694.11 141.281 3693.74 141.871 3693.63 142.52 L 3692.41 149.922 C 3692.19 151.281 3693.11 152.559 3694.47 152.789 L 3720.55 157.16 C 3721.89 157.461 3723.19 156.48 3723.42 155.121 L 3724.68 147.699 C 3724.79 147.039 3724.64 146.371 3724.26 145.82 C 3723.87 145.289 3723.28 144.93 3722.63 144.809 L 3696.51 140.461 C 3696.38 140.441 3696.24 140.43 3696.1 140.43"/>
    <path id="path2394" style="fill:#ffb103;fill-opacity:1;fill-rule:nonzero;stroke:none" d="M 3724.01 201.801 C 3726.24 196.281 3732.49 193.66 3737.99 195.859 C 3743.52 198.109 3746.15 204.379 3743.93 209.871 C 3741.71 215.359 3735.42 218.02 3729.91 215.77 C 3724.43 213.551 3721.76 207.289 3724.01 201.801"/>
    <path id="path2396" style="fill:#000000;fill-opacity:1;fill-rule:nonzero;stroke:none" d="M 3733.97 214.07 C 3732.91 214.07 3731.86 213.859 3730.86 213.449 C 3728.81 212.621 3727.21 211.051 3726.36 209.012 C 3725.51 207 3725.5 204.77 3726.33 202.75 C 3728 198.609 3732.9 196.539 3737.06 198.191 C 3741.27 199.898 3743.32 204.719 3741.61 208.93 C 3740.35 212.051 3737.35 214.07 3733.97 214.07 Z M 3733.96 192.582 L 3733.96 192.582 C 3728.54 192.582 3723.73 195.832 3721.7 200.859 C 3720.36 204.102 3720.38 207.699 3721.75 210.949 C 3723.13 214.219 3725.68 216.75 3728.97 218.082 C 3735.6 220.801 3743.57 217.422 3746.24 210.801 C 3748.98 204.051 3745.7 196.301 3738.93 193.551 C 3737.33 192.898 3735.66 192.582 3733.96 192.582"/>
    <path id="path2398" style="fill:#8192a4;fill-opacity:1;fill-rule:nonzero;stroke:none" d="M 3744.52 151.172 L 3764.47 159.25 L 3743.93 209.871 L 3724.01 201.801 L 3744.52 151.172"/>
    <path id="path2400" style="fill:#000000;fill-opacity:1;fill-rule:nonzero;stroke:none" d="M 3727.27 200.422 L 3745.9 154.422 L 3761.21 160.629 L 3742.55 206.609 L 3727.27 200.422 Z M 3744.52 148.672 C 3744.19 148.672 3743.86 148.73 3743.54 148.859 C 3742.94 149.121 3742.45 149.609 3742.21 150.23 L 3721.7 200.859 C 3721.18 202.141 3721.8 203.602 3723.08 204.109 L 3742.99 212.18 C 3744.24 212.711 3745.72 212.09 3746.24 210.801 L 3766.79 160.191 C 3767.04 159.57 3767.03 158.891 3766.78 158.27 C 3766.51 157.672 3766.03 157.18 3765.41 156.941 L 3745.46 148.852 C 3745.16 148.719 3744.84 148.672 3744.52 148.672"/>
    <path id="path2402" style="fill:#6b7f82;fill-opacity:1;fill-rule:nonzero;stroke:none" d="M 3742.24 150.199 L 3766.77 160.172 L 3763.94 167.141 L 3739.42 157.18 L 3742.24 150.199"/>
    <path id="path2404" style="fill:#000000;fill-opacity:1;fill-rule:nonzero;stroke:none" d="M 3742.68 155.801 L 3743.62 153.461 L 3763.52 161.551 L 3762.56 163.879 L 3742.68 155.801 Z M 3742.24 147.699 C 3741.9 147.699 3741.57 147.77 3741.26 147.891 C 3740.64 148.16 3740.17 148.648 3739.92 149.262 L 3737.11 156.238 C 3736.59 157.52 3737.21 158.98 3738.49 159.5 L 3763 169.461 C 3763.61 169.711 3764.3 169.699 3764.91 169.449 C 3765.52 169.18 3766.01 168.691 3766.25 168.082 L 3769.08 161.109 C 3769.6 159.832 3768.98 158.371 3767.71 157.852 L 3743.17 147.879 C 3742.87 147.762 3742.56 147.699 3742.24 147.699"/>
    <path id="path2406" style="fill:#8192a4;fill-opacity:1;fill-rule:nonzero;stroke:none" d="M 3652.42 120.988 C 3655.3 120.988 3657.64 123.32 3657.64 126.191 C 3657.64 129.082 3655.3 131.43 3652.42 131.43 C 3643.75 131.43 3636.72 138.461 3636.72 147.129 C 3636.72 150 3634.37 152.352 3631.5 152.352 C 3628.6 152.352 3626.27 150 3626.27 147.129 C 3626.27 132.711 3637.99 120.988 3652.42 120.988"/>
    <path id="path2408" style="fill:#000000;fill-opacity:1;fill-rule:nonzero;stroke:none" d="M 3631.5 149.852 C 3630 149.852 3628.77 148.629 3628.77 147.129 C 3628.77 134.102 3639.38 123.488 3652.42 123.488 C 3653.92 123.488 3655.14 124.699 3655.14 126.191 C 3655.14 127.699 3653.92 128.93 3652.42 128.93 C 3642.38 128.93 3634.22 137.09 3634.22 147.129 C 3634.22 148.629 3633 149.852 3631.5 149.852 Z M 3652.42 118.488 C 3636.62 118.488 3623.77 131.34 3623.77 147.129 C 3623.77 151.391 3627.24 154.852 3631.5 154.852 C 3635.76 154.852 3639.22 151.391 3639.22 147.129 C 3639.22 139.859 3645.15 133.93 3652.42 133.93 C 3656.68 133.93 3660.14 130.461 3660.14 126.191 C 3660.14 121.949 3656.68 118.488 3652.42 118.488"/>
    <path id="path2410" style="fill:#8192a4;fill-opacity:1;fill-rule:nonzero;stroke:none" d="M 3607.62 141.801 C 3607.62 124.219 3628.47 109.91 3654.12 109.91 C 3679.75 109.91 3700.62 124.219 3700.62 141.801 C 3700.62 159.41 3679.75 173.719 3654.12 173.719 C 3628.47 173.719 3607.62 159.41 3607.62 141.801 Z M 3597.16 141.801 C 3597.16 165.148 3622.72 184.16 3654.12 184.16 C 3685.5 184.16 3711.05 165.148 3711.05 141.801 C 3711.05 118.449 3685.5 99.469 3654.12 99.469 C 3622.72 99.469 3597.16 118.449 3597.16 141.801"/>
    <path id="path2412" style="fill:#000000;fill-opacity:1;fill-rule:nonzero;stroke:none" d="M 3654.12 171.219 C 3629.85 171.219 3610.12 158.02 3610.12 141.801 C 3610.12 125.59 3629.85 112.41 3654.12 112.41 C 3678.38 112.41 3698.12 125.59 3698.12 141.801 C 3698.12 158.02 3678.38 171.219 3654.12 171.219 Z M 3654.12 107.41 C 3627.1 107.41 3605.12 122.84 3605.12 141.801 C 3605.12 160.781 3627.1 176.219 3654.12 176.219 C 3681.13 176.219 3703.12 160.781 3703.12 141.801 C 3703.12 122.84 3681.13 107.41 3654.12 107.41 Z M 3654.12 181.66 C 3624.09 181.66 3599.66 163.781 3599.66 141.801 C 3599.66 119.84 3624.09 101.969 3654.12 101.969 C 3684.14 101.969 3708.55 119.84 3708.55 141.801 C 3708.55 163.781 3684.14 181.66 3654.12 181.66 Z M 3654.12 96.969 C 3621.34 96.969 3594.66 117.082 3594.66 141.801 C 3594.66 166.539 3621.34 186.66 3654.12 186.66 C 3686.89 186.66 3713.55 166.539 3713.55 141.801 C 3713.55 117.082 3686.89 96.969 3654.12 96.969"/>
    <path id="path2414" style="fill:#ad713b;fill-opacity:1;fill-rule:nonzero;stroke:none" d="M 3561.28 198.68 L 3718.12 198.68 L 3718.12 143.051 L 3641.21 143.051 C 3627.94 143.051 3615.97 138.082 3607.27 130.09 C 3592.54 116.5 3575.28 98.789 3553.23 98.789 C 3531.15 98.789 3513.27 111.219 3513.27 126.602 L 3513.27 154.43 C 3513.27 178.859 3534.77 198.68 3561.28 198.68"/>
    <path id="path2416" style="fill:#000000;fill-opacity:1;fill-rule:nonzero;stroke:none" d="M 3561.28 196.18 C 3536.18 196.18 3515.77 177.449 3515.77 154.43 L 3515.77 126.602 C 3515.77 112.652 3532.58 101.289 3553.23 101.289 C 3572.69 101.289 3588.41 115.941 3602.28 128.871 L 3605.57 131.93 C 3615.14 140.719 3627.79 145.551 3641.21 145.551 L 3715.62 145.551 L 3715.62 196.18 L 3561.28 196.18 Z M 3553.23 96.289 C 3529.82 96.289 3510.77 109.891 3510.77 126.602 L 3510.77 154.43 C 3510.77 180.211 3533.43 201.18 3561.28 201.18 L 3718.12 201.18 C 3719.49 201.18 3720.62 200.059 3720.62 198.68 L 3720.62 143.051 C 3720.62 141.672 3719.49 140.551 3718.12 140.551 L 3641.21 140.551 C 3629.05 140.551 3617.6 136.18 3608.96 128.25 L 3605.69 125.219 C 3591.14 111.648 3574.65 96.289 3553.23 96.289"/>
    <path id="path2418" style="fill:#894b19;fill-opacity:1;fill-rule:nonzero;stroke:none" d="M 3513.84 122.699 C 3515.36 123.98 3516.84 125.391 3518.35 126.859 C 3521.46 129.879 3524.65 133.012 3528.84 135.391 C 3539.79 141.68 3551.02 140.672 3561.9 139.629 C 3565.87 139.25 3569.84 138.891 3573.83 138.891 L 3576.18 138.82 C 3578.58 138.77 3581.04 138.68 3582.55 139.5 C 3583.94 140.281 3585.03 141.539 3586.47 143.16 C 3587.1 143.871 3587.72 144.57 3588.41 145.301 C 3595.31 152.469 3601.71 154.102 3609.8 154.43 C 3612.87 154.52 3616.03 154.309 3619.26 154.07 C 3623.47 153.711 3627.47 153.41 3630.97 154 C 3632.69 154.27 3634.23 155.211 3636 156.281 C 3637.36 157.109 3638.76 157.93 3640.3 158.621 C 3644.34 160.352 3648.65 160.59 3652.46 160.809 C 3657.04 161.07 3661.81 161.031 3666.32 160.809 C 3669.85 160.629 3673.02 159.609 3676.04 158.621 C 3677.45 158.148 3678.86 157.66 3680.28 157.332 C 3686.51 155.77 3698.28 154.242 3707.44 161.551 L 3712.25 152.82 C 3700.46 143.48 3686.04 145.211 3678.53 147.09 C 3676.89 147.488 3675.31 148.02 3673.76 148.539 C 3671.06 149.41 3668.54 150.25 3665.97 150.359 C 3661.68 150.59 3657.2 150.629 3652.86 150.359 C 3649.52 150.191 3646.04 150 3643.24 148.77 C 3642.06 148.27 3640.97 147.602 3639.92 146.969 C 3637.74 145.641 3635.28 144.141 3632.15 143.648 C 3627.75 142.93 3623.15 143.281 3618.69 143.648 C 3615.75 143.871 3612.82 144.07 3610.08 144 C 3602.49 143.68 3598.63 142.082 3594.09 137.41 L 3592.47 135.59 C 3590.78 133.68 3588.9 131.531 3586.21 130.031 C 3582.87 128.16 3579.22 128.242 3575.96 128.41 L 3573.83 128.449 C 3569.63 128.449 3565.41 128.84 3561.23 129.23 C 3551.06 130.172 3541.44 131.082 3532.59 125.98 C 3529.32 124.129 3526.67 121.52 3523.81 118.762 C 3522.02 117.012 3520.19 115.211 3518.14 113.551 C 3515.98 116.359 3514.5 119.41 3513.84 122.699"/>
    <path id="path2420" style="fill:#000000;fill-opacity:1;fill-rule:nonzero;stroke:none" d="M 3516.63 121.809 C 3517.08 120.262 3517.74 118.73 3518.62 117.27 C 3519.81 118.34 3520.95 119.461 3522.05 120.551 C 3525.31 123.68 3527.97 126.238 3531.36 128.16 C 3536.45 131.09 3542.24 132.461 3549.56 132.461 C 3553.44 132.461 3557.46 132.09 3561.36 131.73 C 3565.52 131.34 3569.71 130.949 3573.83 130.949 L 3576.01 130.91 C 3579.79 130.699 3582.75 130.961 3584.99 132.211 C 3587.29 133.488 3588.95 135.371 3590.56 137.199 L 3592.23 139.07 C 3597.3 144.301 3601.77 146.16 3609.97 146.5 L 3611.23 146.512 C 3613.69 146.512 3616.28 146.34 3618.89 146.141 C 3623.36 145.77 3628.14 145.5 3631.75 146.121 C 3634.41 146.539 3636.55 147.852 3638.62 149.102 C 3639.85 149.859 3641.03 150.551 3642.28 151.082 C 3645.47 152.469 3649.33 152.68 3652.73 152.859 C 3657.13 153.129 3661.73 153.09 3666.09 152.859 C 3668.91 152.742 3671.49 151.898 3674.24 151.012 C 3676.04 150.41 3677.56 149.91 3679.12 149.52 C 3681.71 148.871 3685.73 148.109 3690.3 148.109 C 3697.46 148.109 3703.74 149.93 3709 153.531 L 3706.6 157.879 C 3699.45 153.379 3689.81 152.391 3679.68 154.91 C 3678.39 155.199 3677.08 155.641 3675.76 156.07 C 3672.55 157.129 3669.49 158.148 3666.19 158.309 C 3661.77 158.551 3657.08 158.59 3652.6 158.309 C 3648.95 158.102 3644.89 157.859 3641.29 156.32 C 3639.87 155.699 3638.57 154.93 3637.29 154.141 C 3635.38 152.98 3633.56 151.879 3631.36 151.531 C 3627.73 150.93 3623.5 151.199 3619.05 151.582 C 3616.45 151.77 3613.88 151.949 3611.37 151.949 L 3609.88 151.93 C 3602.24 151.621 3596.55 150.16 3590.21 143.57 C 3589.56 142.879 3588.96 142.199 3588.35 141.512 C 3586.72 139.68 3585.47 138.27 3583.78 137.32 C 3582.1 136.41 3580.08 136.289 3578.14 136.289 L 3573.76 136.391 C 3573.75 136.391 3573.74 136.391 3573.74 136.391 C 3569.82 136.391 3565.95 136.73 3561.67 137.141 C 3557.92 137.5 3553.66 137.898 3549.57 137.898 C 3541.84 137.898 3535.64 136.422 3530.08 133.23 C 3526.28 131.07 3523.27 128.148 3520.36 125.332 C 3518.99 124 3517.8 122.852 3516.63 121.809 Z M 3518.14 111.051 C 3518.05 111.051 3517.95 111.059 3517.85 111.07 C 3517.19 111.148 3516.57 111.492 3516.16 112.02 C 3513.72 115.199 3512.11 118.629 3511.39 122.199 C 3511.21 123.102 3511.53 124.031 3512.23 124.609 C 3513.71 125.852 3515.14 127.23 3516.61 128.66 C 3520.01 131.961 3523.25 135.09 3527.6 137.57 C 3533.95 141.199 3540.93 142.898 3549.57 142.898 C 3553.9 142.898 3558.28 142.48 3562.14 142.121 C 3566.31 141.719 3570.06 141.391 3573.83 141.391 L 3578.14 141.289 C 3578.76 141.289 3580.62 141.289 3581.37 141.691 C 3582.29 142.219 3583.19 143.23 3584.43 144.629 C 3585.24 145.539 3585.89 146.262 3586.59 147.02 C 3594.06 154.781 3601.23 156.59 3609.71 156.93 L 3611.37 156.949 C 3614 156.949 3616.7 156.77 3619.44 156.559 C 3623.48 156.211 3627.26 155.898 3630.56 156.461 C 3631.81 156.66 3633.09 157.43 3634.7 158.422 C 3636.15 159.301 3637.65 160.172 3639.29 160.898 C 3643.72 162.809 3648.24 163.07 3652.24 163.301 C 3657.06 163.559 3661.85 163.52 3666.44 163.309 C 3670.42 163.102 3673.96 161.93 3676.82 160.988 C 3678.52 160.422 3679.68 160.031 3680.85 159.762 C 3690.7 157.332 3699.69 158.57 3705.88 163.5 C 3706.46 163.961 3707.24 164.121 3707.93 164 C 3708.65 163.852 3709.28 163.398 3709.63 162.75 L 3714.43 154.02 C 3715.03 152.949 3714.76 151.609 3713.8 150.852 C 3707.3 145.719 3699.4 143.109 3690.3 143.109 C 3685.22 143.109 3680.76 143.961 3677.92 144.672 C 3676.23 145.082 3674.59 145.629 3672.97 146.172 C 3670.28 147.031 3668.01 147.77 3665.85 147.859 C 3661.64 148.09 3657.27 148.129 3653.02 147.859 C 3649.87 147.711 3646.64 147.531 3644.25 146.492 C 3643.19 146.039 3642.25 145.449 3641.35 144.91 C 3638.97 143.461 3636.18 141.75 3632.54 141.18 C 3628.52 140.531 3623.34 140.762 3618.49 141.16 C 3616.04 141.34 3613.57 141.512 3611.23 141.512 L 3610.14 141.5 C 3603.2 141.211 3600 139.91 3595.89 135.672 L 3594.34 133.93 C 3592.6 131.949 3590.47 129.531 3587.42 127.852 C 3584.2 126.039 3580.82 125.82 3578.56 125.82 C 3577.63 125.82 3576.71 125.859 3575.82 125.91 L 3573.78 125.949 C 3569.47 125.949 3565.17 126.352 3561 126.742 C 3556.94 127.109 3553.21 127.461 3549.56 127.461 C 3543.07 127.461 3538.21 126.332 3533.84 123.809 C 3530.98 122.199 3528.54 119.859 3525.96 117.371 C 3523.72 115.172 3521.83 113.32 3519.73 111.602 C 3519.28 111.238 3518.72 111.051 3518.14 111.051"/>
    <path id="path2422" style="fill:#894b19;fill-opacity:1;fill-rule:nonzero;stroke:none" d="M 3572.8 182.691 C 3577.46 181.359 3582.34 180.02 3586.87 180.859 C 3590.39 181.512 3594.35 183.629 3598.13 185.672 C 3600.6 186.969 3603.04 188.281 3605.46 189.309 C 3612 192.02 3622.5 191.559 3628.89 189.512 C 3630.42 189.012 3631.9 188.461 3633.33 187.922 C 3638.34 186.02 3642.02 184.629 3646.73 186.691 C 3653.07 189.5 3661.6 192.691 3671.07 192.691 C 3675.54 192.691 3679.66 191.969 3683.66 191.23 C 3687.5 190.539 3691.11 189.898 3694.9 189.898 L 3694.9 179.461 C 3690.48 179.461 3686.36 180.18 3682.39 180.91 C 3678.53 181.59 3674.93 182.25 3671.07 182.25 C 3662.94 182.25 3655.41 179.391 3649.71 176.91 C 3642.18 173.539 3636.35 175.801 3630.72 177.961 C 3629.4 178.48 3628.05 178.992 3626.64 179.441 C 3621.1 181.16 3612.53 181.238 3608.31 179.441 C 3606.13 178.512 3603.94 177.32 3601.69 176.129 C 3597.35 173.801 3592.86 171.422 3588.2 170.551 C 3581.99 169.449 3576.03 171.039 3570.81 172.531 C 3568.94 173.07 3567.08 173.59 3565.29 173.969 C 3557.47 175.512 3550.42 175.512 3545.95 173.801 C 3543.31 172.801 3540.85 171.289 3538.42 169.82 C 3534.26 167.301 3529.96 164.699 3524.71 163.961 C 3521.39 163.461 3517.9 163.57 3514.38 163.781 C 3515.24 167.441 3516.72 170.84 3518.47 174.109 C 3520.27 174.09 3522.06 174.082 3523.69 174.32 C 3527.41 174.852 3530.87 176.949 3534.52 179.141 C 3537.29 180.82 3540.13 182.551 3543.31 183.75 C 3551.13 186.762 3561.39 185.371 3566.75 184.242 C 3568.73 183.859 3570.75 183.289 3572.8 182.691"/>
    <path id="path2424" style="fill:#000000;fill-opacity:1;fill-rule:nonzero;stroke:none" d="M 3517.66 166.129 C 3519.9 166.082 3522.17 166.109 3524.34 166.43 C 3529.11 167.102 3533.18 169.57 3537.12 171.961 C 3539.72 173.531 3542.26 175.07 3545.06 176.141 C 3549.9 177.98 3557.37 178.082 3565.78 176.422 C 3567.66 176.02 3569.57 175.492 3571.49 174.93 C 3576.89 173.379 3582.13 172 3587.76 173.012 C 3592.09 173.82 3596.56 176.211 3600.51 178.332 L 3601.14 178.672 C 3603.23 179.781 3605.29 180.871 3607.33 181.742 C 3611.85 183.68 3621.42 183.68 3627.38 181.82 C 3628.86 181.352 3630.27 180.82 3631.64 180.289 C 3637.32 178.102 3642.82 176.551 3648.68 179.191 C 3654.65 181.781 3662.56 184.75 3671.07 184.75 C 3674.95 184.75 3678.5 184.129 3682.24 183.48 C 3686.04 182.781 3689.22 182.23 3692.4 182.031 L 3692.4 187.48 C 3689.24 187.691 3686.19 188.242 3683.21 188.77 C 3679.77 189.41 3675.48 190.191 3671.07 190.191 C 3661.98 190.191 3653.83 187.102 3647.74 184.41 C 3642.65 182.172 3637.89 183.52 3632.44 185.59 C 3631.05 186.109 3629.61 186.641 3628.12 187.129 C 3621.87 189.121 3611.64 189.16 3606.42 187 C 3604.35 186.129 3602.24 185.012 3600.11 183.891 L 3599.29 183.449 C 3595.55 181.43 3591.28 179.121 3587.31 178.398 C 3586.19 178.199 3585.05 178.102 3583.89 178.102 L 3583.89 178.102 C 3579.78 178.102 3575.53 179.309 3572.12 180.289 C 3570.13 180.871 3568.18 181.422 3566.28 181.789 C 3563.98 182.27 3559.49 183.07 3554.65 183.07 C 3550.57 183.07 3547.05 182.512 3544.21 181.422 C 3541.23 180.301 3538.49 178.629 3535.84 177.02 C 3531.85 174.621 3528.22 172.43 3524.04 171.852 C 3522.77 171.648 3521.39 171.602 3519.98 171.602 C 3519 169.672 3518.24 167.871 3517.66 166.129 Z M 3519.37 161.109 C 3517.68 161.109 3515.96 161.18 3514.23 161.281 C 3513.5 161.332 3512.82 161.699 3512.38 162.289 C 3511.94 162.879 3511.79 163.641 3511.95 164.352 C 3512.77 167.852 3514.14 171.32 3516.26 175.301 C 3516.7 176.121 3517.31 176.48 3518.51 176.609 L 3519.98 176.602 C 3521.13 176.602 3522.27 176.629 3523.32 176.789 C 3526.51 177.25 3529.72 179.172 3533.11 181.211 C 3536.08 183.02 3539.03 184.809 3542.43 186.102 C 3545.83 187.41 3549.95 188.07 3554.65 188.07 C 3559.68 188.07 3564.29 187.32 3567.27 186.68 C 3569.28 186.301 3571.38 185.719 3573.51 185.09 C 3576.76 184.16 3580.47 183.102 3583.89 183.102 L 3583.89 183.102 C 3584.74 183.102 3585.58 183.172 3586.41 183.32 C 3589.6 183.898 3593.5 186.012 3596.93 187.859 L 3597.77 188.309 C 3600.03 189.5 3602.27 190.68 3604.48 191.609 C 3608.64 193.332 3613.53 193.691 3616.88 193.691 C 3621.42 193.691 3626.07 193.031 3629.65 191.891 C 3631.23 191.371 3632.75 190.809 3634.21 190.27 C 3638.95 188.461 3642.12 187.398 3645.72 188.992 C 3652.26 191.871 3661.04 195.191 3671.07 195.191 C 3675.94 195.191 3680.47 194.359 3684.11 193.691 C 3687.8 193.031 3691.29 192.398 3694.9 192.398 C 3696.28 192.398 3697.4 191.27 3697.4 189.898 L 3697.4 179.461 C 3697.4 178.082 3696.28 176.961 3694.9 176.961 C 3690.41 176.961 3686.37 177.629 3681.93 178.449 C 3677.85 179.16 3674.52 179.75 3671.07 179.75 C 3663.53 179.75 3656.54 177.148 3650.7 174.609 C 3647.82 173.32 3644.97 172.691 3642.01 172.691 C 3637.48 172.691 3633.63 174.172 3629.9 175.602 C 3628.54 176.141 3627.24 176.621 3625.88 177.051 C 3621.04 178.551 3612.69 178.602 3609.3 177.141 C 3607.38 176.32 3605.45 175.301 3603.49 174.25 L 3602.86 173.922 C 3598.6 171.629 3593.77 169.051 3588.66 168.09 C 3582.01 166.922 3576.05 168.43 3570.12 170.129 C 3568.3 170.648 3566.5 171.16 3564.78 171.531 C 3557.45 172.969 3550.71 172.941 3546.84 171.469 C 3544.46 170.559 3542.23 169.199 3539.85 167.77 C 3535.55 165.16 3530.83 162.301 3525.06 161.492 C 3523.36 161.219 3521.49 161.109 3519.37 161.109"/>
    <path id="path2426" style="fill:#425059;fill-opacity:1;fill-rule:nonzero;stroke:none" d="M 3710.01 201.34 L 3746.47 201.34 L 3746.47 141.832 L 3710.01 141.832 L 3710.01 201.34"/>
    <path id="path2428" style="fill:#000000;fill-opacity:1;fill-rule:nonzero;stroke:none" d="M 3712.51 144.332 L 3743.97 144.332 L 3743.97 198.84 L 3712.51 198.84 L 3712.51 144.332 Z M 3746.47 139.332 L 3710.01 139.332 C 3708.63 139.332 3707.51 140.449 3707.51 141.832 L 3707.51 201.34 C 3707.51 202.719 3708.63 203.84 3710.01 203.84 L 3746.47 203.84 C 3747.85 203.84 3748.97 202.719 3748.97 201.34 L 3748.97 141.832 C 3748.97 140.449 3747.85 139.332 3746.47 139.332"/>
    <path id="path2430" style="fill:#8192a4;fill-opacity:1;fill-rule:nonzero;stroke:none" d="M 3746.47 117.25 L 3849.181 117.25 L 3849.181 223.352 L 3746.47 223.352 L 3746.47 117.25 Z"/>
    <path id="path2432" style="fill:#000000;fill-opacity:1;fill-rule:nonzero;stroke:none" d="M 3748.97 119.75 L 3846.68 119.75 L 3846.68 220.852 L 3748.97 220.852 L 3748.97 119.75 Z M 3849.18 114.75 L 3746.47 114.75 C 3745.1 114.75 3743.97 115.871 3743.97 117.25 L 3743.97 223.352 C 3743.97 224.73 3745.1 225.852 3746.47 225.852 L 3849.18 225.852 C 3850.56 225.852 3851.68 224.73 3851.68 223.352 L 3851.68 117.25 C 3851.68 115.871 3850.56 114.75 3849.18 114.75"/>
    <path id="path2434" style="fill:#eb4900;fill-opacity:1;fill-rule:nonzero;stroke:none" d="M 3849.18 130.211 L 3866.66 130.211 L 3866.66 210.391 L 3849.18 210.391 L 3849.18 130.211 Z"/>
    <path id="path2436" style="fill:#000000;fill-opacity:1;fill-rule:nonzero;stroke:none" d="M 3851.68 132.711 L 3864.16 132.711 L 3864.16 207.891 L 3851.68 207.891 L 3851.68 132.711 Z M 3866.66 127.711 L 3849.18 127.711 C 3847.8 127.711 3846.68 128.832 3846.68 130.211 L 3846.68 210.391 C 3846.68 211.77 3847.8 212.891 3849.18 212.891 L 3866.66 212.891 C 3868.04 212.891 3869.16 211.77 3869.16 210.391 L 3869.16 130.211 C 3869.16 128.832 3868.04 127.711 3866.66 127.711"/>
    <path id="path2438" style="fill:#425059;fill-opacity:1;fill-rule:nonzero;stroke:none" d="M 3866.66 134.699 L 3886.179 134.699 L 3886.179 205.859 L 3866.66 205.859 L 3866.66 134.699 Z"/>
    <path id="path2440" style="fill:#000000;fill-opacity:1;fill-rule:nonzero;stroke:none" d="M 3869.16 137.199 L 3883.68 137.199 L 3883.68 203.359 L 3869.16 203.359 L 3869.16 137.199 Z M 3886.18 132.199 L 3866.66 132.199 C 3865.28 132.199 3864.16 133.32 3864.16 134.699 L 3864.16 205.859 C 3864.16 207.238 3865.28 208.359 3866.66 208.359 L 3886.18 208.359 C 3887.56 208.359 3888.68 207.238 3888.68 205.859 L 3888.68 134.699 C 3888.68 133.32 3887.56 132.199 3886.18 132.199"/>
    <path id="path2442" style="fill:#8192a4;fill-opacity:1;fill-rule:nonzero;stroke:none" d="M 3707.48 154.16 L 3886.179 154.16 L 3886.179 186.41 L 3707.48 186.41 L 3707.48 154.16 Z"/>
    <path id="path2444" style="fill:#000000;fill-opacity:1;fill-rule:nonzero;stroke:none" d="M 3709.98 156.66 L 3883.68 156.66 L 3883.68 183.91 L 3709.98 183.91 L 3709.98 156.66 Z M 3886.18 151.66 L 3707.48 151.66 C 3706.1 151.66 3704.98 152.789 3704.98 154.16 L 3704.98 186.41 C 3704.98 187.789 3706.1 188.91 3707.48 188.91 L 3886.18 188.91 C 3887.56 188.91 3888.68 187.789 3888.68 186.41 L 3888.68 154.16 C 3888.68 152.789 3887.56 151.66 3886.18 151.66"/>
    <path id="path2446" style="fill:#425059;fill-opacity:1;fill-rule:nonzero;stroke:none" d="M 3888.75 127.121 L 3908.23 127.121 L 3908.23 213.449 L 3888.75 213.449 L 3888.75 127.121 Z"/>
    <path id="path2448" style="fill:#000000;fill-opacity:1;fill-rule:nonzero;stroke:none" d="M 3891.25 129.621 L 3905.73 129.621 L 3905.73 210.949 L 3891.25 210.949 L 3891.25 129.621 Z M 3908.23 124.621 L 3888.75 124.621 C 3887.37 124.621 3886.25 125.75 3886.25 127.121 L 3886.25 213.449 C 3886.25 214.832 3887.37 215.949 3888.75 215.949 L 3908.23 215.949 C 3909.61 215.949 3910.73 214.832 3910.73 213.449 L 3910.73 127.121 C 3910.73 125.75 3909.61 124.621 3908.23 124.621"/>
    <path id="path2450" style="fill:#8192a4;fill-opacity:1;fill-rule:nonzero;stroke:none" d="M 3886.18 117.25 L 3898.512 117.25 L 3898.512 223.352 L 3886.18 223.352 L 3886.18 117.25 Z"/>
    <path id="path2452" style="fill:#000000;fill-opacity:1;fill-rule:nonzero;stroke:none" d="M 3888.68 119.75 L 3896.01 119.75 L 3896.01 220.852 L 3888.68 220.852 L 3888.68 119.75 Z M 3898.51 114.75 L 3886.18 114.75 C 3884.8 114.75 3883.68 115.871 3883.68 117.25 L 3883.68 223.352 C 3883.68 224.73 3884.8 225.852 3886.18 225.852 L 3898.51 225.852 C 3899.88 225.852 3901.01 224.73 3901.01 223.352 L 3901.01 117.25 C 3901.01 115.871 3899.88 114.75 3898.51 114.75"/>
    <path id="path2454" style="fill:#8192a4;fill-opacity:1;fill-rule:nonzero;stroke:none" d="M 3669.91 136.66 L 3694.601 136.66 L 3694.601 223.351 L 3669.91 223.351 L 3669.91 136.66 Z"/>
    <path id="path2456" style="fill:#000000;fill-opacity:1;fill-rule:nonzero;stroke:none" d="M 3672.41 139.16 L 3692.1 139.16 L 3692.1 220.852 L 3672.41 220.852 L 3672.41 139.16 Z M 3694.6 134.16 L 3669.91 134.16 C 3668.54 134.16 3667.41 135.289 3667.41 136.66 L 3667.41 223.352 C 3667.41 224.73 3668.54 225.852 3669.91 225.852 L 3694.6 225.852 C 3695.98 225.852 3697.1 224.73 3697.1 223.352 L 3697.1 136.66 C 3697.1 135.289 3695.98 134.16 3694.6 134.16"/>
    <path id="path2458" style="fill:#8192a4;fill-opacity:1;fill-rule:nonzero;stroke:none" d="M 3694.6 122.742 L 3737.788 122.742 L 3737.788 223.351 L 3694.6 223.351 L 3694.6 122.742 Z"/>
    <path id="path2460" style="fill:#000000;fill-opacity:1;fill-rule:nonzero;stroke:none" d="M 3697.1 125.242 L 3735.29 125.242 L 3735.29 220.852 L 3697.1 220.852 L 3697.1 125.242 Z M 3737.79 120.242 L 3694.6 120.242 C 3693.22 120.242 3692.1 121.359 3692.1 122.742 L 3692.1 223.352 C 3692.1 224.73 3693.22 225.852 3694.6 225.852 L 3737.79 225.852 C 3739.17 225.852 3740.29 224.73 3740.29 223.352 L 3740.29 122.742 C 3740.29 121.359 3739.17 120.242 3737.79 120.242"/>
    <path id="path2462" style="fill:#bcc4cd;fill-opacity:1;fill-rule:nonzero;stroke:none" d="M 3746.47 146.238 L 3849.181 146.238 L 3849.181 194.308 L 3746.47 194.308 L 3746.47 146.238 Z"/>
    <path id="path2464" style="fill:#000000;fill-opacity:1;fill-rule:nonzero;stroke:none" d="M 3748.97 148.738 L 3846.68 148.738 L 3846.68 191.809 L 3748.97 191.809 L 3748.97 148.738 Z M 3849.18 143.738 L 3746.47 143.738 C 3745.1 143.738 3743.97 144.871 3743.97 146.238 L 3743.97 194.309 C 3743.97 195.691 3745.1 196.809 3746.47 196.809 L 3849.18 196.809 C 3850.56 196.809 3851.68 195.691 3851.68 194.309 L 3851.68 146.238 C 3851.68 144.871 3850.56 143.738 3849.18 143.738"/>
    <path id="path2466" style="fill:#d33605;fill-opacity:1;fill-rule:nonzero;stroke:none" d="M 3849.18 152.121 L 3866.66 152.121 L 3866.66 188.461 L 3849.18 188.461 L 3849.18 152.121 Z"/>
    <path id="path2468" style="fill:#000000;fill-opacity:1;fill-rule:nonzero;stroke:none" d="M 3851.68 154.621 L 3864.16 154.621 L 3864.16 185.961 L 3851.68 185.961 L 3851.68 154.621 Z M 3866.66 149.621 L 3849.18 149.621 C 3847.8 149.621 3846.68 150.75 3846.68 152.121 L 3846.68 188.461 C 3846.68 189.84 3847.8 190.961 3849.18 190.961 L 3866.66 190.961 C 3868.04 190.961 3869.16 189.84 3869.16 188.461 L 3869.16 152.121 C 3869.16 150.75 3868.04 149.621 3866.66 149.621"/>
    <path id="path2470" style="fill:#8192a4;fill-opacity:1;fill-rule:nonzero;stroke:none" d="M 3888.75 150.742 L 3908.23 150.742 L 3908.23 189.859 L 3888.75 189.859 L 3888.75 150.742 Z"/>
    <path id="path2472" style="fill:#000000;fill-opacity:1;fill-rule:nonzero;stroke:none" d="M 3891.25 153.242 L 3905.73 153.242 L 3905.73 187.359 L 3891.25 187.359 L 3891.25 153.242 Z M 3908.23 148.242 L 3888.75 148.242 C 3887.37 148.242 3886.25 149.359 3886.25 150.742 L 3886.25 189.859 C 3886.25 191.23 3887.37 192.359 3888.75 192.359 L 3908.23 192.359 C 3909.61 192.359 3910.73 191.23 3910.73 189.859 L 3910.73 150.742 C 3910.73 149.359 3909.61 148.242 3908.23 148.242"/>
    <path id="path2474" style="fill:#8192a4;fill-opacity:1;fill-rule:nonzero;stroke:none" d="M 3907.75 117.25 L 3926.219 117.25 L 3926.219 223.352 L 3907.75 223.352 L 3907.75 117.25 Z"/>
    <path id="path2476" style="fill:#000000;fill-opacity:1;fill-rule:nonzero;stroke:none" d="M 3910.25 119.75 L 3923.72 119.75 L 3923.72 220.852 L 3910.25 220.852 L 3910.25 119.75 Z M 3926.22 114.75 L 3907.75 114.75 C 3906.38 114.75 3905.25 115.871 3905.25 117.25 L 3905.25 223.352 C 3905.25 224.73 3906.38 225.852 3907.75 225.852 L 3926.22 225.852 C 3927.6 225.852 3928.72 224.73 3928.72 223.352 L 3928.72 117.25 C 3928.72 115.871 3927.6 114.75 3926.22 114.75"/>
    <path id="path2478" style="fill:#bcc4cd;fill-opacity:1;fill-rule:nonzero;stroke:none" d="M 3907.75 146.262 L 3926.219 146.262 L 3926.219 194.309 L 3907.75 194.309 L 3907.75 146.262 Z"/>
    <path id="path2480" style="fill:#000000;fill-opacity:1;fill-rule:nonzero;stroke:none" d="M 3910.25 148.762 L 3923.72 148.762 L 3923.72 191.809 L 3910.25 191.809 L 3910.25 148.762 Z M 3926.22 143.762 L 3907.75 143.762 C 3906.38 143.762 3905.25 144.891 3905.25 146.262 L 3905.25 194.309 C 3905.25 195.691 3906.38 196.809 3907.75 196.809 L 3926.22 196.809 C 3927.6 196.809 3928.72 195.691 3928.72 194.309 L 3928.72 146.262 C 3928.72 144.891 3927.6 143.762 3926.22 143.762"/>
    <path id="path2482" style="fill:#bcc4cd;fill-opacity:1;fill-rule:nonzero;stroke:none" d="M 3886.18 146.238 L 3898.512 146.238 L 3898.512 194.308 L 3886.18 194.308 L 3886.18 146.238 Z"/>
    <path id="path2484" style="fill:#000000;fill-opacity:1;fill-rule:nonzero;stroke:none" d="M 3888.68 148.738 L 3896.01 148.738 L 3896.01 191.809 L 3888.68 191.809 L 3888.68 148.738 Z M 3898.51 143.738 L 3886.18 143.738 C 3884.8 143.738 3883.68 144.871 3883.68 146.238 L 3883.68 194.309 C 3883.68 195.691 3884.8 196.809 3886.18 196.809 L 3898.51 196.809 C 3899.88 196.809 3901.01 195.691 3901.01 194.309 L 3901.01 146.238 C 3901.01 144.871 3899.88 143.738 3898.51 143.738"/>
    <path id="path2486" style="fill:#8192a4;fill-opacity:1;fill-rule:nonzero;stroke:none" d="M 3691.57 172.711 L 3659.24 172.711 C 3657.89 172.711 3656.83 171.609 3656.83 170.289 C 3656.83 168.961 3657.89 167.879 3659.24 167.879 L 3691.57 167.879 L 3691.57 172.711 Z M 3643.97 170.289 C 3643.97 178.711 3650.81 185.52 3659.24 185.52 L 3704.42 185.52 L 3704.42 155.059 L 3659.24 155.059 C 3650.81 155.059 3643.97 161.879 3643.97 170.289"/>
    <path id="path2488" style="fill:#000000;fill-opacity:1;fill-rule:nonzero;stroke:none" d="M 3691.57 165.379 L 3659.24 165.379 C 3656.53 165.379 3654.33 167.582 3654.33 170.289 C 3654.33 173 3656.53 175.211 3659.24 175.211 L 3691.57 175.211 C 3692.95 175.211 3694.07 174.09 3694.07 172.711 L 3694.07 167.879 C 3694.07 166.512 3692.95 165.379 3691.57 165.379 Z M 3659.24 183.02 C 3652.2 183.02 3646.47 177.309 3646.47 170.289 C 3646.47 163.27 3652.2 157.559 3659.24 157.559 L 3701.92 157.559 L 3701.92 183.02 L 3659.24 183.02 Z M 3704.42 152.559 L 3659.24 152.559 C 3649.44 152.559 3641.47 160.512 3641.47 170.289 C 3641.47 180.059 3649.44 188.02 3659.24 188.02 L 3704.42 188.02 C 3705.8 188.02 3706.92 186.898 3706.92 185.52 L 3706.92 155.059 C 3706.92 153.68 3705.8 152.559 3704.42 152.559"/>
    <path id="path2490" style="fill:#bcc4cd;fill-opacity:1;fill-rule:nonzero;stroke:none" d="M 3710.01 148.738 C 3694.68 148.738 3690.44 158.391 3690.44 170.281 C 3690.44 182.199 3694.68 191.832 3710.01 191.832 L 3737.79 191.832 L 3737.79 148.738 C 3737.79 148.738 3725.35 148.738 3710.01 148.738"/>
    <path id="path2492" style="fill:#000000;fill-opacity:1;fill-rule:nonzero;stroke:none" d="M 3710.01 189.332 C 3698.2 189.332 3692.94 183.449 3692.94 170.281 C 3692.94 157.109 3698.2 151.238 3710.01 151.238 L 3735.29 151.238 L 3735.29 189.332 L 3710.01 189.332 Z M 3737.79 146.238 L 3710.01 146.238 C 3695.36 146.238 3687.94 154.332 3687.94 170.281 C 3687.94 186.23 3695.36 194.332 3710.01 194.332 L 3737.79 194.332 C 3739.17 194.332 3740.29 193.211 3740.29 191.832 L 3740.29 148.738 C 3740.29 147.371 3739.17 146.238 3737.79 146.238"/>
    <path id="path2494" style="fill:#8192a4;fill-opacity:1;fill-rule:nonzero;stroke:none" d="M 3849.18 146.238 L 3849.18 117.25 L 3746.47 117.25 L 3746.47 146.238 L 3849.18 146.238"/>
    <path id="path2496" style="fill:#000000;fill-opacity:1;fill-rule:nonzero;stroke:none" d="M 3748.97 119.75 L 3846.68 119.75 L 3846.68 143.738 L 3748.97 143.738 L 3748.97 119.75 Z M 3849.18 114.75 L 3746.47 114.75 C 3745.1 114.75 3743.97 115.871 3743.97 117.25 L 3743.97 146.238 C 3743.97 147.621 3745.1 148.738 3746.47 148.738 L 3849.18 148.738 C 3850.56 148.738 3851.68 147.621 3851.68 146.238 L 3851.68 117.25 C 3851.68 115.871 3850.56 114.75 3849.18 114.75"/>
    <path id="path2498" style="fill:#eb4900;fill-opacity:1;fill-rule:nonzero;stroke:none" d="M 3866.66 152.121 L 3866.66 130.211 L 3849.18 130.211 L 3849.18 152.121 L 3866.66 152.121"/>
    <path id="path2500" style="fill:#000000;fill-opacity:1;fill-rule:nonzero;stroke:none" d="M 3851.68 132.711 L 3864.16 132.711 L 3864.16 149.621 L 3851.68 149.621 L 3851.68 132.711 Z M 3866.66 127.711 L 3849.18 127.711 C 3847.8 127.711 3846.68 128.832 3846.68 130.211 L 3846.68 152.121 C 3846.68 153.5 3847.8 154.621 3849.18 154.621 L 3866.66 154.621 C 3868.04 154.621 3869.16 153.5 3869.16 152.121 L 3869.16 130.211 C 3869.16 128.832 3868.04 127.711 3866.66 127.711"/>
    <path id="path2502" style="fill:#425059;fill-opacity:1;fill-rule:nonzero;stroke:none" d="M 3755.3 137.949 L 3770.761 137.949 L 3770.761 202.64 L 3755.3 202.64 L 3755.3 137.949 Z"/>
    <path id="path2504" style="fill:#000000;fill-opacity:1;fill-rule:nonzero;stroke:none" d="M 3757.8 140.449 L 3768.26 140.449 L 3768.26 200.141 L 3757.8 200.141 L 3757.8 140.449 Z M 3770.76 135.449 L 3755.3 135.449 C 3753.93 135.449 3752.8 136.582 3752.8 137.949 L 3752.8 202.641 C 3752.8 204.02 3753.93 205.141 3755.3 205.141 L 3770.76 205.141 C 3772.14 205.141 3773.26 204.02 3773.26 202.641 L 3773.26 137.949 C 3773.26 136.582 3772.14 135.449 3770.76 135.449"/>
    <path id="path2506" style="fill:#425059;fill-opacity:1;fill-rule:nonzero;stroke:none" d="M 3824.91 137.949 L 3840.359 137.949 L 3840.359 202.64 L 3824.91 202.64 L 3824.91 137.949 Z"/>
    <path id="path2508" style="fill:#000000;fill-opacity:1;fill-rule:nonzero;stroke:none" d="M 3827.41 140.449 L 3837.86 140.449 L 3837.86 200.141 L 3827.41 200.141 L 3827.41 140.449 Z M 3840.36 135.449 L 3824.91 135.449 C 3823.54 135.449 3822.41 136.582 3822.41 137.949 L 3822.41 202.641 C 3822.41 204.02 3823.54 205.141 3824.91 205.141 L 3840.36 205.141 C 3841.74 205.141 3842.86 204.02 3842.86 202.641 L 3842.86 137.949 C 3842.86 136.582 3841.74 135.449 3840.36 135.449"/>
    <path id="path2510" style="fill:#425059;fill-opacity:1;fill-rule:nonzero;stroke:none" d="M 3790.13 137.949 L 3805.56 137.949 L 3805.56 202.64 L 3790.13 202.64 L 3790.13 137.949 Z"/>
    <path id="path2512" style="fill:#000000;fill-opacity:1;fill-rule:nonzero;stroke:none" d="M 3792.63 140.449 L 3803.06 140.449 L 3803.06 200.141 L 3792.63 200.141 L 3792.63 140.449 Z M 3805.56 135.449 L 3790.13 135.449 C 3788.75 135.449 3787.63 136.582 3787.63 137.949 L 3787.63 202.641 C 3787.63 204.02 3788.75 205.141 3790.13 205.141 L 3805.56 205.141 C 3806.93 205.141 3808.06 204.02 3808.06 202.641 L 3808.06 137.949 C 3808.06 136.582 3806.93 135.449 3805.56 135.449"/>
    <path id="path2514" style="fill:#425059;fill-opacity:1;fill-rule:nonzero;stroke:none" d="M 3676.07 194.309 C 3676.07 188.77 3680.57 184.289 3686.1 184.289 L 3722.74 184.289 C 3728.29 184.289 3732.78 188.77 3732.78 194.309 L 3732.78 194.309 C 3732.78 199.871 3728.29 204.379 3722.74 204.379 L 3686.1 204.379 C 3680.57 204.379 3676.07 199.871 3676.07 194.309 L 3676.07 194.309"/>
    <path id="path2516" style="fill:#000000;fill-opacity:1;fill-rule:nonzero;stroke:none" d="M 3686.1 201.879 C 3681.95 201.879 3678.57 198.48 3678.57 194.309 C 3678.57 190.16 3681.95 186.789 3686.1 186.789 L 3722.74 186.789 C 3726.9 186.789 3730.28 190.16 3730.28 194.309 C 3730.28 198.48 3726.9 201.879 3722.74 201.879 L 3686.1 201.879 Z M 3722.74 181.789 L 3686.1 181.789 C 3679.2 181.789 3673.57 187.41 3673.57 194.309 C 3673.57 201.238 3679.2 206.879 3686.1 206.879 L 3722.74 206.879 C 3729.66 206.879 3735.28 201.238 3735.28 194.309 C 3735.28 187.41 3729.66 181.789 3722.74 181.789"/>
    <path id="path2518" style="fill:#222b30;fill-opacity:1;fill-rule:nonzero;stroke:none" d="M 3686.1 194.34 L 3722.74 194.34 C 3726.42 194.34 3729.48 192.262 3731.22 189.309 C 3729.48 186.371 3726.42 184.289 3722.74 184.289 L 3686.1 184.289 C 3682.44 184.289 3679.38 186.371 3677.62 189.309 C 3679.38 192.262 3682.44 194.34 3686.1 194.34"/>
    <path id="path2520" style="fill:#000000;fill-opacity:1;fill-rule:nonzero;stroke:none" d="M 3680.7 189.309 C 3682.12 187.711 3684.05 186.789 3686.1 186.789 L 3722.74 186.789 C 3724.8 186.789 3726.74 187.711 3728.14 189.309 C 3726.74 190.91 3724.8 191.84 3722.74 191.84 L 3686.1 191.84 C 3684.05 191.84 3682.12 190.91 3680.7 189.309 Z M 3722.74 181.789 L 3686.1 181.789 C 3681.78 181.789 3677.8 184.121 3675.47 188.031 C 3675 188.809 3675 189.801 3675.47 190.59 C 3677.8 194.512 3681.78 196.84 3686.1 196.84 L 3722.74 196.84 C 3727.09 196.84 3731.06 194.5 3733.38 190.582 C 3733.84 189.801 3733.84 188.82 3733.37 188.039 C 3731.05 184.121 3727.09 181.789 3722.74 181.789"/>
    <path id="path2522" style="fill:#f4d9bd;fill-opacity:1;fill-rule:nonzero;stroke:none" d="M 3542.21 274.609 C 3526.55 255.75 3515.76 236.93 3508.38 220.422 C 3497.46 196.07 3566.96 154.309 3572.87 150.711 C 3612.74 126.379 3631.29 180.43 3615.7 191.309 C 3596.91 204.352 3559.51 206.211 3564.22 223.832 C 3580.91 286.18 3596.5 302.742 3600.45 311.102 C 3600.45 311.102 3575.81 315.102 3542.21 274.609"/>
    <path id="path2524" style="fill:#000000;fill-opacity:1;fill-rule:nonzero;stroke:none" d="M 3596.18 308.59 C 3588.19 307.832 3568.73 302.648 3544.13 273.02 C 3530.47 256.559 3519.21 238.52 3510.66 219.398 C 3503.41 203.23 3538.54 174.52 3573.82 153.051 C 3580.55 148.949 3586.64 146.98 3592.29 146.98 C 3605.74 146.98 3614.07 158.301 3617.12 167.992 C 3620.05 177.309 3618.88 186.051 3614.27 189.262 C 3607.66 193.852 3598.51 197.039 3589.66 200.129 C 3573.5 205.77 3558.22 211.09 3561.81 224.48 C 3575.37 275.172 3588.52 296.262 3594.82 306.41 C 3595.31 307.191 3595.76 307.91 3596.18 308.59 Z M 3592.29 141.98 L 3592.29 141.98 C 3585.71 141.98 3578.74 144.199 3571.57 148.57 C 3548.14 162.832 3495.6 198.012 3506.09 221.449 C 3514.83 240.969 3526.34 259.398 3540.28 276.199 C 3569.16 311 3592.15 313.699 3598.51 313.699 C 3600.04 313.699 3600.85 313.57 3600.85 313.57 C 3601.62 313.43 3602.29 312.941 3602.66 312.25 C 3603.02 311.559 3603.05 310.742 3602.71 310.031 C 3601.88 308.281 3600.64 306.289 3599.07 303.762 C 3592.41 293.07 3580.01 273.16 3566.63 223.191 C 3564.41 214.879 3574.47 210.719 3591.31 204.852 C 3600.47 201.648 3609.95 198.34 3617.13 193.359 C 3623.61 188.84 3625.53 178.039 3621.89 166.5 C 3618.33 155.191 3608.45 141.98 3592.29 141.98"/>
    <path id="path2526" style="fill:#f4d9bd;fill-opacity:1;fill-rule:nonzero;stroke:none" d="M 3651.56 145.379 C 3653.71 133.289 3645.66 121.75 3633.55 119.629 L 3604.61 114.512 C 3592.54 112.398 3581.02 120.461 3578.91 132.57 L 3573.79 161.469 C 3571.67 173.57 3579.76 185.082 3591.82 187.191 L 3620.73 192.32 C 3632.81 194.43 3644.34 186.379 3646.46 174.289 L 3651.56 145.379"/>
    <path id="path2528" style="fill:#000000;fill-opacity:1;fill-rule:nonzero;stroke:none" d="M 3624.59 190.148 C 3623.46 190.148 3622.31 190.051 3621.16 189.859 L 3592.26 184.73 C 3587.07 183.82 3582.56 180.949 3579.53 176.641 C 3576.5 172.332 3575.34 167.09 3576.25 161.898 L 3581.37 133.012 C 3583.21 122.43 3593.21 115.09 3604.18 116.969 L 3633.12 122.09 C 3638.31 123 3642.82 125.871 3645.84 130.18 C 3648.87 134.512 3650.03 139.75 3649.1 144.941 L 3644 173.859 C 3642.34 183.301 3634.18 190.148 3624.59 190.148 Z M 3600.76 111.672 C 3588.74 111.672 3578.51 120.281 3576.45 132.141 L 3571.33 161.031 C 3570.19 167.539 3571.65 174.102 3575.44 179.52 C 3579.23 184.922 3584.89 188.52 3591.39 189.648 L 3620.29 194.781 C 3634 197.172 3646.6 187.961 3648.93 174.719 L 3654.02 145.809 C 3655.19 139.301 3653.73 132.73 3649.94 127.32 C 3646.15 121.91 3640.49 118.301 3633.98 117.172 L 3605.05 112.039 C 3603.6 111.789 3602.17 111.672 3600.76 111.672"/>
    <path id="path2530" style="fill:#d33605;fill-opacity:1;fill-rule:nonzero;stroke:none" d="M 3611.44 182.629 L 3583.57 146 C 3580.08 141.422 3573.54 140.512 3568.94 144.031 L 3537.44 168.02 C 3532.83 171.531 3531.94 178.059 3535.48 182.648 L 3563.33 219.242 C 3566.85 223.832 3573.4 224.73 3577.99 221.211 L 3609.46 197.238 C 3614.05 193.75 3614.93 187.191 3611.44 182.629"/>
    <path id="path2532" style="fill:#000000;fill-opacity:1;fill-rule:nonzero;stroke:none" d="M 3571.66 220.859 C 3569.16 220.859 3566.85 219.719 3565.31 217.719 L 3537.47 181.141 C 3536.16 179.449 3535.61 177.371 3535.88 175.281 C 3536.16 173.18 3537.26 171.301 3538.96 170.012 L 3570.45 146.02 C 3573.87 143.391 3579.01 144.129 3581.59 147.512 L 3609.44 184.141 C 3610.73 185.82 3611.29 187.898 3611.01 190 C 3610.72 192.102 3609.64 193.969 3607.95 195.25 L 3576.47 219.219 C 3575.08 220.301 3573.41 220.859 3571.66 220.859 Z M 3575.25 139.379 C 3572.4 139.379 3569.7 140.301 3567.42 142.039 L 3535.93 166.031 C 3533.15 168.141 3531.38 171.18 3530.93 174.621 C 3530.47 178.039 3531.39 181.43 3533.5 184.172 L 3561.34 220.762 C 3565.58 226.281 3574 227.43 3579.51 223.199 L 3610.98 199.23 C 3613.73 197.141 3615.5 194.102 3615.96 190.672 C 3616.42 187.238 3615.52 183.852 3613.42 181.109 L 3585.57 144.492 C 3583.09 141.238 3579.34 139.379 3575.25 139.379"/>
    <path id="path2534" style="fill:#d33605;fill-opacity:1;fill-rule:nonzero;stroke:none" d="M 3525.7 259.301 C 3530.54 245.879 3545.38 238.98 3558.8 243.852 L 3597.5 257.961 C 3610.91 262.832 3617.79 277.672 3612.95 291.082 L 3608.42 303.48 C 3603.56 316.852 3588.71 323.738 3575.32 318.879 L 3536.63 304.82 C 3523.21 299.922 3516.29 285.09 3521.17 271.672 L 3525.7 259.301"/>
    <path id="path2536" style="fill:#000000;fill-opacity:1;fill-rule:nonzero;stroke:none" d="M 3584.15 317.941 C 3581.44 317.941 3578.75 317.461 3576.17 316.531 L 3537.48 302.461 C 3525.39 298.051 3519.12 284.609 3523.53 272.531 L 3528.05 260.16 C 3531.37 250.961 3540.17 244.789 3549.96 244.789 L 3549.96 244.789 C 3552.68 244.789 3555.36 245.27 3557.95 246.199 L 3596.64 260.32 C 3608.72 264.691 3614.97 278.109 3610.6 290.23 L 3606.07 302.621 C 3602.74 311.789 3593.94 317.941 3584.15 317.941 Z M 3549.96 239.789 L 3549.96 239.789 C 3538.07 239.789 3527.37 247.289 3523.35 258.449 L 3518.83 270.809 C 3513.49 285.492 3521.08 301.801 3535.77 307.16 L 3574.47 321.23 C 3577.59 322.371 3580.85 322.941 3584.15 322.941 C 3596.03 322.941 3606.73 315.461 3610.77 304.332 L 3615.29 291.941 C 3620.62 277.219 3613.01 260.93 3598.35 255.609 L 3559.66 241.5 C 3556.52 240.359 3553.26 239.789 3549.96 239.789"/>
    <path id="path2538" style="fill:#eb4900;fill-opacity:1;fill-rule:nonzero;stroke:none" d="M 3530.97 284.539 C 3534.18 275.672 3543.96 271.129 3552.81 274.34 L 3578.39 283.648 C 3587.25 286.859 3591.82 296.672 3588.58 305.5 L 3585.62 313.711 C 3582.39 322.539 3572.61 327.102 3563.75 323.891 L 3538.17 314.582 C 3529.32 311.371 3524.77 301.57 3528 292.73 L 3530.97 284.539"/>
    <path id="path2540" style="fill:#000000;fill-opacity:1;fill-rule:nonzero;stroke:none" d="M 3569.58 322.422 C 3567.88 322.422 3566.21 322.121 3564.6 321.539 L 3539.03 312.23 C 3535.38 310.91 3532.46 308.25 3530.82 304.719 C 3529.18 301.191 3529.01 297.238 3530.34 293.59 L 3533.32 285.391 C 3535.39 279.66 3540.88 275.801 3546.97 275.801 C 3546.97 275.801 3546.97 275.801 3546.98 275.801 C 3548.67 275.801 3550.35 276.109 3551.96 276.691 L 3577.53 286 C 3581.19 287.32 3584.11 289.988 3585.75 293.531 C 3587.4 297.051 3587.57 301 3586.24 304.641 L 3583.26 312.859 C 3581.18 318.582 3575.67 322.422 3569.58 322.422 Z M 3546.97 270.801 L 3546.97 270.801 C 3538.78 270.801 3531.41 275.988 3528.61 283.691 L 3525.64 291.879 C 3523.86 296.781 3524.08 302.09 3526.29 306.832 C 3528.5 311.57 3532.41 315.148 3537.32 316.941 L 3562.89 326.238 C 3565.06 327.02 3567.3 327.422 3569.58 327.422 C 3577.77 327.422 3585.16 322.262 3587.96 314.57 L 3590.94 306.352 C 3592.72 301.469 3592.5 296.16 3590.29 291.422 C 3588.08 286.672 3584.15 283.082 3579.24 281.289 L 3553.67 271.992 C 3551.5 271.199 3549.26 270.801 3546.97 270.801"/>
  </g>
</svg>